<svg id="mockup" xmlns="http://www.w3.org/2000/svg" xmlns:xlink="http://www.w3.org/1999/xlink" viewBox="0 0 1850.04 1200.31"><defs><style>.cls-1{fill:#f1c49d;}.cls-2{mask:url(#mask);}.cls-3{fill:#fad9c1;}.cls-4{mask:url(#mask-2);}.cls-5{opacity:0.3;}.cls-6{fill:#fff;}.cls-7{filter:url(#luminosity-noclip-2);}.cls-8{filter:url(#luminosity-noclip);}</style><filter id="luminosity-noclip" x="696.92" y="553.47" width="497.69" height="75.67" filterUnits="userSpaceOnUse" color-interpolation-filters="sRGB"><feFlood flood-color="#fff" result="bg"/><feBlend in="SourceGraphic" in2="bg"/></filter><mask id="mask" x="696.92" y="553.47" width="497.69" height="75.67" maskUnits="userSpaceOnUse"><g class="cls-8"><path d="M764.62,561a4.72,4.72,0,0,0,.82.17s.27-.36.53-.73l.9-1.3a2.44,2.44,0,0,0,.38-.75,6.1,6.1,0,0,0-.89-.39l-1-.34a1.42,1.42,0,0,0-1.32.42l-1.13,1.44a.61.61,0,0,0,.29,1Z"/><path d="M888.94,595c-.05.3,0,.37.24.15s.56-.91.43-1S889,594.68,888.94,595Z"/><path d="M1122.1,572.14a.92.92,0,0,0-.14,1.21l.91,1.11a1,1,0,0,0,1.27.09l1.77-1.37a5.42,5.42,0,0,0,.64-.62,1.69,1.69,0,0,0-.62-.63l-1.22-.85a1.35,1.35,0,0,0-1.37.07Z"/><path d="M745,599.82a.66.66,0,0,0-.61.69c0,.33.5,1.25.93,1.25l1.5,0c.43,0,.73-.29.66-.66s-.34-1.39-.5-1.41S745.33,599.78,745,599.82Z"/><path d="M1090.08,567.54c.12.44.45.79.75.78a7.38,7.38,0,0,0,1.83-.49l.87-.42a4.89,4.89,0,0,0,.74-.41,8.13,8.13,0,0,0-.52-.72l-1.25-1.67a1,1,0,0,0-1.23-.28l-.9.46a1.22,1.22,0,0,0-.6,1.21Z"/><path d="M708,584.64c.08.43.28.81.43.83a1.06,1.06,0,0,0,.81-.69l.43-1.54a.9.9,0,0,0-.61-1c-.41-.12-1.53,0-1.43.42Z"/><path d="M1131.76,560.47a.93.93,0,0,0-.82.53c-.08.27.11,1,.49.85l2.67-.77c.38-.11.45-.28.15-.38A16.57,16.57,0,0,0,1131.76,560.47Z"/><path d="M1146.54,595.49c-.39-.08-.74-.09-.78,0s.13.45.44.71l1.51,1.22c.33.24.63.19.67-.11a3.39,3.39,0,0,0,0-1.26A12.72,12.72,0,0,0,1146.54,595.49Z"/><path d="M1075.48,590.8a1.46,1.46,0,0,0,.24-.53,1.12,1.12,0,0,0-.65-.76l-.75-.3c-.39-.14-.75-.19-.79-.12a3.68,3.68,0,0,0-.21.45,1.46,1.46,0,0,0,.48.8C1074.11,590.6,1075.37,591,1075.48,590.8Z"/><path d="M806.75,576.26a2.65,2.65,0,0,0,.94.16,1,1,0,0,0,.5-.83l-.32-2.08a.57.57,0,0,0-.83-.37l-3.31,1.51c-.35.16-.35.42,0,.56Z"/><path d="M868.15,592.69c-.39.16-.42.37-.07.47s1.4.05,1.46-.18-.25-.78-.65-.62Z"/><path d="M873.81,595.77a.27.27,0,0,0,.28-.22c0-.12-.17-.45-.41-.4s-.84.18-.8.25a.85.85,0,0,0,.23.29A6.18,6.18,0,0,0,873.81,595.77Z"/><path d="M782.9,599.77a.51.51,0,0,0,.07.69l.57.45a.57.57,0,0,0,.72-.12l.67-.84a.49.49,0,0,0-.1-.68l-.5-.37a.64.64,0,0,0-.74.1Z"/><path d="M732.23,559c-.24.32-.37.61-.29.65a1.26,1.26,0,0,0,.79-.45l.62-.73c.25-.32.37-.6.27-.63a1.42,1.42,0,0,0-.84.5Z"/><path d="M816.13,567a.73.73,0,0,0,.43.89c.34.1,1.51,0,1.73-.33l1-1.59a.42.42,0,0,0-.38-.67l-1.49-.09a1.12,1.12,0,0,0-.93.73Z"/><path d="M1180.15,600.41c.21,0,.36,0,.32-.07a.83.83,0,0,0-.52-.14C1179.77,600.24,1179.94,600.39,1180.15,600.41Z"/><path d="M1187.57,612.45c0,.38.22.51.6.28a7.35,7.35,0,0,0,.65-.46c.34-.26.36-.58.06-.71S1187.62,612.06,1187.57,612.45Z"/><path d="M916.62,573.74c0,.06.24.28.59.49l.7.47c.36.19.75.23.86.08a.61.61,0,0,0-.37-.79l-1-.25A1.31,1.31,0,0,0,916.62,573.74Z"/><path d="M821.52,612.15c0,.4.18.69.51.63s1.16-.52,1-.91l-.48-1.45c-.12-.39-.27-.7-.34-.7a1.36,1.36,0,0,0-.39.75Z"/><path d="M898.87,606.08a7.36,7.36,0,0,0-.8.17c-.38.1-1.43.58-1.46.89s.37,1.17.82,1.17h2.1a.45.45,0,0,0,.39-.74l-.44-.78A2.08,2.08,0,0,0,898.87,606.08Z"/><path d="M928.07,603.73a1,1,0,0,0,.86.86l3.33.4c.43.06.85-.09.92-.33s-.1-1.07-.5-1.24l-4.08-1.78c-.4-.15-.7.07-.65.5Z"/><path d="M783,556.36a.66.66,0,0,0,.63-.85l-.18-.9a1.7,1.7,0,0,0-.75-1.08c-.32-.14-1.31,0-1.45.39l-.43,1.64a.66.66,0,0,0,.7.8Z"/><path d="M1001.62,563.66c.13.08.51-.14.83-.49l1.09-1.27a.5.5,0,0,0-.33-.85l-1.09-.25a.74.74,0,0,0-.89.71l0,1A1.71,1.71,0,0,0,1001.62,563.66Z"/><path d="M892.35,597.17l.6.19s0-.32,0-.71a5.71,5.71,0,0,0-.21-1.42.81.81,0,0,0-.71.36C891.79,595.89,892,597.07,892.35,597.17Z"/><path d="M996.72,582.84c.28,0,.32-.05.09-.16a2.37,2.37,0,0,0-.93-.24C995.84,582.52,996.44,582.81,996.72,582.84Z"/><path d="M801,577.27a1.37,1.37,0,0,0,1.27.43s2.09-.54,3.65-1.08l1.08-.4c.41-.15.56-.51.34-.79a3,3,0,0,0-1.78-.85l-4.37,1.14a.7.7,0,0,0-.53.88A3.12,3.12,0,0,0,801,577.27Z"/><path d="M1020.89,595.5a2.93,2.93,0,0,0,1-1.35,6.8,6.8,0,0,0,.07-1.12c0-.43-.34-.51-.69-.18l-6,5.68c-.35.34-.57.65-.49.71a1.89,1.89,0,0,0,1-.32Z"/><path d="M959.61,613.46a.89.89,0,0,0,.31,1.1l1.5.8c.39.16.6,0,.48-.43l-.8-2.64c-.12-.4-.43-.46-.69-.13Z"/><path d="M964.68,607.25a.6.6,0,0,0,.59.83l1.2,0a1.33,1.33,0,0,0,1.1-.84,15.4,15.4,0,0,0,.46-1.81,1.89,1.89,0,0,0-.77-.52c-.39-.14-1.67,0-1.86.42Z"/><path d="M990.93,591.2c0,.31.28.57.68.58l2.25.13c.4,0,.74-.09.75-.23a1.13,1.13,0,0,0-.68-.75l-2-.59C991.51,590.25,991,590.89,990.93,591.2Z"/><path d="M885.72,569.65a.94.94,0,0,0,.94.54c.3-.09,1.14-.68,1.16-1.12v-2.79a2.81,2.81,0,0,0-.27-1.15,1.6,1.6,0,0,0-1.23-.51l-2.4.53a.55.55,0,0,0-.35.88Z"/><path d="M1139.15,556.12a.66.66,0,0,0,.15,1.06l1.43.88a.58.58,0,0,0,.91-.42l.46-2.67c.1-.46.1-.89,0-.94a1.42,1.42,0,0,0-1,.35Z"/><path d="M768.61,586.13a.58.58,0,0,0,.43.86l3,.71a.55.55,0,0,0,.7-.62l0-1a1.7,1.7,0,0,0-.7-1.19l-1.27-.75a.9.9,0,0,0-1.13.28Z"/><path d="M1177.86,594.94c.24-.34.15-.65-.19-.68a3.81,3.81,0,0,0-1.84.35l-1.49,1.29c-.3.29-.22.54.2.57l1.42.13a1.48,1.48,0,0,0,1.18-.6Z"/><path d="M1039.33,574.93a1,1,0,0,0,.3.49,8.33,8.33,0,0,0,1.36.92l2,1c.41.21.82.24.92.07a1.43,1.43,0,0,0-.29-1.23l-2.75-2.46c-.36-.29-.8-.36-1-.14A5.31,5.31,0,0,0,1039.33,574.93Z"/><path d="M954.21,607.09a1,1,0,0,0,.79.71c.31,0,1.22-.19,1.31-.46s-.08-1.18-.44-1.32a13.65,13.65,0,0,0-1.65-.49c-.14,0-.4.3-.27.68Z"/><path d="M1176.35,579.23c.32.31.64.45.71.3a2,2,0,0,0,0-1.16c-.16-.35-.87-1.21-1.13-1.09s-.67.82-.35,1.13Z"/><path d="M1038.48,568.18a.61.61,0,0,0,.55-.35,6,6,0,0,0,.24-.87,1.08,1.08,0,0,0-.73-.14c-.39,0-1.47.19-1.52.37s-.06.72.09.77A12.68,12.68,0,0,0,1038.48,568.18Z"/><path d="M759.53,571.12c0,.41.13.76.29.78a1.44,1.44,0,0,0,1-.57l1-1.77a.59.59,0,0,0-.39-.87l-1-.26c-.41-.07-.78-.06-.82,0a4.07,4.07,0,0,0-.12,1Z"/><path d="M1041.3,559.07c.47-.07.87-.37.89-.66s-.41-1.15-.88-1.24l-1.6-.24a.83.83,0,0,0-.91.75c0,.45.46,1.67.94,1.59Z"/><path d="M1083.54,558.41c0,.11.15.44.42.73s1.18,1,1.34.82.27-.79-.1-1l-.85-.53C1084,558.2,1083.58,558.3,1083.54,558.41Z"/><path d="M1053.69,564.34a1.4,1.4,0,0,0,.13,1.27,5.92,5.92,0,0,0,1.45,1.18c.3.09,1.26,0,1.45-.36l.45-1a1.37,1.37,0,0,0-.29-1.33l-1.34-1.19c-.35-.28-.7-.45-.78-.39a4.79,4.79,0,0,0-.66,1Z"/><path d="M822.71,581.47c0,.1.36.11.77,0l.72-.17c.41-.09.42-.16,0-.16A4.44,4.44,0,0,0,822.71,581.47Z"/><path d="M723.38,596.26c.25.29.55.44.68.35s.06-.66-.32-.86S723.13,596,723.38,596.26Z"/><path d="M966.37,574.14c-.39-.1-.62-.07-.51.07A4.24,4.24,0,0,0,967,575a5.54,5.54,0,0,0,1.38.39,2.19,2.19,0,0,0,.13-.33.63.63,0,0,0-.21-.25A18.84,18.84,0,0,0,966.37,574.14Z"/><path d="M819.57,577a3,3,0,0,0-.06.85,2.87,2.87,0,0,0,.6-.73l1.95-3.24a.82.82,0,0,0-.31-1.12c-.39-.2-1.61-.22-1.67.24Z"/><path d="M1143.69,579.46c-.18.43-.09.59.21.35s1-1.07.88-1.22S1143.87,579,1143.69,579.46Z"/><path d="M907.05,606.46c-.26.38-.37.74-.26.81a4.92,4.92,0,0,0,.69.27,1.65,1.65,0,0,0,1-.54l1.44-1.71c.28-.36.38-.78.22-.94a3.85,3.85,0,0,0-.83-.49,1.87,1.87,0,0,0-.78.63Z"/><path d="M1056.56,588.31c0-.46-.33-.81-.62-.77s-1.12.51-1.14.83a6,6,0,0,0,.41,1.93l.44.76c.23.41.52.69.65.62a1.55,1.55,0,0,0,.41-1.1Z"/><path d="M1083.15,597.25c0,.1.3.3.7.44l1.9.75c.39.15.81.12.94-.05a2.29,2.29,0,0,0,.35-.73l0,0a19,19,0,0,0-2.07-1.8.8.8,0,0,0-1,0A6.37,6.37,0,0,0,1083.15,597.25Z"/><path d="M815.85,563.92a.55.55,0,0,0,.29.92l4.05,1.38a6.38,6.38,0,0,0,.83.22,5.16,5.16,0,0,0,0-.9l-.17-1.87a4.9,4.9,0,0,0-.11-.88,9.35,9.35,0,0,0-.88-.38l-1-.39a1.56,1.56,0,0,0-1.43.26Z"/><path d="M1145.91,602.65c-.28-.32-.62-.53-.77-.47a1.08,1.08,0,0,0-.31,1l.48,1.46a.81.81,0,0,0,1,.51c.36-.11,1.11-.79.82-1.1Z"/><path d="M1151.23,598.57c.15,0,.5-.28.78-.65a8.9,8.9,0,0,0,1.09-2.21c0-.42,0-1.45-.27-1.48a1.87,1.87,0,0,0-1.31.64l-1.4,2.3c-.23.42-.28.86-.11,1A7.45,7.45,0,0,0,1151.23,598.57Z"/><path d="M818.73,613.34l-.3-.16a3.46,3.46,0,0,0-.17.67c-.07.38,0,1,.18.76S818.88,613.43,818.73,613.34Z"/><path d="M898.61,584.89a.76.76,0,0,0-.82-.59,3.44,3.44,0,0,0-1.4.68,1.45,1.45,0,0,0,.44,1l1.63,1.19c.31.25.52.13.48-.26Z"/><path d="M893.15,561.89a2.81,2.81,0,0,0-.16,1.56c.1.42.64,1.44,1,1.45a2.69,2.69,0,0,0,1.68-.72l1.17-2.11a3,3,0,0,0,.25-1.63l-.16-.9a1.36,1.36,0,0,0-.7-1c-.3-.09-1.36.08-1.59.5Z"/><path d="M852.92,582a8.83,8.83,0,0,1,.22,1l.76,4.49a2.19,2.19,0,0,0,.19.75.62.62,0,0,0,.27-.25,2.42,2.42,0,0,0,.13-1.25l-1.25-5c-.09-.41-.22-.67-.28-.56A2,2,0,0,0,852.92,582Z"/><path d="M839.48,577.93a1,1,0,0,0-.14-1.18c-.31-.23-1.29-.3-1.32.17l-.12,2.59c0,.47.16.54.44.16Z"/><path d="M876.45,572.06c-.26-.2-.57-.16-.67.09a5.52,5.52,0,0,0-.28,1.51c0,.29.48.69.76.41l.6-.64C877.11,573.11,876.72,572.27,876.45,572.06Z"/><path d="M1149,576.72a.61.61,0,0,0,.11,1l.92.71c.35.25.74.23.86,0s.3-1.21.07-1.47A2.56,2.56,0,0,0,1149,576.72Z"/><path d="M951.44,559.18a.79.79,0,0,0,0,1.1l.83.66.67.39s.27-.24.57-.54l1.51-1.63a3.31,3.31,0,0,0,.61-1.07c.06-.27,0-1-.32-1.17a2.47,2.47,0,0,0-1.73.09Z"/><path d="M1194.06,592.89c-.21,0-.54.23-.74.56l-1.17,2a.8.8,0,0,0,.24,1c.31.2,1.35.28,1.45-.11l.75-2.69A.81.81,0,0,0,1194.06,592.89Z"/><path d="M1094,590.41a1,1,0,0,0,.3-.59l1.05-4.59c.06-.29,0-.5-.14-.48l-.14,0a8.66,8.66,0,0,0-.89.3,1.15,1.15,0,0,0-.61.72l-.89,3.84a2.72,2.72,0,0,0-.08.69c0,.09.2.32.38.3A7.41,7.41,0,0,0,1094,590.41Z"/><path d="M1116.54,554.6c0-.44-.16-.83-.41-.86s-1-.06-1,0a1.7,1.7,0,0,0-.08.85c.06.25.37,1,.58,1S1116.51,555,1116.54,554.6Z"/><path d="M743.75,599.48a1,1,0,0,0-1.26.24l-.62.89a.61.61,0,0,0,.42.93l1.85.52c.45.11.87-.06.94-.36a2.32,2.32,0,0,0-.44-1.63Z"/><path d="M699.71,625.22a5,5,0,0,0-.73-.09c-.37,0-1.47.27-1.55.72l-.49,2.9c-.09.45.06.51.34.14l2.11-2.88A1.54,1.54,0,0,0,699.71,625.22Z"/><path d="M1035.11,590.05a.86.86,0,0,0-.75-.87l-1.08-.14a.68.68,0,0,0-.77.7l-.06,3.39a.74.74,0,0,0,.77.76h1a.8.8,0,0,0,.78-.79Z"/><path d="M1139.71,595.36c-.09.46-.07.87,0,.91a1.45,1.45,0,0,0,1-.54l1.58-2.18a.61.61,0,0,0-.31-1c-.42-.14-1.75-.07-1.83.4Z"/><path d="M801.29,561.45a2.55,2.55,0,0,0,.42-.75l1.45-3.5a2.92,2.92,0,0,0,.23-1c0-.15-.25-.1-.39.26l-1.75,4.41C801.11,561.28,801.2,561.49,801.29,561.45Z"/><path d="M1052.09,563.42s0-.42.06-.9l.15-2.23c0-.48,0-.89-.11-.91a1.72,1.72,0,0,0-.89.65l-1.11,1.83a.83.83,0,0,0,.29,1.13A9.4,9.4,0,0,0,1052.09,563.42Z"/><path d="M765.19,582.82c0-.47-.16-.86-.46-.86s-1.1.36-1.1.83l0,3c0,.48.16.85.39.82a1.3,1.3,0,0,0,.9-.93Z"/><path d="M845.44,574.17a.89.89,0,0,0,.67.77c.3,0,1.17-.17,1.22-.35a2.85,2.85,0,0,0-.12-1.34l-.8-1.92c-.15-.38-.44-.64-.65-.57s-.72.58-.66,1Z"/><path d="M928.38,616.41c.14.41.37.41.5,0l.58-2.21c.09-.43-.15-.76-.54-.73s-1.41.6-1.27,1Z"/><path d="M1190.67,606.58c0,.28.06.54.19.59a.82.82,0,0,0,.71-.18c.13-.19.24-.84,0-1S1190.68,606.31,1190.67,606.58Z"/><path d="M778.49,579.42c0-.39-.17-.53-.5-.31l-1.34,1a.78.78,0,0,0-.07,1l.95,1a3.81,3.81,0,0,0,.56.44,3.74,3.74,0,0,0,.15-.75Z"/><path d="M820.68,579.13c-.07-.4-.29-.43-.49-.09l-.52,1c-.16.37,0,.71.24.77s1.1-.14,1-.54Z"/><path d="M817.27,599.56c0,.38.17.43.34.1s.46-1.29.29-1.32S817.26,599.18,817.27,599.56Z"/><path d="M972.4,567.52a5.56,5.56,0,0,0,.13-.88l.46-4.43c.06-.45,0-.67-.17-.48a4.67,4.67,0,0,0-.62,1.53l-.38,3.47c-.06.45,0,.83.09.85A1.59,1.59,0,0,0,972.4,567.52Z"/><path d="M1111.16,577.25a2.08,2.08,0,0,0-.38-.62,2.16,2.16,0,0,0-.19.82l-.17,3.91a.57.57,0,0,0,.73.57l1.35-.38a.68.68,0,0,0,.36-.94Z"/><path d="M878.19,558.23a1.14,1.14,0,0,0-.79-.29c-.3,0-1.14.19-1.15.38a.92.92,0,0,0,.83.63C877.48,558.91,878.32,558.39,878.19,558.23Z"/></g></mask><filter id="luminosity-noclip-2" x="1109.62" y="963.44" width="497.69" height="75.67" filterUnits="userSpaceOnUse" color-interpolation-filters="sRGB"><feFlood flood-color="#fff" result="bg"/><feBlend in="SourceGraphic" in2="bg"/></filter><mask id="mask-2" x="1109.62" y="963.44" width="497.69" height="75.67" maskUnits="userSpaceOnUse"><g class="cls-7"><path d="M1539.6,970.92a4.54,4.54,0,0,1-.82.17s-.27-.36-.53-.73l-.9-1.3a2.07,2.07,0,0,1-.37-.75,4.75,4.75,0,0,1,.89-.39l1-.34a1.41,1.41,0,0,1,1.32.41l1.13,1.44a.61.61,0,0,1-.29,1Z"/><path d="M1415.29,1005c0,.3-.06.37-.24.15s-.56-.91-.43-1S1415.23,1004.65,1415.29,1005Z"/><path d="M1182.12,982.1a.94.94,0,0,1,.15,1.22l-.92,1.11a1,1,0,0,1-1.26.09l-1.77-1.37a7.26,7.26,0,0,1-.65-.62,1.94,1.94,0,0,1,.63-.64l1.21-.84a1.37,1.37,0,0,1,1.38.07Z"/><path d="M1559.27,1009.79a.64.64,0,0,1,.61.69c0,.33-.49,1.25-.92,1.25l-1.51,0a.59.59,0,0,1-.66-.66c.06-.37.34-1.39.51-1.42S1558.89,1009.75,1559.27,1009.79Z"/><path d="M1214.15,977.51c-.12.44-.46.79-.75.78a7.26,7.26,0,0,1-1.83-.49l-.87-.42a5.34,5.34,0,0,1-.75-.41s.24-.36.53-.72l1.25-1.67a1,1,0,0,1,1.23-.28l.89.46a1.23,1.23,0,0,1,.61,1.21Z"/><path d="M1596.23,994.6c-.09.44-.28.82-.44.84a1.07,1.07,0,0,1-.81-.69l-.42-1.54a.89.89,0,0,1,.6-1c.42-.13,1.53,0,1.44.42Z"/><path d="M1172.46,970.44a.92.92,0,0,1,.83.53c.07.27-.11.95-.5.84l-2.66-.77c-.39-.1-.45-.27-.15-.37A16.44,16.44,0,0,1,1172.46,970.44Z"/><path d="M1157.68,1005.46c.4-.08.75-.09.79,0s-.13.45-.45.71l-1.51,1.21c-.33.24-.63.2-.67-.1a3.61,3.61,0,0,1,0-1.26A11.53,11.53,0,0,1,1157.68,1005.46Z"/><path d="M1228.74,1000.76a1.39,1.39,0,0,1-.23-.52,1,1,0,0,1,.65-.76l.74-.3c.39-.14.75-.19.8-.12a3.62,3.62,0,0,1,.2.45,1.39,1.39,0,0,1-.47.8C1230.12,1000.57,1228.86,1000.91,1228.74,1000.76Z"/><path d="M1497.47,986.23a2.62,2.62,0,0,1-.94.16,1,1,0,0,1-.49-.83l.32-2.09a.56.56,0,0,1,.82-.37l3.31,1.52c.36.16.35.41,0,.56Z"/><path d="M1436.07,1002.66c.4.16.43.37.07.47s-1.4,0-1.45-.18.25-.78.64-.62Z"/><path d="M1430.41,1005.74a.28.28,0,0,1-.28-.22c0-.12.18-.45.41-.41s.84.19.81.26-.17.27-.24.29A6.18,6.18,0,0,1,1430.41,1005.74Z"/><path d="M1521.32,1009.74a.5.5,0,0,1-.07.69l-.56.44a.55.55,0,0,1-.72-.11l-.68-.84a.52.52,0,0,1,.1-.69l.5-.36a.65.65,0,0,1,.75.1Z"/><path d="M1572,969c.25.32.38.61.3.65a1.21,1.21,0,0,1-.79-.45l-.62-.73c-.25-.32-.37-.6-.28-.63a1.41,1.41,0,0,1,.85.5Z"/><path d="M1488.1,977a.74.74,0,0,1-.44.89c-.34.1-1.51,0-1.73-.33l-1-1.6a.42.42,0,0,1,.38-.66l1.5-.09a1.09,1.09,0,0,1,.92.73Z"/><path d="M1124.07,1010.37c-.21,0-.35,0-.32-.06a.74.74,0,0,1,.52-.14C1124.46,1010.21,1124.29,1010.36,1124.07,1010.37Z"/><path d="M1116.66,1022.42c0,.38-.22.51-.6.28a7.35,7.35,0,0,1-.65-.46c-.34-.26-.37-.58-.06-.72S1116.6,1022,1116.66,1022.42Z"/><path d="M1387.61,983.71c0,.06-.24.28-.59.49l-.71.46c-.36.2-.74.24-.85.08a.6.6,0,0,1,.37-.78l1-.25A1.31,1.31,0,0,1,1387.61,983.71Z"/><path d="M1482.7,1022.12c0,.4-.17.69-.5.63s-1.16-.52-1-.91l.49-1.45c.12-.39.27-.71.33-.7a1.3,1.3,0,0,1,.39.75Z"/><path d="M1405.35,1016.05a4.92,4.92,0,0,1,.8.17c.38.1,1.44.58,1.47.89s-.37,1.17-.83,1.17h-2.1c-.45,0-.62-.36-.38-.74l.43-.78A2.33,2.33,0,0,1,1405.35,1016.05Z"/><path d="M1376.15,1013.7a1,1,0,0,1-.86.86l-3.33.4c-.43.06-.84-.09-.91-.33s.09-1.07.49-1.24l4.08-1.78a.45.45,0,0,1,.66.5Z"/><path d="M1521.27,966.33a.67.67,0,0,1-.63-.86l.18-.89a1.64,1.64,0,0,1,.75-1.08c.31-.15,1.31,0,1.45.39l.43,1.63a.68.68,0,0,1-.7.81Z"/><path d="M1302.61,973.63c-.14.08-.51-.14-.83-.49l-1.1-1.28a.49.49,0,0,1,.34-.84l1.09-.25a.73.73,0,0,1,.88.71l0,1A1.82,1.82,0,0,1,1302.61,973.63Z"/><path d="M1411.88,1007.14l-.6.19s0-.32,0-.72a5.92,5.92,0,0,1,.22-1.41.8.8,0,0,1,.7.36C1412.44,1005.86,1412.21,1007,1411.88,1007.14Z"/><path d="M1307.5,992.81c-.27,0-.32,0-.09-.16a2.41,2.41,0,0,1,.94-.24C1308.39,992.48,1307.78,992.78,1307.5,992.81Z"/><path d="M1503.2,987.24a1.33,1.33,0,0,1-1.26.42s-2.1-.53-3.65-1.08l-1.08-.39c-.41-.15-.57-.51-.35-.8a3,3,0,0,1,1.78-.84l4.37,1.14a.7.7,0,0,1,.53.88A2.67,2.67,0,0,1,1503.2,987.24Z"/><path d="M1283.33,1005.47a2.93,2.93,0,0,1-.95-1.35,8.25,8.25,0,0,1-.07-1.12c0-.43.34-.51.69-.18l6,5.68c.34.33.56.65.49.7a1.83,1.83,0,0,1-1-.31Z"/><path d="M1344.62,1023.42a.91.91,0,0,1-.31,1.11l-1.51.8c-.38.16-.6,0-.48-.43l.81-2.64c.12-.4.43-.46.69-.13Z"/><path d="M1339.55,1017.22a.6.6,0,0,1-.59.82l-1.2.05a1.35,1.35,0,0,1-1.11-.85,17.08,17.08,0,0,1-.45-1.8,1.81,1.81,0,0,1,.77-.52c.38-.14,1.67,0,1.85.42Z"/><path d="M1313.3,1001.17c0,.31-.28.57-.68.58l-2.26.13c-.4,0-.74-.09-.75-.23a1.14,1.14,0,0,1,.69-.76l2-.58C1312.71,1000.21,1313.27,1000.86,1313.3,1001.17Z"/><path d="M1418.51,979.62a1,1,0,0,1-.94.54c-.31-.09-1.14-.68-1.16-1.12l0-2.8a2.74,2.74,0,0,1,.28-1.14,1.58,1.58,0,0,1,1.22-.51l2.41.53a.56.56,0,0,1,.35.88Z"/><path d="M1165.07,966.09a.65.65,0,0,1-.15,1.06l-1.43.88a.58.58,0,0,1-.91-.43l-.46-2.66c-.1-.46-.09-.89,0-1a1.5,1.5,0,0,1,1,.36Z"/><path d="M1535.61,996.1a.58.58,0,0,1-.43.86l-3,.71a.55.55,0,0,1-.7-.62l.06-1a1.67,1.67,0,0,1,.69-1.19l1.28-.75a.89.89,0,0,1,1.12.28Z"/><path d="M1126.36,1004.91c-.24-.34-.15-.65.2-.68a3.83,3.83,0,0,1,1.84.35l1.48,1.29c.31.28.22.54-.2.57l-1.41.12a1.52,1.52,0,0,1-1.19-.6Z"/><path d="M1264.89,984.89a.94.94,0,0,1-.29.5,8.05,8.05,0,0,1-1.37.92l-2,1c-.41.2-.83.24-.93.07a1.4,1.4,0,0,1,.3-1.23l2.75-2.46c.35-.3.79-.36,1-.14A5.74,5.74,0,0,1,1264.89,984.89Z"/><path d="M1350,1017.06a1,1,0,0,1-.79.71c-.31,0-1.23-.19-1.31-.46s.07-1.18.44-1.32a13.65,13.65,0,0,1,1.65-.49c.13,0,.39.3.26.68Z"/><path d="M1127.88,989.2c-.32.31-.64.45-.72.3a2.06,2.06,0,0,1,0-1.16c.16-.35.87-1.21,1.13-1.09s.67.82.35,1.13Z"/><path d="M1265.74,978.14a.58.58,0,0,1-.55-.34,6,6,0,0,1-.24-.87,1.19,1.19,0,0,1,.74-.15c.38,0,1.46.19,1.52.37s.06.73-.09.78A12.58,12.58,0,0,1,1265.74,978.14Z"/><path d="M1544.7,981.09c0,.41-.13.76-.29.78a1.5,1.5,0,0,1-1-.57l-1-1.78a.59.59,0,0,1,.4-.86l1-.26c.4-.07.77-.06.81,0a3.88,3.88,0,0,1,.13,1.05Z"/><path d="M1262.93,969c-.48-.08-.88-.38-.89-.66s.41-1.15.88-1.24l1.6-.24a.82.82,0,0,1,.91.75c0,.45-.47,1.67-.94,1.59Z"/><path d="M1220.68,968.38c0,.11-.14.43-.41.72s-1.18,1-1.35.83a.76.76,0,0,1,.11-1l.84-.54C1220.24,968.16,1220.64,968.27,1220.68,968.38Z"/><path d="M1250.54,974.31a1.43,1.43,0,0,1-.13,1.27,6,6,0,0,1-1.45,1.17c-.3.1-1.26,0-1.45-.35l-.46-1a1.36,1.36,0,0,1,.3-1.32l1.34-1.2c.34-.27.7-.45.78-.38a5.25,5.25,0,0,1,.66,1Z"/><path d="M1481.51,991.44c0,.1-.36.11-.77,0l-.72-.16c-.41-.09-.41-.16,0-.16A4.21,4.21,0,0,1,1481.51,991.44Z"/><path d="M1580.85,1006.23c-.25.28-.56.44-.69.34s-.06-.65.32-.85S1581.09,1005.94,1580.85,1006.23Z"/><path d="M1337.85,984.1c.4-.1.63-.06.51.08a3.92,3.92,0,0,1-1.11.75,5.15,5.15,0,0,1-1.38.4,3.19,3.19,0,0,1-.13-.34.62.62,0,0,1,.21-.24A19.46,19.46,0,0,1,1337.85,984.1Z"/><path d="M1484.66,987a.47.47,0,1,1-.54.11l-1.95-3.24a.81.81,0,0,1,.31-1.11c.39-.2,1.61-.23,1.67.24Z"/><path d="M1160.54,989.43c.18.43.08.58-.22.35s-1-1.07-.87-1.22S1160.36,989,1160.54,989.43Z"/><path d="M1397.17,1016.43c.26.37.38.74.26.81a6.55,6.55,0,0,1-.69.27,1.74,1.74,0,0,1-1-.54l-1.43-1.71c-.28-.36-.38-.79-.22-.94a3,3,0,0,1,.82-.49,1.84,1.84,0,0,1,.79.63Z"/><path d="M1247.66,998.28c0-.46.33-.81.63-.77s1.12.51,1.13.83a5.79,5.79,0,0,1-.4,1.93l-.45.76c-.22.41-.51.68-.64.62a1.6,1.6,0,0,1-.42-1.1Z"/><path d="M1221.07,1007.21c0,.11-.3.31-.69.45l-1.9.75c-.39.14-.82.12-.94,0a2.63,2.63,0,0,1-.36-.73l0,0a17.85,17.85,0,0,1,2.07-1.8.8.8,0,0,1,1,0A6.67,6.67,0,0,1,1221.07,1007.21Z"/><path d="M1488.37,973.88a.55.55,0,0,1-.28.93l-4,1.38a5.41,5.41,0,0,1-.84.21,6.54,6.54,0,0,1,0-.89l.18-1.87a5.3,5.3,0,0,1,.1-.88,9.35,9.35,0,0,1,.88-.38l1-.39a1.55,1.55,0,0,1,1.44.26Z"/><path d="M1158.32,1012.62c.27-.33.62-.54.76-.47a1.06,1.06,0,0,1,.31,1l-.48,1.46a.8.8,0,0,1-1,.51c-.36-.11-1.12-.79-.83-1.1Z"/><path d="M1153,1008.54c-.14,0-.49-.28-.77-.65a8.73,8.73,0,0,1-1.09-2.21c-.05-.42,0-1.45.26-1.48a1.91,1.91,0,0,1,1.32.64l1.39,2.3c.24.42.29.86.11,1A7.14,7.14,0,0,1,1153,1008.54Z"/><path d="M1485.5,1023.31l.3-.17a5.61,5.61,0,0,1,.17.68c.07.38,0,1-.19.76S1485.34,1023.39,1485.5,1023.31Z"/><path d="M1405.61,994.86a.76.76,0,0,1,.83-.59,3.39,3.39,0,0,1,1.39.68,1.45,1.45,0,0,1-.43,1l-1.64,1.19c-.3.25-.52.13-.48-.26Z"/><path d="M1411.07,971.86a2.81,2.81,0,0,1,.17,1.56c-.1.42-.65,1.44-1,1.45a2.72,2.72,0,0,1-1.67-.72l-1.18-2.11a3.05,3.05,0,0,1-.25-1.63l.17-.9a1.35,1.35,0,0,1,.69-1c.31-.1,1.37.08,1.59.5Z"/><path d="M1451.31,992c0,.14-.15.6-.23,1l-.76,4.5a2.53,2.53,0,0,1-.18.75.78.78,0,0,1-.28-.25,2.57,2.57,0,0,1-.12-1.26l1.24-5c.1-.41.23-.67.29-.57A2.23,2.23,0,0,1,1451.31,992Z"/><path d="M1464.75,987.9a1,1,0,0,1,.14-1.18c.3-.23,1.29-.31,1.31.17l.13,2.59c0,.47-.17.54-.44.15Z"/><path d="M1427.77,982c.27-.2.57-.16.67.09a5.17,5.17,0,0,1,.28,1.51c0,.29-.48.69-.76.41l-.6-.64C1427.12,983.08,1427.5,982.23,1427.77,982Z"/><path d="M1155.21,986.69a.61.61,0,0,1-.12,1l-.91.71c-.35.25-.74.23-.86-.05s-.3-1.21-.08-1.47A2.54,2.54,0,0,1,1155.21,986.69Z"/><path d="M1352.78,969.15a.79.79,0,0,1,0,1.1l-.83.66-.68.39a6.93,6.93,0,0,1-.56-.55l-1.51-1.63a3.1,3.1,0,0,1-.61-1.06c-.06-.27,0-1,.32-1.17a2.44,2.44,0,0,1,1.72.09Z"/><path d="M1110.17,1002.86c.2,0,.53.22.74.56l1.17,2a.8.8,0,0,1-.24,1c-.31.21-1.36.28-1.45-.1l-.75-2.69A.78.78,0,0,1,1110.17,1002.86Z"/><path d="M1210.19,1000.38a1,1,0,0,1-.29-.59l-1.06-4.6c-.06-.28,0-.5.15-.47l.13,0a7.78,7.78,0,0,1,.89.3,1.17,1.17,0,0,1,.62.72l.89,3.84a3.3,3.3,0,0,1,.08.69c0,.09-.21.31-.38.3A10,10,0,0,1,1210.19,1000.38Z"/><path d="M1187.69,964.56c0-.43.15-.82.4-.85a2.44,2.44,0,0,1,1,0,1.79,1.79,0,0,1,.09.85c-.07.25-.38,1-.59,1S1187.72,965,1187.69,964.56Z"/><path d="M1560.47,1009.45a1,1,0,0,1,1.27.24l.61.88a.62.62,0,0,1-.41.94l-1.86.52c-.45.1-.87-.06-.93-.36a2.27,2.27,0,0,1,.44-1.63Z"/><path d="M1604.51,1035.19a4.15,4.15,0,0,1,.74-.09c.36,0,1.46.27,1.55.72l.48,2.9c.09.44-.06.51-.33.14l-2.11-2.88A1.5,1.5,0,0,1,1604.51,1035.19Z"/><path d="M1269.11,1000a.86.86,0,0,1,.76-.86L1271,999a.69.69,0,0,1,.77.7l.06,3.39a.73.73,0,0,1-.77.75h-1a.79.79,0,0,1-.79-.78Z"/><path d="M1164.51,1005.33c.09.46.07.87,0,.91a1.41,1.41,0,0,1-1-.54l-1.59-2.18a.62.62,0,0,1,.31-1c.42-.14,1.75-.07,1.83.39Z"/><path d="M1502.94,971.41a2,2,0,0,1-.42-.74l-1.45-3.51a2.9,2.9,0,0,1-.24-.94c0-.15.26-.1.4.26l1.74,4.41C1503.11,971.25,1503,971.46,1502.94,971.41Z"/><path d="M1252.13,973.38s0-.42-.06-.9l-.15-2.23c0-.48,0-.88.12-.9a1.65,1.65,0,0,1,.88.65l1.11,1.82a.82.82,0,0,1-.29,1.13A7.66,7.66,0,0,1,1252.13,973.38Z"/><path d="M1539,992.79c0-.47.16-.86.46-.87s1.1.37,1.09.84l.05,3c0,.48-.17.85-.4.82a1.3,1.3,0,0,1-.9-.93Z"/><path d="M1458.79,984.14a.93.93,0,0,1-.68.77c-.3,0-1.16-.17-1.22-.35a3.19,3.19,0,0,1,.12-1.35l.81-1.92c.15-.37.44-.63.64-.56s.72.58.66,1Z"/><path d="M1375.84,1026.37c-.14.42-.36.42-.49,0l-.59-2.22c-.09-.43.16-.75.55-.72s1.4.6,1.26,1Z"/><path d="M1113.56,1016.55c0,.28-.07.54-.19.59a.84.84,0,0,1-.72-.19c-.13-.19-.23-.84,0-.94S1113.54,1016.28,1113.56,1016.55Z"/><path d="M1525.73,989.38c0-.38.18-.52.5-.31l1.35,1.06a.77.77,0,0,1,.06,1l-.94,1a4.11,4.11,0,0,1-.56.45,3.08,3.08,0,0,1-.15-.75Z"/><path d="M1483.54,989.1c.07-.4.3-.44.5-.09l.52,1c.16.37,0,.72-.25.78s-1.09-.14-1-.54Z"/><path d="M1487,1009.53c0,.38-.17.43-.35.1s-.46-1.29-.28-1.32S1487,1009.15,1487,1009.53Z"/><path d="M1331.82,977.49a7.25,7.25,0,0,1-.13-.89l-.46-4.42c0-.45,0-.67.18-.48a4.39,4.39,0,0,1,.61,1.53l.38,3.47c.06.45,0,.83-.09.85A1.63,1.63,0,0,1,1331.82,977.49Z"/><path d="M1193.06,987.22c.18-.36.35-.64.39-.62a2.68,2.68,0,0,1,.19.81l.16,3.92a.56.56,0,0,1-.72.57l-1.36-.39a.67.67,0,0,1-.36-.93Z"/><path d="M1426,968.2a1.13,1.13,0,0,1,.78-.29c.3,0,1.14.19,1.15.38a.9.9,0,0,1-.83.63C1426.75,968.87,1425.91,968.36,1426,968.2Z"/></g></mask></defs><rect class="cls-1" width="1850.04" height="1200.31"/><g class="cls-2"><polygon class="cls-3" points="819.59 575 819.17 576.39 818.7 577.74 817.72 578.78 816.53 579.54 815.43 580.47 813.87 580.14 812.68 581.27 811.26 581.01 809.82 580.86 808.39 580.78 806.96 580.78 805.52 580.82 804.09 580.39 802.65 580.74 801.22 580.53 799.79 580.37 798.36 580.53 796.92 581.29 795.49 580.43 794.06 580.88 792.62 580.49 791.19 580.93 789.75 580.75 788.32 580.43 786.89 580.73 785.46 580.67 784.02 581.1 782.59 580.83 781.15 580.75 779.72 580.38 778.28 580.82 776.85 580.58 775.41 580.94 773.99 580.6 772.56 580.87 771.13 581.34 769.7 580.63 768.26 580.56 766.83 580.93 765.39 580.88 763.96 581.24 762.53 580.48 761.09 580.54 759.66 580.84 758.23 580.74 756.79 580.89 755.35 580.92 753.92 581.19 752.49 581.23 751.05 581.04 749.61 580.51 748.18 580.95 746.74 580.87 745.3 581.14 743.87 580.69 742.43 580.83 740.99 581.08 739.55 580.54 738.12 580.76 736.68 580.46 735.24 581.09 733.81 580.5 732.37 580.74 730.93 580.91 729.49 580.79 728.05 580.72 726.6 580.93 725.16 581.01 723.77 580.96 722.35 580.91 721.17 580.05 719.69 579.84 719.17 578.28 717.71 577.74 717.7 576.24 716.7 575 716.96 573.52 717.76 572.29 718.92 571.45 719.69 570.15 721.27 570.18 722.52 569.75 723.74 568.78 725.16 568.84 726.59 569.15 728.02 568.95 729.46 568.66 730.89 569.26 732.33 568.98 733.76 568.64 735.19 569.24 736.63 569.25 738.06 569.24 739.49 569.06 740.92 568.73 742.36 569.31 743.79 568.74 745.23 568.96 746.66 569.37 748.1 568.99 749.53 569.09 750.96 569.32 752.39 569.54 753.83 568.78 755.26 569.57 756.7 568.69 758.13 569.28 759.57 568.72 761 569.12 762.43 568.95 763.86 568.74 765.29 568.72 766.72 568.76 768.15 569.45 769.59 569.3 771.03 569.26 772.46 569.06 773.89 568.92 775.32 569.14 776.75 569.54 778.19 568.99 779.63 568.87 781.06 568.91 782.5 569.6 783.93 568.8 785.37 568.89 786.8 569.19 788.24 568.7 789.67 569.12 791.11 568.74 792.55 568.64 793.99 569.24 795.42 569.14 796.86 569.48 798.3 569.28 799.73 568.73 801.17 568.88 802.61 569.55 804.05 568.87 805.49 568.91 806.93 569.45 808.37 569.06 809.81 568.97 811.26 568.65 812.59 569.5 813.91 569.67 815.14 570.21 816.7 570.2 817.59 571.36 818.77 572.21 819.09 573.64 819.59 575"/><polygon class="cls-3" points="1158.89 597.88 1158.18 599.15 1158.13 600.67 1156.84 601.4 1155.67 602.06 1154.6 602.89 1153.21 602.94 1152.01 603.82 1150.63 603.77 1149.19 604.24 1147.75 603.32 1146.32 603.48 1144.88 603.57 1143.44 603.78 1142.01 603.74 1140.57 603.88 1139.14 604.19 1137.7 603.93 1136.27 603.99 1134.83 604.02 1133.39 603.33 1131.96 603.65 1130.53 603.55 1129.09 603.57 1127.66 603.92 1126.22 604.13 1124.79 604.09 1123.35 603.7 1121.92 603.38 1120.48 604.17 1119.05 603.77 1117.62 603.47 1116.18 603.54 1114.75 604.18 1113.31 603.39 1111.88 604.13 1110.44 604.21 1109.01 603.74 1107.58 603.57 1106.14 603.56 1104.71 603.74 1103.27 603.89 1101.84 603.62 1100.4 603.27 1098.97 603.59 1097.53 604.02 1096.1 604.16 1094.66 604.03 1093.23 604.1 1091.79 603.48 1090.36 603.31 1088.92 603.69 1087.48 603.66 1086.05 603.94 1084.61 603.42 1083.17 604.14 1081.73 603.42 1080.3 603.53 1078.86 604.19 1077.42 604.01 1075.98 603.62 1074.55 603.73 1073.11 604.14 1071.67 604.17 1070.23 603.83 1068.8 604.16 1067.36 603.26 1065.92 603.42 1064.49 604.09 1063.05 604.14 1061.62 603.87 1060.18 603.56 1058.75 603.34 1057.31 603.25 1055.88 603.44 1054.44 603.31 1053 604.02 1051.57 603.73 1050.13 603.43 1048.7 604.07 1047.26 604.2 1045.83 603.85 1044.39 603.91 1042.96 604.11 1041.52 603.32 1040.09 603.3 1038.65 604.01 1037.21 604.19 1035.78 603.73 1034.34 603.62 1032.9 603.99 1031.47 604.17 1030.03 604.06 1028.59 603.52 1027.15 603.9 1025.72 603.59 1024.28 603.85 1022.84 603.54 1021.4 603.72 1019.96 603.8 1018.53 603.26 1017.09 603.55 1015.65 603.88 1014.22 603.68 1012.78 603.27 1011.34 603.62 1009.9 604.05 1008.47 603.41 1007.03 603.39 1005.6 603.89 1004.16 604.18 1002.72 603.4 1001.29 604.18 999.85 603.77 998.41 603.58 996.98 603.85 995.54 603.46 994.11 603.31 992.67 604.1 991.23 604.03 989.79 603.73 988.36 603.84 986.92 604.06 985.48 603.75 984.04 603.67 982.61 603.93 981.17 603.26 979.73 604.14 978.29 603.99 976.85 603.71 975.41 603.4 973.98 604.12 972.54 603.8 971.1 603.42 969.66 603.46 968.23 603.75 966.79 603.62 965.35 603.57 963.92 603.35 962.48 603.94 961.04 604.15 959.61 603.27 958.17 604.17 956.73 603.49 955.29 604.12 953.86 603.28 952.42 603.78 950.98 604.03 949.54 604.1 948.1 603.29 946.66 603.62 945.23 603.98 943.79 603.75 942.35 603.91 940.91 603.67 939.47 603.89 938.04 603.34 936.6 604.12 935.17 603.57 933.74 603.31 932.3 604.03 930.87 603.33 929.43 603.59 928 603.76 926.56 603.71 925.12 603.98 923.68 603.64 922.24 603.62 920.8 603.91 919.37 603.96 917.93 603.92 916.49 603.78 915.05 603.62 913.62 603.44 912.18 603.36 910.75 603.81 909.31 603.49 907.88 603.68 906.45 603.62 905.01 603.29 903.58 604.18 902.14 603.37 900.71 603.69 899.27 603.42 897.84 603.48 896.4 603.84 894.97 603.7 893.53 604.22 892.1 603.87 890.66 604.03 889.22 603.34 887.79 603.6 886.35 604.15 884.91 603.34 883.47 604.22 882.03 603.62 880.59 603.87 879.15 604.24 877.71 603.6 876.28 604.16 874.84 604.05 873.4 603.92 871.97 603.99 870.53 603.34 869.09 604.07 867.66 603.71 866.22 603.83 864.78 603.87 863.35 604.2 861.91 603.55 860.47 603.88 859.03 603.81 857.59 603.57 856.15 603.45 854.71 603.55 853.27 603.74 851.83 604.04 850.39 603.9 848.95 603.72 847.51 603.94 846.08 603.95 844.64 603.38 843.2 604.25 841.76 603.52 840.32 603.96 838.88 603.98 837.44 603.89 836 604.15 834.56 604.1 833.12 604 831.68 603.67 830.24 603.3 828.8 603.36 827.36 603.9 825.92 603.45 824.48 603.58 823.04 603.63 821.6 604.2 820.16 603.83 818.72 604.23 817.28 603.53 815.84 603.77 814.39 603.97 812.95 603.29 811.51 604 810.07 604.21 808.63 603.63 807.19 603.37 805.75 603.97 804.32 603.65 802.88 603.95 801.44 603.75 800 604.2 798.56 603.68 797.12 604.13 795.68 603.64 794.24 603.44 792.8 603.74 791.36 603.86 789.92 603.32 788.48 604.09 787.03 603.83 785.59 603.34 784.15 603.97 782.71 603.58 781.27 603.58 779.82 603.84 778.38 603.96 776.94 603.38 775.49 603.81 774.05 603.76 772.6 603.46 771.16 604.2 769.72 603.47 768.28 603.98 766.83 603.96 765.39 604.14 763.94 604.13 762.49 603.5 761.05 603.76 759.6 604.2 758.15 603.95 756.7 604.24 755.31 603.81 753.89 603.76 752.52 603.38 751.37 602.5 750.53 601.35 749.3 600.6 749.22 599.13 748.42 597.88 749.03 596.58 749.75 595.47 750.18 594.04 751.75 593.86 752.54 592.44 753.97 592.29 755.3 591.9 756.7 592.41 758.13 592.26 759.57 592.5 761.01 591.56 762.45 591.57 763.88 591.61 765.32 592.45 766.75 591.67 768.19 592.13 769.62 592.17 771.06 592.2 772.5 592.33 773.93 591.9 775.37 592.35 776.8 591.72 778.23 591.86 779.67 591.64 781.1 591.61 782.54 591.63 783.97 591.74 785.41 591.9 786.84 591.87 788.27 592.28 789.71 591.66 791.14 591.8 792.58 591.66 794.01 592.02 795.45 591.88 796.88 591.53 798.31 591.92 799.75 592.12 801.18 592.48 802.62 591.91 804.05 592.02 805.49 591.59 806.92 591.91 808.36 591.91 809.79 591.79 811.23 592.38 812.66 592.42 814.1 592.42 815.53 592.27 816.97 592.02 818.4 591.6 819.84 592.14 821.28 591.92 822.72 592.5 824.15 591.83 825.59 591.97 827.03 591.93 828.47 592.2 829.9 591.77 831.34 591.6 832.78 592.47 834.22 591.69 835.65 591.64 837.09 591.87 838.53 592.44 839.96 592.41 841.4 591.59 842.84 591.54 844.27 591.68 845.71 591.77 847.14 591.64 848.58 591.92 850.01 592 851.45 591.88 852.88 591.77 854.32 592.16 855.76 592.18 857.19 592.41 858.63 591.54 860.06 591.61 861.5 592.27 862.93 591.71 864.37 591.63 865.8 591.95 867.24 592.15 868.67 591.75 870.11 592.04 871.55 591.67 872.98 591.98 874.42 592.11 875.86 592.02 877.29 592.46 878.73 592.3 880.17 592.34 881.61 591.65 883.04 592.07 884.48 592.39 885.92 592.13 887.36 592.11 888.8 592.42 890.24 591.81 891.67 591.55 893.11 592.46 894.55 592.27 895.98 591.6 897.42 591.69 898.86 592.12 900.29 592.29 901.73 592.1 903.17 592.24 904.6 591.76 906.04 591.99 907.47 591.82 908.91 591.97 910.35 591.84 911.78 592.14 913.22 592.47 914.66 591.93 916.09 592.52 917.53 592.26 918.97 592.41 920.4 592.23 921.84 592.08 923.28 591.87 924.72 591.66 926.16 592.22 927.6 591.76 929.03 591.86 930.47 591.88 931.91 591.95 933.35 591.98 934.79 591.89 936.22 592.22 937.66 591.69 939.1 591.85 940.53 592.13 941.97 591.69 943.41 592.43 944.85 592.17 946.28 592.12 947.72 591.78 949.16 592.12 950.59 591.53 952.03 592.21 953.47 592.02 954.91 591.63 956.35 591.86 957.78 592.36 959.22 592.25 960.66 592.06 962.1 592.02 963.54 591.59 964.98 592.31 966.41 592.51 967.85 591.77 969.29 592.08 970.72 591.8 972.15 591.87 973.59 591.79 975.02 592.05 976.46 591.74 977.89 591.73 979.33 591.92 980.77 591.53 982.2 591.78 983.64 592.04 985.08 592.39 986.52 592.02 987.96 591.6 989.4 591.59 990.83 592.32 992.27 592.28 993.71 592.49 995.14 591.9 996.58 592.01 998.01 592.24 999.45 592.45 1000.88 591.57 1002.31 591.53 1003.75 592.09 1005.18 591.86 1006.62 591.78 1008.05 592.01 1009.49 591.84 1010.92 592.24 1012.36 592.02 1013.79 592.11 1015.23 592.15 1016.66 591.94 1018.1 592.46 1019.54 592.26 1020.98 591.81 1022.42 592.3 1023.86 592.4 1025.3 591.9 1026.74 591.75 1028.17 592.32 1029.61 592.01 1031.05 592.44 1032.49 591.82 1033.92 592.13 1035.36 591.78 1036.8 592.22 1038.23 592.3 1039.67 592.42 1041.11 592.04 1042.54 592.09 1043.98 592.41 1045.42 592.14 1046.86 591.79 1048.3 591.92 1049.74 591.68 1051.18 591.61 1052.62 592.33 1054.06 591.68 1055.5 591.55 1056.93 592.25 1058.37 591.88 1059.81 592.34 1061.25 592.01 1062.69 592.26 1064.13 591.74 1065.56 592.41 1067.01 591.62 1068.45 592.33 1069.89 592.01 1071.33 592.09 1072.77 591.81 1074.21 591.66 1075.64 591.63 1077.08 592.02 1078.52 591.73 1079.96 591.56 1081.4 591.69 1082.85 591.71 1084.29 592.51 1085.73 591.74 1087.17 591.6 1088.61 592.36 1090.05 592.38 1091.49 591.63 1092.93 592.39 1094.37 592.32 1095.81 592.3 1097.25 591.79 1098.69 592.5 1100.13 591.93 1101.57 591.6 1103.01 591.85 1104.44 592.34 1105.88 591.94 1107.32 592.43 1108.77 591.93 1110.21 592.04 1111.65 592.2 1113.08 592.33 1114.52 592.08 1115.96 591.7 1117.4 591.88 1118.85 591.82 1120.29 591.56 1121.73 591.53 1123.17 591.91 1124.62 592.29 1126.06 591.62 1127.5 592.09 1128.94 591.89 1130.39 592.1 1131.83 591.6 1133.28 592.19 1134.72 592.15 1136.17 592.18 1137.61 591.88 1139.05 591.53 1140.49 592.22 1141.94 591.98 1143.38 591.66 1144.83 591.73 1146.28 592.38 1147.72 592.21 1149.18 591.99 1150.63 591.72 1152.05 591.66 1153.34 592.36 1154.61 592.86 1155.69 593.68 1156.73 594.49 1157.73 595.37 1158.18 596.62 1158.89 597.88"/><polygon class="cls-3" points="784.53 586.71 784.97 585.18 785.75 583.85 786.64 582.65 787.67 581.46 789.31 581.51 790.7 580.61 789.27 581.09 787.84 581.29 786.4 580.74 784.97 580.82 783.54 580.76 782.1 580.42 780.67 580.8 779.24 581.33 777.81 580.35 776.38 580.79 774.94 581.06 773.51 580.64 772.07 580.9 770.63 580.83 769.2 581.18 767.76 580.99 766.32 580.99 764.88 581.16 766.51 580.64 768.03 581.27 768.93 582.67 769.91 583.81 770.12 585.31 771.19 586.71 770.9 588.33 769.75 589.52 769.25 591.08 767.64 591.5 766.42 592.46 764.88 592.19 766.32 593.06 767.75 592.4 769.18 592.69 770.61 592.98 772.04 592.54 773.48 592.63 774.91 592.12 776.35 592.11 777.78 592.6 779.21 592.54 780.64 592.28 782.08 592.22 783.51 592.67 784.95 592.59 786.38 592.13 787.82 592.61 789.26 593.05 790.7 592.58 789.07 592.78 787.52 592.22 786.9 590.51 785.63 589.64 784.72 588.31 784.53 586.71"/><polygon class="cls-3" points="784.53 586.71 784.97 585.18 785.75 583.85 786.64 582.65 787.67 581.46 789.31 581.51 790.7 580.61 789.27 581.09 787.84 581.29 786.4 580.74 784.97 580.82 783.54 580.76 782.1 580.42 780.67 580.8 779.24 581.33 777.81 580.35 776.38 580.79 774.94 581.06 773.51 580.64 772.07 580.9 770.63 580.83 769.2 581.18 767.76 580.99 766.32 580.99 764.88 581.16 766.51 580.64 768.03 581.27 768.93 582.67 769.91 583.81 770.12 585.31 771.19 586.71 770.9 588.33 769.75 589.52 769.25 591.08 767.64 591.5 766.42 592.46 764.88 592.19 766.32 593.06 767.75 592.4 769.18 592.69 770.61 592.98 772.04 592.54 773.48 592.63 774.91 592.12 776.35 592.11 777.78 592.6 779.21 592.54 780.64 592.28 782.08 592.22 783.51 592.67 784.95 592.59 786.38 592.13 787.82 592.61 789.26 593.05 790.7 592.58 789.07 592.78 787.52 592.22 786.9 590.51 785.63 589.64 784.72 588.31 784.53 586.71"/></g><g class="cls-4"><polygon class="cls-3" points="1485.28 984.97 1485.35 986.26 1486.18 987.27 1486.37 988.9 1487.98 989.05 1488.94 990.11 1490.3 990.33 1491.63 990.51 1492.97 990.94 1494.4 990.57 1495.83 991.3 1497.27 991.08 1498.7 990.66 1500.14 991.07 1501.57 990.75 1503 991.28 1504.43 990.41 1505.87 990.73 1507.3 990.96 1508.73 990.42 1510.17 991.03 1511.6 991.08 1513.04 990.81 1514.47 991.23 1515.9 991.12 1517.34 990.87 1518.77 990.36 1520.2 990.85 1521.64 990.35 1523.07 990.34 1524.51 990.93 1525.94 991.27 1527.38 990.5 1528.81 991.18 1530.24 991.08 1531.67 991.26 1533.1 990.75 1534.53 990.71 1535.96 990.65 1537.4 991.28 1538.83 990.4 1540.27 990.59 1541.7 990.88 1543.13 991.31 1544.56 990.52 1546 990.81 1547.44 990.77 1548.87 991.07 1550.31 990.66 1551.74 991.01 1553.18 990.71 1554.61 990.68 1556.05 991.32 1557.48 991.13 1558.92 990.55 1560.36 991.07 1561.8 991 1563.23 991.32 1564.67 991.11 1566.11 991.27 1567.54 990.8 1568.98 991.03 1570.42 991.3 1571.86 990.93 1573.3 991.31 1574.74 990.37 1576.18 990.94 1577.62 991.15 1579.07 990.6 1580.4 990.49 1581.9 990.95 1583.12 990.16 1584.55 989.83 1585.29 988.49 1586.04 987.39 1586.57 986.22 1586.86 984.97 1586.38 983.77 1586.55 982.2 1585.15 981.59 1584.21 980.64 1582.9 980.3 1581.65 979.91 1580.39 979.48 1579.07 979.02 1577.63 978.95 1576.2 979.36 1574.77 978.73 1573.33 979.56 1571.9 979.54 1570.46 979.43 1569.03 979.13 1567.6 979.34 1566.17 979.16 1564.73 978.78 1563.3 979.03 1561.87 979.55 1560.43 978.8 1559 979.54 1557.56 978.88 1556.13 979.47 1554.7 979.01 1553.26 978.75 1551.83 979.1 1550.39 978.88 1548.96 979.16 1547.53 978.76 1546.09 979.45 1544.66 979.11 1543.22 979.05 1541.8 978.67 1540.37 978.61 1538.94 979.42 1537.5 979.55 1536.07 979.17 1534.63 978.87 1533.2 979.27 1531.77 979.51 1530.34 979.36 1528.9 979.39 1527.47 979.32 1526.03 978.92 1524.6 978.66 1523.16 979.28 1521.73 979.6 1520.29 979.29 1518.86 979.53 1517.42 978.82 1515.99 978.69 1514.55 979.34 1513.11 979.18 1511.67 978.9 1510.24 979.43 1508.8 979.07 1507.36 978.8 1505.93 979.38 1504.49 978.95 1503.05 979.12 1501.62 978.62 1500.18 979.09 1498.74 979.46 1497.3 979.59 1495.86 979.37 1494.41 979.33 1492.97 978.79 1491.62 979.3 1490.3 979.62 1488.77 979.45 1487.68 980.41 1486.63 981.32 1485.98 982.53 1485.51 983.73 1485.28 984.97"/><polygon class="cls-3" points="1145.54 1007.85 1145.38 1009.34 1146.58 1010.31 1147.63 1011.11 1148.35 1012.34 1149.58 1012.96 1151 1012.94 1152.25 1013.5 1153.6 1013.31 1155.04 1013.55 1156.47 1013.76 1157.91 1013.32 1159.35 1013.64 1160.78 1014.05 1162.22 1013.92 1163.65 1013.52 1165.09 1013.4 1166.53 1013.41 1167.96 1013.59 1169.39 1013.5 1170.83 1013.74 1172.27 1013.72 1173.7 1013.92 1175.13 1014.05 1176.57 1014.07 1178 1014.05 1179.44 1014.11 1180.87 1013.37 1182.31 1014.09 1183.74 1013.77 1185.17 1013.26 1186.61 1013.47 1188.04 1014.08 1189.48 1013.64 1190.91 1013.6 1192.35 1013.66 1193.78 1013.34 1195.21 1013.98 1196.65 1014.14 1198.08 1014 1199.52 1013.38 1200.95 1013.66 1202.39 1013.9 1203.82 1013.22 1205.26 1014.02 1206.69 1014.14 1208.13 1013.61 1209.56 1014.12 1211 1013.97 1212.43 1014.12 1213.87 1013.29 1215.31 1013.82 1216.74 1013.99 1218.18 1013.29 1219.62 1013.53 1221.05 1013.9 1222.49 1014.16 1223.93 1013.65 1225.37 1013.68 1226.8 1013.9 1228.24 1013.45 1229.68 1013.75 1231.12 1014.04 1232.55 1014.11 1233.99 1014.13 1235.43 1013.54 1236.86 1014.17 1238.3 1014.14 1239.74 1014.13 1241.17 1014.05 1242.61 1013.27 1244.04 1013.27 1245.48 1013.94 1246.91 1013.59 1248.35 1014 1249.79 1013.95 1251.22 1014.07 1252.66 1013.76 1254.09 1013.47 1255.53 1013.56 1256.96 1013.88 1258.4 1013.88 1259.83 1013.88 1261.27 1013.77 1262.7 1013.58 1264.14 1014.16 1265.58 1013.55 1267.01 1013.57 1268.45 1014.21 1269.88 1013.33 1271.32 1013.71 1272.76 1013.32 1274.19 1013.67 1275.63 1013.8 1277.07 1013.96 1278.51 1013.97 1279.95 1013.24 1281.38 1013.28 1282.82 1013.61 1284.26 1013.68 1285.7 1013.89 1287.14 1013.93 1288.57 1013.92 1290.01 1014.05 1291.45 1013.83 1292.88 1013.8 1294.32 1013.4 1295.76 1013.25 1297.19 1013.45 1298.63 1013.81 1300.07 1014.12 1301.5 1014.1 1302.94 1013.25 1304.37 1013.95 1305.81 1013.41 1307.25 1013.58 1308.68 1013.78 1310.12 1013.91 1311.56 1013.67 1312.99 1013.69 1314.43 1013.37 1315.87 1013.92 1317.31 1013.71 1318.74 1014.12 1320.18 1013.45 1321.62 1013.94 1323.06 1013.52 1324.5 1013.82 1325.93 1013.34 1327.37 1013.99 1328.81 1013.64 1330.25 1013.76 1331.69 1013.45 1333.12 1013.8 1334.56 1014.2 1336 1013.98 1337.43 1013.5 1338.87 1013.46 1340.31 1013.78 1341.74 1013.34 1343.18 1013.89 1344.62 1013.4 1346.06 1014 1347.49 1014 1348.93 1013.77 1350.37 1013.32 1351.81 1013.27 1353.24 1013.97 1354.68 1013.99 1356.12 1013.32 1357.56 1013.42 1359 1013.88 1360.44 1013.37 1361.88 1013.94 1363.31 1013.54 1364.75 1013.24 1366.19 1013.55 1367.62 1013.38 1369.06 1014.1 1370.49 1013.38 1371.92 1013.93 1373.36 1013.52 1374.79 1013.33 1376.23 1013.32 1377.67 1013.73 1379.1 1014.07 1380.54 1014.07 1381.98 1013.64 1383.42 1013.97 1384.86 1013.48 1386.3 1014.17 1387.73 1013.91 1389.17 1014.19 1390.61 1013.87 1392.04 1013.39 1393.48 1013.47 1394.91 1013.76 1396.35 1013.7 1397.78 1014.21 1399.21 1014.11 1400.65 1013.66 1402.08 1013.41 1403.52 1014.17 1404.95 1013.71 1406.38 1013.53 1407.82 1013.67 1409.26 1013.4 1410.69 1014.11 1412.13 1013.85 1413.56 1013.57 1415 1013.9 1416.44 1013.36 1417.88 1014.1 1419.32 1013.42 1420.76 1014.09 1422.2 1013.76 1423.64 1013.75 1425.07 1013.35 1426.51 1013.32 1427.95 1013.6 1429.39 1013.86 1430.82 1013.47 1432.26 1013.94 1433.69 1014.11 1435.13 1013.29 1436.57 1013.75 1438.01 1013.44 1439.44 1013.68 1440.88 1014.11 1442.32 1013.51 1443.76 1013.29 1445.2 1013.65 1446.64 1013.37 1448.08 1013.41 1449.52 1014.14 1450.96 1013.74 1452.4 1013.77 1453.83 1014.07 1455.27 1013.83 1456.71 1013.6 1458.15 1013.31 1459.59 1014.16 1461.03 1014 1462.46 1013.41 1463.9 1013.56 1465.35 1013.98 1466.79 1013.67 1468.23 1013.98 1469.67 1013.63 1471.11 1013.49 1472.55 1013.59 1473.98 1013.39 1475.42 1013.4 1476.86 1013.76 1478.31 1013.81 1479.75 1013.56 1481.19 1014.19 1482.63 1013.84 1484.07 1014.12 1485.51 1013.79 1486.95 1013.31 1488.39 1013.88 1489.83 1013.96 1491.27 1013.7 1492.71 1013.77 1494.15 1013.76 1495.6 1013.4 1497.04 1013.48 1498.47 1013.62 1499.91 1013.84 1501.34 1013.72 1502.78 1014.09 1504.22 1013.99 1505.67 1014.04 1507.11 1013.28 1508.55 1014.17 1509.98 1013.59 1511.42 1014.19 1512.86 1014.17 1514.31 1013.32 1515.75 1013.56 1517.19 1013.54 1518.63 1013.38 1520.07 1013.51 1521.52 1013.39 1522.96 1013.42 1524.4 1013.84 1525.84 1013.35 1527.29 1013.99 1528.73 1014.1 1530.18 1013.25 1531.62 1013.92 1533.07 1013.45 1534.51 1013.67 1535.95 1013.97 1537.39 1013.84 1538.84 1013.62 1540.28 1014.14 1541.73 1013.85 1543.18 1013.42 1544.63 1014.17 1546.08 1013.39 1547.53 1013.29 1548.85 1013.31 1550.32 1013.67 1551.37 1012.54 1552.61 1012.09 1553.51 1011.12 1555.01 1010.62 1555.37 1009.22 1555.85 1007.85 1555.2 1006.54 1554.82 1005.21 1553.87 1004.2 1552.89 1003.17 1551.42 1003.03 1550.11 1002.8 1548.96 1001.58 1547.53 1002.28 1546.09 1001.66 1544.65 1001.8 1543.22 1001.96 1541.78 1002.22 1540.34 1001.55 1538.91 1001.5 1537.47 1002.23 1536.04 1002.25 1534.6 1001.57 1533.16 1001.94 1531.73 1002.27 1530.3 1002.46 1528.86 1001.7 1527.42 1001.58 1525.99 1001.85 1524.56 1001.57 1523.12 1001.9 1521.69 1002.01 1520.25 1002.45 1518.82 1001.51 1517.38 1001.49 1515.95 1002.23 1514.52 1001.53 1513.08 1001.65 1511.65 1001.61 1510.21 1001.81 1508.78 1001.99 1507.35 1002.07 1505.91 1002.09 1504.48 1001.75 1503.04 1002.07 1501.61 1002.39 1500.17 1002.03 1498.74 1001.5 1497.3 1001.49 1495.87 1002.35 1494.43 1002.16 1493 1001.86 1491.56 1002.13 1490.13 1001.85 1488.69 1001.61 1487.26 1001.57 1485.82 1001.96 1484.38 1001.52 1482.95 1002.03 1481.51 1001.91 1480.07 1001.61 1478.63 1001.54 1477.2 1001.62 1475.76 1002.4 1474.32 1002.26 1472.88 1001.84 1471.45 1002.09 1470.01 1001.82 1468.57 1002.16 1467.13 1002.35 1465.7 1002.12 1464.26 1001.53 1462.83 1001.66 1461.39 1002.41 1459.95 1002.27 1458.52 1001.6 1457.08 1001.81 1455.65 1002.1 1454.21 1001.97 1452.78 1002.42 1451.34 1001.57 1449.9 1001.51 1448.47 1001.58 1447.03 1002.47 1445.6 1001.72 1444.16 1001.73 1442.73 1001.98 1441.29 1001.92 1439.86 1002.31 1438.42 1001.61 1436.98 1001.89 1435.55 1001.65 1434.11 1002.04 1432.68 1002.07 1431.24 1002.23 1429.8 1002.41 1428.37 1002.08 1426.93 1001.96 1425.49 1001.76 1424.06 1001.75 1422.62 1001.95 1421.18 1002.3 1419.74 1002.43 1418.3 1002.43 1416.86 1002 1415.43 1001.86 1413.99 1002.41 1412.55 1001.8 1411.12 1001.79 1409.68 1001.98 1408.24 1001.51 1406.81 1002.07 1405.37 1002.33 1403.93 1001.5 1402.5 1001.81 1401.06 1001.86 1399.62 1002.25 1398.19 1001.73 1396.75 1002.24 1395.31 1001.89 1393.88 1001.78 1392.44 1002.44 1391.01 1001.92 1389.57 1002.31 1388.13 1001.84 1386.69 1001.54 1385.26 1002.03 1383.82 1001.51 1382.38 1001.94 1380.94 1001.75 1379.51 1002.02 1378.07 1001.77 1376.63 1002.31 1375.19 1001.67 1373.75 1001.84 1372.31 1001.84 1370.88 1001.85 1369.44 1001.72 1368 1002.19 1366.57 1001.59 1365.13 1002.35 1363.69 1002.25 1362.25 1002.22 1360.82 1001.89 1359.38 1001.69 1357.94 1002.27 1356.51 1001.91 1355.07 1001.98 1353.63 1002.28 1352.19 1002.38 1350.76 1002.45 1349.32 1002.23 1347.88 1001.61 1346.44 1001.88 1345 1001.79 1343.56 1001.82 1342.13 1002 1340.69 1002.01 1339.25 1001.86 1337.81 1002.08 1336.37 1001.65 1334.94 1002.23 1333.5 1002.41 1332.07 1002.03 1330.64 1001.92 1329.2 1002.32 1327.77 1002.19 1326.33 1001.99 1324.9 1001.84 1323.46 1002.45 1322.02 1002.27 1320.58 1001.59 1319.14 1002.12 1317.7 1001.78 1316.27 1002.19 1314.83 1002.21 1313.39 1002.34 1311.95 1001.95 1310.52 1001.93 1309.08 1002.19 1307.65 1001.64 1306.21 1001.84 1304.78 1002.22 1303.35 1001.65 1301.91 1001.81 1300.48 1001.97 1299.04 1002.21 1297.61 1001.5 1296.17 1001.8 1294.74 1002.18 1293.31 1002.07 1291.87 1002.4 1290.43 1001.8 1289 1001.61 1287.56 1001.52 1286.13 1002.07 1284.69 1001.74 1283.25 1001.73 1281.81 1001.85 1280.37 1002.01 1278.93 1002.38 1277.49 1001.64 1276.05 1002.38 1274.61 1001.83 1273.18 1002.03 1271.74 1002.12 1270.3 1002.05 1268.87 1002.27 1267.43 1001.77 1265.99 1001.81 1264.56 1001.98 1263.12 1002.24 1261.68 1002.44 1260.24 1001.92 1258.81 1001.68 1257.37 1001.72 1255.93 1002.18 1254.49 1001.89 1253.05 1001.9 1251.61 1002.1 1250.17 1001.8 1248.73 1002.42 1247.29 1001.56 1245.85 1001.67 1244.41 1001.77 1242.98 1002.24 1241.54 1001.97 1240.1 1001.86 1238.66 1002.04 1237.22 1002.06 1235.78 1001.72 1234.34 1001.95 1232.9 1001.67 1231.46 1002.06 1230.02 1002.28 1228.58 1001.75 1227.14 1002.27 1225.7 1002.46 1224.26 1001.96 1222.82 1002.22 1221.38 1002.24 1219.94 1002.28 1218.5 1002.18 1217.06 1002.31 1215.62 1002.06 1214.18 1002.13 1212.74 1001.5 1211.29 1001.95 1209.85 1002.32 1208.41 1001.99 1206.97 1001.62 1205.53 1001.74 1204.09 1001.83 1202.65 1001.75 1201.22 1001.75 1199.78 1001.99 1198.34 1001.69 1196.9 1001.62 1195.46 1002.41 1194.02 1001.78 1192.58 1002.34 1191.14 1002.11 1189.7 1002.23 1188.26 1001.76 1186.82 1001.68 1185.38 1001.64 1183.93 1001.72 1182.49 1002.19 1181.05 1002.31 1179.61 1001.63 1178.17 1001.61 1176.72 1002.1 1175.28 1001.79 1173.84 1001.93 1172.39 1001.71 1170.95 1001.95 1169.5 1002.18 1168.06 1001.58 1166.62 1001.88 1165.18 1001.75 1163.73 1001.57 1162.29 1001.76 1160.84 1002.18 1159.39 1001.99 1157.95 1002.01 1156.5 1001.84 1155.05 1001.6 1153.6 1002.36 1152.17 1001.61 1151 1002.76 1149.41 1002.34 1148.17 1003.08 1147.62 1004.59 1146.71 1005.48 1146.15 1006.62 1145.54 1007.85"/><polygon class="cls-3" points="1533.61 996.68 1534.01 995.25 1534.02 993.61 1535.06 992.4 1536.17 991.2 1537.78 990.83 1539.34 990.83 1537.91 991.19 1536.48 990.64 1535.05 990.54 1533.61 990.64 1532.18 990.96 1530.74 990.78 1529.31 990.84 1527.88 991.19 1526.45 990.43 1525.02 990.94 1523.58 991.27 1522.15 991.15 1520.71 990.48 1519.28 990.34 1517.84 991.13 1516.4 990.51 1514.96 991.14 1513.52 990.83 1514.93 991.41 1516.22 992.01 1517.7 992.51 1518.79 993.64 1519.43 995.1 1519.23 996.68 1519.57 998.3 1518.53 999.57 1517.74 1000.89 1516.7 1002.18 1515.14 1002.72 1513.52 1002.31 1514.96 1002.34 1516.39 1002.4 1517.82 1002.79 1519.25 1002.25 1520.69 1002.65 1522.12 1002.48 1523.55 1002.28 1524.99 1002.46 1526.42 1003.04 1527.85 1002.88 1529.29 1002.85 1530.72 1002.47 1532.15 1002.91 1533.59 1002.69 1535.02 1002.16 1536.46 1002.23 1537.9 1002.25 1539.34 1002.66 1537.82 1002.36 1536.55 1001.51 1535.46 1000.56 1534.44 999.51 1533.24 998.32 1533.61 996.68"/><polygon class="cls-3" points="1533.61 996.68 1534.01 995.25 1534.02 993.61 1535.06 992.4 1536.17 991.2 1537.78 990.83 1539.34 990.83 1537.91 991.19 1536.48 990.64 1535.05 990.54 1533.61 990.64 1532.18 990.96 1530.74 990.78 1529.31 990.84 1527.88 991.19 1526.45 990.43 1525.02 990.94 1523.58 991.27 1522.15 991.15 1520.71 990.48 1519.28 990.34 1517.84 991.13 1516.4 990.51 1514.96 991.14 1513.52 990.83 1514.93 991.41 1516.22 992.01 1517.7 992.51 1518.79 993.64 1519.43 995.1 1519.23 996.68 1519.57 998.3 1518.53 999.57 1517.74 1000.89 1516.7 1002.18 1515.14 1002.72 1513.52 1002.31 1514.96 1002.34 1516.39 1002.4 1517.82 1002.79 1519.25 1002.25 1520.69 1002.65 1522.12 1002.48 1523.55 1002.28 1524.99 1002.46 1526.42 1003.04 1527.85 1002.88 1529.29 1002.85 1530.72 1002.47 1532.15 1002.91 1533.59 1002.69 1535.02 1002.16 1536.46 1002.23 1537.9 1002.25 1539.34 1002.66 1537.82 1002.36 1536.55 1001.51 1535.46 1000.56 1534.44 999.51 1533.24 998.32 1533.61 996.68"/></g><g class="cls-5"><path class="cls-6" d="M1763.05,1147.59c.06,14.9.08,52.88.07,67.78l-.06,22.36-.06,11.17,0,5.57,0,2.78-.06,2.12h3.55l.07-2,0-2.82,0-5.61.06-11.2.05-22.38c0-14.92,0-52.9-.07-67.83"/><path class="cls-6" d="M1757.62,1147.65c.07,14.87.08,52.83.07,67.71l0,22.32-.07,11.12,0,5.52,0,2.73,0,2.32H1761l.06-2.19,0-2.76.05-5.55.06-11.16.06-22.34c0-14.9,0-52.87-.07-67.76"/><path class="cls-6" d="M1768.47,1147.53c.07,14.94.09,52.93.07,67.86l0,22.39-.06,11.22,0,5.63,0,2.83-.07,1.91h3.55l.07-1.78,0-2.86,0-5.67.06-11.24,0-22.43c0-14.94,0-52.94-.07-67.9"/></g></svg>