<svg id="mockup" xmlns="http://www.w3.org/2000/svg" xmlns:xlink="http://www.w3.org/1999/xlink" viewBox="0 0 222.69 54.79"><defs><style>.cls-1{mask:url(#mask);}.cls-2{fill:#e66446;}.cls-3{fill:none;stroke:#e66446;stroke-miterlimit:10;}.cls-4{filter:url(#luminosity-noclip);}</style><filter id="luminosity-noclip" x="-44.47" y="-43.99" width="151.71" height="146.66" filterUnits="userSpaceOnUse" color-interpolation-filters="sRGB"><feFlood flood-color="#fff" result="bg"/><feBlend in="SourceGraphic" in2="bg"/></filter><mask id="mask" x="-44.47" y="-43.99" width="151.71" height="146.66" maskUnits="userSpaceOnUse"><g class="cls-4"><path d="M31.45,20.54a.23.23,0,0,1,.18-.24s.33-.08.44,0a.76.76,0,0,1,.2.36.19.19,0,0,1-.14.23l-.47.1a.16.16,0,0,1-.2-.15Z"/><path d="M106.67,29.05a.24.24,0,0,1,.22-.21s.11,0,.12,0c.11.23.22.54.22.54s0,.17-.13.16l-.3,0a.2.2,0,0,1-.17-.22Z"/><path d="M5.61,46.55s0-.09.08-.11l.46-.13c.09,0,.16,0,.17,0h0l-.68.19Z"/><path d="M81.09,13a.89.89,0,0,1-.49.71c-.28.12-.86.06-.82-.35a2.79,2.79,0,0,1,.29-.9.46.46,0,0,1,.28-.27C80.75,12.15,81.09,12.77,81.09,13Z"/><path d="M42.16,43.71c0,.19,0,.38-.15.42s-.34,0-.34-.23c0,0,0-.3,0-.62a.74.74,0,0,1,.33,0C42.12,43.51,42.16,43.71,42.16,43.71Z"/><path d="M21.34,56.75c.24.4.14.49-.23.19a8.23,8.23,0,0,1-.78-.71c-.61-.92-1.33-2-1.33-2-.26-.4-.12-.67.3-.6l.17.22C20.06,54.63,21.34,56.75,21.34,56.75Z"/><path d="M62.7,8.07c0,.1,0,.16-.1.14s-.19,0-.22-.1a2.18,2.18,0,0,1-.09-.32c0-.12,0-.19.11-.16l0,0Z"/><path d="M90.87,14.25c.09.14,0,.23-.14.19,0,0-.27,0-.3-.13a2.51,2.51,0,0,1-.14-.46c0-.17,0-.27.17-.24l.05.07C90.66,13.88,90.87,14.25,90.87,14.25Z"/><path d="M67.15,29.85a6.37,6.37,0,0,0,.14,1c.1.54.11,1.92-.18,1.88s-.9-.57-.69-1.09l.73-1.77Z"/><path d="M35.07,37.81c-.26-.59,0-1.06.65-1.05s1.6.57,1.61,1.22a2.65,2.65,0,0,1-.23.72c-.08.2-1.09.31-1.32.09A3.49,3.49,0,0,1,35.07,37.81Z"/><path d="M12.65,4.36a.62.62,0,0,1-.54.84s-.34,0-.41-.1a2.18,2.18,0,0,1-.18-1.29c0-.12.77-.3.79-.26A5.88,5.88,0,0,1,12.65,4.36Z"/><path d="M42.45,3.9a.1.1,0,0,1,.09-.14c.08,0,.22,0,.24.13a.2.2,0,0,1,0,.12c0,.06-.06.07-.06.07S42.48,4,42.45,3.9Z"/><path d="M18.94,1.42c.15,0,.27,0,.27.11s-.05.34-.13.33-.3-.13-.31-.27l.06-.08A.22.22,0,0,1,18.94,1.42Z"/><path d="M93.3,38.12a.63.63,0,0,1,.94.59,1.27,1.27,0,0,1-.19.74,1.83,1.83,0,0,1-.43.4.84.84,0,0,1-1.16-.58,1.19,1.19,0,0,1,.14-.56C92.73,38.37,93.3,38.12,93.3,38.12Z"/><path d="M106,28.45c-.08-.27.07-.41.33-.31,0,0,.29.1.34.24a1.93,1.93,0,0,1,.1.52.47.47,0,0,1-.43.51l0-.08A9,9,0,0,1,106,28.45Z"/><path d="M28.38,50.94a.94.94,0,0,1,1.1.76.83.83,0,0,1-.15.54c-.15.23-.2.23-.2.23a1.07,1.07,0,0,1-1.05-.93l.13-.4C28.27,51,28.38,50.94,28.38,50.94Z"/><path d="M80.44,45.64a.79.79,0,0,1,1,.65s0,.35-.12.47a1.72,1.72,0,0,1-1.27.13c-.17,0-.34-.89-.24-1A2.87,2.87,0,0,1,80.44,45.64Z"/><path d="M32,26c.08,0,.23.16.33.34s.11.54-.16.49a.86.86,0,0,1-.25-.18c-.16-.14-.17-.18-.17-.18A.43.43,0,0,1,32,26Z"/><path d="M41.75,49.24c.19.63-.18,1-.82.87a10.72,10.72,0,0,1-1.76-.59c-.18-.09-.19-1.13-.08-1.17A7.53,7.53,0,0,1,41.24,48C41.36,48,41.75,49.24,41.75,49.24Z"/><path d="M69.21,51.69c.3-.16.5,0,.46.32a.43.43,0,0,1-.16.27,2,2,0,0,1-.43.24c-.32.1-.57,0-.54-.31l.14-.13A2.72,2.72,0,0,1,69.21,51.69Z"/><path d="M48.22,30a.66.66,0,0,1,.67.71h0c-.53,0-.84,0-.84,0a.66.66,0,0,1-.68-.64h.07A7,7,0,0,1,48.22,30Z"/><path d="M58.53,24.21a.64.64,0,0,1-.72.65v0c0-.52,0-.83,0-.83,0-.41.33-.71.66-.67v.07A6.58,6.58,0,0,1,58.53,24.21Z"/><path d="M5,10.35a.7.7,0,0,1,.87.9.9.9,0,0,1-.32.44l-.27.22a1,1,0,0,1-.92-1l.23-.27A.84.84,0,0,1,5,10.35Z"/><path d="M51.83.9c.1.55-.23.89-.73.74l0-.16a4.7,4.7,0,0,1-.16-.7c0-.56.24-1,.62-1l0,.12A7,7,0,0,1,51.83.9Z"/><path d="M69.7,17a.42.42,0,0,1-.33.31c-.16,0-.52-.06-.47-.25l.12-.1.21-.18A.3.3,0,0,1,69.7,17Z"/><path d="M63.63.88a.45.45,0,0,1,.64.44,1.53,1.53,0,0,1-.07.44l0,.09a.73.73,0,0,1-.7-.51V1C63.49.93,63.63.88,63.63.88Z"/><path d="M78.75,43.6a.53.53,0,0,1,.56.47c.06.31-.19,1.09-.67,1.17l-.15-.18-.29-.34A1,1,0,0,1,78.75,43.6Z"/><path d="M37.16,37c.07.44-.18.62-.57.4,0,0,0,0-.05-.15-.12-.5-.15-.71-.15-.71,0-.45.16-.78.48-.74l0,.11A8.81,8.81,0,0,1,37.16,37Z"/><path d="M12.06,10.68a.46.46,0,0,1-.32.48.6.6,0,0,1-.51-.63l.16-.27.12-.2C11.82,9.94,12.07,10.43,12.06,10.68Z"/><path d="M40.62,3.52s.07,0,.07,0,0,0,0,0h-.09s0,0,0,0Z"/><path d="M14.87,40.64c0-.36.12-.65.31-.65s.58.45.55,1a5.41,5.41,0,0,1-.13.57l0,.13C15.22,41.77,14.89,41,14.87,40.64Z"/><path d="M8.13,45.67a.69.69,0,0,1,.81-1A2,2,0,0,1,9.6,45l.23.15c.08.45-.33.88-.93,1L8.41,46A.47.47,0,0,1,8.13,45.67Z"/><path d="M78.07,43.64a.37.37,0,0,1,.14.17c.05.1.09.35,0,.37v0a2.12,2.12,0,0,1-.12-.22C78,43.79,78,43.65,78.07,43.64Z"/><path d="M90.35,51.08c-.09-.36.11-.53.45-.39,0,0,.21.09.25.24a6.65,6.65,0,0,1,.19,1.41,1.76,1.76,0,0,1-.49.12C90.6,52,90.35,51.08,90.35,51.08Z"/><path d="M97,13.35c.37-.26.53-.13.35.28a5.67,5.67,0,0,1-.48.89l-.12.16c-.28.06-.42-.21-.31-.61l.17-.32A1.8,1.8,0,0,1,97,13.35Z"/><path d="M48.42,11.23c.17-.11.3,0,.28.17l-.06,0-.1.08c-.15,0-.29,0-.3-.12l0-.05A.73.73,0,0,1,48.42,11.23Z"/><path d="M23.9,47.39c0-.27.3-.51.72-.53v0A2.1,2.1,0,0,1,24.7,48l-.05.16C24.29,48.2,23.92,47.65,23.9,47.39Z"/><path d="M93.63,29.07c.07-.09.13,0,.14.15v.39c-.06,0-.11-.08-.13-.25,0,0,0-.06,0-.25Z"/><path d="M77.28,24a.09.09,0,0,1,.12.1.32.32,0,0,1,0,.08v0s-.11,0-.12-.11V24A0,0,0,0,1,77.28,24Z"/><path d="M15.07,19.12a.9.9,0,0,1,1.2.56l-.05,0a5.91,5.91,0,0,1-1.37.37,2.77,2.77,0,0,1-.2-.75Z"/><path d="M40.16,20.3c-.06.27-.24.49-.41.49s-.5-.38-.43-.84l.22-.34.1-.17C40,19.42,40.21,20,40.16,20.3Z"/><path d="M31.79,38.43a.42.42,0,0,1-.46.51l-.16-.06s-.05-.36,0-.4a.78.78,0,0,1,.52-.08Z"/><path d="M.33,16.72s.07-.09.14-.09.24.1.23.22h0l-.11,0A.28.28,0,0,1,.33,16.72Z"/><path d="M48.89,43.09s0,.06-.07.06h0a.32.32,0,0,1,0-.14h0C48.84,43,48.89,43.06,48.89,43.09Z"/><path d="M12.7,43.23c.54-.36.93-.13.86.52a.41.41,0,0,1-.2.28l-.35.26c-.5.12-.95-.06-1-.4l.13-.16A3.49,3.49,0,0,1,12.7,43.23Z"/><path d="M29,19a.33.33,0,0,1,.37.32c0,.21-.15.65-.36.6v-.09a2.38,2.38,0,0,1,0-.8Z"/><path d="M64.52,16.3c0,.16-.1.25-.28.21l-.12-.07s0-.23.08-.25a.31.31,0,0,1,.27.07Z"/><path d="M76.52,20.35c.43.06.76.28.74.48a.8.8,0,0,1-.75.58l-.26-.16c-.09-.05,0-.61.14-.77Z"/><path d="M22.7,12.38c.12,0,.18.07.14.16l0,0a.2.2,0,0,1-.13,0c0-.05,0-.14,0-.17Z"/><path d="M74.7,35.17c-.11-.33.14-.65.56-.71l.08.1.14.18a.56.56,0,0,1-.46.61l-.17-.1Z"/><path d="M95.23,20.67c-.11-.33.14-.65.55-.71l.08.1.15.18a.57.57,0,0,1-.46.61l-.18-.1Z"/><path d="M-.72,45.23a.53.53,0,0,1,.54-.71l.15.14.17.15a.59.59,0,0,1-.5.65l-.19-.12Z"/><path d="M44.38,35.17a.29.29,0,0,1,.38.23l0,.08-.05.06a.35.35,0,0,1-.34-.21l0-.08Z"/><path d="M45.77,39.21c-.06-.17,0-.32.16-.33a.61.61,0,0,1,.54.39l-.07.17,0,.15C46.13,39.68,45.83,39.38,45.77,39.21Z"/><path d="M69.57.91c.28-.08.46.08.39.36l-.1.08-.11.09a.36.36,0,0,1-.38-.32L69.45,1C69.54.92,69.57.91,69.57.91Z"/><path d="M49,37.46c.12-.05.31.08.42.29l0,0-.15.16c-.22.12-.44.15-.48,0S48.89,37.52,49,37.46Z"/><path d="M81.18,29.81c0,.28,0,.56-.17.61a.47.47,0,0,1-.52-.38l0-.26a.62.62,0,0,1,.53-.07Z"/><path d="M88.81,23.62c0,.28,0,.55-.17.6a.46.46,0,0,1-.52-.37l0-.27a.7.7,0,0,1,.53-.07Z"/><path d="M35,34.6a.31.31,0,0,1,.34.17.65.65,0,0,1-.44.54l-.21-.07-.13,0A.6.6,0,0,1,35,34.6Z"/><path d="M18.15,12.54c.15,0,.3.21.34.54h0a1.33,1.33,0,0,1-.68.06l-.07,0C17.67,12.87,18,12.57,18.15,12.54Z"/><path d="M82.21,39.07c.28,0,.47.15.41.37l-.09.05-.16.08a.35.35,0,0,1-.39-.35l.08-.06Z"/><path d="M87,30.49c.29,0,.47.15.41.37l-.08.05-.16.08a.37.37,0,0,1-.4-.35l.09-.06Z"/><path d="M52.82.71c.34-.13.66,0,.72.27S53.45,2,53.1,2V2A5.19,5.19,0,0,1,52.83.78Z"/><path d="M66.1,53.19a.5.5,0,0,1-.48.56l-.13-.1-.1-.08a.61.61,0,0,1,.46-.54l.13.08Z"/><path d="M6.59,2.41c.26,0,.49.11.51.23a.47.47,0,0,1-.42.41L6.46,3a.65.65,0,0,1,0-.49Z"/><path d="M67.13,21.39c0,.15-.12.26-.22.24s-.27-.28-.22-.56l.08-.24v0C67,20.85,67.15,21.24,67.13,21.39Z"/><path d="M45.2,17.36a.53.53,0,0,1,.59.57l-.12.16-.09.11a.7.7,0,0,1-.58-.56l.1-.15Z"/><path d="M18.22,3.73a.15.15,0,0,1,.15-.22l.05,0,.06,0a.17.17,0,0,1-.14.2l-.06,0Z"/><path d="M45.26,45a.62.62,0,0,1,.72-.62l.06.12.11.26a.51.51,0,0,1-.58.53l-.17-.16Z"/><path d="M70.71,24.71c.42-.11.78.27.8.82l-.11.06a.9.9,0,0,1-.77,0,.7.7,0,0,1-.08-.7Z"/><path d="M5.84,22.51c-.13.09-.28-.14-.32-.44s0-.34.1-.44.26.42.22.88Z"/><path d="M38.19,6.6a.42.42,0,0,1,.36-.47l0,0,.08.15a.35.35,0,0,1-.28.4l-.09-.06Z"/><path d="M66.42,4.89a.29.29,0,0,1-.3.34l-.07-.07L66,5.1a.34.34,0,0,1,.28-.31l.08,0Z"/><path d="M87,6.93a.29.29,0,0,1-.3.33l-.07-.06-.07-.06a.36.36,0,0,1,.28-.32l.09.06Z"/><path d="M10.78,54.14c0,.15-.12.27-.18.26a.27.27,0,0,1-.18-.27l.05-.11s.23,0,.26,0Z"/><path d="M103.35,33.86a.08.08,0,0,1,.09.08l0,0,0,0a.08.08,0,0,1-.09-.08l0,0Z"/><path d="M11.27,7.27c.05,0,.08.07.07.09s0,.07-.07.06-.08-.08-.06-.13h.06Z"/><path d="M21.74,5.46c.38-.13.6.1.48.5l-.16.16-.15.15c-.27,0-.46-.16-.43-.46l.14-.19Z"/><path d="M12.65,32.67c0-.07.08-.14.21-.15l.08,0s.05.16,0,.2l-.06.07C12.79,32.86,12.67,32.74,12.65,32.67Z"/><path d="M29.47,38.89a.12.12,0,0,1,.17.09l0,0,0,0a.14.14,0,0,1-.16-.08l0,0Z"/><path d="M92.1,43c.17.46,0,.79-.47.73l-.09-.13-.14-.2a.66.66,0,0,1,.42-.7l.09.09A.89.89,0,0,1,92.1,43Z"/><path d="M74.89,16c-.13-.24-.12-.45,0-.46s.48.1.53.3l0,.18a.51.51,0,0,1-.38.07Z"/><path d="M86.82,17.84c-.13-.23-.12-.44,0-.46s.48.11.53.31l0,.17a.43.43,0,0,1-.38.07Z"/><path d="M23.29,54.22a.06.06,0,0,1,.06.08.22.22,0,0,1-.18.15l0,0,0,0A.22.22,0,0,1,23.29,54.22Z"/><path d="M74.43,24c.14,0,.22.17.18.43l-.09.13c-.06.07-.35.09-.38,0l-.1-.14C74,24.2,74.29,24,74.43,24Z"/><path d="M75.11,23.31a.67.67,0,0,1,.24.49l-.07,0-.13.08c-.21,0-.39-.15-.39-.27S75,23.27,75.11,23.31Z"/><path d="M46.35,47.9c.1,0,.09.18,0,.33l-.11.05a.31.31,0,0,1-.24-.13L46,48C46,47.89,46.26,47.86,46.35,47.9Z"/><path d="M.56,35.45s.06-.38.14-.74.42-1.27.58-1.2h0c-.23.65-.47,1.29-.72,1.93Z"/><path d="M83.6,48.78c.26,0,.41.27.33.7l-.17.18a.71.71,0,0,1-.69,0l-.16-.19C82.9,49.17,83.34,48.82,83.6,48.78Z"/><path d="M65.23,14.1c.31,0,.54.08.5.23s-.32.43-.56.38l-.19-.1a.53.53,0,0,1,.09-.42Z"/><path d="M69.62,26.24c.37-.06.64.05.61.23s-.34.55-.62.51l-.19-.12a.55.55,0,0,1,0-.5Z"/><path d="M94.4,28a.54.54,0,0,1,.58.51l-.1.08-.13.11a.7.7,0,0,1-.56-.51l.09-.08Z"/><path d="M8.94,39.74c.11,0,.18.06.16.18l0,0,0,0a.19.19,0,0,1-.15-.18l0,0Z"/><path d="M35.49,49.85s0,.07-.09.11l0,0,0,0c0-.05,0-.11,0-.12S35.48,49.82,35.49,49.85Z"/><path d="M7.62,36.75a.18.18,0,0,1-.23-.11.39.39,0,0,1,.28-.37l.18,0H7.9A.5.5,0,0,1,7.62,36.75Z"/><path d="M26.94,41.33a.16.16,0,0,1,.22.05h0l0,0a.17.17,0,0,1-.21,0h0Z"/><path d="M26.1,22.5a.22.22,0,0,1,.31.08h0l-.08.07a.23.23,0,0,1-.29-.05v0Z"/><path d="M72.57,36.36a.08.08,0,0,1,.09-.06.23.23,0,0,1,.14.17h0l-.07,0A.18.18,0,0,1,72.57,36.36Z"/><path d="M19.94,42.72a.52.52,0,0,1-.5.3l-.06-.1-.05-.1a.52.52,0,0,1,.49-.29l.06.09Z"/><path d="M51.63,50.34a.48.48,0,0,1,.29.51l-.1.09-.07.06a.54.54,0,0,1-.3-.52l.11-.09Z"/><path d="M69.35,13.19a.35.35,0,0,1,.32.32h0l-.14.06c-.19,0-.32-.11-.3-.26l.08-.07Z"/><path d="M93.07,32.6c.1,0,.18,0,.19,0s0,.14,0,.15a.22.22,0,0,1-.21-.11l0,0Z"/><path d="M8.14,10.28s.08,0,.11.07v.07s-.07.07-.08.07l-.05,0S8.11,10.3,8.14,10.28Z"/><path d="M19.86,23.11a.22.22,0,0,1,.16.21.44.44,0,0,1-.42.28l-.1-.11-.08-.07A.46.46,0,0,1,19.86,23.11Z"/><path d="M12.45,15a.62.62,0,0,1-.65-.23l0-.12.05-.12a.63.63,0,0,1,.64.23l0,.12Z"/><path d="M16.09,23.7c.05,0,.08.08.07.17l0,.07a.22.22,0,0,1-.13,0l0-.07C15.94,23.76,16.05,23.7,16.09,23.7Z"/><path d="M32.21,32a.15.15,0,0,1,0,.14.17.17,0,0,1-.22.06l0-.07L32,32A.19.19,0,0,1,32.21,32Z"/><path d="M64.54,41.05a.4.4,0,0,1-.42-.15l0-.08,0-.07a.37.37,0,0,1,.41.15l0,.07Z"/><path d="M94.82,27.38s0,0,0,0h0s0,0,0,0h0Z"/><path d="M62.27,47.16c0-.08,0-.17.18-.21h.12s.13.16.12.18l-.08.11C62.5,47.35,62.31,47.24,62.27,47.16Z"/><path d="M55.64,37a.42.42,0,0,1,.38-.43l.11.06a.4.4,0,0,1,0,.38.4.4,0,0,1-.39.06Z"/><path d="M24.13,36c.08,0,.16,0,.17.06s-.09.2-.26.23h-.17C23.85,36.18,24.05,36,24.13,36Z"/><path d="M65.88,32.14a.51.51,0,0,1,.46-.39l.09.1.07.08a.54.54,0,0,1-.47.39L66,32.24Z"/><path d="M10.27,23.5c.1,0,.18,0,.18,0a.2.2,0,0,1-.17.17l-.08,0s0-.12,0-.13Z"/><path d="M48.62,53.22a0,0,0,0,1,0,0v0Z"/><path d="M57.53,34.4a.15.15,0,0,1,.16.06v0a.14.14,0,0,1-.11,0,.12.12,0,0,1,0-.11Z"/><path d="M44.24,51.48c.09.05.16.12.16.16s0,.13-.1.12-.2-.15-.17-.24l.06,0Z"/><path d="M32,28.33a.41.41,0,0,1,0-.28L32,28l.06,0c.12,0,.2.12.17.2S32.05,28.36,32,28.33Z"/><path d="M71.94,22.86c0-.16,0-.3.12-.31s.29.14.26.31l-.07.14S72,23,72,23Z"/><path d="M49.37,19.72s0-.15,0-.26l.06-.05,0-.05c.12,0,.19.11.16.19S49.41,19.75,49.37,19.72Z"/><path d="M32.6,25.72a.11.11,0,0,1-.14-.07s.06-.16.19-.17l.12,0h0C32.81,25.6,32.65,25.71,32.6,25.72Z"/><path d="M4.09,5a.2.2,0,0,1,0,.29L4,5.41,3.9,5.3A1.15,1.15,0,0,1,4.09,5Z"/><path d="M87.3,22.62s0,0,0,0,0,0,0,0Z"/><path d="M56.82,9.68c.06,0,0,.26-.15.49l-.17.17,0,0c-.17-.12-.25-.32-.16-.43S56.76,9.63,56.82,9.68Z"/><path d="M54.17,32.71c-.15,0-.2-.13-.12-.25s.22-.12.28,0S54.32,32.72,54.17,32.71Z"/><path d="M61.53,9.61s0,.05,0,.09l0,0s-.06,0-.06,0v0S61.51,9.6,61.53,9.61Z"/><path d="M23.3,25.07c.05.06-.06.22-.23.37l-.18.09,0,0c-.12-.13-.14-.3-.05-.38A.71.71,0,0,1,23.3,25.07Z"/><path d="M102.91,19.74a.18.18,0,0,1,.11.14.2.2,0,0,1-.21.18l-.07-.06,0-.07A.23.23,0,0,1,102.91,19.74Z"/><path d="M68.18,45.94c.13.24,0,.39-.17.32s-.68-.43-.6-.59S68.06,45.69,68.18,45.94Z"/><path d="M14.59,17.54s0,.08,0,.11-.09,0-.08-.07S14.55,17.5,14.59,17.54Z"/><path d="M31.62,25c0-.07,0-.1.08-.07s.07.09,0,.12S31.63,25.09,31.62,25Z"/><path d="M52.8,4.4c0,.06,0,.1-.07.08s-.09-.07,0-.12S52.78,4.33,52.8,4.4Z"/><path d="M20.51,27.14c0,.3-.14.43-.43.29s-.32-.39-.08-.54S20.47,26.85,20.51,27.14Z"/><path d="M33.08,10.54a.13.13,0,0,1,.08.08s0,.13-.13.12l0,0,0,0A.13.13,0,0,1,33.08,10.54Z"/><path d="M29.78,30.34c-.07.06-.16,0-.19-.07s0-.16.13-.12S29.85,30.27,29.78,30.34Z"/><path d="M32.7,11.49s0,.06-.09,0l0,0v0C32.59,11.41,32.68,11.45,32.7,11.49Z"/></g></mask></defs><g class="cls-1"><path class="cls-2" d="M42.16,2.17l-1.3.5-1.37.25-1.36.32-1.25.69-1.39.2-1.39.08-1.46.44L31.31,4l-1.1-1-1.3-.47-1.49,0L26.16,2l-1.51.1-1.34-.37L22.09.58,20.66.36,19.2.82,17.8,1,16.4,1,14.89.51l-1.32.69H12.08L11,2.43,9.8,3.09l-1.35.44L7,3.92l-1.14.87L5,5.9,4.17,7.11l-1,.94-1,1L1.17,10.1.23,11.39,2,11.45l1.27.9H4.87l1,1.31L7.47,14,8.57,15l1.23.89.86,1.27.69,1.35.87,1.18,1.06,1.14.87,1.4-.23,1.78.42,1.53,1.11,1.64-1.83.6-1.16,1.26-1.68.15-1.46.17L8,28.79l-1.36-.32L5.59,27.29l-1.49.6-1.22.05L2,29l.72,1.4,1.4.52,1.23.68,1.18.83,1.49,0,1.36.33,1.3.66L12,32.8l1.25-.49,1.36-.22L16,31.73l.18,1.32.67,1.19.81,1.09.52,1.31L19,37.75l1,1,1.62.91,1.62.65-.49,1.34-1.59.33-.93,1.14-1.43-.23-1.43.62L16,43.35l-1.33-1-1.31.82-1,.59-.15.75.53,1.4,1.36.54,1.5-.3,1.4,0,1.35.35,1.36.75,1.42-.4,1.26-.6,1.27-.56,1-.94L26,44.2l.83-1.14.73-1.21,1-1L30,40.33l1.51.27,1.47.2,1.56-.41,1.24,1,1.37.5,1.26.75,1.25.79.81,1.25,1.28.89.33,1.5.81,1.27.17,1.49.86,1.34-.15,1.49L45,52l1.46-.25L47.65,51l1.07-1,.94-1.09,1.66-.35.58-1.44,1.24-.91V44.51l.72-1.22.82-1.24.38-1.41,0-1.47-.17-1.44-.08-1.42.53-1.47-.49-1.4-.6-1.34-.1-1.44.46-1.5-.09-1.4-.36-1.38L53.7,25V23.56l.13-1.42.78-1.32-.45-1.54.49-1.35.92-1.16.52-1.31,1.2-.81.89-1,1.25-.82.9-.71-.21-1.47-.93-1.16L58.89,8l-1.56-.61L56.9,5.79l-1.08-1-1.57-.32-.72-1.55L52,2.73l-1.45-.19L49.34,1.46,47.89,1.1,46.41,1,45,1.65l-1.51-.28Zm6.51,8.46-1.74-.31-.79-1.57.47-1.58L47.94,6l1.71.56.76,1.49,0,1.88Z"/><path class="cls-2" d="M42.16,2.17l-1.3.5-1.37.25-1.36.32-1.25.69-1.39.2-1.39.08-1.46.44L31.31,4l-1.1-1-1.3-.47-1.49,0L26.16,2l-1.51.1-1.34-.37L22.09.58,20.66.36,19.2.82,17.8,1,16.4,1,14.89.51l-1.32.69H12.08L11,2.43,9.8,3.09l-1.35.44L7,3.92l-1.14.87L5,5.9,4.17,7.11l-1,.94-1,1L1.17,10.1.23,11.39,2,11.45l1.27.9H4.87l1,1.31L7.47,14,8.57,15l1.23.89.86,1.27.69,1.35.87,1.18,1.06,1.14.87,1.4-.23,1.78.42,1.53,1.11,1.64-1.83.6-1.16,1.26-1.68.15-1.46.17L8,28.79l-1.36-.32L5.59,27.29l-1.49.6-1.22.05L2,29l.72,1.4,1.4.52,1.23.68,1.18.83,1.49,0,1.36.33,1.3.66L12,32.8l1.25-.49,1.36-.22L16,31.73l.18,1.32.67,1.19.81,1.09.52,1.31L19,37.75l1,1,1.62.91,1.62.65-.49,1.34-1.59.33-.93,1.14-1.43-.23-1.43.62L16,43.35l-1.33-1-1.31.82-1,.59-.15.75.53,1.4,1.36.54,1.5-.3,1.4,0,1.35.35,1.36.75,1.42-.4,1.26-.6,1.27-.56,1-.94L26,44.2l.83-1.14.73-1.21,1-1L30,40.33l1.51.27,1.47.2,1.56-.41,1.24,1,1.37.5,1.26.75,1.25.79.81,1.25,1.28.89.33,1.5.81,1.27.17,1.49.86,1.34-.15,1.49L45,52l1.46-.25L47.65,51l1.07-1,.94-1.09,1.66-.35.58-1.44,1.24-.91V44.51l.72-1.22.82-1.24.38-1.41,0-1.47-.17-1.44-.08-1.42.53-1.47-.49-1.4-.6-1.34-.1-1.44.46-1.5-.09-1.4-.36-1.38L53.7,25V23.56l.13-1.42.78-1.32-.45-1.54.49-1.35.92-1.16.52-1.31,1.2-.81.89-1,1.25-.82.9-.71-.21-1.47-.93-1.16L58.89,8l-1.56-.61L56.9,5.79l-1.08-1-1.57-.32-.72-1.55L52,2.73l-1.45-.19L49.34,1.46,47.89,1.1,46.41,1,45,1.65l-1.51-.28Zm6.51,8.46-1.74-.31-.79-1.57.47-1.58L47.94,6l1.71.56.76,1.49,0,1.88Z"/></g><path class="cls-3" d="M222.69.64c-.5,0-1,0-1.5.08V.64H71.59"/><path class="cls-3" d="M64.46,54.27H221.19v-.08c.5,0,1,.08,1.5.08"/><path class="cls-2" d="M86.67,36.08H112.4v2.69H86.67Zm24.92-17.27v2.65h-24V18.81H98V13.46l3.48.2c0,.25-.23.4-.68.48v4.67ZM93.83,22.74a44.58,44.58,0,0,1,2.46,11.42c-.12,0-.23,0-2.77.68a44.6,44.6,0,0,0-2.26-11.45Zm14.79.65a.87.87,0,0,1-.8.42,81.32,81.32,0,0,1-3.61,11.68l-2.46-.74a77.92,77.92,0,0,0,3.16-12.21Z"/><path class="cls-2" d="M119,34.36c1.44-.34,3-.71,4.5-1.11-.71-1-1.47-2.09-2.21-3l2.09-1.11a33.18,33.18,0,0,1,4.92,7.38l-2.26,1.3a21.92,21.92,0,0,0-1.21-2.46c-3.28,1-6.62,2-8.82,2.58a.68.68,0,0,1-.43.51l-1.1-3.09q.89-.16,2-.42V15h10.4V28.53H119Zm5.35-16.91H119V20.5h5.35ZM119,26h5.35V22.9H119Zm20.81-11.11V32.29c0,2.94-1.33,3.31-5.4,3.31a9,9,0,0,0-.93-2.86c.68,0,1.36,0,1.89,0,1.5,0,1.67,0,1.67-.51V17.65h-5.14V39.93h-2.75v-25Z"/><path class="cls-2" d="M167.3,24.15l2,.45a36.77,36.77,0,0,1-6.81,8.2l-2.21-1.41a31.25,31.25,0,0,0,4.27-4.64H158a.76.76,0,0,1-.59.31v9.87c0,2.88-1.53,3-6.93,3a11,11,0,0,0-1-2.57c1.1,0,2.26.06,3.14.06,1.89,0,2,0,2-.6V26.75H143.24V24.18h14.08a52.61,52.61,0,0,0-7.83-3.51l1.83-1.86a54.56,54.56,0,0,1,5.15,2,31.39,31.39,0,0,0,4.38-3.16H146V15.13H163.6l.5-.17,2.38,1.53a.92.92,0,0,1-.65.34,47,47,0,0,1-6.7,5.23c.93.48,1.75,1,2.4,1.38l-.68.74h5.86Z"/><path class="cls-2" d="M175.35,30.68c-.08.2-.25.31-.59.28a24.55,24.55,0,0,1-2,6.79,11.06,11.06,0,0,0-2-1A22.38,22.38,0,0,0,172.55,30ZM182.08,18c-.11.19-.34.28-.71.28A70.58,70.58,0,0,1,175.46,26L180,25.9c-.48-.82-1-1.64-1.53-2.37.85-.46,1.39-.71,1.92-1a23.55,23.55,0,0,1,3.39,5.82c-.87.51-1.46.82-2.06,1.13a10.84,10.84,0,0,0-.65-1.55l-2.66.17V40h-2.49V28.22c-1.55.09-3,.17-4.1.2a.48.48,0,0,1-.45.39L170.8,26l2.06,0c.6-.66,1.22-1.39,1.81-2.18A25,25,0,0,0,171,20.08l1.27-1.78.73.59a35.28,35.28,0,0,0,2.83-5.43l2.77,1.16a.71.71,0,0,1-.7.26,46.07,46.07,0,0,1-3.34,5.37,19.07,19.07,0,0,1,1.55,1.67,56.19,56.19,0,0,0,3.28-5.21Zm-.93,18.43a30.92,30.92,0,0,0-2-5.74l2.09-.7a31,31,0,0,1,2.12,5.59Zm14.25-17.7,1.41.12c0,.19,0,.56,0,.87-.39,13-.79,17.42-1.92,18.86-.9,1.19-1.81,1.41-4.33,1.41-.81,0-1.75,0-2.65-.08a5.6,5.6,0,0,0-.85-2.55c1.86.15,3.56.15,4.27.15a1.45,1.45,0,0,0,1.24-.46c.85-.93,1.27-5.17,1.61-15.74h-7.94a23,23,0,0,1-2.38,4.24,15.45,15.45,0,0,0-2.2-1.5c1.84-2.41,3.42-6.56,4.32-10.55l3.26.82a.66.66,0,0,1-.71.34,37.84,37.84,0,0,1-1.27,4.1h7.57Zm-8.65,6.42a28,28,0,0,1,3.9,6.5l-2.35,1.25a28.27,28.27,0,0,0-3.7-6.68Z"/></svg>