<svg id="mockup" xmlns="http://www.w3.org/2000/svg" xmlns:xlink="http://www.w3.org/1999/xlink" viewBox="0 0 99.72 99.78"><defs><style>.cls-1{fill:none;}.cls-2{mask:url(#mask);}.cls-3{fill:#79aeaa;}.cls-4{clip-path:url(#clip-path);}.cls-5{fill:#698d76;}.cls-6{filter:url(#luminosity-noclip);}</style><filter id="luminosity-noclip" x="0.24" y="0.23" width="99.38" height="99.39" filterUnits="userSpaceOnUse" color-interpolation-filters="sRGB"><feFlood flood-color="#fff" result="bg"/><feBlend in="SourceGraphic" in2="bg"/></filter><mask id="mask" x="0.24" y="0.23" width="99.38" height="99.39" maskUnits="userSpaceOnUse"><g class="cls-6"><path d="M16.64,93a2.47,2.47,0,0,0,.25-.49l.28-.58a1.07,1.07,0,0,0,.09-.62,3.28,3.28,0,0,0-.74-.28L16,90.9c-.3-.08-.61,0-.69.09a1,1,0,0,0,.11.9l.76.72Z"/><path d="M35.81,66.33c0-.27-.18-.36-.4-.21l-.44.27a.93.93,0,0,0-.4.6c0,.18.18.69.38.71s.79-.26.81-.52Z"/><path d="M80.55,15.25c.12-.23.16-.42.09-.42a1.45,1.45,0,0,0-.62.32l-.6.61c-.17.19-.23.44-.13.55s.58.15.7-.08Z"/><path d="M45.38,60.14c.07-.23-.14-.41-.46-.41l-.9.05c-.32,0-.36.16-.1.34l.68.46C44.87,60.74,45.32,60.37,45.38,60.14Z"/><path d="M34.5,23.62a3.25,3.25,0,0,0-.58.3,1,1,0,0,0,.23.6l.64.93a.84.84,0,0,0,.83.31c.27-.08.9-.61.8-.9L36,23.72a.66.66,0,0,0-.79-.35Z"/><path d="M48,80.92a.78.78,0,0,0-.67-.19l-1.27.15c-.29,0-.47.18-.41.31a1.11,1.11,0,0,0,.8.42l1.23-.15A.42.42,0,0,0,48,80.92Z"/><path d="M64.71,31.39c.09-.26,0-.48-.12-.47a1.45,1.45,0,0,0-.81.32c-.12.18-.32.81-.16.93s.72.18.81-.08Z"/><path d="M61.28,23.46c.1-.1.09-.41,0-.7L61,22.13c-.11-.29-.29-.51-.4-.49a.74.74,0,0,0-.38.66l.08,1c.05.3.16.55.25.55A2.46,2.46,0,0,0,61.28,23.46Z"/><path d="M57.64,46.65c-.24.16-.38.38-.31.49a.44.44,0,0,0,.62,0l.93-1,.34-.38h0s-.28.15-.52.3Z"/><path d="M92.8,32.6c-.14-.08-.35,0-.47.29l-.46.87c-.11.24-.12.5,0,.57a.57.57,0,0,0,.64-.18l.52-.8A.71.71,0,0,0,92.8,32.6Z"/><path d="M95,21.24a3.14,3.14,0,0,0-.51,0,4.33,4.33,0,0,0,0,.55l0,.57a.83.83,0,0,0,.56.64l1.31.32a.41.41,0,0,0,.52-.4v-.8a.68.68,0,0,0-.53-.6Z"/><path d="M63.61,36c0-.27-.15-.37-.38-.22l-.8.59a.28.28,0,0,0,0,.51l.53.24a.38.38,0,0,0,.51-.35Z"/><path d="M1.9,24.05c.2.1.38-.06.41-.35l.19-1.58c0-.29,0-.5-.19-.46a1.38,1.38,0,0,0-.62.66l-.28.82C1.33,23.42,1.71,24,1.9,24.05Z"/><path d="M6.15,30.14a1.43,1.43,0,0,0-.7-.13c-.27,0-1,.11-1.07.21a2.86,2.86,0,0,0-.07.56.46.46,0,0,0,.53.21l1.23-.4A.26.26,0,0,0,6.15,30.14Z"/><path d="M95.14,10.85c.13-.08.22-.18.21-.22a.77.77,0,0,0-.24-.25,1.48,1.48,0,0,0-.64-.17l-.59.16a.38.38,0,0,0-.25.37l.13.64a.21.21,0,0,0,.32.11Z"/><path d="M73.33,9.12a.59.59,0,0,0-.2.68c.11.2.53.73.72.71s.63-.36.57-.64L74.24,9a.29.29,0,0,0-.51-.16Z"/><path d="M3.81,13.66c-.26,0-.28.15-.06.28l.91.47c.24.11.45,0,.47-.17s-.16-.75-.41-.72Z"/><path d="M19.5,39.2l.18,0a.91.91,0,0,0,.43-.58l.33-1.71a2.26,2.26,0,0,0,.08-.54,1.5,1.5,0,0,0-.24.49l-.65,1.83A2.09,2.09,0,0,0,19.5,39.2Z"/><path d="M45.94,4a.37.37,0,0,0,.51-.3l.34-1.64c.05-.26,0-.5-.06-.53a.62.62,0,0,0-.56.29l-.76,1.34C45.29,3.39,45.71,3.92,45.94,4Z"/><path d="M32.9,32.51c.13,0,.27-.18.32-.49l.3-1.65c0-.31,0-.59,0-.62s-.33.16-.41.47l-.47,1.55A.76.76,0,0,0,32.9,32.51Z"/><path d="M20.17,18.73c.1,0,.32-.12.49-.35l.34-.44c.19-.23.31-.45.27-.49s-.3,0-.5.23l-.56.53C20,18.43,20.08,18.69,20.17,18.73Z"/><path d="M40,11.82c.2,0,.39-.22.44-.49l.13-.89a3.8,3.8,0,0,0,0-.51,3.37,3.37,0,0,0-.48.22l-.59.27a.55.55,0,0,0-.36.58C39.23,11.2,39.83,11.82,40,11.82Z"/><path d="M25.31,6.5c0-.12-.22-.21-.44-.18s-.51.19-.3.28S25.34,6.63,25.31,6.5Z"/><path d="M48.25,2.51c.27-.08.45-.28.4-.44a3.86,3.86,0,0,0-.29-.65,1.14,1.14,0,0,0-.56.06l-2.59.72c-.27.08-.39.28-.27.45s.72.56,1,.49Z"/><path d="M31.46,56.1a.57.57,0,0,0,.71-.13l.6-.64c.19-.22.13-.45-.13-.51s-1.07-.1-1.22.07A1.54,1.54,0,0,0,31.46,56.1Z"/><path d="M24.66,20.94c.07,0,.19-.21.27-.47l.2-.66c.07-.27.05-.51,0-.53a1.62,1.62,0,0,0-.42,0,1,1,0,0,0-.16.55l-.05.62C24.45,20.69,24.6,20.94,24.66,20.94Z"/><path d="M44.43,63.42a3,3,0,0,0,.22-.45.58.58,0,0,0-.14-.49,3,3,0,0,0-.71-.28.61.61,0,0,0-.4.32L43,63.86c-.05.17,0,.35.06.39a1.53,1.53,0,0,0,.48.14A1,1,0,0,0,44,64.1Z"/><path d="M26.79,49.18a.71.71,0,0,0,.52-.14c.12-.11.35-.5.26-.61a.66.66,0,0,0-.72,0C26.68,48.57,26.61,49.15,26.79,49.18Z"/><path d="M32.87,93a1.21,1.21,0,0,0-.44.06c-.18,0-.67.33-.68.53l0,.66a.5.5,0,0,0,.33.47l.57.16a.28.28,0,0,0,.36-.27l.08-1.18A.61.61,0,0,0,32.87,93Z"/><path d="M3.89,55.23A3.86,3.86,0,0,0,4,54.64l.13-.83c0-.29-.05-.55-.18-.59a.88.88,0,0,0-.75.36l-.39.9a.53.53,0,0,0,.2.65A3,3,0,0,0,3.89,55.23Z"/><path d="M85.72,22s-.13-.2-.31-.35a2.38,2.38,0,0,0-.83-.45c0,.05-.23.27-.31.39a.35.35,0,0,0,.3.49l.52,0A1,1,0,0,0,85.72,22Z"/><path d="M5.1,7a.23.23,0,0,0,.2,0,1.9,1.9,0,0,0,.2-.66l0-.47c0-.28,0-.29-.15,0l-.31.64C5,6.72,5,7,5.1,7Z"/><path d="M28.21,40.46a.77.77,0,0,0-.17-.83l-.43-.38a.65.65,0,0,0-.81,0c-.21.19-.56,1-.38,1.24l.72.8a.39.39,0,0,0,.64-.09Z"/><path d="M32,87.46l-.3-.12a2.61,2.61,0,0,0-.29.33c-.14.19-.42.77-.32.82a1.9,1.9,0,0,0,.72.12c.19,0,.69-.18.74-.3s.07-.5-.07-.58Z"/><path d="M11.14,24.16a1.53,1.53,0,0,0,.59.1c.24,0,.94-.21,1-.52l.22-1.27a.43.43,0,0,0-.48-.52l-.76,0a.7.7,0,0,0-.63.59l-.13.84A1.14,1.14,0,0,0,11.14,24.16Z"/><path d="M9.68,75a1.19,1.19,0,0,0-.34-.91A3.22,3.22,0,0,0,8,73.47l-2.43.21a1.11,1.11,0,0,0-.82.53,2.43,2.43,0,0,0-.18,1.49l.74,1a1.15,1.15,0,0,0,.9.42l2.48-.09a.88.88,0,0,0,.68-.26,4.84,4.84,0,0,0,.28-1.06Z"/><path d="M34,70.71a1.62,1.62,0,0,0,.12.55,1.8,1.8,0,0,0,.61-.17l1.65-.87c.26-.12.24-.3,0-.38l-1.87-.52a.4.4,0,0,0-.5.41Z"/><path d="M19,4.22a1.89,1.89,0,0,0-.78-.29,1.29,1.29,0,0,0-.87.43c-.13.25-.22,1.13,0,1.3l1.26.8c.27.15.55.2.63.12a2.87,2.87,0,0,0,.36-.78A2.92,2.92,0,0,0,19,4.22Z"/></g></mask><clipPath id="clip-path"><rect class="cls-1" x="-182.48" y="-4.91" width="415.9" height="919.64"/></clipPath></defs><g class="cls-2"><path class="cls-3" d="M.28,22c0-.93.16-.93.16-1.86S.25,19.2.25,18.28s.11-.94.11-1.87,0-.93,0-1.85.21-.94.21-1.87-.15-.93-.15-1.86S.46,9.9.46,9,.41,8,.41,7.1s0-.93,0-1.86S.53,4.3.53,3.37A2.83,2.83,0,0,1,.81,1.88a2.88,2.88,0,0,1,1.13-1A2.76,2.76,0,0,1,3.38.42c.93,0,.93-.15,1.86-.15S6.17.46,7.1.46,8,.39,9,.39s.93,0,1.86,0,.93,0,1.86,0,.93-.08,1.86-.08H16.4c.93,0,.93-.07,1.87-.07S19.2.26,20.13.26s.94.22,1.87.22A2.78,2.78,0,0,1,23.43.9a2.88,2.88,0,0,1,1.14,1,2.89,2.89,0,0,1,.29,1.48c0,.93.11.93.11,1.86s-.1.93-.1,1.85S25,8,25,9s.06.93.06,1.86.05.93.05,1.86S25,13.6,25,14.53s0,.93,0,1.86.08.93.08,1.87-.15.93-.15,1.86,0,.94,0,1.87a2.9,2.9,0,0,1-.41,1.49,3,3,0,0,1-1.08,1.11,3,3,0,0,1-1.5.32H20.14c-.93,0-.93.11-1.85.11s-.93-.07-1.87-.07H14.57c-.93,0-.93.06-1.87.06s-.93-.1-1.86-.1-.93.15-1.86.15H7.12c-.94,0-.94-.2-1.87-.2H3.38a3.11,3.11,0,0,1-1.54-.23A3.22,3.22,0,0,1,.75,23.51,3.16,3.16,0,0,1,.28,22ZM6.45,6.44c-.64.63-.13.82-.13,1.72s.18.9.18,1.8-.1.91-.1,1.81,0,.9,0,1.8-.21.91-.21,1.81.15.9.15,1.81-.71,1.22-.07,1.86.95,0,1.85,0H10c.9,0,.9.13,1.8.13s.9-.11,1.8-.11.91.09,1.81.09S16.3,19,17.2,19s1.1.52,1.74-.11.16-.83.16-1.73S19,16.3,19,15.4s.05-.91.05-1.81,0-.9,0-1.8S19,10.88,19,10s0-.9,0-1.81S19.61,7,19,6.4s-.86.08-1.76.08-.9-.22-1.8-.22-.91,0-1.81,0-.9.11-1.8.11-.91-.1-1.81-.1-.92.28-1.8.11S7.09,5.8,6.45,6.44Z"/><path class="cls-3" d="M.24,59.24c0-.93.09-.93.09-1.86s.06-.93.06-1.86,0-.93,0-1.86S.3,52.73.3,51.8s.18-.93.18-1.86S.27,49,.27,48.08s.2-.93.2-1.86,0-.94,0-1.87,0-.93,0-1.87,0-.93,0-1.86a3,3,0,0,1,.21-1.54A3,3,0,0,1,1.84,38a3,3,0,0,1,1.54-.35c.93,0,.93-.09,1.86-.09s.93.15,1.86.15.93-.1,1.86-.1.93,0,1.86,0,.93,0,1.86,0,.93-.06,1.86-.06.93,0,1.86,0,.93.06,1.87.06.93.13,1.86.13.94,0,1.87,0a3.24,3.24,0,0,1,1.57.25,3.26,3.26,0,0,1,1.06,1.21,3.12,3.12,0,0,1,.42,1.52c0,.93-.06.93-.06,1.86s0,.92,0,1.85v1.86c0,.93,0,.93,0,1.86s-.18.93-.18,1.86.13.93.13,1.87,0,.93,0,1.86.05.93.05,1.86.12.94.12,1.87-.21.93-.21,1.87a3.1,3.1,0,0,1-.27,1.53,3.06,3.06,0,0,1-1.13,1.1,2.93,2.93,0,0,1-1.52.21c-.93,0-.93.16-1.86.16s-.93-.1-1.85-.1-.93.17-1.87.17-.92-.06-1.85-.06-.93-.14-1.87-.14-.93.14-1.86.14-.93-.09-1.86-.09-.93,0-1.86,0-.94.13-1.87.13-.94,0-1.87,0a3.13,3.13,0,0,1-1.54-.32,3.17,3.17,0,0,1-1-1.17A3.08,3.08,0,0,1,.24,59.24ZM6.48,43.71c-.64.64-.05.8-.05,1.7s-.06.9-.06,1.8V49c0,.9.09.9.09,1.8s-.19.9-.19,1.81.22.9.22,1.81-.81,1.22-.17,1.86.95,0,1.85,0,.9,0,1.81,0l1.8,0c.9,0,.9-.2,1.8-.2h1.81c.91,0,.91.06,1.81.06s1.09.59,1.73,0,.12-.82.12-1.72-.1-.91-.1-1.81,0-.9,0-1.8,0-.9,0-1.81-.06-.9-.06-1.8,0-.91,0-1.81.72-1.13.08-1.77-.86-.11-1.76-.11-.9.05-1.8.05-.91.17-1.81.17-.9-.11-1.8-.11H10a6.85,6.85,0,0,1-1.81-.06C7.29,43.43,7.12,43.07,6.48,43.71Z"/><path class="cls-3" d="M.28,96.49c0-.94.16-.94.16-1.87S.28,93.7.28,92.77s.12-.93.12-1.86,0-.93,0-1.86-.1-.93-.1-1.86,0-.93,0-1.87.11-.93.11-1.86,0-.93,0-1.86-.1-.94-.1-1.87,0-.93,0-1.87a3.14,3.14,0,0,1,.49-1.5,3,3,0,0,1,1.12-1.07,3,3,0,0,1,1.49-.51c.93,0,.93.2,1.86.2s.93-.19,1.86-.19.93,0,1.86,0,.93-.08,1.86-.08.93.17,1.86.17.93-.09,1.86-.09.93.16,1.86.16.93,0,1.87,0,.93-.16,1.86-.16S21.07,75,22,75a2.83,2.83,0,0,1,1.45.39,2.73,2.73,0,0,1,1.6,2.51c0,.93,0,.93,0,1.86s-.14.93-.14,1.86.1.93.1,1.86.07.93.07,1.86.07.93.07,1.86-.26.93-.26,1.86.18.93.18,1.86-.14.94-.14,1.87.15.93.15,1.87,0,.93,0,1.87a3,3,0,0,1-.58,1.43,3,3,0,0,1-1,1.22,3.2,3.2,0,0,1-1.53.47c-.93,0-.93-.2-1.86-.2s-.93-.07-1.85-.07-.93.19-1.87.19H14.57c-.93,0-.93-.17-1.87-.17s-.93,0-1.86,0-.93.06-1.86.06-.93-.07-1.86-.07-.94.12-1.87.12-.94.08-1.87.08A3,3,0,0,1,1.94,99,3,3,0,0,1,.71,98,3.12,3.12,0,0,1,.28,96.49ZM6.45,80.93c-.64.64-.13.82-.13,1.72s.16.91.16,1.81-.12.9-.12,1.8,0,.9,0,1.81.1.9.1,1.8,0,.91,0,1.81-.75,1.15-.11,1.79.87,0,1.77,0,.9-.1,1.81-.1.9,0,1.8,0,.9.1,1.8.1.91,0,1.81,0,.91-.1,1.81-.1,1.25.8,1.89.16-.16-1-.16-1.88,0-.9,0-1.8-.08-.9-.08-1.81.17-.9.17-1.8-.09-.9-.09-1.81.16-.9.16-1.81.58-1.22-.06-1.86-.95.15-1.85.15-.9-.19-1.8-.19H13.6c-.9,0-.9.11-1.8.11s-.91,0-1.81,0a6.52,6.52,0,0,1-1.82,0C7.26,80.72,7.09,80.29,6.45,80.93Z"/><path class="cls-3" d="M18.94,40.62c0-.94-.05-.94-.05-1.87s.25-.92.25-1.85S19,36,19,35s.11-.93.11-1.86-.25-.93-.25-1.86,0-.93,0-1.87.14-.93.14-1.86-.15-.93-.15-1.86.12-.94.12-1.87S19,22.93,19,22a2.88,2.88,0,0,1,.59-1.42,3,3,0,0,1,.92-1.24A3.06,3.06,0,0,1,22,19c.93,0,.93.09,1.86.09s.93-.22,1.86-.22.93.11,1.86.11h1.86c.93,0,.93.12,1.86.12h1.86c.93,0,.93-.16,1.86-.16s.94-.1,1.87-.1.93.25,1.87.25.93,0,1.87,0a3.13,3.13,0,0,1,1.54.18,3,3,0,0,1,.92,1.26A2.91,2.91,0,0,1,43.7,22c0,.93-.07.93-.07,1.86s.06.93.06,1.86,0,.93,0,1.86,0,.93,0,1.86-.06.93-.06,1.86-.05.93-.05,1.86.08.93.08,1.86-.12.94-.12,1.87,0,.93,0,1.87,0,.93,0,1.87a2.85,2.85,0,0,1-.46,1.43,2.92,2.92,0,0,1-1,1.1,3.12,3.12,0,0,1-1.46.59c-.93,0-.93-.06-1.86-.06H36.91c-.93,0-.93-.18-1.86-.18s-.93,0-1.86,0H31.33c-.93,0-.93.19-1.87.19s-.93,0-1.86,0-.93-.22-1.86-.22-.94,0-1.87,0-.93.19-1.87.19a3,3,0,0,1-1.43-.62,2.91,2.91,0,0,1-1.14-1A3.06,3.06,0,0,1,18.94,40.62ZM25,25c-.64.64.08.85.08,1.75s-.25.91-.25,1.81.12.9.12,1.8-.12.9-.12,1.81.25.9.25,1.8,0,.91,0,1.81S24.33,37,25,37.64s.92-.14,1.83-.14.9.12,1.8.12.9-.06,1.8-.06.91.21,1.81.21.9-.23,1.8-.23.91.09,1.81.09,1.24.7,1.88.06-.19-1-.19-1.87.1-.9.1-1.8,0-.9,0-1.81.13-.9.13-1.8V28.6c0-.9-.16-.9-.16-1.81s.58-1.07-.06-1.71-.8-.2-1.7-.2-.9,0-1.8,0-.9.24-1.81.24-.9-.25-1.8-.25-.9.23-1.81.23A6.1,6.1,0,0,1,26.8,25C25.88,24.81,25.68,24.39,25,25Z"/><path class="cls-3" d="M19,77.86c0-.93-.09-.93-.09-1.86s.19-.93.19-1.85S19,73.21,19,72.28s-.07-.93-.07-1.85.24-.94.24-1.87S19,67.63,19,66.7s.1-.93.1-1.86S19,63.91,19,63s.06-.93.06-1.86-.16-.94-.16-1.87a3,3,0,0,1,.57-1.44,2.89,2.89,0,0,1,1-1.15A3.07,3.07,0,0,1,22,56.19c.93,0,.93.09,1.86.09s.93-.06,1.86-.06.93,0,1.86,0,.93-.09,1.86-.09.93-.05,1.86-.05.93.19,1.86.19.93-.09,1.86-.09.94.06,1.87.06.93,0,1.87,0,.93-.09,1.87-.09a3,3,0,0,1,1.45.51,2.87,2.87,0,0,1,1.08,1.05,2.78,2.78,0,0,1,.35,1.47c0,.93,0,.93,0,1.86s.23.93.23,1.85-.15.94-.15,1.87-.08.93-.08,1.86,0,.93,0,1.86-.09.93-.09,1.86.15.93.15,1.86,0,.93,0,1.87,0,.93,0,1.86,0,.94,0,1.87a3,3,0,0,1-.44,1.49,2.88,2.88,0,0,1-1.12,1,2.82,2.82,0,0,1-1.45.33c-.93,0-.93.21-1.86.21s-.93-.13-1.86-.13-.93.09-1.86.09-.93,0-1.86,0-.93.15-1.86.15-.93-.24-1.87-.24-.93,0-1.86,0-.93.08-1.86.08-.94-.07-1.87-.07-.93.06-1.87.06a2.78,2.78,0,0,1-1.44-.45,3,3,0,0,1-1.19-1A3.06,3.06,0,0,1,19,77.86ZM25,62.21c-.64.63.09.92.09,1.82s-.19.9-.19,1.8.18.91.18,1.81.08.9.08,1.8-.24.91-.24,1.81.1.91.1,1.81-.71,1.24-.07,1.88,1,0,1.88,0,.9.06,1.8.06.9-.16,1.8-.16.91.19,1.81.19.9-.11,1.8-.11.91-.05,1.81-.05,1.19.71,1.83.07,0-.92,0-1.82,0-.9,0-1.8-.09-.91-.09-1.81-.05-.9-.05-1.8.19-.91.19-1.81-.09-.9-.09-1.81.69-1.19,0-1.83-.93,0-1.83,0-.9.08-1.8.08-.9-.12-1.81-.12-.9,0-1.8,0-.9-.05-1.81-.05-.9.22-1.79,0S25.61,61.57,25,62.21Z"/><path class="cls-3" d="M37.49,22c0-.93.24-.93.24-1.86s-.15-.93-.15-1.85.2-.94.2-1.87,0-.93,0-1.85-.12-.94-.12-1.87,0-.93,0-1.86S37.58,9.9,37.58,9s.05-.93.05-1.87.08-.93.08-1.86-.14-.94-.14-1.87A3,3,0,0,1,38,1.85a3.12,3.12,0,0,1,1.14-1A3,3,0,0,1,40.63.41c.93,0,.93-.17,1.86-.17s.92.11,1.85.11S45.27.27,46.2.27s.93.17,1.86.17S49,.35,49.92.35s.94-.12,1.87-.12.93.08,1.86.08.93,0,1.86,0,.94,0,1.87,0,.94.06,1.87.06a3.1,3.1,0,0,1,1.53.27A3.22,3.22,0,0,1,62,1.81a3.09,3.09,0,0,1,.26,1.56c0,.93-.06.93-.06,1.86s.1.93.1,1.85.06.94.06,1.87-.16.93-.16,1.86.17.93.17,1.86-.19.93-.19,1.86.1.93.1,1.86.09.93.09,1.87,0,.93,0,1.86-.11.94-.11,1.87a2.82,2.82,0,0,1-.46,1.43,2.69,2.69,0,0,1-1,1,2.74,2.74,0,0,1-1.43.44c-.93,0-.93,0-1.86,0s-.93.06-1.86.06-.93-.06-1.86-.06-.93,0-1.86,0-.93.09-1.86.09-.93-.19-1.86-.19-.93,0-1.86,0-.94.24-1.87.24S43.43,25,42.49,25s-.93-.1-1.86-.1a3.19,3.19,0,0,1-1.56-.24,3.06,3.06,0,0,1-1-1.21A3.1,3.1,0,0,1,37.49,22ZM43.72,6.46c-.64.64-.2.8-.2,1.7s.15.9.15,1.8-.2.91-.2,1.81,0,.9,0,1.8.12.91.12,1.81,0,.9,0,1.81-.59,1.13,0,1.77.86,0,1.76,0,.9.07,1.8.07.9-.13,1.81-.13h1.8c.9,0,.9.08,1.81.08h1.81c.9,0,1.07.5,1.71-.14s.07-.8.07-1.7-.08-.9-.08-1.8.17-.91.17-1.81-.09-.9-.09-1.8-.12-.91-.12-1.81.08-.9.08-1.81.69-1.15.05-1.79-.88,0-1.78,0-.91-.06-1.81-.06-.9.14-1.8.14-.9.07-1.81.07-.9-.16-1.8-.16a6.76,6.76,0,0,1-1.8-.06C44.55,6.1,44.36,5.82,43.72,6.46Z"/><path class="cls-3" d="M74.86,22c0-.93,0-.93,0-1.86s.08-.93.08-1.85,0-.94,0-1.87-.14-.93-.14-1.85.26-.94.26-1.87-.2-.93-.2-1.86S74.75,9.9,74.75,9s.18-.93.18-1.87-.19-.93-.19-1.86,0-.94,0-1.87a3.08,3.08,0,0,1,.59-1.46,3.07,3.07,0,0,1,1-1.2A3.13,3.13,0,0,1,77.87.23c.93,0,.93,0,1.86,0s.93,0,1.86,0,.93,0,1.86,0,.93.12,1.86.12h1.86c.93,0,.93,0,1.86,0S90,.4,90.89.4s.94.12,1.87.12.93-.07,1.87-.07S95.56.29,96.5.29A3,3,0,0,1,97.92.9a2.84,2.84,0,0,1,1.16,1,2.83,2.83,0,0,1,.3,1.49c0,.93,0,.93,0,1.86s0,.93,0,1.85.1.94.1,1.87.15.93.15,1.86v1.86c0,.93,0,.93,0,1.86s-.14.93-.14,1.86.07.93.07,1.87-.05.93-.05,1.86.08.94.08,1.87A2.94,2.94,0,0,1,99,23.46a2.94,2.94,0,0,1-1,1.15,3.19,3.19,0,0,1-1.51.5c-.93,0-.93,0-1.86,0s-.93-.26-1.86-.26-.93.22-1.86.22-.93-.12-1.86-.12-.93-.06-1.86-.06-.93.17-1.87.17-.93.09-1.86.09-.93,0-1.86,0-.94,0-1.87,0-.93.05-1.87.05a3.16,3.16,0,0,1-1.49-.54,3.22,3.22,0,0,1-1.12-1.08A3.06,3.06,0,0,1,74.86,22Zm6-15.62c-.64.64,0,.89,0,1.79s-.07.9-.07,1.8,0,.91,0,1.81.13.9.13,1.8-.26.91-.26,1.81.21.9.21,1.81-.62,1.08,0,1.72.81.14,1.72.14.9-.19,1.8-.19.9,0,1.8,0,.91.2,1.81.2.9-.16,1.8-.16.91-.07,1.81-.07,1.09.7,1.73.07,0-.82,0-1.72,0-.9,0-1.8.13-.91.13-1.81,0-.9,0-1.8,0-.91,0-1.81-.09-.9-.09-1.81.71-1.27.07-1.91-1,0-1.9,0-.9.16-1.8.16-.9-.23-1.81-.23-.9.13-1.8.13-.9-.09-1.81-.09-.91.22-1.79,0S81.52,5.73,80.88,6.37Z"/><path class="cls-3" d="M56.32,40.62c0-.94-.12-.94-.12-1.87s0-.92,0-1.85.14-.93.14-1.86,0-.93,0-1.86,0-.93,0-1.86-.18-.93-.18-1.87,0-.93,0-1.86,0-.93,0-1.86.06-.94.06-1.87.07-.93.07-1.87a2.87,2.87,0,0,1,.43-1.47,3,3,0,0,1,1-1.17A3,3,0,0,1,59.25,19c.93,0,.93,0,1.86,0s.93.06,1.86.06S63.9,19,64.83,19s.93.08,1.86.08.93-.15,1.86-.15.93,0,1.86,0,.93.09,1.86.09h1.87c.93,0,.93.07,1.86.07s.94-.11,1.87-.11a3,3,0,0,1,1.44.56,3,3,0,0,1,1.21,1A3,3,0,0,1,80.84,22c0,.93,0,.93,0,1.86s0,.93,0,1.86,0,.93,0,1.86-.18.93-.18,1.86.2.93.2,1.86-.07.93-.07,1.86-.13.93-.13,1.86.06.94.06,1.87,0,.93,0,1.87,0,.93,0,1.87a2.88,2.88,0,0,1-.49,1.43,2.79,2.79,0,0,1-1.06,1,2.75,2.75,0,0,1-1.43.48c-.93,0-.93-.09-1.86-.09s-.93,0-1.85,0-.93,0-1.87,0-.92,0-1.85,0-.93.23-1.87.23-.93-.13-1.86-.13-.93-.12-1.86-.12-.93.25-1.86.25-.94-.2-1.87-.2-.94,0-1.87,0a3.16,3.16,0,0,1-1.55-.29,3.42,3.42,0,0,1-1.14-1.13A3.17,3.17,0,0,1,56.32,40.62ZM62.2,24.94c-.64.64.09.94.09,1.84s0,.91,0,1.81-.14.9-.14,1.8,0,.9,0,1.81,0,.9,0,1.8.18.91.18,1.81-.64,1.11,0,1.75.84,0,1.74,0,.9.06,1.81.06.9.07,1.8.07.9,0,1.8,0,.91-.12,1.81-.12.91.09,1.81.09,1.17.62,1.82,0,.06-.91.06-1.81-.09-.9-.09-1.8.08-.9.08-1.81-.15-.9-.15-1.8,0-.9,0-1.81.09-.9.09-1.81.64-1.15,0-1.79-.88-.06-1.78-.06-.9.11-1.8.11-.91-.18-1.81-.18-.9.18-1.8.18S66.76,25,65.86,25s-.93.25-1.81.05S62.84,24.3,62.2,24.94Z"/></g><g class="cls-4"><path class="cls-5" d="M-472.65,891.82c62.08,7.34,124.7-6.91,184.32-25.69,37.24-11.73,74.29-25.45,106.93-46.87C-145,795.36-115,762.47-77.65,740c66.31-39.83,151.92-44.48,210.13-95.41,42.5-37.18,63.81-97.1,54.32-152.76-13.67-80.24-83.47-139-155.5-176.86-41.77-22-86.43-39.91-122.42-70.45-64.13-54.41-95-144-167.7-186.41C-298.5,35-345.61,29.22-391.23,23.91c-47.06-5.47-94.92-10.93-141.58-2.72-34.46,6.06-67.22,19.43-98.77,34.57-30,14.4-60.25,31.43-79.38,58.66-11.44,16.28-18.26,35.42-22.44,54.87C-762,302.22-671.56,437.4-692.32,571.78c-4.78,30.92-15.37,60.73-19.75,91.71s-1.67,64.89,17.4,89.69c16.26,21.15,38.65,26.25,59.87,39.69,16.68,10.56,25.57,31.53,40.66,45.55C-561.18,869-517,886.59-472.65,891.82Z"/></g></svg>