<svg id="mockup" xmlns="http://www.w3.org/2000/svg" xmlns:xlink="http://www.w3.org/1999/xlink" viewBox="0 0 674.12 877.31"><defs><style>.cls-1,.cls-2{fill:none;}.cls-2{stroke:#fff;stroke-miterlimit:10;stroke-width:0.5px;}.cls-3{fill:#fff;}.cls-4{clip-path:url(#clip-path);}.cls-5{fill:#79aeaa;}.cls-6{clip-path:url(#clip-path-2);}.cls-7{opacity:0.15;fill:url(#Nueva_muestra_de_motivo_2);}</style><clipPath id="clip-path"><rect class="cls-1" x="-43.83" y="-20.08" width="717.92" height="919.64" transform="translate(630.26 879.48) rotate(-180)"/></clipPath><clipPath id="clip-path-2"><rect class="cls-1" x="45.84" y="-20.08" width="628.19" height="919.64" transform="translate(719.87 879.48) rotate(-180)"/></clipPath><pattern id="Nueva_muestra_de_motivo_2" data-name="Nueva muestra de motivo 2" width="36.96" height="21.9" patternTransform="translate(33.68 9.52)" patternUnits="userSpaceOnUse" viewBox="0 0 36.96 21.9"><rect class="cls-1" width="36.96" height="21.9"/><polygon class="cls-2" points="43.14 11.01 30.78 11.01 24.59 21.9 30.78 32.78 43.14 32.78 49.33 21.9 43.14 11.01"/><path class="cls-3" d="M30.78,11c1.16,1.74,2.26,3.52,3.34,5.3.55.89,1.06,1.8,1.59,2.7l1.58,2.7h-.66L38.21,19c.53-.9,1-1.82,1.59-2.7,1.08-1.79,2.18-3.56,3.34-5.3-.89,1.89-1.86,3.74-2.84,5.58-.47.93-1,1.84-1.5,2.75l-1.51,2.74-.33.59-.33-.59-1.51-2.74c-.5-.91-1-1.82-1.5-2.75C32.64,14.75,31.67,12.9,30.78,11Z"/><path class="cls-3" d="M30.78,32.79c.89-1.9,1.86-3.75,2.84-5.59.47-.93,1-1.83,1.5-2.75l1.51-2.74.33-.59.33.59,1.51,2.74c.5.92,1,1.82,1.5,2.75,1,1.84,2,3.69,2.84,5.59-1.16-1.74-2.26-3.52-3.34-5.31-.55-.88-1.06-1.79-1.59-2.69l-1.58-2.71h.66l-1.58,2.71c-.53.9-1,1.81-1.59,2.69C33,29.27,31.94,31.05,30.78,32.79Z"/><path class="cls-3" d="M49.33,21.9c-2.06.15-4.13.22-6.19.28s-4.12.08-6.18.09-4.12,0-6.18-.09-4.13-.13-6.19-.28c2.06-.16,4.13-.23,6.19-.29s4.12-.08,6.18-.09,4.12,0,6.18.09S47.27,21.74,49.33,21.9Z"/><path class="cls-3" d="M37,21.9s-3.06-4.11,0-7.16C37,14.74,39.7,17.07,37,21.9Z"/><path class="cls-3" d="M37,21.9s-5.1.37-6-3.85C30.92,18.05,34.36,17,37,21.9Z"/><polygon class="cls-2" points="24.66 21.96 12.3 21.96 6.11 32.84 12.3 43.73 24.66 43.73 30.85 32.84 24.66 21.96"/><polygon class="cls-2" points="6.18 11.01 -6.18 11.01 -12.37 21.9 -6.18 32.78 6.18 32.78 12.37 21.9 6.18 11.01"/><path class="cls-3" d="M-6.18,11c1.16,1.74,2.26,3.52,3.34,5.3.55.89,1.06,1.8,1.59,2.7l1.58,2.7H-.33L1.25,19c.53-.9,1-1.82,1.59-2.7C3.92,14.52,5,12.75,6.18,11c-.89,1.89-1.86,3.74-2.84,5.58-.47.93-1,1.84-1.5,2.75L.33,22.08,0,22.67l-.33-.59-1.51-2.74c-.5-.91-1-1.82-1.5-2.75C-4.32,14.75-5.29,12.9-6.18,11Z"/><path class="cls-3" d="M-6.18,32.79c.89-1.9,1.86-3.75,2.84-5.59.47-.93,1-1.83,1.5-2.75l1.51-2.74L0,21.12l.33.59,1.51,2.74c.5.92,1,1.82,1.5,2.75,1,1.84,2,3.69,2.84,5.59C5,31.05,3.92,29.27,2.84,27.48c-.55-.88-1.06-1.79-1.59-2.69L-.33,22.08H.33l-1.58,2.71c-.53.9-1,1.81-1.59,2.69C-3.92,29.27-5,31.05-6.18,32.79Z"/><path class="cls-3" d="M12.37,21.9c-2.06.15-4.13.22-6.19.28s-4.12.08-6.18.09-4.12,0-6.18-.09-4.13-.13-6.19-.28c2.06-.16,4.13-.23,6.19-.29s4.12-.08,6.18-.09,4.12,0,6.18.09S10.31,21.74,12.37,21.9Z"/><path class="cls-3" d="M0,21.9s-3.06-4.11,0-7.16C0,14.74,2.74,17.07,0,21.9Z"/><path class="cls-3" d="M0,21.9s2.25-4.6,6.37-3.28C6.37,18.62,5.55,22.13,0,21.9Z"/><path class="cls-3" d="M0,21.9s5.09-.5,6.13,3.7C6.13,25.6,2.71,26.74,0,21.9Z"/><polygon class="cls-2" points="43.14 -10.89 30.78 -10.89 24.59 0 30.78 10.89 43.14 10.89 49.33 0 43.14 -10.89"/><path class="cls-3" d="M30.78-10.89c1.16,1.74,2.26,3.52,3.34,5.3.55.89,1.06,1.8,1.59,2.7l1.58,2.7h-.66l1.58-2.7c.53-.9,1-1.81,1.59-2.7,1.08-1.78,2.18-3.56,3.34-5.3C42.25-9,41.28-7.15,40.3-5.3c-.47.93-1,1.83-1.5,2.75L37.29.18,37,.77,36.63.18,35.12-2.55c-.5-.92-1-1.82-1.5-2.75C32.64-7.15,31.67-9,30.78-10.89Z"/><path class="cls-3" d="M30.78,10.89C31.67,9,32.64,7.15,33.62,5.3c.47-.93,1-1.83,1.5-2.75L36.63-.18,37-.77l.33.59L38.8,2.55c.5.92,1,1.82,1.5,2.75,1,1.85,2,3.7,2.84,5.59C42,9.15,40.88,7.37,39.8,5.59c-.55-.89-1.06-1.8-1.59-2.7L36.63.18h.66L35.71,2.89c-.53.9-1,1.81-1.59,2.7C33,7.37,31.94,9.15,30.78,10.89Z"/><path class="cls-3" d="M49.33,0c-2.06.15-4.13.23-6.19.29S39,.37,37,.37s-4.12,0-6.18-.08S26.65.16,24.59,0c2.06-.16,4.13-.23,6.19-.29S34.9-.37,37-.37s4.12,0,6.18.08S47.27-.15,49.33,0Z"/><path class="cls-3" d="M37,0s3,4.14-.09,7.16C36.87,7.16,34.16,4.8,37,0Z"/><path class="cls-3" d="M37,0s-2.07,4.68-6.24,3.52C30.72,3.52,31.41,0,37,0Z"/><path class="cls-3" d="M37,0s-5.1.38-6-3.84C30.92-3.84,34.36-4.91,37,0Z"/><polygon class="cls-2" points="24.66 0.06 12.3 0.06 6.11 10.95 12.3 21.84 24.66 21.84 30.85 10.95 24.66 0.06"/><path class="cls-3" d="M12.3.06c1.16,1.74,2.26,3.52,3.34,5.3.55.89,1.06,1.8,1.59,2.7l1.58,2.7h-.66l1.58-2.7c.53-.9,1-1.81,1.59-2.7C22.4,3.58,23.5,1.8,24.66.06,23.77,2,22.8,3.8,21.82,5.65c-.47.93-1,1.83-1.5,2.74l-1.51,2.74-.33.59-.33-.59L16.64,8.39c-.5-.91-1-1.81-1.5-2.74C14.16,3.8,13.19,2,12.3.06Z"/><path class="cls-3" d="M12.3,21.84c.89-1.89,1.86-3.74,2.84-5.59.47-.93,1-1.83,1.5-2.75l1.51-2.74.33-.58.33.58,1.51,2.74c.5.92,1,1.82,1.5,2.75,1,1.84,1.95,3.7,2.84,5.59-1.16-1.74-2.26-3.52-3.34-5.31-.55-.88-1.06-1.79-1.59-2.69l-1.58-2.71h.66l-1.58,2.71c-.53.9-1,1.81-1.59,2.69C14.56,18.32,13.46,20.1,12.3,21.84Z"/><path class="cls-3" d="M30.85,11c-2.06.15-4.13.23-6.19.29s-4.12.07-6.18.08-4.12,0-6.18-.08S8.17,11.1,6.11,11c2.06-.16,4.13-.23,6.19-.29s4.12-.08,6.18-.09,4.12,0,6.18.09S28.79,10.79,30.85,11Z"/><path class="cls-3" d="M18.48,11s-3.06-4.1,0-7.16C18.48,3.79,21.22,6.12,18.48,11Z"/><path class="cls-3" d="M18.48,11s2.25-4.6,6.37-3.28C24.85,7.67,24,11.18,18.48,11Z"/><path class="cls-3" d="M18.48,11s5.09-.5,6.13,3.7C24.61,14.65,21.19,15.79,18.48,11Z"/><path class="cls-3" d="M18.48,11s3,4.14-.09,7.16C18.39,18.11,15.68,15.74,18.48,11Z"/><path class="cls-3" d="M18.48,11s-2.07,4.68-6.24,3.51C12.24,14.46,12.93,10.93,18.48,11Z"/><path class="cls-3" d="M18.48,11s-5.1.37-6-3.84C12.44,7.11,15.88,6,18.48,11Z"/><polygon class="cls-2" points="6.18 -10.89 -6.18 -10.89 -12.37 0 -6.18 10.89 6.18 10.89 12.37 0 6.18 -10.89"/><path class="cls-3" d="M-6.18-10.89C-5-9.15-3.92-7.37-2.84-5.59c.55.89,1.06,1.8,1.59,2.7L.33-.19H-.33l1.58-2.7c.53-.9,1-1.81,1.59-2.7C3.92-7.37,5-9.15,6.18-10.89,5.29-9,4.32-7.15,3.34-5.3c-.47.93-1,1.83-1.5,2.75L.33.18,0,.77-.33.18-1.84-2.55c-.5-.92-1-1.82-1.5-2.75C-4.32-7.15-5.29-9-6.18-10.89Z"/><path class="cls-3" d="M-6.18,10.89C-5.29,9-4.32,7.15-3.34,5.3c.47-.93,1-1.83,1.5-2.75L-.33-.18,0-.77l.33.59L1.84,2.55c.5.92,1,1.82,1.5,2.75,1,1.85,2,3.7,2.84,5.59C5,9.15,3.92,7.37,2.84,5.59c-.55-.89-1.06-1.8-1.59-2.7L-.33.18H.33L-1.25,2.89c-.53.9-1,1.81-1.59,2.7C-3.92,7.37-5,9.15-6.18,10.89Z"/><path class="cls-3" d="M12.37,0C10.31.15,8.24.23,6.18.29S2.06.37,0,.37-4.12.36-6.18.29-10.31.16-12.37,0c2.06-.16,4.13-.23,6.19-.29S-2.06-.37,0-.37s4.12,0,6.18.08S10.31-.15,12.37,0Z"/><path class="cls-3" d="M0,0S2.25-4.59,6.37-3.27C6.37-3.27,5.55.23,0,0Z"/><path class="cls-3" d="M0,0S5.09-.49,6.13,3.7C6.13,3.7,2.71,4.85,0,0Z"/><path class="cls-3" d="M0,0S3,4.14-.09,7.16C-.09,7.16-2.8,4.8,0,0Z"/><polygon class="cls-2" points="24.66 -21.84 12.3 -21.84 6.11 -10.95 12.3 -0.06 24.66 -0.06 30.85 -10.95 24.66 -21.84"/></pattern></defs><g class="cls-4"><path class="cls-5" d="M662.24,2.83c-62.08-7.34-124.7,6.91-184.32,25.69C440.68,40.25,403.63,54,371,75.4c-36.41,23.89-66.42,56.79-103.75,79.21C200.93,194.44,115.32,199.1,57.11,250,14.61,287.2-6.7,347.13,2.79,402.79c13.67,80.23,83.47,139,155.5,176.85,41.77,22,86.43,39.91,122.42,70.45,64.13,54.42,95,144,167.7,186.42,39.68,23.14,86.79,28.92,132.41,34.23,47.06,5.48,94.92,10.93,141.58,2.72,34.46-6.06,67.22-19.42,98.77-34.57,30-14.4,60.25-31.42,79.38-58.65C912,764,918.81,744.82,923,725.37c28.58-132.94-61.84-268.12-41.08-402.5,4.78-30.91,15.37-60.73,19.75-91.71s1.67-64.88-17.4-89.68c-16.26-21.15-38.65-26.26-59.87-39.7-16.68-10.56-25.57-31.53-40.66-45.54C750.77,25.65,706.55,8.07,662.24,2.83Z"/></g><g class="cls-6"><path class="cls-7" d="M751.91,2.83c-62.08-7.34-124.7,6.91-184.32,25.69C530.35,40.25,493.3,54,460.66,75.4c-36.41,23.89-66.42,56.79-103.75,79.21C290.6,194.44,205,199.1,146.78,250,104.28,287.2,83,347.13,92.46,402.79c13.67,80.23,83.47,139,155.5,176.85,41.77,22,86.43,39.91,122.42,70.45,64.13,54.42,95,144,167.7,186.42,39.68,23.14,86.78,28.92,132.41,34.23,47.06,5.48,94.92,10.93,141.58,2.72,34.46-6.06,67.22-19.42,98.76-34.57,30-14.4,60.26-31.42,79.39-58.65,11.44-16.28,18.26-35.42,22.44-54.87,28.57-132.94-61.84-268.12-41.08-402.5,4.78-30.91,15.37-60.73,19.75-91.71s1.67-64.88-17.4-89.68c-16.26-21.15-38.65-26.26-59.87-39.7-16.68-10.56-25.57-31.53-40.66-45.54C840.44,25.65,796.22,8.07,751.91,2.83Z"/></g></svg>