<svg id="mockup" xmlns="http://www.w3.org/2000/svg" xmlns:xlink="http://www.w3.org/1999/xlink" viewBox="0 0 135 256.95"><defs><style>.cls-1{mask:url(#mask);}.cls-2{fill:#e66446;}.cls-3{filter:url(#luminosity-noclip);}</style><filter id="luminosity-noclip" x="-93.17" y="-49.93" width="345.41" height="364.83" filterUnits="userSpaceOnUse" color-interpolation-filters="sRGB"><feFlood flood-color="#fff" result="bg"/><feBlend in="SourceGraphic" in2="bg"/></filter><mask id="mask" x="-93.17" y="-49.93" width="345.41" height="364.83" maskUnits="userSpaceOnUse"><g class="cls-3"><path d="M41.58,115.22a2.56,2.56,0,0,0,.55.36l.67.38c.33.14.64.19.69.12a3.82,3.82,0,0,0,.32-1l.16-.77a1.2,1.2,0,0,0-.11-1,1,1,0,0,0-1,.16l-.82,1Z"/><path d="M94.31,23.39c0,.28,0,.34.18.14s.43-.83.33-.89S94.35,23.11,94.31,23.39Z"/><path d="M2.27,160.34a.69.69,0,0,0-.62.48c-.06.25.08.88.37.78l2-.71c.29-.09.34-.25.12-.34A10.4,10.4,0,0,0,2.27,160.34Z"/><path d="M13.44,192.49c-.3-.07-.56-.08-.59,0a1,1,0,0,0,.33.65l1.14,1.12c.25.22.48.18.51-.1a3.84,3.84,0,0,0,0-1.15A8.28,8.28,0,0,0,13.44,192.49Z"/><path d="M31.21,123.83a.56.56,0,0,0-.2-.06,1.16,1.16,0,0,0-.23.72l-.08,1.57c0,.39.11.46.31.15l.71-1.16c.18-.33.24-.68.13-.77A7.8,7.8,0,0,0,31.21,123.83Z"/><path d="M32.19,6.2a1.67,1.67,0,0,0,.71.15.91.91,0,0,0,.37-.76L33,3.68c-.07-.35-.36-.5-.62-.34l-2.5,1.39c-.27.15-.26.38,0,.51Z"/><path d="M78.6,21.29c-.3.15-.32.34,0,.43s1,.05,1.1-.17-.19-.71-.49-.56Z"/><path d="M82.88,24.12c.09,0,.19-.09.21-.2s-.13-.41-.31-.38-.63.17-.61.24.13.25.18.26A3.51,3.51,0,0,0,82.88,24.12Z"/><path d="M91.64,60.38a.46.46,0,0,0-.11-.76c-.31-.15-1.19-.37-1.3-.09s-.27,1.09-.11,1.22A2.31,2.31,0,0,0,91.64,60.38Z"/><path d="M37.81,247.91a5.77,5.77,0,0,0,.42.49s.22-.24.32-.64l.54-2c.11-.39,0-.52-.31-.28l-1.07,1C37.45,246.71,37.62,247.66,37.81,247.91Z"/><path d="M70.74,61a.72.72,0,0,0,.7.68c.33,0,1.2-.33,1.15-.48A9.41,9.41,0,0,0,72,60l-.54-.83c-.21-.33-.45-.57-.54-.55a1.11,1.11,0,0,0-.28.85Z"/><path d="M14.16,27.79a.53.53,0,0,0,.06.63l.43.41a.37.37,0,0,0,.54-.1L15.7,28a.54.54,0,0,0-.08-.63L15.25,27a.43.43,0,0,0-.57.1Z"/><path d="M42.2,249.2c-.09.3-.06.56.06.58a.84.84,0,0,0,.64-.29c.11-.19.27-.85.14-.94S42.28,248.9,42.2,249.2Z"/><path d="M4,238.18a6.18,6.18,0,0,0,.06.88s.13.12.18.1a1.89,1.89,0,0,0,.19-.9V237c0-.44-.07-.76-.15-.71a1.81,1.81,0,0,0-.28,1Z"/><path d="M38.84,197c.17,0,.27,0,.25-.06a.51.51,0,0,0-.4-.12C38.55,196.85,38.68,197,38.84,197Z"/><path d="M44.45,208.06c0,.35.16.47.45.26a6,6,0,0,0,.49-.42c.26-.24.28-.54,0-.66S44.49,207.71,44.45,208.06Z"/><path d="M6.57,104.21a2,2,0,0,0,.57.38c.15,0,.5-.19.43-.61l-.24-1.52c-.07-.43-.32-.52-.56-.2a6.25,6.25,0,0,0-.41.64A1.63,1.63,0,0,0,6.57,104.21Z"/><path d="M43,210.76a.82.82,0,0,0-.58.33,2.76,2.76,0,0,0-.46,1.17l.12,1.06c0,.26.12.5.21.52a.71.71,0,0,0,.57-.32l1-2c.1-.23.12-.47,0-.52A3.34,3.34,0,0,0,43,210.76Z"/><path d="M35.2,90.4a.45.45,0,0,0,.6-.09l.8-1c.14-.19.22-.39.18-.46a1.64,1.64,0,0,0-.4-.38c-.13-.08-.64-.16-.8,0l-.82.91a.46.46,0,0,0,0,.61Z"/><path d="M111.61,60.52a.41.41,0,0,0,.62-.08,1.77,1.77,0,0,0,.13-1.41l-.72-.8c-.24-.25-.46-.13-.49.25l-.09.73A2.49,2.49,0,0,0,111.61,60.52Z"/><path d="M71.87,141.67c.3,0,.41-.25.24-.55l-.31-.6a1,1,0,0,0-.68-.55c-.21,0-.79.25-.81.52s.3,1.09.6,1.12Z"/><path d="M129.88,203.39c.26.18.48.23.48.13a2.12,2.12,0,0,0-.37-.85l-.68-.83c-.22-.24-.51-.32-.63-.18s-.17.8.09,1Z"/><path d="M7.12,136.12a.34.34,0,0,0,.32-.26l.09-.38a.39.39,0,0,0-.18-.41l-.93-.4-.24-.08a1,1,0,0,0-.12.27l-.22.77A.25.25,0,0,0,6,136Z"/><path d="M115.23,3.89s.18.26.45.45l.53.43c.27.18.56.21.64.07s0-.63-.27-.72l-.74-.23A.87.87,0,0,0,115.23,3.89Z"/><path d="M43.36,39.16c0,.37.13.63.38.58s.87-.49.78-.84l-.37-1.33c-.09-.36-.2-.65-.25-.64a1.23,1.23,0,0,0-.3.68Z"/><path d="M68.08,241.68c.08.34.21.65.29.67s.4-.17.5-.48.11-1.24-.13-1.26S68,241.33,68.08,241.68Z"/><path d="M78.9,154.88c.26.09.46-.2.46-.64L79.3,153c0-.44-.17-.5-.38-.14l-.52.94C78.22,154.18,78.64,154.79,78.9,154.88Z"/><path d="M132.31,232.67c.31.18.6.25.65.15a1.38,1.38,0,0,0-.29-.93l-1.33-1.55c-.27-.28-.63-.32-.8-.08s-.3,1.15,0,1.33Z"/><path d="M101.82,33.58a4.64,4.64,0,0,0-.6.16c-.29.09-1.09.53-1.11.81s.28,1.08.62,1.08h1.59c.34,0,.47-.33.29-.68l-.33-.71A2,2,0,0,0,101.82,33.58Z"/><path d="M120.37,139.87a5,5,0,0,0-.33-.8,1,1,0,0,0-.68.32l-1.06.88a1.28,1.28,0,0,0-.36,1.14c.1.37.69,1.25,1,1.11l1.3-.58a1,1,0,0,0,.39-1.09Z"/><path d="M95.28,246.23a4.08,4.08,0,0,0,0-.51l-.07-.13a.59.59,0,0,0-.45.09c-.21.11-.81.62-.8.88s.24.93.47.86A2.63,2.63,0,0,0,95.28,246.23Z"/><path d="M55.3,158.53a1.21,1.21,0,0,0,.21-.92l-.16-1.76c-.05-.39-.21-.64-.35-.56a1.64,1.64,0,0,0-.49,1.1l.17,1.71C54.73,158.49,55.15,158.64,55.3,158.53Z"/><path d="M67.44,186.13c.11.05.27,0,.35-.21s.12-.69-.06-.75-.68-.09-.67.1A1.9,1.9,0,0,0,67.44,186.13Z"/><path d="M108.68,73.05s0,0,0,0,0-.07,0,0S108.66,73.05,108.68,73.05Z"/><path d="M111.55,181.55c.3.12.54,0,.54-.17a2.33,2.33,0,0,0-.37-1.12c-.21-.17-.91-.44-1.06-.22s-.2,1,.1,1.12Z"/><path d="M120.55,176.81c.12.14.47.13.8,0l.72-.31c.32-.15.58-.4.56-.56a.88.88,0,0,0-.75-.52l-1.14.12c-.35.06-.63.21-.63.34A3.73,3.73,0,0,0,120.55,176.81Z"/><path d="M123.89,31.42a.85.85,0,0,0,.65.8l2.52.36a.58.58,0,0,0,.69-.3c0-.23-.08-1-.38-1.14l-3.08-1.63c-.31-.14-.53.06-.49.46Z"/><path d="M80.14,208c0,.31.11.55.35.55l1-.06a.64.64,0,0,0,.16-.35,3.9,3.9,0,0,0,0-.95c0-.14-.34-.44-.54-.39A2.84,2.84,0,0,0,80.14,208Z"/><path d="M94.21,171.79c-.17-.33-.42-.52-.55-.43a.72.72,0,0,0,0,.86l1.19,1.28.44.47,0-.07s-.17-.38-.34-.71Z"/><path d="M65.51,175.36c-.13-.08-.45.09-.71.37s-.64,1.4-.35,1.64l2.5,2.11a.6.6,0,0,0,.83,0,1.79,1.79,0,0,0,.13-1.44l-1.45-1.87A7.62,7.62,0,0,0,65.51,175.36Z"/><path d="M110.18,220.3c.09-.19-.06-.48-.33-.64l-1-.64c-.27-.16-.56-.18-.64,0a.93.93,0,0,0,.19.9l.92.71C109.59,220.78,110.08,220.49,110.18,220.3Z"/><path d="M123.08,223.35c0-.38.07-.7.06-.71a4.47,4.47,0,0,0-.63,0l-.65.05a1,1,0,0,0-.72.77l-.37,1.8c-.07.39.14.71.46.72l.91,0a.83.83,0,0,0,.67-.74Z"/><path d="M104.34,75.32c.34,0,.62-.23.63-.45s-.42-.66-.73-.48l-1,.61c-.31.18-.28.34.06.34Z"/><path d="M87.48,238.82c.19.06.23-.16.09-.49l-.2-.47c-.14-.33-.31-.43-.37-.21A1.87,1.87,0,0,0,87.48,238.82Z"/><path d="M109,44.86a.42.42,0,0,0,.15.5c.15.11.6.2.58,0a2.65,2.65,0,0,0-.15-.88A1.13,1.13,0,0,0,109,44.86Z"/><path d="M96.89,25.4l.45.17s0-.29,0-.65a5.72,5.72,0,0,0-.16-1.3c-.07,0-.38.06-.53.33S96.64,25.31,96.89,25.4Z"/><path d="M106.29,180c.3,0,.42-.2.26-.51l-.68-1.1c-.17-.31-.43-.29-.58,0l-.27.73a.53.53,0,0,0,.39.71Z"/><path d="M119.89,94.9c-.12.27.06.52.39.56l1.8.26c.33,0,.56-.07.52-.26a1.78,1.78,0,0,0-.75-.86l-.93-.38C120.6,94.1,120,94.63,119.89,94.9Z"/><path d="M129.12,62.68c.27.15.55.18.63.06a1.85,1.85,0,0,0,.1-.59,1.43,1.43,0,0,0-.59-.22L128,61.75c-.29,0-.32,0-.05.22Z"/><path d="M113,100.76a2.26,2.26,0,0,0,.14-1,4.56,4.56,0,0,0-.24-1.48,2.27,2.27,0,0,0-.63-.08c-.11,0-.32.36-.23.73l.45,1.68A.27.27,0,0,0,113,100.76Z"/><path d="M27.86,7.13a.93.93,0,0,0,1,.39s1.58-.49,2.75-1c.46-.19.82-.36.82-.36a.5.5,0,0,0,.26-.73c-.16-.26-1-.87-1.34-.78L28,5.71a.68.68,0,0,0-.4.81A3.34,3.34,0,0,0,27.86,7.13Z"/><path d="M134.88,223.53c.09.17.21.3.25.28a.93.93,0,0,0,.28-.32,2.52,2.52,0,0,0,.2-.88l-.19-.83a.43.43,0,0,0-.41-.33l-.73.18a.3.3,0,0,0-.13.44Z"/><path d="M117.12,246c-.24-.11-.57.09-.74.46a8.74,8.74,0,0,0-.47,1.25c0,.05.36,0,.67-.26l.82-.6C117.69,246.61,117.36,246.14,117.12,246Z"/><path d="M109.69,72a.35.35,0,0,0-.4-.46c-.28,0-1,.24-.94.47s.33.81.47.84S109.62,72.29,109.69,72Z"/><path d="M131.69,97.53c0-.35-.17-.39-.32-.08l-.54,1.26c-.11.32,0,.61.2.64s.85-.22.82-.57Z"/><path d="M102.69,119.17a.94.94,0,0,0,0,.26,1.1,1.1,0,0,0,.67.58l1.94.47a1.89,1.89,0,0,0,.61.1,1.73,1.73,0,0,0-.56-.32l-2.08-.91A2.58,2.58,0,0,0,102.69,119.17Z"/><path d="M87.19,89.49c.2.17.43,0,.51-.42l.11-.8c.08-.4-.06-.54-.32-.31S87,89.32,87.19,89.49Z"/><path d="M110.28,137.66c0,.18.2.38.56.45l1.86.41c.36.07.68,0,.71-.05s-.18-.46-.53-.58l-1.77-.64A.8.8,0,0,0,110.28,137.66Z"/><path d="M125.93,120.1c-.05.13.13.44.4.68l.49.47c.27.25.52.42.57.37a1,1,0,0,0-.27-.69l-.61-.78C126.27,119.87,126,120,125.93,120.1Z"/><path d="M133.77,147.49a.68.68,0,0,0,.57.6l1,.18a4.06,4.06,0,0,0,.59,0s-.11-.31-.25-.66l-.31-.82c-.13-.35-.43-.58-.66-.5A2.65,2.65,0,0,0,133.77,147.49Z"/><path d="M83.52,249a.77.77,0,0,0,.42.59,3.76,3.76,0,0,0,.88.38,1.29,1.29,0,0,0-.33-.62l-.5-.57C83.76,248.58,83.54,248.84,83.52,249Z"/><path d="M83.48,135.67a1,1,0,0,0,.15,1l.73.83c.25.25.51.17.58-.19s.12-1.48-.08-1.68S83.64,135.41,83.48,135.67Z"/><path d="M123.42,126.3c0,.09.24.25.54.36l.75.28c.3.09.57.07.6,0a3.11,3.11,0,0,0,0-.58,1,1,0,0,0-.62-.22L124,126C123.7,126,123.42,126.21,123.42,126.3Z"/><path d="M92.17,227.8c.24.19.5,0,.56-.36l.19-1.51c.06-.39-.1-.5-.34-.24l-.79.86C91.57,226.84,91.92,227.61,92.17,227.8Z"/><path d="M91.88.14c.16.35.48.57.71.49s.86-.62.87-1l0-2.56a3.25,3.25,0,0,0-.21-1c-.1-.18-.61-.56-.93-.48L90.52-4a.54.54,0,0,0-.26.81Z"/><path d="M7.86,156.35a.67.67,0,0,0,.11,1l1.08.81c.31.21.62,0,.69-.39l.35-2.45c.07-.42.07-.82,0-.87a1,1,0,0,0-.77.32Z"/><path d="M3.36,15.27a.56.56,0,0,0,.33.79l2.3.65c.31.08.55-.18.53-.57l0-.93A1.62,1.62,0,0,0,6,14.11l-1-.69a.61.61,0,0,0-.85.26Z"/><path d="M75.18,153.57a4.65,4.65,0,0,0,.5.3.59.59,0,0,0,.57-.2,5.35,5.35,0,0,0,.31-1c0-.13-.18-.5-.37-.56l-1.52-.56c-.19-.07-.39,0-.44.09a2.55,2.55,0,0,0-.16.66,1.39,1.39,0,0,0,.34.66Z"/><path d="M37.11,192c.18-.32.12-.6-.14-.63a2.48,2.48,0,0,0-1.39.32l-1.12,1.19c-.24.26-.17.49.14.52l1.07.12a1.11,1.11,0,0,0,.9-.55Z"/><path d="M59.64,217.84a.31.31,0,0,0,.08.35.47.47,0,0,0,.48-.22l.07-.2,0-.14c0-.17,0-.31-.1-.31A1.43,1.43,0,0,0,59.64,217.84Z"/><path d="M91.35,129.23a1.14,1.14,0,0,0,.16.72c.12.16.56.48.69.36a1.09,1.09,0,0,0,0-1C92,129.08,91.38,129,91.35,129.23Z"/><path d="M74.36,201.36c.07-.17-.14-.45-.47-.63l-1.9-1a2.07,2.07,0,0,0-.62-.26,2.23,2.23,0,0,0,.51.56l1.63,1.44A.63.63,0,0,0,74.36,201.36Z"/><path d="M41.61,137.62a2,2,0,0,0-.07-.6c0-.25-.37-.93-.59-.94l-.76-.05a.61.61,0,0,0-.53.45l-.19.8a.38.38,0,0,0,.32.49l1.34.11A.64.64,0,0,0,41.61,137.62Z"/><path d="M36,177.56c.24.29.48.41.54.28a2.26,2.26,0,0,0,0-1.07c-.12-.32-.66-1.1-.85-1s-.51.76-.27,1Z"/><path d="M84.48,97.64a5.52,5.52,0,0,0,.66.13l1,.17c.33,0,.63-.07.67-.25a1.3,1.3,0,0,0-.41-1l-1-.54a.53.53,0,0,0-.74.27A4.34,4.34,0,0,0,84.48,97.64Z"/><path d="M48.84,227.82a.5.5,0,0,0-.3-.73l-.62-.17a.7.7,0,0,0-.74.32,8.39,8.39,0,0,0-.37,1,1.11,1.11,0,0,0,.43.48c.23.14,1.07.2,1.23-.12Z"/><path d="M122.26,210.53s.23-.17.4-.42a3.89,3.89,0,0,0,.51-1.15c0-.06-.31-.32-.44-.43s-.54,0-.56.42l0,.72A1.62,1.62,0,0,0,122.26,210.53Z"/><path d="M44.26,11c0,.09.27.1.58,0l.54-.15c.31-.08.31-.15,0-.15A2.66,2.66,0,0,0,44.26,11Z"/><path d="M41.88,6.92a2.92,2.92,0,0,0,0,.78A2.57,2.57,0,0,0,42.29,7l1.47-3a.84.84,0,0,0-.23-1c-.3-.19-1.22-.21-1.27.22Z"/><path d="M11.28,177.77c-.13.4-.06.54.16.32s.76-1,.67-1.11S11.42,177.38,11.28,177.77Z"/><path d="M101.24,131.2a.78.78,0,0,0,1-.25l.44-.59a1,1,0,0,0,0-1.11c-.22-.29-1.15-.78-1.41-.53l-.91,1a.59.59,0,0,0,.11.88Z"/><path d="M108,33.93c-.2.35-.28.68-.19.74a2.76,2.76,0,0,0,.52.25,1.2,1.2,0,0,0,.75-.49l1.08-1.57c.21-.33.29-.72.17-.86a2.58,2.58,0,0,0-.63-.46,1.46,1.46,0,0,0-.59.58Z"/><path d="M3.4,248.9a3.91,3.91,0,0,0,.08-.67l.09-1c0-.37-.1-.68-.26-.7a4.14,4.14,0,0,0-.6,0s.07.33.17.68l.3,1.06A3.07,3.07,0,0,0,3.4,248.9Z"/><path d="M73.8,69.19c0,.23.32.31.65.16l1.64-.65c.33-.15.59-.42.59-.6a5.5,5.5,0,0,0-.1-.7,2,2,0,0,0-.7-.16H74.82a1,1,0,0,0-.79.41A7.25,7.25,0,0,0,73.8,69.19Z"/><path d="M47.87,136.41c.08-.21.14-.39.14-.4a4.05,4.05,0,0,0-.38-.4c-.21-.2-.87-.58-.93-.45a3.21,3.21,0,0,0-.14,1,2.59,2.59,0,0,0,.34,1c.13.07.57.11.66-.09Z"/><path d="M13,199.07c-.21-.3-.47-.5-.58-.43a1.08,1.08,0,0,0-.23.92l.36,1.34c.12.37.45.58.72.47s.85-.72.63-1Z"/><path d="M17,195.32c.12,0,.38-.25.59-.6a9.13,9.13,0,0,0,.83-2c0-.38,0-1.33-.2-1.36a1.33,1.33,0,0,0-1,.59L16.15,194c-.18.38-.22.78-.09.88A4.76,4.76,0,0,0,17,195.32Z"/><path d="M41.24,40.25,41,40.1a3.4,3.4,0,0,0-.13.62c-.06.34,0,.9.13.69S41.36,40.33,41.24,40.25Z"/><path d="M101.62,14.13a.6.6,0,0,0-.62-.55,2.48,2.48,0,0,0-1.06.63,1.55,1.55,0,0,0,.33.92l1.24,1.09c.23.23.39.12.36-.24Z"/><path d="M1.66,97.6c0,.36.1.72.3.78s.85-.16.91-.53l.16-1c0-.36-.11-.64-.33-.62A2.88,2.88,0,0,0,1.66,97.6Z"/><path d="M67.08,11.5a7.47,7.47,0,0,1,.17.92l.58,4.13a2.38,2.38,0,0,0,.14.69.68.68,0,0,0,.21-.23,2.73,2.73,0,0,0,.09-1.15l-.94-4.63c-.07-.38-.17-.62-.22-.52A2.57,2.57,0,0,0,67.08,11.5Z"/><path d="M56.92,7.74a1,1,0,0,0-.1-1.08c-.23-.22-1-.29-1,.15l-.1,2.38c0,.43.13.5.33.14Z"/><path d="M5.49,228.89c-.11,0-.21.15-.23.36a2.44,2.44,0,0,0,.4,1.26l3.45,3.55a.5.5,0,0,0,.78,0,1.9,1.9,0,0,0,0-1.55l-3.5-3.17A2.7,2.7,0,0,0,5.49,228.89Z"/><path d="M84.87,2.35c-.2-.19-.43-.15-.5.08a5.85,5.85,0,0,0-.22,1.39c0,.27.37.63.58.37l.45-.58C85.37,3.31,85.08,2.54,84.87,2.35Z"/><path d="M15.31,175.26a.63.63,0,0,0,.09.88l.69.65c.27.23.56.21.65,0a2.4,2.4,0,0,0,.06-1.35C16.63,175.16,15.53,175,15.31,175.26Z"/><path d="M49.35,190.11c-.15,0-.4.2-.56.51l-.88,1.88a.84.84,0,0,0,.18.92c.24.19,1,.26,1.1-.09l.57-2.47A.73.73,0,0,0,49.35,190.11Z"/><path d="M23.47,145.16a.13.13,0,0,0,0,.05l0,0S23.47,145.14,23.47,145.16Z"/><path d="M70.48,75.14c.18.28.45.23.61-.12l.64-1.54c.15-.35,0-.51-.26-.35l-1,.59C70.23,73.93,70.31,74.86,70.48,75.14Z"/><path d="M119.76,107.65a2.59,2.59,0,0,0-.12.81c0,.33.25,1.3.59,1.36l1.45.31c.35.06.61-.24.59-.67l0-1a.9.9,0,0,0-.66-.88l-1-.17A1.07,1.07,0,0,0,119.76,107.65Z"/><path d="M66.38,52.93a1.16,1.16,0,0,0-.08-.66,2.69,2.69,0,0,0-.63-.63,1.31,1.31,0,0,0-1.06.12l-.6.67c-.21.28-.3.62-.2.77a3.33,3.33,0,0,0,.93.74l.72.3c.29.13.57.13.62,0A11.65,11.65,0,0,0,66.38,52.93Z"/><path d="M9.58,55.59c0-.09,0-.33,0-.53s0-.83,0-.94A1.47,1.47,0,0,0,9,53.41c-.31-.17-1.21-.39-1.27-.09s.09,1.37.39,1.58l.94.66C9.32,55.75,9.58,55.68,9.58,55.59Z"/><path d="M8.28,192.38c-.07.42-.06.79,0,.83a1.08,1.08,0,0,0,.72-.5l1.2-2a.61.61,0,0,0-.23-.89c-.32-.13-1.33-.06-1.39.36Z"/><path d="M80.21,64.47c.2,0,.34-.28.31-.71l-.08-1.17c0-.42-.17-.46-.32-.07l-.33.93A1,1,0,0,0,80.21,64.47Z"/><path d="M62,105.63a1.25,1.25,0,0,0,1-.46,5.13,5.13,0,0,0,.69-1.93l-.24-3.35a1.57,1.57,0,0,0-.6-1.13c-.3-.2-1.4-.49-1.69-.26l-1.18,1a1.84,1.84,0,0,0-.49,1.25l.11,3.43a1.41,1.41,0,0,0,.3.94,4.89,4.89,0,0,0,1.2.37Z"/><path d="M.77,12.23c0-.43-.12-.79-.34-.8s-.84.34-.83.77l0,2.73c0,.44.13.77.3.75a1.11,1.11,0,0,0,.69-.86Z"/><path d="M61.43,4.28c.06.37.29.69.51.71s.88-.15.92-.32a3.22,3.22,0,0,0-.09-1.23l-.61-1.77c-.11-.34-.33-.58-.48-.52a1.14,1.14,0,0,0-.5.91Z"/><path d="M56.82,72.37a.65.65,0,0,0,.85-.38l1.17-2.71a1.61,1.61,0,0,0,.21-.72,1,1,0,0,0-.66.32l-2.24,2.23a.56.56,0,0,0,.06.86Z"/><path d="M124.12,43.06c.11.38.28.38.38,0l.44-2c.07-.39-.12-.69-.41-.66s-1.06.55-1,.93Z"/><path d="M46.79,202.68c0,.25.05.49.15.53a.54.54,0,0,0,.54-.16c.1-.18.17-.78,0-.87S46.81,202.43,46.79,202.68Z"/><path d="M65.37,47.37c-.31,0-.59,0-.62.13a1,1,0,0,0,.48.68l1.56.75c.3.13.54,0,.54-.21a3.33,3.33,0,0,0-.2-1,4.16,4.16,0,0,0-.89-.21Z"/><path d="M10.83,9.1c0-.35-.13-.48-.38-.28l-1,1a.81.81,0,0,0,0,1l.71.93a2.31,2.31,0,0,0,.43.41,5.53,5.53,0,0,0,.11-.68Z"/><path d="M66.89,139.15a1.4,1.4,0,0,0-.62.17,2.79,2.79,0,0,0,.19.84l1,2.27c.14.36.34.34.44,0l.58-2.59a.53.53,0,0,0-.47-.69Z"/><path d="M86.67,70.18a1,1,0,0,0,.28-1l-.47-1.86c-.14-.41-.39-.44-.58-.06l-.67,1.27a1.22,1.22,0,0,0-.06,1.11C85.33,69.86,86.42,70.32,86.67,70.18Z"/><path d="M42.72,8.84c0-.36-.22-.4-.37-.08l-.4.9c-.12.34,0,.66.19.71s.83-.13.77-.49Z"/><path d="M40.14,27.6c0,.35.13.39.26.09s.35-1.18.21-1.21S40.13,27.25,40.14,27.6Z"/><path d="M62.67,73.67a.57.57,0,0,0-.72-.41l-.93.32a.59.59,0,0,0-.3.78l.41,1.18a.45.45,0,0,0,.68.3l.84-.52a.76.76,0,0,0,.28-.88Z"/><path d="M17.12,102.42c.2,0,.32-.39.27-.79s-.3-.93-.45-.58-.48,1.36-.48,1.36A3.24,3.24,0,0,0,17.12,102.42Z"/></g></mask></defs><g class="cls-1"><path class="cls-2" d="M20.73,257.28l.07-1.79.71-1.43-.43-1.48-.23-.85.34-1.47L21,248.8l-.43-1.42.34-1.59-1.12-1.2-.24-1.47-.32-1.48-1.09-1.1-.86-1.17-.4-1.55-1.07-1L14.58,236l-1.3-.7-1.06-1-1.37-.55-1.17-1-1.62.32-1.36-.72H5.22l-.73-.29-1.22.11-1.2.53-1-.11-.25-1.42.37-1.44-.46-1.43-.08-1.44L.38,225.3l.55-1.43-.12-1.44L.7,221l.24-1.43-.17-1.44.29-1.44-.55-1.44.72-1.43-.65-1.44v-1.44l.65-1.44L1,208.06l.14-1.44L1,205.19l.33-1.43-.46-1.43v-1.44L.4,199.46.8,198v-1.43l.51-1.44-.66-1.43.12-1.44-.34-1.44.88-1.44L1.17,188v-1.44l-.35-1.44L1,183.66l-.16-1.44v-1.43l-.25-1.43.63-1.44.14-1.43-.47-1.44-.43-1.43.91-1.43-.14-1.43.12-1.44-.71-1.43.24-1.43L1,165l0-1.43-.39-1.44.76-1.43-.7-1.44.56-1.43-.39-1.44.5-1.44-.41-1.44.31-1.43,0-1.44-.67-1.44-.12-1.44.64-1.44-.43-1.43v-1.44L1.11,142l.21-1.44-.79-1.43.34-1.44L1,136.3l-.12-1.44.5-1.44L1.11,132l-.47-1.44.14-1.44.11-1.44.26-1.44-.27-1.44.38-1.43-.14-1.44,0-1.44,0-1.44,0-1.43v-1.44l-.35-1.44L.53,113.3l.65-1.44-.66-1.44L.62,109l.76-1.44L.71,106.1l-.17-1.44-.11-1.44.48-1.44L1,100.35l.34-1.44,0-1.44L1.16,96,1,94.59l0-1.44L.43,91.71l.38-1.44L.57,88.83l.18-1.44L1.11,86,.84,84.51l.54-1.44-.1-1.44-.4-1.44L.43,78.75l1-1.44L.93,75.87V74.44L1.36,73,1,71.57l.33-1.44-.16-1.44L.4,67.25l.88-1.44L1,64.37.84,62.94.92,61.5l.34-1.44L.52,58.62,1,57.18l.1-1.44.22-1.44L1.2,52.86,1,51.41,1.07,50,.76,48.53l.38-1.44V45.64l.24-1.44-.08-1.44L.93,41.32,1,39.87l.08-1.44L.75,37l.57-1.44L1.13,34.1l-.4-1.44.65-1.45L.45,29.77,1,28.32.79,26.87.6,25.41l2.1.44,1.83-.43.69,0,1.51.51L8.06,25l1.37-.43,1.41-.36,1.46-.37,1.09-1,1.49-.51.6-1.51.94-1.11,1.46-.75L18,17.25,18.77,16l.52-1.36.59-1.32.17-1.46,1.26-1.23.05-1.5-.62-1.53.64-1.45-.49-.84.55-1.48-.65-1.43L20.72.62l1.78.64L23.92.71,25.35.49l1.43.09L28.21.9,29.64.53l1.43.64L32.5,1l1.43.38,1.43-.7,1.43.46L38.22.74l1.43.37,1.43-.5,1.43.4L43.94.6,45.37,1l1.43.36,1.43,0L49.66.66,51.09,1,52.52.6,54,1.28,55.38.79l1.43.39h1.44l1.43.12,1.43-.22L62.54.73,64,1.26l1.42-.7,1.43.84L68.25,1,69.67.49l1.44.64,1.43.31L74,1.13,75.4.47l1.43.6,1.43.22L79.69,1,81.12.61h1.43L84,.92l1.43.48L86.84.46l1.44.9L89.71.7l1.43.05,1.44.52L94,.87l1.43.34L96.88.87,98.31,1l1.44.26,1.43-.78,1.43,0,1.44.13,1.43,0,1.44.59,1.43-.36,1.44-.21,1.44.76,1.44-1,1.57.37.15,1.58-.32,1.45V5.32l-.28.85-.23,1.5.68,1.42,0,1.5L114.8,12l.15,1.49,1,1.18.12,1.55.65,1.33,1.31.9.39,1.54,1.3.79,1.12.92.69,1.49,1.34.68,1.49.3,1.36.46,1.4.29,1.35.77,1.47.06.72,0,1.22,0h1.23l.87-.27.67,1.42-.82,1.43,0,1.44.26,1.43.42,1.44,0,1.44.14,1.43-.9,1.44,1,1.44-.93,1.43.23,1.44.48,1.44.11,1.44-.16,1.44.05,1.43.07,1.44-.23,1.44v1.43L134,52.71l.83,1.44-.93,1.43.6,1.43.24,1.44-.47,1.43-.34,1.43.62,1.44.09,1.44,0,1.43-.14,1.44-.64,1.44.61,1.44-.59,1.43.83,1.44-.18,1.43-.62,1.44.49,1.43.17,1.44L134.24,80,134,81.42l-.14,1.43.42,1.43.11,1.43.3,1.44-.83,1.43.76,1.43-.25,1.44-.24,1.43.69,1.44L134,95.75l.47,1.43-.06,1.44-.23,1.44.09,1.43-.06,1.44,0,1.44.41,1.44.16,1.44-.27,1.43-.35,1.44.46,1.44-.68,1.43v1.44l.51,1.44-.35,1.43-.22,1.44.42,1.43-.19,1.44.08,1.43-.11,1.44.55,1.44v1.43l-.81,1.44.84,1.44.1,1.44-.06,1.44,0,1.44-.48,1.44.32,1.43-.7,1.44.43,1.44v1.43l.25,1.44-.6,1.44.09,1.44.83,1.43-.33,1.44,0,1.44-.62,1.44,0,1.44.65,1.44-.48,1.44-.14,1.44.31,1.44-.3,1.43.44,1.44.13,1.44-.21,1.44.17,1.44-.66,1.44.3,1.44-.08,1.44-.07,1.44-.12,1.44.84,1.44-.62,1.44.2,1.44-.27,1.44-.17,1.44.1,1.44.33,1.43-.34,1.44.26,1.43-.05,1.44.48,1.44.08,1.44-.51,1.44.34,1.44,0,1.44-.46,1.44.63,1.43.1,1.45-.56,1.44.47,1.44-.35,1.44.23,1.44.17,1.44-.42,1.44.26,1.44-.44,1.45.11,1.44.31,1.44-.72,1.44v1.45l0,1.44.64,1.44-.55,1.44.54,1.45-.57,1.44.61,1.44-.37,1.45.55,1.44-.6,1.45.21,1.45,0,1.45-1.76-.58-1.8,0-.73.51-1.5-.37-1.47.26-1.44.41-1.41.51-1.22.89-.89,1.29-1.71.2-.65,1.47-.85,1.17-1,1.06-.82,1.21-1.15,1.06-.32,1.49-.38,1.42-.24,1.45-.84,1.33-.21,1.47.08,1.49-.34,1.48-.06.88.56,1.43.3,1.45-.27,1.47-1.43-.09-1.43.1-1.43.31-1.42,0L107,257l-1.43.41-1.43-.54-1.43.06-1.44-.34-1.43.72L98.38,257l-1.42-.3-1.43.11-1.43.08-1.43.07-1.43.4-1.43-.52-1.43.48-1.44-.78-1.43.53-1.43.09-1.43-.53-1.43-.07-1.43.18-1.43-.1-1.43.44-1.43,0-1.43.07-1.43-.24-1.43.38L69.78,257l-1.42-.27-1.43.33-1.43-.17-1.43.21-1.43-.38-1.43.25-1.43.06-1.43-.17-1.43,0-1.43-.23-1.43.32-1.44.38-1.43-.09-1.43-.77-1.43,0-1.43.49-1.44.1-1.43,0-1.43-.26-1.43-.09-1.44.19-1.43-.29-1.44.72-1.43-.24L34,257l-1.43.1-1.44.28-1.43-.67-1.44-.17-1.44.55-1.43.33L24,257.05l-1.41.23Zm9-247.51-1.1.27L27.44,11l.24,1.53L27.61,14l-.76,1.33-.43,1.41-.31,1.46-1.2,1.08,0,1.64-1,1.17-1,1.08-.48,1.45-.82,1.24-1.42.7-.93,1.13-.88,1.2-1,1.14-1.38.61-1.18.9-1.54.21L12.3,33l-1.55,0-1.39.46L8,34,7.5,35.49,8,36.93l-.39,1.43.25,1.44-.37,1.44.47,1.43L8,44.1l.26,1.43L7.72,47l.12,1.44L8,49.83l-.24,1.44.17,1.43-.29,1.44.55,1.44L7.42,57l.65,1.44v1.44l-.65,1.44.27,1.43L7.54,64.2l.16,1.43-.34,1.43.46,1.44v1.43l.44,1.44L7.85,72.8l0,1.43-.51,1.43L8,77.1l-.13,1.43L8.24,80,7.36,81.4l.13,1.43v1.43l.35,1.44-.13,1.43.17,1.44V90l.25,1.44L7.5,92.88l-.14,1.44.46,1.44.44,1.43-.92,1.44.15,1.44-.12,1.44.71,1.43-.24,1.44-.18,1.43,0,1.44.39,1.43-.76,1.44.7,1.43L7.47,113l.38,1.43-.5,1.44.42,1.44-.31,1.44,0,1.43.67,1.44.11,1.44-.63,1.44L8,125.93v1.44l-.44,1.43-.21,1.44.79,1.44-.34,1.43-.11,1.44L7.82,136l-.5,1.44.25,1.44.48,1.44-.15,1.43-.1,1.44-.27,1.44.28,1.44-.38,1.44.14,1.44-.05,1.43,0,1.44,0,1.44v1.44l.35,1.44.34,1.44L7.51,159l.66,1.44-.1,1.44-.76,1.44L8,164.77l.18,1.44.11,1.44-.49,1.44-.07,1.44L7.36,172l0,1.43.22,1.43.19,1.44,0,1.44.56,1.44-.37,1.44L8.13,182,8,183.47l-.36,1.43.27,1.44-.54,1.44.1,1.44.4,1.44.45,1.44-.94,1.44L7.77,195v1.44l-.41,1.45.36,1.44-.33,1.44.15,1.44.77,1.44-.87,1.45.31,1.44L7.87,208l-.08,1.44-.34,1.44.75,1.45-.49,1.44-.1,1.45-.22,1.44.12,1.45.21,1.44L7.65,221l.3,1.45.11,1.4,1.25.78,1.34.6,1.38.41,1.49.22,1.26.74,1.21.83,1.39.58.78,1.37,1.2.83,1.3.78.47,1.53,1.63.6.4,1.52.93,1.16L25,237l.05,1.61,1.06,1.15.56,1.37-.13,1.58,1,1.24.35,1.45.06,1.5.37,1.37,1.42.27,1.42.54,1.43-.68,1.42,0,1.43.73,1.42-.81,1.43.1,1.43-.08,1.42.1,1.43-.25,1.43,1,1.42-.18,1.43-.77,1.43.6,1.42-.47,1.43.6,1.43-.59,1.42-.16,1.43.79,1.42-.54,1.42-.22,1.42.08,1.43.33,1.42-.37,1.43.64,1.43-.2,1.42.38,1.43-.7,1.42.45,1.43-.36,1.43.36,1.43-.49,1.42.4,1.43-.41,1.43.36,1.43.35,1.42,0,1.43-.69,1.43.28,1.43-.35,1.43.69,1.43-.5,1.43.4H91.1l1.43.12,1.43-.23,1.43-.35,1.43.54,1.43-.7,1.43.83,1.43-.35,1.44-.56,1.43.65,1.44.31,1.43-.84.07-1.44.84-1.35.52-1.38.09-1.49.08-1.53.51-1.39.87-1.25,1.06-1.1-.12-1.75,1.54-.78.28-1.59,1-1.13,1.35-.78.73-1.33,1.3-.74.93-1.18,1.3-.71,1.37-.54,1-1.37,1.4-.55,1.45-.36,1.43-.43,1.42-.23.14-1.44L127.1,221l.77-1.44-1-1.44.31-1.43-.16-1.43.26-1.44,0-1.43.26-1.43.28-1.44-.54-1.43.24-1.43-.27-1.44.28-1.44-.54-1.43.52-1.44.06-1.44-.62-1.44.61-1.43-.45-1.44-.12-1.43.74-1.44-.17-1.43-.43-1.44L127,188l-.1-1.43.54-1.44,0-1.43,0-1.43,0-1.43.07-1.44.12-1.43-.67-1.43.81-1.44,0-1.43-.25-1.44-.43-1.43,0-1.44L127,167.9l.9-1.44-1-1.44.93-1.43-.23-1.44-.47-1.44-.12-1.44.16-1.44,0-1.43L127,155l.23-1.43v-1.44l.47-1.43-.84-1.44.93-1.43-.59-1.44-.25-1.44.48-1.43.34-1.44-.63-1.43-.09-1.44,0-1.44.14-1.44.64-1.44-.61-1.44.59-1.44-.83-1.43.18-1.44.62-1.44-.49-1.43-.17-1.44.32-1.44.28-1.44.15-1.43-.43-1.44-.1-1.44-.31-1.44.83-1.44-.76-1.44.25-1.44.24-1.44L126.9,109l.75-1.44-.47-1.44.06-1.44.23-1.44-.09-1.44.05-1.44,0-1.44-.41-1.44L126.91,96l.26-1.43.35-1.44-.45-1.45.68-1.44V88.82l-.51-1.44.35-1.44.23-1.44-.43-1.43.19-1.44-.08-1.43.11-1.44-.55-1.45V75.87l.81-1.43L127,73l-.1-1.44.06-1.44,0-1.44.48-1.44-.33-1.44.7-1.44-.43-1.44,0-1.44L127.2,60l.61-1.44-.1-1.45-.83-1.44.33-1.44,0-1.45.62-1.44,0-1.44-.65-1.44.48-1.44.14-1.45-.32-1.44.3-1.44-.44-1.45-.13-1.44.21-1.45-.17-1.45.66-1.45-.78-1.37-1.21-.84-1.38-.44-1.32-.59-1.68.19-1-1.23-1.35-.6-1-1.06-1-1-1.13-.9-1.25-.81L114,25.47l-1.09-1-.8-1.23-1.17-1L110.15,21,110,19.42l-.88-1.23-.5-1.39V15.26l-1-1.27-.42-1.43.3-1.55-1-.93-1.06-.74L104,9.57l-1.42.17-1.43-.42-1.42.26-1.43-.44-1.43.11-1.42.32L94,8.84H92.59l-1.43,0-1.43.64L88.31,8.9l-1.43.54-1.43-.57L84,9.48,82.6,9.11l-1.43.55-1.42-.6-1.42.22H76.9l-1.42-.47L74.06,9l-1.43.53L71.2,9H68.35L66.93,9l-1.43.21-1.42.6-1.43-.92-1.43.61-1.43.14-1.42-.18-1.43,0-1.43-.51-1.43.32-1.43.13-1.43.18L49.79,9,48.37,9l-1.44.21L45.51,9l-1.44-.08-1.42.51-1.43.24-1.43-.32-1.43-.08-1.43.09-1.44.31-1.43,0-1.43-.29-1.36.41Zm1.6,234-.3-1.1.28-1.58-.89-1.25-.7-1.29-.16-1.49L29,235.75l-.82-1.22-.09-1.61-1.39-.87-.55-1.37-.6-1.37-1.25-.88-1-1-.56-1.48L21.57,225l-1.3-.73-1.3-.68-1-1.06-1.32-.62-1-1.16-1.64.07-1.17-1-.63-.11.32-1.42-.05-1.44-.47-1.43.38-1.44-.25-1.44.38-1.43L12,209.69l-.07-1.44-.27-1.44.55-1.44-.12-1.44L12,202.49l.24-1.44L12,199.61l.29-1.44-.55-1.44.71-1.44-.64-1.43v-1.44l.64-1.44-.26-1.43.13-1.44-.15-1.44.34-1.43-.47-1.44v-1.43l-.44-1.44.4-1.44v-1.43l.51-1.44-.66-1.44.12-1.44-.34-1.44.88-1.43-.13-1.44V168l-.35-1.45.13-1.44L12,163.66v-1.44l-.25-1.44.63-1.44.14-1.44-.47-1.44L11.65,155l.91-1.44-.14-1.43.12-1.44-.72-1.44.25-1.44.18-1.44,0-1.44-.39-1.44.76-1.44-.7-1.44.55-1.44-.38-1.45.49-1.44-.41-1.44.31-1.44,0-1.44-.67-1.44-.11-1.44.63-1.44-.43-1.44v-1.44l.44-1.44.21-1.45-.79-1.44.33-1.44.12-1.44-.12-1.45.5-1.44-.26-1.44-.47-1.44.14-1.44.11-1.44.26-1.44L12.1,106l.38-1.44-.14-1.44.05-1.45,0-1.44,0-1.44V97.38l-.35-1.45-.34-1.44.65-1.44-.67-1.45.11-1.44.75-1.44-.67-1.44-.17-1.44-.11-1.43L12.13,83l.07-1.45.34-1.44,0-1.45-.21-1.44-.2-1.44,0-1.44-.57-1.44L12,71.43,11.78,70,12,68.54l.37-1.45-.27-1.44.54-1.44-.11-1.45-.39-1.44-.45-1.45.94-1.44L12.13,57l0-1.45.41-1.44-.36-1.45.33-1.44-.16-1.45-.77-1.44.88-1.45-.31-1.45L12,44l.08-1.44.34-1.45-.75-1.46.48-1.42.6-.07,1.45-.32,1.3-.73,1.19-.87L18,35.5l1-1.08,1.39-.59,1.12-.95L22.78,32l1-1.12.67-1.36,1-1.1.92-1.14.51-1.4L28,25l.52-1.39.28-1.48L30,21l-.34-1.69,1-1.2.24-1.45.17-1.45.64-.38,1.29-.5,1.44,0,1.45.59,1.44-.69,1.44,0,1.44.19,1.43.36,1.44-.26,1.44.54L46,14.3l1.45,0,1.44.73,1.44-.81,1.44.1,1.44-.08,1.43.1L56,14.06l1.43.95,1.44-.17,1.44-.77,1.44.6,1.44-.47,1.44.6,1.44-.59,1.44-.16,1.44.79,1.44-.54,1.44-.22,1.44.08,1.44.32,1.44-.37,1.44.65,1.45-.21,1.44.39,1.44-.7,1.44.45,1.45-.37,1.44.37,1.44-.49,1.45.39,1.44-.4,1.44.36,1.44.35,1.45,0,1.44-.69,1.45.28,1.44-.35,1.45.69,1.45-.5,1.35.37.06.6.24,1.45.64,1.34.8,1.26,0,1.56L106.52,22l-.12,1.68,1,1.12,1.21,1,.25,1.57.61,1.38,1.16,1,1.45.66.56,1.46.91,1.17,1.31.73,1.38.58,1.18.82,1.07,1,1.07,1.12,1.71-.25,1,1.36,1-.26,0,1.52L122.75,41l.4,1.44-.34,1.43.34,1.44L123,46.78l-.26,1.43.78,1.44,0,1.44-.13,1.44,0,1.44-.59,1.44.36,1.44.21,1.44-.76,1.44,1,1.44-.31,1.44.15,1.44-.26,1.43,0,1.44-.26,1.44-.27,1.43.54,1.44-.25,1.44.28,1.43-.29,1.44.55,1.43L123,78.41l0,1.44.62,1.43-.62,1.44.46,1.44.11,1.44L122.74,87l.17,1.44.42,1.44.08,1.44.1,1.44L123,94.24l0,1.44,0,1.44,0,1.44-.07,1.44-.11,1.44.67,1.44-.82,1.44,0,1.44.25,1.44.43,1.43,0,1.44.14,1.44-.9,1.44,1,1.44-.93,1.44.24,1.44.47,1.45.12,1.44-.17,1.44,0,1.44.07,1.44-.22,1.44v1.44l-.48,1.44.84,1.44-.93,1.44.59,1.44.25,1.45L123,136l-.34,1.44.62,1.44.09,1.45,0,1.44-.13,1.44-.65,1.44.61,1.44-.59,1.44.84,1.44-.18,1.45-.63,1.44.49,1.44.17,1.45L123,156.2l-.28,1.44-.14,1.44.42,1.45.11,1.44.3,1.44-.82,1.45.76,1.44-.26,1.44-.24,1.44.69,1.44-.74,1.44.47,1.44-.07,1.44-.22,1.44.09,1.45-.06,1.44,0,1.44.41,1.44.15,1.44-.26,1.44-.35,1.45.46,1.44-.68,1.45v1.44l.52,1.44-.36,1.45-.22,1.44.42,1.45-.19,1.44.09,1.45-.12,1.44.56,1.45v1.45l-.82,1.44.84,1.45.1,1.44-.05,1.45,0,1.44-.47,1.45.32,1.45-.7,1.45.43,1.45v1.45l.24,1.51-.92-.25-1.35.62-1,1.36-1.43.39-1.22.77-1.55.32-1.15.92-.69,1.45-1.38.65-1.12,1-.72,1.31-1.14,1-.5,1.44-.68,1.29-.92,1.14-.54,1.36-1.23,1-.31,1.46-.61,1.34-.54,1.37-.54,1.37.45,1.62-.65.45-1.34.18-1.44-.27-1.44-.17-1.44.1-1.44.33L95,243l-1.44.25-1.44,0-1.44.48-1.44.08-1.44-.51-1.44.34-1.44,0-1.44-.46-1.44.63-1.43.1-1.44-.55-1.44.46-1.43-.35-1.44.23-1.45.17L72,243.38l-1.43.26-1.44-.44-1.44.12-1.44.31-1.44-.72H63.32l-1.44,0-1.44.64L59,243l-1.45.54-1.44-.57-1.44.62-1.44-.37-1.45.54-1.44-.6-1.44.22H47.45L46,242.89l-1.44.12-1.44.53-1.45-.45H38.79l-1.44-.05-1.45.22-1.44.59L33,243Zm3-226.7-1,.19L32.12,18l0,1.49-.24,1.43L31,22.06l-.56,1.3L30,24.73l-1.27.92-.07,1.59-1,1.05-1.06,1-.51,1.38-.83,1.16-1.41.63L23,33.52l-.84,1.16-.92,1.12-1.32.62-1.08.92-1.48.28L16.46,39,15,39.11l-.85.84-.65,1.11,0,1.44L14,43.94l-.38,1.43.24,1.44-.37,1.44L14,49.69,14,51.13l.26,1.44L13.74,54l.12,1.44L14,56.89l-.24,1.44.17,1.44-.29,1.43.55,1.44-.71,1.43.64,1.44V67l-.64,1.43.26,1.44-.13,1.43.15,1.44-.34,1.43.47,1.44V77l.44,1.43-.4,1.44v1.44l-.51,1.44L14,84.18l-.12,1.44.34,1.44-.88,1.44L13.51,90v1.44l.35,1.44-.13,1.44.17,1.44v1.43l.25,1.44L13.52,100l-.14,1.44.46,1.44.44,1.43-.91,1.44.14,1.44-.12,1.44.71,1.44-.24,1.44L13.68,113l0,1.44.39,1.44-.76,1.44.7,1.45-.55,1.44.38,1.44-.49,1.44.41,1.43-.31,1.44,0,1.44.67,1.44.11,1.44-.63,1.44.43,1.45v1.44L13.59,136l-.21,1.44.79,1.44-.33,1.44-.12,1.44.12,1.44-.5,1.45.26,1.44.47,1.44L13.93,149l-.11,1.45-.26,1.44.27,1.44-.38,1.44.14,1.44-.05,1.44,0,1.45,0,1.44V162l.35,1.44.34,1.45-.65,1.44.67,1.44-.11,1.43-.76,1.44.68,1.44.17,1.44.11,1.45-.49,1.44-.07,1.44-.34,1.44-.05,1.44.22,1.44.2,1.44,0,1.45.57,1.44-.38,1.44.24,1.45L14,190.8l-.36,1.45.27,1.44-.54,1.44.1,1.45.4,1.45.45,1.44-.94,1.45.45,1.44,0,1.45-.41,1.44.36,1.45-.33,1.44.16,1.45.76,1.45-.87,1.44.31,1.45.13,1.46-.08,1.45,0,1.29,1.33.18,1.08,1,1.19.76,1.08.91,1.22.69,1.25.68,1,1,1.25.73.72,1.27.94,1,.71,1.23.91,1.07,1.12.93.7,1.23.64,1.26L30,233.2l.1,1.52.75,1.21.89,1.17-.14,1.55,1.31,1.07.24,1.21,1.23.22,1.45-.19,1.44.65,1.44-.53,1.44-.05,1.45.6,1.44-.69,1.44-.05,1.45.2,1.44.35,1.44-.25,1.45.53,1.43-.68,1.44,0,1.44.73,1.44-.81,1.45.1,1.44-.08,1.44.1,1.45-.24,1.44.95,1.44-.18,1.44-.76,1.45.59,1.44-.47,1.45.61,1.44-.6,1.44-.15,1.45.79L76.2,241l1.45-.22,1.44.09,1.45.32,1.45-.37,1.44.65,1.45-.21,1.45.38,1.44-.69,1.45.45,1.44-.37,1.45.37,1.45-.5,1.45.4,1.45-.41,1.45.36,1.45.36,1.45,0,1-1,.89-.8.09-1.46,1.12-1.11.06-1.49.93-1.14.61-1.27.77-1.18.52-1.32.46-1.39,1.25-.85.3-1.55,1.55-.56.68-1.28.61-1.39,1.48-.49,1.27-.66.93-1.09.8-1.35,1.53-.22,1.34-.47,1.14-.87.57-1,.27-.91.31-1.44.49-1.43-1-1.44.91-1.44-.67-1.44.06-1.44.51-1.44-.39-1.44.33-1.44-.33-1.44.17-1.44.25-1.43-.78-1.44,0-1.44.14-1.44,0-1.43.59-1.44-.36-1.43-.21-1.44.76-1.43-1-1.44.31-1.44-.15-1.43.26-1.44,0-1.43.26-1.44.28-1.44-.54-1.43.24-1.44-.27-1.44.28-1.44-.54-1.44.52-1.44.06-1.44-.62-1.44.61-1.44-.45-1.44L121,162.2l.74-1.44-.18-1.44-.42-1.44-.08-1.44-.1-1.43.54-1.44,0-1.44,0-1.44,0-1.44.07-1.44.12-1.43-.67-1.45.81-1.44,0-1.44-.25-1.44-.43-1.44,0-1.44-.14-1.44.9-1.44-1-1.44.93-1.44-.23-1.44-.48-1.44-.11-1.44.16-1.44,0-1.44-.07-1.45.23-1.44v-1.44l.47-1.44-.84-1.44.93-1.44-.59-1.44-.25-1.44.48-1.44.34-1.45-.63-1.44-.09-1.44,0-1.44.14-1.45.64-1.44-.61-1.44.59-1.44L121,98.82l.18-1.45.62-1.44-.49-1.44-.17-1.44.32-1.45.28-1.43.14-1.44-.42-1.44-.11-1.44-.3-1.44.83-1.44-.76-1.45.25-1.44.24-1.44-.69-1.44.75-1.44-.47-1.44.06-1.45.23-1.44L121.36,70l0-1.44,0-1.45-.4-1.44-.16-1.45.26-1.44.35-1.45-.45-1.44.68-1.45V57l-.51-1.45.35-1.44.23-1.45-.43-1.44.19-1.45-.08-1.45.11-1.44L121,45.42V44l.81-1.45L121,41.06l-.35-.85-.66-.62-1.28-.65-1-1.09-1.38-.46L115.54,36l-1.38-.5-1.07-.91-1.22-.77-.56-1.43-1-1-1.54-.56-.6-1.34-.84-1.15-.23-1.52-.73-1.19-1.24-.95-.18-1.48-.44-1.34-.81-1.19-.19-1.43-.85-1.21-.77-.89-1.07-.56-1.44.17-1.44-.66-1.44.29L95,16.35l-1.44-.07-1.44-.12L90.71,17l-1.44-.63-1.44.2-1.45-.27-1.44-.16-1.44.09-1.44.34-1.44-.34-1.44.26-1.44-.05-1.45.48L74.85,17l-1.44-.51L72,16.84H70.53l-1.45-.47L67.64,17l-1.45.11-1.44-.56L63.31,17l-1.45-.35-1.44.24L59,17.06l-1.44-.43-1.45.26-1.45-.43-1.44.11-1.45.32-1.44-.73H48.85l-1.45,0L46,16.76l-1.45-.55-1.44.55-1.45-.58-1.45.62-1.45-.37L37.27,17l-1.49-.6Z"/></g><path class="cls-2" d="M80.82,48.38l3,2.87c-.24.28-.63.35-1.33.38a24,24,0,0,1-3.74,3.54l1.85,1.22c-.28.49-.7.7-1.64.7H69v2.17a21.28,21.28,0,0,1-.11,2.14h6l1.71-2.1,3.22,2.17c-.24.52-.66.7-1.64.7H68.81a17.28,17.28,0,0,1-1,4.45H78.44l1.79-2.25,3.36,2.32c-.28.49-.7.7-1.68.7H69.37c2.77,4.06,8.34,6.23,14.32,7.14l0,.38a3.27,3.27,0,0,0-2.31,2.59C75.4,75.75,70.91,72.71,68.6,67.39H67.52c-2,4.44-6.3,8.08-15.65,10.15l-.21-.6c7.6-2.31,11.31-5.63,13.06-9.55H51.91l-.21-.77H65a15.88,15.88,0,0,0,1-4.45H56.42l-.21-.77h9.87c0-.7.07-1.4.07-2.14V57.09h-11l-.21-.8H66.15V52l4.24.35c0,.53-.31.74-1.4.88v3.08h6.79l1.65-2,.66.42c.39-1.09.91-2.63,1.23-3.82H56.53c0,2.91-1.58,4.87-3.57,4.87-1.05,0-1.54-.63-1.54-1.3a2,2,0,0,1,1.15-1.61,5.23,5.23,0,0,0,2.94-4.69h.56a9.17,9.17,0,0,1,.39,2h9.62V44.77l4.49.39c0,.52-.39.8-1.58.94v4H79.14Z"/><path class="cls-2" d="M70.88,82.12l2.52,2.27c-.24.32-.59.39-1.4.46a22.11,22.11,0,0,1-10.47,13,7.47,7.47,0,0,1,.39,2.31c0,3.46-1.05,5.25-4.41,5.5,0-1.61-.42-2-2-2.17V103h2.31c1.51,0,1.51-2.1,1.51-2.87a12.47,12.47,0,0,0-2.87-8c.59-2.24,1.61-6.48,2.24-9.17H55.41v28.67a2.4,2.4,0,0,1-2.14.91h-.42V80.93l3,1.26h2.66L60,80.54l2.8,2.87a2.21,2.21,0,0,1-1.54.42c-.94,2.07-2.8,6-4.06,8.23a13.93,13.93,0,0,1,4.1,5.14,22.63,22.63,0,0,0,8.26-12.84H66c-.24.49-.56.94-.84,1.4,2.1.38,2.8,1.26,2.8,2a1,1,0,0,1-1,1,1.11,1.11,0,0,1-.77-.35,4.81,4.81,0,0,0-1.4-2.1,20.24,20.24,0,0,1-1.72,2.13c2.07.63,2.77,1.61,2.77,2.38a1.09,1.09,0,0,1-1,1.12,1.15,1.15,0,0,1-.84-.38,5.3,5.3,0,0,0-1.36-2.63,13.44,13.44,0,0,1-2.07,1.75l-.45-.35c2.34-2.45,4.23-6.75,5.07-10.43l3.64.53c-.1.42-.35.59-1.22.59-.32.84-.7,1.68-1.12,2.52h2.94Zm-11,28.42a22.84,22.84,0,0,0,6.26-7.8l3.4,1.71a.59.59,0,0,1-.63.35,3.1,3.1,0,0,1-.53-.07,22.87,22.87,0,0,1-8.15,6.3Zm22.58-10.26c-.28.49-.67.7-1.61.7H74.1v8.13c0,2-.49,3.18-3.81,3.46,0-1.82-.74-2.27-3.26-2.45v-.49h3.75c.45,0,.59-.1.59-.52V101H63.6l-.21-.8H77.71L79.35,98ZM66.82,95.73,66.61,95h7.25l1.5-2,2.84,2.1c-.28.49-.7.66-1.61.66ZM81.38,82.05l2.7,2.59a2.49,2.49,0,0,1-1.37.38,24.64,24.64,0,0,1-4.44,5.25A19.42,19.42,0,0,0,84.15,95l-.07.35a2.74,2.74,0,0,0-2.31,2c-4.59-3.4-7.42-8.72-8.58-16.1l.63-.28a21.84,21.84,0,0,0,4,8.71A29.91,29.91,0,0,0,80,84.36H75.71l-.24-.81h4.37Zm-5,21.21c5.39,1.72,7.1,4.27,7.1,5.92a1.43,1.43,0,0,1-1.33,1.61,1.78,1.78,0,0,1-1.12-.46,15.77,15.77,0,0,0-4.93-6.75Z"/><path class="cls-2" d="M66.33,141.87c9.35-1.51,12.81-6.87,12.81-12.4,0-6.44-2.8-11.62-10.43-11.62a16,16,0,0,0-3,.35A4.37,4.37,0,0,1,67.38,122c0,6.55-4.55,17.12-9.8,17.12-2.7,0-4.59-2.94-4.59-7.53,0-7.91,6.48-14.77,15.86-14.77,8.65,0,13.44,5.29,13.44,12.85,0,6.72-4.27,12-15.75,13Zm-1.65-23.42c-5.25,1.43-9.13,6.54-9.13,13,0,2.62.77,4.59,2.13,4.59,3.68,0,7.63-9.46,7.63-15.34A3.77,3.77,0,0,0,64.68,118.45Z"/><path class="cls-2" d="M83.94,149.35c-.28.49-.7.67-1.68.67H56.63v8.5c0,6-.21,14-5.18,19.47l-.49-.32c2.8-5.67,3-12.71,3-19.11V148l3.18,1.3h9.66v-3.92l4.31.38c-.07.53-.42.77-1.58.95v2.59h9.32l1.78-2.35Zm.21,10.15a2.41,2.41,0,0,0-1.86,2A16.2,16.2,0,0,1,77,155.55v4.79c0,.11-.18.28-.42.42l2.55,2.52a.86.86,0,0,1-.63.21,3,3,0,0,1-1.19-.31c-1.68.28-3.64.56-5.78.8v2.91h5.57l1.58-2,3,2.13c-.28.49-.7.7-1.65.7H71.54v3.12h7.81l1.58-2.1,3,2.21c-.28.49-.7.66-1.64.66H71.54v2.91c0,2-.59,3.25-4.27,3.53,0-2.17-1.64-2.31-4.27-2.55V175h5.08c.56,0,.73-.14.73-.52v-2.91H57.05l-.21-.77h12v-3.12H58.49l-.21-.8H68.81V164.3c-3.08.28-6.33.49-9.38.52l-.1-.66a107,107,0,0,0,15.61-2.94h-.45v-4a20.53,20.53,0,0,1-6.31,4.3l-.38-.63a17.68,17.68,0,0,0,5.64-6.09h-4v-.07a4,4,0,0,1-.74.07H64.75v.81c3.12.31,4.1,1.5,4.1,2.45a1.11,1.11,0,0,1-1.09,1.15,1.37,1.37,0,0,1-.8-.31,6.7,6.7,0,0,0-2.21-2.84v4.73c0,.07-.42.84-2.45.84v-3.89a20.92,20.92,0,0,1-5.07,3.92l-.42-.59a18.16,18.16,0,0,0,4.72-6.27h-4.2l-.21-.77H62.3v-3.43l3.82.32c0,.45-.32.7-1.37.8V154h1.58l1.33-1.78L70.14,154h4.35v-3.46l3.85.28c-.07.49-.35.73-1.33.84V154H80l1.36-1.82,2.63,1.89c-.28.53-.7.7-1.61.7H77.57a16.12,16.12,0,0,0,6.61,4.31Z"/><path class="cls-2" d="M59.92,197.09v2.24c4.34,1.26,5.71,3.29,5.71,4.73a1.53,1.53,0,0,1-1.44,1.68,1.67,1.67,0,0,1-1.12-.49,10.84,10.84,0,0,0-3.15-5.36v12.19c0,.07-.35.91-2.62.91V202.1a25.53,25.53,0,0,1-5.81,7.21l-.46-.52a32.28,32.28,0,0,0,5.39-11.7h-4.9l-.21-.77h6v-4.65H52.47l-.21-.77h5v-4.55H51.8l-.21-.77H57.3v-5.11l4.06.35c0,.49-.35.77-1.44.87v3.89h2.14l1.54-2,2.87,2.1c-.25.52-.67.7-1.61.7H59.92v4.55h1.75L63.11,189l2.69,2c-.28.49-.7.67-1.57.67H59.92v4.65h2.24l1.54-2.06,2.94,2.13c-.28.53-.66.7-1.61.7ZM84.32,199a1.44,1.44,0,0,1-1.22.73l-8.26,1.23v7.32c0,1.4,0,1.5,1,1.5h4.51a1,1,0,0,0,1-.42,16.37,16.37,0,0,0,1.26-3.88h.24l0,4.09c1.08.42,1.19.56,1.19,1,0,1.15-1,1.71-3.54,1.71H75.64c-3.08,0-3.57-.49-3.57-4.13v-6.83l-6.34,1-.31-.74,6.65-1v-7.28l-5.57.88-.31-.74,5.88-.91v-6.26c-2.1.59-4.31,1.15-6.41,1.54l-.21-.56A51.66,51.66,0,0,0,79,180.5l3.29,2.42a1,1,0,0,1-.84.31,4.4,4.4,0,0,1-1-.17,54.48,54.48,0,0,1-5.63,2.24V192l3.6-.56,1.23-2.24L83.06,191c-.17.38-.49.63-1.19.77l-7,1.08v7.28l4.65-.7,1.3-2.34Z"/></svg>