<svg id="mockup" xmlns="http://www.w3.org/2000/svg" xmlns:xlink="http://www.w3.org/1999/xlink" viewBox="0 0 371.36 688.59"><defs><style>.cls-1{fill:none;}.cls-2{clip-path:url(#clip-path);}.cls-3{fill:#698d76;}</style><clipPath id="clip-path"><rect class="cls-1" y="-135.79" width="415.9" height="919.64"/></clipPath></defs><g class="cls-2"><path class="cls-3" d="M-290.17,760.94c62.08,7.34,124.7-6.91,184.32-25.69,37.24-11.73,74.28-25.45,106.92-46.87,36.41-23.9,66.42-56.8,103.76-79.22,66.3-39.83,151.92-44.48,210.13-95.41,42.5-37.18,63.81-97.1,54.32-152.77-13.67-80.23-83.47-139-155.5-176.85-41.77-22-86.43-39.91-122.42-70.45-64.13-54.41-95-144-167.7-186.42C-116-95.87-163.13-101.66-208.75-107c-47.07-5.47-94.92-10.93-141.58-2.72-34.47,6.06-67.22,19.43-98.77,34.57-30,14.4-60.26,31.43-79.38,58.66C-539.92-.19-546.74,19-550.92,38.4c-28.58,132.94,61.84,268.12,41.08,402.5-4.78,30.92-15.37,60.73-19.75,91.71s-1.67,64.88,17.4,89.68c16.26,21.15,38.65,26.26,59.87,39.7,16.68,10.56,25.57,31.53,40.66,45.54C-378.7,738.12-334.48,755.7-290.17,760.94Z"/></g></svg>