<svg id="圖層_1" data-name="圖層 1" xmlns="http://www.w3.org/2000/svg" viewBox="0 0 272.23633 187.63672"><defs><style>.cls-1{fill:#fff;}</style></defs><path class="cls-1" d="M5.44336,148.53711V137.72754H9.791l.07812.74609a57.58948,57.58948,0,0,0,.76367,6.62207q.25488.76758,2.05664,1.94532a14.17984,14.17984,0,0,0,7.87207,2.27929,8.03882,8.03882,0,0,0,5.77735-2.1416,7.28494,7.28494,0,0,0,2.252-5.52246,7.14952,7.14952,0,0,0-1.48828-4.75586,13.95468,13.95468,0,0,0-5.36621-3.22266l-3.95508-1.52929Q11.396,129.68018,8.53809,126.582a11.003,11.003,0,0,1,1.27246-15.99316,16.09667,16.09667,0,0,1,10.5166-3.37207,37.50873,37.50873,0,0,1,12.88476,2.42871v10.14355H28.86523V119.084a31.52268,31.52268,0,0,0-.627-5.30664,4.07921,4.07921,0,0,0-1.25293-2.17382,9.66347,9.66347,0,0,0-6.14941-1.99707,7.78576,7.78576,0,0,0-5.65918,2.19043,7.36632,7.36632,0,0,0-2.252,5.51367,5.57909,5.57909,0,0,0,1.84083,4.37988q1.80029,1.68163,7.28417,3.91113l3.60352,1.49024q5.91357,2.43163,8.26367,5.01758a9.83308,9.83308,0,0,1,2.31153,6.74316,11.2945,11.2945,0,0,1-4.52442,9.27051q-4.52343,3.5874-11.76855,3.58691A34.09158,34.09158,0,0,1,5.44336,148.53711Z"/><path class="cls-1" d="M68.65723,150.49512A14.66008,14.66008,0,0,1,63.05664,151.71q-6.77637,0-9.88965-3.4082-3.11279-3.40724-3.11328-10.84863v-26.084h-6.2666v-3.17285h6.2666v-7.71582l7.71582-1.91895v9.63477H69.63672v3.17285H57.76953v27.10254q0,5.48438,1.4541,7.79395,1.45313,2.31151,4.95313,2.31054a11.12257,11.12257,0,0,0,4.48047-1.21387Z"/><path class="cls-1" d="M110.21191,148.81152A37.04569,37.04569,0,0,1,96.77832,151.71q-9.36034,0-15.21582-6.31152-5.855-6.31054-5.85547-16.38574,0-9.564,5.248-15.67969a16.95033,16.95033,0,0,1,13.47363-6.11621q7.59815,0,11.69043,5.12109,4.09278,5.12109,4.09277,14.62012v.74316H84.24512q0,9.94776,3.46679,15.01953,3.46582,5.07276,10.28028,5.07227a23.92542,23.92542,0,0,0,12.21972-2.9375Zm-25.80957-23.5h17.624l.03906-1.72265q0-7.40333-1.919-10.69239a6.692,6.692,0,0,0-6.2666-3.29q-4.34765,0-6.91211,4.26855Q84.40138,118.145,84.40234,125.31152Z"/><path class="cls-1" d="M130.73535,145.91113v10.14551q0,5.32617.85645,6.3252.85839.999,5.64941,1.35156l.74024.03906v2.42871h-22.207v-2.42871l.74414-.03906q4.73731-.353,5.62012-1.3711.88038-1.01806.88086-6.30566v-37.7168q0-5.28661-.88086-6.30566-.88184-1.01807-5.62012-1.37012l-.74414-.03906v-2.42871h14.96094v7.95508a20.33289,20.33289,0,0,1,6.38477-6.7002,14.86418,14.86418,0,0,1,8.0039-2.23437,12.93721,12.93721,0,0,1,11.03711,5.68457q4.10449,5.68359,4.10547,15.28808,0,10.6626-4.709,17.0918A14.754,14.754,0,0,1,143.05273,151.71a15.49475,15.49475,0,0,1-6.668-1.45019A17.44377,17.44377,0,0,1,130.73535,145.91113Zm0-3.05761a24.68846,24.68846,0,0,0,5.72656,3.41113,14.42186,14.42186,0,0,0,5.4668,1.13672,8.28593,8.28593,0,0,0,7.62305-4.27442q2.52831-4.27294,2.52929-12.82129,0-9.05712-2.45507-13.58593a7.93277,7.93277,0,0,0-7.39942-4.52832,12.06623,12.06623,0,0,0-6.17285,1.666,17.977,17.977,0,0,0-5.31836,4.999Z"/><path class="cls-1" d="M202.35352,82.63477Q182.87548,69.22412,182.875,53.249q0-14.34815,10.42285-23.27539,10.42236-8.92675,27.167-8.92773,15.97413,0,25.54395,7.55957,9.56689,7.56006,9.56836,20.20117,0,19.39014-24.94531,32.20215,30.24169,12.81738,30.24218,36.99707a32.11174,32.11174,0,0,1-12.04589,25.8457q-12.04542,10.04-30.92579,10.04-18.45409,0-29.90136-9.35449-11.44923-9.356-11.44825-24.56445Q176.55273,94.51075,202.35352,82.63477Zm3.84472,3.67968q-12.81591,11.80518-12.81543,31.56739,0,14.20313,6.87793,22.501,6.876,8.29688,18.58106,8.29688a24.137,24.137,0,0,0,18.02636-7.35645q7.17627-7.35644,7.17579-18.47949a22.82871,22.82871,0,0,0-5.46778-15.52734q-5.46827-6.28712-20.50293-14.5Zm19.82031-8.21386q14.86377-10.94824,14.86426-29.001,0-10.26562-6.02246-16.55371-6.02343-6.28712-16.01855-6.28906a21.1646,21.1646,0,0,0-21.27246,21.38769A20.92036,20.92036,0,0,0,203.208,62.48828Q208.8462,68.519,226.01855,78.10059Z"/></svg>