<svg id="圖層_1" data-name="圖層 1" xmlns="http://www.w3.org/2000/svg" viewBox="0 0 272.23633 187.63672"><defs><style>.cls-1{fill:#fff;}</style></defs><path class="cls-1" d="M5.44336,148.53711V137.72656H9.791l.07812.7461a57.65905,57.65905,0,0,0,.76367,6.623q.25488.76758,2.05664,1.94532a14.18768,14.18768,0,0,0,7.87207,2.27929,8.03534,8.03534,0,0,0,5.77735-2.14258,7.28278,7.28278,0,0,0,2.252-5.52148,7.14774,7.14774,0,0,0-1.48828-4.75586,13.95468,13.95468,0,0,0-5.36621-3.22266l-3.95508-1.52929Q11.396,129.6787,8.53809,126.582a11.00414,11.00414,0,0,1,1.27246-15.99414,16.10157,16.10157,0,0,1,10.5166-3.37109,37.50668,37.50668,0,0,1,12.88476,2.42773v10.14453H28.86523V119.084a31.50818,31.50818,0,0,0-.627-5.30664,4.07921,4.07921,0,0,0-1.25293-2.17382,9.65844,9.65844,0,0,0-6.14941-1.99805,7.78652,7.78652,0,0,0-5.65918,2.19141,7.36329,7.36329,0,0,0-2.252,5.51367,5.577,5.577,0,0,0,1.84083,4.3789q1.80029,1.68165,7.28417,3.91211l3.60352,1.49024q5.91357,2.43163,8.26367,5.01758a9.83051,9.83051,0,0,1,2.31153,6.74218,11.2976,11.2976,0,0,1-4.52442,9.27149Q27.18067,151.709,19.93555,151.709A34.09068,34.09068,0,0,1,5.44336,148.53711Z"/><path class="cls-1" d="M68.65723,150.49414a14.64177,14.64177,0,0,1-5.60059,1.21484q-6.77637,0-9.88965-3.4082-3.11279-3.40722-3.11328-10.84765v-26.084h-6.2666v-3.17383h6.2666v-7.71484l7.71582-1.91992v9.63476H69.63672v3.17383H57.76953V138.4707q0,5.48438,1.4541,7.79493,1.45313,2.31151,4.95313,2.31054a11.11029,11.11029,0,0,0,4.48047-1.21484Z"/><path class="cls-1" d="M110.21191,148.81055A37.04566,37.04566,0,0,1,96.77832,151.709q-9.36034,0-15.21582-6.31054-5.855-6.31054-5.85547-16.38672,0-9.5625,5.248-15.67969a16.95247,16.95247,0,0,1,13.47363-6.11523q7.59815,0,11.69043,5.12109,4.09278,5.12109,4.09277,14.61914v.74414H84.24512q0,9.94629,3.46679,15.01953,3.46582,5.07129,10.28028,5.07227a23.93524,23.93524,0,0,0,12.21972-2.9375Zm-25.80957-23.5h17.624l.03906-1.72266q0-7.40333-1.919-10.69141a6.69267,6.69267,0,0,0-6.2666-3.291q-4.34765,0-6.91211,4.26953Q84.40138,118.14355,84.40234,125.31055Z"/><path class="cls-1" d="M130.73535,145.91016v10.14648q0,5.32617.85645,6.32422.85839.999,5.64941,1.35156l.74024.03906v2.42969h-22.207v-2.42969l.74414-.03906q4.73731-.35155,5.62012-1.37109.88038-1.01661.88086-6.30469v-37.7168q0-5.28809-.88086-6.30664-.88184-1.01659-5.62012-1.36914l-.74414-.03906v-2.42969h14.96094v7.95508a20.33867,20.33867,0,0,1,6.38477-6.69922,14.85575,14.85575,0,0,1,8.0039-2.23437,12.93635,12.93635,0,0,1,11.03711,5.68359q4.10449,5.68359,4.10547,15.28906,0,10.66115-4.709,17.0918a14.7555,14.7555,0,0,1-12.50489,6.42773,15.494,15.494,0,0,1-6.668-1.44921A17.44734,17.44734,0,0,1,130.73535,145.91016Zm0-3.05664a24.7168,24.7168,0,0,0,5.72656,3.41015,14.42186,14.42186,0,0,0,5.4668,1.13672,8.2851,8.2851,0,0,0,7.62305-4.27344q2.52831-4.27441,2.52929-12.82226,0-9.05567-2.45507-13.58594a7.93351,7.93351,0,0,0-7.39942-4.52734,12.05666,12.05666,0,0,0-6.17285,1.666,17.9729,17.9729,0,0,0-5.31836,4.998Z"/><path class="cls-1" d="M194.2373,86.05859a40.78517,40.78517,0,0,1,13.584-12.38671,34.87271,34.87271,0,0,1,16.83008-4.10157q16.57325,0,27.08105,11.0625,10.50879,11.06544,10.50879,28.57813,0,18.96387-11.918,31.82226a38.5319,38.5319,0,0,1-29.43066,12.85743q-21.35889,0-32.97754-16.74415-11.61913-16.74315-11.61816-47.58593,0-32.71875,13.32714-50.61719Q202.95118,21.0459,227.2998,21.04492q15.80421,0,27.76465,5.63867V46.8457h-8.457l-.1709-1.79492a75.09181,75.09181,0,0,0-.98242-9.52539,5.98121,5.98121,0,0,0-2.1748-3.20312A27.46417,27.46417,0,0,0,225.624,26.25586q-14.92529,0-23.15625,15.6582Q194.23682,57.57031,194.2373,86.05859Zm.5127,17.51368q0,19.98925,7.85938,32.46289,7.85888,12.4746,20.41894,12.47265,10.50732,0,16.40234-9.78125,5.89454-9.77929,5.89454-27.209,0-17.34375-6.02247-26.69727a19.22189,19.22189,0,0,0-17.1289-9.35547q-12.38819,0-19.90625,7.68946Q194.75,90.8418,194.75,103.57227Z"/></svg>