<svg id="圖層_1" data-name="圖層 1" xmlns="http://www.w3.org/2000/svg" viewBox="0 0 272.23633 187.63672"><defs><style>.cls-1{fill:#fff;}</style></defs><path class="cls-1" d="M5.44434,148.53711V137.72754H9.791l.0791.74609a57.33686,57.33686,0,0,0,.76367,6.62207q.25341.76758,2.05566,1.94532a14.18535,14.18535,0,0,0,7.873,2.27929,8.038,8.038,0,0,0,5.77637-2.1416,7.28494,7.28494,0,0,0,2.252-5.52246,7.14952,7.14952,0,0,0-1.48828-4.75586,13.95726,13.95726,0,0,0-5.36524-3.22266l-3.95605-1.52929q-6.38379-2.46827-9.24316-5.56641a11.00212,11.00212,0,0,1,1.27343-15.99316,16.094,16.094,0,0,1,10.51563-3.37207,37.51823,37.51823,0,0,1,12.88574,2.42871v10.14355H28.86523V119.084a31.41824,31.41824,0,0,0-.627-5.30664,4.06685,4.06685,0,0,0-1.25293-2.17382,9.66156,9.66156,0,0,0-6.14941-1.99707,7.78576,7.78576,0,0,0-5.65918,2.19043,7.36632,7.36632,0,0,0-2.252,5.51367,5.57909,5.57909,0,0,0,1.84083,4.37988q1.80029,1.68163,7.28515,3.91113l3.60254,1.49024q5.91357,2.43163,8.26465,5.01758a9.83726,9.83726,0,0,1,2.31055,6.74316,11.29627,11.29627,0,0,1-4.52344,9.27051q-4.52344,3.5874-11.76953,3.58691A34.084,34.084,0,0,1,5.44434,148.53711Z"/><path class="cls-1" d="M68.65723,150.49512A14.66008,14.66008,0,0,1,63.05664,151.71q-6.77637,0-9.88965-3.4082-3.11279-3.40724-3.11328-10.84863v-26.084h-6.2666v-3.17285h6.2666v-7.71582l7.71582-1.91895v9.63477H69.63672v3.17285H57.76953v27.10254q0,5.48438,1.4541,7.79395,1.45313,2.31151,4.95313,2.31054a11.12257,11.12257,0,0,0,4.48047-1.21387Z"/><path class="cls-1" d="M110.21289,148.81152A37.05044,37.05044,0,0,1,96.77832,151.71q-9.36034,0-15.21582-6.31152-5.855-6.31054-5.85547-16.38574,0-9.564,5.249-15.67969a16.947,16.947,0,0,1,13.47266-6.11621q7.59815,0,11.69141,5.12109,4.09131,5.12109,4.09277,14.62012v.74316H84.24609q0,9.94776,3.46582,15.01953,3.46582,5.07276,10.28125,5.07227a23.92546,23.92546,0,0,0,12.21973-2.9375Zm-25.81055-23.5h17.625l.03907-1.72265q0-7.40333-1.919-10.69239a6.694,6.694,0,0,0-6.2666-3.29q-4.34766,0-6.91309,4.26855Q84.40138,118.145,84.40234,125.31152Z"/><path class="cls-1" d="M130.73535,145.91113v10.14551q0,5.32617.85742,6.3252.85693.999,5.64844,1.35156l.74024.03906v2.42871h-22.207v-2.42871l.74414-.03906q4.73877-.353,5.62012-1.3711.88184-1.01806.88086-6.30566v-37.7168q0-5.28661-.88086-6.30566-.88036-1.01807-5.62012-1.37012l-.74414-.03906v-2.42871h14.96094v7.95508a20.33289,20.33289,0,0,1,6.38477-6.7002,14.86656,14.86656,0,0,1,8.0039-2.23437,12.93721,12.93721,0,0,1,11.03711,5.68457q4.10449,5.68359,4.10547,15.28808,0,10.6626-4.708,17.0918A14.75693,14.75693,0,0,1,143.05273,151.71a15.48734,15.48734,0,0,1-6.667-1.45019A17.44716,17.44716,0,0,1,130.73535,145.91113Zm0-3.05761a24.69325,24.69325,0,0,0,5.72754,3.41113,14.4171,14.4171,0,0,0,5.46582,1.13672,8.28843,8.28843,0,0,0,7.624-4.27442q2.52686-4.27294,2.52832-12.82129,0-9.05712-2.4541-13.58593a7.93511,7.93511,0,0,0-7.40039-4.52832,12.06623,12.06623,0,0,0-6.17285,1.666,17.977,17.977,0,0,0-5.31836,4.999Z"/><path class="cls-1" d="M181.59375,149.876V127.57813h8.458l.085,1.87988.25683,6.835a8.20754,8.20754,0,0,0,2.99024,6.15039q7.94385,6.2373,19.30664,6.23633a21.60173,21.60173,0,0,0,17.94141-8.8418q6.83349-8.84179,6.834-23.28027,0-14.436-8.96973-22.55371-8.97069-8.11524-24.86132-8.11621H193.21289V80.67676h5.6377q18.79394,0,27.29589-6.80274,8.499-6.80127,8.5-21.8623,0-12.91846-5.68066-19.33692-5.68359-6.41748-17.04394-6.418A34.27618,34.27618,0,0,0,194.75,30.46191a4.88919,4.88919,0,0,0-2.47754,2.74707,101.40188,101.40188,0,0,0-1.19531,10.8125l-.08594,1.28711h-8.458V26.001a91.36514,91.36514,0,0,1,31.09766-4.95508q17.5122,0,27.63672,7.8164,10.12353,7.81788,10.124,21.31543a29.37568,29.37568,0,0,1-6.62109,19.30762q-6.62256,8.03173-19.94824,12.90039,16.31689,4.18653,23.32226,11.96,7.00488,7.7754,7.00586,21.69922,0,17.42871-11.3623,27.6377-11.3628,10.21-30.84082,10.209a130.29369,130.29369,0,0,1-16.83008-1.02539A94.73017,94.73017,0,0,1,181.59375,149.876Z"/></svg>