<svg id="圖層_1" data-name="圖層 1" xmlns="http://www.w3.org/2000/svg" viewBox="0 0 18.62988 204.01663"><defs><style>.cls-1{fill:#494d56;}.cls-2{fill:none;stroke:#494d56;stroke-miterlimit:10;}</style></defs><path class="cls-1" d="M3.61426,1.74609H16.18555A3.0917,3.0917,0,0,0,17.71,1.53418c.166-.1416.27539-.59375.3252-1.35449L18.04492,0h.585V3.60547H12.05957A5.00245,5.00245,0,0,1,13.6748,5.20508a3.84092,3.84092,0,0,1,.53809,2.00586,3.28011,3.28011,0,0,1-1.36914,2.76465,5.997,5.997,0,0,1-3.68457,1.02929A6.62624,6.62624,0,0,1,5.041,9.8252,3.74481,3.74481,0,0,1,3.49121,6.69141a4.02452,4.02452,0,0,1,.34961-1.6709,4.34956,4.34956,0,0,1,1.04785-1.415V3.49219L3.61426,3.25586ZM5.626,3.60547a6.37272,6.37272,0,0,0-.82227,1.456A3.83938,3.83938,0,0,0,4.5293,6.45117,2.13394,2.13394,0,0,0,5.55957,8.38965a5.93784,5.93784,0,0,0,3.08984.64258,6.76,6.76,0,0,0,3.27344-.624,2.03274,2.03274,0,0,0,1.0918-1.88183A3.19975,3.19975,0,0,0,12.61328,4.957,4.49267,4.49267,0,0,0,11.4082,3.60547Z"/><path class="cls-1" d="M5.12891,19.32422a4.7889,4.7889,0,0,1-1.6377-3.28711,3.02948,3.02948,0,0,1,.82715-2.17188,2.74658,2.74658,0,0,1,2.07519-.86914,2.88551,2.88551,0,0,1,2.36231,1.13282q1.04,1.292,1.04,4.3789v.38672h1.27441q2.42579,0,2.42578-1.83984a2.36219,2.36219,0,0,0-.52929-1.51953,1.95323,1.95323,0,0,0-1.31153-.49121l-.17968-.00977V13.77051h1.8789a9.14732,9.14732,0,0,1,.8584,3.64258q0,3.34131-3.07031,3.34082H6.57031a4.92941,4.92941,0,0,0-1.72851.21191.75051.75051,0,0,0-.501.74121,1.98852,1.98852,0,0,0,.08691.501l-.70019.05664a3.668,3.668,0,0,1-.23633-1.19922Q3.49121,19.6914,5.12891,19.32422Zm.21289-.42969H9.2207v-.43359a4.24809,4.24809,0,0,0-.68261-2.56739,2.2023,2.2023,0,0,0-1.876-.9248,2.025,2.025,0,0,0-1.47852.5752,1.92789,1.92789,0,0,0-.58789,1.43457A3.60549,3.60549,0,0,0,5.3418,18.89453Z"/><path class="cls-1" d="M4.07715,31.39941a7.75058,7.75058,0,0,1-.58594-2.87793,4.74717,4.74717,0,0,1,1.50195-3.64355A5.51639,5.51639,0,0,1,8.9043,23.48145a5.44894,5.44894,0,0,1,3.8584,1.34472,4.65183,4.65183,0,0,1,1.45019,3.582,12.99278,12.99278,0,0,1-.46191,2.99121H11.30664V30.23926l.169-.00977q2.11522,0,2.11425-1.85937a2.448,2.448,0,0,0-1.22754-2.14649,6.04515,6.04515,0,0,0-3.32617-.79785,5.45326,5.45326,0,0,0-3.38183.94336A3.057,3.057,0,0,0,4.417,28.93652a6.01939,6.01939,0,0,0,.47168,2.46289Z"/><path class="cls-1" d="M8.76758,36.33594H6.17188a3.38644,3.38644,0,0,0-1.52442.19336q-.25927.19335-.32519,1.14746l-.00977.17871h-.585v-5.125h.585l.00977.17969q.0747,1.14111.32519,1.35449a3.07952,3.07952,0,0,0,1.52442.21191H16.18555A3.07947,3.07947,0,0,0,17.71,34.26465c.166-.1416.27539-.59375.3252-1.35449l.00976-.17969h.585v3.60547H9.22949v.44336l2.28418,2.3789a13.15151,13.15151,0,0,0,1.6709,1.52832q.17871,0,.19336-.51855c.00977-.34668.01367-.585.01367-.71777v-.19727h.58594v3.99414H13.3916l-.00879-.17969a3.30117,3.30117,0,0,0-.24218-1.27832,20.47587,20.47587,0,0,0-1.64747-1.77051L9.73047,38.22363,6.11426,41.2998a14.86663,14.86663,0,0,0-1.53321,1.46778,2.09846,2.09846,0,0,0-.25878,1.0332l-.00977.17871h-.585v-2.877l5.04-4.32324Z"/><path class="cls-1" d="M3.78418,56.65527a3.5288,3.5288,0,0,1-.293-1.34961,3.08661,3.08661,0,0,1,.82129-2.38281,3.80172,3.80172,0,0,1,2.61426-.75h6.28613V50.66309h.76465v1.50976h1.8584l.46289,1.85938H13.97754V56.8916h-.76465V54.03223H6.68164a3.72134,3.72134,0,0,0-1.87793.34961,1.30084,1.30084,0,0,0-.55664,1.19433,2.67079,2.67079,0,0,0,.292,1.0791Z"/><path class="cls-1" d="M3.49121,63.24316A4.596,4.596,0,0,1,4.93164,59.667a5.60893,5.60893,0,0,1,3.92578-1.3125,5.58859,5.58859,0,0,1,3.91992,1.3125,5.17947,5.17947,0,0,1,0,7.15821,5.60432,5.60432,0,0,1-3.91992,1.30664,5.613,5.613,0,0,1-3.92578-1.31153A4.5995,4.5995,0,0,1,3.49121,63.24316Zm.57617-.00488a2.42556,2.42556,0,0,0,1.35645,2.08985,6.47272,6.47272,0,0,0,3.42871.83105,6.47809,6.47809,0,0,0,3.418-.83105,2.27263,2.27263,0,0,0,0-4.169,6.469,6.469,0,0,0-3.418-.832,6.49083,6.49083,0,0,0-3.42871.82715A2.415,2.415,0,0,0,4.06738,63.23828Z"/><path class="cls-1" d="M3.78418,81.751a3.52884,3.52884,0,0,1-.293-1.34961,3.0852,3.0852,0,0,1,.82129-2.38282,3.80172,3.80172,0,0,1,2.61426-.75h6.28613V75.75781h.76465v1.51074h1.8584l.46289,1.8584H13.97754V81.9873h-.76465V79.12695H6.68164a3.709,3.709,0,0,0-1.87793.35059,1.29913,1.29913,0,0,0-.55664,1.19336,2.67471,2.67471,0,0,0,.292,1.08008Z"/><path class="cls-1" d="M3.49121,88.33887a4.59808,4.59808,0,0,1,1.44043-3.57715A5.61308,5.61308,0,0,1,8.85742,83.4502a5.59272,5.59272,0,0,1,3.91992,1.31152,5.18068,5.18068,0,0,1,0,7.15918,5.60432,5.60432,0,0,1-3.91992,1.30664A5.61308,5.61308,0,0,1,4.93164,91.916,4.59952,4.59952,0,0,1,3.49121,88.33887Zm.57617-.00489a2.42418,2.42418,0,0,0,1.35645,2.08887,6.46367,6.46367,0,0,0,3.42871.832,6.469,6.469,0,0,0,3.418-.832,2.27188,2.27188,0,0,0,0-4.168,6.46911,6.46911,0,0,0-3.418-.832A6.49083,6.49083,0,0,0,5.42383,86.25,2.41386,2.41386,0,0,0,4.06738,88.334Z"/><path class="cls-1" d="M4.88867,98.11621H2.44434a3.10424,3.10424,0,0,0-1.52442.207q-.24023.20508-.32617,1.36133L.585,99.8623H0V94.51074H.585l.00879.17969q.085,1.14258.331,1.35449a3.04421,3.04421,0,0,0,1.51954.21192h9.08789a3.04416,3.04416,0,0,0,1.51953-.21192q.24609-.2124.331-1.35449l.00879-.17969h.58594v3.60547h-1.917a4.89705,4.89705,0,0,1,1.61425,1.53906,3.58354,3.58354,0,0,1,.53809,1.92774,3.11722,3.11722,0,0,1-1.36914,2.66015,6.17206,6.17206,0,0,1-3.68457.98926A6.81069,6.81069,0,0,1,5.041,104.09766a3.5554,3.5554,0,0,1-1.54981-3.0127,3.7431,3.7431,0,0,1,.34961-1.60742A4.21869,4.21869,0,0,1,4.88867,98.11621Zm.73731,0a5.947,5.947,0,0,0-.82227,1.37988,3.4788,3.4788,0,0,0-.27441,1.31739,1.99732,1.99732,0,0,0,1.03027,1.83691,6.20024,6.20024,0,0,0,3.08984.60938,7.0899,7.0899,0,0,0,3.27344-.59082,1.913,1.913,0,0,0,1.0918-1.78321,2.90956,2.90956,0,0,0-.40137-1.48828,4.34516,4.34516,0,0,0-1.20508-1.28125Z"/><polyline class="cls-2" points="3.725 204.017 3.725 116.517 12.341 125.517"/></svg>