<svg id="圖層_1" data-name="圖層 1" xmlns="http://www.w3.org/2000/svg" viewBox="0 0 18.6218 18.62385"><defs><style>.cls-1{fill:#494d56;}.cls-2{fill:#fff;fill-rule:evenodd;}</style></defs><path class="cls-1" d="M18.6218,9.31192A9.3109,9.3109,0,1,1,9.30761,0,9.31225,9.31225,0,0,1,18.6218,9.31192Z"/><path class="cls-2" d="M14.83123,7.97981a5.66834,5.66834,0,0,0-5.5218-4.374,7.48754,7.48754,0,0,0-1.08266.11286,5.65452,5.65452,0,0,0-3.87705,8.24863.36506.36506,0,0,1,.052.28215c-.26469.86334-.50766,1.7529-.742,2.62957-.03906.152-.03906.152.10633.11287.91773-.25194,1.82679-.48166,2.74239-.71183a.2522.2522,0,0,1,.20391.01333,5.66151,5.66151,0,0,0,8.11884-6.31355Zm-4.7255,5.927a2.44445,2.44445,0,0,1-.65318.05643A4.88374,4.88374,0,0,1,6.899,13.30827a.309.309,0,0,0-.2886-.048c-.512.12619-1.011.26483-1.51869.395-.10415.03021-.115.01288-.09113-.09554.1345-.46433.26033-.94154.40789-1.42764a.35739.35739,0,0,0-.0586-.33814A4.66934,4.66934,0,0,1,5.51695,6.5215a4.48477,4.48477,0,0,1,4.78828-1.844,4.43665,4.43665,0,0,1,3.59511,3.57112A4.66876,4.66876,0,0,1,10.10573,13.90679Z"/><path class="cls-2" d="M10.79133,11.96727a1.50892,1.50892,0,0,1-.58785-.0782A5.7172,5.7172,0,0,1,7.13984,9.63718a3.20055,3.20055,0,0,1-.6574-1.33212,1.54676,1.54676,0,0,1,.50983-1.51429.88148.88148,0,0,1,.755-.11286.62958.62958,0,0,1,.12583.152c.16058.40346.332.7767.49468,1.15838a.2988.2988,0,0,1-.02386.23861,2.2166,2.2166,0,0,1-.34712.46877.21381.21381,0,0,0-.03474.31237,3.82786,3.82786,0,0,0,1.933,1.65781.22135.22135,0,0,0,.291-.06532c.1453-.16929.28837-.35146.423-.5292a.23841.23841,0,0,1,.31459-.0782c.27771.12575.551.25594.81579.37724a1.21174,1.21174,0,0,0,.19062.08709c.27993.14307.27993.1604.2475.45989a1.18112,1.18112,0,0,1-1.00909,1.03707A1.01935,1.01935,0,0,1,10.79133,11.96727Z"/></svg>