<svg id="圖層_1" data-name="圖層 1" xmlns="http://www.w3.org/2000/svg" viewBox="0 0 19.41997 126.17283"><defs><style>.cls-1{fill:none;stroke:#383838;stroke-miterlimit:10;}</style></defs><path d="M13.71,1.74609V.23584h.82129V1.74609h.49023a5.83914,5.83914,0,0,1,3.36426.75A2.83218,2.83218,0,0,1,19.42,4.95508a4.90656,4.90656,0,0,1-.69824,2.501H16.503V6.28564l.17969-.00927c.37793-.01905.66992-.02832.87793-.02832q1.25536,0,1.25488-1.36866a1.01247,1.01247,0,0,0-.55176-1.01025,5.63864,5.63864,0,0,0-2.11914-.26367H14.5313V6.17236h-.76465V3.60547h-7.041a2.88543,2.88543,0,0,0-1.52929.231A2.5856,2.5856,0,0,0,4.876,5.29492l-.00977.292h-.585V0h.585L4.876.1792q.0747,1.14185.32519,1.35449a3.08334,3.08334,0,0,0,1.52441.2124Z"/><path d="M4.045,13.043A4.59772,4.59772,0,0,1,5.4854,9.46631a5.611,5.611,0,0,1,3.92578-1.312,5.59065,5.59065,0,0,1,3.91992,1.312A4.60449,4.60449,0,0,1,14.76665,13.043a4.60215,4.60215,0,0,1-1.43555,3.582,5.60432,5.60432,0,0,1-3.91992,1.30664A5.61079,5.61079,0,0,1,5.4854,16.62012,4.59881,4.59881,0,0,1,4.045,13.043Zm.57617-.00488a2.42556,2.42556,0,0,0,1.35645,2.08984,6.46819,6.46819,0,0,0,3.42871.83154,6.47357,6.47357,0,0,0,3.418-.83154,2.42469,2.42469,0,0,0,1.36719-2.08984A2.41757,2.41757,0,0,0,12.82427,10.959a6.46913,6.46913,0,0,0-3.418-.832,6.49083,6.49083,0,0,0-3.42871.82715A2.41445,2.41445,0,0,0,4.62114,13.03809Z"/><path d="M19.18364,22.8208H6.72563a3.15537,3.15537,0,0,0-1.52929.20654q-.24464.20655-.32031,1.36133l-.00977.17774h-.585V19.21533h.585l.00977.1792q.0747,1.14258.32519,1.35449a3.07707,3.07707,0,0,0,1.52441.21241H16.73931a3.077,3.077,0,0,0,1.52441-.21241c.166-.1416.27539-.59277.3252-1.35449l.00976-.1792h.585Z"/><path d="M19.18364,28.87988H6.72563a3.15762,3.15762,0,0,0-1.52929.20606q-.24464.20653-.32031,1.36133l-.00977.17871h-.585V25.27441h.585l.00977.17969q.0747,1.14111.32519,1.354a3.07724,3.07724,0,0,0,1.52441.2124H16.73931a3.07722,3.07722,0,0,0,1.52441-.2124c.166-.14161.27539-.59327.3252-1.354l.00976-.17969h.585Z"/><path d="M4.045,36.80762A4.59879,4.59879,0,0,1,5.4854,33.23047,5.61079,5.61079,0,0,1,9.41118,31.919a5.59044,5.59044,0,0,1,3.91992,1.31152,4.60557,4.60557,0,0,1,1.43555,3.57715,4.60178,4.60178,0,0,1-1.43555,3.58154,5.60223,5.60223,0,0,1-3.91992,1.30713A5.61308,5.61308,0,0,1,5.4854,40.38477,4.59952,4.59952,0,0,1,4.045,36.80762Zm.57617-.00489a2.42544,2.42544,0,0,0,1.35645,2.08936,6.46819,6.46819,0,0,0,3.42871.83154,6.47357,6.47357,0,0,0,3.418-.83154,2.27263,2.27263,0,0,0,0-4.169,6.4691,6.4691,0,0,0-3.418-.83154,6.49083,6.49083,0,0,0-3.42871.82715A2.41386,2.41386,0,0,0,4.62114,36.80273Z"/><path d="M4.168,46.59082l7.918-2.52539a7.58584,7.58584,0,0,0,1.50586-.59961.80213.80213,0,0,0,.34472-.65576l.00879-.1792h.58594v4.60107h-.58594v-.19824q0-1.4436-.43359-1.44385a5.55414,5.55414,0,0,0-1.42481.3208L6.962,47.50586l7.5127,2.97461v.56689L6.77251,54.07422l5.3125,1.85791a6.3336,6.3336,0,0,0,1.417.38721q.44385,0,.44336-1.46289v-.208h.58594v3.35644h-.58594l-.00879-.207q-.03808-.65185-1.001-.94433-.27393-.085-.84961-.28418L4.168,53.77051v-.51758l7.7959-3.10449L4.168,47.166Z"/><path d="M4.2813,72.15234H6.20708a5.04794,5.04794,0,0,1-1.61914-1.62793,3.98662,3.98662,0,0,1-.543-2.062,2.5959,2.5959,0,0,1,.87793-2.07666,3.52012,3.52012,0,0,1,2.3877-.75488H12.086a3.04421,3.04421,0,0,0,1.51953-.21191,2.388,2.388,0,0,0,.331-1.3545l.00879-.17968h.58594v3.60546H7.60356a3.04865,3.04865,0,0,0-1.76953.41993,1.44473,1.44473,0,0,0-.58984,1.25976,3.19841,3.19841,0,0,0,.39648,1.51953,5.46784,5.46784,0,0,0,1.18848,1.46289H12.086a4.43265,4.43265,0,0,0,1.58593-.21679,2.86619,2.86619,0,0,0,.26465-1.35938l.00879-.16992h.58594v3.60547H6.72563a4.47452,4.47452,0,0,0-1.58593.21582,2.84594,2.84594,0,0,0-.26367,1.352l-.00977.17822h-.585Z"/><path d="M4.80962,77.419H7.41509v1.04736l-.18067.019a13.77528,13.77528,0,0,0-1.5957.18408q-.18457.06079-.46875.49561a3.41757,3.41757,0,0,0-.54883,1.89648,1.94069,1.94069,0,0,0,.51563,1.39258,1.75783,1.75783,0,0,0,1.331.54248,1.72381,1.72381,0,0,0,1.14649-.35888,3.36673,3.36673,0,0,0,.77636-1.293l.36817-.95313a5.92838,5.92838,0,0,1,1.34179-2.22754,2.65174,2.65174,0,0,1,3.85352.30713,3.87478,3.87478,0,0,1,.8125,2.53369,9.052,9.052,0,0,1-.585,3.10547H11.73735V83.0625h.16993a7.54248,7.54248,0,0,0,1.27832-.15088.97866.97866,0,0,0,.52441-.30224,2.3288,2.3288,0,0,0,.48145-1.48145,1.87884,1.87884,0,0,0-.52833-1.36377,1.77562,1.77562,0,0,0-1.3291-.54248,1.34268,1.34268,0,0,0-1.05468.44336,6.25657,6.25657,0,0,0-.94239,1.75537l-.35937.86865a5.62374,5.62374,0,0,1-1.209,1.99121,2.37037,2.37037,0,0,1-1.625.55664,2.72284,2.72284,0,0,1-2.23437-1.08984A4.42877,4.42877,0,0,1,4.045,80.91113,8.21069,8.21069,0,0,1,4.80962,77.419Z"/><line class="cls-1" x1="0.0012" y1="102.39278" x2="18.6218" y2="102.39278"/></svg>