<svg id="圖層_1" data-name="圖層 1" xmlns="http://www.w3.org/2000/svg" viewBox="0 0 272.23633 187.63672"><defs><style>.cls-1{fill:#fff;}</style></defs><path class="cls-1" d="M5.44434,148.53711V137.72754H9.791l.0791.74609a57.33686,57.33686,0,0,0,.76367,6.62207q.25341.76758,2.05566,1.94532a14.18535,14.18535,0,0,0,7.873,2.27929,8.038,8.038,0,0,0,5.77637-2.1416,7.28494,7.28494,0,0,0,2.252-5.52246,7.14952,7.14952,0,0,0-1.48828-4.75586,13.95726,13.95726,0,0,0-5.36524-3.22266l-3.95605-1.52929q-6.38379-2.46827-9.24316-5.56641a11.00212,11.00212,0,0,1,1.27343-15.99316,16.094,16.094,0,0,1,10.51563-3.37207,37.51823,37.51823,0,0,1,12.88574,2.42871v10.14355H28.86523V119.084a31.41824,31.41824,0,0,0-.627-5.30664,4.06685,4.06685,0,0,0-1.25293-2.17382,9.66156,9.66156,0,0,0-6.14941-1.99707,7.78576,7.78576,0,0,0-5.65918,2.19043,7.36632,7.36632,0,0,0-2.252,5.51367,5.57909,5.57909,0,0,0,1.84083,4.37988q1.80029,1.68163,7.28515,3.91113l3.60254,1.49024q5.91357,2.43163,8.26465,5.01758a9.83726,9.83726,0,0,1,2.31055,6.74316,11.29627,11.29627,0,0,1-4.52344,9.27051q-4.52344,3.5874-11.76953,3.58691A34.084,34.084,0,0,1,5.44434,148.53711Z"/><path class="cls-1" d="M68.65723,150.49512A14.66008,14.66008,0,0,1,63.05664,151.71q-6.77637,0-9.88965-3.4082-3.11279-3.40724-3.11328-10.84863v-26.084h-6.2666v-3.17285h6.2666v-7.71582l7.71582-1.91895v9.63477H69.63672v3.17285H57.76953v27.10254q0,5.48438,1.4541,7.79395,1.45313,2.31151,4.95313,2.31054a11.12257,11.12257,0,0,0,4.48047-1.21387Z"/><path class="cls-1" d="M110.21289,148.81152A37.05044,37.05044,0,0,1,96.77832,151.71q-9.36034,0-15.21582-6.31152-5.855-6.31054-5.85547-16.38574,0-9.564,5.249-15.67969a16.947,16.947,0,0,1,13.47266-6.11621q7.59815,0,11.69141,5.12109,4.09131,5.12109,4.09277,14.62012v.74316H84.24609q0,9.94776,3.46582,15.01953,3.46582,5.07276,10.28125,5.07227a23.92546,23.92546,0,0,0,12.21973-2.9375Zm-25.81055-23.5h17.625l.03907-1.72265q0-7.40333-1.919-10.69239a6.694,6.694,0,0,0-6.2666-3.29q-4.34766,0-6.91309,4.26855Q84.40138,118.145,84.40234,125.31152Z"/><path class="cls-1" d="M130.73535,145.91113v10.14551q0,5.32617.85742,6.3252.85693.999,5.64844,1.35156l.74024.03906v2.42871h-22.207v-2.42871l.74414-.03906q4.73877-.353,5.62012-1.3711.88184-1.01806.88086-6.30566v-37.7168q0-5.28661-.88086-6.30566-.88036-1.01807-5.62012-1.37012l-.74414-.03906v-2.42871h14.96094v7.95508a20.33289,20.33289,0,0,1,6.38477-6.7002,14.86656,14.86656,0,0,1,8.0039-2.23437,12.93721,12.93721,0,0,1,11.03711,5.68457q4.10449,5.68359,4.10547,15.28808,0,10.6626-4.708,17.0918A14.75693,14.75693,0,0,1,143.05273,151.71a15.48734,15.48734,0,0,1-6.667-1.45019A17.44716,17.44716,0,0,1,130.73535,145.91113Zm0-3.05761a24.69325,24.69325,0,0,0,5.72754,3.41113,14.4171,14.4171,0,0,0,5.46582,1.13672,8.28843,8.28843,0,0,0,7.624-4.27442q2.52686-4.27294,2.52832-12.82129,0-9.05712-2.4541-13.58593a7.93511,7.93511,0,0,0-7.40039-4.52832,12.06623,12.06623,0,0,0-6.17285,1.666,17.977,17.977,0,0,0-5.31836,4.999Z"/><path class="cls-1" d="M185.78027,150.98633V129.62891h8.457l.08594,2.05957q0,10.0415,3.417,13.5166,3.416,3.47607,13.24219,3.47461,11.87256,0,18.752-9.19434,6.876-9.19482,6.877-25.02051,0-18.81738-10.84961-26.30371-10.8501-7.48387-37.8457-7.48437V24.292h63.73144V38.98633H193.127V74.35449h7.85938q26.65577,0,39.98242,10.124,13.32716,10.12353,13.32715,30.456,0,18.28272-12.30176,28.62012-12.30322,10.3374-34.00195,10.33691A90.91628,90.91628,0,0,1,185.78027,150.98633Z"/></svg>