<svg id="圖層_1" data-name="圖層 1" xmlns="http://www.w3.org/2000/svg" xmlns:xlink="http://www.w3.org/1999/xlink" viewBox="0 0 1451.72296 65.11667"><defs><style>.cls-1{mask:url(#mask);}.cls-2{fill:#e66446;}.cls-3{filter:url(#luminosity-noclip);}</style><filter id="luminosity-noclip" x="0" y="-1.80866" width="1451.72296" height="69.51987" filterUnits="userSpaceOnUse" color-interpolation-filters="sRGB"><feFlood flood-color="#fff" result="bg"/><feBlend in="SourceGraphic" in2="bg"/></filter><mask id="mask" x="0" y="-1.80866" width="1451.72296" height="69.51987" maskUnits="userSpaceOnUse"><g class="cls-3"><path d="M562.79483,2.50972a2.4016,2.4016,0,0,0,.5223.0302l.6077.0094c.2886-.0279.5404-.1005.5596-.1613a2.60751,2.60751,0,0,0-.0449-.7398l-.1001-.5288c-.0503-.2855-.2062-.5354-.3466-.5553a.96655.96655,0,0,0-.7277.4484l-.3219.9319C562.86683,2.22412,562.79753,2.49412,562.79483,2.50972Z"/><path d="M617.29783,61.56572a.59129.59129,0,0,0,.6925.3352l.8421-.3165a.64826.64826,0,0,0,.3126-.7308l-.4494-1.3281a3.29456,3.29456,0,0,0-.2381-.5097,1.187,1.187,0,0,0-.5024.2423l-.7496.5453a.84633.84633,0,0,0-.2382.8275Z"/><path d="M576.33533,54.40772c-.0168.2869.1141.5626.2909.6126a4.69616,4.69616,0,0,0,1.1843.073l.5996-.0787a3.48537,3.48537,0,0,0,.5233-.0954,4.48741,4.48741,0,0,0-.1683-.5351l-.4115-1.2404a.6223.6223,0,0,0-.677-.4063l-.6231.0943a.77187.77187,0,0,0-.5979.5994Z"/><path d="M642.75923,39.58132a.576.576,0,0,0-.6137-.0076c-.1352.1156-.2721.5363-.035.6115l1.6594.5194c.2365.0769.3292.0121.2061-.1439A10.44792,10.44792,0,0,0,642.75923,39.58132Z"/><path d="M616.21483,13.18732a.45255.45255,0,0,0-.172-.0199.74758.74758,0,0,0-.1293.5105l.0618,1.0712c.0077.2684.1288.3007.2691.0717l.4933-.86c.1186-.2409.1378-.4826.0427-.5369S616.269,13.20472,616.21483,13.18732Z"/><path d="M683.72993,45.77742a2.27861,2.27861,0,0,0-.4447.2755c-.1181.0968-.335.4528-.2046.5737s.5931.2604.7162.0183l.2373-.512a1.9569,1.9569,0,0,0,.206-.4637A1.96763,1.96763,0,0,0,683.72993,45.77742Z"/><path d="M772.24153,21.70372c.1645-.1869.0968-.3638-.1505-.3931l-.4737-.0865a.86487.86487,0,0,0-.6572.1756c-.1142.1258-.3084.5956-.1804.7372s.7176.307.898.1352Z"/><path d="M547.63043,36.70232c.2089.0764.3949-.106.4132-.4055l.0178-.8464c.0203-.2993-.1189-.3546-.3094-.1228l-.482.6065C547.10223,36.18282,547.42143,36.62592,547.63043,36.70232Z"/><path d="M663.22623,31.17892c.0228-.1452-.1398-.389-.3613-.5418l-.9913-.6846c-.2258-.1464-.4431-.161-.4828-.0323a1.05577,1.05577,0,0,0,.3061.7976l.9706.6547A.40276.40276,0,0,0,663.22623,31.17892Z"/><path d="M637.35843,53.39512a.269.269,0,0,0,.3076-.0996c.0811-.1013.1628-.458.0186-.519s-.5491-.1325-.5619-.0048A1.2251,1.2251,0,0,0,637.35843,53.39512Z"/><path d="M616.97593,53.532c.2369-.1139.3434-.2923.2366-.3964a1.35987,1.35987,0,0,0-.7502-.3257c-.2046.0362-.7506.3183-.7315.5062s.3593.6043.5968.4916Z"/><path d="M662.11053,44.63272c-.0019.1323.2117.3375.4747.4559l.57.2805c.2609.1228.5283.1527.5943.0666a.72231.72231,0,0,0-.1762-.6949l-.7171-.6204c-.2287-.1757-.4678-.269-.5315-.2072A2.3757,2.3757,0,0,0,662.11053,44.63272Z"/><path d="M716.81933,2.99522a1.32186,1.32186,0,0,0-.0508.4771,4.93968,4.93968,0,0,0,.5267.4223l2.5844,1.7593c.2422.172.4408.3118.4414.3106s-.1409-.201-.3156-.4413l-2.316-3.1726c-.1817-.235-.3843-.3889-.4501-.3421A4.41784,4.41784,0,0,0,716.81933,2.99522Z"/><path d="M663.64973,16.13332a.61087.61087,0,0,0,.5044-.4169c.0562-.211.13-.8291.0143-.8885a.70609.70609,0,0,0-.695.2595l-.3458.6414C663.01273,15.97772,663.42863,16.15162,663.64973,16.13332Z"/><path d="M757.00983,42.71122c.0815-.2514.055-.4946-.0588-.5404a.42823.42823,0,0,0-.4717.3531l-.0613,1.3193c-.0146.264-.0252.4794-.0234.4788a.20545.20545,0,0,0,.0277-.037c.0116-.0191.1137-.2752.2012-.5246Z"/><path d="M704.225,60.47362c-.1219-.0102-.3202.1979-.4406.4624s-.1181,1.0834.1723,1.1368l2.465.5159a.57291.57291,0,0,0,.6464-.247c.065-.1881-.0186-.8207-.2863-.9453l-1.6086-.7008A5.58712,5.58712,0,0,0,704.225,60.47362Z"/><path d="M678.00673,7.37062a.14305.14305,0,0,0-.0091.0595,3.34418,3.34418,0,0,0,.4095.3998l.629.5418c.2296.1801.483.2562.5629.1692a.5114.5114,0,0,0-.2488-.6057l-.8366-.4027A1.41731,1.41731,0,0,0,678.00673,7.37062Z"/><path d="M804.50113,33.45192a.63664.63664,0,0,0,.2261.0109.77068.77068,0,0,0,.3074-.5595l.12-.9002c.0312-.2886-.0329-.5465-.1425-.5733a.53327.53327,0,0,0-.4779.4362l-.1598,1A.78022.78022,0,0,0,804.50113,33.45192Z"/><path d="M732.11553,10.39822c-.064.1003.0359.3466.222.5474l.6936.7148c.1992.1878.4478.2905.5526.2281a.74555.74555,0,0,0,.2549-.5559,1.88012,1.88012,0,0,0-.5948-.7641A2.18522,2.18522,0,0,0,732.11553,10.39822Z"/><path d="M775.48443,48.85542a.58874.58874,0,0,0,.1571.3707.53036.53036,0,0,0,.4666-.0987l.7876-.9411a.34156.34156,0,0,0-.0471-.4506l-.4977-.3343a.39243.39243,0,0,0-.462.1152l-.3232.4611A2.33907,2.33907,0,0,0,775.48443,48.85542Z"/><path d="M900.16993,46.37322a1.72265,1.72265,0,0,0,.5201-.3216l.7937-.6418a.83242.83242,0,0,0,.1886-.829l-.4789-1.1983a1.13431,1.13431,0,0,0-.3608-.511,1.89846,1.89846,0,0,0-.7426.0795c-.2422.0893-.8301.6688-.7839.9459l.4689,1.9852A.82246.82246,0,0,0,900.16993,46.37322Z"/><path d="M846.42393-1.03358a.63921.63921,0,0,0-.3117.7391l.2627.7216a.4723.4723,0,0,0,.6758.2192l2.4297-1.2988a1.41371,1.41371,0,0,0,.4445-.3084,2.21181,2.21181,0,0,0-.3645-.3848,2.18145,2.18145,0,0,0-1.1414-.4557,11.23918,11.23918,0,0,0-1.493.5156Z"/><path d="M601.38423,42.81872c.2421-.0787.2695-.2626.0611-.4087l-.8042-.4763a.26006.26006,0,0,0-.4318.2152l-.0147.5446a.359.359,0,0,0,.4859.3197Z"/><path d="M788.77723,60.16192a1.44046,1.44046,0,0,0,.2824.4156l.6703.8396a.49578.49578,0,0,0,.6451.098l1.0945-.7121c.2066-.1271.3535-.3486.3264-.4922s-.3294-.5209-.5718-.5096l-1.9965.1438A.67955.67955,0,0,0,788.77723,60.16192Z"/><path d="M863.50223,9.62692a1.33584,1.33584,0,0,0-.1683-.9107l-.8248-1.0605c-.1634-.2244-.3224-.3892-.3534-.3663a1.4588,1.4588,0,0,0-.1272.5895l-.0386,2.9138c.0068.2775.0186.514.0262.5256a1.01732,1.01732,0,0,0,1.2309-.5939Z"/><path d="M849.16123-1.21128c-.0733-.2561-.2656-.4314-.4273-.3895s-.5777.457-.5528.7222l.126,1.0106c.046.2624.2393.3994.4295.3044s.6689-.6353.6076-.8946Z"/><path d="M646.807,1.52382a.40978.40978,0,0,0,.5283-.2917l.41-1.5803c.0575-.2366-.0386-.2916-.2135-.1223l-1.1083,1.2042C646.26593.91932,646.57773,1.44862,646.807,1.52382Z"/><path d="M873.04633,21.02062a.6237.6237,0,0,0,.1674-.7511c-.1291-.2339-.7144-.8273-.9265-.8021a1.882,1.882,0,0,0-.9899.5859l-.9045,1.8103a.95474.95474,0,0,0-.1536.6325.515.515,0,0,0,.6249.0559Z"/><path d="M656.14133,36.46042a1.34281,1.34281,0,0,0-.5217.0009l-.558.0317c-.2848.031-.4837.1101-.442.1758a.78634.78634,0,0,0,.6333.1137A5.50154,5.50154,0,0,0,656.14133,36.46042Z"/><path d="M670.54713,46.69812a.54772.54772,0,0,0,.1677.6873c.2098.1324.8638.1081.8565-.1641l-.0622-1.6834c-.009-.2722-.1341-.3057-.2781-.0745Z"/><path d="M707.52113,28.78012c.0899.1834.203.2073.2512.0532s.0279-.6084-.0947-.6261S707.43123,28.59672,707.52113,28.78012Z"/><path d="M807.68133,65.23562a1.13513,1.13513,0,0,0,.3838-.1554c.1877-.0999.4577-.436.2819-.4817s-.6619-.0646-.6789.0817A2.30421,2.30421,0,0,0,807.68133,65.23562Z"/><path d="M630.79243,7.55782c.0277-.2414-.0816-.2902-.2428-.1084l-.6231.7373c-.1449.195-.1176.403.0607.4623s.7181.0097.7466-.2316Z"/><path d="M854.39463,31.27432c.0096.2422.148.2911.3076.1087l1.5714-1.9542a.28625.28625,0,0,0-.1735-.4718l-1.467-.3951a.3313.3313,0,0,0-.416.352Z"/><path d="M771.13673,18.68782a.76913.76913,0,0,0,.061.1627.87658.87658,0,0,0,.6333.2514l1.638-.0899a2.15779,2.15779,0,0,0,.5106-.0525,1.45329,1.45329,0,0,0-.5049-.1021l-1.8237-.1778A1.92028,1.92028,0,0,0,771.13673,18.68782Z"/><path d="M716.16593,27.551a.34718.34718,0,0,0,.0521.553l1.2395.9677c.197.1496.4119.2256.4776.1688a.61691.61691,0,0,0-.0133-.5972l-.8194-1.1927C716.95013,27.25582,716.33683,27.393,716.16593,27.551Z"/><path d="M879.48083,52.21842a.30724.30724,0,0,0,.3506.4213l1.0053-.0641a.74213.74213,0,0,0,.5993-.3573c.0606-.1698-.0062-.7036-.2646-.783l-.7951-.2282a.61777.61777,0,0,0-.6618.3671Z"/><path d="M784.23213,6.10862c.1849.0266.3558-.0047.3796-.0696a1.41028,1.41028,0,0,0-.0264-.5642c-.0559-.1757-.34-.58-.5372-.5091s-.6592.3438-.6102.4862A2.0437,2.0437,0,0,0,784.23213,6.10862Z"/><path d="M875.70023,6.16132c-.1757.2129-.2917.4642-.2579.5584a.71043.71043,0,0,0,.5949.2833c.2522-.0353.8337-.431.7119-.6737S875.87593,5.94842,875.70023,6.16132Z"/><path d="M696.88453,24.79662c.0893.0908.307-.033.4836-.2751l.9598-1.2424c.179-.2404.2867-.4814.2393-.5355s-.3474-.0126-.5494.2088l-1.0636,1.0994A.71359.71359,0,0,0,696.88453,24.79662Z"/><path d="M621.845,55.23762a1.77853,1.77853,0,0,0-.2744.8606s.0007.1989-.01.4557a.47709.47709,0,0,0,.4532.491l.934.0696a.52544.52544,0,0,0,.5478-.4307l.2036-1.1253a.73734.73734,0,0,0-.3151-.7053c-.2183-.1315-.9871-.2876-1.1577-.091Z"/><path d="M764.23033,6.65272c.07.0661.3193.0007.5541-.1453l.446-.2664c.2379-.1409.4197-.2957.404-.3441s-.2715-.0815-.5222.035l-.6762.2782C764.185,6.32622,764.16033,6.58662,764.23033,6.65272Z"/><path d="M715.99823,10.51792c-.0933.0597-.0186.2487.1661.42l.3202.3354c.1839.1721.3674.2514.4077.1763a.658.658,0,0,0-.0813-.5414C716.682,10.75962,716.09153,10.45832,715.99823,10.51792Z"/><path d="M734.82373,26.11632c.2596.1059.3598-.0075.2227-.252l-.7652-1.2693a.32474.32474,0,0,0-.5736-.0023c-.156.2292-.3701.9773-.1108,1.0837Z"/><path d="M723.04123,40.59862c-.04.1787.1287.4022.3749.4969l.7957.2857c.2541.0708.4648.1239.4683.118a4.923,4.923,0,0,0-.1146-.484l-.1351-.601c-.0637-.256-.2747-.4547-.4689-.4416A1.88868,1.88868,0,0,0,723.04123,40.59862Z"/><path d="M693.21253,9.632c.0894.0857.2892.0396.4441-.1023s.2806-.4208.0742-.3803S693.12313,9.54642,693.21253,9.632Z"/><path d="M909.28443,5.66642a.514.514,0,0,0,.465.4968c.2477.0134.8526-.2316.7391-.4653l-.3804-.8436c-.113-.234-.2882-.3795-.3895-.3233a1.181,1.181,0,0,0-.4145.6556C909.28313,5.43852,909.28443,5.66642,909.28443,5.66642Z"/><path d="M867.54453,8.07972c-.2592.0394-.396.233-.3041.4303s.6245.7183.884.6812l.8934-.1359c.2576-.0487.408-.2404.3343-.426s-.5625-.6817-.8236-.6583Z"/><path d="M647.32743,34.64942a1.22881,1.22881,0,0,0-.3564-.0217c-.1814.0042-.6925.1003-.7445.2371s-.0092.4479.2313.3802a3.75077,3.75077,0,0,0,.8322-.3269A.75953.75953,0,0,0,647.32743,34.64942Z"/><path d="M777.65463,26.74932c-.2103.1612-.3011.3986-.2017.5276a4.92916,4.92916,0,0,0,.4801.4709,1.19,1.19,0,0,0,.4738-.2425l2.0297-1.5114c.2088-.1632.2447-.3825.08-.4871s-.8189-.251-1.0317-.093Z"/><path d="M879.00813,5.26222a1.93721,1.93721,0,0,0,.598.4531l.6108.3389a.77568.77568,0,0,0,.8599-.0956l.8191-.7406a.77406.77406,0,0,0,.151-.8513l-.678-1.2238a.42646.42646,0,0,0-.6791-.0772l-1.5318,1.4162A.86352.86352,0,0,0,879.00813,5.26222Z"/><path d="M742.65733,19.33652a.5471.5471,0,0,0,.128.6719l.6086.5604c.2113.1721.4266.1126.4783-.1322s.0879-1.0087-.0719-1.1443S742.78483,19.15442,742.65733,19.33652Z"/><path d="M705.13183,12.97982c-.0316.0527.0895.2485.2692.4352l.4486.471c.1884.1777.3926.2719.4536.2093a1.59949,1.59949,0,0,0,.214-.3315.956.956,0,0,0-.3767-.3832l-.4884-.3243C705.43373,12.917,705.16343,12.92722,705.13183,12.97982Z"/><path d="M677.052,37.37782a.40764.40764,0,0,0,.3589.5648l1.0427.1337a.36509.36509,0,0,0,.4089-.4797l-.4252-1.6378c-.0644-.2899-.1761-.5328-.2481-.5399a.89857.89857,0,0,0-.4908.4648Z"/><path d="M611.57663,26.34012a2.86512,2.86512,0,0,0,.2803.3706.53426.53426,0,0,0,.4746.0986,2.67992,2.67992,0,0,0,.5357-.4723.568.568,0,0,0-.0945-.4765l-.9393-.9219c-.1185-.1143-.2772-.1661-.3527-.1151a1.47226,1.47226,0,0,0-.3249.3383.91136.91136,0,0,0,.0386.5296Z"/><path d="M592.54083,14.64292a.67.67,0,0,0,.3433.3797c.1382.052.5656.0774.6193-.0463s-.0577-.5542-.278-.6199S592.49033,14.48612,592.54083,14.64292Z"/><path d="M721.68073,62.02582c.0441-.124-.155-.2948-.4425-.3796l-1.6346-.4978a2.10559,2.10559,0,0,0-.5301-.1231,1.71226,1.71226,0,0,0,.4579.3369l1.4518.8215A.60892.60892,0,0,0,721.68073,62.02582Z"/><path d="M727.06473,29.506a1.08455,1.08455,0,0,0,.1135-.3945c.0254-.1775-.0273-.7056-.1919-.7857l-.5625-.2851a.47734.47734,0,0,0-.5242.1043l-.3626.4321a.27.27,0,0,0,.1013.4155l.9865.5123A.55475.55475,0,0,0,727.06473,29.506Z"/><path d="M749.82543,53.82222c.189-.1145.1883-.1804-.0014-.1464s-.7107.2034-.6966.2709S749.63653,53.93682,749.82543,53.82222Z"/><path d="M628.159,54.78692c.092.2641.2338.4299.315.3683a1.23422,1.23422,0,0,0,.3148-.6577c.0075-.2416-.1572-.918-.3355-.9241s-.6011.2784-.5062.5416Z"/><path d="M539.77493,50.71912a.37286.37286,0,0,0,.0027-.4091,3.8,3.8,0,0,0-.3784-.4209c-.0294-.0124-.204.128-.3224.3407s-.3945.8373-.3184.9277.3622.2765.4408.2146A7.97205,7.97205,0,0,0,539.77493,50.71912Z"/><path d="M789.37213,55.06232a1.2052,1.2052,0,0,0-.2053.4933,2.84845,2.84845,0,0,0,.5728.276l.9689.3739c.2636.0924.5528.0815.6427-.0242a2.25631,2.25631,0,0,0,.3465-.788c.016-.2112-.1272-.8575-.3778-.9808l-.6965-.3412a.63842.63842,0,0,0-.7507.2186Z"/><path d="M581.86,35.16562c-.0358.0646.0504.2844.1915.4885s.6437.709.7577.6331.2367-.4651.0283-.6325l-.4758-.4102C582.15523,35.07482,581.89583,35.101,581.86,35.16562Z"/><path d="M605.433,43.67372a.88472.88472,0,0,0,.6656.4481,3.80726,3.80726,0,0,0,1.1437-.2264c.1673-.1067.5293-.587.4114-.8391l-.2964-.6195a.85532.85532,0,0,0-.7562-.3885l-1.1116.1639c-.2726.0556-.4971.1559-.4989.2228a3.12333,3.12333,0,0,0,.205.7082Z"/><path d="M634.36023,50.25412c-.2041.2073-.1849.3216.0427.2541s.8325-.3861.7935-.5045S634.56433,50.04682,634.36023,50.25412Z"/><path d="M684.34633,21.93312a.73.73,0,0,0,.5295-.6053l.041-.5397a.60253.60253,0,0,0-.4747-.5876c-.2683-.0497-1.0848.1524-1.1523.4175l-.1948.9986a.36314.36314,0,0,0,.4336.4229Z"/><path d="M687.98053,32.727c.1136-.1394.0255-.3794-.1956-.5333l-.6837-.4455c-.2185-.1576-.3011-.0883-.1835.1542l.4063.8201C687.45763,32.95652,687.867,32.86642,687.98053,32.727Z"/><path d="M557.21963,63.58242c.1699-.2371.184-.5164.0314-.6206s-.734-.2305-.874-.0887a3.67126,3.67126,0,0,0-.6212,1.0698l-.1089.5399c-.0667.284-.0484.5349.0406.5575a.98062.98062,0,0,0,.6549-.3379Z"/><path d="M566.42613,64.39222c-.1686.188-.2288.4438-.1338.5686a1.26725,1.26725,0,0,0,.8053.3896l.9145-.209a.52867.52867,0,0,0,.3782-.544,4.84,4.84,0,0,0-.3406-1.0162c-.0774-.1081-.3368-.3935-.4006-.3845a1.53612,1.53612,0,0,0-.5251.393Z"/><path d="M752.71333,19.15482c-.244-.0551-.4621-.0275-.4848.0612a1.48841,1.48841,0,0,0,.0761.6598,4.93652,4.93652,0,0,0,.6499.9378l.466.3937a.34514.34514,0,0,0,.5492-.1332l.4857-1.0908a.3937.3937,0,0,0-.3059-.5194Z"/><path d="M556.34113,57.37212c.0109.0659.2328.1378.4931.1597l1.2713.1463c.2602.0238.5131-.0583.562-.1825a1.64257,1.64257,0,0,0,.0966-.5l-.0222-.0133a11.24609,11.24609,0,0,0-1.542-.7549.50453.50453,0,0,0-.6243.164A4.18711,4.18711,0,0,0,556.34113,57.37212Z"/><path d="M663.26173,23.80832c.0961-.1248.1756-.2335.1768-.2415a2.98327,2.98327,0,0,0-.2446-.3409c-.137-.1717-.6113-.5515-.6788-.4746a1.78788,1.78788,0,0,0-.267.6345,1.52868,1.52868,0,0,0,.1103.7386c.0938.0716.4404.1784.5488.069Z"/><path d="M631.23423,60.55452c-.1644-.2106-.3753-.3515-.4685-.3131a.66537.66537,0,0,0-.2194.6203l.2591.9295a.51378.51378,0,0,0,.5839.3451c.2303-.0615.7199-.4638.5487-.6689Z"/><path d="M668.58023,54.58112c.0874-.0322.1983-.2947.2465-.5834a5.54053,5.54053,0,0,0-.0257-1.5445c-.0953-.2452-.4339-.797-.5714-.7485a1.17579,1.17579,0,0,0-.5492.7348l-.1181,1.6835c-.0104.3006.087.5565.2163.5686A4.41309,4.41309,0,0,0,668.58023,54.58112Z"/><path d="M621.17163,62.10252a.63435.63435,0,0,0-.5588.1561l-1.1492.9264a.50415.50415,0,0,0-.09.6444c.1336.1907.7262.4711.8688.2711l1.0532-1.4006A.4958.4958,0,0,0,621.17163,62.10252Z"/><path d="M789.80913,36.49712a.668.668,0,0,0-.674.3493l-1.6858,2.9676a.41818.41818,0,0,0,.2526.6202c.2741.0806,1.2313-.0161,1.3815-.2682l.8411-1.4598a4.675,4.675,0,0,0,.3684-.9449C790.35543,37.49962,790.03173,36.55832,789.80913,36.49712Z"/><path d="M554.72513,54.84242a.62714.62714,0,0,0,.1041-.4004l.0487-2.9505c-.0001-.1843-.0675-.3068-.1499-.2722l-.0775.0403a5.172,5.172,0,0,0-.507.3.73087.73087,0,0,0-.2842.5232l-.0446,2.4672a1.76088,1.76088,0,0,0,.0408.4327.295.295,0,0,0,.2729.1366A5.36257,5.36257,0,0,0,554.72513,54.84242Z"/><path d="M779.77073,44.38382c-.0933-.2578-.2943-.4335-.4467-.3904s-.5782.208-.5872.2815a1.09892,1.09892,0,0,0,.1634.5104c.1005.13.4581.4589.5999.4573S779.86393,44.64162,779.77073,44.38382Z"/><path d="M556.25213,37.19032a.076.076,0,0,0-.0165.0321c.0009.004.0141-.0048.0232-.0225S556.262,37.17662,556.25213,37.19032Z"/><path d="M690.01073-.16348a1.524,1.524,0,0,0,.1777.5311c.1036.2048.5982.6847.8723.5846l1.1551-.3869a.40914.40914,0,0,0,.213-.6298l-.3661-.6139a.651.651,0,0,0-.7664-.2629l-.7565.2734A1.02582,1.02582,0,0,0,690.01073-.16348Z"/><path d="M549.11373,36.81212c.0036-.0105-.0389-.2612-.0944-.5569l-.2266-1.382c-.0472-.2972-.1382-.5388-.2022-.5367a1.06605,1.06605,0,0,0-.4448.5228l-.4161,1.274a.51825.51825,0,0,0,.3389.6479A5.20573,5.20573,0,0,0,549.11373,36.81212Z"/><path d="M775.94453,49.23822a.8223.8223,0,0,0,.0565.3528,3.79972,3.79972,0,0,0,.5682.1462l1.2225.22a.67457.67457,0,0,0,.665-.3814l.2634-.7058a.30105.30105,0,0,0-.3393-.4156l-1.9784.1185C776.13893,48.593,775.93973,49.06032,775.94453,49.23822Z"/><path d="M761.21293,21.49012a1.28017,1.28017,0,0,0-.4351.2942,1.5334,1.5334,0,0,0,.3528.4779l1.327,1.1456c.1973.1817.3449.1114.328-.1563l-.1877-1.8172a.37724.37724,0,0,0-.5352-.2969Z"/><path d="M773.76513,14.89512a1.8573,1.8573,0,0,0,.1402-.7708,1.25185,1.25185,0,0,0-.5443-.7361c-.2536-.082-1.0846-.0168-1.204.2462l-.5316,1.3008c-.0919.2738-.0956.5422-.0082.5964a1.52942,1.52942,0,0,0,2.1479-.6365Z"/><path d="M680.13373,39.15672a1.12927,1.12927,0,0,0-.2164-.4045,1.49417,1.49417,0,0,0-.148.5037l-.2499,2.4418a.35443.35443,0,0,0,.4331.3816l.862-.1893a.42123.42123,0,0,0,.2582-.5714Z"/></g></mask></defs><g class="cls-1"><path class="cls-2" d="M721.33017,38.14558a.97841.97841,0,0,1-.91648-1.05266c0-.9232-.20979-.9232-.20979-1.84639,0-.92625.03377-.92625.03377-1.8525,0-.92472.236-.92472.236-1.84944,0-.926-.01984-.926-.01984-1.85192,0-.927-.05922-.927-.05922-1.854,0-.92568.05762-.92568.05762-1.85136,0-.92786-.19465-.92786-.19465-1.85571,0-.92934.076-.92934.076-1.85869s.03907-.92935.03907-1.85869a.90479.90479,0,0,1,.95755-.92793c.83813,0,.83813-.01073,1.67627-.01073s.83813-.143,1.67627-.143a1.15766,1.15766,0,0,1,1.0959,1.08168c0,.92319-.21625.92319-.21625,1.84638,0,.92625-.00234.92625-.00234,1.8525,0,.92472.27184.92472.27184,1.84944,0,.926-.28016.926-.28016,1.85192,0,.927.27717.927.27717,1.854,0,.92569-.06967.92569-.06967,1.85137,0,.92785-.00279.92785-.00279,1.8557,0,.92935.022.92935.022,1.85869s-.05752.92935-.05752,1.8587a.97573.97573,0,0,1-1.03814.93006c-.83814,0-.83723.10453-1.67518.12208C722.169,38.16262,722.1683,38.14558,721.33017,38.14558Z"/><path class="cls-2" d="M729.10263,38.06092a.94084.94084,0,0,1-.96207-.968c0-.9232-.00383-.9232-.00383-1.84639,0-.92625.07984-.92625.07984-1.8525,0-.92472-.04205-.92472-.04205-1.84944,0-.926-.08186-.926-.08186-1.85192,0-.927.07978-.927.07978-1.854,0-.92568.01279-.92568.01279-1.85136,0-.92786-.05505-.92786-.05505-1.85571,0-.92934-.12869-.92934-.12869-1.85869s-.01551-.92935-.01551-1.85869c0-.55274.56392-.85812,1.11665-.85812.83814,0,.83814-.24849,1.67627-.24849s.83814-.00036,1.67627-.00036a1.01078,1.01078,0,0,1,.89125,1.107c0,.92319.22982.92319.22982,1.84638,0,.92625-.22729.92625-.22729,1.8525,0,.92472.17988.92472.17988,1.84944,0,.926.00093.926.00093,1.85192,0,.927.00695.927.00695,1.854,0,.92569-.07381.92569-.07381,1.85137,0,.92785.03873.92785.03873,1.8557,0,.92935.07044.92935.07044,1.85869s-.14906.92935-.14906,1.8587a1.04924,1.04924,0,0,1-.96784,1.08536c-.83813,0-.83913-.00207-1.67719-.01273C729.93968,38.15488,729.94077,38.06092,729.10263,38.06092Z"/><path class="cls-2" d="M705.65439,36.99026c-.6118-.00005-1.22239.1088-1.81966.08392-.61107-.02546-1.20255-.27445-1.79779-.32561-.60962-.05239-1.22567.01788-1.818-.06117-.607-.081-1.17094-.37807-1.7591-.48675-.60219-.11128-1.23681-.029-1.81843-.16894-.59508-.14318-1.19843-.25229-1.77113-.42511-.5854-.17664-1.08927-.57953-1.65039-.78674-.57285-.21154-1.16091-.36065-1.7075-.60362-.55753-.24784-1.14522-.427-1.67442-.707-.53893-.28524-1.07347-.58169-1.582-.89989-.51586-.32283-.88613-.85044-1.36952-1.2067-.48865-.36012-1.02412-.64753-1.47844-1.04132-.45775-.39675-.98093-.7262-1.40264-1.15659-.42294-.43164-.774-.93449-1.1595-1.39942-.38475-.46405-.71189-.97332-1.05815-1.47-.34542-.49552-.6759-.97876-.97385-1.465-.31548-.51491-.68911-.9789-.95365-1.48278-.28045-.53417-.41976-1.11728-.64567-1.63827-.24029-.55413-.6324-1.03487-.81427-1.57316-.19328-.57207-.31359-1.15843-.44481-1.71147a17.20644,17.20644,0,0,1-.29877-1.73819,15.46218,15.46218,0,0,1-.032-1.76043,15.501,15.501,0,0,1-.0664-1.76322,13.8359,13.8359,0,0,1,.53516-1.68893,14.03961,14.03961,0,0,1,.3766-1.70579,14.34508,14.34508,0,0,1,.56353-1.67614,13.774,13.774,0,0,1,.98281-1.46971,13.6103,13.6103,0,0,1,1.1346-1.3413,13.13782,13.13782,0,0,1,1.3055-1.163A18.04928,18.04928,0,0,1,683.9601,2.9487a17.23238,17.23238,0,0,1,1.61337-1.07416,17.70005,17.70005,0,0,1,1.82138-.66206,15.17048,15.17048,0,0,1,1.77847-.785,15.65845,15.65845,0,0,1,1.92123-.29935,15.3606,15.3606,0,0,1,1.93582-.12584,16.05329,16.05329,0,0,1,1.80077.04912,16.9248,16.9248,0,0,1,1.7576.39044,17.8913,17.8913,0,0,1,1.72353.49236c.55892.18537,1.10118.42853,1.66026.67231.53861.23486,1.044.54566,1.58266.83463.51727.27751,1.13712.39976,1.6543.72709.49474.31313.86354.83042,1.35811,1.18907.47431.34395,1.01857.60966,1.49263.99541.455.3702.97779.682,1.43246,1.09068.43688.39266.91328.76734,1.34983,1.19544.42.41185.80807.87688,1.22767,1.32148.40384.42791.82823.85647,1.23168,1.31467.38862.44136.66368.99478,1.05189,1.46422.37524.45375.678.9755,1.05283,1.45546.36312.465.80942.87626,1.1721,1.36582.35189.475.82519.87487,1.17662,1.37294.34055.48263.5408,1.07365.8809,1.57794q.497.73692.993,1.50368c.322.49812.55916,1.05757.88071,1.57512.09863.1582.35927.26252.35927.449,0,.7861.04212.7861.04212,1.5722,0,.78737-.03842.78737-.03842,1.57474s-.13.78737-.13,1.57474a1.06059,1.06059,0,0,1-.58651,1.03154,1.18406,1.18406,0,0,1-.37014.03575,1.03082,1.03082,0,0,1-.71342-.47857c-.3761-.45574-.75552-.92647-1.15612-1.389-.38873-.44885-.945-.76063-1.35453-1.2121-.40051-.44157-.82924-.86186-1.24745-1.30242-.41176-.43375-.7073-.98488-1.13418-1.4143-.4229-.42543-.83182-.87052-1.26758-1.28846-.43425-.41648-.9566-.7403-1.40165-1.14614-.44592-.40663-.85-.85848-1.30483-1.2512-.45808-.39556-1.0015-.68336-1.4666-1.06154-.47088-.38289-.91942-.78264-1.39543-1.14433-.48445-.36812-.88822-.83643-1.37581-1.179-.499-.35059-1.06806-.583-1.568-.90306-.51566-.33014-1.03859-.62243-1.55272-.91593-.53333-.30447-1.00891-.689-1.53776-.94937-.55344-.2725-1.1274-.46431-1.6727-.68327-.57446-.23066-1.159-.3634-1.7207-.52848a14.41273,14.41273,0,0,0-1.74116-.41778,11.1056,11.1056,0,0,0-1.78-.1909,9.26624,9.26624,0,0,0-2.20687.10745,8.24991,8.24991,0,0,0-2.02767.89027,4.667,4.667,0,0,0-1.3055,1.11085,5.87862,5.87862,0,0,0-.71349,1.5432,6.86162,6.86162,0,0,0-.46648,1.61576,8.02885,8.02885,0,0,0-.11131,1.64414,9.16447,9.16447,0,0,0,.1264,1.6636,11.07021,11.07021,0,0,0,.69356,1.51952,11.83791,11.83791,0,0,0,.576,1.56983,13.75492,13.75492,0,0,0,.88937,1.42488,15.92935,15.92935,0,0,0,1.16978,1.20509c.43318.45324.85556.90175,1.29773,1.30925.461.42487,1.02867.70289,1.49722,1.08053.48778.39314.85426.92575,1.34769,1.27053.513.35844,1.0955.59137,1.61175.90073.53731.322,1.02685.70934,1.56451.98172.558.28265,1.154.46036,1.70874.6936.57725.2427,1.11841.554,1.68819.74774.59316.20166,1.20408.31354,1.7846.46718.60745.16076,1.183.42412,1.77141.53811.619.11992,1.25482.06252,1.84675.13742.6285.07953,1.24707.00976,1.8379.04658.63749.03972,1.2423.15746,1.827.15746.60882,0,1.20605.16746,1.77228.13536.61306-.03476,1.18427-.29544,1.741-.35852.62085-.07035,1.20844-.11194,1.7504-.20477.636-.10894,1.20146-.28012,1.715-.39992.68732-.16036,1.269-.269,1.70536-.40329.09668-.0293.20076.1073.29939.1073.21094,0,.50679-.18409.68062-.05616.25586.18848.21232.60527.21232.92265,0,.69165.18342.69165.18342,1.3833s.00076.69165.00076,1.3833a1.18591,1.18591,0,0,1-.82731,1.09363c-.58386.13352-1.21848.00665-1.79619.12234-.58777.11771-1.12991.451-1.71071.5502-.59094.10091-1.19438.09633-1.77745.178-.59333.08309-1.19329.05443-1.7778.11749-.59655.06437-1.18761.07987-1.77426.12329-.59756.04422-1.17744.26612-1.764.28851-.599.02286-1.19366-.05715-1.78029-.05715Z"/><path class="cls-2" d="M680.46591,64.995c-.18359,0-.43044.1921-.58962.09347a1.14933,1.14933,0,0,1-.38648-.72547c-.22254-.94967-.11226-.97552-.33484-1.92519-.22293-.95119-.336-.9247-.55889-1.87589s-.36-.91907-.583-1.87024c-.06153-.26172.22039-.51084.36395-.73838.14355-.22657.2782-.44956.53991-.5062.01172-.002.07365-.12534.08537-.12729.29576-.05315.8924-.19662,1.75369-.389.5018-.11206,1.096-.20852,1.75813-.376.53332-.1349,1.13607-.20341,1.75977-.37779.54529-.15245,1.09313-.41663,1.6988-.60151.55024-.168,1.18182-.16557,1.77549-.36194.55174-.18251,1.11234-.4071,1.69652-.61547.55026-.19627,1.08508-.4824,1.65991-.70271.54845-.2102,1.16-.30059,1.72722-.53361.54555-.22413,1.10816-.44446,1.6678-.69053.54173-.2382.98245-.72148,1.53447-.981.53707-.25248,1.12735-.40979,1.67149-.68314.53159-.267,1.05687-.56,1.59271-.84757.52525-.28192,1.0474-.57969,1.5744-.882.518-.29713,1.06231-.55938,1.5798-.87676.50966-.31258.97522-.70152,1.48225-1.03429.50012-.32824,1.12391-.484,1.61943-.83238.48976-.34436.936-.761,1.41933-1.12557.47841-.36087.84368-.871,1.31386-1.25216.46594-.37771,1.04481-.62531,1.50082-1.02342.45174-.39439.89094-.811,1.33114-1.22591.43681-.41168.7989-.90451,1.22259-1.33681.42016-.42869.77421-.91927,1.17976-1.36868a1.12174,1.12174,0,0,1,.77435-.235,10.61409,10.61409,0,0,0,1.59741-.11977c.60732-.12963,1.145-.30868,1.5334-.42446.0518-.01548.05542-.00269.10724-.01809.09375-.02734.1574-.24877.25212-.24877.27149,0,.44159.297.634.50014a.966.966,0,0,1,.36075.95941c-.04512.12336-.41478.64808-.9059,1.58272-.23664.45036-.529.97553-.89871,1.571-.28942.46624-.50611,1.04778-.88753,1.58765-.32618.46167-.6628.97019-1.06249,1.47656-.35589.45087-.84369.834-1.26218,1.314-.38125.43728-.85017.82363-1.28659,1.28035-.40348.42225-.67049,1.01026-1.12366,1.44543-.42327.40646-.86686.82492-1.33552,1.23966-.44106.39029-.87134.82727-1.35429,1.2224-.45713.374-1.00172.66814-1.49781,1.04436-.4717.35771-1.06379.57264-1.572.93055-.48389.34082-.84967.87856-1.36768,1.218-.496.325-1.00652.65712-1.53469.97949-.507.30943-1.12407.45686-1.66156.76267-.51709.2942-1.0496.57924-1.59564.869-.52633.27931-1.05406.57544-1.608.84968-.5348.26479-1.10108.48279-1.66217.742-.54256.25064-.994.73144-1.56163.97607-.54853.23639-1.197.26015-1.7694.49023-.55429.22278-1.04791.62886-1.62508.84509-.55992.20977-1.15638.35061-1.73822.55363-.56543.1973-1.1993.21573-1.78579.40612-.57036.18515-1.1207.45631-1.71131.63444-.57377.17305-1.151.36125-1.7442.52722-.57875.16194-1.15387.36828-1.75139.523-.5822.15081-1.17833.27919-1.77861.42282C680.62282,65.12789,680.544,64.995,680.46591,64.995Z"/><path class="cls-2" d="M745.419,36.0687c-.66226,0-1.29986-.224-1.92047-.246-.66649-.02364-1.30592-.01574-1.9194-.05935-.67413-.04792-1.31825-.04119-1.92184-.10612-.685-.07368-1.33936-.03179-1.92412-.11715-.71092-.10379-1.31189-.40425-1.8583-.5075a.86949.86949,0,0,1-.77822-.88495c0-1.32325-.05128-1.32325-.05128-2.64649a.93755.93755,0,0,1,.401-.7156.90881.90881,0,0,1,.59566-.25058c.06055,0,.147-.16846.20751-.15772.61263.11317,1.19649.36488,1.80557.45074.618.0871,1.22945.20891,1.84173.26766.62092.05959,1.24174.09363,1.85466.1238.62356.0307,1.24487-.08049,1.85792-.08049.59989,0,1.19309.03249,1.78246.004q.8985-.04346,1.779-.1305c.59606-.05916,1.17089-.22454,1.75543-.31385.59127-.09033,1.20385-.03319,1.78315-.15429.58456-.12221,1.13177-.38568,1.70394-.53915.5759-.15446,1.20274-.13572,1.76591-.32179.56534-.18678,1.05208-.58915,1.60439-.80771.55271-.21872,1.19433-.23376,1.73381-.48422.5383-.24993,1.07907-.51549,1.604-.797.52242-.28013.95021-.73514,1.4592-1.04643.5047-.30867,1.02493-.59666,1.51623-.93591.48669-.33607,1.02846-.60757,1.50182-.97358.46739-.3614.93562-.737,1.38985-1.12757.43064-.37039.84316-.75684,1.21463-1.14761a13.89668,13.89668,0,0,0,.89184-1.417,13.553,13.553,0,0,0,1.10495-1.25758,10.04978,10.04978,0,0,0,.47419-1.60478,8.24348,8.24348,0,0,0,.39541-1.579,7.13561,7.13561,0,0,0,.16207-1.62479,5.89336,5.89336,0,0,0-.39971-1.667,5.2478,5.2478,0,0,0-.79774-1.51689,5.275,5.275,0,0,0-1.32677-1.08455,14.51805,14.51805,0,0,0-1.52605-.93819,12.81362,12.81362,0,0,0-1.68215-.6194,12.00405,12.00405,0,0,0-1.74295-.402,11.80133,11.80133,0,0,0-1.78363-.11106,12.71606,12.71606,0,0,0-1.77251.02352,14.4258,14.4258,0,0,0-1.73955.36067,17.1852,17.1852,0,0,0-1.62253.72141c-.54535.211-1.20092.18932-1.73619.454-.52455.25934-.96252.701-1.47555,1.00513-.50426.299-1.08826.48849-1.57964.82449-.485.33164-.82249.87389-1.29325,1.23556-.46743.35912-.99451.64349-1.44627,1.02633q-.67692.57366-1.32934,1.17379c-.43645.4025-.96908.70609-1.38641,1.12067-.42286.42009-.8221.864-1.22362,1.29031-.41078.43617-.65041,1.0202-1.037,1.45637-.40064.452-.89091.8123-1.26359,1.257-.39035.46584-.65345,1.01549-1.01081,1.4651-.3821.48072-.82168.88836-1.16327,1.34049-.37665.49855-.6553,1.0285-.979,1.479-.37526.52226-.87813.89266-1.17665,1.33027a.85558.85558,0,0,1-.7384.43878c-.09864,0-.19974.05091-.29739.02064a.98636.98636,0,0,1-.679-.96308c0-.7596-.10409-.7596-.10409-1.5192,0-.76083.06828-.76083.06828-1.52165s-.10575-.76083-.10575-1.52165c0-.1543.2585-.2548.32686-.39347.27407-.55119.50724-1.11378.79384-1.6455.29211-.542.40937-1.177.714-1.69835.31063-.53165.839-.92461,1.16207-1.43435.32961-.52013.58986-1.076.93178-1.57288.34907-.50724.77275-.95032,1.134-1.43278.369-.49282.70423-.99979,1.08526-1.46622.38971-.47706.67455-1.03634,1.07609-1.48521.41086-.45929.93489-.80453,1.35735-1.2337.43278-.43965.8953-.83348,1.33941-1.24086.45457-.417.86448-.87052,1.33-1.253.47635-.39135,1.02479-.67145,1.51165-1.02589.49793-.36251.84638-.93356,1.35425-1.25665.51941-.33043,1.19344-.386,1.72213-.67435.54005-.29453,1.0019-.72272,1.55045-.97239.5595-.25466,1.1512-.41494,1.71827-.62194.576-.21027,1.13577-.45275,1.71826-.61281.59014-.16217,1.17722-.3367,1.77264-.44625.60032-.11046,1.202-.253,1.80631-.30888.60609-.056,1.22387.03434,1.83249.03434.571,0,1.12764.12569,1.689.17755.56735.05243,1.14784-.02377,1.70288.08082.55864.10527,1.08986.32374,1.63356.481.54485.15761,1.12287.2257,1.65023.43468.52606.20846.99834.54586,1.50452.8046.50281.257.98608.54716,1.46684.853.4755.30246,1.02217.51509,1.47375.86446a15.54742,15.54742,0,0,1,1.33774,1.19072,13.5901,13.5901,0,0,1,1.09038,1.4132,12.48918,12.48918,0,0,1,1.02727,1.44477A11.6405,11.6405,0,0,1,776.438,9.6517a11.60426,11.60426,0,0,1,.66389,1.65917,12.07871,12.07871,0,0,1,.06508,1.78684,12.5329,12.5329,0,0,1,.04224,1.87843,14.40071,14.40071,0,0,1-.18355,1.883,16.54628,16.54628,0,0,1-.50986,1.82641,18.27447,18.27447,0,0,1-.61291,1.80149c-.25881.56494-.66665,1.07352-.98682,1.6272-.31152.53874-.68718,1.04738-1.05439,1.56987-.3585.51008-.65326,1.08325-1.0626,1.57266-.40052.47888-.899.88367-1.34617,1.33789-.42013.42689-.75983.93507-1.19766,1.32562-.44622.398-.97639.69452-1.43885,1.05638-.47031.368-.9258.75229-1.41064,1.08453-.49223.33732-1.03868.58415-1.54352.88633-.51164.30627-.99585.6548-1.518.92677-.52888.27551-1.11135.43064-1.6484.67284-.5435.24512-1.1.43785-1.64916.6508-.55592.21556-1.07168.525-1.63069.70963-.56631.187-1.16411.24915-1.7307.40654-.57514.15975-1.09725.5109-1.66967.64229-.58325.13388-1.19236.126-1.76962.2328-.58943.109-1.17243.21369-1.75225.29685-.594.0852-1.17263.24019-1.75289.30092-.59975.06277-1.19155.14266-1.77268.18221-.60212.041-1.19781.02865-1.77553.0479C746.58654,36.03732,745.99328,36.0687,745.419,36.0687Z"/><path class="cls-2" d="M773.64924,65.03156c-.603-.04214-1.1777-.32594-1.76371-.38569-.60141-.06132-1.22241.10728-1.80608.02824-.599-.08111-1.16264-.34968-1.74318-.44855-.59576-.10147-1.17144-.25288-1.748-.37208-.59168-.12233-1.18054-.20944-1.75228-.34939-.5867-.14362-1.185-.21151-1.751-.37256-.58078-.16526-1.15355-.335-1.71281-.51737-.57389-.18716-1.15082-.3488-1.70238-.55268-.566-.20922-1.08656-.51615-1.6294-.74154-.55751-.23148-1.0697-.54106-1.60317-.78806-.54831-.25387-1.08466-.50579-1.608-.77437-.53785-.276-1.09315-.49826-1.60507-.788-.52637-.29792-1.07307-.54661-1.57252-.85706-.51394-.31945-.98249-.69439-1.46846-1.02494-.50079-.34064-1.0767-.56475-1.54838-.91482-.48659-.36114-.90438-.802-1.36063-1.17055-.47166-.381-.937-.75726-1.37691-1.14339-.45608-.40029-.78388-.92309-1.20666-1.32568-.44038-.41935-.84846-.8472-1.25361-1.26546-.42461-.43835-.99116-.72474-1.37811-1.15779-.40812-.45675-.63008-1.05094-.9975-1.497-.39273-.47677-.87625-.85386-1.22393-1.31255-.37515-.49495-.59987-1.06573-.92438-1.53233-.36029-.51805-.91578-.86679-1.2161-1.34005-.34553-.5445-.4643-1.17127-.73412-1.64172-.339-.59112-.58992-1.12856-.81642-1.57464-.49849-.98173-.78666-1.54242-.80055-1.57875a1.07121,1.07121,0,0,1,.08777-1.09571c.19239-.20508.53231-.13279.80477-.13279.09864,0,.19985-.10465.29751-.07438a13.85779,13.85779,0,0,0,1.59088.24328,16.00949,16.00949,0,0,0,1.5939.16264c.31933.01953.56026.35645.73214.627.32257.5073.811.89921,1.16484,1.38634.35274.48557.64824,1.01028,1.03174,1.47563.38112.46245.68841.99365,1.09955,1.436.40746.43835.89791.80141,1.33453,1.21983.43164.41364.90375.78478,1.36356,1.17877.45346.38855.949.72477,1.42956,1.09406.473.36351.85366.85989,1.35263,1.20459.4902.33864,1.06448.5585,1.57943.87885.50555.31449,1.02411.61154,1.55325.90827.51908.29109.98884.686,1.53038.95988.531.26854,1.1243.42036,1.67662.67223.54141.24689,1.011.67827,1.57269.909.55052.22618,1.20957.19147,1.77937.40206.5585.20641,1.08047.5289,1.6573.72024q.848.28128,1.72181.5417c.571.16946,1.15355.31963,1.7411.475.57562.15223,1.17532.227,1.76665.36568.57984.136,1.16434.2679,1.75913.3907.58375.12052,1.17513.22034,1.77314.32813.58715.10583,1.14415.4281,1.74491.52159.58914.09168,1.18883.16915,1.79093.24889.59216.07843,1.2117-.01663,1.81627.05019.59393.06564,1.19691.08055,1.80269.13494.32129.02929.49967.36506.66275.64338a.88964.88964,0,0,1,.13566.84831c-.3328.74325-.45085.69038-.78373,1.43359-.33367.74495-.12835.83691-.462,1.58186-.3342.74616-.34153.74287-.67573,1.489s-.32674.7495-.661,1.49562a1.04776,1.04776,0,0,1-.98412.52045C773.70419,64.87762,773.67268,65.03254,773.64924,65.03156Z"/><path class="cls-2" d="M1.08978,33.11912A.95179.95179,0,0,1,.212,32.06429c0-.808.02209-.808.02209-1.616C.23413,29.63844,0,29.63844,0,28.82856c0-.81119.02312-.81119.02312-1.62237S.01174,26.395.01174,25.58382a1.07761,1.07761,0,0,1,1.078-1.00978c.89741,0,.89741.07845,1.79481.07845s.89748.038,1.795.038.89757-.12957,1.79514-.12957.89765.13068,1.79531.13068.89775.03413,1.7955.03413.89785-.03132,1.7957-.03132.89794-.11116,1.79588-.11116.898-.05314,1.7961-.05314.89815.19215,1.7963.19215.89826-.10216,1.79652-.10216.89837-.18442,1.79674-.18442.89849.08918,1.797.08918.89861-.0347,1.79721-.0347.89873-.04937,1.79746-.04937.89885.21616,1.7977.21616.899-.09285,1.798-.09285.89911.05942,1.79822.05942.89925.01463,1.7985.01463.89938.06218,1.79877.06218.89953.00962,1.79906.00962.89967-.04434,1.79935-.04434.89982.04364,1.79965.04364.9-.24444,1.79995-.24444c.90014,0,.90014.02431,1.80027.02431.90029,0,.90029.22341,1.80059.22341s.90045-.21771,1.80091-.21771.90044.152,1.80088.152.90029.07215,1.80059.07215.90015-.049,1.80031-.049.9.04954,1.8.04954.89989-.12913,1.79977-.12913.89976-.006,1.79952-.006.89964-.01776,1.79927-.01776.89952-.082,1.799-.082.8994.07986,1.7988.07986.89928-.03279,1.79856-.03279.89918.14524,1.79835.14524.89907.02693,1.79814.02693.899-.1593,1.79794-.1593.89887.14952,1.79774.14952.89878-.03749,1.79755-.03749.89869.06664,1.79738.06664.8986-.09532,1.7972-.09532.89852-.01226,1.797-.01226.89844.02853,1.79689.02853.89837.07088,1.79673.07088.8983-.15557,1.7966-.15557.89824-.071,1.79647-.071.89818.04278,1.79635.04278.89811.15587,1.79623.15587.89806-.18972,1.79613-.18972.898.17136,1.796.17136.898-.014,1.79594-.014.89793-.05737,1.79586-.05737.89789-.10193,1.79579-.10193.89786.0925,1.79572.0925.89784.12687,1.79568.12687.89781-.19951,1.79562-.19951.8978.01636,1.79559.01636.89778.19255,1.79556.19255.89778-.2538,1.79555-.2538.89776.04924,1.79553.04924.89777.14027,1.79553.14027.89777-.01051,1.79554-.01051.89778-.13259,1.79556-.13259.89779-.04272,1.79558-.04272.89781.23949,1.79562.23949.89784.00479,1.79567.00479.89786-.02077,1.79572-.02077.89789-.12663,1.79578-.12663.89793.06817,1.79586.06817.898.07571,1.79594.07571.898-.26074,1.796-.26074.89807.22963,1.79614.22963.89812-.09609,1.79624-.09609.89819.03293,1.79637.03293.89825-.15453,1.7965-.15453.89833.15286,1.79665.15286.89839.02346,1.79679.02346.89848.08045,1.797.08045.89856-.13705,1.79712-.13705.89866-.07777,1.79731-.07777.89876.00269,1.79751.00269.89885.01514,1.7977.01514.899.09393,1.79792.09393.89907.11043,1.79814.11043.89919-.17177,1.79838-.17177.89931.02385,1.79862.02385.89944-.122,1.79888-.122.89957.14585,1.79914.14585.89971.00844,1.79942.00844.89986.09523,1.79971.09523c.9,0,.9.01067,1.8.01067.90016,0,.90016-.06653,1.80032-.06653.90032,0,.90032-.0291,1.80064-.0291.90049,0,.90049-.116,1.801-.116.90065,0,.90065.16669,1.80131.16669.90084,0,.90084-.22813,1.80168-.22813s.901.03436,1.80192.03436c.9008,0,.9008-.03518,1.8016-.03518.90064,0,.90064.21726,1.80128.21726s.9005-.19637,1.801-.19637.90035.24221,1.8007.24221.90021.014,1.80042.014.90008-.073,1.80016-.073.9-.06291,1.79991-.06291.89983.14523,1.79966.14523.89972-.04447,1.79944-.04447.89961-.08086,1.79922-.08086.89951-.02348,1.799-.02348.89941.02112,1.79883.02112.89932-.09043,1.79865-.09043.89924.1964,1.79849.1964.89917-.0016,1.79834-.0016.8991-.18181,1.79819-.18181.899.18113,1.79808.18113.899.00425,1.798.00425.89893-.18859,1.79786-.18859.89889-.08923,1.79777-.08923.89885.12567,1.79771.12567.89882.1253,1.79764.1253.8988-.06261,1.7976-.06261.89878-.04616,1.79756-.04616.89878.12978,1.79755.12978.89878-.00879,1.79755-.00879.89878-.04905,1.79755-.04905.8988-.07559,1.79759-.07559.89881.14411,1.79762.14411.89883.00029,1.79767.00029.89887-.08485,1.79774-.08485.89891-.06293,1.79782-.06293.899-.09382,1.79793-.09382.899.228,1.798.228.89908-.1492,1.79816-.1492.89916-.07868,1.79831-.07868.89923-.00946,1.79846-.00946.89932.21773,1.79864.21773.89941-.02314,1.79882-.02314.89952-.052,1.799-.052.89963-.17624,1.79925-.17624.89975.04011,1.79949.04011.89987.25937,1.79974.25937.9-.10723,1.8-.10723.90014-.09824,1.80029-.09824c.9003,0,.9003.10708,1.8006.10708s.90045-.09347,1.80091-.09347c.90062,0,.90062.12313,1.80125.12313.9008,0,.9008-.15306,1.8016-.15306.901,0,.901-.07062,1.802-.07062.90118,0,.90118.14743,1.80236.14743s.90126.098,1.80253.098c.90109,0,.90109-.15722,1.80218-.15722.90092,0,.90092.20445,1.80184.20445.90076,0,.90076-.16832,1.80152-.16832s.90061.16581,1.80122.16581.90047-.21684,1.80094-.21684.90034.02209,1.80068.02209.90022.08791,1.80043.08791.90011-.15007,1.80021-.15007.9.07408,1.8.07408.8999.17594,1.79981.17594.89982-.222,1.79964-.222.89975.00767,1.79949.00767.89968-.07476,1.79936-.07476.89963.16751,1.79926.16751.89958.08549,1.79916.08549.89954-.24849,1.79909-.24849.89952.06884,1.799.06884.89951.19111,1.799.19111.89951-.02581,1.799-.02581.89951.01931,1.799.01931.89953-.25656,1.79905-.25656.89956.18637,1.79911.18637.89959-.04365,1.79918-.04365.89964-.1187,1.79928-.1187.8997-.02,1.7994-.02.89977.04646,1.79954.04646.89985.10631,1.79971.10631.89994-.12874,1.79989-.12874.90005.02772,1.8001.02772.90017-.03073,1.80034-.03073.9003.15782,1.80059.15782.90044-.07047,1.80088-.07047c.90059,0,.90059.15752,1.80118.15752.90075,0,.90075-.06116,1.8015-.06116.90093,0,.90093-.07724,1.80186-.07724.90112,0,.90112-.055,1.80224-.055.90131,0,.90131.07992,1.80263.07992.90153,0,.90153.02511,1.80307.02511.90139,0,.90139.06807,1.80278.06807.90121,0,.90121-.216,1.80242-.216.901,0,.901.21565,1.80207.21565.90088,0,.90088-.1112,1.80176-.1112.90073,0,.90073-.011,1.80146-.011s.90061-.1063,1.80121-.1063.90048.1559,1.801.1559.90038.07956,1.80076.07956.90028.01581,1.80057.01581.90022-.03373,1.80043-.03373.90015.05,1.8003.05.9001-.08579,1.80021-.08579.90007-.1081,1.80014-.1081.9.05346,1.8001.05346.90005-.14222,1.80009-.14222.90006.22345,1.80012.22345.90008-.14,1.80017-.14.90012.11707,1.80025.11707.90018-.19534,1.80037-.19534.90025.05353,1.80051.05353.90034.19487,1.80069.19487.90045.004,1.8009.004.90057-.0239,1.80114-.0239.90071-.18874,1.80142-.18874c.90086,0,.90086.11946,1.80172.11946.901,0,.901.03273,1.80207.03273.90122,0,.90122-.0103,1.80244-.0103.90143,0,.90143-.0607,1.80286-.0607.90165,0,.90165.04218,1.8033.04218s.90162-.02043,1.80324-.02043c.90141,0,.90141-.01795,1.80283-.01795.90124,0,.90124.10951,1.80248.10951.90107,0,.90107-.04733,1.80214-.04733s.90093-.04908,1.80186-.04908.90081-.052,1.80161-.052.9007.02165,1.80139.02165.90062.01386,1.80123.01386.90054.03024,1.80109.03024.90049-.13046,1.801-.13046.90047.19523,1.80094.19523.90047-.21264,1.80093-.21264.90048.0866,1.801.0866.90051.07254,1.801.07254.90057-.05837,1.80114-.05837.90065.03027,1.8013.03027.90076-.06759,1.80151-.06759.90087.04757,1.80175.04757.901-.09562,1.802-.09562c.90118,0,.90118.20025,1.80237.20025.90138,0,.90138.01794,1.80276.01794.9016,0,.9016-.02622,1.80319-.02622.90184,0,.90184.05472,1.80367.05472s.90171-.1931,1.80342-.1931c.9015,0,.9015.15,1.803.15.90132,0,.90132-.11777,1.80264-.11777.90117,0,.90117-.06971,1.80234-.06971s.901.0467,1.80208.0467.90094.0223,1.80187.0223.90086.09665,1.80173.09665.90081-.1958,1.80162-.1958.90079.059,1.80159.059.90079-.05475,1.80159-.05475.90084-.01095,1.80167-.01095.9009.27211,1.80179.27211.901-.15956,1.802-.15956.90112.16216,1.80223.16216c.90127,0,.90127-.11227,1.80253-.11227.90145,0,.90145-.15531,1.8029-.15531.90167,0,.90167.25609,1.80333.25609.90192,0,.90192-.16017,1.80383-.16017s.90184.17507,1.80367.17507c.90162,0,.90162-.2668,1.80324-.2668.90144,0,.90144.18326,1.80288.18326s.90129-.179,1.80259-.179.90117.01258,1.80235.01258.9011.11547,1.8022.11547.90106.1271,1.80212.1271.901-.2744,1.80211-.2744.90108.23106,1.80217.23106.90115-.23032,1.80231-.23032.90126.04461,1.80253.04461.90141.08929,1.80282.08929c.9016,0,.9016-.07722,1.8032-.07722.89841,0,.89841.164,1.79682.164s.89844-.18542,1.79689-.18542.89852.12566,1.79705.12566.89864-.02626,1.79729-.02626c.89881,0,.89881.08876,1.79763.08876.899,0,.899-.00861,1.798-.00861.89929,0,.89929.0005,1.79857.0005.8996,0,.8996.07319,1.79919.07319.89994,0,.89994-.08064,1.79989-.08064.90035,0,.90035-.12035,1.8007-.12035.9008,0,.9008.0052,1.80161.0052.9013,0,.9013.038,1.80261.038.90187,0,.90187.09714,1.80373.09714.90243,0,.90243-.13238,1.80485-.13238.9019,0,.9019.11686,1.80379.11686.90143,0,.90143-.21082,1.80285-.21082.901,0,.901.0156,1.802.0156.90065,0,.90065.25663,1.8013.25663.90036,0,.90036-.16747,1.80072-.16747.90012,0,.90012.11885,1.80025.11885.89995,0,.89995-.10037,1.7999-.10037s.89985-.07592,1.79969-.07592.89981-.03457,1.79961-.03457.89984.0837,1.79967.0837.89993.1653,1.79986.1653c.9001,0,.9001-.04233,1.8002-.04233.90034,0,.90034-.01,1.80068-.01.90066,0,.90066.064,1.80131.064.90105,0,.90105-.05258,1.8021-.05258.90152,0,.90152-.002,1.803-.002.90207,0,.90207-.176,1.80414-.176.90271,0,.90271.0246,1.80542.0246.90245,0,.90245.08285,1.8049.08285.90194,0,.90194-.07243,1.80388-.07243.90151,0,.90151-.06521,1.803-.06521.90119,0,.90119.21577,1.80237.21577.90095,0,.90095-.06345,1.80189-.06345s.90082.04289,1.80163.04289.90078-.04294,1.80156-.04294.90086-.14834,1.80171-.14834c.901,0,.901.25812,1.80207.25812.90133,0,.90133-.2517,1.80265-.2517.90174,0,.90174.21012,1.80347.21012.90227,0,.90227-.19672,1.80453-.19672.90292,0,.90292-.04358,1.80583-.04358s.90281.20793,1.80561.20793c.90226,0,.90226.00167,1.80453.00167.90186,0,.90186.044,1.80372.044.9016,0,.9016-.12037,1.8032-.12037s.90149-.10615,1.803-.10615.90153.10593,1.80306.10593c.90172,0,.90172-.01523,1.80344-.01523.90209,0,.90209-.01184,1.80417-.01184.90262,0,.90262.168,1.80524.168.90333,0,.90333.00342,1.80666.00342.90284,0,.90284-.063,1.80569-.063.90236,0,.90236.00818,1.80472.00818.90207,0,.90207-.06521,1.80415-.06521s.902-.03,1.804-.03c.90216,0,.90216.1397,1.80432.1397.90253,0,.90253-.14693,1.80506-.14693.90316,0,.90316.103,1.80631.103s.90327-.19756,1.80653-.19756c.9027,0,.9027.08967,1.80541.08967.90243,0,.90243.00024,1.80487.00024s.90245-.107,1.8049-.107c.90278,0,.90278.06869,1.80556.06869.90343,0,.90343.01094,1.80687.01094.90324,0,.90324-.08891,1.80648-.08891.90279,0,.90279.02805,1.80559.02805s.90274.06925,1.80548.06925c.9031,0,.9031.00187,1.8062.00187.90379,0,.90379.08132,1.80757.08132.90223,0,.90223-.05355,1.80445-.05355.90121,0,.90121-.10183,1.80242-.10183.90074,0,.90074.197,1.80148.197s.90084-.19079,1.80169-.19079c.90156,0,.90156.1726,1.80313.1726.903,0,.903-.10931,1.80591-.10931.90392,0,.90392.18134,1.80783.18134.90255,0,.90255-.13052,1.80509-.13052.902,0,.902-.0163,1.80406-.0163.90246,0,.90246.04506,1.80492.04506.90391,0,.90391.09422,1.80783.09422.90374,0,.90374-.22007,1.80749-.22007.903,0,.903.01049,1.8059.01049.90357,0,.90357.206,1.80714.206.90461,0,.90461-.13906,1.80921-.13906.9036,0,.9036.04877,1.8072.04877.90465,0,.90465-.09126,1.8093-.09126.90415,0,.90415-.00249,1.8083-.00249.905,0,.905.18886,1.81.18886.90445,0,.90445-.01031,1.80891-.01031.90225,0,.90225-.16046,1.8045-.16046.90523,0,.90523.19249,1.81046.19249.90375,0,.90375-.034,1.80749-.034.90495,0,.90495-.00739,1.8099-.00739.906,0,.906-.20438,1.812-.20438.90468,0,.90468.00617,1.80937.00617.9068,0,.9068-.0006,1.8136-.0006.90826,0,.90826.03728,1.81653.03728s.90826.11122,1.81652.11122a1.11709,1.11709,0,0,1,1.05565.50032,8.332,8.332,0,0,0,.8047,1.81816c.36822.519.7682,1.084,1.20751,1.5966.44953.52449.99752.95717,1.43772,1.39482a13.5581,13.5581,0,0,0,1.44849,1.38013c.36523.2461.70472.64506.57581,1.066a1.13549,1.13549,0,0,1-1.07187.69146c-.89727,0-.89727-.01035-1.79455-.01035s-.89734-.04558-1.79469-.04558-.89742-.06794-1.79484-.06794-.8975-.00538-1.795-.00538-.89758.12042-1.79516.12042-.89767-.12247-1.79534-.12247-.89776.09391-1.79551.09391-.89785.15638-1.7957.15638-.898-.08478-1.79589-.08478-.898-.13158-1.79609-.13158-.89814.11828-1.79629.11828-.89825.02089-1.7965.02089-.89835-.06732-1.79671-.06732-.89847.008-1.79694.008-.89859.02022-1.79717.02022-.89871-.14781-1.79741-.14781-.89882.07491-1.79765.07491-.899.15053-1.7979.15054-.89908-.139-1.79816-.139-.89921-.02395-1.79842-.02395-.89934-.05752-1.79869-.05752-.89949-.01355-1.799-.01355-.89963.04122-1.79926.04122-.89977.07251-1.79954.07251c-.89993,0-.89993.10572-1.79985.10572-.90008,0-.90008-.00693-1.80015-.00693-.90024,0-.90024.01569-1.80047.01569-.90039,0-.90039-.0619-1.80078-.0619-.90056,0-.90056.05506-1.80112.05506s-.90053-.21393-1.80107-.21393c-.90039,0-.90039.19471-1.80079.19471s-.90025.03006-1.80051.03006-.90012-.00744-1.80023-.00744-.9-.01541-1.8-.01541-.89985-.208-1.79971-.208-.89974.105-1.79947.105-.89961.12755-1.79923.12755-.89949-.09822-1.799-.09822-.89938-.11679-1.79876-.11679-.89928.26465-1.79855.26465-.89917-.16144-1.79834-.16144-.89906-.12621-1.79813-.12621-.899.23714-1.79794.23714-.89887.0212-1.79775.0212-.89879-.03582-1.79757-.03582-.8987-.06045-1.7974-.06045-.89862.08178-1.79724.08178-.89854-.00543-1.79708-.00543-.89847-.21464-1.79694-.21464-.8984.08369-1.79679.08369-.89834.06847-1.79667.06847-.89827.0543-1.79654.0543-.89822-.23843-1.79643-.23843-.89816.05541-1.79633.05541-.89811-.00423-1.79622-.00423-.89807.01833-1.79614.01833-.898.08344-1.79606.08344-.898.07557-1.796.07557-.898.05631-1.79593.05631-.89793-.27847-1.79587-.27847-.89791.10416-1.79582.10416-.89789.14449-1.79579.14449-.89788-.13136-1.79576-.13136-.89787.06607-1.79574.06607-.89786-.18758-1.79573-.18758-.89786.16317-1.79573.16317-.89787.05677-1.79573.05677-.89788.06638-1.79576.06638-.89789-.29068-1.79578-.29067-.89791.0801-1.79582.0801-.89793.03984-1.79586.03984-.898-.09881-1.79592-.09881-.898.25144-1.796.25144-.898-.12338-1.79605-.12338-.89807.09456-1.79614.09456-.89811-.115-1.79623-.115-.89816-.077-1.79633-.077-.89822.10278-1.79644.10278-.89829-.14742-1.79657-.14742-.89835.27191-1.7967.27191-.89842-.00067-1.79684-.00067-.89849-.22337-1.797-.22337-.89858.09581-1.79715.09581-.89866-.09685-1.79733-.09685-.89875.06454-1.7975.06454-.89885.15937-1.7977.15937-.899.01161-1.79791.01161-.89906-.18718-1.79811-.18718-.89917.14507-1.79834.14507-.89929-.18153-1.79858-.18153-.89941.07088-1.79882.07088-.89953-.09782-1.79907-.09782-.89967.12256-1.79934.12256-.89981-.008-1.79962-.008-.89995-.0089-1.79991-.0089-.9001-.10354-1.8002-.10354c-.90026,0-.90026-.012-1.80052-.012-.90042,0-.90042.266-1.80084.266-.90058,0-.90058-.15283-1.80117-.15283-.90076,0-.90076-.10391-1.80152-.10391-.90093,0-.90093-.00019-1.80187-.00019s-.90106-.02253-1.80212-.02253c-.90089,0-.90089.09239-1.80179.09239-.90074,0-.90074.03487-1.80149.03487-.90059,0-.90059.10825-1.80118.10825s-.90045-.2441-1.8009-.2441-.90031.152-1.80062.152-.90018-.04213-1.80035-.04213-.90006.10876-1.80011.10876-.89993.01572-1.79986.01572-.89982.05185-1.79964.05185-.89971-.26885-1.79942-.26885-.89961.18685-1.79922.18685-.89951-.18849-1.799-.18849-.89942.24513-1.79885.24513-.89934-.10384-1.79868-.10384-.89927.01669-1.79854.01669-.8992.0695-1.79839.0695-.89914-.10137-1.79827-.10137-.89908-.119-1.79816-.119-.899-.02373-1.79806-.02373-.899.207-1.798.207-.899-.09791-1.7979-.09791-.89892-.01833-1.79784-.01833-.8989-.05874-1.7978-.05874-.89888.253-1.79776.253-.89888-.23742-1.79775-.23742-.89887.12446-1.79774.12446-.89888.12059-1.79775.12059-.89889-.11844-1.79778-.11844-.89891.04655-1.79782.04655-.89894.02389-1.79787.02389-.899-.0044-1.79794-.0044-.899-.12871-1.798-.12871-.89906.132-1.79812.132-.89912-.053-1.79823-.053-.89918-.17415-1.79836-.17414-.89925.10317-1.7985.10317-.89933-.06673-1.79866-.06673-.89942.09759-1.79884.09759-.89951-.11627-1.799-.11627-.89962.209-1.79923.209-.89972-.1387-1.79945-.1387-.89984-.06818-1.79968-.06818-.9.08042-1.79994.08042-.9001-.01707-1.8002-.01707c-.90025,0-.90025.181-1.80049.181-.9004,0-.9004-.08066-1.8008-.08066-.90055,0-.90055-.05413-1.80111-.05413-.90072,0-.90072-.03051-1.80144-.03051-.9009,0-.9009.02918-1.8018.02918-.90108,0-.90108-.13937-1.80217-.13937-.90127,0-.90127.12516-1.80255.12516s-.90136-.061-1.80273-.061c-.90118,0-.90118-.04488-1.80237-.04488-.901,0-.901.17418-1.802.17418-.90086,0-.90086-.04629-1.80172-.04629-.90071,0-.90071-.13573-1.80142-.13573s-.90057.14609-1.80114.14609-.90044-.03423-1.80088-.03423-.90031.07392-1.80063.07392-.9002-.08936-1.8004-.08936-.9001.00066-1.8002.00066-.9.09209-1.8.09209-.89992-.14425-1.79984-.14425-.89985.15154-1.79969.15154-.89978-.08781-1.79956-.08781-.89973-.06845-1.79945-.06845-.89968.0837-1.79936.0837-.89965.12241-1.79929.12241-.89962-.17508-1.79924-.17508-.8996-.02542-1.79921-.02542-.8996.07263-1.7992.07263-.89961.12554-1.79921.12554-.89963-.0748-1.79925-.0748-.89965-.15415-1.7993-.15415-.89969-.02493-1.79938-.02493-.89974.198-1.79948.198-.8998-.16958-1.7996-.16958-.89987-.02875-1.79973-.02875-.9.14239-1.79991.14239-.9-.14441-1.80009-.14441-.90015.13812-1.8003.13812-.90027.10165-1.80054.10165-.90039-.09759-1.80079-.09759-.90053-.07539-1.80107-.07539c-.90069,0-.90069-.00236-1.80138-.00236-.90085,0-.90085.20638-1.8017.20638-.901,0-.901-.08416-1.80206-.08416-.90121,0-.90121-.0249-1.80243-.0249-.90142,0-.90142-.03293-1.80283-.03293-.90163,0-.90163-.05136-1.80326-.05136s-.9015-.02574-1.803-.02574c-.9013,0-.9013.16668-1.80261.16668-.90114,0-.90114-.08219-1.80227-.08219-.901,0-.901-.14454-1.802-.14454-.90083,0-.90083.00184-1.80166.00184s-.9007.12064-1.8014.12064-.90059.04918-1.80117.04918-.90048.09476-1.801.09476-.90038.02364-1.80077.02364-.90031-.26989-1.80063-.26989-.90025.17584-1.8005.17584-.9002-.02824-1.8004-.02824-.90017-.03737-1.80034-.03737-.90015-.07895-1.80029-.07895-.90015-.04972-1.8003-.04972-.90015.05773-1.80031.05773-.90018.12832-1.80037.12832-.90022-.12357-1.80045-.12357-.90028-.017-1.80056-.017-.90036.16291-1.80071.16291-.90044-.04091-1.80089-.04091-.90055-.16356-1.80109-.16356-.90067.22281-1.80134.22281-.90081-.13329-1.80162-.13329-.901.08115-1.80192.08115c-.90113,0-.90113-.01333-1.80227-.01333-.90132,0-.90132.05981-1.80264.05981-.90153,0-.90153-.08259-1.80305-.08259-.90175,0-.90175.14615-1.8035.14615s-.90172-.25272-1.80344-.25272c-.90151,0-.90151.11356-1.803.11356-.90134,0-.90134.11379-1.80267.11379-.90117,0-.90117-.0896-1.80235-.0896-.901,0-.901-.02451-1.80205-.02451s-.90091-.03118-1.80181-.03118-.90079.08129-1.80159.08129-.90071-.082-1.80142-.082-.90064.09355-1.80129.09355-.90059-.07847-1.80119-.07847-.90057.05548-1.80114.05548-.90056-.04993-1.80113-.04993-.90057.15532-1.80115.15532-.90062-.20256-1.80123-.20256-.90067-.01544-1.80134-.01544-.90075.00345-1.8015.00345-.90085.16354-1.8017.16354-.901-.09422-1.802-.09422-.90112.06444-1.80223.06444c-.90129,0-.90129-.13984-1.80258-.13984-.90148,0-.90148.05029-1.803.05029-.90169,0-.90169-.10925-1.80339-.10925-.90193,0-.90193.11786-1.80387.11786s-.9018-.0887-1.80361-.0887c-.9016,0-.9016.13325-1.8032.13325-.90143,0-.90143-.05689-1.80285-.05689-.90126,0-.90126.03093-1.80253.03093s-.90114-.103-1.80228-.103-.901.06038-1.80207.06038-.901.13433-1.80192.13433-.90091-.141-1.80183-.141-.90089.02554-1.80178.02554-.90089-.04478-1.80179-.04478-.90093-.064-1.80187-.064-.901.01441-1.802.01441-.90109.23362-1.80218.23362-.90121-.02449-1.80242-.02449c-.90137,0-.90137-.013-1.80273-.013-.90155,0-.90155-.15064-1.8031-.15064-.90176,0-.90176-.04926-1.80353-.04926-.902,0-.902.19767-1.804.19767s-.90194.0704-1.80387.0704c-.90172,0-.90172-.15495-1.80344-.15495-.90154,0-.90154.12993-1.80308.12993-.90139,0-.90139-.26051-1.80278-.26051s-.90128.16366-1.80255.16366-.9012.02088-1.8024.02088-.90116.00731-1.80232.00731-.90115.03357-1.8023.03357-.90119.02344-1.80237.02344-.90125-.22458-1.80251-.22458-.90136.25318-1.80273.25318-.90151-.23583-1.803-.23583c-.9017,0-.9017-.03174-1.8034-.03174-.8985,0-.8985.17213-1.797.17213s-.89854-.12314-1.79709-.12314-.89862.17971-1.79724.17971-.89875-.17861-1.79749-.17861c-.89892,0-.89892.08187-1.79783.08187-.89912,0-.89912.04819-1.79825.04819-.89938,0-.89938-.10649-1.79877-.10649-.89969,0-.89969.17636-1.79938.17636-.9,0-.9-.20486-1.80009-.20486-.90045,0-.90045.09753-1.8009.09753-.9009,0-.9009-.01434-1.8018-.01434-.90141,0-.90141-.05258-1.80282-.05258-.902,0-.902-.08376-1.80393-.08376-.90252,0-.90252.05766-1.805.05766-.902,0-.902.01759-1.804.01759-.90152,0-.90152.06808-1.803.06808-.9011,0-.9011-.148-1.80221-.148-.90075,0-.90075.10919-1.80151.10919-.90045,0-.90045.073-1.80091.073-.90022,0-.90022.09935-1.80044.09935-.9,0-.9-.09263-1.80011-.09263s-.89994-.10744-1.79989-.10744-.8999-.06335-1.7998-.06335-.89994.01093-1.79987.01093-.9.20112-1.80006.20112c-.90019,0-.90019.0489-1.80039.0489-.90044,0-.90044-.27577-1.80088-.27577-.90075,0-.90075.1975-1.80151.1975-.90115,0-.90115-.18734-1.80229-.18734-.90162,0-.90162.25233-1.80324.25233-.90217,0-.90217-.02472-1.80435-.02472-.9028,0-.9028-.00745-1.80561-.00745-.90255,0-.90255-.12575-1.8051-.12575-.902,0-.902-.00389-1.80407-.00389-.90161,0-.90161.122-1.80323.122-.90128,0-.90128.04254-1.80256.04254-.901,0-.901-.08035-1.80209-.08035s-.90092-.00474-1.80183-.00474-.90088-.05366-1.80176-.05366-.90095.10358-1.8019.10358c-.90114,0-.90114-.09735-1.80227-.09735-.90143,0-.90143-.032-1.80285-.032-.90184,0-.90184-.06207-1.80367-.06207-.90236,0-.90236.02329-1.80473.02329-.903,0-.903.19753-1.806.19753s-.90291-.04119-1.80581-.04119c-.90236,0-.90236.06511-1.80473.06511-.902,0-.902-.02957-1.80392-.02957-.9017,0-.9017-.00612-1.8034-.00612s-.90158-.23508-1.80317-.23508-.90162.07192-1.80325.07192c-.90182,0-.90182.17451-1.80364.17451-.90219,0-.90219-.10123-1.80437-.10123-.90272,0-.90272.02988-1.80544.02988-.90342,0-.90342-.08669-1.80685-.08669-.90294,0-.90294.13815-1.80589.13815-.90246,0-.90246-.14181-1.80492-.14181-.90217,0-.90217.16544-1.80435.16544s-.90211-.15892-1.80421-.15892c-.90226,0-.90226-.01533-1.80451-.01533-.90263,0-.90263.01066-1.80527.01066-.90325,0-.90325-.03483-1.8065-.03483s-.90336-.04681-1.80673-.04681c-.9028,0-.9028.00317-1.80561.00317-.90253,0-.90253.08527-1.80506.08527s-.90255.07187-1.8051.07187c-.90288,0-.90288-.0812-1.80576-.08119-.90353,0-.90353.15387-1.80707.15387-.90333,0-.90333-.14314-1.80667-.14314-.9029,0-.9029.06142-1.8058.06142s-.90284-.10841-1.80568-.10841c-.9032,0-.9032.09616-1.80639.09616-.90389,0-.90389-.12934-1.80777-.12934-.90233,0-.90233.10552-1.80465.10552-.90131,0-.90131.02387-1.80262.02387-.90084,0-.90084.00159-1.80168.00159s-.90094-.151-1.80188-.151c-.90166,0-.90166.17583-1.80333.17583-.90305,0-.90305-.106-1.80611-.106-.904,0-.904.01484-1.808.01484-.90264,0-.90264-.00761-1.80528-.00761-.90213,0-.90213.052-1.80426.052-.90256,0-.90256.05943-1.80512.05943-.904,0-.904-.17552-1.808-.17552-.90384,0-.90384.18809-1.80769.18809-.90305,0-.90305-.20373-1.8061-.20373-.90367,0-.90367.14847-1.80734.14847-.9047,0-.9047.10677-1.8094.10677-.9037,0-.9037-.06247-1.8074-.06247-.90475,0-.90475.05661-1.80951.05662-.90424,0-.90424-.09782-1.80849-.09782-.9051,0-.9051.10421-1.81021.10421-.90455,0-.90455.01637-1.8091.01637-.90235,0-.90235-.23832-1.8047-.23832-.90533,0-.90533-.01994-1.81067-.01993-.90384,0-.90384.00217-1.80768.00217-.905,0-.905-.02127-1.8101-.02127-.90608,0-.90608.16946-1.81215.16946-.90478,0-.90478-.05865-1.80957-.05865-.9069,0-.9069-.03471-1.8138-.03471-.90836,0-.90943.00034-1.81761.01861C1.99682,33.03829,1.99815,33.11912,1.08978,33.11912Z"/><path class="cls-2" d="M773.73627,33.04683a1.02151,1.02151,0,0,1-.99419-.67921,1.17751,1.17751,0,0,1,.35766-1.25089,14.57028,14.57028,0,0,0,1.527-1.26671c.45818-.42026,1.023-.81779,1.50866-1.32161.46826-.48571,1.01864-.91576,1.43773-1.41363a15.33822,15.33822,0,0,0,1.19971-1.621.98886.98886,0,0,1,.78856-.53941c.89661-.00047.89657-.07426,1.79318-.0748s.89677.12633,1.79347.12578.89675-.04851,1.79354-.049.89692.07649,1.7938.07594.897.009,1.79395.00847.89707-.01131,1.79414-.01186.89716-.01718,1.79433-.01773.89719-.143,1.79447-.14353.8975.19477,1.79489.19422.89739-.16912,1.79489-.16967.89775.22259,1.79536.222.89765-.13428,1.79538-.13483.89779-.10265,1.79564-.10319.898.03129,1.796.03074.8982.15432,1.7963.15377.89812-.19369,1.79636-.19424.89835-.03036,1.79673-.03091.89862.17558,1.79713.175.89857-.13178,1.79723-.13233.89889.15087,1.79769.15032.899.0838,1.798.08325.89892-.28872,1.798-.28926c.89926-.00055.89941.24193,1.79867.24138.89942-.00055.89933-.14828,1.79874-.14883.89959-.00055.89963.07111,1.79921.07056s.8995-.11073,1.79906-.11128.8994-.02666,1.79882-.02721.89938.15915,1.79866.1586.89906-.14248,1.7982-.143.899-.02079,1.798-.02134.89889.00349,1.79777.00294.89878.03177,1.79754.03122.89872.133,1.79736.13245.89849-.0531,1.797-.05365.89845.06671,1.79686.06616.8982-.17245,1.7965-.173.89831.19187,1.79651.19132.898-.11919,1.79611-.11973.898.00556,1.796.005.89788-.03729,1.79578-.03783.89792.18182,1.79574.18127.8977-.04467,1.79543-.04522.89757-.11178,1.79522-.11233.89764.12618,1.79521.12563.8975-.001,1.795-.00159.89738-.08187,1.79481-.08242.89727-.13437,1.79463-.13492.89739.13691,1.79469.13636.89722-.03351,1.79446-.03406.89725.0894,1.79444.08885.897-.194,1.79416-.1945.89724.23174,1.79434.23119.89707.03444,1.79413.0339.89694-.13977,1.794-.14032.89695-.05565,1.79394-.0562.897.07125,1.794.0707.8969-.06195,1.79384-.0625.897.17776,1.794.17721.89683-.1162,1.79374-.11675.89687-.049,1.79377-.04958.89692.05217,1.79382.05162.89689.00436,1.79379.00381.89682-.1124,1.79372-.113.897.20567,1.79394.20512.8969-.02068,1.79382-.02123.89684-.16113,1.79378-.16168.897-.00225,1.79392-.0028.8971.19406,1.79409.19351.897.00885,1.794.0083.897-.11328,1.794-.11383.89711.01879,1.7942.01824.89718.05152,1.79432.051.89706-.21542,1.79426-.216.89723-.033,1.79448-.03359.89737.104,1.79468.10342.89738-.00186,1.79476-.00241.89739-.08124,1.79484-.08179.89761.14348,1.79514.14294.89753-.119,1.79513-.11955.89775.09,1.79544.08947.89777-.0107,1.79555-.01125.8978-.1321,1.79567-.13265.898.05556,1.796.055.89808.00066,1.79617.00012.89829.15845,1.79649.1579.89832.0217,1.79664.02115.89839-.0708,1.79683-.07135.89851-.0793,1.79708-.07985.89878.14977,1.79748.14922.8988-.05486,1.79764-.0554.8989-.13011,1.79788-.13065.89917.06283,1.79829.06228c.89929-.00055.89936.12141,1.79865.12086s.89934-.15974,1.79879-.16029c.89961-.00055.89965.07237,1.79926.07182.89979-.00055.8997-.14015,1.79948-.1407.9-.00055.90007.17284,1.8.17229s.90011.03572,1.80019.03517c.89992-.00055.89983-.15432,1.79975-.15487s.8998.04311,1.79956.04256.89964.02275,1.79925.0222.89948.00081,1.79895.00026.89925-.13424,1.79859-.13479.8992-.01105,1.7984-.0116.89914.09556,1.79821.095.899-.00385,1.79792-.0044.8988-.06978,1.79764-.07033.89882.1206,1.79755.12.89873.15392,1.79737.15337.89845-.15131,1.797-.15186.89848.053,1.79693.05249.89834-.04693,1.79671-.04748.89831.01491,1.7966.01436.89813-.16166,1.79635-.16221.89825.1366,1.79641.13605.89815.06848,1.79625.06793.89805-.01266,1.79611-.01321.898-.01611,1.796-.01666.898.05849,1.796.058.89783-.19064,1.79578-.19119.898.16749,1.79595.16694.89792.01559,1.79583.015.89785-.08918,1.79575-.08972.89782-.12252,1.79572-.12307.898.13116,1.79589.13061.89787-.078,1.79578-.07858.898.1292,1.796.12866.89786-.17451,1.79582-.17506.898-.04086,1.796-.04141.89807.05846,1.79611.05791.89812.04911,1.7962.04856.8981-.07071,1.79625-.07126.89835.2339,1.79655.23335.89816-.195,1.79644-.19554.89837.02725,1.79673.0267.89852.12805,1.797.1275.89844-.1553,1.797-.15585.89867.06076,1.79731.06021.89873-.035,1.79748-.03557.89894.12,1.79781.11945.899.03911,1.798.03856.899-.13746,1.79817-.138.89925-.02812,1.79852-.02867c.89943-.00055.89937-.099,1.79879-.09958.89958-.00055.89961.05768,1.79919.05713.89975-.00055.89988.21549,1.79963.21494.89992-.00055.89987-.09356,1.79979-.09411.90011-.00055.90013.03353,1.80024.033.9003-.00055.90029-.00983,1.80059-.01038s.90041.02248,1.80079.02193c.90022-.00055.90017-.06828,1.80039-.06883.9-.00055.90006.034,1.80011.03348.89988-.00055.89994.08994,1.79982.08939s.89968-.0993,1.79941-.09985.89961.02328,1.7992.02273.89939-.13489,1.79885-.13544.89945.18485,1.79879.1843.89921-.028,1.79844-.0285.8991-.033,1.79823-.0336.899-.07874,1.798-.07929.899.12135,1.798.1208.89882-.08445,1.79769-.085.89873-.1159,1.79754-.11645.89875-.00532,1.7975-.00586.89875.08,1.79746.07949.89865-.03122,1.79732-.03177.89872.1215,1.79737.121.89851-.19068,1.79714-.19122.89875.19953,1.79738.199.89867.06616,1.7973.06561.89862-.05633,1.79727-.05688.89856-.18971,1.79724-.19026.8988.14651,1.79752.146.89877.00137,1.79753.00082.89874-.13484,1.79757-.13539.89889-.0039,1.79779-.00444.89908.16948,1.79806.16893.899-.09845,1.79808-.099.89927.16,1.79845.15941.89928-.01834,1.79857-.01889.89929-.22653,1.79871-.22708.89956.00065,1.79912.00011.89977.08592,1.79948.08537c.89988-.00055.8998-.12105,1.79968-.1216.9-.00055.90009.05336,1.80014.05281.90024-.00055.90036.19962,1.8006.19907.90044-.00055.90042-.03857,1.80086-.03912.90066-.00055.90052-.21654,1.80118-.2171s.90059.12337,1.80111.12282c.90033-.00055.90027-.09943,1.8006-.1.90016-.00055.90024.132,1.8004.13149.9-.00055.89991-.14673,1.79991-.14728s.89985-.01994,1.79971-.02049.89979.103,1.79951.10248.89971.16422,1.79932.16367.89948-.03112,1.799-.03167.89937-.06349,1.79879-.064.89924-.151,1.79858-.15152.89934.10427,1.79861.10372.89927.06085,1.7985.0603.89917-.035,1.79836-.03557.89924.10523,1.79842.10468.89913-.06077,1.7983-.06131.89906-.207,1.79824-.20758.89933.18578,1.79853.18523.89924-.031,1.79849-.03158.8993-.002,1.79861-.00255.89931-.1116,1.79869-.11215.89956.13965,1.799.1391.89962.08631,1.7992.08576.89965-.07055,1.79934-.0711c.89984-.00055.89977-.1138,1.7996-.11435.9-.00055.9001.18129,1.80008.18074.90016-.00055.90014-.03089,1.8003-.03144.90035-.00055.90028-.10442,1.80063-.105.90055-.00055.90056.01593,1.80111.01538.90077-.00055.90073-.06853,1.8015-.06908s.90087.19894,1.80161.19839c.90054-.00055.90043-.183,1.801-.18353.90036-.00055.90047.17773,1.80083.17718.90019-.00055.90009-.17485,1.80028-.1754s.90012.10508,1.80017.10453.89994.00832,1.79987.00777.8997-.18481,1.79953-.18536.89979.09339,1.79952.09284.89974.10438,1.7994.10383.89959-.05946,1.79921-.06.89964.069,1.79923.06842.89954-.08392,1.79913-.08447.89954-.10978,1.79914-.11033.89962-.03118,1.79926-.03173.89969-.0019,1.79939-.00245.89982.08356,1.7996.083.9.15834,1.79985.15779.89985-.23786,1.79985-.23841.9003.257,1.80044.25646c.90031-.00055.90026-.09593,1.80057-.09648.9005-.00055.90047-.04336,1.801-.04391.90072-.00055.90076.07308,1.80148.07252.901-.00055.901.01526,1.80192.01471s.90071-.205,1.80154-.20553c.90063-.00055.90066.047,1.80128.04643.90045-.00055.9005.08475,1.801.0842.90029-.00055.90023-.092,1.80052-.09256s.90017-.00482,1.80033-.00537.90016.166,1.80022.16547.9-.02727,1.8-.02782.89981-.19577,1.79975-.19632.90006.23551,1.8.235.89991-.02721,1.79983-.02776.9.01924,1.79993.01869.9-.01937,1.8-.01992.9-.19387,1.80011-.19442.90022-.02938,1.80045-.02993c.90039-.00055.90053.21721,1.80092.21666.90057-.00055.9005-.11182,1.80107-.11237.90079-.00055.90089.15693,1.80168.15638.901-.00055.901-.10943,1.802-.11s.901.10165,1.802.1011c.90075-.00055.90062-.20046,1.80137-.201.90056-.00055.90066.169,1.80123.1685.90041-.00055.9003-.17574,1.80072-.17629s.90033.04593,1.80063.04538.9003.12415,1.80052.1236.90021.03523,1.80039.03468.9-.20665,1.80023-.2072.9003.16033,1.80051.15978.90033.07884,1.80061.07829.90038-.01392,1.80077-.01447.90037-.25681,1.80091-.25736c.90072-.00055.9008.1305,1.80153.13.89753-.00055.89759.10156,1.79513.101s.89751-.1,1.79508-.10055.89756-.15167,1.79521-.15222.89779.03318,1.79556.03263c.89794-.00055.898.09538,1.79594.09483.89815-.00054.89823.13419,1.79639.13364.89841-.00055.8983-.183,1.79671-.1835.89871-.00055.89876.06687,1.79747.06632.89907-.00055.89907-.00936,1.79814-.00991.89947-.00055.89948.01419,1.799.01364.89992-.00055.9.08281,1.7999.08226.90043-.00055.90033-.16524,1.80076-.16579.901-.00055.90106.11239,1.802.11184.90154-.00056.90156.01971,1.8031.01916.901-.00055.901-.03023,1.802-.03078.90055-.00055.9005-.08243,1.801-.083.90014-.00055.90016.04089,1.80029.04034.89978-.00055.89972-.09621,1.7995-.09676.89948-.00055.89962.22014,1.7991.21959.89925-.00055.89911-.2264,1.79836-.22695.89907-.00055.89911.05271,1.79818.05216s.899-.01679,1.79793-.01734.899.1706,1.798.17.89884-.19616,1.7978-.19671.89919.2295,1.79825.229c.89922-.00055.89918-.06252,1.7984-.06307.89947-.00055.89945-.03435,1.79891-.0349.89978-.00055.89967-.18075,1.79945-.1813.90017-.00055.90025.12244,1.80042.12189.90064-.00055.90062-.046,1.80126-.04659.90119-.00055.90131.195,1.80251.19441.90183-.00055.9018-.0521,1.80363-.05265.90157-.00055.90161.05971,1.80318.05916.90106-.00055.90091-.2436,1.802-.24415.90064-.00055.90066.0426,1.8013.04205.90031-.00055.90038.11956,1.80068.119.90008-.00055.89994-.2158,1.8-.21635.89993-.00055.9.05482,1.7999.05427s.9.13541,1.7999.13486.89995-.035,1.79993-.03553c.90016-.00055.90016.00942,1.80032.00887.90045-.00055.90036-.14624,1.80081-.14679.90086-.00055.90091.0781,1.80177.07755.90138-.00055.90143.06782,1.80281.06727.902-.00055.902-.11931,1.804-.11986s.902.15682,1.80395.15626c.90139-.00055.9013-.13741,1.80269-.138.901-.00055.90105.10581,1.802.10525.90073-.00055.90062-.17053,1.80134-.17108s.90062.00458,1.80123.004.90079.23906,1.80144.23851c.90085-.00055.9008-.08,1.80165-.08057.9012-.00055.90127.108,1.80248.10749.90174-.00055.90167-.11617,1.80341-.11672.90245-.00055.90235-.16384,1.8048-.16439.902-.00055.90212.24836,1.80408.24781.90148-.00055.90148-.00786,1.803-.00841.9012-.00055.90117-.0547,1.80237-.05525s.90114.0181,1.80227.01755.90119-.13815,1.80247-.1387c.90166-.00055.90162-.06073,1.80328-.06128.90227-.00055.90244.26738,1.80471.26683s.90236-.03428,1.80475-.03483c.90183-.00055.90179-.05957,1.80362-.06012.90155-.00055.90155-.01038,1.8031-.01093s.90152-.0964,1.80309-.09695c.9019-.00055.902.16954,1.80391.169.90255-.00055.90245-.17379,1.805-.17434.90236-.00055.90236-.0022,1.80472-.00275.90192-.00056.902.15116,1.80393.15061s.90176-.17823,1.80362-.17878c.90222-.00056.90228.09168,1.8045.09113.90291-.00056.903.08236,1.80586.0818.90135-.00055.90121-.222,1.80256-.2226.90033-.00055.90052.2953,1.80085.29475.89986-.00055.89972-.23992,1.79958-.24047s.89995-.01922,1.79992-.01977c.90069-.00055.90084.24587,1.80153.24532.90207-.00056.902-.10338,1.80409-.10393.903-.00055.90305.01579,1.80609.01524.90166-.00056.9016-.10244,1.80326-.103.90116-.00055.90114-.0326,1.80229-.03315.90158-.00056.90169.18082,1.80327.18026.903-.00055.90306.04189,1.8061.04134.90286-.00055.9027-.2674,1.80557-.268.90207-.00056.90215.13376,1.80422.1332.9027-.00055.90271.01538,1.8054.01483.90372-.00055.90374.02269,1.80746.02213.90272-.00055.90265-.12233,1.80536-.12288.90378-.00055.90375-.04883,1.80752-.04938.90327-.00055.90332.08106,1.80659.08051.90412-.00055.90409-.05141,1.80822-.052.90357-.00055.90367.16832,1.80725.16776.90137-.00055.90132-.07649,1.8027-.077.90435-.00055.90435-.00321,1.8087-.00376.90286-.00055.90284-.03927,1.8057-.03983.90407-.00055.90418.1787,1.80826.17815.90509-.00056.90492-.28157,1.81-.28212.9038-.00055.904.25639,1.80776.25584.90592-.00056.90585-.127,1.81176-.12758.90738-.00055.90747.147,1.81485.14645s.90735-.04534,1.81473-.04582a.99434.99434,0,0,1,.73912.17074,1.07665,1.07665,0,0,1,.29645.7382c0,.808-.01928.808-.01928,1.616,0,.80988-.14854.80988-.14854,1.61975,0,.81119.241.81119.241,1.62237s-.09134.81119-.09134,1.62237a.94959.94959,0,0,1-1.01645.92052c-.897,0-.897-.05329-1.79393-.05329s-.897.0925-1.79408.0925-.89713.18054-1.79425.18054-.8972-.17691-1.79441-.17691-.89729.0616-1.79458.0616-.89737-.167-1.79475-.167-.89747.02159-1.79494.02159-.89757.21843-1.79514.21843-.89766-.1338-1.79532-.1338-.89777.00926-1.79554.00926-.89787.09183-1.79574.09183-.898.06038-1.796.06038-.89809-.18562-1.79618-.18562-.8982.127-1.79641.127-.89833-.078-1.79665-.078-.89845-.13656-1.79689-.13656-.89857.24244-1.79714.24244-.8987-.21756-1.7974-.21756-.89883.10054-1.79767.10054-.899.09761-1.79793.09761-.89911-.11584-1.79821-.11584-.89925.08157-1.7985.08157-.89939-.11774-1.79879-.11774-.89954.16929-1.79908.16929c-.8997,0-.8997-.23513-1.7994-.23513-.89985,0-.89985.0607-1.7997.0607-.9,0-.9.08333-1.8.08333-.90018,0-.90018-.11585-1.80035-.11585s-.90016.13685-1.80032.13685c-.9,0-.9-.0799-1.8-.0799-.89987,0-.89987.12286-1.79975.12286s-.89974-.09523-1.79947-.09523-.89961.01855-1.79922.01855-.89948.08334-1.799.08334-.89935-.02463-1.7987-.02463-.89924-.185-1.79847-.185-.89912.20041-1.79823.20041-.899-.205-1.798-.205-.8989.09549-1.79779.09549-.89879-.09595-1.79758-.09595-.89869.07936-1.79737.07936-.89859.16944-1.79718.16944-.8985-.122-1.797-.122-.8984-.11747-1.79681-.11747-.89832-.015-1.79664-.015-.89824.10191-1.79648.10191-.89817.0157-1.79633.0157-.89809.0431-1.79618.0431-.898-.04061-1.796-.04061-.898.15682-1.79591.15682-.8979.01681-1.79579.01681-.89783-.122-1.79567-.122-.89778.05345-1.79557.05345-.89773-.15685-1.79547-.15685-.89769.14584-1.79538.14584-.89765-.03368-1.7953-.03368-.89761.0022-1.79523.0022-.89758.09123-1.79516.09123-.89756-.051-1.79511-.051-.89754.04308-1.79507.04308-.89751-.25858-1.795-.25858-.8975.24249-1.795.24249-.89749-.07226-1.795-.07226-.89749-.03695-1.795-.03695-.89748.1282-1.795.1282-.89749-.13472-1.795-.13472-.8975.02179-1.795.02179-.89751.07143-1.795.07143-.89753-.07216-1.79506-.07216-.89755.10877-1.79511.10877-.89758-.03436-1.79516-.03436-.89761-.10584-1.79522-.10584-.89765.12986-1.7953.12986-.89769-.09237-1.79538-.09237-.89773-.02038-1.79547-.02038-.89779.06029-1.79557.06029-.89785-.04488-1.79569-.04488-.8979.05015-1.79581.05015-.898-.04112-1.79594-.04112-.898.06868-1.79608.06868-.89812-.18288-1.79623-.18288-.8982.222-1.7964.222-.89828-.17759-1.79657-.17759-.89837.112-1.79675.112-.89847-.20048-1.79694-.20048-.89857.2381-1.79714.2381-.89868-.21519-1.79736-.21519-.89879.17024-1.79758.17024-.89891-.08732-1.79782-.08732-.899.176-1.79806.176-.89916-.08682-1.79831-.08682c-.8993,0-.8993.08575-1.79859.08575s-.89943-.00852-1.79886-.00852-.89957-.17852-1.79914-.17852c-.89973,0-.89973.13161-1.79945.13161-.89988,0-.89988-.16633-1.79976-.16633-.9,0-.9.09725-1.80008.09725-.9002,0-.9002-.05924-1.80041-.05924-.90038,0-.90038.03592-1.80076.03592-.90055,0-.90055.09871-1.80111.09871s-.90068-.11416-1.80136-.11416c-.90051,0-.90051.09064-1.801.09064s-.90037-.019-1.80073-.019c-.90021,0-.90021-.02833-1.80042-.02833s-.90007-.0951-1.80014-.0951-.89993-.02056-1.79986-.02056-.8998.10333-1.7996.10333-.89967-.02194-1.79934-.02194-.89955-.01772-1.79911-.01772-.89944-.00861-1.79887-.00861-.89934-.05888-1.79867-.05888-.89923.0512-1.79846.0512-.89913.06849-1.79827.06849-.899.08652-1.79809.08652-.899-.1853-1.79793-.1853-.89889.0623-1.79777.0623-.89882-.10446-1.79764-.10446-.89876.18915-1.79751.18915-.8987.02941-1.7974.02941-.89865.02017-1.7973.02017-.89861-.18527-1.79722-.18527-.89857.07686-1.79714.07686-.89854-.03625-1.79708-.03625-.89852.05287-1.797.05287-.8985.07577-1.797.07577-.8985-.217-1.797-.217-.8985.00527-1.797.00527-.8985-.016-1.797-.016-.89851.00974-1.797.00974-.89853.02475-1.79706.02475-.89856-.00366-1.79711-.00366-.8986.11572-1.79719.11572-.89863.07878-1.79726.07878-.89868-.23033-1.79736-.23033-.89874.153-1.79747.153-.8988.032-1.79761.032-.89887-.14578-1.79774-.14578-.899.05293-1.7979.05293-.899-.08163-1.79808-.08163-.89913.03284-1.79826.03284-.89923-.0135-1.79847-.0135-.89934.05774-1.79869.05774-.89946.11451-1.79892.11451-.89959-.08581-1.79918-.08581-.89973.02879-1.79945.02879-.89986-.02826-1.79973-.02826c-.9,0-.9-.04644-1.8-.04644-.90018,0-.90018.00388-1.80035.00388-.90035,0-.90035.17714-1.80069.17714-.90052,0-.90052-.06846-1.801-.06846-.9007,0-.9007-.02773-1.8014-.02773-.9009,0-.9009.0678-1.8018.0678s-.901-.01065-1.802-.01065c-.90081,0-.90081-.03189-1.80162-.03189-.90064,0-.90064.05123-1.80128.05123-.90048,0-.90048-.20233-1.801-.20233-.90033,0-.90033.04553-1.80066.04553s-.90019.16537-1.80038.16537-.90006-.018-1.80011-.018-.89994-.20635-1.79988-.20635-.89982.21232-1.79964.21232-.89972-.05536-1.79944-.05536-.89962-.1558-1.79925-.1558-.89954.15379-1.79908.15379-.89946-.12645-1.79893-.12645-.8994.18738-1.7988.18738-.89934-.14449-1.79869-.14449-.8993.083-1.7986.083-.89927.09-1.79853.09-.89924-.09136-1.79848-.09136-.89923-.04347-1.79845-.04347-.89922.1341-1.79844.1341-.89923-.14972-1.79846-.14972-.89924-.10615-1.79849-.10615-.89927-.00645-1.79854-.00645-.89931-.00631-1.79862-.00631-.89936.1759-1.79872.1759-.89942-.08871-1.79884-.08871-.89949.16133-1.799.16133-.89957.0244-1.79914.0244-.89967-.15757-1.79933-.15757-.89978.11307-1.79955.11307-.89989-.13143-1.79977-.13143-.9.07728-1.8.07728c-.90016,0-.90016.08-1.80032.08-.90031,0-.90031-.16342-1.80061-.16342-.90048,0-.90048.08861-1.801.08861-.90065,0-.90065-.11411-1.80129-.11411-.90084,0-.90084.21459-1.80168.21459-.901,0-.901-.08052-1.80207-.08052-.90125,0-.90125-.14239-1.8025-.14239s-.90111-.0449-1.80222-.0449c-.90093,0-.90093.114-1.80186.114-.90075,0-.90075-.0596-1.80151-.0596-.9006,0-.9006.0831-1.80119.0831s-.90046.05678-1.80091.05678-.90032-.20046-1.80064-.20046-.9002.09777-1.80041.09777-.9001-.075-1.8002-.075-.9.24509-1.8.24509-.89993-.21307-1.79987-.21307-.89987.03968-1.79974.03968-.89982.112-1.79964.112-.89979.00382-1.79958.00382-.89977.01866-1.79954.01866-.89977-.14316-1.79953-.14316-.89978-.04468-1.79956-.04468-.8998.13824-1.7996.13824-.89985.05009-1.79969.05009-.89991.05138-1.79981.05138-.9-.27712-1.8-.27712-.90006.02393-1.80013.02393-.90017.1521-1.80034.1521-.90029-.006-1.80058-.006-.90042-.064-1.80085-.064-.90058-.07475-1.80116-.07475c-.90076,0-.90076-.00746-1.80151-.00746-.90094,0-.90094.08157-1.80188.08157-.90115,0-.90115-.04861-1.80229-.04861-.90137,0-.90137.09572-1.80274.09572s-.90134-.04083-1.80268-.04083c-.90113,0-.90113-.09125-1.80227-.09125-.901,0-.901-.00958-1.80191-.00958-.90079,0-.90079.073-1.80159.073-.90064,0-.90064-.01357-1.80129-.01357s-.90053.06447-1.80105.06447-.90042-.02085-1.80083-.02085-.90033.081-1.80066.081-.90027.04868-1.80053.04868-.90022-.13267-1.80043-.13267-.90019-.03956-1.80038-.03956-.90019.15122-1.80037.15122-.9002-.11773-1.8004-.11773-.90023.15159-1.80046.15159-.90029-.05844-1.80059-.05844-.90036.07646-1.80073.07646-.90048-.00085-1.801-.00085-.90059-.18367-1.80118-.18367-.90074.03938-1.80148.03938c-.90091,0-.90091.00886-1.80182.00886-.90109,0-.90109.05425-1.80219.05425-.90132,0-.90132.05069-1.80263.05069-.90156,0-.90156-.01442-1.80311-.01442s-.90143.01508-1.80285.01509c-.90122,0-.90122-.07073-1.80245-.07073-.901,0-.901-.15306-1.80208-.15305s-.90089.05477-1.80177.05477-.90076.20091-1.80152.20091-.90066-.10445-1.80131-.10445-.90059.01489-1.80117.01489-.90053.07753-1.80106.07753-.90051-.28211-1.801-.28211-.90052.11809-1.801.11809-.90055-.091-1.8011-.091-.90062.10124-1.80123.10124-.90071.16473-1.80142.16473-.90083-.23635-1.80167-.23635-.901.1818-1.802.1818c-.90116,0-.90116-.039-1.80233-.039-.90139,0-.90139-.00465-1.80277-.00465-.90163,0-.90163-.12468-1.80326-.12468s-.90156-.02491-1.80311-.02491c-.90134,0-.90134.12319-1.80268.12319-.90116,0-.90116-.15322-1.80232-.15322-.901,0-.901.0757-1.802.0757s-.9009.06242-1.80179.06242-.90082-.13558-1.80164-.13558-.90078-.001-1.80156-.001-.90077.16179-1.80154.16179-.90081.05448-1.80161.05448-.90088-.05226-1.80175-.05226-.901-.02089-1.802-.02089-.90113-.04631-1.80226-.04631c-.90132,0-.90132-.01962-1.80264-.01962-.89813,0-.89813.15929-1.79625.15929s-.89817-.177-1.79633-.177-.89825.05961-1.79649.05961-.89837.05733-1.79673.05733c-.89854,0-.89854.06749-1.79707.06749-.89875,0-.89875-.19412-1.79749-.19412-.899,0-.899.21994-1.798.21994-.89932,0-.89932-.03912-1.79863-.03912-.89966,0-.89966-.03246-1.79933-.03245-.90007,0-.90007-.04435-1.80014-.04435-.90052,0-.90052-.00745-1.801-.00745-.901,0-.901.10869-1.80205.10869-.90159,0-.90159-.12669-1.80317-.12669-.90215,0-.90215.06-1.80429.06-.90161,0-.90161-.05774-1.80323-.05774-.90114,0-.90114-.03019-1.80228-.03019-.90073,0-.90073.11966-1.80146.11966-.90037,0-.90037-.01885-1.80074-.01885-.90008,0-.90008-.00363-1.80015-.00363-.89985,0-.89985-.18748-1.79969-.18748-.89967,0-.89967.2372-1.79934.2372s-.89957-.2103-1.79913-.2103-.89953.02941-1.799.02941-.89956.00277-1.79911.00277-.89965-.03767-1.7993-.03767c-.89982,0-.89982.13089-1.79964.13089-.90005,0-.90005-.06093-1.80011-.06093-.90038,0-.90038.06588-1.80075.06588-.90077,0-.90077-.055-1.80154-.055-.90124,0-.90124-.065-1.80248-.065-.90179,0-.90179.07624-1.80358.07624-.90243,0-.90243.02419-1.80485.02419-.90217,0-.90217.01636-1.80434.01636-.90166,0-.90166-.01484-1.80331-.01484-.90123,0-.90123-.10877-1.80247-.10877-.9009,0-.9009.22284-1.8018.22284-.90067,0-.90067-.22063-1.80133-.22063s-.90054.15435-1.80107.15435-.9005-.14085-1.801-.14085-.90057.05635-1.80114.05635c-.90076,0-.90076-.0156-1.80151-.0156-.901,0-.901.0247-1.80209.0247-.90146,0-.90146.04639-1.80291.04639-.902,0-.902-.09139-1.804-.09139-.90264,0-.90264.15251-1.80527.15251s-.90252.00115-1.805.00115c-.902,0-.902-.21867-1.804-.21867-.90158,0-.90158.11846-1.80316.11846-.90132,0-.90132-.09117-1.80264-.09117s-.9012.03226-1.80241.03226-.90124.19125-1.80249.19125c-.90144,0-.90144-.21635-1.80288-.21635-.90181,0-.90181.08887-1.80361.08887-.90234,0-.90234-.04962-1.80468-.04962-.903,0-.903-.03188-1.80609-.03188-.90256,0-.90256.01569-1.80512.01569-.90208,0-.90208-.02048-1.80416-.02048-.9018,0-.9018.04413-1.80359.04413s-.90173-.074-1.80345-.074c-.90188,0-.90188.05769-1.80375.05769-.90226,0-.90226-.04183-1.80451-.04183-.90287,0-.90287.17509-1.80574.1751s-.903-.18779-1.806-.18779c-.90243,0-.90243.1783-1.80486.1783-.90215,0-.90215-.10833-1.8043-.10833s-.90217-.04825-1.80434-.04825c-.9025,0-.9025.23482-1.805.23482-.90315,0-.90315-.24628-1.80631-.24628-.903,0-.903.15809-1.80591.15809-.90252,0-.90252.073-1.805.073s-.90247-.23086-1.80493-.23086c-.90281,0-.90281-.04938-1.80563-.04938-.9035,0-.9035.15361-1.807.15361-.90194,0-.90194-.14674-1.80388-.14674-.90093,0-.90093.10584-1.80186.10584-.90046,0-.90046.02219-1.80092.02219s-.90056-.05294-1.80112-.05294c-.90129,0-.90129.04294-1.80257.04294-.90267,0-.90267.00247-1.80535.00247-.90363,0-.90363-.06983-1.80727-.06983-.90226,0-.90226-.05538-1.80452-.05538-.90175,0-.90175.255-1.8035.255-.90217,0-.90218-.0982-1.80435-.0982-.90364,0-.90364.105-1.80727.105-.90346,0-.90346.02715-1.80693.02715-.90267,0-.90267-.18827-1.80533-.18827-.90329,0-.90329.079-1.80659.079-.90432,0-.90432-.04325-1.80864-.04325-.90331,0-.90331-.07727-1.80663-.07727-.90437,0-.90437.0232-1.80874.0232-.90387,0-.90387.08016-1.80774.08016-.90472,0-.90472.04952-1.80944.04952-.90417,0-.90417-.12317-1.80834-.12317-.902,0-.902-.08962-1.80394-.08962-.90495,0-.90495.01449-1.8099.01449-.90346,0-.90346.25138-1.80692.25138-.90467,0-.90467-.21742-1.80934-.21742-.90569,0-.90569.18538-1.81139.18538-.9044,0-.9044.06347-1.8088.06347-.90652,0-.90652-.02726-1.813-.02726-.908,0-.90708-.26037-1.815-.26619S774.64425,33.04683,773.73627,33.04683Z"/></g></svg>