<svg id="圖層_1" data-name="圖層 1" xmlns="http://www.w3.org/2000/svg" viewBox="0 0 272.23633 187.63672"><defs><style>.cls-1{fill:#fff;}</style></defs><path class="cls-1" d="M5.44434,148.53711V137.72852H9.791l.0791.74609a57.26789,57.26789,0,0,0,.76367,6.62109q.25341.76758,2.05566,1.94532a14.17743,14.17743,0,0,0,7.873,2.27929,8.04153,8.04153,0,0,0,5.77637-2.14062,7.28711,7.28711,0,0,0,2.252-5.52344,7.15131,7.15131,0,0,0-1.48828-4.75586,13.95726,13.95726,0,0,0-5.36524-3.22266l-3.95605-1.52929q-6.38379-2.46679-9.24316-5.56641a11.001,11.001,0,0,1,1.27343-15.99219,16.08913,16.08913,0,0,1,10.51563-3.373,37.52026,37.52026,0,0,1,12.88574,2.42968v10.14258H28.86523V119.084a31.43251,31.43251,0,0,0-.627-5.30664,4.06685,4.06685,0,0,0-1.25293-2.17382,9.6666,9.6666,0,0,0-6.14941-1.9961,7.785,7.785,0,0,0-5.65918,2.18946,7.36932,7.36932,0,0,0-2.252,5.51367,5.58116,5.58116,0,0,0,1.84083,4.38086q1.80029,1.68163,7.28515,3.91015l3.60254,1.49024q5.91357,2.43163,8.26465,5.01758a9.83983,9.83983,0,0,1,2.31055,6.74414,11.29317,11.29317,0,0,1-4.52344,9.26953q-4.52344,3.58887-11.76953,3.58789A34.0849,34.0849,0,0,1,5.44434,148.53711Z"/><path class="cls-1" d="M68.65723,150.49609a14.67827,14.67827,0,0,1-5.60059,1.21485q-6.77637,0-9.88965-3.40821-3.11279-3.40722-3.11328-10.8496v-26.084h-6.2666v-3.17187h6.2666v-7.7168l7.71582-1.918v9.63477H69.63672v3.17187H57.76953v27.10352q0,5.48438,1.4541,7.793,1.45313,2.31151,4.95313,2.31054a11.135,11.135,0,0,0,4.48047-1.21289Z"/><path class="cls-1" d="M110.21289,148.8125a37.05044,37.05044,0,0,1-13.43457,2.89844q-9.36034,0-15.21582-6.3125-5.855-6.31054-5.85547-16.38477,0-9.56542,5.249-15.67969a16.94492,16.94492,0,0,1,13.47266-6.11718q7.59815,0,11.69141,5.12109,4.09131,5.12109,4.09277,14.62109v.74219H84.24609q0,9.94921,3.46582,15.01953,3.46582,5.07423,10.28125,5.07227a23.91575,23.91575,0,0,0,12.21973-2.9375Zm-25.81055-23.5h17.625l.03907-1.72266q0-7.40331-1.919-10.69336a6.69327,6.69327,0,0,0-6.2666-3.28906q-4.34766,0-6.91309,4.26758Q84.40138,118.14649,84.40234,125.3125Z"/><path class="cls-1" d="M130.73535,145.91211v10.14453q0,5.32617.85742,6.32617.85693.999,5.64844,1.35157l.74024.03906v2.42773h-22.207v-2.42773l.74414-.03906q4.73877-.35449,5.62012-1.3711.88184-1.01953.88086-6.30664v-37.7168q0-5.28514-.88086-6.30468-.88036-1.01954-5.62012-1.3711l-.74414-.03906v-2.42773h14.96094v7.95507a20.32717,20.32717,0,0,1,6.38477-6.70117,14.87509,14.87509,0,0,1,8.0039-2.23437,12.93811,12.93811,0,0,1,11.03711,5.68554q4.10449,5.68361,4.10547,15.28711,0,10.66407-4.708,17.0918a14.75545,14.75545,0,0,1-12.50586,6.42969,15.488,15.488,0,0,1-6.667-1.45117A17.44382,17.44382,0,0,1,130.73535,145.91211Zm0-3.05859a24.66568,24.66568,0,0,0,5.72754,3.41211,14.41708,14.41708,0,0,0,5.46582,1.13671,8.28925,8.28925,0,0,0,7.624-4.27539q2.52686-4.27147,2.52832-12.82031,0-9.05859-2.4541-13.58594a7.93438,7.93438,0,0,0-7.40039-4.52929,12.07581,12.07581,0,0,0-6.17285,1.666,17.98132,17.98132,0,0,0-5.31836,5Z"/><path class="cls-1" d="M189.79492,150.73047a112.63158,112.63158,0,0,1,7.09082-24.34766A159.8433,159.8433,0,0,1,209.4873,102.291q6.61963-10.166,32.4209-45.10743l12.7295-17.08593H183.47363V24.293h81.15918V35.3125Q236.95313,72.39355,224.0957,99.42969q-12.85839,27.03808-14.30957,51.30078Z"/></svg>