<svg id="圖層_1" data-name="圖層 1" xmlns="http://www.w3.org/2000/svg" xmlns:xlink="http://www.w3.org/1999/xlink" viewBox="0 0 169.57809 176.74272"><defs><style>.cls-1{mask:url(#mask);}.cls-2{fill:#e66446;}.cls-3{fill:#fff;}.cls-4{fill:#323232;}.cls-5{fill:none;stroke:#1e1e1e;stroke-miterlimit:10;stroke-width:2.67419px;}.cls-6{filter:url(#luminosity-noclip);}</style><filter id="luminosity-noclip" x="0" y="-7.2098" width="189.89145" height="183.95252" filterUnits="userSpaceOnUse" color-interpolation-filters="sRGB"><feFlood flood-color="#fff" result="bg"/><feBlend in="SourceGraphic" in2="bg"/></filter><mask id="mask" x="0" y="-7.2098" width="189.89145" height="183.95252" maskUnits="userSpaceOnUse"><g class="cls-6"><path d="M161.1807,79.3759a.89439.89439,0,0,1,1.43888.12827,5.785,5.785,0,0,1,.80751,1.7157c.04182.30236-.74741.97309-1.22524,1.0454a25.79376,25.79376,0,0,1-2.92121.22723c-.63016.01-.78634-.35158-.34714-.80357Z"/><path d="M160.71208,63.98672c-.11238.80392-.389.76163-.61482-.094a1.834,1.834,0,0,1-.03948-.54326c.15379-2.13274.39517-4.818.39517-4.818.07556-.83891.44852-1.066.82908-.50505a.72774.72774,0,0,1,.11243.42745C161.19264,60.551,160.71208,63.98672,160.71208,63.98672Z"/><path d="M9.99943,97.9503c-.4628.16945-.96365.08988-1.11273-.17622-.14935-.266-.06918-.89217.41884-.96065,0,0,.759-.107,1.58641-.16031a1.95215,1.95215,0,0,1,.18639.81589A10.56629,10.56629,0,0,1,9.99943,97.9503Z"/><path d="M119.51321,138.06257c-.20608.21515-.39126.148-.41124-.14934,0,0-.03394-.50028.08466-.59139a4.46552,4.46552,0,0,1,.74034-.458c.26982-.1263.48684-.04972.48217.17049l-.09843.12692C120.03718,137.51521,119.51321,138.06257,119.51321,138.06257Z"/><path d="M103.12027,25.049a1.60562,1.60562,0,0,1-2.55572-.25728s-.49653-.74217-.26125-1.07174a5.91627,5.91627,0,0,1,2.74242-1.91415c.30555-.11091,1.6044,1.4142,1.527,1.52051A15.49615,15.49615,0,0,1,103.12027,25.049Z"/><path d="M102.73848,43.16333c.06865.38828-.091.69716-.35476.68656-.26386-.01088-.84125-.20477-.813-.412.02822-.207.4037-.74589.77163-.73778l.18237.17025A.63929.63929,0,0,1,102.73848,43.16333Z"/><path d="M12.774,82.17452a2.41968,2.41968,0,0,1,.21182,3.43452,2.11406,2.11406,0,0,1-1.32465.56792c-.69605.06879-.77808-.03452-.77808-.03452a2.77863,2.77863,0,0,1,.187-3.61013l1.0263-.368C12.56859,81.99488,12.774,82.17452,12.774,82.17452Z"/><path d="M3.02512,129.81045c-.91243.44726-1.59623-.0157-1.52-1.02876a16.83413,16.83413,0,0,1,.46068-2.80066c.08612-.29769,1.66144-.55581,1.74632-.3983a11.14542,11.14542,0,0,1,1.11058,3.14906C4.85727,128.91185,3.02512,129.81045,3.02512,129.81045Z"/><path d="M56.15567,145.264a1.68132,1.68132,0,0,1-.55787,2.45694l-.04789-.0688c-.77422-1.11277-1.17736-1.80434-1.17736-1.80434a1.66927,1.66927,0,0,1,.39462-2.36839l.11707.13456A16.61612,16.61612,0,0,1,56.15567,145.264Z"/><path d="M116.16067,118.45756c-1.14177.885-2.29519.53671-2.563-.77415l.32025-.29617a12.38828,12.38828,0,0,1,1.40982-1.20242c1.23185-.75467,2.57862-.64863,2.9928.2357l-.22512.24076A18.47133,18.47133,0,0,1,116.16067,118.45756Z"/><path d="M154.43476,164.26747a1.15761,1.15761,0,0,1-.27387,1.98771,5.00814,5.00814,0,0,1-1.079.34424l-.23837.05486a1.91377,1.91377,0,0,1,.36883-2.21322l.68825-.30493A.54529.54529,0,0,1,154.43476,164.26747Z"/><path d="M31.991,102.1848c-1.03485.49841-1.66214-.00789-1.39369-1.12468,0,0,.01326-.05419.33472-.23875a17.25526,17.25526,0,0,1,1.66086-.87248c1.05946-.44316,2.03275-.15567,2.16311.639l-.25546.17375A23.069,23.069,0,0,1,31.991,102.1848Z"/><path d="M85.89453,28.66189a1.20354,1.20354,0,0,1-1.46448-.31338,1.56138,1.56138,0,0,1,1.04348-1.81337l.79195.12893.59318.09684C87.42343,27.40546,86.499,28.44024,85.89453,28.66189Z"/><path d="M167.14528,48.9656a1.40035,1.40035,0,0,1,.31076-2.0551s.004-.00267.07526.06577a3.72536,3.72536,0,0,1,.99276,1.4682c.05435.16837-.78257.87283-.89969.8037Z"/><path d="M43.93376,43.331a2.32489,2.32489,0,0,1-1.20258,3.19592l-.07164-.14264a15.06282,15.06282,0,0,1-1.18965-3.43368,6.38456,6.38456,0,0,1,1.88131-.65013Z"/><path d="M87.32172,105.39121c-.70843-.07059-1.32634-.46949-1.3725-.88677-.04678-.41715.82589-1.40736,2.03521-1.33627l.91424.44466.46922.22844C89.52917,104.82169,88.03007,105.46153,87.32172,105.39121Z"/><path d="M34.34153,94.33226a1.0911,1.0911,0,0,1-1.76317.02766l-.16845-.4198c-.04336-.10835.59148-.70588.7852-.64758a1.84837,1.84837,0,0,1,1.052.84695Z"/><path d="M30.0203,116.73885c-.04351.017-.101-.02313-.1276-.0891l.00623-.00375a.78928.78928,0,0,1,.205-.08828l.0114-.00287C30.14552,116.62414,30.06381,116.72189,30.0203,116.73885Z"/><path d="M77.35187,81.58089a.84338.84338,0,0,1-.714,1.0542c-.51949.077-1.7018-.18306-1.62521-.72635l.21-.0696a6.90279,6.90279,0,0,1,2.03813-.25676Z"/><path d="M116.46914,150.87674c-.26488.31128-.65909.234-.87534-.17209a1.72888,1.72888,0,0,1-.08743-.35622c-.01259-.06648.4703-.355.604-.29019a.852.852,0,0,1,.3494.6425Z"/><path d="M127.80746,13.625c.452.38029.22278.94767-.50956,1.2607,0,0-.04808.02056-.18207-.08706l-.2765-.22182a.84705.84705,0,0,1,.363-1.0718l.28686.05684Z"/><path d="M43.68745,120.44591a.70582.70582,0,0,1-.30565,1.08014l-.21982-.07162-.19165-.06229a.9325.9325,0,0,1,.28621-1.001l.22811.02894Z"/><path d="M25.01659,126.402c.45241.04723.72574.37522.60769.72879a1.5935,1.5935,0,0,1-1.50249.85519l-.33127-.3477-.27531-.28879C23.51606,126.74243,24.56413,126.35487,25.01659,126.402Z"/><path d="M51.02969,144.10687c.04087.33262-.42773.68779-1.04117.78975l-.06327-.12578-.25418-.506c-.12631-.63385-.0132-1.18107.25153-1.21638C50.187,143.01319,50.98887,143.77461,51.02969,144.10687Z"/><path d="M37.86217,96.9764a.77733.77733,0,0,1-.09414.97066,1.66809,1.66809,0,0,1-1.70054-.53584l-.04318-.5791-.02528-.33985A1.55473,1.55473,0,0,1,37.86217,96.9764Z"/><path d="M83.06206,52.5822c.18574.34653-.30023.89537-1.07957,1.21971l-.06141-.09114a3.36742,3.36742,0,0,1-.63511-1.62632l-.00881-.20118A1.82265,1.82265,0,0,1,83.06206,52.5822Z"/><path d="M104.07446,10.15315c.33964.59315.42321,1.23422.1856,1.425a1.21458,1.21458,0,0,1-1.47047-.36393l-.183-.5541c-.0308-.093.79709-.7,1.09724-.61363Z"/><path d="M129.76666,26.66134a1.00317,1.00317,0,0,1-1.15284-.26282,1.42043,1.42043,0,0,1,.75757-1.8321l.84347-.06933.24088-.01975A2.09755,2.09755,0,0,1,129.76666,26.66134Z"/><path d="M80.49974,164.38215c-.36926.13925-.74116.05325-.82621-.191-.08509-.24438.296-.96.98057-1.20721l.64179-.11294.07835-.01376C81.56586,163.44232,80.86914,164.24308,80.49974,164.38215Z"/><path d="M64.72335,120.39156a1.38,1.38,0,0,1-.89229,1.92474l-.48931-.16868-.33207-.11432a1.79083,1.79083,0,0,1,.85942-1.88875l.45547.13185Z"/><path d="M112.71724,16.73662a.38784.38784,0,0,1,.67835-.0195l-.00639.16861-.00684.17469a.43115.43115,0,0,1-.62708.01817l-.01933-.17419Z"/><path d="M142.22688,14.24292c.00845.0801-.01134.15839-.04423.17422a.12622.12622,0,0,1-.14633-.08666l.0121-.06368c.00432-.02266.10736-.04883.1515-.03336Z"/><path d="M24.19514,110.48786a1.58481,1.58481,0,0,1,1.19523,2.11636l-.34178.08151-.70029.16685a1.34647,1.34647,0,0,1-1.04977-1.75343l.48848-.33313Z"/><path d="M111.51526,67.11007a1.11845,1.11845,0,0,1,1.186.95932l-.11047.05611-.38367.19521a.92425.92425,0,0,1-1.028-.73478l.175-.248Z"/><path d="M123.09326,159.40108a.73659.73659,0,0,1-.821-.80075l.17839-.18806.15217-.16056a.89824.89824,0,0,1,.78335.76025l-.15409.20462Z"/><path d="M118.82974,63.60666c.63181.82039.26663,1.52983-.81086,1.57617l-.52853-.25179-.47386-.22578a.951.951,0,0,1,.742-1.42827l.5824.17925Z"/><path d="M25.84929,59.75444c.14-.12405.40132.00392.58072.28452l.04416.22425c.01409.071-.30384.31212-.42228.28287l-.23684-.05859C25.583,60.30677,25.7093,59.87873,25.84929,59.75444Z"/><path d="M102.94251,142.31151c.20112.78231.03963,1.39692-.35846,1.36617-.39854-.03075-1.22825-.609-1.21073-1.236l.16827-.5213a1.34241,1.34241,0,0,1,1.0906.02435Z"/><path d="M153.717,18.59354c.08141-.0481.26338.019.40441.14883l-.0114.1027-.017.15418c-.12752.15757-.29826.20867-.37885.11388C153.63325,19.01821,153.63541,18.64155,153.717,18.59354Z"/><path d="M68.79524,28.91723a1.55758,1.55758,0,0,1-.25572-1.75208l.31565-.03334.33715-.0357a1.57412,1.57412,0,0,1,.25263,1.73133l-.31549.04367Z"/><path d="M58.50692,45.23037c.02824.12011-.12715.25669-.34509.30344l-.19372-.00252c-.02557-.00043-.11008-.28089-.05939-.34077l.132-.15639C58.23862,44.90612,58.47881,45.11043,58.50692,45.23037Z"/><path d="M37.372,140.83264a1.04716,1.04716,0,0,1,1.29835.71162l-.104.31442c-.053.16066-.73518.30569-.951.16946a1.02846,1.02846,0,0,1-.35457-.94622Z"/><path d="M22.13911,77.23725c.01081.21405-.08334.40088-.209.415-.12562.0139-.46942-.30054-.4986-.72905l.03443-.38413.00412-.04507C21.81057,76.47489,22.12857,77.0229,22.13911,77.23725Z"/><path d="M82.62351,128.33876a.90091.90091,0,0,1,.65189-.21056l.154.13279.12915.11108c-.01187.3003-.18947.51852-.39483.4846S82.56685,128.44749,82.62351,128.33876Z"/><path d="M157.66241,96.80114a.304.304,0,0,1-.28213-.18058.43783.43783,0,0,1,.309-.485l.1512.08986.138.08245A.46184.46184,0,0,1,157.66241,96.80114Z"/><path d="M108.01305,151.57609c-.04556.04632-.22718-.04029-.40374-.19266l-.13158-.16282-.01485-.01829c.127-.13575.30281-.17836.39092-.095C107.942,151.19117,108.05826,151.52981,108.01305,151.57609Z"/><path d="M51.52689,154.37383c-.0361-.12994.04087-.20638.171-.17006.12987.03653.15948.14271.06544.236C51.66935,154.53328,51.56286,154.50359,51.52689,154.37383Z"/><path d="M155.6403,96.65238c.01578-.10335.21913-.28567.45173-.40515l.17.04734.12725.03551c.07935.25717.00118.50221-.17362.5442C156.041,96.91682,155.62433,96.75586,155.6403,96.65238Z"/><path d="M130.97542,148.38549c-.013.06019-.11833.07886-.2337.04174l-.09016-.05356c-.015-.0089.01261-.15367.04263-.1631l.10276-.0315C130.91865,148.17339,130.98832,148.32549,130.97542,148.38549Z"/><path d="M53.45085,9.579a.09.09,0,0,1-.12841-.01156c-.02719-.03856-.04093-.1356.02973-.12912C53.42292,9.44463,53.4945,9.5468,53.45085,9.579Z"/><path d="M138.95843,116.358c-.15616.081-.26016.00457-.23118-.17.02943-.17457.15715-.24111.28414-.1476S139.11476,116.2769,138.95843,116.358Z"/><path d="M95.3511,7.24588c.0066-.06981.06618-.09409.13294-.05426s.06133.09718-.01189.12689C95.3992,7.34813,95.3445,7.31546,95.3511,7.24588Z"/><path d="M64.96014,68.87539c-.09817.02656-.14789-.03394-.11094-.13464.037-.10088.11729-.12289.17807-.04875S65.05787,68.8486,64.96014,68.87539Z"/><path d="M112.37143,102.97372a.087.087,0,0,1-.00452-.11873c.03011-.03023.11178-.05668.11415.00843C112.48334,102.92872,112.40391,103.0086,112.37143,102.97372Z"/><path d="M69.99442,166.72505c-.04053-.07951.001-.128.09207-.1077s.12448.08557.07375.14487S70.03486,166.80474,69.99442,166.72505Z"/></g></mask></defs><g class="cls-1"><path class="cls-2" d="M63.55482,139.17284l2.46595.93275,2.50743.76651.633-2.10908-2.12145-.81033-1.796-1.35047Zm-2.71165,5.04488,2.69618,1.03241,2.7109.97161.65752-2.157-2.37166-.87994-2.24009-1.1301Zm5.45045-17.89265.294-.03151.67583-2.3031.35568-2.38727.5247-2.34553.67563-2.27864-.3487.51151-2.16186,1.44675-2.31016,1.2071-2.122,1.511,1.8198,1.20941,1.3441,1.70686Zm20.75308,1.75121-2.40474-.967-2.24583-.96849-2.36755-.66418-2.3033-.827-2.24778-.97683-2.19044-.87569-.74083,2.25359,2.01978,1.10145,2.22847.75037,2.22728.754,2.07907,1.11011,2.26482.67557,2.06044.973ZM70.63617,147.95535l2.14873,1.06846,2.0944,1.1371,1.32343-2.602-2.17787-.53218-2.06242-.88752ZM130.785,8.68387l-2.11067-1.15855-2.13021-1.13266-2.26778-.82488-2.162-1.08818-2.30617-.71509L117.456,3.21515l-2.27994-.77632-2.29429-.76122-2.42151-.19238-2.36563-.4178-2.3766-.35069L103.356.14709,100.94649,0,98.53158.12757,96.12345.07338l-2.3969.26027L91.31076.31056,88.9133.563,86.569,1.15011l-2.34834.50913-2.36609.43749-2.3697.4645L77.24326,3.465l-2.33719.60993-2.25.86746L70.54076,6.123l-2.29826.763L66.17577,8.14122l-2.16028,1.0644L61.88274,10.3297l-1.99725,1.35422-2.12566,1.14993L55.86249,14.331,53.906,15.73382l-1.917,1.45327-1.95318,1.408-1.88982,1.492-1.937,1.44168-1.72736,1.6858L42.671,24.80683l-1.72524,1.68562-1.66052,1.75137-1.75086,1.66-1.59751,1.80676L34.33745,33.513l-1.77912,1.64443-1.63617,1.77869L29.48087,38.878l-1.58552,1.8246L26.534,42.70809l-1.546,1.831L23.41482,46.3516,22.0139,48.29632l-1.38184,1.95735L19.24568,52.2066l-1.465,1.89861-1.3378,1.98758-1.23819,2.052L14.08561,60.2682l-1.53946,1.86328-1.00083,2.19-1.28872,2.0218-.946,2.20963-1.1588,2.09455-1.2354,2.06368-.833,2.25395-.88828,2.22309L4.178,79.36136l-.68151,2.29938-.87484,2.2334-.66512,2.30217L1.457,88.5394l-.33212,2.37108L.66435,93.2537.33618,95.62018,0,97.99521l.12977,2.39643-.03872,2.39265.08569,2.39683.53813,2.34212.24291,2.38865.67156,2.301.86668,2.23148.71069,2.28.82206,2.24771,1.16275,2.09222.91574,2.22629,1.24221,2.05219,1.59288,1.81261,1.39838,1.93344,1.52862,1.83292,1.45216,1.89937,1.51783,1.85366,1.69932,1.68718,1.80857,1.57,1.65753,1.72966,1.7589,1.62238,1.83845,1.531,2.02049,1.2992,1.80844,1.56822,1.93687,1.402,1.82814,1.56069,2.12359,1.13525L35.2788,151.158l2.10969,1.14148,1.87551,1.51661,2.20581.974,2.07355,1.19328,2.04081,1.25565,2.12519,1.10161,1.9947,1.35271,2.08659,1.18741,2.28015.80411,2.13843,1.07643,2.06174,1.2364,2.19729.9625,2.23942.86433,2.1575,1.04163,2.24559.83626,2.19414.954,2.15381,1.06163,2.24716.82773,2.23082.87765,2.28073.73844,2.30562.65814,2.35878.464,2.26279.80525,2.33905.52074,2.2985.71746,2.37339.36519,2.39268.21082,2.36794.362,2.39672.06089,2.37575.39941,2.39826.01688,2.38847-.23788,2.39022-.09221,2.35941-.39654,2.37277-.29229,2.36823-.37772,2.23691-.88533,2.29187-.668,2.29865-.69285,2.11172-1.13869,2.08684-1.162,2.08422-1.16428,2.04763-1.23835,1.86534-1.49849,1.85759-1.50233,1.91444-1.45147,1.547-1.84085,1.5545-1.8146,1.80819-1.5974,1.529-1.84789,1.19808-2.09427,1.50847-1.86355,1.292-2.01514,1.34521-1.98281.94445-2.21623,1.243-2.04037,1.0808-2.12982,1.11629-2.11274.91086-2.212,1.11573-2.11853,1.08-2.14091.94709-2.20134.93115-2.20845.79023-2.26146.79873-2.25729.70551-2.29052.69344-2.29442.73458-2.278.86855-2.24129.63869-2.313.76137-2.29218.62378-2.33181.32864-2.40628.82032-2.28138.56019-2.34905.32009-2.399.4091-2.3758.53815-2.35107.47671-2.36413.18825-2.40788.386-2.3797.46155-2.37651.14383-2.4113.18773-2.40715-.01911-2.41717.08786-2.41082.16085-2.41384-.208-2.41044-.25015-2.40137.14073-2.42842-.23115-2.40507-.62725-2.351-.33812-2.38282-.528-2.34783L167.18,54.085l-.74118-2.29349-.46426-2.3716-.94783-2.22366-.5024-2.38228-1.237-2.09932-.94158-2.21258-1.07652-2.14983-.996-2.19683-1.1339-2.12993-1.49053-1.90482-1.19381-2.10094-1.3583-1.997-1.78737-1.65188-1.43506-1.94244-1.711-1.69818-1.81579-1.58373-1.74962-1.64513-1.5899-1.84205-1.88773-1.50239-1.97094-1.394-2.01673-1.32151-1.95287-1.41221-2.1854-1.04344-1.98685-1.3641ZM71.8592,107.04149l2.03206,1.61072,2.12867,1.3036,2.301.9667,2.24521,1.08315,2.28615,1.01136,2.36917.79672,2.39722.70231,2.34166.8662,2.41251.60739,2.11963.38317,2.13729.13,2.02335.61314.98635,1.95455.7927,2.072-.28488,2.23493-1.38409,1.78024-2.14485-1.26214L94.46,122.69134l-2.382-.70541-2.21344-1.11308-2.38588-.67444-2.30285-.9005L82.929,118.22416l-2.40214-.61852-2.28522-.96008-2.36437-.72522-2.36038-.72924-1.38124-1.60091-.61861-2.10833.0796-2.19671ZM62.04654,101.478l-.23173-2.18941-.306-2.23439,2.057.87756L65.45953,99.065l1.42864,1.70819.435,2.15449-1.2748,1.92926-2.18872,1.11348-2.36887.64179-2.36624.542,1.50759-1.58636,1.03083-1.95056ZM16.73473,116.97985l-1.34884-2.1725-1.341-2.01433-.80291-2.28521L12.514,108.2011l-.37629-2.39859.10245-2.42353.1581-2.40693.31768-2.39938.71514-2.31688.6506-2.35022.97169-2.2389,1.10648-2.1003,1.40766-1.91377,1.43068-1.87441,1.41078-1.8967,1.84845-1.47166,1.91418-1.343,2.09351-1.05248,2.30595-.36226L30.957,79.641l1.93911,1.4057-.438,2.1012L30.451,84.16362l-1.81926,1.36366-1.45185,1.746L25.9915,89.20375l-1.42944,1.7587-1.26078,1.88993L22.16815,94.8201l-.887,2.09829-.981,2.08153-.84248,2.14118-.9171,2.1161-.55178,2.23537-.54369,2.231-.45707,2.25351-.26026,2.27793-.22793,2.29045Zm13.77768,18.56241-1.49277-1.88017-1.3206-1.87722-1.24785-1.95014-.79374-2.17544-.6667-2.21-.44153-2.26771-.37886-2.29555.36735-2.31337.0796-2.30689.45173-2.26424.24831-2.32068.79374-2.18616.659-2.23541,1.01365-2.09788,1.22-2.16072.99386-2.28394,1.34673-2.09051,1.463-2.00383,1.64714-1.85077,1.75837-1.72454,1.6584-1.87063,2.17029-1.22576,2.30378-.89956L44.773,88.7589l2.46858.07,1.75721,1.62435-.54116,2.09587-1.965,1.24309L44.69013,95.2666l-1.67122,1.63212-1.62767,1.69815-1.155,2.05732-1.39206,1.88453-1.27057,1.96981-1.03032,2.10862-1.16055,2.03974-.79235,2.22134-1.24925,1.97988-.5965,2.2552-.7137,2.19237-.94834,2.13053-.33371,2.30144-.47961,2.25721-.37934,2.28251-.17032,2.30795.05133,2.31195.3025,2.29247ZM75.0903,158.54892l-1.74991-1.06423-.64014-1.94278-2.27079-1.20148-2.3548-1.03513-2.23872-1.27822-2.37569-1.00319-2.28841-1.18917-2.3385-.92717-2.26029.40987-1.94243-1.381-1.14019-2.03147,1.05143-2.00361.85659-2.08286,1.11725-1.96778.73828-2.15043,1.086-1.99031,1.01955-2.02053.76483-2.14209,1.13216-1.9475-.73238-1.79769-.73763-1.78682-.79776,2.12083L57.956,130.16064l-.94188,2.06734-1.04962,2.02231-.91544,2.08677-1.03527,2.03013-.81572,2.1207-1.38115,1.859-2.11336.89039-2.228.44543-2.17577-.517L44.636,141.465l1.093-2.31062,1.55213-2.04523,1.10323-2.30048L49.55,132.54294l1.49813-2.08364.99209-2.36532,1.39409-2.24583-2.36588.82386-2.31454.68327-2.36567.52591-2.42225-.15545-2.3623-.3389-2.03215-.905,2.1337-1.11206,2.30454-1.01263,2.33783-.949,2.31172-1.02329,2.25237-1.15071,1.96726-1.61968,2.12978-1.34078,2.02569-1.4917,2.052-1.3872-2.583-.10258-2.62052-.16944-2.55188-.55623-1.16971-1.69889-.26509-2.12134-.26975-2.11942.04856-2.036,1.70587,1.00756,1.95371.72677,2.04381.41955,2.52118.0734,2.51433.13182,2.52239-.0124,2.53351.12832,2.39335.82838L69.87531,111.33l.49538,2.41148-.72879,2.32334,2.24212,1.14781,2.43949.59463,2.22888,1.10122,2.30857.91571,2.27568,1.01041,2.34047.84321,2.43752.58028,2.28741.984,2.37495.74,2.30505.95662,2.38808.67758.84031,1.67057-.41708,1.97628L93.82223,131.374l-2.03474,1.93387-1.257,1.57725L89.37959,136.536l-1.01012,1.78614-2.08473-.39993-1.85225-.87248-1.08336-1.68926-2.15086-1.031-2.09894-.977-2.18037-.80681-2.01134-1.17911-2.08016-1.03115-2.175-.70351-2.88966-.25714-.60916,1.85,2.2445.86135,2.2359.88353,2.139,1.10726,2.18038,1.02427,2.18536,1.00915,2.18161,1.02044,2.27484.79474,2.14558,1.089,2.17214,1.09836.98638,2.106-.39559,2.36949-1.52843,1.95014-1.57444,1.81341-1.55372,1.85311-1.01345,2.20749-1.35612,1.99434-1.02926,2.17838-1.89581,1.97528Zm9.2509,4.92937,2.25422-.86019,1.86224-1.381,1.8709-1.32317,1.78974-1.43827,1.915-1.3293,1.47329-1.795,1.49047-1.76248,1.36915-1.85554,1.54959-1.73246,1.25243-1.94962,1.26184-1.94865.98924-2.13234,1.22606-2.00427.74311-2.24979,1.20477-2.02661.87034-2.17718.68183-2.24353.5409-2.27536.4156-2.29763.12388-2.32152.01465-2.32143,1.323-1.73747,2.20951.79594,1.83788,1.63873.88943,2.3128.41348,2.412.28364,2.44625-.37954,2.43987-.47883,2.41034-.59655,2.395-.67753,2.3873-.915,2.3134-1.38349,2.08293-1.24193,2.1428-1.19786,1.97424-1.0586,2.08314-1.59481,1.69622-1.32722,1.92148-1.70159,1.58928-1.89556,1.34561-1.96334,1.21658-1.97016,1.186-2.10325.9259-2.14465.83645-2.21377.723-2.30712.31666-2.32731.04009Zm44.4507-12.78538-1.16123,2.11736-1.42748,1.94719-1.33517,2.0336-1.6546,1.79249-1.92809,1.494-2.01444,1.3706-2.1927,1.05942-2.36214.58957-2.30789.71618-2.39282.42591-2.34874-.25262,1.77055-1.34442,1.84669-1.34621,1.77193-1.458,1.52459-1.71523,1.6844-1.58221,1.2044-1.9721,1.2612-1.91492,1.29173-1.89847,1.12037-2.00724.96971-2.04619,1.11215-1.98063,1.10367-1.98739.69626-2.16522.525-2.20044.72027-2.15427.01634-2.2602-.08892-2.24365,1.33219-1.38219,2.14813.77524,1.70672,1.65546,1.00686,2.176.221,2.36758.0419,2.35106-.24139,2.35438-.73735,2.24311-.83071,2.204-.91184,2.17139Zm-55.04876-8.14012,3.00488,1.11333,1.64374.86667,1.14742-2.313-2.32608-.52808-2.24878-.81964Z"/><path class="cls-2" d="M63.55482,139.17284l2.46595.93275,2.50743.76651.633-2.10908-2.12145-.81033-1.796-1.35047Zm-2.71165,5.04488,2.69618,1.03241,2.7109.97161.65752-2.157-2.37166-.87994-2.24009-1.1301Zm5.45045-17.89265.294-.03151.67583-2.3031.35568-2.38727.5247-2.34553.67563-2.27864-.3487.51151-2.16186,1.44675-2.31016,1.2071-2.122,1.511,1.8198,1.20941,1.3441,1.70686Zm20.75308,1.75121-2.40474-.967-2.24583-.96849-2.36755-.66418-2.3033-.827-2.24778-.97683-2.19044-.87569-.74083,2.25359,2.01978,1.10145,2.22847.75037,2.22728.754,2.07907,1.11011,2.26482.67557,2.06044.973ZM70.63617,147.95535l2.14873,1.06846,2.0944,1.1371,1.32343-2.602-2.17787-.53218-2.06242-.88752ZM130.785,8.68387l-2.11067-1.15855-2.13021-1.13266-2.26778-.82488-2.162-1.08818-2.30617-.71509L117.456,3.21515l-2.27994-.77632-2.29429-.76122-2.42151-.19238-2.36563-.4178-2.3766-.35069L103.356.14709,100.94649,0,98.53158.12757,96.12345.07338l-2.3969.26027L91.31076.31056,88.9133.563,86.569,1.15011l-2.34834.50913-2.36609.43749-2.3697.4645L77.24326,3.465l-2.33719.60993-2.25.86746L70.54076,6.123l-2.29826.763L66.17577,8.14122l-2.16028,1.0644L61.88274,10.3297l-1.99725,1.35422-2.12566,1.14993L55.86249,14.331,53.906,15.73382l-1.917,1.45327-1.95318,1.408-1.88982,1.492-1.937,1.44168-1.72736,1.6858L42.671,24.80683l-1.72524,1.68562-1.66052,1.75137-1.75086,1.66-1.59751,1.80676L34.33745,33.513l-1.77912,1.64443-1.63617,1.77869L29.48087,38.878l-1.58552,1.8246L26.534,42.70809l-1.546,1.831L23.41482,46.3516,22.0139,48.29632l-1.38184,1.95735L19.24568,52.2066l-1.465,1.89861-1.3378,1.98758-1.23819,2.052L14.08561,60.2682l-1.53946,1.86328-1.00083,2.19-1.28872,2.0218-.946,2.20963-1.1588,2.09455-1.2354,2.06368-.833,2.25395-.88828,2.22309L4.178,79.36136l-.68151,2.29938-.87484,2.2334-.66512,2.30217L1.457,88.5394l-.33212,2.37108L.66435,93.2537.33618,95.62018,0,97.99521l.12977,2.39643-.03872,2.39265.08569,2.39683.53813,2.34212.24291,2.38865.67156,2.301.86668,2.23148.71069,2.28.82206,2.24771,1.16275,2.09222.91574,2.22629,1.24221,2.05219,1.59288,1.81261,1.39838,1.93344,1.52862,1.83292,1.45216,1.89937,1.51783,1.85366,1.69932,1.68718,1.80857,1.57,1.65753,1.72966,1.7589,1.62238,1.83845,1.531,2.02049,1.2992,1.80844,1.56822,1.93687,1.402,1.82814,1.56069,2.12359,1.13525L35.2788,151.158l2.10969,1.14148,1.87551,1.51661,2.20581.974,2.07355,1.19328,2.04081,1.25565,2.12519,1.10161,1.9947,1.35271,2.08659,1.18741,2.28015.80411,2.13843,1.07643,2.06174,1.2364,2.19729.9625,2.23942.86433,2.1575,1.04163,2.24559.83626,2.19414.954,2.15381,1.06163,2.24716.82773,2.23082.87765,2.28073.73844,2.30562.65814,2.35878.464,2.26279.80525,2.33905.52074,2.2985.71746,2.37339.36519,2.39268.21082,2.36794.362,2.39672.06089,2.37575.39941,2.39826.01688,2.38847-.23788,2.39022-.09221,2.35941-.39654,2.37277-.29229,2.36823-.37772,2.23691-.88533,2.29187-.668,2.29865-.69285,2.11172-1.13869,2.08684-1.162,2.08422-1.16428,2.04763-1.23835,1.86534-1.49849,1.85759-1.50233,1.91444-1.45147,1.547-1.84085,1.5545-1.8146,1.80819-1.5974,1.529-1.84789,1.19808-2.09427,1.50847-1.86355,1.292-2.01514,1.34521-1.98281.94445-2.21623,1.243-2.04037,1.0808-2.12982,1.11629-2.11274.91086-2.212,1.11573-2.11853,1.08-2.14091.94709-2.20134.93115-2.20845.79023-2.26146.79873-2.25729.70551-2.29052.69344-2.29442.73458-2.278.86855-2.24129.63869-2.313.76137-2.29218.62378-2.33181.32864-2.40628.82032-2.28138.56019-2.34905.32009-2.399.4091-2.3758.53815-2.35107.47671-2.36413.18825-2.40788.386-2.3797.46155-2.37651.14383-2.4113.18773-2.40715-.01911-2.41717.08786-2.41082.16085-2.41384-.208-2.41044-.25015-2.40137.14073-2.42842-.23115-2.40507-.62725-2.351-.33812-2.38282-.528-2.34783L167.18,54.085l-.74118-2.29349-.46426-2.3716-.94783-2.22366-.5024-2.38228-1.237-2.09932-.94158-2.21258-1.07652-2.14983-.996-2.19683-1.1339-2.12993-1.49053-1.90482-1.19381-2.10094-1.3583-1.997-1.78737-1.65188-1.43506-1.94244-1.711-1.69818-1.81579-1.58373-1.74962-1.64513-1.5899-1.84205-1.88773-1.50239-1.97094-1.394-2.01673-1.32151-1.95287-1.41221-2.1854-1.04344-1.98685-1.3641ZM71.8592,107.04149l2.03206,1.61072,2.12867,1.3036,2.301.9667,2.24521,1.08315,2.28615,1.01136,2.36917.79672,2.39722.70231,2.34166.8662,2.41251.60739,2.11963.38317,2.13729.13,2.02335.61314.98635,1.95455.7927,2.072-.28488,2.23493-1.38409,1.78024-2.14485-1.26214L94.46,122.69134l-2.382-.70541-2.21344-1.11308-2.38588-.67444-2.30285-.9005L82.929,118.22416l-2.40214-.61852-2.28522-.96008-2.36437-.72522-2.36038-.72924-1.38124-1.60091-.61861-2.10833.0796-2.19671ZM62.04654,101.478l-.23173-2.18941-.306-2.23439,2.057.87756L65.45953,99.065l1.42864,1.70819.435,2.15449-1.2748,1.92926-2.18872,1.11348-2.36887.64179-2.36624.542,1.50759-1.58636,1.03083-1.95056ZM16.73473,116.97985l-1.34884-2.1725-1.341-2.01433-.80291-2.28521L12.514,108.2011l-.37629-2.39859.10245-2.42353.1581-2.40693.31768-2.39938.71514-2.31688.6506-2.35022.97169-2.2389,1.10648-2.1003,1.40766-1.91377,1.43068-1.87441,1.41078-1.8967,1.84845-1.47166,1.91418-1.343,2.09351-1.05248,2.30595-.36226L30.957,79.641l1.93911,1.4057-.438,2.1012L30.451,84.16362l-1.81926,1.36366-1.45185,1.746L25.9915,89.20375l-1.42944,1.7587-1.26078,1.88993L22.16815,94.8201l-.887,2.09829-.981,2.08153-.84248,2.14118-.9171,2.1161-.55178,2.23537-.54369,2.231-.45707,2.25351-.26026,2.27793-.22793,2.29045Zm13.77768,18.56241-1.49277-1.88017-1.3206-1.87722-1.24785-1.95014-.79374-2.17544-.6667-2.21-.44153-2.26771-.37886-2.29555.36735-2.31337.0796-2.30689.45173-2.26424.24831-2.32068.79374-2.18616.659-2.23541,1.01365-2.09788,1.22-2.16072.99386-2.28394,1.34673-2.09051,1.463-2.00383,1.64714-1.85077,1.75837-1.72454,1.6584-1.87063,2.17029-1.22576,2.30378-.89956L44.773,88.7589l2.46858.07,1.75721,1.62435-.54116,2.09587-1.965,1.24309L44.69013,95.2666l-1.67122,1.63212-1.62767,1.69815-1.155,2.05732-1.39206,1.88453-1.27057,1.96981-1.03032,2.10862-1.16055,2.03974-.79235,2.22134-1.24925,1.97988-.5965,2.2552-.7137,2.19237-.94834,2.13053-.33371,2.30144-.47961,2.25721-.37934,2.28251-.17032,2.30795.05133,2.31195.3025,2.29247ZM75.0903,158.54892l-1.74991-1.06423-.64014-1.94278-2.27079-1.20148-2.3548-1.03513-2.23872-1.27822-2.37569-1.00319-2.28841-1.18917-2.3385-.92717-2.26029.40987-1.94243-1.381-1.14019-2.03147,1.05143-2.00361.85659-2.08286,1.11725-1.96778.73828-2.15043,1.086-1.99031,1.01955-2.02053.76483-2.14209,1.13216-1.9475-.73238-1.79769-.73763-1.78682-.79776,2.12083L57.956,130.16064l-.94188,2.06734-1.04962,2.02231-.91544,2.08677-1.03527,2.03013-.81572,2.1207-1.38115,1.859-2.11336.89039-2.228.44543-2.17577-.517L44.636,141.465l1.093-2.31062,1.55213-2.04523,1.10323-2.30048L49.55,132.54294l1.49813-2.08364.99209-2.36532,1.39409-2.24583-2.36588.82386-2.31454.68327-2.36567.52591-2.42225-.15545-2.3623-.3389-2.03215-.905,2.1337-1.11206,2.30454-1.01263,2.33783-.949,2.31172-1.02329,2.25237-1.15071,1.96726-1.61968,2.12978-1.34078,2.02569-1.4917,2.052-1.3872-2.583-.10258-2.62052-.16944-2.55188-.55623-1.16971-1.69889-.26509-2.12134-.26975-2.11942.04856-2.036,1.70587,1.00756,1.95371.72677,2.04381.41955,2.52118.0734,2.51433.13182,2.52239-.0124,2.53351.12832,2.39335.82838L69.87531,111.33l.49538,2.41148-.72879,2.32334,2.24212,1.14781,2.43949.59463,2.22888,1.10122,2.30857.91571,2.27568,1.01041,2.34047.84321,2.43752.58028,2.28741.984,2.37495.74,2.30505.95662,2.38808.67758.84031,1.67057-.41708,1.97628L93.82223,131.374l-2.03474,1.93387-1.257,1.57725L89.37959,136.536l-1.01012,1.78614-2.08473-.39993-1.85225-.87248-1.08336-1.68926-2.15086-1.031-2.09894-.977-2.18037-.80681-2.01134-1.17911-2.08016-1.03115-2.175-.70351-2.88966-.25714-.60916,1.85,2.2445.86135,2.2359.88353,2.139,1.10726,2.18038,1.02427,2.18536,1.00915,2.18161,1.02044,2.27484.79474,2.14558,1.089,2.17214,1.09836.98638,2.106-.39559,2.36949-1.52843,1.95014-1.57444,1.81341-1.55372,1.85311-1.01345,2.20749-1.35612,1.99434-1.02926,2.17838-1.89581,1.97528Zm9.2509,4.92937,2.25422-.86019,1.86224-1.381,1.8709-1.32317,1.78974-1.43827,1.915-1.3293,1.47329-1.795,1.49047-1.76248,1.36915-1.85554,1.54959-1.73246,1.25243-1.94962,1.26184-1.94865.98924-2.13234,1.22606-2.00427.74311-2.24979,1.20477-2.02661.87034-2.17718.68183-2.24353.5409-2.27536.4156-2.29763.12388-2.32152.01465-2.32143,1.323-1.73747,2.20951.79594,1.83788,1.63873.88943,2.3128.41348,2.412.28364,2.44625-.37954,2.43987-.47883,2.41034-.59655,2.395-.67753,2.3873-.915,2.3134-1.38349,2.08293-1.24193,2.1428-1.19786,1.97424-1.0586,2.08314-1.59481,1.69622-1.32722,1.92148-1.70159,1.58928-1.89556,1.34561-1.96334,1.21658-1.97016,1.186-2.10325.9259-2.14465.83645-2.21377.723-2.30712.31666-2.32731.04009Zm44.4507-12.78538-1.16123,2.11736-1.42748,1.94719-1.33517,2.0336-1.6546,1.79249-1.92809,1.494-2.01444,1.3706-2.1927,1.05942-2.36214.58957-2.30789.71618-2.39282.42591-2.34874-.25262,1.77055-1.34442,1.84669-1.34621,1.77193-1.458,1.52459-1.71523,1.6844-1.58221,1.2044-1.9721,1.2612-1.91492,1.29173-1.89847,1.12037-2.00724.96971-2.04619,1.11215-1.98063,1.10367-1.98739.69626-2.16522.525-2.20044.72027-2.15427.01634-2.2602-.08892-2.24365,1.33219-1.38219,2.14813.77524,1.70672,1.65546,1.00686,2.176.221,2.36758.0419,2.35106-.24139,2.35438-.73735,2.24311-.83071,2.204-.91184,2.17139Zm-55.04876-8.14012,3.00488,1.11333,1.64374.86667,1.14742-2.313-2.32608-.52808-2.24878-.81964Z"/><polygon class="cls-3" points="143.913 47.202 141.723 46.308 139.487 45.508 137.355 44.473 135.311 43.251 133.083 42.417 130.921 41.44 128.792 40.398 126.646 39.386 124.608 38.153 122.434 37.193 120.271 36.208 118.182 35.084 116.101 33.939 114.077 32.682 111.965 31.591 109.874 30.461 107.654 29.571 105.691 28.209 103.468 27.322 101.45 26.061 99.462 24.75 97.25 23.834 95.2 22.626 93.366 21.08 91.259 19.984 89.19 18.811 87.009 17.836 84.637 17.526 82.296 17.249 79.926 17.045 77.564 17.343 75.212 17.736 72.971 18.552 70.733 19.359 68.556 20.326 66.447 21.439 64.592 22.957 62.641 24.303 60.658 25.615 58.808 27.107 57.156 28.823 55.354 30.375 53.697 32.081 52.155 33.89 50.596 35.681 48.869 37.345 47.631 39.395 46.065 41.2 44.848 43.252 43.356 45.132 42.581 47.452 41.487 49.625 41.001 52.005 40.764 54.41 40.807 56.814 40.928 59.216 41.375 61.584 42.223 63.84 42.886 66.179 44.062 68.299 45.286 70.389 46.888 72.213 48.388 74.096 49.989 75.896 51.599 77.692 53.323 79.383 55.031 81.099 56.874 82.666 58.899 84.004 60.678 85.659 62.724 86.958 64.748 88.284 66.7 89.718 68.713 91.062 70.789 92.303 72.818 93.625 75.058 94.591 77.065 95.959 79.225 97.047 81.299 98.286 83.395 99.477 85.627 100.42 87.763 101.55 89.95 102.578 92.04 103.809 94.262 104.766 96.458 105.772 98.802 106.432 100.988 107.463 103.243 108.329 105.495 109.203 107.788 109.969 110.063 110.795 112.407 111.398 114.698 112.208 117.097 112.582 119.487 112.956 121.842 113.574 124.271 113.651 126.681 113.937 129.107 113.863 131.536 113.828 133.944 113.488 136.324 112.981 138.617 112.169 140.875 111.261 142.852 109.837 144.877 108.511 146.582 106.792 148.327 105.092 149.706 103.082 150.688 100.851 151.519 98.628 152.337 96.401 153.311 94.224 153.8 91.888 154.72 89.679 155.319 87.374 155.772 85.036 156.245 82.701 156.42 80.322 156.701 77.963 156.864 75.594 156.936 73.221 157.071 70.841 156.751 68.478 156.431 66.127 155.914 63.816 155.531 61.469 154.615 59.278 153.777 57.065 152.731 54.931 151.214 53.104 149.867 51.123 147.866 49.806 146.025 48.304 143.913 47.202"/><polygon class="cls-2" points="78.027 83.354 80.39 83.665 82.707 82.927 84.968 82.071 87.298 81.458 89.682 81.095 91.966 81.792 93.865 83.325 95.049 85.498 95.984 87.798 96.869 90.114 97.72 92.429 99.426 94.211 101.711 94.853 104.103 95.085 105.664 93.484 104.974 91.296 103.295 89.425 101.437 87.698 99.887 85.706 98.283 83.751 96.672 81.803 94.986 79.903 92.917 78.43 90.487 78.034 88.044 77.787 85.58 77.361 83.112 77.712 80.654 77.973 78.201 78.218 75.756 78.558 74.438 80.253 75.751 82.32 78.027 83.354"/><polygon class="cls-4" points="88.046 55.341 86.908 57.233 84.851 58.004 82.728 58.537 80.693 57.693 79.06 56.311 77.901 54.516 77.54 52.35 78.293 50.279 79.757 48.701 81.588 47.695 83.685 47.274 85.775 47.901 87.441 49.293 88.71 51.094 88.739 53.3 88.046 55.341"/><polygon class="cls-5" points="91.897 57.34 90.875 59.342 89.176 60.815 87.351 62.139 85.12 62.465 82.944 62.582 80.754 62.362 78.708 61.517 76.437 60.23 74.945 58.095 73.641 55.865 73.081 53.3 73.682 50.753 74.381 48.249 76.018 46.229 77.785 44.312 80.188 43.273 82.757 43.024 85.284 43.349 87.762 44.074 89.946 45.491 91.783 47.374 92.606 49.861 93.112 52.374 92.957 54.966 91.897 57.34"/><polygon class="cls-4" points="126.399 75.248 125.115 76.928 123.339 78.144 121.19 78.164 119.043 77.783 117.407 76.326 116.44 74.424 116.185 72.319 116.649 70.187 117.999 68.437 120.006 67.615 122.114 67.19 124.162 67.92 126.015 69.107 127.068 71.06 127.043 73.231 126.399 75.248"/><polygon class="cls-5" points="130.478 77.365 129.066 79.096 127.575 80.724 125.616 81.731 123.566 82.52 121.349 82.906 119.123 82.508 117.175 81.382 114.937 80.089 113.287 78.095 111.953 75.845 111.842 73.235 111.907 70.647 112.884 68.233 114.359 66.1 116.183 64.214 118.634 63.28 121.177 62.7 123.787 62.981 126.263 63.872 128.276 65.546 130.173 67.342 131.283 69.725 131.45 72.32 131.257 74.879 130.478 77.365"/><polygon class="cls-4" points="60.364 65.827 62.717 65.866 64.855 66.776 66.844 67.964 68.854 69.05 67.062 66.956 65.693 64.535 65.523 61.956 67.778 62.402 69.628 64.036 71.384 65.766 73.049 67.61 72.286 65.435 71.454 63.326 70.498 61.27 69.71 59.127 68.32 57.31 66.9 55.567 65.441 53.828 63.407 52.828 61.26 52.057 58.967 51.689 56.71 52.253 54.508 53.057 53.053 54.885 52.002 56.861 51.498 59.116 51.928 61.395 52.838 63.531 54.109 65.467 55.723 67.118 57.466 68.611 59.191 70.141 61.214 71.251 63.129 72.542 65.197 73.549 67.353 74.355 65.781 72.775 64.259 71.158 62.476 69.778 61.265 67.891 60.364 65.827"/><polygon class="cls-4" points="124.061 98.903 122.81 97.003 120.694 96.017 118.696 94.856 116.547 93.721 119.391 93.921 122.146 93.771 124.338 92.492 122.677 90.971 120.276 90.451 117.907 89.676 115.336 89.692 117.667 89.134 119.808 88.342 122.084 88.144 124.27 87.466 126.551 87.496 128.821 87.458 131.064 87.866 133.034 88.995 134.858 90.342 136.535 91.947 137.343 94.127 137.871 96.385 137.529 98.686 136.511 100.777 134.712 102.251 132.589 103.108 130.351 103.554 128.066 103.76 125.787 103.456 123.563 102.898 121.335 102.328 119.164 101.55 117.11 100.498 115.069 99.439 113.217 98.162 115.34 98.655 117.508 99.18 119.731 99.399 121.96 99.493 124.061 98.903"/><polygon class="cls-4" points="88.059 24.67 85.857 23.545 83.503 22.769 81.032 22.544 78.592 22.912 76.142 23.243 73.903 24.295 71.866 25.667 70.052 27.312 68.668 29.321 67.43 31.558 67.668 34.102 69.237 36.007 70.668 33.09 70.545 35.178 70.914 37.308 71.95 39.22 73.911 40.375 74.624 37.894 76.173 35.94 78.187 34.443 80.629 33.807 82.977 33.788 85.18 34.6 87.26 35.721 89.235 37.069 90.981 38.701 92.38 40.662 94.156 42.261 95.768 44.013 97.514 45.635 99.599 46.755 101.756 47.113 100.159 45.401 98.521 43.572 97.636 41.277 96.724 39.006 95.993 36.671 95.238 34.343 94.255 32.104 93.123 29.938 91.79 27.871 89.928 26.263 88.059 24.67"/><polygon class="cls-4" points="141.888 52.598 143.943 53.957 145.94 55.365 147.593 57.184 148.907 59.268 149.863 61.545 150.387 63.96 150.269 66.418 149.98 68.829 149.509 71.258 147.995 73.325 145.928 74.791 143.431 74.515 145.057 71.628 143.21 72.706 141.374 73.768 139.284 73.854 137.321 73.235 138.983 71.296 139.446 68.804 139.612 66.298 138.682 63.944 137.349 62.013 135.409 60.695 133.344 59.516 131.057 58.829 128.668 58.646 126.359 58.007 124.008 57.627 121.623 57.475 119.297 56.944 117.23 55.803 115.669 54.348 117.935 54.928 120.394 54.815 122.818 54.448 125.189 53.824 127.461 52.896 129.858 52.375 132.265 51.98 134.654 51.387 137.099 51.603 139.496 52.031 141.888 52.598"/><polygon class="cls-2" points="103.879 74.404 101.521 74.58 99.256 73.989 97.035 73.197 94.962 72.036 93.368 70.279 92.143 68.237 90.931 69.286 90.868 71.427 92.319 73.068 93.865 74.589 95.876 75.429 97.786 76.392 99.864 76.9 102.019 77.16 103.791 75.961 103.879 74.404"/></g></svg>