<svg id="圖層_1" data-name="圖層 1" xmlns="http://www.w3.org/2000/svg" xmlns:xlink="http://www.w3.org/1999/xlink" viewBox="0 0 56.97174 55.6009"><defs><style>.cls-1{fill:none;}.cls-2{fill:#a8d1cc;}.cls-3{clip-path:url(#clip-path);}.cls-4{opacity:0.5;}.cls-5{clip-path:url(#clip-path-2);}.cls-6{fill:#fff;fill-rule:evenodd;}</style><clipPath id="clip-path"><polygon class="cls-1" points="712.905 -313.504 999.443 -432.913 999.443 -678.795 -94.849 -678.795 712.905 -313.504"/></clipPath><clipPath id="clip-path-2"><rect class="cls-1" x="-358.78354" y="-1106.96271" width="1850.04119" height="1211.84907"/></clipPath></defs><title>kyotokimono REMAKE-體驗流程0706</title><polygon class="cls-2" points="28.234 6.001 26.974 5.357 25.917 4.22 24.79 3.147 23.941 1.757 22.508 1.202 22.294 2.512 21.789 3.888 20.994 5.261 20.631 6.757 20.765 8.291 21.353 9.757 21.709 11.177 21.832 12.697 21.929 14.246 22.163 15.773 23.314 16.961 23.809 18.381 24.766 19.58 25.248 21.011 26.277 22.092 26.687 23.783 28.319 23.824 29.765 23.763 30.861 22.757 31.332 21.287 32.16 20.143 32.869 18.912 33.648 17.702 34.039 16.316 34.589 14.989 35.206 13.664 35.108 12.17 35.715 10.807 35.867 9.431 35.594 8.058 35.377 6.712 35.658 5.251 34.644 4.107 34.624 2.651 33.494 1.699 33.165 0 31.815 1.296 30.666 2.341 29.842 3.641 28.898 4.851 28.234 6.001"/><polygon class="cls-2" points="6.103 21.907 5.065 22.855 3.71 23.605 2.217 24.118 0.824 24.827 0 25.946 0.805 26.674 2.037 27.488 3.041 28.813 4.478 29.358 6.076 29.38 7.538 29.655 8.946 30.584 10.471 30.543 11.999 29.743 13.513 30.522 15.033 30.458 16.483 29.712 17.955 29.48 19.433 29.304 20.917 29.076 22.451 28.738 23.234 27.392 22.803 26.136 22.845 24.588 21.965 23.422 21.305 22.082 19.762 21.536 18.705 20.594 17.633 19.663 16.948 18.161 15.759 17.295 14.292 16.905 12.922 16.405 11.661 15.873 10.294 15.685 9.1 14.637 7.63 15.246 6.278 14.651 4.943 15.376 3.511 15.009 2.582 15.815 2.516 17.171 3.825 18.15 4.383 19.623 5.333 20.829 6.103 21.907"/><polygon class="cls-2" points="14.492 47.7 14.454 49.238 14.759 50.766 15.533 52.205 15.41 53.823 15.851 55.601 17.529 54.715 18.347 53.356 19.941 52.849 20.776 51.553 21.866 50.471 22.53 49.085 23.002 47.638 23.96 46.387 24.581 44.991 24.687 43.429 25.398 42.049 24.982 40.402 25.613 38.994 25.668 37.488 25.345 36.007 25.272 34.592 25.093 33.028 23.586 32.743 22.111 32.732 20.872 33.682 19.491 34.028 17.937 34.113 16.572 34.676 15.503 35.733 14.695 37.083 13.588 37.97 12.32 38.7 10.924 39.365 10.169 40.566 9.718 41.93 8.416 42.781 8.541 44.366 7.97 45.599 7.656 46.918 7.38 48.238 7.015 49.718 8.706 49.491 10.184 49.111 11.503 48.216 13.125 48.262 14.492 47.7"/><polygon class="cls-2" points="41.39 47.72 43.065 47.671 44.498 48.648 46.093 48.468 47.649 48.538 48.928 48.299 49.041 47.168 48.024 45.969 47.747 44.457 46.946 43.187 46.026 42.007 45.22 40.731 44.012 39.834 42.927 38.783 41.79 37.785 40.532 36.945 39.169 36.277 37.805 35.643 36.569 34.791 35.184 34.241 33.984 33.128 32.376 33.567 30.868 33.297 30.197 34.627 29.748 36.012 29.505 37.462 30.075 38.887 30.426 40.276 30.604 41.683 30.568 43.17 30.669 44.667 31.496 45.914 31.686 47.432 32.342 48.757 33.533 49.671 34.11 50.982 34.911 52.164 36.512 52.479 37.484 53.435 38.561 54.281 39.659 55.172 40.979 55.205 41.385 53.915 41.068 52.38 41.458 50.867 41.579 49.336 41.39 47.72"/><polygon class="cls-2" points="49.883 22.269 50.949 20.992 50.889 19.233 52.172 18.121 52.477 16.553 53.151 15.157 51.683 15.378 50.146 14.61 48.668 15.029 47.244 15.583 45.799 15.986 44.463 16.666 43.243 17.499 41.548 17.659 40.71 19.106 39.515 20.014 38.173 20.742 37.05 21.744 36.079 22.898 34.692 23.665 33.841 24.935 33.108 26.283 33.473 27.671 34.019 28.771 35.363 29.208 36.591 29.893 37.919 30.425 39.237 31.238 40.749 30.862 42.169 31.247 43.623 31.321 45.035 30.698 46.552 31.288 47.963 30.848 49.222 30.186 50.616 30.011 52.05 29.782 53.085 28.761 54.339 28.131 55.325 27.135 56.387 26.228 56.972 24.986 55.77 24.117 54.439 23.303 52.989 22.796 51.456 22.55 49.883 22.269"/><g class="cls-3"><g class="cls-4"><g class="cls-5"><path class="cls-6" d="M16.10609,52.49613c-1.07325.09226-2.73781.01478-2.77159.42806,1.06449-.08857,2.73756-.00737,2.77159-.42806"/><path class="cls-6" d="M41.18378,43.41166c4.24172-1.46123-5.14607-1.30994,0,0"/><path class="cls-6" d="M18.91663,40.38475a21.32563,21.32563,0,0,1,2.77134.42806c-.00825-.43544,1.13231-.50923,1.41133-.86347a20.99425,20.99425,0,0,1-2.79713-.43172c0,.43541-1.132.51291-1.38554.86713"/><path class="cls-6" d="M48.15661,30.86411c.06756-.55348,1.78292-.60145,1.39405-1.29888H46.7623c-1.56321.62361-1.50416,1.06274,1.39431,1.29888"/><path class="cls-6" d="M45.37573,10.5328V9.66936H41.18456c-.16917.77859,1.39405,1.00736,4.19117.86344"/><path class="cls-6" d="M28.65358,10.10035c6.54012.13654,3.72623-2.00368,0-2.166-2.60269.82656.828.786,0,2.166"/><path class="cls-6" d="M10.54459,9.23206c-1.08177.096-2.75483.01478-2.7801.43544,1.073-.09963,2.73781-.01475,2.7801-.43544"/><path class="cls-6" d="M9.15441,6.641c-.38887-.12176-2.11248.20667-1.3858.42437.37159.12914,2.087-.20295,1.3858-.42437"/><path class="cls-6" d="M20.30243,4.04648c0-.23983-1.13231-.49813-1.3858,0-.02553.23249,1.10678.4871,1.3858,0"/><path class="cls-6" d="M18.91663,2.74206c.36334.12179,2.11248-.20664,1.38554-.428-.41388-.11808-2.12073.203-1.38554.428"/></g></g></g></svg>