<svg id="圖層_1" data-name="圖層 1" xmlns="http://www.w3.org/2000/svg" viewBox="0 0 83.4046 123.4286"><defs><style>.cls-1{fill:#00719c;}</style></defs><path class="cls-1" d="M1.6783,120.0718a1.6784,1.6784,0,1,0,1.6784,1.6784A1.67838,1.67838,0,0,0,1.6783,120.0718Z"/><path class="cls-1" d="M1.6783,100.0599a1.67835,1.67835,0,1,0,1.6784,1.6783A1.6783,1.6783,0,0,0,1.6783,100.0599Z"/><path class="cls-1" d="M1.6783,80.0479a1.67835,1.67835,0,1,0,1.6784,1.6783A1.6783,1.6783,0,0,0,1.6783,80.0479Z"/><path class="cls-1" d="M1.6783,60.0359a1.67835,1.67835,0,1,0,1.6784,1.6784A1.67832,1.67832,0,0,0,1.6783,60.0359Z"/><path class="cls-1" d="M1.6783,40.0239a1.67835,1.67835,0,1,0,1.6784,1.6784A1.67832,1.67832,0,0,0,1.6783,40.0239Z"/><path class="cls-1" d="M1.6783,20.0119a1.6784,1.6784,0,1,0,1.6784,1.6784A1.67838,1.67838,0,0,0,1.6783,20.0119Z"/><path class="cls-1" d="M1.6783,0A1.67835,1.67835,0,1,0,3.3567,1.6783,1.6783,1.6783,0,0,0,1.6783,0Z"/><path class="cls-1" d="M21.6903,120.0718a1.6784,1.6784,0,1,0,1.6784,1.6784A1.67838,1.67838,0,0,0,21.6903,120.0718Z"/><path class="cls-1" d="M21.6903,100.0599a1.67835,1.67835,0,1,0,1.6784,1.6783A1.6783,1.6783,0,0,0,21.6903,100.0599Z"/><path class="cls-1" d="M21.6903,80.0479a1.67835,1.67835,0,1,0,1.6784,1.6783A1.6783,1.6783,0,0,0,21.6903,80.0479Z"/><path class="cls-1" d="M21.6903,60.0359a1.67835,1.67835,0,1,0,1.6784,1.6784A1.67832,1.67832,0,0,0,21.6903,60.0359Z"/><path class="cls-1" d="M21.6903,40.0239a1.67835,1.67835,0,1,0,1.6784,1.6784A1.67832,1.67832,0,0,0,21.6903,40.0239Z"/><path class="cls-1" d="M21.6903,20.0119a1.6784,1.6784,0,1,0,1.6784,1.6784A1.67838,1.67838,0,0,0,21.6903,20.0119Z"/><path class="cls-1" d="M21.6903,0a1.67835,1.67835,0,1,0,1.6784,1.6783A1.6783,1.6783,0,0,0,21.6903,0Z"/><circle class="cls-1" cx="41.7023" cy="121.7502" r="1.6784"/><path class="cls-1" d="M41.7023,100.0599a1.67835,1.67835,0,1,0,1.6784,1.6783A1.67838,1.67838,0,0,0,41.7023,100.0599Z"/><path class="cls-1" d="M41.7023,80.0479a1.67835,1.67835,0,1,0,1.6784,1.6783A1.67838,1.67838,0,0,0,41.7023,80.0479Z"/><path class="cls-1" d="M41.7023,60.0359a1.67835,1.67835,0,1,0,1.6784,1.6784A1.67841,1.67841,0,0,0,41.7023,60.0359Z"/><path class="cls-1" d="M41.7023,40.0239a1.67835,1.67835,0,1,0,1.6784,1.6784A1.67841,1.67841,0,0,0,41.7023,40.0239Z"/><circle class="cls-1" cx="41.7023" cy="21.6903" r="1.6784"/><path class="cls-1" d="M41.7023,0a1.67835,1.67835,0,1,0,1.6784,1.6783A1.67838,1.67838,0,0,0,41.7023,0Z"/><path class="cls-1" d="M61.7143,120.0718a1.6784,1.6784,0,1,0,1.6783,1.6784A1.67841,1.67841,0,0,0,61.7143,120.0718Z"/><path class="cls-1" d="M61.7143,100.0599a1.67835,1.67835,0,1,0,1.6783,1.6783A1.67832,1.67832,0,0,0,61.7143,100.0599Z"/><path class="cls-1" d="M61.7143,80.0479a1.67835,1.67835,0,1,0,1.6783,1.6783A1.67832,1.67832,0,0,0,61.7143,80.0479Z"/><path class="cls-1" d="M61.7143,60.0359a1.67835,1.67835,0,1,0,1.6783,1.6784A1.67834,1.67834,0,0,0,61.7143,60.0359Z"/><path class="cls-1" d="M61.7143,40.0239a1.67835,1.67835,0,1,0,1.6783,1.6784A1.67834,1.67834,0,0,0,61.7143,40.0239Z"/><path class="cls-1" d="M61.7143,20.0119a1.6784,1.6784,0,1,0,1.6783,1.6784A1.67841,1.67841,0,0,0,61.7143,20.0119Z"/><path class="cls-1" d="M61.7143,0a1.67835,1.67835,0,1,0,1.6783,1.6783A1.67832,1.67832,0,0,0,61.7143,0Z"/><path class="cls-1" d="M81.7263,120.0718a1.6784,1.6784,0,1,0,1.6783,1.6784A1.67841,1.67841,0,0,0,81.7263,120.0718Z"/><path class="cls-1" d="M81.7263,100.0599a1.67835,1.67835,0,1,0,1.6783,1.6783A1.67832,1.67832,0,0,0,81.7263,100.0599Z"/><path class="cls-1" d="M81.7263,80.0479a1.67835,1.67835,0,1,0,1.6783,1.6783A1.67832,1.67832,0,0,0,81.7263,80.0479Z"/><path class="cls-1" d="M81.7263,60.0359a1.67835,1.67835,0,1,0,1.6783,1.6784A1.67834,1.67834,0,0,0,81.7263,60.0359Z"/><path class="cls-1" d="M81.7263,40.0239a1.67835,1.67835,0,1,0,1.6783,1.6784A1.67834,1.67834,0,0,0,81.7263,40.0239Z"/><path class="cls-1" d="M81.7263,20.0119a1.6784,1.6784,0,1,0,1.6783,1.6784A1.67841,1.67841,0,0,0,81.7263,20.0119Z"/><path class="cls-1" d="M81.7263,0a1.67835,1.67835,0,1,0,1.6783,1.6783A1.67832,1.67832,0,0,0,81.7263,0Z"/></svg>