<svg id="編排稿" xmlns="http://www.w3.org/2000/svg" viewBox="0 0 25 25"><defs><style>.cls-1{fill:#7a7a7a;}.cls-2{fill:#fff;}</style></defs><title>kyotokimono REMAKE-RWD</title><path class="cls-1" d="M25,12.51A12.48,12.48,0,0,1,13.58,25a6.28,6.28,0,0,1-1.06.06A12.44,12.44,0,0,1,0,12.51a12.5,12.5,0,0,1,25,0Z"/><path class="cls-2" d="M13.94,9.9a1.43,1.43,0,0,1,1.13-.39,6.59,6.59,0,0,1,1.7.23l.49-2.62a9.24,9.24,0,0,0-3.1-.45,5.09,5.09,0,0,0-2.58.55,2.91,2.91,0,0,0-1.39,1.43,6.88,6.88,0,0,0-.38,2.63v1H7.74v3H9.81v9.42a12.65,12.65,0,0,0,2.71.28A6.28,6.28,0,0,0,13.58,25V15.32h2.74v-3H13.58v-1A2,2,0,0,1,13.94,9.9Z"/></svg>