<svg id="圖層_1" data-name="圖層 1" xmlns="http://www.w3.org/2000/svg" viewBox="0 0 360 39.6"><defs><style>.cls-1{fill:#7a7a7a;}</style></defs><path class="cls-1" d="M54.3,7.5c-2,0-3.6-.3-4.5-2.3a.36737.36737,0,0,1-.1-.3.5764.5764,0,0,1,.6-.6.62188.62188,0,0,1,.6.4c.6.9,1.8,1.2,3.4,1.2a23.79526,23.79526,0,0,0,3.4-.4,13.2595,13.2595,0,0,0-2-2.9,2.83009,2.83009,0,0,0-1.8-.9c-.4-.1-.7-.3-.7-.6s.2-.6.7-.6h.5a3.71484,3.71484,0,0,1,2.3.6c.6.4,1,1.4,1.8,2.8.2.4.5.9.7,1.3a16.55281,16.55281,0,0,0,2.1-.6,2.54388,2.54388,0,0,1,.7-.2.89626.89626,0,0,1,.9.9.76042.76042,0,0,1-.6.8c-.7.2-1.5.5-2.3.7.5,1,1.1,2.1,1.6,3.2.7-.3,1.3-.5,1.8-.7a.91373.91373,0,0,1,.5-.3.81676.81676,0,0,1,.8.9.75488.75488,0,0,1-.4.7,11.38946,11.38946,0,0,1-1.9.9c.4.9.9,1.9,1.3,2.8a6.32157,6.32157,0,0,1,.7,2.6A1.28838,1.28838,0,0,1,63,18.2a21.05082,21.05082,0,0,1-3.2-.8,15.69969,15.69969,0,0,0-4.9-.7c-1.2,0-2.7.3-2.7,1.8,0,2,3.3,2.6,6.4,2.8,1.4.1,1.9.4,2,1.2,0,.7-.5,1.1-1.3,1.1a6.14959,6.14959,0,0,1-1.4-.1c-3.9-.4-7.3-2.1-7.3-4.8,0-2.1,2.1-3.3,4.4-3.3a47.33286,47.33286,0,0,1,7.3.7,27.397,27.397,0,0,0-1.5-4,25.26633,25.26633,0,0,1-4.9.6c-2.6,0-3.4-1-3.4-2.1,0-1,.8-2.1,2.2-3A.60123.60123,0,0,0,54.3,7.5ZM54.2,10c0,.7.4.9,2.5.9a11.32506,11.32506,0,0,0,3.6-.6c-.5-1.1-1-2.2-1.6-3.3-.5.1-.9.1-1.4.2C54.7,8.5,54.2,9.5,54.2,10Z"/><path class="cls-1" d="M79.2,7.2c.7.1,1.1.5,1.1,1a.92336.92336,0,0,1-1,.9,2.25233,2.25233,0,0,1-.7-.1c-.2.9-.4,1.7-.7,2.9-.2.8-.4,1.7-.5,2.4a16.22324,16.22324,0,0,0,2.3.1.83931.83931,0,0,1,.9.9.94478.94478,0,0,1-1,1,19.48088,19.48088,0,0,1-2.5-.2,18.55216,18.55216,0,0,0-.1,2.2c0,1.7,1.2,3,3.5,3s3.7-1.5,3.7-3.9c0-2-.9-3.6-3-5.7a.86435.86435,0,0,1-.3-.6.56.56,0,0,1,.6-.5,1.6894,1.6894,0,0,1,.5.2c2.7,1.8,4.3,4.3,4.3,7.2,0,3.1-2.3,5.2-5.6,5.2s-5.3-1.9-5.3-5.1a19.52509,19.52509,0,0,1,.2-2.3C73.3,15.2,72,14,72,12.3c0-1.3,1-2.8,3.3-4a10.21,10.21,0,0,1-5.2-3.1.86435.86435,0,0,1-.3-.6.5764.5764,0,0,1,.6-.6.76385.76385,0,0,1,.5.2A12.82119,12.82119,0,0,0,77.4,7a17.31129,17.31129,0,0,0,.4-3c0-1.1-.6-1.8-1.8-2.7a.54993.54993,0,0,1-.3-.5.66872.66872,0,0,1,.7-.6h.3C78.8.9,80,1.9,80,3.7a25.05036,25.05036,0,0,1-.8,3.6ZM76.9,8.7c-2.5,1.1-3.5,2.4-3.5,3.4,0,.9.9,1.6,2.5,2,.3-1.8.7-3.7,1.1-5.4Z"/><path class="cls-1" d="M106.3,7a9.40315,9.40315,0,0,1-1.1,3.6,35.69029,35.69029,0,0,1-5.9,8.8,2.61555,2.61555,0,0,1-1.8.9,1.09527,1.09527,0,0,1-1-1.1.90151.90151,0,0,1,.1-.5c-.5-.9-1.1-2-1.7-2.9A11.71938,11.71938,0,0,1,93.4,11c0-4.4,3.4-7.3,9-7.3,5.7,0,10.9,4.4,10.9,11.4a8.92029,8.92029,0,0,1-1.3,4.7,2.891,2.891,0,0,1-2.3,1.3,5.10017,5.10017,0,0,1-2.3-.7.89069.89069,0,0,1-.5-.8.71327.71327,0,0,1,.8-.7h.4c.2,0,.5.1.8.1a2.16776,2.16776,0,0,0,1.4-.5,5.8077,5.8077,0,0,0,1.3-4,9.164,9.164,0,0,0-5.3-8.3Zm-4.1-1.8C98,5.2,95,7.6,95,10.5c0,1.9,1.3,4.5,3.4,6.6a30.54833,30.54833,0,0,0,5.3-7.6,7.2395,7.2395,0,0,0,1.1-3.1,3.40193,3.40193,0,0,0-.1-1A19.48117,19.48117,0,0,0,102.2,5.2Z"/><path class="cls-1" d="M120.7,7.1c-.4-.2-.5-.4-.5-.7a.77483.77483,0,0,1,.8-.7,1.26834,1.26834,0,0,1,.6.1c2.5.6,3.1,1.3,3.1,2.7,0,.9-.1,2.5-.1,3.8-.1,1.4-.1,3.1-.1,4.3a38.00362,38.00362,0,0,0,12.3-8.8.86433.86433,0,0,1,.6-.3.68354.68354,0,0,1,.7.7.7639.7639,0,0,1-.2.5,38.07128,38.07128,0,0,1-12.1,9.6,5.81945,5.81945,0,0,1-2.5.9,1.15536,1.15536,0,0,1-1.2-1.2,1.26936,1.26936,0,0,1,.7-1.1V9.2C122.5,8.2,122.3,7.7,120.7,7.1Z"/><path class="cls-1" d="M144.5,7.1a.71326.71326,0,0,1,.8-.7,1.95227,1.95227,0,0,1,.7.1,12.81524,12.81524,0,0,1,4.8,2.1,1.306,1.306,0,0,1,.6,1.2,1.10977,1.10977,0,0,1-1.1,1.1c-.4,0-.6-.1-1.3-.7a13.28912,13.28912,0,0,0-4-2.5C144.6,7.6,144.5,7.4,144.5,7.1Zm2.6,10a12.15938,12.15938,0,0,0,3.4-1.1,48.12149,48.12149,0,0,0,13.2-9.5.63683.63683,0,0,1,1.1.5,1.68978,1.68978,0,0,1-.2.5,48.172,48.172,0,0,1-13.9,10.8,9.24348,9.24348,0,0,1-3.4,1.2,1.51766,1.51766,0,0,1-1.7-1.5,1.43263,1.43263,0,0,1,.5-1.1A2.95835,2.95835,0,0,0,147.1,17.1Z"/><path class="cls-1" d="M182.3,6c-1.5.3-2.9.7-3.6.8a4.93556,4.93556,0,0,1-1.5.3,1.61637,1.61637,0,0,1-1-.4,22.45428,22.45428,0,0,1-5.5,6.7c-.2.1-.3.2-.5.2a.64524.64524,0,0,1-.6-.6,1.68978,1.68978,0,0,1,.2-.5,30.75783,30.75783,0,0,0,4.3-5.7,5.45063,5.45063,0,0,0,.7-2.1c0-.3-.3-.7-1.2-1.4a.54427.54427,0,0,1-.3-.5.66872.66872,0,0,1,.7-.6.36739.36739,0,0,1,.3.1c1.5.5,2.9,1.3,2.9,2.3a5.07253,5.07253,0,0,1-.2.9c.2,0,.3.1.5.1.3,0,.9-.1,1.8-.2,1-.2,2.2-.4,3.4-.6a1.30577,1.30577,0,0,1,1.2-.7,1.24,1.24,0,0,1,1.2,1.3,8.14717,8.14717,0,0,1-1.2,3.1,30.1159,30.1159,0,0,1-2.7,4.2,10.991,10.991,0,0,1,1.5,1.6,1.61641,1.61641,0,0,1,.4,1,1.01794,1.01794,0,0,1-.9,1.1c-.4,0-.7-.1-1.3-.8a6.342,6.342,0,0,0-1-1.2,31.724,31.724,0,0,1-10.8,8.3.60126.60126,0,0,1-.4.1.66873.66873,0,0,1-.7-.6.62189.62189,0,0,1,.4-.6A37.98814,37.98814,0,0,0,178.6,13a28.76525,28.76525,0,0,0-2.7-2.2.7231.7231,0,0,1-.4-.6.64524.64524,0,0,1,.6-.6.36736.36736,0,0,1,.3.1,16.292,16.292,0,0,1,3.3,1.9C180.6,9.7,181.6,7.9,182.3,6Z"/><path class="cls-1" d="M195.6,9a.62187.62187,0,0,1-.4-.6c0-.3.2-.6.7-.6a1.26842,1.26842,0,0,1,.6.1c1.5.4,2.4,1,2.4,1.6a9.30478,9.30478,0,0,1-.5,2.4,18.44346,18.44346,0,0,1-8,9.3.60123.60123,0,0,1-.4.1.5764.5764,0,0,1-.6-.6.86437.86437,0,0,1,.3-.6c3.3-2.4,5.8-5.6,6.7-8.6a5.5571,5.5571,0,0,0,.3-1.5C196.7,9.7,196.4,9.4,195.6,9Zm5.8,1.7a16.38867,16.38867,0,0,0-.1-2.6c-.1-.5-.3-.9-1.3-1.4a.62187.62187,0,0,1-.4-.6.75135.75135,0,0,1,.7-.7.60119.60119,0,0,1,.4.1c2.3.7,2.7,1.3,2.7,2.5v.9q-.15,2.4-.3,4.8a29.41589,29.41589,0,0,0,9-6.6c.2-.1.3-.2.5-.2a.68353.68353,0,0,1,.7.7,1.68969,1.68969,0,0,1-.2.5,30.22287,30.22287,0,0,1-9.1,7.5,6.28678,6.28678,0,0,1-2.1.8,1.13494,1.13494,0,0,1-1.2-1.1,1.42547,1.42547,0,0,1,.6-1.2C201.4,12.8,201.4,11.6,201.4,10.7Z"/><path class="cls-1" d="M53.5,38.1c0,.5-.2.7-.5.7-.4,0-.6-.2-.6-.7V29.7c0-.5.2-.7.6-.7s.5.2.5.7v3.6l4.3-4.2c.2-.2.3-.2.4-.2a.47239.47239,0,0,1,.5.5.39925.39925,0,0,1-.2.4l-4,3.7c.9,1.2,1.8,2.3,2.8,3.4.7.8.9,1,1.3,1h.5c.2,0,.3.1.3.5,0,.2-.1.3-.2.3a2.76856,2.76856,0,0,1-.9.1c-.6,0-1.2-.4-1.9-1.3-1-1.2-2-2.5-3-3.7v4.3Z"/><path class="cls-1" d="M66.6,38.1c0,.5-.2.7-.6.7s-.6-.2-.6-.7V29.7c0-.5.2-.7.6-.7s.6.2.6.7Z"/><path class="cls-1" d="M74,29.8a.736.736,0,0,1,.8-.8c.4,0,.7.2,1,.7l3.3,5.6,3.5-5.6c.3-.5.5-.7,1-.7s.7.3.7.8v8.4c0,.5-.2.7-.5.7-.4,0-.5-.2-.5-.7V30.1a25.49932,25.49932,0,0,1-1.4,2.4l-2.3,3.6c-.2.3-.3.4-.5.4s-.3-.1-.5-.4l-2.1-3.7c-.4-.7-.8-1.5-1.3-2.4,0,1.1.1,1.8.1,2.7v5.4c0,.5-.1.7-.5.7s-.5-.2-.5-.7V29.8Z"/><path class="cls-1" d="M99.7,33.8c0,2.8-1.8,5.1-4.6,5.1s-4.6-2.3-4.6-5A4.74194,4.74194,0,0,1,95.2,29,4.61716,4.61716,0,0,1,99.7,33.8Zm-8,.1c0,2.1,1.1,4.1,3.4,4.1s3.4-1.9,3.4-4.1c0-2.4-1.3-4.1-3.4-4.1C92.8,29.9,91.7,31.9,91.7,33.9Z"/><path class="cls-1" d="M106,29.6a.47239.47239,0,0,1,.5-.5.90949.90949,0,0,1,.8.4l3.8,5.9c.4.6.8,1.3,1.2,1.9,0-.6-.1-1.6-.1-2.2V29.9c0-.5.2-.7.5-.7.4,0,.5.2.5.7v8.6c0,.4-.2.6-.5.6a.75488.75488,0,0,1-.7-.4l-3.8-5.9c-.4-.6-.8-1.3-1.2-2v7.6c0,.5-.2.7-.5.7-.4,0-.5-.2-.5-.7Z"/><path class="cls-1" d="M128.7,33.8c0,2.8-1.8,5.1-4.6,5.1s-4.6-2.3-4.6-5a4.74194,4.74194,0,0,1,4.7-4.9A4.61716,4.61716,0,0,1,128.7,33.8Zm-8,.1c0,2.1,1.1,4.1,3.4,4.1s3.4-1.9,3.4-4.1c0-2.4-1.3-4.1-3.4-4.1C121.8,29.9,120.7,31.9,120.7,33.9Z"/><path class="cls-1" d="M142.4,38.1c0,.5-.2.7-.5.7-.4,0-.6-.2-.6-.7V29.9c0-.5.2-.8.8-.8h1.5a3.575,3.575,0,0,1,2.5.6,2.36414,2.36414,0,0,1,.8,1.9,2.5781,2.5781,0,0,1-2.1,2.6,25.432,25.432,0,0,0,1.6,2.8c.4.8.7,1,1.1,1,.2,0,.3-.1.5-.1s.3.2.3.5c0,.2-.1.3-.2.3a2.76862,2.76862,0,0,1-.9.1c-.7,0-1.1-.3-1.6-1.2-.6-1.1-1.2-2.1-1.7-3.2h-1.3v3.7Zm1-4.5c1.6,0,2.4-.7,2.4-1.9a1.97431,1.97431,0,0,0-.6-1.4,2.50129,2.50129,0,0,0-1.7-.4h-1.1v3.6h1Z"/><path class="cls-1" d="M155.3,30v3.3h3.3c.4,0,.6.1.6.4s-.2.4-.6.4h-3.3v3.8h4c.3,0,.6.1.6.4s-.2.4-.6.4H155c-.5,0-.8-.2-.8-.8V29.8c0-.5.2-.8.8-.8h3.8c.4,0,.6.1.6.4s-.2.4-.6.4h-3.5Z"/><path class="cls-1" d="M166.3,29.6a.47239.47239,0,0,1,.5-.5.90949.90949,0,0,1,.8.4l3.8,5.9c.4.6.8,1.3,1.2,1.9V29.9c0-.5.2-.7.5-.7.4,0,.5.2.5.7v8.6c0,.4-.2.6-.5.6a.75489.75489,0,0,1-.7-.4l-3.8-5.9c-.4-.6-.8-1.3-1.2-2,0,.7.1,1.6.1,2.3v5.3c0,.5-.2.7-.5.7s-.5-.2-.5-.7V29.6Z"/><path class="cls-1" d="M180.4,30c-.4,0-.6-.1-.6-.4s.2-.4.6-.4h5.9c.4,0,.6.1.6.4s-.2.4-.6.4h-2.4v8.1c0,.5-.2.7-.6.7s-.6-.2-.6-.7V30Z"/><path class="cls-1" d="M194.1,35.7l-.9,2.6c-.1.4-.3.5-.5.5a.45751.45751,0,0,1-.5-.4.75586.75586,0,0,1,.1-.4l3.2-8.5c.2-.4.4-.5.7-.5s.5.2.7.5l3,8.4a.6012.6012,0,0,1,.1.4c0,.3-.2.5-.6.5-.3,0-.4-.2-.6-.6l-.9-2.5Zm2-5.5-1.7,4.7h3.2Z"/><path class="cls-1" d="M207.2,38.8c-.5,0-.8-.2-.8-.8V29.8c0-.5.2-.7.6-.7s.6.2.6.7v8.1h3.9c.3,0,.6.1.6.4s-.2.4-.6.4h-4.3Z"/><path class="cls-1" d="M231.4,25a2.2745,2.2745,0,0,1-2.2,1.7c-1.1,0-1.7-.5-2.1-1.7L220.2,4.8a4.19073,4.19073,0,0,1-.4-1.5,1.817,1.817,0,0,1,2-1.6c1,0,1.5.5,1.9,1.8L229.5,22l6.7-16.4a2.2745,2.2745,0,0,1,2.2-1.7,2.35955,2.35955,0,0,1,2.2,1.7L247,21.9l6.2-18.8c.4-1,.8-1.5,1.6-1.5,1,0,1.8.6,1.8,1.3a3.81611,3.81611,0,0,1-.4,1.3L249.1,25a2.09375,2.09375,0,0,1-2.1,1.7,2.12542,2.12542,0,0,1-2.2-1.7L238.3,8.6Z"/><path class="cls-1" d="M282.6,25.3c0,1-.4,1.5-2,1.5a1.80816,1.80816,0,0,1-1.8-1.4,11.83674,11.83674,0,0,1-.5-2.8c-2.3,3.6-4.6,4.6-8.2,4.6-3.7,0-6.8-2.8-6.8-7.3,0-3.9,2.3-6.5,9.8-9,1.4-.5,3.1-.9,5-1.4-.1-3.4-1.9-5.2-5.8-5.2A9.02224,9.02224,0,0,0,267.6,6a1.61645,1.61645,0,0,1-1,.4,1.51989,1.51989,0,0,1-1.4-1.5c0-.6.1-.8.8-1.3a12.79813,12.79813,0,0,1,7.2-2.2c5.5,0,8.7,2.9,8.7,7.3v9.9a21.43686,21.43686,0,0,0,.7,6.4v.3Zm-8.7-11.9c-4.9,1.7-6.7,3.6-6.7,6.3,0,3.1,1.7,4.6,4.2,4.6a6.54213,6.54213,0,0,0,6.1-4.7c.7-1.8.8-3.5.8-7.4A19.68226,19.68226,0,0,0,273.9,13.4Z"/><path class="cls-1" d="M291.6,4.1c0-1.4.6-2.4,1.9-2.4,1.4,0,1.9,1,1.9,2.4V6.2c1.6-3.3,3.9-4.8,6-4.8a4.78082,4.78082,0,0,1,2.7.8,1.70392,1.70392,0,0,1,.8,1.6,2.17962,2.17962,0,0,1-2,2.4c-.9,0-1.7-.9-2.7-.9-1.8,0-3.2,1.4-3.9,3.3a19.42556,19.42556,0,0,0-.9,6.6v9.2c0,1.5-.6,2.4-1.9,2.4-1.4,0-1.9-1-1.9-2.4Z"/><path class="cls-1" d="M324,23.2c5.3,0,8,2.6,8,6.6,0,5.3-4.5,9.2-13.1,9.2-6,0-9.6-3.2-9.6-6.7,0-2.8,1.6-4.8,4.1-6.3a3.8373,3.8373,0,0,1-2.7-3.7c0-1.9,1.2-3.7,3.4-5.4a7.94076,7.94076,0,0,1-3.7-6.5c0-5.6,4.1-9,9.6-9a10.18708,10.18708,0,0,1,5.2,1.5A6.5912,6.5912,0,0,1,331,.1,1.8134,1.8134,0,0,1,333,2a1.84422,1.84422,0,0,1-2,1.8c-2.3,0-3.2.3-3.8,1A7.35847,7.35847,0,0,1,329,9.7c0,5.4-3.9,8.8-9.6,8.8a15.66529,15.66529,0,0,1-3-.5c-1.9,1.5-2.4,2.6-2.4,3.5,0,1.1.8,1.7,2.6,1.7Zm-7.4,3.4c-2.9,1.5-3.9,2.9-3.9,5,0,2.8,2.3,4.6,6.7,4.6,5.9,0,9.1-2.6,9.1-5.7,0-2.3-1.2-3.9-4.8-3.9ZM320,4.2a5.62059,5.62059,0,0,0-5.9,5.7,5.70215,5.70215,0,1,0,11.4.1A5.49819,5.49819,0,0,0,320,4.2Z"/><path class="cls-1" d="M360,14.1c0,7.6-4.9,13.1-11.3,13.1s-11.4-5.4-11.4-13,5.1-12.8,11.5-12.8S360,6.5,360,14.1Zm-18.6.1c0,6,3,10.2,7.2,10.2s7.2-4.3,7.2-10.3-2.8-9.9-7.1-9.9C344.5,4.1,341.4,8.2,341.4,14.2Z"/><path class="cls-1" d="M2.5,19.8a.90151.90151,0,0,0,.1.5L12.3,37a.81156.81156,0,0,0,.8.4H32.4a.36737.36737,0,0,0,.3-.1h.1a1.38046,1.38046,0,0,0,.4-.3l9.7-16.7a.74936.74936,0,0,0,.1-.5.90151.90151,0,0,0-.1-.5L33.1,2.6c-.1-.2-.2-.3-.4-.3h-.1c-.1,0-.2-.1-.3-.1H13a.36737.36737,0,0,0-.3.1h-.1a1.38046,1.38046,0,0,0-.4.3L2.6,19.3A.74936.74936,0,0,0,2.5,19.8Zm12.4,2.5H31.5v3.4l-3.6,4.8L24,25.2a1.0122,1.0122,0,0,0-.7-.4.7549.7549,0,0,0-.7.4l-3.9,5.3-3.8-5.1Zm6.3-1.8h-5l16-16L34,7.7ZM30.1,3.9l-7.5,7.5L15.1,3.9ZM18.9,15.2,11.4,7.6l1.8-3.2,8.2,8.2ZM10.5,9.3l7.1,7.2-4.2,4.2h0a.86433.86433,0,0,0-.3.6V34.8l-8.7-15Zm4.4,26.3V28.4L18,32.6a1.0122,1.0122,0,0,0,.7.4.7549.7549,0,0,0,.7-.4l3.9-5.3,3.9,5.3a1.0122,1.0122,0,0,0,.7.4.7549.7549,0,0,0,.7-.4l2.9-3.9v6.9ZM33,20.7a.86433.86433,0,0,0-.6-.3H23.8L34.9,9.3,41,19.8,33.3,33.2V21.3Z"/><path class="cls-1" d="M45.3,19.5,34.2.3a.53585.53585,0,0,0-.4-.3H11.6a.54993.54993,0,0,0-.5.3L.1,19.5a.5.5,0,0,0,0,.6L11.2,39.3a.54993.54993,0,0,0,.5.3H33.9c.2,0,.4-.1.4-.3L45.4,20.1a.36737.36737,0,0,0,.1-.3C45.4,19.7,45.4,19.6,45.3,19.5Zm-1.1.3L33.5,38.4H11.9L1.1,19.8,11.9,1.1H33.5Z"/></svg>