<svg id="圖層_1" data-name="圖層 1" xmlns="http://www.w3.org/2000/svg" xmlns:xlink="http://www.w3.org/1999/xlink" viewBox="0 0 56.86906 55.00769"><defs><style>.cls-1{fill:none;}.cls-2{fill:#f6999a;}.cls-3{clip-path:url(#clip-path);}.cls-4{opacity:0.5;}.cls-5{clip-path:url(#clip-path-2);}.cls-6,.cls-7{fill:#fff;}.cls-6{fill-rule:evenodd;}</style><clipPath id="clip-path"><polygon class="cls-1" points="-428.474 45.839 -141.936 -73.57 -141.936 -319.451 -1236.228 -319.451 -428.474 45.839"/></clipPath><clipPath id="clip-path-2"><rect class="cls-1" x="-1500.16246" y="-747.61945" width="1850.04119" height="1211.84907"/></clipPath></defs><title>kyotokimono REMAKE-立即預約0709</title><polygon class="cls-2" points="28.185 5.889 27.255 4.19 26.257 2.984 25.02 2.015 23.662 1.184 22.404 0.396 21.409 1.488 21.354 3.043 20.882 4.488 21.209 6.032 21.003 7.514 20.917 9.023 21.317 10.477 21.739 11.922 21.767 13.492 22.076 14.995 23.277 16.162 23.683 17.619 24.216 19.035 25.146 20.237 25.662 21.71 26.807 22.749 28.217 23.038 29.54 22.815 30.868 22.089 31.239 20.523 32.482 19.632 33.039 18.281 33.781 17.034 34.679 15.819 34.617 14.257 34.703 12.793 35.811 11.547 35.777 10.055 35.961 8.664 35.609 7.278 35.063 5.971 34.803 4.657 34.993 3.186 33.962 2.119 33.875 0.644 32.837 0 31.703 0.516 30.69 1.667 29.785 2.902 29.095 4.293 28.185 5.889"/><polygon class="cls-2" points="6.645 21.288 4.79 21.756 3.329 22.316 2.283 23.65 0.805 24.196 0 25.207 0.502 26.178 1.905 26.764 2.986 27.94 4.64 27.924 6.034 28.411 7.388 29.112 8.872 29.382 10.374 29.619 11.894 29.124 13.401 29.397 14.935 29.765 16.36 28.753 17.932 29.211 19.452 29.055 20.742 28.101 22.169 27.674 23.091 26.604 23.542 25.113 22.5 23.948 21.684 22.775 20.656 21.774 19.907 20.519 19.131 19.229 18.04 18.245 16.55 17.807 15.426 16.892 14.148 16.207 12.765 15.748 11.688 14.735 10.398 14.107 8.895 14.471 7.593 13.65 6.176 14.345 4.777 13.944 3.475 14.547 2.373 14.971 2.648 16.256 3.467 17.55 4.291 18.842 5.105 20.149 6.645 21.288"/><polygon class="cls-2" points="14.352 46.987 14.649 48.415 15.113 49.911 15.284 51.46 16.029 52.885 16.184 54.227 17.102 53.499 18.34 52.692 19.424 51.675 20.575 50.699 21.431 49.465 22.217 48.194 22.761 46.81 23.516 45.489 23.74 43.972 24.119 42.519 24.749 41.136 25.065 39.669 25.155 38.166 25.545 36.714 25.602 35.226 25.159 33.822 24.843 32.439 23.489 31.716 22.127 32.6 20.593 32.349 19.243 32.907 17.786 33.246 16.597 34.124 15.297 34.805 14.383 36.033 12.845 36.442 11.746 37.433 11.045 38.804 10.028 39.764 9.429 41.04 8.694 42.207 7.928 43.381 7.646 44.755 7.043 46.032 7.12 47.45 7.23 48.699 8.512 48.329 10.144 48.559 11.529 47.853 13.068 47.631 14.352 46.987"/><polygon class="cls-2" points="41.143 46.779 42.894 47.365 44.47 47.322 46 47.603 47.513 48.131 49.253 48.116 48.635 46.494 48.728 44.843 47.535 43.741 47.098 42.254 46.241 40.996 44.948 40.113 43.88 39.095 42.684 38.188 41.532 37.221 40.432 36.169 39.293 35.145 38.109 34.163 36.776 33.408 35.144 33.319 33.853 32.445 32.312 32.3 30.853 32.658 30.504 33.999 29.503 35.221 29.176 36.687 29.868 38.122 30.189 39.523 30.225 40.97 30.859 42.288 31.153 43.693 31.6 45.057 32.165 46.381 32.816 47.667 33.733 48.692 34.386 49.897 35.372 50.837 35.923 52.273 37.078 53.081 38.645 53.193 39.495 54.536 41.083 55.008 41.116 53.128 41.114 51.612 41.883 50.099 41.651 48.562 41.143 46.779"/><polygon class="cls-2" points="49.455 21.631 50.405 20.002 51.554 18.831 52.062 17.346 52.735 15.935 53.05 14.383 51.578 13.995 50.096 14.38 48.608 14.506 47.179 14.964 45.692 15.204 44.401 15.984 42.838 16.245 41.646 17.188 40.627 18.362 39.338 19.145 37.862 19.719 37.127 21.172 35.527 21.678 35.029 23.273 34.17 24.462 32.913 25.473 32.599 27.112 33.695 28.286 34.977 29.032 36.318 29.625 37.765 29.862 39.226 29.914 40.644 30.104 42.052 30.791 43.522 30.695 44.994 30.77 46.417 30.279 47.802 29.771 49.221 29.765 50.39 28.927 51.684 28.483 53.144 28.255 54.152 27.246 55.014 26.127 56.123 25.312 56.869 24.213 55.462 23.828 54.038 23.352 52.92 21.921 51.347 21.795 49.455 21.631"/><g class="cls-3"><g class="cls-4"><g class="cls-5"><path class="cls-6" d="M19.732,14.01232c-.38887-.11807-2.121.21035-1.41133.43175.39712.11441,2.121-.2103,1.41133-.43175"/><rect class="cls-7" x="46.18855" y="10.98687" width="4.19969" height="1.29891"/><path class="cls-6" d="M-2.57226.16735H.22461C-.5276-.45995,1.84687-2.0651-1.17821-1.995-.16426-.81788-3.9413-1.12413-3.94981-.26806c.85356.02956,1.6478.06273,1.37755.43541"/></g></g></g></svg>