<svg id="圖層_1" data-name="圖層 1" xmlns="http://www.w3.org/2000/svg" viewBox="0 0 709.91962 14.66233"><defs><style>.cls-1{fill:#698d76;}</style></defs><title>kyotokimono REMAKE-立即預約0709</title><path class="cls-1" d="M0,9.05913c107.44011-.0662,358.02632-.0829,465.49338-.069l161.18263.0534,83.24361.0622V5.54833L626.931,5.48593l-161.37469-.0534C357.98366,5.41863,107.594,5.43533,0,5.50163"/><path class="cls-1" d="M0,14.487c107.20533-.0661,358.0915-.0828,465.39681-.069l160.89054.0533,83.63227.062v-3.5574l-83.37728-.0621-161.08265-.0534c-107.41091-.0138-358.10046.0029-465.45969.0691"/><path class="cls-1" d="M0,3.63143c107.676-.0664,357.9612-.0831,465.58889-.0693l161.47579.0535,82.85494.0625V.17073l-2.00583-.05L627.31967.05813,465.6518.00453C357.91851-.00937,107.831.00733,0,.07383"/></svg>