<svg id="圖層_1" data-name="圖層 1" xmlns="http://www.w3.org/2000/svg" xmlns:xlink="http://www.w3.org/1999/xlink" viewBox="0 0 709.91962 14.66233"><defs><style>.cls-1{fill:none;}.cls-2{clip-path:url(#clip-path);}.cls-3{opacity:0.5;}.cls-4{clip-path:url(#clip-path-2);}.cls-5{fill:#fff;fill-rule:evenodd;}.cls-6{fill:#698d76;}</style><clipPath id="clip-path"><polygon class="cls-1" points="-709.975 -174.238 -423.436 -293.647 -423.436 -539.528 -1517.728 -539.528 -709.975 -174.238"/></clipPath><clipPath id="clip-path-2"><rect class="cls-1" x="-1781.66272" y="-967.69596" width="1850.04119" height="1211.84907"/></clipPath></defs><title>line_bg</title><g class="cls-2"><g class="cls-3"><g class="cls-4"><path class="cls-5" d="M37.73387,5.7048c0-.23614-1.14933-.49075-1.39431,0,0,.23986,1.1238.49082,1.39431,0"/></g></g></g><path class="cls-6" d="M0,9.05913c107.44011-.0662,358.02632-.0829,465.49338-.069l161.18263.0534,83.24361.0622V5.54833L626.931,5.48593l-161.37469-.0534C357.98366,5.41863,107.594,5.43533,0,5.50163"/><path class="cls-6" d="M0,14.487c107.20533-.0661,358.0915-.0828,465.39681-.069l160.89054.0533,83.63227.062v-3.5574l-83.37728-.0621-161.08265-.0534c-107.41091-.0138-358.10046.0029-465.45969.0691"/><path class="cls-6" d="M0,3.63143c107.676-.0664,357.9612-.0831,465.58889-.0693l161.47579.0535,82.85494.0625V.17073l-2.00583-.05L627.31967.05813,465.6518.00453C357.91851-.00937,107.831.00733,0,.07383"/></svg>