<svg id="編排稿" xmlns="http://www.w3.org/2000/svg" viewBox="0 0 25.17 25.17"><defs><style>.cls-1{fill:#7a7a7a;}.cls-2{fill:#fff;fill-rule:evenodd;}</style></defs><title>kyotokimono REMAKE-RWD</title><path class="cls-1" d="M25,12.67A12.5,12.5,0,1,1,12.5.16,12.5,12.5,0,0,1,25,12.67Z"/><path class="cls-2" d="M4.93,17.76a7.19,7.19,0,0,0,3.43-.6,5.85,5.85,0,0,0,1.37-.82A3.38,3.38,0,0,1,8.31,16a3.23,3.23,0,0,1-1.56-1.75c-.07-.18-.07-.18.12-.17A2.59,2.59,0,0,0,8.07,14a3.34,3.34,0,0,1-.77-.3,3.29,3.29,0,0,1-1.78-2.8c0-.14,0-.16.17-.1A3.29,3.29,0,0,0,7,11.15c-.21-.19-.39-.34-.55-.51A3.37,3.37,0,0,1,5.9,6.92c.08-.16.11-.16.22,0a9.3,9.3,0,0,0,5.74,3.19c.23.05.48.06.72.1s.18,0,.16-.18a3.29,3.29,0,0,1,5.5-2.95.36.36,0,0,0,.36.09,6.24,6.24,0,0,0,1.74-.68.4.4,0,0,0,.14-.09,3.25,3.25,0,0,1-1.39,1.81,6.4,6.4,0,0,0,1.77-.46c0,.08-.05.13-.08.19A6.18,6.18,0,0,1,19.42,9.3a.29.29,0,0,0-.13.27A9.51,9.51,0,0,1,17,16a8.89,8.89,0,0,1-5.49,3.08A9.39,9.39,0,0,1,5,17.79.11.11,0,0,0,4.93,17.76Z"/></svg>