<svg id="圖層_1" data-name="圖層 1" xmlns="http://www.w3.org/2000/svg" viewBox="0 0 19.41997 18.56786"><defs><style>.cls-1{fill:#494d56;}.cls-2{fill:#fff;}</style></defs><path class="cls-1" d="M18.62067,9.299a9.28625,9.28625,0,0,1-8.50483,9.26882,4.42878,4.42878,0,0,1-.7919.04755A9.30771,9.30771,0,1,1,18.62067,9.299Z"/><path class="cls-2" d="M10.38053,7.35063A1.09089,1.09089,0,0,1,11.22232,7.06a4.8345,4.8345,0,0,1,1.27142.17373l.36231-1.95285a6.88448,6.88448,0,0,0-2.30628-.33414,3.81963,3.81963,0,0,0-1.92228.4079A2.17435,2.17435,0,0,0,7.59477,6.418a5.01958,5.01958,0,0,0-.2886,1.96574v.76781H5.76575v2.23456H7.30617v7.01649a9.30048,9.30048,0,0,0,2.01777.21284,4.42878,4.42878,0,0,0,.7919-.04755V11.38608h2.04158V9.15152H10.11584V8.43125A1.51324,1.51324,0,0,1,10.38053,7.35063Z"/></svg>