<svg id="圖層_1" data-name="圖層 1" xmlns="http://www.w3.org/2000/svg" viewBox="0 0 18.6194 18.62385"><defs><style>.cls-1{fill:#494d56;}.cls-2{fill:#fff;fill-rule:evenodd;}</style></defs><path class="cls-1" d="M18.6194,9.31637A9.3097,9.3097,0,1,1,9.31192,0,9.3113,9.3113,0,0,1,18.6194,9.31637Z"/><path class="cls-2" d="M3.3773,13.10432a5.30464,5.30464,0,0,0,2.55181-.44256,4.43335,4.43335,0,0,0,1.02375-.61185A2.4572,2.4572,0,0,1,5.894,11.78509a2.39372,2.39372,0,0,1-1.16727-1.30146c-.052-.13019-.052-.13019.09154-.12174a2.02944,2.02944,0,0,0,.898-.06043,2.38956,2.38956,0,0,1-.57719-.22572,2.45492,2.45492,0,0,1-1.32323-2.083c-.00889-.10841.02177-.1213.1213-.07376a2.43364,2.43364,0,0,0,.95887.26483c-.156-.14308-.29059-.25594-.41189-.37769a2.50717,2.50717,0,0,1-.38657-2.77265c.06087-.1173.08264-.1173.16529-.02577A6.91812,6.91812,0,0,0,8.53247,7.38973c.17374.03466.36435.0391.54253.06932.12131.02177.13419-.03466.11686-.13019A2.44815,2.44815,0,0,1,13.28819,5.129a.26378.26378,0,0,0,.26926.06487,4.55682,4.55682,0,0,0,1.293-.503.29225.29225,0,0,0,.104-.06532A2.43291,2.43291,0,0,1,13.92181,5.975a4.924,4.924,0,0,0,1.31923-.347c.00844.06088-.03511.09554-.06088.14308a4.90317,4.90317,0,0,1-1.0153,1.03708.21275.21275,0,0,0-.09109.2,7.117,7.117,0,0,1-1.688,4.777,6.61532,6.61532,0,0,1-4.08743,2.29543,6.97076,6.97076,0,0,1-4.86858-.95A.11781.11781,0,0,0,3.3773,13.10432Z"/></svg>