<svg id="mockup" xmlns="http://www.w3.org/2000/svg" xmlns:xlink="http://www.w3.org/1999/xlink" viewBox="0 0 564.35 13.72"><defs><style>.cls-1{mask:url(#mask);}.cls-2{fill:#f1c49d;}.cls-3{filter:url(#luminosity-noclip);}</style><filter id="luminosity-noclip" x="0.06" y="-0.21" width="573.11" height="416.86" filterUnits="userSpaceOnUse" color-interpolation-filters="sRGB"><feFlood flood-color="#fff" result="bg"/><feBlend in="SourceGraphic" in2="bg"/></filter><mask id="mask" x="0.06" y="-0.21" width="573.11" height="416.86" maskUnits="userSpaceOnUse"><g class="cls-3"/></mask></defs><g class="cls-1"><path class="cls-2" d="M564.21,6.58H561.5l-2.58-.05-2.58-.13-2.59.15-2.58-.07-2.58.17L546,6.48l-2.58-.05h-2.59l-2.58-.11h-2.58l-2.58.21-2.58-.19-2.58-.09-2.58.12-2.58.24-2.58-.32-2.59.11L515,6.33l-2.58.08-2.58.09-2.58-.2-2.59,0-2.58.16-2.58-.13L497,6.61l-2.59-.15-2.58,0-2.59.16-2.58,0L484,6.37l-2.58.06-2.59-.06-2.59.26-2.58-.06-2.59-.24-2.58-.07-2.59.14-2.58.28h-2.59l-2.58-.13-2.58-.23L453,6.41l-2.58.18-2.58-.3-2.59.34-2.58,0-2.58,0-2.58,0-2.59-.21-2.58.09h-2.58l-2.59.21-2.58-.24-2.58,0-2.59.19h-2.58l-2.59-.11-2.58,0-2.59.21-2.58-.06h-2.59l-2.59-.29-2.59,0-2.58.23-2.59,0L391,6.26l-2.59,0-2.58.36-2.59-.34h-2.58l-2.58.27h-2.59l-2.58,0-2.59-.09-2.58-.14-2.58.16-2.59.17L360,6.39l-2.59.05-2.58-.13-2.59.33-2.59,0h-2.58l-2.59-.34-2.59,0-2.59.17-2.58.07h-2.59l-2.58.1-2.59-.34-2.58.34-2.59-.24-2.58.29-2.59-.25L316,6.63l-2.59-.33-2.58.25-2.59-.17-2.58,0-2.59,0-2.59.22-2.59,0h-2.58l-2.59-.2-2.59.19-2.58.15L285,6.62l-2.59-.23-2.58-.09-2.59.07-2.58.22-2.59,0-2.58-.11-2.59-.16-2.59-.11-2.59.29-2.58,0-2.59.15-2.59-.12-2.59.11-2.58-.37-2.59.31-2.59-.21-2.58,0-2.59.24-2.58,0h-2.59l-2.59-.08-2.59.07-2.59,0-2.58-.11-2.59.18-2.59-.17-2.58,0-2.59.11-2.59,0-2.59-.24-2.58.29-2.59-.21-2.59.25L197,6.28l-2.59.13-2.58-.1-2.59.06-2.59,0-2.58.32-2.59-.12-2.59-.23-2.59.08h-2.58l-2.59.08-2.58-.06L166,6.53l-2.59,0-2.58.06-2.58-.08-2.59.11-2.58-.22-2.59.06-2.59.17-2.59-.06-2.59-.2-2.58.27-2.59-.32L135,6.6l-2.59,0-2.58-.26-2.59,0-2.59.06H122l-2.59,0-2.58.07-2.59.1h-2.59l-2.58-.25-2.59,0-2.59-.06-2.59.15-2.59.12-2.59-.14-2.59.17L91,6.53l-2.59-.22-2.59.12-2.58.15-2.59-.09H78l-2.59.17-2.59,0-2.59-.42-2.59.15-2.6.21-2.59-.19-2.59.11-2.59,0L54.7,6.35H52.12l-2.59.23-2.59-.3-2.59.26-2.59-.16H39.17l-2.59.19H34l-2.59,0-2.59,0-2.6-.09-2.59-.1L21,6.27l-2.6,0-2.59.27-2.59-.17-2.59.07-2.6,0-2.6.2-2.6-.3-2.44,0L.2,3.56.13,3.29.23,0,2.85-.17l2.58.06L8-.08h5.17l2.58-.11,2.58.09,2.58,0L23.5.16l2.59,0,2.58-.33,2.58.35,2.58,0,2.58-.26L39-.11l2.58.32,2.58-.1L46.74.05l2.58,0L51.9-.07,54.48,0l2.58-.19,2.58.09,2.59,0,2.58.06h2.58L70,0l2.58,0h2.59l2.58,0,2.59.1L82.9-.12l2.59,0,2.59.1h2.58l2.59-.08L95.83,0h2.59L101-.17l2.59.17,2.58.15,2.58-.33,2.59.27,2.58,0,2.58.13L119.08.1l2.59,0,2.58-.2,2.58.28h2.59L132,0l2.58.07L137.16,0l2.59,0,2.58.09L144.92,0l2.58.1L150.09,0l2.58,0,2.59-.08,2.58.27L160.43,0,163,.12l2.58-.3,2.59.25,2.59.09,2.58-.29L176,0l2.58-.19,2.59.25,2.58-.11,2.58.22,2.59-.29h2.58L194,0l2.58,0,2.58.06,2.59-.23,2.58.13L207,.17l2.58-.38,2.59.28,2.59.06,2.58-.24,2.59.09,2.59,0,2.58.23L227.65,0l2.59,0,2.58-.08,2.59.13L238,.15l2.59,0,2.58-.23,2.59.06,2.58,0,2.59-.09,2.58.22,2.59.1,2.58-.29,2.59.28,2.59-.32,2.59.2L269-.09l2.59,0L274.2,0h2.58l2.59,0,2.59,0,2.58-.29,2.59.3,2.58.07L292.3.14,294.88,0,297.47,0l2.59.2L302.65,0l2.58.09,2.59-.22,2.59.07L313,0,315.58,0h2.59l2.58.18,2.59.08,2.59-.31,2.58.08L331.1,0l2.59-.1,2.59.17,2.59-.06,2.58-.16L344,0l2.59.15,2.58-.31,2.59.23L354.39,0,357,.05l2.59.16L362.15,0l2.59-.13,2.59.35,2.58-.11,2.59,0L375.09,0l2.59-.18h2.58l2.59.25,2.59-.25L388,0l2.58-.2,2.58.22,2.59,0h2.58L400.94,0l2.59.08,2.58.06h2.59L411.28,0h2.59l2.59,0,2.59-.19,2.58.25,2.59-.27,2.59.12,2.58-.07L432,.12l2.58,0,2.59-.2,2.59.33,2.59-.31,2.59.14,2.58-.19,2.59.07,2.59,0,2.58,0,2.59.21,2.59-.25,2.59,0,2.59,0,2.59.39L470.8-.1l2.58.07,2.6,0,2.59-.1,2.58,0,2.59.24,2.59-.16,2.59.05,2.59.06,2.59-.14,2.59.14,2.59-.15,2.59.2L504.46,0l2.6.17L509.65,0l2.58.14,2.59-.36,2.59.37L520,.08l2.59-.29,2.59.34,2.59-.23,2.59.21,2.59,0,2.59-.07,2.6-.07,2.59.14,2.59,0,2.6.07h2.58l2.6-.11,2.59-.25h2.6l2.59.15,2.61-.14,2.73.06-.17,3.39-.13.35Z"/><path class="cls-2" d="M.18,10.49l.08-1,2.59.16L5.43,9.4,8,9.55l2.59,0,2.58-.06,2.58-.2,2.58,0,2.58.29,2.58-.16,2.59.13,2.58-.27,2.58.09,2.58.14,2.58.08L39,9.6l2.58-.14,2.58-.09,2.59.06h2.58l2.58-.06h2.58l2.58.07h2.58l2.59,0,2.58-.15,2.58.33L70,9.41l2.58-.08,2.59.18,2.58-.17h2.59l2.58-.11,2.59.27,2.59.06,2.58,0,2.59-.17,2.58.2,2.59-.07L101,9.46l2.59.14,2.58,0,2.58-.26,2.59.11,2.58-.05,2.58.05,2.58.13,2.59-.06,2.58-.31h5.17l2.58.29,2.58-.29,2.58.16,2.59,0,2.58.18,2.59-.06,2.58-.17,2.59.2,2.58-.3,2.59,0h2.58l2.59,0H163l2.58.27,2.59,0,2.59-.11,2.58.12,2.59,0,2.58-.25,2.59.09h2.58l2.58-.23,2.59.12,2.58-.07,2.59.21,2.58-.18,2.58.21,2.59-.15,2.58.05,2.59.13h2.58l2.59-.33,2.59.21h2.58l2.59.18,2.59-.28,2.58.22,2.59-.3,2.59.38,2.58-.18,2.59,0,2.58-.1,2.59.18h2.58l2.59-.11,2.58.19,2.59-.08,2.58,0,2.59.16,2.58-.36,2.59.34,2.59-.27,2.59,0,2.58.24,2.59.15,2.59-.23,2.58.11,2.59-.15,2.59.18,2.58-.09h2.59l2.58.12,2.59-.31,2.58,0,2.59.06,2.59-.07h2.59l2.58.07,2.59-.1,2.59.33L313,9.29l2.58.23,2.59-.13,2.58-.1,2.59.24,2.59-.33,2.58.35,2.59-.12,2.59-.23,2.59.19,2.59.19,2.58,0L344,9.27l2.59,0,2.58,0,2.59.13,2.59-.11,2.58.18,2.59-.36,2.59.3,2.59-.16,2.59.09,2.58-.21,2.59.37,2.59-.09,2.59-.11h2.58l2.59-.06,2.59-.07L388,9.6l2.58-.31h2.58l2.59.12h2.58l2.58-.08,2.59.21,2.58,0h2.59l2.58-.26,2.59.13,2.59-.14,2.59.08,2.58.06,2.59.24,2.59-.25,2.58.12,2.59,0,2.58-.24,2.59.32,2.59-.09,2.59-.15,2.59.13,2.58.16,2.59-.17,2.59.07,2.58-.07,2.59.05,2.59-.08,2.59,0,2.59.12h2.59l2.59-.1,2.58-.12,2.6-.11,2.59.34,2.58-.17,2.59,0,2.59-.14,2.59.22,2.59-.23,2.59.18,2.59,0,2.59,0,2.59.09,2.59-.09,2.6.06,2.59,0,2.58,0,2.59-.08,2.59-.07,2.59.07,2.59,0,2.59.27,2.59-.32,2.59.24L533,9.4l2.59.06,2.6.06,2.59-.22,2.59-.09,2.6,0,2.58.17,2.6.15,2.59-.15,2.6.19h2.59l2.61-.23,2.6.14-.21,1m.12,3.23.09-1.13-2.59-.16-2.58.23-2.58-.16-2.59,0-2.58.06-2.58.2H546l-2.58-.3-2.59.16-2.58-.13-2.58.27-2.58-.09-2.58-.13-2.58-.09h-2.58l-2.58.14-2.58.09-2.59-.07H515l-2.58.06h-2.58l-2.58-.07H504.7l-2.58,0-2.58.15L497,12.47l-2.59.17-2.58.09-2.59-.19-2.58.17H484l-2.58.11-2.59-.27-2.59-.06-2.58,0-2.59.18-2.58-.21-2.59.07-2.58.09-2.59-.14-2.58,0-2.58.26L453,12.58l-2.58.05-2.58-.05-2.59-.12-2.58,0-2.58.31h-5.17l-2.58-.3-2.58.3-2.59-.17-2.58-.05L422,12.44l-2.59.05-2.58.18-2.59-.21-2.58.3-2.59,0h-2.58l-2.59,0h-2.59l-2.59-.27-2.58,0-2.59.12L391,12.49l-2.59,0-2.58.26-2.59-.1h-2.58l-2.58.24-2.59-.13-2.58.07-2.59-.21-2.58.18-2.58-.2-2.59.14L360,12.66l-2.59-.13h-2.58l-2.59.33-2.59-.21h-2.58l-2.59-.17-2.59.27-2.59-.22-2.58.3-2.59-.38-2.58.18-2.59.06-2.58.09-2.59-.18h-2.58l-2.59.11L316,12.52l-2.59.08-2.58.05-2.59-.17-2.58.36-2.59-.34-2.59.27-2.59.06-2.58-.25-2.59-.14-2.59.22-2.58-.1L285,12.7l-2.59-.18-2.58.09h-2.59l-2.58-.11-2.59.3-2.58,0-2.59-.06-2.59.08-2.59,0-2.58-.06-2.59.09-2.59-.33-2.59.3-2.58-.24-2.59.13-2.59.1L241,12.52l-2.59.34-2.58-.36-2.59.12-2.59.23-2.59-.18-2.59-.19H222.9l-2.59.3-2.59,0-2.58,0-2.59-.13-2.59.11-2.59-.18-2.58.36-2.59-.3-2.59.16L197,12.63l-2.59.21-2.58-.37-2.59.09-2.59.11h-2.58l-2.59.06-2.59.07-2.59-.34-2.58.31h-2.59l-2.58-.11H166l-2.59.07-2.58-.21-2.58.05h-2.59l-2.58.25-2.59-.12-2.59.13-2.59-.08-2.59-.06-2.58-.23-2.59.24L135,12.6l-2.59,0-2.58.24-2.59-.32-2.59.09-2.59.15-2.59-.12-2.58-.17-2.59.17-2.59-.07-2.58.07-2.59,0-2.59.08-2.59-.06-2.59-.12H96.14l-2.59.1L91,12.7l-2.59.11-2.59-.33-2.58.16-2.59,0L78,12.83l-2.59-.22-2.59.22-2.59-.18-2.59,0-2.6,0-2.59-.08-2.59.08-2.59-.06-2.59,0-2.58,0-2.59.08-2.59.08-2.59-.07-2.59,0-2.59-.27-2.59.32L34,12.57l-2.59.08-2.59-.05-2.6-.07-2.59.23L21,12.84l-2.6,0-2.59-.17-2.59-.15-2.59.15-2.6-.19H5.46l-2.6.23-2.6-.14-.2,1.2"/></g></svg>