<svg id="mockup" xmlns="http://www.w3.org/2000/svg" xmlns:xlink="http://www.w3.org/1999/xlink" viewBox="0 0 174.47 115.58"><defs><style>.cls-1{mask:url(#mask);}.cls-2{fill:#ec6d52;}.cls-3{fill:#b59664;}.cls-4{fill:#fff;}.cls-5{filter:url(#luminosity-noclip);}</style><filter id="luminosity-noclip" x="-80.14" y="-25.67" width="298.54" height="259.6" filterUnits="userSpaceOnUse" color-interpolation-filters="sRGB"><feFlood flood-color="#fff" result="bg"/><feBlend in="SourceGraphic" in2="bg"/></filter><mask id="mask" x="-80.14" y="-25.67" width="298.54" height="259.6" maskUnits="userSpaceOnUse"><g class="cls-5"><path d="M.68,4.28a3.54,3.54,0,0,0,.53.11s.18-.23.35-.47l.59-.86c.15-.24.27-.46.24-.49a4.06,4.06,0,0,0-.58-.25L1.18,2.1a1,1,0,0,0-.86.27l-.74.94a.4.4,0,0,0,.19.63Z"/><path d="M36.32,91.85a2.2,2.2,0,0,0,.49.26l.57.27c.28.09.56.13.6.08a2.71,2.71,0,0,0,.27-.72l.14-.55c.07-.29,0-.59-.09-.67a1,1,0,0,0-.89.11l-.7.75C36.51,91.61,36.33,91.84,36.32,91.85Z"/><path d="M81.9,26.5c0,.2,0,.24.15.1s.37-.59.28-.63S81.93,26.31,81.9,26.5Z"/><path d="M27.36,98a.28.28,0,0,0-.17,0c-.05,0-.18.23-.2.51l-.07,1.11c0,.28.09.33.27.11l.62-.83c.15-.23.2-.48.11-.55A4.66,4.66,0,0,0,27.36,98Z"/><path d="M28.2,14.28a1.49,1.49,0,0,0,.62.1.64.64,0,0,0,.32-.54l-.21-1.36a.37.37,0,0,0-.54-.24l-2.16,1c-.23.11-.23.27,0,.37Z"/><path d="M68.31,25c-.25.11-.27.24,0,.31s.91,0,1-.12-.16-.51-.42-.4Z"/><path d="M72,27a.2.2,0,0,0,.19-.15c0-.08-.12-.29-.27-.27s-.55.12-.53.17.11.18.16.19Z"/><path d="M79.59,52.83a.3.3,0,0,0-.1-.54c-.26-.12-1-.27-1.12-.07s-.23.78-.09.87A2.5,2.5,0,0,0,79.59,52.83Z"/><path d="M61.52,53.23a.6.6,0,0,0,.61.49c.29,0,1-.24,1-.35a6.06,6.06,0,0,0-.51-.83L62.14,52c-.18-.23-.39-.41-.47-.39a.75.75,0,0,0-.24.6Z"/><path d="M12.62,29.64a.34.34,0,0,0,.05.45l.37.29a.38.38,0,0,0,.47-.07l.44-.55a.33.33,0,0,0-.07-.45l-.32-.23a.42.42,0,0,0-.49.06Z"/><path d="M34.33,8.23a.47.47,0,0,0,.28.58c.22.07,1,0,1.13-.21l.62-1a.28.28,0,0,0-.25-.44l-1-.06a.74.74,0,0,0-.61.48Z"/><path d="M6.07,84a1.65,1.65,0,0,0,.49.28.37.37,0,0,0,.37-.44l-.21-1.08c-.06-.3-.27-.37-.49-.14a3.89,3.89,0,0,0-.34.45A1,1,0,0,0,6.07,84Z"/><path d="M30.81,74.19a.47.47,0,0,0,.52-.06l.69-.69c.12-.13.19-.28.16-.33a2,2,0,0,0-.35-.27.92.92,0,0,0-.69,0l-.71.64a.29.29,0,0,0,0,.44Z"/><path d="M96.85,52.92a.41.41,0,0,0,.54-.05c.15-.15.3-.82.11-1l-.62-.57c-.21-.17-.41-.09-.43.18l-.08.52A1.7,1.7,0,0,0,96.85,52.92Z"/><path d="M62.51,110.67c.26,0,.35-.18.2-.39l-.26-.43a.92.92,0,0,0-.59-.39c-.18,0-.68.17-.7.37s.26.77.52.79Z"/><path d="M6.55,106.72a.27.27,0,0,0,.27-.19l.08-.26a.27.27,0,0,0-.16-.29l-.8-.29-.21-.06a.65.65,0,0,0-.1.2l-.2.55a.18.18,0,0,0,.16.23Z"/><path d="M100,12.63s.15.18.38.32l.46.3c.24.13.49.15.56.05a.39.39,0,0,0-.24-.51l-.63-.16A.84.84,0,0,0,100,12.63Z"/><path d="M37.86,37.73c0,.26.11.45.33.41s.75-.34.67-.6l-.32-.94c-.07-.26-.17-.46-.22-.46a.85.85,0,0,0-.25.49Z"/><path d="M174.14,39.53a1.63,1.63,0,0,0-.19.73l-.14,1.57a1,1,0,0,0,.3.82,2.74,2.74,0,0,0,.85.44,1.62,1.62,0,0,0,.21-.73l.14-2.37c0-.3-.09-.59-.25-.63A1.85,1.85,0,0,0,174.14,39.53Z"/><path d="M88.38,33.75a4.54,4.54,0,0,0-.52.12c-.24.06-.93.37-1,.58s.24.76.53.76h1.38c.29,0,.41-.23.25-.49l-.29-.5A1.43,1.43,0,0,0,88.38,33.75Z"/><path d="M104.43,109.39a2.84,2.84,0,0,0-.29-.58,1,1,0,0,0-.59.23l-.91.62a.83.83,0,0,0-.31.82c.08.26.59.88.89.79l1.12-.42a.66.66,0,0,0,.34-.77Z"/><path d="M94.32,61.84s0,0,0,0,0,0,0,0S94.31,61.84,94.32,61.84Z"/><path d="M126.07,41.76c.24,0,.39-.2.33-.47l-.24-.88c0-.26-.2-.28-.31,0l-.38.84C125.37,41.47,125.83,41.75,126.07,41.76Z"/><path d="M167.82,78.36a1.47,1.47,0,0,0,.1.49l.66.25,3.13.91.54.17-.46-.34-3.31-2.4c-.26-.18-.51-.27-.56-.2A4.87,4.87,0,0,0,167.82,78.36Z"/><path d="M107.46,32.22a.65.65,0,0,0,.56.56l2.18.26c.28,0,.55-.06.6-.22s-.07-.69-.33-.8l-2.66-1.16c-.27-.11-.46,0-.43.32Z"/><path d="M161.82,90.1a.65.65,0,0,0,.55.42c.22,0,.87-.07.9-.2a.71.71,0,0,0-.43-.64l-.73-.2C161.83,89.42,161.75,89.88,161.82,90.1Z"/><path d="M12.66,1.28a.43.43,0,0,0,.41-.56L13,.14a1.09,1.09,0,0,0-.49-.71c-.2-.09-.85,0-1,.26L11.23.76a.44.44,0,0,0,.46.52Z"/><path d="M137.92,57.47c.21.19.43.11.47-.17l.34-1.74c.05-.28,0-.55-.12-.6a.91.91,0,0,0-.77.22l-.61.79a.77.77,0,0,0,.05.85Z"/><path d="M155.51,6c.08,0,.33-.09.54-.32l.71-.84c.19-.25.09-.49-.22-.55l-.71-.16a.48.48,0,0,0-.58.46v.64A1.19,1.19,0,0,0,155.51,6Z"/><path d="M152.1,48.27c.19-.12.33-.28.31-.35a2.28,2.28,0,0,0-.42-.6l-.59-.47c-.2-.17-.33-.1-.28.16l.22,1.16C151.41,48.43,151.91,48.39,152.1,48.27Z"/><path d="M154.35,87.5c-.1.08-.09.36,0,.62l.42.95c.13.25.34.44.46.42s.44-.29.45-.45a2,2,0,0,0-.31-1C155.2,87.86,154.44,87.43,154.35,87.5Z"/><path d="M90.57,63.45c.29,0,.54-.16.54-.32a.52.52,0,0,0-.63-.34l-.85.44c-.27.13-.25.24.05.24Z"/><path d="M167.48,53.94a.61.61,0,0,0-.17.42,1.6,1.6,0,0,0,.37,1c.23.17,1,.7,1.06.74s.38.06.43,0a1,1,0,0,0-.09-.78l-.52-.77a3,3,0,0,0-.48-.55A1.36,1.36,0,0,0,167.48,53.94Z"/><path d="M94.59,41.78a.27.27,0,0,0,.13.36c.14.08.52.14.51,0a1.84,1.84,0,0,0-.14-.63A1,1,0,0,0,94.59,41.78Z"/><path d="M137.22,82.92a.67.67,0,0,0-.43.72l.18.78a.49.49,0,0,0,.67.32l2.69-1a1.57,1.57,0,0,0,.5-.26,2.37,2.37,0,0,0-.33-.45,2.22,2.22,0,0,0-1.12-.62,10,10,0,0,0-1.61.33Z"/><path d="M84.12,27.94l.39.12a3.23,3.23,0,0,0,0-.47,3.41,3.41,0,0,0-.14-.92.54.54,0,0,0-.46.23C83.76,27.1,83.91,27.87,84.12,27.94Z"/><path d="M138.91,55c-.1.3-.11.58,0,.65a2.83,2.83,0,0,0,.88.19c.28,0,1.13-.26,1.24-.55l.52-1.39a.5.5,0,0,0-.37-.66l-.87-.19a.75.75,0,0,0-.77.44Z"/><path d="M152.31,18.57c.18,0,.21,0,.06-.11s-.59-.2-.61-.15S152.12,18.55,152.31,18.57Z"/><path d="M104,77.39c-.1.19,0,.36.34.39l1.55.19c.29,0,.49,0,.45-.18a1.33,1.33,0,0,0-.64-.62l-.81-.27C104.62,76.82,104.1,77.2,104,77.39Z"/><path d="M147.57,55a1.2,1.2,0,0,0,.22.28,4.55,4.55,0,0,0,.94.67l1.22.53c.26.11.45,0,.43-.15s-.1-.78-.13-.88a1,1,0,0,0-.63-.38l-1.53-.08A1.38,1.38,0,0,0,147.57,55Z"/><path d="M112,54.46c.23.1.47.12.54,0a.92.92,0,0,0,.08-.42,1.2,1.2,0,0,0-.51-.15L111,53.8c-.26,0-.28,0-.05.15Z"/><path d="M98,81.55a1.4,1.4,0,0,0,.12-.69c0-.26-.1-1-.2-1a3.55,3.55,0,0,0-.55-.06.43.43,0,0,0-.2.52l.38,1.2A.26.26,0,0,0,98,81.55Z"/><path d="M154.71,95.42a1.37,1.37,0,0,0,.41-.88l-.05-1.4c0-.29,0-.52-.08-.52a1.45,1.45,0,0,0-.46.42l-1.81,2.44-.3.46a1.47,1.47,0,0,0,.3.27,1.43,1.43,0,0,0,1.11,0Z"/><path d="M159.55,92.62c-.07-.27-.27-.46-.44-.41s-.61.46-.59.74l.11,1c0,.28.24.43.44.33s.71-.65.65-.92Z"/><path d="M24.46,14.94a.89.89,0,0,0,.83.28s1.36-.35,2.38-.71l.71-.25c.26-.1.37-.34.22-.52a1.93,1.93,0,0,0-1.16-.56l-2.86.75a.45.45,0,0,0-.34.57A1.93,1.93,0,0,0,24.46,14.94Z"/><path d="M168.1,26.84a2,2,0,0,0,.62-.88,4.71,4.71,0,0,0,0-.74c0-.28-.22-.33-.44-.12l-3.9,3.71c-.22.23-.36.43-.32.47a1.28,1.28,0,0,0,.69-.21Z"/><path d="M143.29,91.31a.43.43,0,0,0,.53-.34l.29-1.68c0-.25-.07-.3-.23-.11l-1,1.35C142.68,90.73,143.05,91.26,143.29,91.31Z"/><path d="M164.12,104a.67.67,0,0,0-.21-.78c-.24-.15-1.07-.41-1.25-.29a2,2,0,0,0-.63,1l.05,2.11a1,1,0,0,0,.17.66.54.54,0,0,0,.6-.26Z"/><path d="M128.06,38.57a.6.6,0,0,0,.21.72l1,.53c.25.1.39,0,.31-.29L129,37.81c-.08-.26-.28-.3-.45-.08Z"/><path d="M95.19,61.1c.06-.2-.09-.35-.34-.33s-.87.17-.81.33.28.58.4.6A1.45,1.45,0,0,0,95.19,61.1Z"/><path d="M114.21,79.25c0-.25-.15-.27-.27,0l-.47.89c-.1.23,0,.44.17.46s.73-.15.7-.41Z"/><path d="M89.14,94.66s0,.09,0,.18a.93.93,0,0,0,.58.41l1.68.33a2.1,2.1,0,0,0,.53.08,1.5,1.5,0,0,0-.49-.23l-1.8-.65A2.08,2.08,0,0,0,89.14,94.66Z"/><path d="M130.29,89.27c0,.2.06.37.13.38a1.42,1.42,0,0,0,.58-.11c.18-.09.55-.44.44-.63s-.45-.63-.59-.56A2.16,2.16,0,0,0,130.29,89.27Z"/><path d="M75.75,73.54c.17.12.37,0,.43-.3l.1-.57c.07-.28,0-.38-.27-.22S75.57,73.42,75.75,73.54Z"/><path d="M135.24,93.18c-.21.21-.35.46-.32.56a.76.76,0,0,0,.59.35c.27,0,.91-.38.8-.64S135.44,93,135.24,93.18Z"/><path d="M95.7,107.81c0,.13.18.27.49.32l1.61.29c.31,0,.58,0,.61,0s-.15-.33-.46-.41l-1.52-.46A.76.76,0,0,0,95.7,107.81Z"/><path d="M109.23,95.31c0,.1.12.32.35.49l.42.33c.23.18.45.3.49.27s0-.3-.23-.5l-.52-.55C109.53,95.15,109.27,95.22,109.23,95.31Z"/><path d="M154.74,94.19c0,.12.21.16.46.09l.48-.09c.25-.06.43-.18.38-.26a.69.69,0,0,0-.52-.23C155.34,93.73,154.74,94.08,154.74,94.19Z"/><path d="M174.2,113c.08.28.23.3.35,0l.59-1.43a.33.33,0,0,0-.35-.48c-.29,0-1,.29-1,.58Z"/><path d="M116,114.8c0,.19.22.38.49.43l.87.13a3.64,3.64,0,0,0,.5,0,4.4,4.4,0,0,0-.21-.47l-.27-.59a.56.56,0,0,0-.57-.35C116.63,114,116,114.61,116,114.8Z"/><path d="M121.23,100.36c.13,0,.21-.22.18-.44s-.18-.49-.27-.29S121.1,100.39,121.23,100.36Z"/><path d="M131.37,34.52a.4.4,0,0,0,.39.54l.79,0a.89.89,0,0,0,.72-.56,9.26,9.26,0,0,0,.29-1.18,1.23,1.23,0,0,0-.5-.33c-.25-.1-1.09,0-1.21.27Z"/><path d="M148.52,24c0,.2.19.37.45.38l1.47.09c.26,0,.48-.06.49-.16a.76.76,0,0,0-.45-.49l-1.32-.38C148.9,23.41,148.54,23.83,148.52,24Z"/><path d="M72.55,106.4a.56.56,0,0,0,.12.7l.63.59c.22.18.45.12.5-.13s.1-1-.06-1.2S72.68,106.21,72.55,106.4Z"/><path d="M107.06,99.72c0,.07.21.18.47.26l.64.2c.27.07.5,0,.52,0a1.55,1.55,0,0,0,0-.41,1.15,1.15,0,0,0-.54-.16l-.61,0C107.3,99.51,107.06,99.66,107.06,99.72Z"/><path d="M140,53.27c0,.29.2.53.37.53a4.82,4.82,0,0,0,.83-.13.44.44,0,0,0,.09-.58l-.51-.82c-.15-.25-.35-.44-.45-.42a.78.78,0,0,0-.37.61Z"/><path d="M79.79,10a.62.62,0,0,0,.62.35c.19-.06.74-.44.75-.73V7.75A1.67,1.67,0,0,0,81,7a1,1,0,0,0-.8-.34L78.62,7a.36.36,0,0,0-.23.57Z"/><path d="M3.29,20.73a.37.37,0,0,0,.28.56l2,.46a.35.35,0,0,0,.45-.4l0-.66a1.07,1.07,0,0,0-.45-.78l-.83-.49A.59.59,0,0,0,4,19.6Z"/><path d="M124.54,34.42a.64.64,0,0,0,.51.46c.2,0,.8-.13.86-.31s0-.76-.29-.86a9.22,9.22,0,0,0-1.08-.31c-.09,0-.26.19-.17.44Z"/><path d="M79.34,101.81a.72.72,0,0,0,.14.52c.1.11.49.34.6.25a.63.63,0,0,0,0-.71C79.94,101.71,79.37,101.64,79.34,101.81Z"/><path d="M36.35,107.78a1,1,0,0,0-.05-.42c-.06-.18-.33-.66-.52-.67l-.66,0a.48.48,0,0,0-.45.32l-.17.56a.29.29,0,0,0,.28.36l1.15.07A.53.53,0,0,0,36.35,107.78Z"/><path d="M73.4,79.33a5,5,0,0,0,.58.1l.82.12c.28,0,.54,0,.58-.18a.9.9,0,0,0-.36-.73l-.88-.38a.5.5,0,0,0-.64.2A2.54,2.54,0,0,0,73.4,79.33Z"/><path d="M38.63,17.69c0,.06.23.06.5,0l.47-.1c.27-.06.27-.11,0-.11A2.61,2.61,0,0,0,38.63,17.69Z"/><path d="M132.48,12.88c-.26-.06-.41,0-.33,0a2.86,2.86,0,0,0,.72.5,3.81,3.81,0,0,0,.9.25.93.93,0,0,0,.09-.22.41.41,0,0,0-.14-.15A11.49,11.49,0,0,0,132.48,12.88Z"/><path d="M120.72,80.52a.22.22,0,0,0,0,.2,2.14,2.14,0,0,0,.65.19l.46,0c.27,0,.29,0,0-.15l-.62-.3C121,80.38,120.74,80.45,120.72,80.52Z"/><path d="M36.58,14.79a1.76,1.76,0,0,0,0,.55,1.67,1.67,0,0,0,.39-.47l1.27-2.12A.54.54,0,0,0,38,12c-.25-.13-1-.15-1.09.16Z"/><path d="M87.9,103.21a.76.76,0,0,0,.82-.17l.37-.42a.63.63,0,0,0,0-.79c-.19-.21-1-.56-1.22-.38l-.79.71a.38.38,0,0,0,.1.63Z"/><path d="M93.73,34c-.17.25-.25.49-.17.53a2.82,2.82,0,0,0,.45.18,1.12,1.12,0,0,0,.65-.35l.93-1.12c.19-.24.25-.51.15-.61a2.24,2.24,0,0,0-.54-.33,1.26,1.26,0,0,0-.51.42Z"/><path d="M64.17,59.1c0,.16.28.21.57.11l1.41-.46c.29-.11.51-.3.51-.43s-.07-.48-.08-.5a2.3,2.3,0,0,0-.61-.11h-.91a1,1,0,0,0-.69.29A4.53,4.53,0,0,0,64.17,59.1Z"/><path d="M163.55,65.43a.37.37,0,0,0,.37.44l1.6.15c.26,0,.49,0,.51-.08a1.56,1.56,0,0,0,0-.64c-.07-.24-.42-.86-.68-.83l-1.07.12C164,64.62,163.6,65.2,163.55,65.43Z"/><path d="M34.15,6.22a.35.35,0,0,0,.18.6l2.65.9a3.27,3.27,0,0,0,.55.14,4.85,4.85,0,0,0,0-.58l-.11-1.23a2.68,2.68,0,0,0-.07-.57s-.29-.14-.57-.25L36.1,5a1,1,0,0,0-.94.17Z"/><path d="M41.76,106.93c.07-.15.13-.28.13-.29l-.34-.28c-.18-.15-.75-.42-.8-.32a1.81,1.81,0,0,0-.12.71c0,.18.18.67.3.72s.49.07.57-.06Z"/><path d="M36,38.5l-.2-.1a3.82,3.82,0,0,0-.11.44c0,.24,0,.64.12.49S36.13,38.56,36,38.5Z"/><path d="M88.22,19.91a.5.5,0,0,0-.54-.38,2.25,2.25,0,0,0-.92.44.93.93,0,0,0,.29.65l1.07.79c.2.15.34.08.31-.18Z"/><path d="M84.65,4.89a1.8,1.8,0,0,0-.11,1c.07.27.42.94.63,1a1.82,1.82,0,0,0,1.1-.48L87,5a2.06,2.06,0,0,0,.16-1.07l-.11-.59a.88.88,0,0,0-.45-.67c-.2-.06-.89,0-1,.32Z"/><path d="M1.82,79.31a.5.5,0,0,0,.26.56c.18,0,.74-.12.79-.38L3,78.78c0-.26-.09-.46-.28-.44A2.18,2.18,0,0,0,1.82,79.31Z"/><path d="M158.41,45.16a2.17,2.17,0,0,0,.05.87c.08.18.39.56.54.51a1.52,1.52,0,0,0,.69-.74l.44-2.18c.05-.3-.12-.5-.39-.45s-1.07.53-1.13.82Z"/><path d="M58.36,18a4.88,4.88,0,0,1,.15.66l.5,2.94a1.33,1.33,0,0,0,.12.49.45.45,0,0,0,.18-.16,1.77,1.77,0,0,0,.08-.82l-.82-3.3c-.06-.27-.14-.43-.18-.37A1.49,1.49,0,0,0,58.36,18Z"/><path d="M49.58,15.37a.62.62,0,0,0-.09-.77c-.2-.15-.84-.2-.86.11l-.08,1.69c0,.31.11.36.29.1Z"/><path d="M73.74,11.53c-.18-.13-.37-.1-.44.06a3.33,3.33,0,0,0-.18,1c0,.19.31.45.49.26l.39-.41C74.16,12.22,73.91,11.67,73.74,11.53Z"/><path d="M122.73,3.11a.52.52,0,0,0,0,.72l.54.43.44.26a4.23,4.23,0,0,0,.37-.36l1-1.06a2.13,2.13,0,0,0,.4-.7c0-.17,0-.68-.21-.76a1.63,1.63,0,0,0-1.13.05Z"/><path d="M20.67,113.15a.1.1,0,0,1,0,0s0,0,0,0S20.68,113.14,20.67,113.15Z"/><path d="M61.31,63.33c.15.2.38.16.51-.09l.56-1.09c.14-.25,0-.36-.22-.25l-.84.42C61.08,62.46,61.15,63.13,61.31,63.33Z"/><path d="M103.9,86.46a1.38,1.38,0,0,0-.1.57c0,.24.21.93.51,1l1.25.22a.43.43,0,0,0,.51-.47l0-.75a.7.7,0,0,0-.58-.62l-.83-.13A1.09,1.09,0,0,0,103.9,86.46Z"/><path d="M57.76,47.53a.69.69,0,0,0-.08-.48,2,2,0,0,0-.54-.44,1.36,1.36,0,0,0-.92.08l-.51.48c-.18.2-.26.44-.17.55a2.91,2.91,0,0,0,.8.52l.63.22c.24.09.48.09.53,0S57.73,47.69,57.76,47.53Z"/><path d="M38.73.06a.76.76,0,0,0-.15-.5,2.17,2.17,0,0,0-.66-.41,1.5,1.5,0,0,0-1,.24L36.46,0c-.17.24-.21.52-.1.62A2.84,2.84,0,0,0,37.3,1l.71.15c.29.06.55,0,.58-.09A7.28,7.28,0,0,0,38.73.06Z"/><path d="M8.66,49.42v-.37c0-.14,0-.59,0-.67a1.16,1.16,0,0,0-.5-.51c-.27-.12-1.05-.28-1.1-.06s.08,1,.34,1.12l.81.47C8.44,49.54,8.66,49.49,8.66,49.42Z"/><path d="M24.63,4.6a1.46,1.46,0,0,0,.28-.48l.94-2.29A1.86,1.86,0,0,0,26,1.21c0-.1-.17-.07-.26.17L24.61,4.26C24.52,4.5,24.58,4.63,24.63,4.6Z"/><path d="M69.71,55.74c.17,0,.29-.21.27-.51l-.07-.83c0-.3-.15-.33-.28,0l-.28.66A.67.67,0,0,0,69.71,55.74Z"/><path d="M54,85a1.14,1.14,0,0,0,.9-.33,3.27,3.27,0,0,0,.6-1.36l-.21-2.39a1.12,1.12,0,0,0-.52-.81A2.49,2.49,0,0,0,53.31,80l-1,.73a1.16,1.16,0,0,0-.41.89L52,84a.85.85,0,0,0,.26.66,4.19,4.19,0,0,0,1,.27Z"/><path d="M1.05,18.57c0-.31-.11-.56-.3-.57s-.72.24-.72.55l0,1.94c0,.31.11.55.26.54s.57-.3.59-.61Z"/><path d="M53.48,12.91a.57.57,0,0,0,.44.5c.19,0,.76-.1.79-.22a2,2,0,0,0-.07-.88l-.53-1.26c-.1-.24-.29-.41-.42-.36a.76.76,0,0,0-.43.64Z"/><path d="M49.49,61.36a.6.6,0,0,0,.74-.27l1-1.93c.14-.25.22-.49.18-.51a1,1,0,0,0-.57.23l-1.94,1.58a.36.36,0,0,0,.06.61Z"/><path d="M107.67,40.5c.09.27.23.27.32,0l.38-1.45c.06-.28-.1-.49-.35-.47s-.92.39-.83.66Z"/><path d="M56.88,43.57c-.27,0-.51,0-.53.09a.7.7,0,0,0,.41.48l1.35.54c.26.09.47,0,.47-.15s-.1-.7-.18-.73a4,4,0,0,0-.76-.15Z"/><path d="M9.74,16.34c0-.25-.11-.34-.32-.2l-.88.69a.49.49,0,0,0,0,.67l.62.67a2.74,2.74,0,0,0,.37.29A3,3,0,0,0,9.57,18Z"/><path d="M58.2,108.88a1.19,1.19,0,0,0-.53.12,1.47,1.47,0,0,0,.16.59l.86,1.62c.12.25.29.24.37,0l.51-1.83a.39.39,0,0,0-.41-.49Z"/><path d="M75.3,59.8a.61.61,0,0,0,.24-.72l-.41-1.33c-.12-.29-.34-.31-.5,0l-.58.91a.72.72,0,0,0,0,.78A2.24,2.24,0,0,0,75.3,59.8Z"/><path d="M37.3,16.15c0-.25-.19-.28-.32,0l-.34.64c-.1.24,0,.47.16.51s.72-.1.67-.36Z"/><path d="M35.07,29.5c0,.25.12.28.23.07s.3-.84.18-.86S35.07,29.25,35.07,29.5Z"/><path d="M123.48,94.12a2,2,0,0,0,.28-.77,1.3,1.3,0,0,0-.42-.86c-.25-.13-1.11-.21-1.28,0l-.79,1.24c-.14.26-.19.54-.11.61a3.19,3.19,0,0,0,.76.36A3,3,0,0,0,123.48,94.12Z"/><path d="M136.42,8.56s.05-.28.09-.58l.29-2.89c0-.29,0-.44-.11-.31a2.93,2.93,0,0,0-.4,1L136,8c0,.3,0,.55.06.56A1,1,0,0,0,136.42,8.56Z"/><path d="M54.55,62.28a.51.51,0,0,0-.62-.29l-.81.23a.39.39,0,0,0-.25.55l.35.84a.41.41,0,0,0,.58.22l.74-.37a.49.49,0,0,0,.23-.63Z"/><path d="M74.87,2.5a.7.7,0,0,0-.51-.19c-.2,0-.75.12-.76.25a.61.61,0,0,0,.55.41C74.41,2.94,75,2.6,74.87,2.5Z"/><path d="M15.18,82.74c.17,0,.28-.27.24-.56s-.26-.66-.39-.41a10,10,0,0,0-.41,1A3.31,3.31,0,0,0,15.18,82.74Z"/></g></mask></defs><g class="cls-1"><polygon class="cls-2" points="108.96 89.52 108.66 88.62 108.16 87.33 107.03 86.49 106.31 85.81 105.11 86.25 103.94 86.99 102.79 87.76 101.44 88.18 100.41 89.16 98.96 89.43 97.93 90.4 96.86 91.31 95.68 92.04 94.06 92.52 95.35 91.25 95.42 89.54 96.94 88.67 96.94 86.92 98.1 85.83 98.66 84.4 99.86 83.34 100.43 81.91 101.46 80.62 99.88 79.91 98.98 78.81 97.73 78.29 96.36 77.77 95.46 78.89 95.32 80.4 94.56 81.56 94.11 82.9 93.17 83.96 92.34 85.08 91.96 86.45 90.8 87.38 90.01 88.53 89.6 89.7 89.41 88.5 89.58 87.13 89.52 85.75 89.16 84.37 89.93 82.99 89.41 81.61 89.08 80.24 89.19 78.85 89.86 77.47 89.98 75.96 88.3 76.31 87.1 75.66 85.67 76.33 84.21 76.13 83.79 77.52 83.74 78.91 84.25 80.3 84.43 81.69 84.47 83.08 84.06 84.48 84.61 85.87 84.15 87.27 84.33 88.67 84.36 90.54 83.2 89.05 82.63 87.77 81.95 86.55 81.3 85.31 80.94 83.91 79.77 82.97 79.41 81.56 78.56 80.43 77.68 79.32 77.15 78.03 75.78 78.08 74.66 78.86 73.52 79.58 72.65 80.57 72.98 82.01 73.89 83.14 75.07 84.11 75.74 85.39 76.44 86.65 76.8 88.1 77.63 89.28 78.11 90.68 78.82 91.51 77.91 90.88 76.31 90.7 75.3 89.52 74.22 88.44 72.62 88.27 71.21 87.77 70.21 86.57 68.92 85.85 67.51 85.57 66.89 86.26 66.31 87.48 65.36 88.44 64.48 89.51 65.95 89.85 67.02 90.86 68.05 91.92 69.36 92.53 70.8 92.9 72.1 93.51 73.33 94.25 74.48 95.12 75.77 95.76 76.89 96.7 78.14 97.39 79.28 98.29 80.46 99.12 81.53 99.58 80.53 99.96 79.33 100.59 78.53 101.92 76.99 101.98 75.97 102.93 75.05 104.06 73.77 104.56 72.11 104.93 73.2 106.14 73.9 107.27 74.51 108.45 75.23 109.27 76.41 109.19 77.65 108.66 78.74 107.86 80.01 106.72 79.12 108.17 78.22 109.25 78.13 110.79 76.72 111.81 77.95 112.76 79.36 112.96 80.26 114.07 81.69 114.63 82.63 113.43 82.58 111.86 83.7 110.97 84.2 110.01 84.72 111.13 84.48 112.51 84.11 113.9 83.98 115.58 85.62 115.2 86.95 115.23 88.28 115.45 89.42 115.07 89.64 113.93 89.94 112.6 90 111.26 89.69 110.32 90.45 111.02 90.6 112.53 91.32 113.71 92.26 115.09 93.69 114.31 94.45 112.97 95.6 112.31 97.2 112.06 96.06 110.7 95.61 109.1 94.76 107.73 94.01 106.7 95.09 107.28 96.61 107.83 97.93 108.7 99.25 109.79 100.02 108.56 100.7 107.42 101.27 106.21 101.75 105.07 100.94 103.96 99.46 103.81 98.29 103.11 97.44 101.87 95.82 101.95 94.83 100.94 93.46 100.59 92.43 99.56 93.81 98.88 95.18 98.27 96.48 97.53 97.4 96.16 98.71 95.44 100.16 94.97 101.49 94.29 102.89 93.72 104.2 93 105.49 92.25 106.85 91.61 108.05 90.66 108.96 89.52"/><polygon class="cls-3" points="87.1 0.7 85.66 0.64 84.21 0 82.79 0.47 81.38 0.95 79.9 0.4 78.5 0.92 77.09 1.2 75.63 1.02 74.14 0.71 72.79 1.47 71.34 1.45 69.98 2.06 68.55 2.21 67.1 2.26 65.73 2.75 64.28 2.84 62.96 3.48 61.52 3.65 60.08 3.83 58.73 4.37 57.36 4.8 55.99 5.24 54.56 5.49 53.39 6.49 52.01 6.9 50.74 7.6 49.15 7.48 48.07 8.64 46.79 9.28 45.27 9.4 44 10.08 42.58 10.44 41.37 11.25 40.07 11.87 39.06 13.01 37.58 13.31 36.28 13.94 35.46 15.37 33.86 15.51 32.88 16.65 31.66 17.39 30.21 17.81 29.44 19.22 28.11 19.82 27 20.74 25.75 21.48 24.56 22.28 23.37 23.1 22.37 24.14 21.62 25.47 20.62 26.5 19.2 27.06 18.2 28.1 17.22 29.16 15.9 29.86 14.83 30.84 14.25 32.27 13.06 33.12 12.5 34.55 11.63 35.68 10.32 36.45 9.26 37.45 8.63 38.78 7.38 39.63 7.22 41.31 6.3 42.41 5.03 43.27 4.22 44.46 3.5 45.7 3.12 47.17 1.89 48.09 0.89 49.17 0.58 50.66 0 51.82 0.94 52.95 2.35 53.37 3.63 54 4.69 55.02 6.25 55.18 7.36 56.12 8.35 57.25 9.84 57.53 10.8 58.7 12.07 59.37 13.46 59.83 14.49 60.88 15.73 61.59 17.04 62.17 18.6 62.31 19.41 63.74 20.65 64.44 22.15 64.7 23.54 65.15 24.38 66.54 25.72 67.09 26.95 67.81 28.3 68.32 29.7 68.76 30.69 69.89 31.77 70.86 33.29 71.1 34.27 72.25 35.63 72.75 36.73 73.7 37.91 74.51 39.3 74.98 40.42 75.9 41.99 76.05 43.07 77.03 44.09 78.12 45.28 78.91 46.83 79.11 47.94 80.03 49.35 80.45 50.55 81.24 51.67 82.15 53.18 82.41 53.98 83.89 55.43 84.23 56.42 85.39 57.75 85.94 58.94 86.77 60.23 87.4 61.63 87.89 61.93 86.37 63.13 85.39 64.05 84.27 64.68 82.95 65.7 81.93 66.52 80.74 67.23 79.4 68.72 78.88 69.62 77.71 70.86 76.95 72.22 76.39 73.14 75.12 74.7 75 75.75 73.83 77.25 73.67 78.64 73.31 80.03 72.97 81.27 71.9 82.78 72.09 84.16 71.39 85.64 71.59 87.1 72.11 88.57 71.34 89.96 72.13 91.38 72.39 92.79 72.61 94.32 72.43 95.7 72.9 96.9 73.83 98.22 74.4 99.73 74.56 100.77 75.68 102.09 76.27 103.34 76.99 104.35 78.05 105.66 78.72 106.45 79.98 107.69 80.78 108.83 81.71 109.47 83.05 110.09 84.36 111.19 85.36 112.06 86.54 112.68 88.38 113.83 87.21 115.2 86.73 116.27 85.72 117.45 84.9 118.53 83.92 120.13 83.83 120.99 82.48 122.5 82.23 123.53 81.17 124.72 80.37 126 79.74 127.62 79.68 128.82 78.92 129.75 77.67 130.82 76.7 132.33 76.46 133.39 75.45 134.9 75.21 135.98 74.23 137.1 73.31 138.26 72.48 139.64 72.01 140.95 71.42 142.14 70.63 143.43 70 144.4 68.83 145.94 68.65 147.14 67.85 148.09 66.65 149.42 66.1 150.97 65.92 151.79 64.48 153.5 64.58 154.71 63.81 155.53 62.38 157.11 62.25 158.03 61 159.24 60.23 160.44 59.45 162.06 59.38 163.08 58.3 164.58 58.03 165.67 57.05 166.91 56.34 168.23 55.76 169.46 55.02 170.6 54.13 171.93 53.56 173.28 53.03 174.47 52.07 173.79 50.57 172.75 49.52 172.56 47.95 171.27 47.06 171 45.53 169.93 44.51 168.82 43.53 168.52 41.98 167.12 41.22 166.26 40.07 165.48 38.87 164.82 37.56 163.58 36.72 162.83 35.47 162.3 34.03 160.64 33.58 160.27 31.97 159.03 31.17 157.96 30.21 157 29.14 156.32 27.77 154.86 27.22 154.05 25.98 152.56 25.49 151.79 24.2 150.76 23.19 149.27 22.74 148.59 21.28 147.44 20.43 145.86 20.14 145.09 18.75 143.91 17.94 142.48 17.48 141.44 16.46 140.09 15.9 138.81 15.23 137.57 14.52 136.48 13.55 135.17 12.95 134.24 11.66 132.81 11.28 131.67 10.34 130.27 9.92 128.73 9.81 127.5 9.05 126.27 8.28 124.81 8.05 123.64 7.13 122.31 6.58 120.98 6.03 119.5 5.89 118.28 5 116.81 4.88 115.4 4.58 113.94 4.47 112.7 3.59 111.19 3.69 110 2.51 108.59 2.19 107.11 2.19 105.71 1.87 104.17 2.32 102.79 1.9 101.44 1.21 100.05 0.82 98.62 0.59 97.12 1.03 95.67 1.18 94.26 0.84 92.85 0.48 91.43 0.01 89.96 0.72 88.53 0.56 87.1 0.7"/></g><path class="cls-4" d="M56,44.18h-5.7a9.08,9.08,0,0,1-2.06,4.49c3.37,1.64,7.93,2.29,12.93,2.44v.3a2.17,2.17,0,0,0-1.63,1.88c-5.05-.48-9.21-1.5-12.25-3.66-1.88,1.63-4.82,2.91-9.29,3.79l-.17-.4c4.06-1.28,6.65-2.67,8.25-4.37a12.74,12.74,0,0,1-2.43-3.11l.35-.31a9.4,9.4,0,0,0,2.74,2.62,8.57,8.57,0,0,0,1.53-3.67H43V45s-.25.75-2,.75V34.84l2.21,1h5.32V32.61H38L37.89,32H57.07l1.38-1.73,2.63,1.81c-.2.32-.5.5-1.23.5H50.57V35.8h5.17l.88-1.18,2.46,1.75A2,2,0,0,1,58,36.9v8a2.84,2.84,0,0,1-2,.58Zm-7.48-7.83H43v3.29h5.52ZM43,43.6h5.34a20.72,20.72,0,0,0,.18-3.39H43Zm7.58-3.39a21.85,21.85,0,0,1-.18,3.39H56V40.21ZM56,36.35H50.57v3.29H56Z"/><path class="cls-4" d="M83.66,40.62l2.23,2c-.2.23-.6.3-1.26.33C79.94,49.33,74.49,52.09,64,53.27l-.07-.48c8.71-1.73,14.33-4.49,18.37-10.44H74.32a38.55,38.55,0,0,1-3.54,2.13c3.66.3,4.87,1.83,4.87,2.89a.94.94,0,0,1-.91,1,1.27,1.27,0,0,1-.67-.2,8.93,8.93,0,0,0-3.94-3.39,34,34,0,0,1-5.27,2l-.21-.32a29.47,29.47,0,0,0,9.82-6.76h0a39.18,39.18,0,0,1-10.76,3l-.15-.45c7.35-1.78,12.6-4.52,16.44-9H72.36c-.9.63-1.86,1.26-2.89,1.86,3.39,0,4.5,1.3,4.5,2.23a.86.86,0,0,1-.86.91,1.31,1.31,0,0,1-.57-.15,9.52,9.52,0,0,0-3.67-2.66,27.1,27.1,0,0,1-4.37,1.93l-.22-.3A26.51,26.51,0,0,0,73,29.85l3.29.78c-.1.27-.43.42-1.21.45a25.77,25.77,0,0,1-2,1.68h7.1l1.23-1.13,2.19,1.91a1.8,1.8,0,0,1-1.23.32,25.51,25.51,0,0,1-5.95,4.87l2.41.58c-.13.28-.48.45-1.23.43A25.17,25.17,0,0,1,75.1,41.8h7.28Z"/><path class="cls-4" d="M108.76,33.06l2.59,1.83c-.2.33-.5.5-1.21.5h-11c-.08.26-.3.38-.95.46a45.22,45.22,0,0,1-.46,4.79h7.46l1-1.18,2.33,1.81a1.51,1.51,0,0,1-1,.4c-.27,5.52-.83,9.79-2,10.74a4.75,4.75,0,0,1-3.19.91c.05-1.18-.32-1.63-3.49-2v-.42c1.31.1,3.47.17,4.22.17.5,0,.73,0,1-.25.78-.7,1.2-4.67,1.48-9.59H97.57c-.8,4.09-2.94,8.61-9.11,12.1l-.35-.37c7.38-5.55,7.73-12.38,7.8-17.53H88.16L88,34.82H98.57V29.9l3.19.27c0,.41-.3.56-1.13.68v4h6.75Z"/><path class="cls-4" d="M136.45,45.66c-.2.35-.47.5-1.2.5h-8.68c2.3,2.29,6.45,4,10.11,4.65l-.05.27A2.32,2.32,0,0,0,135,52.89a16.94,16.94,0,0,1-9.06-6.73h-.15v6.56s-.35.57-2,.57V47c-2.51,2.66-6.3,4.64-10.69,5.9l-.2-.43a22.54,22.54,0,0,0,8.91-6.33h-8.46l-.15-.57h10.59V43l3,.25c0,.38-.25.55-1,.63v1.71h7L134,44.06Zm-3.71-10.39a15.75,15.75,0,0,0,.6-2.28H116.55a2.36,2.36,0,0,1-2.16,2.61c-.85,0-1.1-.53-1.1-.91a1.29,1.29,0,0,1,.85-1,2.54,2.54,0,0,0,1.73-2.31h.43a5.24,5.24,0,0,1,.23,1.08h7.15V29.77l3.21.28c0,.38-.3.55-1.13.68v1.68h7.41l1.13-1.16,2.08,2a1.65,1.65,0,0,1-1,.25,11.43,11.43,0,0,1-2.36,2Zm3.49,1.18c-.2.33-.5.48-1.18.48h-4.12A13.14,13.14,0,0,1,128,40.16c4.49,1,5.87,2.31,5.87,3.14,0,.43-.4.71-.9.71a1.77,1.77,0,0,1-.9-.26,22.74,22.74,0,0,0-5.7-2.48c-2.84,1.61-6.63,2.43-12.1,2.89l-.1-.43c4.24-.68,7.66-1.56,10.22-3-1.46-.38-3.07-.7-4.87-1-.35.37-.68.73-1,1a.74.74,0,0,1-.27,0,2.57,2.57,0,0,1-1.58-.66c.77-.75,1.9-1.93,3-3.13h-6.17l-.15-.58h6.85a32.58,32.58,0,0,0,2.28-2.79l2.67.78c-.08.25-.28.38-.73.38a1.85,1.85,0,0,1-.38,0l-1.46,1.66h10.2L134,35Zm-14.13.48c-.66.72-1.38,1.53-2.06,2.23,2.26.15,4.17.35,5.8.6a10.7,10.7,0,0,0,2.58-2.83Z"/></svg>