<svg id="mockup" xmlns="http://www.w3.org/2000/svg" xmlns:xlink="http://www.w3.org/1999/xlink" viewBox="0 0 199.73 49.32"><defs><style>.cls-1{mask:url(#mask);}.cls-2{fill:#f1c49d;}.cls-3{fill:none;stroke:#f1c49d;stroke-miterlimit:10;}.cls-4{filter:url(#luminosity-noclip);}</style><filter id="luminosity-noclip" x="-40.35" y="-39.51" width="136.33" height="131.79" filterUnits="userSpaceOnUse" color-interpolation-filters="sRGB"><feFlood flood-color="#fff" result="bg"/><feBlend in="SourceGraphic" in2="bg"/></filter><mask id="mask" x="-40.35" y="-39.51" width="136.33" height="131.79" maskUnits="userSpaceOnUse"><g class="cls-4"><path d="M27.87,18.48a.23.23,0,0,1,.16-.21s.31-.08.4,0a.66.66,0,0,1,.18.33.17.17,0,0,1-.13.21l-.41.09a.14.14,0,0,1-.18-.14Z"/><path d="M95.47,26.13a.22.22,0,0,1,.19-.19s.1,0,.12,0a5,5,0,0,1,.19.48c0,.09,0,.16-.11.15l-.27,0a.18.18,0,0,1-.16-.2Z"/><path d="M4.65,41.86s0-.08.08-.1l.42-.12c.07,0,.14,0,.14,0h0l-.62.17Z"/><path d="M72.49,11.74a.78.78,0,0,1-.45.64c-.24.11-.77.06-.73-.31a2.45,2.45,0,0,1,.25-.81.43.43,0,0,1,.26-.25C72.18,10.94,72.48,11.5,72.49,11.74Z"/><path d="M37.5,39.31a.34.34,0,0,1-.13.37c-.1,0-.31,0-.31-.21,0,0,0-.27,0-.55a.7.7,0,0,1,.29,0A3.12,3.12,0,0,1,37.5,39.31Z"/><path d="M18.79,51c.22.36.13.44-.2.17a6.73,6.73,0,0,1-.71-.64c-.54-.82-1.19-1.83-1.19-1.83-.23-.36-.11-.6.27-.54l.15.2C17.64,49.11,18.79,51,18.79,51Z"/><path d="M56,7.28c.06.09,0,.14-.08.12s-.18,0-.2-.08a1.42,1.42,0,0,1-.08-.3c0-.1,0-.16.1-.14l0,0C55.82,7.05,56,7.28,56,7.28Z"/><path d="M81.28,12.83c.07.13,0,.21-.13.18s-.25,0-.28-.12a3.24,3.24,0,0,1-.12-.42c0-.15,0-.24.15-.21l0,.06C81.08,12.5,81.28,12.83,81.28,12.83Z"/><path d="M60,26.85a6.38,6.38,0,0,0,.12.88c.09.49.11,1.73-.16,1.69s-.81-.52-.62-1L60,26.85Z"/><path d="M31.13,34c-.23-.53,0-1,.58-.94s1.44.51,1.45,1.09a2.31,2.31,0,0,1-.21.65c-.07.18-1,.28-1.18.09A3,3,0,0,1,31.13,34Z"/><path d="M11,3.94a.57.57,0,0,1-.49.76s-.31,0-.37-.09A2.08,2.08,0,0,1,10,3.45c0-.11.7-.27.72-.23A5.74,5.74,0,0,1,11,3.94Z"/><path d="M37.77,3.53a.09.09,0,0,1,.08-.13.22.22,0,0,1,.21.12.16.16,0,0,1,0,.11.1.1,0,0,1-.05.06C37.9,3.72,37.79,3.59,37.77,3.53Z"/><path d="M16.63,1.3c.14,0,.25,0,.25.1s-.05.3-.12.3-.27-.12-.28-.25l.06-.07C16.59,1.31,16.63,1.3,16.63,1.3Z"/><path d="M83.46,34.28a.56.56,0,0,1,.84.53,1.23,1.23,0,0,1-.17.67,1.85,1.85,0,0,1-.39.36.75.75,0,0,1-1-.52,1.05,1.05,0,0,1,.12-.51C83,34.51,83.46,34.28,83.46,34.28Z"/><path d="M94.86,25.59c-.07-.24.06-.37.3-.28,0,0,.26.09.3.21a1.79,1.79,0,0,1,.09.48.43.43,0,0,1-.39.45l0-.07A6.55,6.55,0,0,1,94.86,25.59Z"/><path d="M25.12,45.8a.83.83,0,0,1,1,.68A.74.74,0,0,1,26,47c-.13.21-.18.21-.18.21a1,1,0,0,1-.94-.84L25,46C25,45.82,25.12,45.8,25.12,45.8Z"/><path d="M71.9,41a.7.7,0,0,1,.87.58s0,.32-.1.42a1.57,1.57,0,0,1-1.15.12c-.15,0-.3-.8-.22-.85A2.57,2.57,0,0,1,71.9,41Z"/><path d="M28.33,23.41c.07,0,.2.14.29.3s.1.49-.14.44c0,0-.06,0-.23-.16s-.14-.16-.14-.16C28.07,23.59,28.25,23.4,28.33,23.41Z"/><path d="M37.13,44.27c.17.57-.16.92-.74.79a10,10,0,0,1-1.58-.54c-.16-.07-.16-1-.06-1a6.27,6.27,0,0,1,1.93-.35A5.4,5.4,0,0,1,37.13,44.27Z"/><path d="M61.81,46.48c.27-.15.45,0,.41.29a.4.4,0,0,1-.14.24,2.15,2.15,0,0,1-.39.21c-.29.09-.51,0-.48-.28l.12-.12A2.13,2.13,0,0,1,61.81,46.48Z"/><path d="M43,27a.58.58,0,0,1,.6.63h-.78c-.37,0-.64-.28-.61-.58h.06A5.38,5.38,0,0,1,43,27Z"/><path d="M52.21,21.78a.58.58,0,0,1-.65.59v0c0-.47,0-.75,0-.75,0-.37.29-.64.58-.6v.06A6.37,6.37,0,0,1,52.21,21.78Z"/><path d="M4.09,9.33a.62.62,0,0,1,.78.8.79.79,0,0,1-.28.4l-.25.19a.89.89,0,0,1-.83-.88l.21-.25A.73.73,0,0,1,4.09,9.33Z"/><path d="M46.19.83c.09.5-.2.8-.65.67l0-.14a4.22,4.22,0,0,1-.15-.64c0-.5.22-.9.56-.88l0,.1A6.38,6.38,0,0,1,46.19.83Z"/><path d="M62.24,15.27a.34.34,0,0,1-.29.28c-.14,0-.47-.05-.42-.23l.1-.08.2-.16A.26.26,0,0,1,62.24,15.27Z"/><path d="M56.79.82a.4.4,0,0,1,.58.39,2,2,0,0,1-.06.39l0,.09a.67.67,0,0,1-.63-.46V1C56.67.86,56.79.82,56.79.82Z"/><path d="M70.38,39.2a.48.48,0,0,1,.5.43c.06.27-.17,1-.6,1l-.13-.16-.27-.31A.92.92,0,0,1,70.38,39.2Z"/><path d="M33,33.3c.07.39-.17.55-.51.35,0,0,0,0,0-.13a5.6,5.6,0,0,1-.13-.64c0-.4.14-.7.42-.67l0,.11A7.89,7.89,0,0,1,33,33.3Z"/><path d="M10.45,9.62c0,.22-.13.42-.28.44a.55.55,0,0,1-.46-.57l.14-.25L10,9.06C10.24,9,10.46,9.39,10.45,9.62Z"/><path d="M36.12,3.19s.06,0,.06,0,0,0,0,0h-.07v0Z"/><path d="M13,36.54c0-.32.11-.58.27-.58s.52.41.5.91a4.64,4.64,0,0,1-.11.51l0,.12C13.29,37.56,13,36.86,13,36.54Z"/><path d="M6.92,41.07a.61.61,0,0,1,.73-.86,1.62,1.62,0,0,1,.59.24l.21.13c.08.4-.3.79-.83.87l-.44-.12A.42.42,0,0,1,6.92,41.07Z"/><path d="M69.77,39.24s.08.06.13.15.08.32,0,.34v0l-.11-.2C69.71,39.37,69.74,39.25,69.77,39.24Z"/><path d="M80.81,45.93c-.09-.32.09-.48.4-.35,0,0,.19.08.22.21a5.4,5.4,0,0,1,.17,1.27,1.67,1.67,0,0,1-.44.11C81,46.77,80.81,45.93,80.81,45.93Z"/><path d="M86.74,12c.33-.24.47-.13.31.25a6.46,6.46,0,0,1-.43.8l-.11.14c-.25,0-.37-.19-.27-.55l.15-.29A1.36,1.36,0,0,1,86.74,12Z"/><path d="M43.12,10.12c.16-.1.27,0,.26.15l-.05.05-.1.07c-.13,0-.26,0-.27-.12l0,0Z"/><path d="M21.09,42.61c0-.24.27-.45.65-.48v0a1.78,1.78,0,0,1,.06.94l0,.14C21.44,43.34,21.11,42.84,21.09,42.61Z"/><path d="M83.75,26.15c.07-.08.12,0,.13.13v.36s-.09-.08-.11-.23,0-.06,0-.22Z"/><path d="M69.06,21.55c.06,0,.11,0,.11.09a.23.23,0,0,1,0,.07v0c-.05,0-.1,0-.11-.1v-.06S69.06,21.55,69.06,21.55Z"/><path d="M13.16,17.21a.81.81,0,0,1,1.08.5l-.05,0a5.73,5.73,0,0,1-1.23.33,2.55,2.55,0,0,1-.18-.67Z"/><path d="M35.7,18.27c-.05.24-.21.44-.36.44s-.46-.34-.39-.76l.19-.3.1-.15C35.59,17.48,35.75,18,35.7,18.27Z"/><path d="M28.18,34.56a.38.38,0,0,1-.41.46L27.62,35s0-.32,0-.35a.65.65,0,0,1,.47-.08Z"/><path d="M-.09,15.05A.13.13,0,0,1,0,15c.06,0,.22.09.21.2h0l-.1,0A.27.27,0,0,1-.09,15.05Z"/><path d="M43.55,38.74s0,.06-.06.06h0a.28.28,0,0,1,0-.13h0S43.55,38.72,43.55,38.74Z"/><path d="M11,38.87c.48-.33.83-.12.77.47a.38.38,0,0,1-.18.25l-.31.23c-.46.11-.86,0-.89-.36l.12-.14A3.17,3.17,0,0,1,11,38.87Z"/><path d="M25.65,17.06a.3.3,0,0,1,.34.29c0,.19-.13.58-.32.54l0-.08a2.89,2.89,0,0,1,0-.72Z"/><path d="M57.6,14.68c0,.14-.1.22-.25.18l-.12-.06s0-.21.07-.23a.33.33,0,0,1,.25.07Z"/><path d="M68.38,18.31c.38.06.68.25.67.43a.75.75,0,0,1-.68.53l-.24-.15c-.08-.05,0-.55.13-.69Z"/><path d="M20,11.15c.1,0,.15.06.12.14l0,0s-.11,0-.11,0,0-.13,0-.15Z"/><path d="M66.74,31.63c-.1-.29.13-.58.5-.64l.07.09.13.16a.5.5,0,0,1-.41.55l-.16-.09Z"/><path d="M85.19,18.6c-.1-.29.12-.58.5-.64l.07.09.13.16a.51.51,0,0,1-.42.55l-.15-.09Z"/><path d="M39.5,31.63a.24.24,0,0,1,.33.21l0,.07,0,.05a.33.33,0,0,1-.31-.19l0-.07Z"/><path d="M40.74,35.26c-.05-.15,0-.29.15-.3a.58.58,0,0,1,.49.35l-.07.16-.05.13C41.07,35.69,40.79,35.41,40.74,35.26Z"/><path d="M62.13.84c.25-.07.41.07.35.33l-.09.07-.09.08A.33.33,0,0,1,62,1L62,1A.67.67,0,0,1,62.13.84Z"/><path d="M43.65,33.69c.11,0,.28.07.38.26l0,0-.14.14c-.19.12-.39.14-.43.05A.66.66,0,0,1,43.65,33.69Z"/><path d="M72.57,26.81c0,.26,0,.5-.16.55a.43.43,0,0,1-.47-.34l0-.24s.39-.14.48-.06Z"/><path d="M79.42,21.25c0,.25,0,.5-.15.54a.42.42,0,0,1-.47-.34l0-.23a.61.61,0,0,1,.48-.07Z"/><path d="M31.05,31.12a.26.26,0,0,1,.3.15c0,.1-.13.4-.39.48l-.19-.06-.11,0A.53.53,0,0,1,31.05,31.12Z"/><path d="M15.93,11.3c.13,0,.27.19.3.48h0a1.12,1.12,0,0,1-.6.05h-.07A.63.63,0,0,1,15.93,11.3Z"/><path d="M73.49,35.13c.25,0,.42.14.37.34l-.08,0-.15.07a.32.32,0,0,1-.35-.31l.08-.05Z"/><path d="M77.79,27.42c.25,0,.42.14.37.34l-.08,0-.15.07a.32.32,0,0,1-.35-.31l.08,0Z"/><path d="M47.08.66c.31-.11.6,0,.65.25s-.09.88-.4,1v0a5.12,5.12,0,0,1-.23-1.1Z"/><path d="M59,47.82a.44.44,0,0,1-.43.5l-.11-.09-.09-.07a.53.53,0,0,1,.41-.48l.11.07Z"/><path d="M5.54,2.19c.23,0,.44.1.46.21a.44.44,0,0,1-.38.37l-.2,0s-.06-.36,0-.43Z"/><path d="M59.94,19.25c0,.13-.11.23-.2.22a.5.5,0,0,1-.2-.51l.07-.21v0C59.83,18.76,60,19.11,59.94,19.25Z"/><path d="M40.23,15.62a.48.48,0,0,1,.53.52l-.11.14-.07.1a.63.63,0,0,1-.53-.5l.1-.14Z"/><path d="M16,3.37a.13.13,0,0,1,.13-.19l.05,0,0,0a.15.15,0,0,1-.12.18L16,3.4Z"/><path d="M40.29,40.47a.56.56,0,0,1,.64-.56L41,40l.11.22a.46.46,0,0,1-.53.48l-.15-.14Z"/><path d="M63.15,22.23c.38-.09.71.24.73.74l-.1.05a.82.82,0,0,1-.7,0A.64.64,0,0,1,63,22.4Z"/><path d="M4.86,20.25c-.11.09-.25-.12-.28-.39s0-.31.09-.39.23.37.19.78Z"/><path d="M51.93-.3c.13,0,.25,0,.26.08A.26.26,0,0,1,52,0L52,0c-.05,0-.07-.18,0-.25Z"/><path d="M33.93,6a.39.39,0,0,1,.33-.42l0,0,.07.13a.33.33,0,0,1-.25.37L34,6Z"/><path d="M59.3,4.42a.26.26,0,0,1-.27.3L59,4.66l-.05,0a.3.3,0,0,1,.25-.28l.07,0Z"/><path d="M77.78,6.25a.26.26,0,0,1-.27.3l-.07-.06-.06,0a.32.32,0,0,1,.26-.28l.07,0Z"/><path d="M9.3,48.68c0,.13-.11.23-.16.23A.23.23,0,0,1,9,48.67l0-.1a.32.32,0,0,1,.24,0Z"/><path d="M92.49,30.45a.08.08,0,0,1,.08.08l0,0,0,0a.08.08,0,0,1-.08-.07l0,0Z"/><path d="M9.74,6.56s.07.06.07.08,0,.07-.07.06a.15.15,0,0,1-.05-.12h.05Z"/><path d="M19.15,4.93c.35-.11.54.09.43.45l-.14.15-.13.13c-.25,0-.42-.14-.39-.41l.13-.17Z"/><path d="M11,29.38c0-.06.07-.12.19-.13l.07,0s0,.14,0,.17l-.06.07C11.11,29.56,11,29.45,11,29.38Z"/><path d="M26.1,35a.1.1,0,0,1,.15.08l0,0,0,0a.13.13,0,0,1-.15-.08l0,0Z"/><path d="M82.37,38.66c.16.42,0,.72-.41.66l-.08-.11L81.75,39a.59.59,0,0,1,.37-.63l.09.08C82.36,38.62,82.37,38.66,82.37,38.66Z"/><path d="M66.91,14.44c-.12-.21-.11-.4,0-.42s.43.1.47.28l0,.15c0,.05-.27.12-.34.07Z"/><path d="M77.64,16.06c-.12-.21-.12-.4,0-.42s.44.1.47.28l0,.16a.42.42,0,0,1-.34.06Z"/><path d="M20.54,48.75s.06,0,.06.07a.19.19,0,0,1-.16.13l0,0,0,0A.17.17,0,0,1,20.54,48.75Z"/><path d="M66.5,21.55c.12,0,.2.16.16.39l-.08.12c0,.07-.31.08-.34,0L66.15,22C66.12,21.78,66.37,21.57,66.5,21.55Z"/><path d="M67.11,21c.08,0,.18.23.22.44l-.07,0-.11.07c-.19,0-.35-.13-.35-.25S67,20.94,67.11,21Z"/><path d="M41.27,43.06c.08,0,.08.17,0,.3l-.09,0s-.2-.06-.21-.12l0-.1C41,43.06,41.19,43,41.27,43.06Z"/><path d="M.12,31.89c0-.05.05-.35.12-.68s.38-1.14.53-1.07h0c-.2.58-.42,1.16-.64,1.74Z"/><path d="M74.74,43.86c.23,0,.37.24.3.63l-.16.16c-.11.11-.54.14-.62,0l-.14-.18C74.11,44.21,74.51,43.9,74.74,43.86Z"/><path d="M58.23,12.7c.28,0,.49.07.45.2s-.29.39-.5.34L58,13.15a.45.45,0,0,1,.08-.37Z"/><path d="M62.18,23.6c.33-.05.57,0,.54.21s-.3.5-.55.46L62,24.16c-.07-.05-.07-.41,0-.45Z"/><path d="M84.45,25.17a.49.49,0,0,1,.52.46l-.09.07-.12.09a.61.61,0,0,1-.5-.45l.08-.07Z"/><path d="M7.65,35.74c.1,0,.17,0,.14.16l0,0,0,0a.18.18,0,0,1-.13-.17l0,0Z"/><path d="M31.51,44.82a.14.14,0,0,1-.08.1l0,0h0s0-.1,0-.11A.16.16,0,0,1,31.51,44.82Z"/><path d="M6.46,33.05a.16.16,0,0,1-.2-.1.34.34,0,0,1,.25-.33l.16,0h0C6.75,32.81,6.55,33,6.46,33.05Z"/><path d="M23.83,37.17a.13.13,0,0,1,.19,0h0l-.05,0a.14.14,0,0,1-.18,0h0Z"/><path d="M23.07,20.25a.19.19,0,0,1,.28.06h0l-.07.07a.21.21,0,0,1-.27-.05l0,0Z"/><path d="M64.83,32.7a.08.08,0,0,1,.08-.06s.13.09.12.16H65C64.87,32.81,64.82,32.73,64.83,32.7Z"/><path d="M17.53,38.41a.45.45,0,0,1-.45.27l0-.09L17,38.51a.48.48,0,0,1,.45-.27l.05.09Z"/><path d="M46,45.26a.44.44,0,0,1,.26.46l-.09.08-.06.05a.48.48,0,0,1-.27-.47l.1-.07Z"/><path d="M61.93,11.87a.34.34,0,0,1,.29.3h0l-.13.05c-.17,0-.29-.1-.27-.23l.07-.07Z"/><path d="M83.25,29.32c.08,0,.16,0,.17.05s0,.12,0,.13-.17,0-.19-.1l0,0Z"/><path d="M6.93,9.26s.08,0,.1.07v.06S7,9.45,7,9.45l0,0S6.9,9.28,6.93,9.26Z"/><path d="M17.46,20.8a.19.19,0,0,1,.15.18.39.39,0,0,1-.38.25l-.1-.09-.06-.07A.4.4,0,0,1,17.46,20.8Z"/><path d="M10.81,13.51a.56.56,0,0,1-.59-.21l0-.11,0-.11a.57.57,0,0,1,.58.21l0,.11Z"/><path d="M14.08,21.33s.07.07.06.15l0,.06s-.1,0-.11,0l0-.06C13.94,21.38,14,21.32,14.08,21.33Z"/><path d="M28.56,28.76a.11.11,0,0,1,.05.12.17.17,0,0,1-.2.05l0-.06,0-.05A.16.16,0,0,1,28.56,28.76Z"/><path d="M57.61,36.91a.37.37,0,0,1-.38-.13l0-.07,0-.07a.36.36,0,0,1,.37.13l0,.07Z"/><path d="M84.82,24.63a0,0,0,0,1,0,0h0s0,0,0,0h0Z"/><path d="M55.57,42.4c0-.07,0-.15.16-.18h.11s.12.14.11.16l-.07.09C55.78,42.57,55.61,42.47,55.57,42.4Z"/><path d="M49.62,33.25a.36.36,0,0,1,.34-.39l.1.06s0,.27,0,.34a.35.35,0,0,1-.34.05Z"/><path d="M21.3,32.39c.07,0,.14,0,.15,0s-.08.18-.23.21h-.15C21.05,32.53,21.23,32.4,21.3,32.39Z"/><path d="M58.82,28.91a.45.45,0,0,1,.41-.35l.08.08.06.07a.49.49,0,0,1-.42.36L58.89,29Z"/><path d="M8.84,21.14c.09,0,.17,0,.17,0s-.07.16-.15.15H8.78s0-.12,0-.13Z"/><path d="M43.31,47.85h0s0,0,0,0S43.3,47.85,43.31,47.85Z"/><path d="M51.31,30.94a.14.14,0,0,1,.15,0v0a.13.13,0,0,1-.1,0,.1.1,0,0,1-.05-.1Z"/><path d="M39.37,46.29a.34.34,0,0,1,.15.14s0,.12-.1.1-.18-.12-.15-.21l0,0Z"/><path d="M28.38,25.48a.3.3,0,0,1,0-.25l.05-.05.05,0c.11,0,.18.11.16.18S28.42,25.51,28.38,25.48Z"/><path d="M64.26,20.57c0-.15,0-.28.11-.28s.26.13.23.28l-.06.12s-.21,0-.22,0Z"/><path d="M44,17.75a.33.33,0,0,1,0-.24l0-.05,0,0c.1,0,.16.09.14.16S44,17.77,44,17.75Z"/><path d="M28.91,23.14a.12.12,0,0,1-.13-.06s.06-.15.18-.16l.11,0h0C29.1,23,29,23.13,28.91,23.14Z"/><path d="M3.29,4.54a.19.19,0,0,1,0,.27l-.07.07-.12-.09a1.31,1.31,0,0,1,.17-.24Z"/><path d="M78.06,20.35s0,0,0,0,0,0,0,0Z"/><path d="M50.68,8.72s0,.24-.14.44l-.15.16h0c-.15-.11-.22-.28-.15-.38S50.62,8.68,50.68,8.72Z"/><path d="M48.29,29.41c-.13,0-.18-.11-.1-.22a.13.13,0,0,1,.25,0C48.5,29.33,48.43,29.42,48.29,29.41Z"/><path d="M54.91,8.66s0,.05,0,.08l0,0-.05,0v0A.08.08,0,0,1,54.91,8.66Z"/><path d="M20.55,22.56s-.05.19-.2.32l-.16.09h0a.23.23,0,0,1,0-.33C20.2,22.58,20.51,22.51,20.55,22.56Z"/><path d="M92.09,17.77a.13.13,0,0,1,.1.12.17.17,0,0,1-.19.16L91.94,18l0,0A.19.19,0,0,1,92.09,17.77Z"/><path d="M60.89,41.31c.11.22,0,.34-.16.28s-.61-.38-.54-.52S60.78,41.09,60.89,41.31Z"/><path d="M12.73,15.79s0,.07,0,.1-.08,0-.07-.06S12.69,15.75,12.73,15.79Z"/><path d="M28,22.52c0-.06,0-.09.07-.06s.07.07,0,.1S28,22.58,28,22.52Z"/><path d="M47.06,4c0,.05,0,.09-.06.07S46.92,4,47,4,47,3.92,47.06,4Z"/><path d="M18.05,24.42c0,.26-.13.38-.39.25s-.29-.34-.08-.48A.29.29,0,0,1,18.05,24.42Z"/><path d="M29.34,9.5a.12.12,0,0,1,.07.07.1.1,0,0,1-.11.1l0,0,0,0A.11.11,0,0,1,29.34,9.5Z"/><path d="M26.38,27.29c-.07.05-.14,0-.17-.07s0-.14.11-.1S26.44,27.23,26.38,27.29Z"/><path d="M29,10.35s0,.05-.08,0l0,0h0A.08.08,0,0,1,29,10.35Z"/></g></mask></defs><g class="cls-1"><path class="cls-2" d="M37.56,2.17,36,2.21l-1.53.14L33.26,3.46l-1.53.1-1.5-.16-1.47.36-1.28-.88-1.56,0L24.39,2.7l-1.32-.76-1.23-.8L20.42,1,19,1.18,17.61.72,16.21.44,14.82,1,13.37.67,12,.81l-1.24.8-1.42.22L8,2.38l-1.41.41L5.66,4l-1.22.74L3.21,5.5,2.62,6.9l-1.37.69L.91,9.11l-1,1.49,1.38.4,1.47.22,1.52.24,1,1.17,1.27.75,1.21.84,1.51.59.33,1.68.75,1.23,1,1.13.43,1.39.57,1.32L12.55,23l.32,1.24-1,.8-1.09,1-1.43.7-1.52-.65-1.39-.56-1.26-1-1.58-.29-1.33.92-.58,1,.73,1.41H4.14L5.2,28.77l1.39.48,1.56-.07,1.4.85,1.53-.41,1.32-.89,1.41.17.86.88,0,1.58.78,1.3,1.13,1,1,1.13,1.46.78,1.47.63-.59,1.12-.86,1-1.39.17-1.45.58-1.45-.74-1.5-.26-1.5.59-1.38.48-.25,1.48,1.39.66,1.33.72,1.56-.36,1.44.18,1.44.36,1.38-.31,1.25-.58,1.06-.9,1.28-.61,1.07-.92.86-1.12,1.11-.87,1.43-.65,1.55.11,1.49.54,1.41.36,1.65-.07,1.38.73,1.27.91L36.6,40l.26,1.69.55,1.4,1.21,1.22.09,1.59.49,1.18,1-.39L41.45,46l1.31-.62,1.14-.88.83-1.21,1.51-.58.5-1.44.81-1.19.52-1.35L49,37.52l.17-1.47-.37-1.49.74-1.43L49,31.69l.05-1.48L49,28.72l-1-1.31-.15-1.48-.17-1.47.35-1.5.1-1.46.26-1.44L48,18.52l.54-1.4.5-1.4,1.07-1.08.63-1.27.71-1.44L53,12.2l1.09-1.48L53.5,9.27l-.66-1.34L52.1,6.62,50.78,5.8,50,4.52l-1.23-.85-1.18-.93-1.51-.28L44.6,2.27l-1.35-.49-1.43-.17-1.47-.52L39,2Zm5.82,7.61L42,9.05l-.43-1.23-.31-1.55,1.5-.57,1.18.67,1.06.9-.75,1.17Z"/><path class="cls-2" d="M37.56,2.17,36,2.21l-1.53.14L33.26,3.46l-1.53.1-1.5-.16-1.47.36-1.28-.88-1.56,0L24.39,2.7l-1.32-.76-1.23-.8L20.42,1,19,1.18,17.61.72,16.21.44,14.82,1,13.37.67,12,.81l-1.24.8-1.42.22L8,2.38l-1.41.41L5.66,4l-1.22.74L3.21,5.5,2.62,6.9l-1.37.69L.91,9.11l-1,1.49,1.38.4,1.47.22,1.52.24,1,1.17,1.27.75,1.21.84,1.51.59.33,1.68.75,1.23,1,1.13.43,1.39.57,1.32L12.55,23l.32,1.24-1,.8-1.09,1-1.43.7-1.52-.65-1.39-.56-1.26-1-1.58-.29-1.33.92-.58,1,.73,1.41H4.14L5.2,28.77l1.39.48,1.56-.07,1.4.85,1.53-.41,1.32-.89,1.41.17.86.88,0,1.58.78,1.3,1.13,1,1,1.13,1.46.78,1.47.63-.59,1.12-.86,1-1.39.17-1.45.58-1.45-.74-1.5-.26-1.5.59-1.38.48-.25,1.48,1.39.66,1.33.72,1.56-.36,1.44.18,1.44.36,1.38-.31,1.25-.58,1.06-.9,1.28-.61,1.07-.92.86-1.12,1.11-.87,1.43-.65,1.55.11,1.49.54,1.41.36,1.65-.07,1.38.73,1.27.91L36.6,40l.26,1.69.55,1.4,1.21,1.22.09,1.59.49,1.18,1-.39L41.45,46l1.31-.62,1.14-.88.83-1.21,1.51-.58.5-1.44.81-1.19.52-1.35L49,37.52l.17-1.47-.37-1.49.74-1.43L49,31.69l.05-1.48L49,28.72l-1-1.31-.15-1.48-.17-1.47.35-1.5.1-1.46.26-1.44L48,18.52l.54-1.4.5-1.4,1.07-1.08.63-1.27.71-1.44L53,12.2l1.09-1.48L53.5,9.27l-.66-1.34L52.1,6.62,50.78,5.8,50,4.52l-1.23-.85-1.18-.93-1.51-.28L44.6,2.27l-1.35-.49-1.43-.17-1.47-.52L39,2Zm5.82,7.61L42,9.05l-.43-1.23-.31-1.55,1.5-.57,1.18.67,1.06.9-.75,1.17Z"/></g><path class="cls-3" d="M199.73.6c-.46,0-.9,0-1.35.07V.6H63.94"/><path class="cls-3" d="M57.54,48.79H198.38v-.07c.45,0,.89.07,1.35.07"/><path class="cls-2" d="M77.5,32.45h23.12v2.41H77.5ZM99.88,16.92v2.39H78.34V16.92h9.37v-4.8l3.13.18c0,.23-.2.36-.61.43v4.19ZM83.93,20.46a40.09,40.09,0,0,1,2.21,10.26c-.1,0-.2,0-2.49.61a39.86,39.86,0,0,0-2-10.29ZM97.22,21a.76.76,0,0,1-.71.38,71.78,71.78,0,0,1-3.26,10.49L91,31.25a69.34,69.34,0,0,0,2.85-11Z"/><path class="cls-2" d="M106.59,30.9c1.29-.31,2.67-.64,4-1-.64-.94-1.32-1.88-2-2.7l1.88-1A30.6,30.6,0,0,1,115,32.85l-2,1.17a19.3,19.3,0,0,0-1.09-2.21c-2.95.89-5.94,1.78-7.93,2.31a.57.57,0,0,1-.38.46l-1-2.77c.54-.1,1.12-.23,1.76-.38v-18h9.34V25.66h-7Zm4.8-15.19h-4.8v2.74h4.8Zm-4.8,7.72h4.8V20.61h-4.8Zm18.7-10V29c0,2.65-1.2,3-4.86,3a7.61,7.61,0,0,0-.84-2.57c.61,0,1.22,0,1.71,0,1.34,0,1.5,0,1.5-.45V15.88h-4.63v20h-2.46V13.44Z"/><path class="cls-2" d="M150,21.73l1.78.4a33.18,33.18,0,0,1-6.13,7.37l-2-1.27a27.92,27.92,0,0,0,3.84-4.17h-5.89a.7.7,0,0,1-.54.28v8.87c0,2.59-1.37,2.72-6.22,2.72a9.52,9.52,0,0,0-.92-2.31c1,0,2,.05,2.82.05,1.71,0,1.81,0,1.81-.54V24.06H128.33V21.75H141a48,48,0,0,0-7-3.15l1.65-1.68c1.43.46,3,1.1,4.63,1.78a28.72,28.72,0,0,0,3.94-2.84H130.77V13.62h15.85l.46-.15,2.13,1.37a.84.84,0,0,1-.58.31,42.14,42.14,0,0,1-6,4.7c.84.43,1.57.86,2.16,1.24l-.61.66h5.26Z"/><path class="cls-2" d="M157.19,27.59c-.08.18-.23.28-.54.26a21.77,21.77,0,0,1-1.83,6.1,9.43,9.43,0,0,0-1.8-.89A20.18,20.18,0,0,0,154.67,27Zm6-11.43c-.1.18-.3.26-.63.26a66.36,66.36,0,0,1-5.31,7l4.09-.08c-.43-.74-.92-1.47-1.37-2.13.76-.41,1.24-.64,1.72-.89a21.1,21.1,0,0,1,3.05,5.23c-.79.46-1.32.74-1.85,1a9.47,9.47,0,0,0-.59-1.4l-2.38.15V35.93h-2.24V25.38c-1.4.08-2.67.16-3.68.18a.47.47,0,0,1-.41.36l-.54-2.49,1.86,0c.53-.58,1.09-1.24,1.63-1.95a22.41,22.41,0,0,0-3.31-3.38l1.15-1.6c.2.18.43.35.66.53a32.06,32.06,0,0,0,2.54-4.88l2.49,1a.62.62,0,0,1-.64.23,39.56,39.56,0,0,1-3,4.83,16.91,16.91,0,0,1,1.4,1.5,52.82,52.82,0,0,0,2.95-4.67Zm-.84,16.57a28.25,28.25,0,0,0-1.77-5.16l1.88-.64a28.43,28.43,0,0,1,1.9,5ZM175.2,16.82l1.27.1c0,.18,0,.51,0,.79-.35,11.69-.71,15.65-1.72,16.95-.82,1.06-1.63,1.27-3.89,1.27-.74,0-1.58,0-2.39-.08a4.9,4.9,0,0,0-.76-2.28c1.67.12,3.2.12,3.83.12a1.3,1.3,0,0,0,1.12-.4c.76-.84,1.15-4.65,1.45-14.16h-7.14A20.69,20.69,0,0,1,164.81,23a14.34,14.34,0,0,0-2-1.35c1.65-2.16,3.07-5.89,3.88-9.48l2.92.74a.58.58,0,0,1-.63.3,37.19,37.19,0,0,1-1.14,3.69h6.81Zm-7.78,5.77a25,25,0,0,1,3.51,5.84l-2.11,1.12a24.63,24.63,0,0,0-3.33-6Z"/></svg>