<svg id="mockup" xmlns="http://www.w3.org/2000/svg" xmlns:xlink="http://www.w3.org/1999/xlink" viewBox="0 0 256.00553 133.33331"><defs><style>.cls-1{mask:url(#mask);}.cls-2{fill:#f1c49d;}.cls-3{filter:url(#luminosity-noclip);}</style><filter id="luminosity-noclip" x="-57.95068" y="-94.08659" width="364.83047" height="345.40574" filterUnits="userSpaceOnUse" color-interpolation-filters="sRGB"><feFlood flood-color="#fff" result="bg"/><feBlend in="SourceGraphic" in2="bg"/></filter><mask id="mask" x="-57.95068" y="-94.08659" width="364.83047" height="345.40574" maskUnits="userSpaceOnUse"><g class="cls-3"><path d="M141.72926,40.65436a2.777,2.777,0,0,0-.35569.55922l-.37952.66357c-.137.33119-.192.64422-.12236.69557a4.34847,4.34847,0,0,0,1.01525.31828l.76666.15278c.4117.08662.8397.03931.951-.10512a.99163.99163,0,0,0-.15966-1.023l-1.05025-.81721C142.06719,40.87543,141.74849,40.665,141.72926,40.65436Z"/><path d="M233.56482,93.38915c-.27617-.04035-.33887.041-.13929.18073s.8327.42477.88589.32593S233.841,93.4294,233.56482,93.38915Z"/><path d="M96.6168,1.34856a.70644.70644,0,0,0-.48662-.62288c-.25067-.05919-.87575.08284-.77606.37152L96.06,3.11329c.09708.2892.2512.33953.34253.11183A10.45353,10.45353,0,0,0,96.6168,1.34856Z"/><path d="M64.46606,12.51871c.06928-.29617.07722-.56241.01776-.59166a1.07023,1.07023,0,0,0-.65192.33531l-1.11869,1.14125c-.21965.24834-.17628.476.09644.50589a3.98875,3.98875,0,0,0,1.15892-.0197A8.61054,8.61054,0,0,0,64.46606,12.51871Z"/><path d="M133.12277,30.28765a.46809.46809,0,0,0,.05915-.20318,1.21968,1.21968,0,0,0-.72016-.22873l-1.56958-.08112c-.392-.02968-.46029.11079-.15172.312l1.16467.71544c.32988.17695.67815.23492.774.12886S133.088,30.35,133.12277,30.28765Z"/><path d="M250.75251,31.26821a1.60385,1.60385,0,0,0-.14848.71209.92431.92431,0,0,0,.763.37342l1.91147-.24035c.34367-.07922.49665-.36008.34012-.624l-1.3911-2.50228c-.149-.26692-.38161-.26288-.51692.00886Z"/><path d="M235.66835,77.67672c-.15057-.29764-.34629-.32121-.43479-.05238s-.04974,1.05788.16572,1.1.713-.18787.56572-.4867Z"/><path d="M232.83348,81.956a.228.228,0,0,0,.20188.21067c.11536.019.41326-.1311.37575-.30985s-.16792-.63183-.23239-.60835-.2535.12826-.26917.17953S232.83787,81.85926,232.83348,81.956Z"/><path d="M196.57035,90.72025a.45769.45769,0,0,0,.76039-.112c.15642-.30468.37356-1.1926.09446-1.296s-1.09477-.27139-1.21922-.10941A2.32935,2.32935,0,0,0,196.57035,90.72025Z"/><path d="M9.049,36.89324a4.60292,4.60292,0,0,0-.49268.41445c-.02215.03622.242.2185.63594.32448l2.04313.53411c.39206.1107.51787-.02719.27973-.30633l-.994-1.074C10.245,36.53161,9.29791,36.70167,9.049,36.89324Z"/><path d="M196.00222,69.8153a.73407.73407,0,0,0-.68254.7065c.0301.32843.33166,1.19991.4837,1.14641a8.91686,8.91686,0,0,0,1.16675-.59691l.83354-.54417c.32706-.20611.574-.44792.54858-.5372a1.10924,1.10924,0,0,0-.84409-.28577Z"/><path d="M229.16539,13.24327a.54069.54069,0,0,0-.63521.05092l-.40731.43011a.37713.37713,0,0,0,.10126.541l.77219.5126a.538.538,0,0,0,.63134-.07647l.33229-.37764a.41583.41583,0,0,0-.09175-.563Z"/><path d="M7.75174,41.276c-.29958-.08637-.55966-.05962-.57815.05944a.8579.8579,0,0,0,.28662.64524c.19718.10839.84921.273.94847.1416S8.05132,41.3624,7.75174,41.276Z"/><path d="M18.77262,3.06159a5.53587,5.53587,0,0,0-.87637.05979c-.04274.02365-.12529.12782-.104.17987a1.85067,1.85067,0,0,0,.9025.18907l1.23708.0111c.43939-.00619.761-.0751.71473-.1532a1.86523,1.86523,0,0,0-1.00825-.28413Z"/><path d="M59.95,37.92326c-.01463.16052.01306.26951.06154.24224a.51951.51951,0,0,0,.124-.39467C60.1009,37.63346,59.96454,37.76275,59.95,37.92326Z"/><path d="M48.89413,43.529c-.35412-.0388-.47157.16473-.26112.4523,0,0,.17909.2338.42078.49058s.538.2781.6583.04722S49.24825,43.56791,48.89413,43.529Z"/><path d="M152.74837,5.65333a1.80664,1.80664,0,0,0-.38077.56542c-.04734.147.182.49815.60657.4308l1.52151-.24551c.42539-.0634.51588-.31492.20115-.55888a5.80608,5.80608,0,0,0-.63772-.40387A1.5912,1.5912,0,0,0,152.74837,5.65333Z"/><path d="M46.19886,42.03664a.853.853,0,0,0-.33594-.57884,2.90323,2.90323,0,0,0-1.17041-.46l-1.06248.1188c-.26008.02193-.49372.11759-.51912.21256a.7149.7149,0,0,0,.326.56542l2.02725.98314c.23176.0997.466.12.52058.045A3.862,3.862,0,0,0,46.19886,42.03664Z"/><path d="M166.55009,34.28128a.46332.46332,0,0,0,.08976.60061l.96488.79535c.18715.13979.39415.22263.46008.18409a1.86162,1.86162,0,0,0,.38056-.39768c.08286-.13428.16238-.64447-.00261-.802l-.90783-.82176a.46381.46381,0,0,0-.61337.02692Z"/><path d="M196.43148,110.68566a.421.421,0,0,0,.0791.626c.21212.16946,1.14523.34925,1.41179.12378l.80459-.71767c.24357-.24258.13135-.46383-.24942-.4917l-.73155-.09161A2.56353,2.56353,0,0,0,196.43148,110.68566Z"/><path d="M115.2841,70.9513c.0024.30047.249.40542.54816.233l.6025-.30245a1.04751,1.04751,0,0,0,.54754-.68611c.0022-.205-.24378-.784-.52193-.80868s-1.08453.29995-1.1142.59948Z"/><path d="M53.56127,128.95748c-.17325.261-.23.47691-.126.47966a2.10161,2.10161,0,0,0,.8514-.36559l.82549-.6874c.24263-.22039.32267-.50391.178-.63s-.7955-.169-.9654.09351Z"/><path d="M120.83409,6.2031a.3312.3312,0,0,0,.26468.31991l.37889.08421a.39185.39185,0,0,0,.40647-.17875l.40146-.92559c.04535-.13144.08286-.24327.08317-.24834a1.69883,1.69883,0,0,0-.27648-.11553l-.77094-.22486a.251.251,0,0,0-.32351.18443Z"/><path d="M253.0598,114.30906c-.0489-.0172-.2512.18409-.44963.44739l-.42309.534c-.181.27174-.21431.56095-.074.64283s.63186.02409.71755-.27767l.23584-.7341A.8042.8042,0,0,0,253.0598,114.30906Z"/><path d="M217.79843,42.43535c-.36938-.041-.63134.13041-.582.38082s.48317.87552.8375.7803l1.33364-.3674c.357-.08835.645-.20155.64012-.25161a1.27247,1.27247,0,0,0-.68516-.29505Z"/><path d="M15.27517,67.15939c-.34482.07527-.64879.20576-.67544.29s.16991.39845.48056.5021,1.24147.10925,1.26864-.13686S15.6201,67.084,15.27517,67.15939Z"/><path d="M102.07223,77.97814c-.08851.25832.19885.46537.63855.46013l1.23907-.05592c.4397-.00284.50511-.17539.14513-.38348l-.94-.52456C102.773,77.29513,102.16073,77.71973,102.07223,77.97814Z"/><path d="M24.28563,131.3863c-.18548.31217-.25538.60568-.15549.65222a1.41958,1.41958,0,0,0,.92967-.28688l1.55839-1.33677c.275-.26349.31149-.62392.081-.801s-1.15516-.2929-1.33635.02091Z"/><path d="M223.37329,100.89633a4.40334,4.40334,0,0,0-.15966-.60146c-.09028-.28895-.52873-1.08628-.81326-1.10925s-1.07763.28086-1.07617.62331l-.00846,1.58624c.02058.34193.32675.47415.68024.29376l.71212-.3304A2.00087,2.00087,0,0,0,223.37329,100.89633Z"/><path d="M117.07959,119.45168a4.923,4.923,0,0,0,.80343-.33428,1.0346,1.0346,0,0,0-.31431-.68086l-.88034-1.05677a1.29355,1.29355,0,0,0-1.14639-.35639c-.36906.09144-1.24408.6874-1.10521,1.02778l.58,1.29385a1.00459,1.00459,0,0,0,1.08954.39071Z"/><path d="M10.72705,94.35534a3.86206,3.86206,0,0,0,.50449-.033c.021-.0111.10261-.05334.13469-.06925a.61426.61426,0,0,0-.08966-.4511c-.11327-.21634-.62141-.81015-.88222-.80223s-.92685.23767-.85537.46615A2.50744,2.50744,0,0,0,10.72705,94.35534Z"/><path d="M98.42462,54.38175a1.22993,1.22993,0,0,0,.92078.20723l1.75484-.16172c.39059-.04551.64493-.2043.5651-.353a1.65817,1.65817,0,0,0-1.10584-.4837l-1.70322.17256C98.46642,53.81229,98.3102,54.23148,98.42462,54.38175Z"/><path d="M70.825,66.52085c-.05.11286.04263.27088.20606.35123s.69769.11922.75746-.06323.08244-.67811-.10543-.67243A1.93207,1.93207,0,0,0,70.825,66.52085Z"/><path d="M183.90121,107.75568c-.00429.012.01191.02133.03615.02073s.06239-.0129.04588-.02288S183.90549,107.74364,183.90121,107.75568Z"/><path d="M75.40836,110.62708c-.1256.29987-.04953.54254.169.53935a2.25058,2.25058,0,0,0,1.11284-.36714c.17324-.20628.442-.91406.22654-1.0572s-1.0001-.20456-1.12737.0948Z"/><path d="M80.14039,119.63172c-.1372.11278-.12278.46994.03229.79372l.31149.72241c.14838.32585.39853.57686.5559.55794a.8698.8698,0,0,0,.5257-.74891l-.11839-1.14013c-.0604-.34434-.21609-.62632-.34608-.62658A3.75125,3.75125,0,0,0,80.14039,119.63172Z"/><path d="M225.53126,122.96936a.84848.84848,0,0,0-.795.64774l-.36562,2.51845c-.05434.32585.084.6369.30752.691s.976-.073,1.13332-.3754l1.63237-3.08231c.145-.3065-.06133-.529-.45872-.49463Z"/><path d="M48.99277,79.21865c-.30543-.04765-.55161.11192-.54681.3545s.04964.95329.0535.97712a.74654.74654,0,0,0,.3559.1575,3.56808,3.56808,0,0,0,.953.03673c.132-.0486.43114-.33393.3862-.53875A2.859,2.859,0,0,0,48.99277,79.21865Z"/><path d="M85.166,93.29306c.32382-.17523.5164-.42417.4281-.5532a.72718.72718,0,0,0-.8631-.0234l-1.27951,1.19595c-.25861.23752-.46822.43244-.46561.43321a.3491.3491,0,0,0,.06562-.014c.03082-.00921.38234-.17316.71107-.34211Z"/><path d="M81.58959,64.589c.084-.1305-.08244-.449-.3698-.708s-1.39256-.6443-1.63164-.34727l-2.11377,2.49136c-.23751.2978-.25507.67337-.03887.8345a1.78384,1.78384,0,0,0,1.439.12989l1.87041-1.45334A6.96936,6.96936,0,0,0,81.58959,64.589Z"/><path d="M36.65571,109.256c.19195.09325.48139-.05487.64325-.32928l.633-.98495c.15967-.27527.17754-.56637.03961-.6468a.92347.92347,0,0,0-.89331.19519l-.71786.91432C36.17661,108.66932,36.46386,109.16274,36.65571,109.256Z"/><path d="M33.60026,122.159a5.022,5.022,0,0,0,.71483.05575,4.97255,4.97255,0,0,0-.03072-.63088l-.04943-.64121a1.00171,1.00171,0,0,0-.77094-.72309l-1.80479-.37265a.54865.54865,0,0,0-.71128.45781l-.02319.9107a.84312.84312,0,0,0,.74325.67605Z"/><path d="M181.63791,103.41762c.02832.34254.23062.62589.44963.62959s.65778-.41815.47356-.72611l-.60762-.99131c-.18286-.30856-.337-.28017-.34242.06314Z"/><path d="M18.13742,86.56136c-.065.18865.15548.2283.48975.088l.46562-.19733c.33458-.13987.43186-.30976.21619-.37764A1.87526,1.87526,0,0,0,18.13742,86.56136Z"/><path d="M212.09411,108.07474a.42594.42594,0,0,0-.50094.1495c-.11181.158-.2024.60525.0418.589a2.88278,2.88278,0,0,0,.88181-.15759A1.167,1.167,0,0,0,212.09411,108.07474Z"/><path d="M231.55168,95.965c-.09415.24748-.17137.452-.17158.45453s.29352-.00662.65276-.02581a6.38554,6.38554,0,0,0,1.29685-.16395c.04755-.0671-.05517-.37979-.32737-.534S231.64582,95.71749,231.55168,95.965Z"/><path d="M76.93008,105.36764c-.03051.30606.20261.42236.518.25832l1.09925-.67312c.30491-.177.28391-.43845-.0466-.58081l-.728-.2702a.52491.52491,0,0,0-.7072.39183Z"/><path d="M162.05307,118.96523c-.26708-.1126-.51839.06658-.5583.39811l-.25778,1.79423c-.04619.331.068.56465.2537.51906a1.74,1.74,0,0,0,.86478-.743l.37659-.93833C162.84951,119.67628,162.32026,119.07783,162.05307,118.96523Z"/><path d="M194.27643,128.20118c-.15214.27037-.17889.55175-.05956.62538a1.63,1.63,0,0,0,.5907.09978,1.44154,1.44154,0,0,0,.21285-.59165l.18495-1.23148c.0489-.29514-.05078-.32173-.22152-.0591Z"/><path d="M156.19744,112.05125a2.28,2.28,0,0,0,.96592.14022,4.73537,4.73537,0,0,0,1.47585-.23811,2.36768,2.36768,0,0,0,.08986-.63518.682.682,0,0,0-.732-.2296l-1.68515.44689A.277.277,0,0,0,156.19744,112.05125Z"/><path d="M249.82566,26.93832a.91486.91486,0,0,0-.39289.95707s.48819,1.58159.9909,2.75648c.19509.45625.35925.81754.35925.81754a.50385.50385,0,0,0,.733.26142c.26227-.16619.873-1.02348.77794-1.34511l-1.04482-3.30323a.67131.67131,0,0,0-.81336-.40172A3.01617,3.01617,0,0,0,249.82566,26.93832Z"/><path d="M33.42555,133.95447c-.17315.09592-.30115.20981-.28454.25316a.96494.96494,0,0,0,.328.283,2.33467,2.33467,0,0,0,.87941.19311l.8234-.18572a.4347.4347,0,0,0,.33385-.41049l-.17889-.73333a.30948.30948,0,0,0-.44347-.12792Z"/><path d="M10.9306,116.19912c.11306-.24267-.0907-.57454-.45255-.73737a8.77437,8.77437,0,0,0-1.258-.47682c-.04462.02813.03166.36275.26488.67209l.60282.81771C10.34262,116.77228,10.81764,116.44179,10.9306,116.19912Z"/><path d="M184.94289,108.76867a.34983.34983,0,0,0,.46436-.39527c-.028-.28834-.24743-1.0049-.46875-.94021s-.81336.32172-.84461.46236S184.65951,108.6977,184.94289,108.76867Z"/><path d="M159.42415,130.76729c.354-.03114.38882-.17264.07722-.31457l-1.25421-.53928c-.32539-.11914-.61421-.03208-.64179.19347s.21619.84817.57042.81806Z"/><path d="M137.77977,101.76463a1.35265,1.35265,0,0,0-.25308.02314,1.11121,1.11121,0,0,0-.58536.66606l-.46227,1.94263a2.16888,2.16888,0,0,0-.10941.61282,1.66557,1.66557,0,0,0,.327-.56026l.9096-2.08035A1.97138,1.97138,0,0,0,137.77977,101.76463Z"/><path d="M167.46513,86.26975c-.16708.20018.0208.42839.41745.50718l.80229.11536c.39644.07939.53688-.064.31211-.31863S167.63211,86.06966,167.46513,86.26975Z"/><path d="M119.291,109.35568c-.17753-.04765-.37722.20586-.44367.56336l-.41087,1.864c-.07063.3569-.04817.67484.05.70649s.4606-.17935.574-.52877l.64241-1.76843A.80626.80626,0,0,0,119.291,109.35568Z"/><path d="M136.85418,125.00549c-.13051-.04413-.43719.13763-.68139.40387l-.46979.49333c-.2512.26176-.41839.51492-.37147.56258a.93794.93794,0,0,0,.69591-.26581l.77847-.60636C137.088,125.35353,136.9848,125.04961,136.85418,125.00549Z"/><path d="M109.46849,132.85176a.67892.67892,0,0,0-.605.56207l-.17962,1.00937a4.88175,4.88175,0,0,0-.03365.58211c.00961.00267.317-.10753.66217-.2511l.82423-.30348c.34932-.13643.57356-.43346.49832-.66A2.59745,2.59745,0,0,0,109.46849,132.85176Z"/><path d="M7.92415,82.60188a.75967.75967,0,0,0-.591.4215,3.80287,3.80287,0,0,0-.38307.87063,1.20438,1.20438,0,0,0,.62465-.32164l.57262-.5058C8.37723,82.83913,8.11705,82.61392,7.92415,82.60188Z"/><path d="M121.28121,82.56343a.92821.92821,0,0,0-.9864.14709l-.82946.72818c-.255.25316-.17064.51354.18746.57866A3.60886,3.60886,0,0,0,121.331,83.943C121.53178,83.75181,121.54652,82.71921,121.28121,82.56343Z"/><path d="M130.65885,122.49624c-.09-.00232-.254.24051-.36447.53961l-.28213.74968c-.09279.30314-.06739.57368.05643.60112a2.84132,2.84132,0,0,0,.57711.03045,1.023,1.023,0,0,0,.22121-.62237l.06593-.70529C130.95509,122.77736,130.74882,122.49856,130.65885,122.49624Z"/><path d="M29.15684,91.24386c-.19154.24911-.03072.5015.35736.56094l1.51346.18916c.38756.06151.49488-.09032.23856-.33737l-.85955-.78684C30.11869,90.64747,29.34837,90.99474,29.15684,91.24386Z"/><path d="M100.6062,6.93479a.67033.67033,0,0,0-.97115.113l-.8097,1.07931c-.21181.313-.035.6228.39278.68835l2.44376.349a1.53879,1.53879,0,0,0,.87094-.0037.96177.96177,0,0,0-.3233-.771Z"/><path d="M241.68552,2.43991a.55466.55466,0,0,0-.787.32542l-.64942,2.30125c-.08213.31716.17189.55484.56447.52809l.93541-.04422a1.62122,1.62122,0,0,0,1.09591-.52533l.68735-.96319a.602.602,0,0,0-.25945-.8492Z"/><path d="M103.38089,74.25547a3.219,3.219,0,0,0-.29216.50658.56888.56888,0,0,0,.19289.56293,4.48072,4.48072,0,0,0,.97669.31019c.12131-.00662.49174-.175.55558-.36662l.563-1.51906c.06845-.19045.02832-.38916-.08913-.44163a2.521,2.521,0,0,0-.65976-.15922,1.413,1.413,0,0,0-.66248.33634Z"/><path d="M64.96511,36.19122c.31494.18254.59686.11665.62633-.14632a2.46471,2.46471,0,0,0-.3187-1.38994L64.08393,33.534c-.25977-.23415-.49268-.1668-.51755.14959l-.11912,1.0695a1.07921,1.07921,0,0,0,.5513.89394Z"/><path d="M39.11712,58.72145c-.14838-.04559-.306-.01238-.35046.0739a.47673.47673,0,0,0,.22027.48765l.19268.06409.14712.04783c.16928.05187.30543.00757.30251-.09841A1.35307,1.35307,0,0,0,39.11712,58.72145Z"/><path d="M127.72576,90.42674a1.13991,1.13991,0,0,0-.72455.16017c-.16019.12-.47868.56508-.35287.69076a1.057,1.057,0,0,0,.99445.04206C127.8755,91.11913,127.9641,90.45865,127.72576,90.42674Z"/><path d="M55.59437,73.44369c.17346.0695.45475-.14633.62518-.47966l.992-1.89316a2.24688,2.24688,0,0,0,.26583-.61918,2.31678,2.31678,0,0,0-.56551.50383L55.47828,72.586A.63954.63954,0,0,0,55.59437,73.44369Z"/><path d="M119.3386,40.69023a1.91173,1.91173,0,0,0,.596-.06761c.25308-.05884.92935-.37523.939-.596l.04785-.75983a.59439.59439,0,0,0-.45109-.5274l-.79435-.18864a.38569.38569,0,0,0-.49675.315l-.10042,1.33867A.63.63,0,0,0,119.3386,40.69023Z"/><path d="M79.39515,35.04946c-.2886.23982-.41556.48137-.28223.53677a2.18306,2.18306,0,0,0,1.069-.00757c.32278-.11991,1.10731-.65711,1.00041-.85368s-.7536-.50382-1.03907-.2615Z"/><path d="M159.31914,83.55835a3.88055,3.88055,0,0,0-.13135.66383l-.1722.94787c-.04827.32439.06426.62589.24995.66994a1.31887,1.31887,0,0,0,1.022-.41557l.53855-1.01643a.52956.52956,0,0,0-.27282-.7379A4.35349,4.35349,0,0,0,159.31914,83.55835Z"/><path d="M29.13677,47.91793a.50372.50372,0,0,0,.73187-.30237l.16656-.61643a.71038.71038,0,0,0-.32529-.74417,9.49473,9.49473,0,0,0-.98922-.362,1.07622,1.07622,0,0,0-.473.42529c-.142.23518-.19968,1.06658.11881,1.22951Z"/><path d="M46.42446,121.33435c-.0187.04937.17241.232.42466.40585a3.90926,3.90926,0,0,0,1.141.507,4.82139,4.82139,0,0,0,.43029-.442c.10941-.13385.02446-.53282-.41462-.553l-.71744-.0437A1.66262,1.66262,0,0,0,46.42446,121.33435Z"/><path d="M245.9627,43.33419c-.08955.0092-.09436.2701-.01077.57978l.15026.54435c.08245.30984.15068.31415.15173.00946A2.69727,2.69727,0,0,0,245.9627,43.33419Z"/><path d="M250.03622,40.95681a2.905,2.905,0,0,0-.77878-.04086,2.60138,2.60138,0,0,0,.66969.44861l2.97593,1.47173a.8354.8354,0,0,0,1.02559-.23165c.18129-.29437.20491-1.21927-.22487-1.26331Z"/><path d="M79.18178,10.36206c-.3932-.13574-.53834-.063-.32257.16164s.97878.75965,1.11859.66288S79.57509,10.4978,79.18178,10.36206Z"/><path d="M125.75828,100.32291a.77239.77239,0,0,0,.24169.94976l.59581.43131a1.03416,1.03416,0,0,0,1.10657-.031c.29477-.22245.77805-1.15613.52727-1.41368l-.99738-.91269a.5944.5944,0,0,0-.87752.1108Z"/><path d="M223.02209,107.07886c-.34461-.19561-.67773-.28275-.74032-.19354a3.13061,3.13061,0,0,0-.25047.52008,1.2205,1.2205,0,0,0,.49613.74934l1.57083,1.08292c.33092.211.71817.28619.86059.167a2.65728,2.65728,0,0,0,.4536-.62288,1.48246,1.48246,0,0,0-.58254-.59346Z"/><path d="M8.05122,2.48275a5.339,5.339,0,0,0,.67585.07811l1.00605.08929c.36823.0123.68223-.1052.6978-.26116a3.47849,3.47849,0,0,0-.0256-.59992c-.01118-.00249-.32717.07037-.67659.1668l-1.06038.30546A2.89391,2.89391,0,0,0,8.05122,2.48275Z"/><path d="M187.76282,72.88085c-.23323.02873-.30606.32172-.162.6511l.65245,1.64077c.151.32731.41933.59.59623.58383a5.08408,5.08408,0,0,0,.70459-.09282,2.06561,2.06561,0,0,0,.1557-.70641l.01473-1.05393a.99333.99333,0,0,0-.40971-.79183A6.96447,6.96447,0,0,0,187.76282,72.88085Z"/><path d="M120.53953,46.95053c.21076.07751.39289.1403.40469.13935a3.924,3.924,0,0,0,.40219-.38305c.1977-.20912.5768-.8726.444-.93015a3.12872,3.12872,0,0,0-.9956-.13445,2.522,2.522,0,0,0-1.01493.33746c-.07.13032-.10355.56706.08955.66349Z"/><path d="M57.88881,12.04112c.29811-.20912.49111-.47063.42894-.58108a1.10524,1.10524,0,0,0-.92215-.23217l-1.34491.36069a.60475.60475,0,0,0-.46844.7218c.1046.2745.72455.84379,1.0142.62684Z"/><path d="M61.63746,16.06288c-.01682.11148.25089.37557.59477.58667a8.9368,8.9368,0,0,0,2.02986.82572c.38359.0332,1.32987-.02521,1.35892-.19957a1.334,1.334,0,0,0-.58913-.995l-2.11439-1.05678c-.38485-.1772-.78359-.21411-.8862-.082A4.73369,4.73369,0,0,0,61.63746,16.06288Z"/><path d="M216.70722,40.32189c.07983-.11794.14713-.22039.14942-.22779a4.80636,4.80636,0,0,0-.62026-.12688c-.34576-.055-.90438-.02572-.69414.13643S216.62739,40.43974,216.70722,40.32189Z"/><path d="M242.826,100.70235a.60271.60271,0,0,0,.54472-.62443,2.41429,2.41429,0,0,0-.629-1.05566,1.49481,1.49481,0,0,0-.91483.3299l-1.09759,1.23707c-.223.22994-.11462.39217.24075.36043Z"/><path d="M159.35676.74142c-.36614-.04164-.7188.09307-.78369.29935s.16457.84972.5305.908l.99571.158c.36959.03966.64973-.108.62267-.32808A2.87334,2.87334,0,0,0,159.35676.74142Z"/><path d="M245.45884,66.16214a9.44147,9.44147,0,0,1-.929.17l-4.12462.57626a2.73486,2.73486,0,0,0-.69487.1372.57979.57979,0,0,0,.23385.21084,2.77111,2.77111,0,0,0,1.15119.094l4.63214-.943c.3792-.07054.613-.1674.51953-.21531A2.37428,2.37428,0,0,0,245.45884,66.16214Z"/><path d="M249.21627,56.0036a.99968.99968,0,0,0,1.08034-.10339c.21379-.23329.28359-.97833-.15256-.996l-2.3773-.09505c-.43562-.02461-.5001.12473-.14315.33187Z"/><path d="M28.06573,4.57015c.00888-.1077-.15371-.21187-.36144-.2314a2.45711,2.45711,0,0,0-1.26216.40095L22.88972,8.193a.50009.50009,0,0,0-.00627.77969c.24649.17343,1.31294.25549,1.54993-.00825L27.5997,5.46718A2.70356,2.70356,0,0,0,28.06573,4.57015Z"/><path d="M254.60388,83.953c.18714-.20344.14942-.43114-.08391-.506a5.60764,5.60764,0,0,0-1.38483-.214c-.26646.03863-.63249.36215-.37137.57608l.58537.452C253.6414,84.44575,254.41673,84.15646,254.60388,83.953Z"/><path d="M81.69272,14.39a.62381.62381,0,0,0-.87459.08722l-.65527.69084c-.22863.2671-.20867.56043.04441.65187a2.38676,2.38676,0,0,0,1.34773.05712C81.79314,15.7083,81.94246,14.60757,81.69272,14.39Z"/><path d="M66.84712,48.4332c.02633-.15364-.20376-.40542-.51128-.55949l-1.87824-.88438a.84251.84251,0,0,0-.92768.1821c-.18893.2339-.25538,1.02306.09372,1.09549l2.47417.56808A.73692.73692,0,0,0,66.84712,48.4332Z"/><path d="M111.79365,22.5452a.1372.1372,0,0,0-.052-.00766c-.00523.0025.01275.01463.04138.01884S111.81705,22.55191,111.79365,22.5452Z"/><path d="M181.81043,69.56266c-.28035.17548-.22476.44619.12351.60146l1.54282.64688c.35036.15209.50491.033.34326-.26469l-.5862-.96249C183.0287,69.30485,182.09088,69.38709,181.81043,69.56266Z"/><path d="M149.30629,118.83878a2.66365,2.66365,0,0,0-.80866-.11639c-.33626-.00766-1.29988.24163-1.362.59011l-.307,1.448c-.06186.34847.23667.613.66331.5877l1.04691-.036a.90223.90223,0,0,0,.87345-.66237l.17523-.95982A1.09176,1.09176,0,0,0,149.30629,118.83878Z"/><path d="M204.02189,65.46356a1.18326,1.18326,0,0,0,.664-.08964,2.569,2.569,0,0,0,.62894-.62984,1.30863,1.30863,0,0,0-.1233-1.05755l-.67-.59914c-.27294-.20809-.61818-.29574-.76718-.19493a3.184,3.184,0,0,0-.73563.92792l-.3095.72267c-.12592.28808-.12424.56653.00376.61866S203.79472,65.42941,204.02189,65.46356Z"/><path d="M201.36392,8.65729c.09258.00026.33051-.00327.52873-.00783s.83113-.02348.94064-.03019a1.42632,1.42632,0,0,0,.70751-.58065c.17242-.30864.3977-1.21324.093-1.26606a2.50821,2.50821,0,0,0-1.57992.38469l-.65652.93806C201.20394,8.39931,201.27134,8.65694,201.36392,8.65729Z"/><path d="M64.579,7.35742c-.42153-.06882-.79634-.0542-.833.0326a1.0488,1.0488,0,0,0,.49509.7206l2.0006,1.19673a.61408.61408,0,0,0,.8931-.23234c.13061-.32034.06081-1.32525-.36249-1.38667Z"/><path d="M192.48,79.28859c-.03355.20017.2886.34039.716.31166l1.16372-.08327c.42759-.02555.46071-.17058.07367-.32233l-.92528-.32851A1.00606,1.00606,0,0,0,192.48,79.28859Z"/><path d="M151.329,61.10821a1.21313,1.21313,0,0,0,.46018,1.036,5.00848,5.00848,0,0,0,1.922.69858l3.34844-.24318a1.61884,1.61884,0,0,0,1.13949-.59811c.19906-.30494.48683-1.4006.25162-1.69566l-1.02016-1.18116a1.83181,1.83181,0,0,0-1.25035-.48137l-3.424.10933a1.35262,1.35262,0,0,0-.93875.29617,4.84317,4.84317,0,0,0-.37732,1.204Z"/><path d="M252.67067,60.51079c-.36771.05419-.68526.28309-.70564.50864s.14974.87948.317.92138a3.30585,3.30585,0,0,0,1.236-.0886l1.762-.609c.347-.1138.58087-.33385.51964-.48912a1.13771,1.13771,0,0,0-.9026-.49711Z"/><path d="M184.58344,55.89823a.63656.63656,0,0,0,.38338.84714l2.70572,1.16843a1.50182,1.50182,0,0,0,.72131.21049,1.016,1.016,0,0,0-.3233-.65823l-2.22736-2.24052a.55833.55833,0,0,0-.85892.06718C184.78605,55.57969,184.58344,55.89823,184.58344,55.89823Z"/><path d="M213.89137,123.20265c-.382.106-.37993.27406.0047.37359l2.03373.444c.39456.068.69278-.11716.66279-.41162s-.55025-1.06314-.93227-.95715Z"/><path d="M54.277,45.86993c-.25141-.01437-.4932.05084-.5373.14477a.55242.55242,0,0,0,.16907.54022c.17387.09952.77136.17652.8699.01686S54.52855,45.88429,54.277,45.86993Z"/><path d="M209.5793,64.45074c.04263-.316-.01181-.594-.121-.6178a.96628.96628,0,0,0-.68.47638l-.75611,1.561c-.12716.30021-.03019.54193.21557.53711a3.09185,3.09185,0,0,0,1.02632-.19922,4.28177,4.28177,0,0,0,.20867-.88964Z"/><path d="M247.85223,9.90916c.35381.03819.48212-.131.28505-.376l-.96676-1.01634a.8265.8265,0,0,0-.94858-.05067l-.9305.714a2.7542,2.7542,0,0,0-.4095.42443,4.01254,4.01254,0,0,0,.6864.11054Z"/><path d="M117.80173,65.97074a1.32935,1.32935,0,0,0-.1698-.61815,2.64194,2.64194,0,0,0-.84053.18684l-2.27156.989c-.35328.142-.33594.33875.03867.43725l2.58126.58632c.38526.06452.69613-.14761.69059-.47131Z"/><path d="M186.77077,85.75345a.96477.96477,0,0,0,1.01744.27742l1.86-.47656c.41044-.13084.43615-.38865.05705-.57273l-1.27355-.67768a1.22494,1.22494,0,0,0-1.10312-.056A2.34669,2.34669,0,0,0,186.77077,85.75345Z"/><path d="M248.11492,41.79844c.36374-.05393.39926-.22227.07889-.374l-.90135-.39191c-.33876-.12172-.65955-.03845-.713.1852s.13354.82779.49739.77471Z"/><path d="M229.35734,39.21849c-.35161.00989-.39383.12748-.09362.26133s1.18347.34435,1.21127.21282S229.709,39.2086,229.35734,39.21849Z"/><path d="M183.28774,61.74537a.56974.56974,0,0,0,.41055-.71467l-.31933-.93437a.59225.59225,0,0,0-.78244-.29453l-1.18358.40215a.44959.44959,0,0,0-.29624.68008l.51546.84895a.74423.74423,0,0,0,.87732.27079Z"/><path d="M154.53508,16.198c.03218.199.38735.32284.78912.2751s.93343-.30065.582-.45015-1.35934-.48465-1.36373-.47949A3.51161,3.51161,0,0,0,154.53508,16.198Z"/></g></mask></defs><g class="cls-1"><path class="cls-2" d="M24.10174,133.61364l.14205-2.09382.76067-1.7608-.46694-.72713-.32744-1.42373.14749-1.49178-.40963-1.40974-.73486-1.27455-.08642-1.62775-1.43066-.82709-.69371-1.31028-.7981-1.28707-1.39352-.65227-1.22465-.79338-.9164-1.30966-1.37048-.60612-1.468-.34161-1.46141-.254-1.31836-.695L9.58608,113.559l-1.37725-.75077-1.53535.60259-1.44917-.53261-.8617.1141-1.48325-.26246-1.47415.09913-1.62559.36522.38154-1.43488-.24809-1.428.37358-1.42777L-.17812,107.475l-.07556-1.4288-.25941-1.42957.54323-1.4299-.11774-1.43134-.11225-1.43117.24559-1.43008L-.12575,97.4644l.28871-1.429-.54521-1.42934.7144-1.42863-.64369-1.42978.01077-1.43.64635-1.4304L.07977,87.4552l.137-1.43108-.151-1.43048L.4022,83.1639l-.46193-1.43011.00632-1.43007-.43568-1.43093.40193-1.43141-.01215-1.43182.5129-1.43063-.666-1.43092.1286-1.43045L-.4651,70.28629l.87533-1.42477-.129-1.42581L.28242,66.009l-.34984-1.42858.13535-1.43055-.16714-1.43337.00033-1.43087-.25141-1.42942.63094-1.42812.14423-1.42859-.46675-1.43011-.43357-1.4323.91464-1.433L.29808,50.27261l.12125-1.43048-.717-1.43169.24232-1.4334.18559-1.43317-.0292-1.432-.38829-1.43324.75747-1.43417-.6971-1.43348.552-1.43439L-.056,35.9424l.49529-1.435L.02769,33.076l.31019-1.43107.01908-1.436-.66729-1.434-.11361-1.43563.635-1.43677-.42768-1.43539.0083-1.43847L.2321,21.58807l.21229-1.42774,1.02209-.30847,1.44351.3889,1.45027.16581.864-.09726,1.50035.45017L8.188,20.3691l1.37862-.69629,1.455-.17965,1.43793-.30924,1.47808-.26722,1.238-.85415,1.48689-.36886,1.18648-.91786,1.2191-.859,1.14327-.96273,1.0466-1.07025.93857-1.16911.5273-1.42967.375-1.44161,1.14825-1.11854-.244-1.59.34135-1.39628.83386-1.4372-.69462-.69923L24.217,1.81542,24.1019-.27641l1.80721.29952L27.34494.096l1.43593.34269,1.436.0415L31.65313.2643,33.08954.069l1.43664.03713L35.96308-.461l1.43722.37567,1.43755-.24186,1.43794.17807,1.43774.363,1.43741-.26921,1.43713.54,1.43687-.104,1.43667-.39632,1.43651-.44982,1.43639.94168,1.43167-.4476,1.43211.013,1.43259.41608L56.064.09258,57.49768.4244,58.932.26848l1.435-.76789,1.43569.8756L63.23909.062l1.43726-.125,1.43812.07757,1.43791.33988,1.43718-.74674,1.43652.4831,1.43591.1L73.29734.4095,74.73219.29221l1.4344-.20986,1.434.07275,1.4337-.30528L80.46774.2301,81.901.23278l1.4331.24094L84.76709.401,86.2001.0112l1.43307.07263,1.43319.08172,1.43339-.33031L91.93342.4069l1.434-.19672L94.80182-.186l1.43491.64537L97.67219-.4644,99.1083.06113l1.43683-.18956,1.43764-.19441L103.4213.331l1.43941-.53066,1.43858-.04756,1.43782.59587,1.43716-.69247,1.43659-.04392,1.43612.194,1.43575.3548,1.43548-.25179,1.4353.53514,1.43524-.68118L119.224-.266l1.43544.72764,1.4357-.80823,1.4361.09952,1.43659-.07832,1.43723.10022,1.438-.24993,1.43886.9562,1.43987-.178,1.43946-.76471,1.43864.59575,1.438-.47067,1.43744.60335,1.43706-.59344,1.43684-.15529L140.786.31l1.43691-.548,1.4372-.21745,1.43767.08215,1.43832.32432L147.97527-.419l1.44021.644,1.44-.20387,1.43916.38065,1.43852-.69592,1.4381.45273L156.60921-.209l1.438.36664,1.4383-.49379,1.43888.397,1.43972-.40646L163.805.0126l1.44009.35364,1.43931.0386,1.43886-.69006,1.43876.28333,1.439-.34941,1.4396.6862L173.88114-.161l1.44076.3935,1.43986-.00178,1.43944.1206,1.43946-.22307,1.44-.35112,1.4342.53724,1.43462-.70373,1.43565.83843,1.43727-.35741,1.43956-.5516,1.44221.64479,1.4398.309,1.43818-.311,1.43742-.66412,1.43759.60435,1.43875.216,1.441-.29863,1.4425-.38165,1.4403.00122,1.43949.311,1.44017.48319,1.44249-.94715L206.984.41482l1.441-.66873,1.44195.0588,1.44359.51664,1.442-.39824,1.44367.3331,1.44287-.332,1.44423.17148,1.44016.25253,1.44018-.78106,1.445.05,1.44257.13644,1.44451-.04154,1.44613.58607,1.44408-.35945,1.44745-.20735,1.44979.7613L231.922-.29345l-.30838,2.09905.05652,1.80449-.28362.69133L231.51,5.75676l-.01449,1.49431.1427,1.51872,1.05272,1.17835.46783,1.415,1.03824,1.07479.69914,1.32226,1.3993.67723.74618,1.35656,1.15146.93274,1.56514.25949.996,1.23088,1.523.18654,1.39574.39359,1.20075,1.11818,1.48859.15772,1.51469-.19181,1.45378.058,1.45021-.05591.864.51982,1.47083-.07943,1.47754-.00544,1.30827-.16518-.06742,1.42076-.11866,1.42781.66961,1.42842L255.5683,25.858l.052,1.42879.25031,1.42956.42839,1.4305.01568,1.43128.1424,1.43118-.90264,1.42968.97729,1.43021-.9277,1.42861.23191,1.42915.47273,1.42936.11554,1.42946-.16382,1.42985.04654,1.43083.06979,1.432-.22455,1.431.00686,1.4304-.47288,1.42965.83819,1.43035-.93308,1.42949.59334,1.431.245,1.43181-.47411,1.43152-.34214,1.43073.62468,1.4309.09091,1.43059.02683,1.43107-.13459,1.42523-.6476,1.42533.61251,1.42712-.5927,1.428.83312,1.43115-.17917,1.43316-.62515,1.43048.48793,1.42957.16935,1.42862-.32169,1.42847-.27961,1.42966-.14558,1.43193.42131,1.43382.10715,1.43144.30085,1.43075-.82605,1.43073.75994,1.434-.25538,1.43312-.24113,1.43187.69066,1.43344-.7489,1.43417.4716,1.43334-.06738,1.43469-.22447,1.43378.08752,1.43533-.05661,1.43119-.04148,1.43123.407,1.43625.15659,1.43372-.26252,1.43539-.35192,1.437.45512,1.43541-.681,1.43806-.00593,1.44079.51243,1.445-1.58078-.27529-1.44758-.27765-1.4697.37115-.86106-.20672-1.47835.12825-1.48674.02339-1.36421.77569-1.41509.31593-1.64506-.36175-1.09386,1.2975-1.27463.68334-1.29617.63229-1.23558.74646-1.45469.49608-.88458,1.21395-1.53075.586-.59853,1.4357-.8261,1.22356-.45486,1.41549-1.11267,1.15075-.32041,1.47862.58135,1.57711-.41133,1.41182.04747.69617-.5544,1.22953.09418,1.1981.62924,1.3634-1.59806-.42027-1.43583-.14288-1.43593.31611-1.436-.29808-1.43621.44118-1.4364.12924-1.43664-.20722-1.43691.16944-1.43722-.65944-1.43755.29774-1.43794-.0792-1.43774-.07-1.43741-.12287-1.43712.84634-1.43688-.62617-1.43667.20069-1.43651-.26851-1.43638-.16767-1.43168.09766-1.4321.333-1.43259-.33894-1.43312.25712-1.43368-.04343-1.43431.477-1.435.07959-1.43568-.50871-1.43645.34007-1.43727-.01352-1.43812-.46477-1.43791.6299-1.43718.10566-1.43652-.55742-1.43591.462-1.43535-.34806-1.43484.2328-1.43441.16855-1.434-.42058-1.4337.25987-1.43343-.43733-1.43323.11191-1.43309.31654-1.433-.72668-1.433-.00125-1.43307-.03055-1.43319.63277-1.43339-.54668-1.43366.54357-1.434-.57161-1.43441.61388-1.4349-.36967-1.43547.546-1.43611-.59926-1.43683.21528-1.43764.01239-1.43852-.46486-1.43942.12406-1.43858.52925-1.43782-.452-1.43716.01447-1.43659.00482-1.43612-.04974-1.43575.21891-1.43547.59227-1.43531-.92117-1.43524.6143-1.43529.13645-1.43544-.1771-1.4357-.03592-1.4361-.51414-1.43659.31925-1.43723.13425-1.438.18019-1.43886-.53094-1.43987.02433-1.43946.21567-1.43864-.28937-1.438-.08311-1.43743.50847-1.43707.24232-1.43685-.318-1.43679-.08619-1.43691.094-1.4372.30988-1.43767.03525-1.43832-.293-1.43916.41469-1.4402-.544-1.44.06439-1.43916-.33915-1.43852.71566-1.4381-.35817L99.397,133.0478l-1.438.11017-1.4383.08359-1.43888.07028-1.43972.39287-1.44086-.51354-1.44009.48146-1.43932-.78567-1.43886.533-1.43875.093-1.439-.53737-1.4396-.06763-1.44058.17786-1.44075-.0972-1.43987.44026-1.43943.04331-1.43946.06668-1.44-.244-1.4342.38561-1.43462-.2614-1.43565-.26612-1.43727.32969-1.43956-.16818-1.44221.20465-1.4398-.38166-1.43818.25639-1.43742.05679-1.43759-.16867-1.43875.03909-1.441-.23347-1.4425.32112-1.4403.38139-1.43949-.08609-1.44017-.77118-1.44249.03553-1.44223.49574-1.441.09458L46.1393,133.523l-1.44359-.26713-1.442-.08991-1.44367.1945-1.44287-.29164-1.44423.72042L37.4828,133.546l-1.44019-.21631-1.445.09717-1.44257.28583-1.44451-.67174-1.44613-.17435-1.44408.5515-1.44745.3339-1.44174-.32433ZM34.54071,7.34677,33.495,7.57459l-1.23639.79407.09805,1.53942-.25487,1.4894-.94935,1.207-.66932,1.30986-.595,1.369-1.40186.79958-.34535,1.60347-1.20423.90128-1.26808.78979-.82613,1.28387-1.11162.98074-1.55538.32424-1.17924.85676-1.14709.95431-1.215.88151-1.47462.30332-1.32932.65435-1.55631-.06306-1.23075,1.09391-1.54668-.16478-1.43154.33919-1.48452.47609L8.05369,28.8356l.468,1.42475-.38081,1.42481.249,1.42513L8.01716,34.536l.46565,1.42654.07645,1.42766.26029,1.4269-.54234,1.42613.11862,1.42569L8.509,43.09447l-.24469,1.4258.17237,1.42641-.28782,1.42739.54609,1.42755L7.98139,50.2283,8.626,51.65455l-.00989,1.42627-.64546,1.42679.2667,1.42107-.13611,1.42148.15192,1.42249-.33558,1.42411.46281,1.42637-.00543,1.429.43656,1.42661-.401,1.425.013,1.42426-.512,1.42442L8.57836,70.178l-.12772,1.42776L8.79282,73.035l-.87445,1.42711.12986,1.4263-.00028,1.427.35072,1.42928-.13446,1.429.168,1.42775.00055,1.42874.2523,1.43037L8.055,85.88936,7.91169,87.3198l.46763,1.42965.43446,1.431L7.9,91.60742l.142,1.427-.12036,1.43172.71785,1.42936-.24143,1.43127-.1847,1.43289.03009,1.43085.38918,1.43419-.75659,1.43651.698,1.43651.01783,1.52771,1.48476.4054,1.35914.73138,1.51429-.09464,1.33446.67287,1.38166.454,1.60942-.12044,1.415.47378,1.054,1.211,1.49633.32677,1.25953.7802.96276,1.19465,1.0217,1.05332,1.62957.358.82967,1.27154.90752,1.15793,1.01246,1.06783.43518,1.474.97005,1.10117,1.09842,1.0852.45731,1.41665.38074,1.42656.12221,1.47643.96578,1.061,1.24687.81647,1.43672-.13776,1.43651.04361,1.43634.03461,1.43623.01554,1.43151.00143,1.432-.34632,1.43243-.3398,1.43295.65005,1.43352-.66744,1.43415.10684,1.43481.75466,1.43552-.67241,1.43629-.17069,1.4371-.11039,1.438.48586,1.43774.07294,1.437.34269,1.43636.04151,1.43574-.21592,1.43519-.19529,1.43469.03714,1.43424-.56716,1.43386.37569,1.43354-.24186,1.43327.17807,1.43307.363,1.43293-.2692,1.43286.54,1.43285-.104,1.43291-.39632,1.433-.44981,1.43324.94168,1.43349-.44759,1.43384.013,1.43425.41608,1.43474-.36509,1.43531.33183,1.43594-.15592,1.43667-.76788,1.43748.87561,1.43836-.31422,1.43926-.125,1.43841.07758,1.43766.33988,1.437-.74673,1.43643.48311,1.436.1,1.43559.2187,1.43531-.11729,1.43515-.20984,1.43508.07276,1.43512-.30528,1.43528.38029,1.43555.00269,1.43593.24094,1.43643-.07276,1.43706-.38975,1.43782.07264,1.43869.08172,1.43971-.3303,1.4393.57168,1.43848-.19673,1.4378-.39622,1.43728.64538,1.4369-.92371,1.43669.52553,1.43663-.18955,1.43675-.1944,1.437.6538,1.43751-.53066,1.43816-.04755,1.439.59588,1.44-.69247,1.43987-.04392,1.439.194,1.43836.35481,1.43794-.25178,1.43776.53514,1.43782-.68117,1.43814-.02917,1.43871.72765,1.43957-.80822,1.4407.09952,1.43992-.07831,1.43916.10022,1.4387-.24992,1.43859.95621,1.43883-.178,1.43943-.76471,1.44042.59575,1.44059-.47065,1.43971.60335,1.43927-.59343,1.4393-.15528,1.43982.79183,1.434-.548,1.43446-.21744,1.43548.08215,1.43712.32432,1.4394-.36991,1.442.644,1.43963-.20386,1.438.38065,1.43726-.69591,1.43743.45274,1.43858-.36765,1.4408.36665,1.44234-.49379,1.44014.397,1.43933-.40644,1.44.35819,1.44234.35365,1.44206.03861,1.44079-.69006,1.44179.28334,1.44342-.34941,1.44183.68621,1.44351-.49587,1.44271.39351,1.44407-.00177,1.44.12061,1.44-.22306,1.44479-.35112,1.44241.53725,1.44434-.70373,1.446.83844,1.44392-.3574,1.44729-.55159,1.44963.64479,1.44962.309,1.36392-.78951.11785-1.37149.96434-1.27925.68137-1.301.30465-1.45475.34549-1.48925.78052-1.27289,1.10991-1.03011,1.29127-.82833.29578-1.72352,1.68854-.37167.6727-1.46277,1.2102-.85728,1.50126-.40493,1.04041-1.1042,1.44669-.40849,1.17635-.93471,1.42019-.41425,1.45738-.26647,1.17061-1.1872,1.4523-.33254,1.48132-.18069,1.45607-.28863,1.49138-.19091.20036-1.50322-.20734-1.42475.76132-1.42481L247.159,100.223l.30949-1.42569-.15342-1.42654.26164-1.42766-.04319-1.4269.26106-1.42613.27564-1.42568-.53853-1.42558.24555-1.4258-.27582-1.42641.282-1.42738-.54216-1.42756.52424-1.42668.05628-1.42624-.62136-1.42628.61343-1.42679-.45388-1.42106-.11349-1.42149.73424-1.42249-.17179-1.42411-.42533-1.42637-.07728-1.429-.10056-1.42661.53844-1.425-.02637-1.42426.04773-1.42442.04236-1.42557.06638-1.42776.11777-1.42928-.67049-1.42711.816-1.4263-.05291-1.427-.2512-1.42928-.42928-1.429-.01657-1.42776-.14328-1.42874.90176-1.43036-.97818-1.42878.92682-1.43045-.2328-1.42965-.47361-1.431-.11643-1.427.16294-1.427-.04743-1.43172-.07068-1.42936.22367-1.43127-.00775-1.43289.472-1.43085-.83908-1.43419.93219-1.43651-.59423-1.43651L246.8652,27.782l-.91772-1.00862-1.38227-.58-1.565.30155-1.45643-.29037L240.119,25.785l-1.34547-.63667L237.67715,23.983l-1.58368-.08191-1.00212-1.21921-1.68871-.05673-1.12462-.989-.78055-1.3883-1.42565-.58437-1.18144-.90712-.76019-1.304-.69916-1.30762-.71508-1.261-1.117-1.01712-.77354-1.25219-.86573-1.2411.29792-1.653-1.10957-1.21708-.44634-1.16779-1.23719-.6743-1.43671.69155-1.43651-.748-1.43635.47249-1.43622-.0665L214.28723,6.787l-1.43194.08841-1.43243-.05573-1.43295-.04058-1.43353.40788-1.43414.15747-1.43481-.26163-1.43553-.351-1.43628.456-1.43711-.68011-1.438-.005-1.43775.51338-1.437-.35292L195.62942,6.438l-1.43574.4239-1.43519-.18815-1.43468.08274-1.43425-.11478L188.4557,7.196l-1.43353-.00122-1.43327-.81173-1.43307.83959-1.43294.10138L181.29,7.2676l-1.43285-.03332-1.4329-.47563-1.433.32523L175.558,6.38315l-1.4335.43107-1.43384-.017-1.43425.25682-1.43474-.605-1.4353.09311-1.43595.83447-1.43667-.33354-1.43747.02625-1.43837-.62-1.43926.02939-1.43841.64913-1.43766-.48124-1.437-.14289-1.43643.31611-1.436-.29808-1.43558.44118-1.43532.12925L149.70716,6.885l-1.43508.16944L146.837,6.395l-1.43527.29774-1.43555-.0792-1.43593-.06995-1.43644-.12286-1.43706.84634-1.43781-.62618-1.4387.20069-1.43971-.26851-1.4393-.16766-1.43848.09766-1.4378.333-1.43727-.33893-1.43691.25711L126.714,6.71089l-1.43664.477-1.43675.07959-1.437-.50871-1.4375.34007L119.528,7.08529l-1.439-.46477-1.44.6299-1.43986.10566-1.439-.55742-1.43836.462-1.43794-.34807-1.43776.2328-1.43783.16855L106.58,6.89336l-1.43872.25986-1.43957-.43733-1.44069.11191-1.43993.31654L99.382,6.41766l-1.43871-.00125-1.43859-.03055-1.43882.63277L93.62642,6.472,92.186,7.01552l-1.4406-.57161-1.4397.61388-1.43927-.36967-1.4393.546-1.43982-.59927-1.434.21528-1.43447.01239-1.43548-.46486-1.43711.12406-1.4394.52925-1.442-.45194-1.43963.01446-1.438.00482-1.43727-.04974-1.43742.21891-1.43859.59227L67.733,6.45859,66.2907,7.0729l-1.44015.13644-1.43932-.17709-1.44-.03592-1.44233-.51415-1.44206.31925L57.646,6.93569l-1.44179.18018-1.44343-.53093L53.319,6.60926l-1.44351.21567-1.4427-.28937-1.44407-.0831-1.44.50846-1.44.24232-1.44479-.318L43.22149,6.799l-1.44435.094-1.446.30989-1.44391.03524L37.44,6.94518l-1.37383.40864Zm2.50771,115.23936-.36251-.94953.09661-1.59733-1.05389-1.1243-.89625-1.15335-.41673-1.43691L33.581,115.133l-1.04929-1.02035-.43423-1.553-1.542-.54753-.85589-1.20075-.89928-1.19512-1.41424-.56361-1.23416-.7635-.88636-1.31155-1.32307-.65142-1.42418-.43643-1.42084-.39219-1.21216-.84952-1.41178-.38127-1.21023-.97333-1.60958.29272-1.28485-.83524-.75281-.06614.31909-1.42418-.046-1.4401-.468-1.44124.38081-1.44047-.249-1.4397.3727-1.43924-.46566-1.43913-.07644-1.43937-.2603-1.44.54235-1.441-.11863-1.44113L13.43379,85.419l.2447-1.43981-.17237-1.43984.28782-1.44036-.5461-1.43458.71352-1.435-.64458-1.436.00989-1.43765.64547-1.43994-.2667-1.44259.13611-1.44017-.15192-1.43856.33558-1.43781-.46281-1.438.00543-1.43912-.43657-1.44134.401-1.44288-.013-1.44069.512-1.43986-.66689-1.44055.12772-1.44288-.34217-1.4426.87444-1.44134-.12985-1.44232.00027-1.444-.35072-1.44237.13447-1.44406-.168-1.44324L13.51,45.08688l-.25229-1.44053.63005-1.44057.14335-1.44534-.46764-1.443L13.129,37.87261l.91376-1.44652-.142-1.44446.12037-1.44784-.71786-1.45017.24505-1.46657.82388-.02055,1.40773-.39409,1.28023-.79014,1.62689.24126,1.10962-1.17961,1.55711-.07713,1.14872-.98155,1.52356-.25746L25.0768,26.0552l1.39533-.54156,1.20658-.84335.73108-1.42679,1.01266-1.02863,1.48745-.54214.69226-1.34972.94692-1.09119,1.23766-.88458,1.01028-1.094.08084-1.65721.97588-1.11691.71-1.2775.41632-1.40114.40038-.1664,1.26489-.222,1.43516-.47362,1.43564.143,1.43616.10917,1.43674.26063,1.43736-.27232,1.438.379,1.43874-.13776,1.43951.04361,1.44032.03461,1.44118.01553,1.441.00144,1.44024-.34633,1.43958-.33979,1.439.65,1.4384-.66744,1.4379.10685,1.43746.75466,1.43707-.67241,1.43675-.17069,1.43648-.11039,1.43629.48585,1.43614.07294,1.43607.3427,1.43606.0415,1.43612-.21592,1.43624-.19529,1.43645.03715,1.43671-.56716,1.437.37568,1.43746-.24186,1.438.17808,1.43852.363,1.43916-.26921,1.43989.54,1.4407-.104,1.44158-.39631,1.44249-.44981,1.44163.94167,1.44088-.44758,1.44022.013,1.43965.41609,1.43918-.36509,1.4388.33182,1.43853-.15591,1.43836-.76788,1.4383.87561,1.43834-.31422,1.43849-.125,1.43876.07758,1.43915.33989,1.43966-.74673,1.44028.48311,1.441.1,1.44192.21869,1.44294-.11728,1.44252-.20985,1.4417.07276,1.441-.30528,1.44049.3803,1.44012.00268,1.43991.24094,1.43985-.07275,1.44-.38975,1.44026.07263,1.44073.08173,1.44138-.3303,1.44222.57167,1.44327-.19672,1.44309-.39622,1.44222.64537,1.44158-.9237,1.44117.52553,1.441-.18955,1.441-.19441,1.44136.6538,1.44194-.53066,1.44279-.04754,1.44393.59587,1.44315-.69246,1.44238-.04392,1.44193.194,1.44181.3548,1.442-.25177,1.44266.53514,1.44365-.68117,1.44382-.02918,1.44293.72765,1.44249-.80822,1.44253.09952,1.443-.07831,1.43725.10022,1.43768-.24991,1.43869.9562,1.44034-.178,1.44262-.7647,1.44528.59575,1.44286-.47066L179.761,11.45l1.44048-.59343,1.44065-.15528,1.44181.79184,1.444-.548,1.44557-.21745,1.44337.08216,1.44255.32432,1.44323-.36992,1.44556.644,1.4453-.20387,1.444.38066,1.445-.69591,1.44667.45274,1.445-.36766,1.44675.36665,1.44594-.49379,1.4473.39705,1.44322-.40645,1.44325.3582,1.448.35365,1.44564.0386,1.44758-.69,1.44922.28333,1.44715-.34941,1.45053.68621,1.45288-.49586,1.37166.37887.08009.48021.418,1.41831.81509,1.24337.99272,1.11712.30014,1.52453,1.404.798.22668,1.66533,1.22827.88159,1.396.66769.60362,1.46583.90965,1.19653,1.34754.66624,1.5643.30525.882,1.29733,1.15065.93347,1.4305.42972,1.47061.2892,1.32168.577,1.23825.81454,1.228.93244,1.66693-.48867,1.18288,1.24236,1.08048-.3324-.035,1.54652-.51665,1.44011.39824,1.44124-.33311,1.44046.332,1.4397-.17149,1.43924-.25254,1.43913.78106,1.43937-.05,1.44-.13644,1.441L242.709,46.474l-.58608,1.44025.35945,1.43981.20734,1.43984-.76131,1.44036.98038,1.43458-.30949,1.435.15341,1.436-.26163,1.43765.04318,1.43994-.26105,1.44259-.27565,1.44018.53853,1.43856-.24555,1.4378.27583,1.438-.282,1.43912.54216,1.44135-.52425,1.44287-.05627,1.44069.62135,1.43986L242.254,75.259l.45387,1.44288.1135,1.4426-.73425,1.44134.17179,1.44233.42534,1.444.07727,1.44237.10056,1.44405-.53844,1.44325.02637,1.44461-.04773,1.44053-.04236,1.44057-.06638,1.44534-.11777,1.443.67049,1.44489-.816,1.44651.05292,1.44446.2512,1.44784.42927,1.45017-.0074,1.55892-.89687.461-1.63718-.50885-1.11438,1.35526-1.67771-.40368-1.28539.749-1.14492,1.01517-1.24749.73446-1.34847.53969-1.21943.77834-1.16992.84821-1.30561.66167-1.13481.90444-1.41377.60044-.47254,1.60942-1.67764.412-.5028,1.49723-.68606,1.29139-1.21038.92339-1.05578,1.07725-.13521,1.584-.51631,1.3469-.49076,1.34886-.45278.69044-1.50012-.63482-1.43516.61339-1.43563-.59183-1.43617.834-1.43674-.1783-1.43735-.62426-1.438.4888-1.43874.17023-1.4395-.32082-1.44032-.27873-1.44119-.1447-1.441.42218-1.44024.108-1.43958.30173-1.439-.82517-1.43841.76082-1.4379-.2545-1.43745-.24025-1.43708.69154-1.43674-.748-1.43649.47248L187.161,122.28l-1.43614-.22359-1.43607.08841-1.43606-.05574-1.43612-.04059-1.43625.40787-1.43645.15747-1.4367-.26165-1.437-.351-1.43747.456-1.438-.68011-1.43852-.005-1.43917.51338-1.43988-.35292-1.4407-.22518-1.44159.4239-1.44248-.18816-1.44164.08273-1.44088-.11479-1.44022.55433L158.39,122.464l-1.43917-.81173-1.43881.83958-1.43853.10138-1.43836-.05647-1.43829-.03333-1.43834-.47564-1.4385.32523-1.43876-.70075-1.43915.43107-1.43965-.017-1.44028.25681-1.441-.605-1.44192.09311-1.44293.83446-1.44253-.33355-1.4417.02624-1.441-.62-1.4405.02938-1.44012.64912-1.4399-.48125-1.43986-.1429-1.44.3161-1.44026-.29808-1.44073.44117-1.44138.12924-1.44222-.20723-1.44326.16943-1.44309-.65945-1.44223.29773-1.44158-.0792-1.44116-.07-1.441-.12288-1.441.84634-1.44136-.62619-1.44194.20068-1.44279-.26851-1.44392-.16767-1.44316.09765-1.44238.333-1.44192-.33895-1.44181.25711-1.44206-.04343-1.44266.477-1.44364.07959-1.44382-.50872-1.44294.34006-1.44249-.01353-1.44252-.46478-1.44305.6299-1.43725.10565-1.43768-.55743-1.4387.462-1.44033-.34807-1.44263.23279-1.44528.16854-1.44285-.42058-1.44125.25986-1.44048-.43734-1.44065.1119-1.44181.31653-1.444-.72668-1.44557-.00126-1.44337-.03056-1.44255.63276-1.44323-.54668-1.44557.54356-1.44529-.57162-1.444.61387-1.445-.36968-1.44666.546-1.44506-.59927-1.44674.21527-1.44594.01238-1.4473-.46486-1.44322.12405-1.44326.52924-1.448-.452-1.44564.01446-1.44758.00482-1.44921-.04976-1.44715.21891-1.45054.59226-1.51238-.917ZM40.11493,13.36825l-.915.1332-1.2266.46036-.15869,1.484-.45845,1.37645-1.075,1.0148-.78633,1.17723-.69066,1.25878-1.42674.64488L32.969,22.4574l-1.20461.80365-1.25386.713-.80858,1.23415-1.07185.93988-1.50887.30329-1.12024.85044-1.0717.96036-1.12834.9032-1.40668.35373-1.23585.71287-1.50583.02921-1.08534,1.174-1.5014-.03692-1.024.82576-.71969,1.217.046,1.44286.468,1.44241-.38081,1.4423.249,1.44253-.37269,1.44314.46565,1.44413.07645,1.44431.26029,1.44341-.54234,1.443.11863,1.443.11313,1.44353-.2447,1.43773.17237,1.43816-.28782,1.43918.5461,1.44082-.71353,1.44311.64459,1.44576-.00989,1.44334-.64547,1.44173.2667,1.441-.13611,1.44113.15192,1.44229L15.232,66.61441l.46281,1.446-.00543,1.44385.43657,1.443-.401,1.44372.013,1.446-.512,1.44578.66689,1.4445-.12772,1.4455L16.10727,79.62l-.87445,1.44554.12986,1.44723-.00027,1.44642.35071,1.44779-.13446,1.4437.168,1.44374.00055,1.44852.2523,1.44612-.63,1.44807-.14335,1.4497.46764,1.44763.43446,1.451-.91376,1.45336.142,1.45336.36327,1.45714,1.46337.191,1.28246.65874,1.27036.64739,1.3227.49169,1.45551.21414.94049,1.296,1.57238.04624.94291,1.1877,1.39386.436.872,1.21,1.3681.52244.88472,1.13676,1.02381.95376,1.47346.522,1.05247.97746.4225,1.49631,1.19416.871.7945,1.18266.35831,1.43638.47554,1.32964,1.31964.93808.42521,1.00012,1.0867.43675,1.43619-.11587,1.43681.49635,1.43748-.253,1.43819-.47362,1.439.143,1.43977.10917,1.44064.26063,1.44042-.27232,1.4397.379,1.439-.13776,1.43842.04361,1.43785.03461,1.43735.01553,1.43692.00144,1.43652-.34633,1.4362-.33979,1.43594.65,1.43573-.66744,1.4356.10685,1.43552.75466,1.43552-.67241,1.43557-.17069,1.4357-.11039,1.4359.48585,1.43616.07294,1.4365.3427,1.43692.0415,1.43741-.21592,1.438-.19528,1.43862.03714,1.43934-.56716,1.44015.37568,1.441-.24186,1.44194.17808,1.44108.363,1.44034-.26921,1.43967.54,1.4391-.104,1.43863-.39631,1.43825-.44981,1.438.94168,1.43781-.44759,1.43775.013,1.43779.41609,1.438-.36509,1.43821.33183,1.4386-.15592,1.43911-.76788,1.43973.87561,1.44049-.31422,1.44137-.125,1.44239.07758,1.442.33989,1.44115-.74673,1.44048.48311,1.44.1,1.43957.21869,1.43936-.11728,1.4393-.20984,1.43943.07275,1.43971-.30528,1.44018.3803,1.44083.00268,1.44167.24095,1.44272-.07276,1.44254-.38975,1.44167.07263,1.441.08173,1.44061-.3303,1.44043.57167,1.4405-.19672,1.44081-.39622,1.44139.64537,1.44225-.9237,1.44337.52553,1.44261-.18955,1.44182-.19441,1.44138.6538,1.44127-.53065,1.4415-.04755,1.44211.59587,1.4431-.69246,1.44327-.04392,1.44238.194,1.442.35481,1.442-.25178,1.4425.53514,1.4367-.68117,1.43714-.02918,1.43815.72765,1.43978-.80822,1.44208.09952,1.44473-.07831,1.44231.10022,1.44069-.24991,1.43993.9562,1.44011-.178,1.44125-.7647,1.44348.59575,1.445-.47066,1.44282.60335,1.442-.59343,1.44268-.15528,1.445.79184,1.44474-.548,1.44347-.21745,1.44447.08216,1.44611.32432,1.44451-.36992,1.44619.644,1.44539-.20387,1.44675.38066,1.44267-.69591,1.44271.45274,1.44748-.36766,1.44509.36665,1.447-.49379,1.44866.39705,1.4466-.40645,1.45.3582,1.45232.35365,1.45232.0386.93743-.969.89194-.63194.29187-1.43715,1.27492-.921.30859-1.46276,1.11965-.94781.84413-1.12112.98978-.9983.78462-1.18453.75773-1.24725,1.40694-.55144.64-1.446,1.63261-.18857.94746-1.09556.90288-1.22994,1.55162-.15856,1.38253-.38583,1.12666-.89113,1.03439-1.1794,1.54422.03809,1.3992-.268,1.25416-.70977.74788-.96413.33045-.99182.311-1.44286.4832-1.44241-.94714-1.4423.90778-1.44253L240.078,92.679l.05881-1.44413.51665-1.4443-.39824-1.44342.33311-1.443-.332-1.443.17149-1.44353.25254-1.43773-.78106-1.43816.05-1.43918.13645-1.44082-.04154-1.4431.58608-1.44577-.35945-1.44334-.20734-1.44172.76131-1.441-.98037-1.44113.30949-1.44229-.15342-1.44451.26163-1.44606-.04318-1.44385.26106-1.443.27564-1.44372-.53853-1.446.24555-1.44577-.27583-1.44451.282-1.4455-.54217-1.44715.52425-1.44554.05628-1.44723-.62136-1.44642.61342-1.44779-.45387-1.4437-.1135-1.44374.73425-1.44852-.17179-1.44612-.42534-1.44807-.07727-1.44969-.10056-1.44764.53844-1.451-.02637-1.45336.04773-1.45336-.38658-1.29232-1.09746-.8433-1.30492-.53616-1.55813.15778-1.01265-1.27875-1.302-.51389-1.37267-.38571-1.45163-.28632-1.23942-.70359L228.444,27.1113l-.64433-1.5477-1.71831-.07828-.49709-1.61734-1.1932-.76863-1.338-.66166-1.05243-.97458-.79011-1.2017-.897-1.10979-.86147-1.1423-.54894-1.33453-.67979-1.24648-.17383-1.47421-1.32859-.32329-.83057-1.17933-1.43619.59422-1.43681.24592-1.43747-.47322-1.4382-.34126-1.439.62557-1.43977.0918-1.44064.02771-1.44041-.1337-1.4397-.64672-1.439.6134-1.43841-.59182-1.43786.834-1.43735-.17829-1.43691-.62426-1.43653.48882-1.4362.17023-1.43593-.32081-1.43574-.27872-1.4356-.14469-1.43552.42219-1.43551.108-1.43557.30173-1.4357-.82516-1.4359.76083-1.43616-.25449-1.43651-.24025-1.43691.69155-1.43741-.748-1.438.47249-1.43862-.0665-1.43934-.22358-1.44015.08842-1.441-.05573-1.44193-.04059-1.44109.40788L164.127,13.366l-1.43967-.26164-1.4391-.351-1.43863.456-1.43826-.6801-1.438-.005-1.43781.51339-1.43775-.35292L152.62,12.45947l-1.438.42391-1.43822-.18815-1.4386.08273-1.4391-.11478-1.43974.55434-1.44048-.00122-1.44137-.81173-1.44239.8396-1.442.10138-1.44115-.05646-1.44047-.03333-1.44-.47563-1.43958.32524-1.43935-.70074-1.43931.43108-1.43942-.017-1.43971.25681-1.44018-.605-1.44083.09311-1.44168.83447-1.44271-.33354-1.44254.02625-1.44168-.61995-1.441.02939-1.44062.64913-1.44043-.48125-1.4405-.14289-1.44081.31611-1.44139-.29807-1.44224.44117-1.44338.12925-1.4426-.20722-1.44183.16944-1.44138-.65945-1.44126.29774-1.4415-.07919-1.44211-.07-1.4431-.12287-1.44327.84634-1.44239-.62618-1.44194.20069-1.442-.2685-1.44249-.16767-1.43671.09766-1.43713.33305-1.43815-.33894-1.43978.25712-1.44208-.04343-1.44473.477-1.44231.0796-1.44069-.50872-1.43994.34007-1.4401-.01352L74.81244,12.642l-1.44348.6299-1.445.10565-1.44282-.55742-1.442.462-1.44269-.34806-1.445.23279-1.44475.16856-1.44347-.42058-1.44446.25987-1.44612-.43733-1.4445.11191-1.4462.31653-1.44539-.72667-1.44675-.00125-1.44267-.03055-1.4427.63277-1.44748-.54668-1.44509.54357-1.447-.57162-1.44866.61388-1.4466-.36967-1.45.546-1.49133-.59616Z"/></g><path class="cls-2" d="M66.48047,52.30409a2.24487,2.24487,0,0,1,1.50488-.59473A4.12357,4.12357,0,0,1,71.59082,55.349c0,.84082-.41992,1.19043-.80468,1.85547a25.79913,25.79913,0,0,0-3.1504,12.2168c0,2.27441.56055,3.84961,1.04981,3.84961.45508,0,2.97559-5.04,3.9209-6.93067l.665.24512c-1.47071,3.85059-3.01075,7.84082-3.01075,8.78613,0,.77051.35059,1.33008.35059,2.24024,0,.77051-.41992,1.50488-1.085,1.50488-1.751,0-3.85059-3.42969-3.85059-9.13574A45.41764,45.41764,0,0,1,67.46094,58.85a16.1917,16.1917,0,0,0,.73535-3.956c0-1.18946-.35058-2.24024-1.68066-2.4502Zm17.92188,4.23535c-.03516-2.87011-.07032-4.2705-2.06543-4.2705a6.36069,6.36069,0,0,0-.73438.07031l-.10547-.17481a2.34146,2.34146,0,0,1,2.34571-1.43554c1.88964,0,3.63964,1.12011,3.6748,2.10058a3.00432,3.00432,0,0,1-.41992,1.22461,39.61791,39.61791,0,0,0-.38477,4.93555c1.85547-.34961,3.11524-.59473,3.53516-1.75,1.89062.13965,3.29.49023,3.32519,1.50488,0,.91016-.83984,1.22559-2.7998,1.71582-.91016.21-2.55566.52442-4.06055.69922a51.40677,51.40677,0,0,0,.62989,10.15137,17.7007,17.7007,0,0,1,5.00586,2.97558,3.04431,3.04431,0,0,1,1.25976,2.48535A1.275,1.275,0,0,1,92.418,78.06679c-.52441,0-.97949-.31543-1.64453-1.12012a11.4626,11.4626,0,0,0-3.2207-2.73047c.13965,1.89063.31543,5.18066-5.53028,5.18066-4.06054,0-6.68554-1.9248-6.68554-4.79589,0-2.69532,2.835-4.26953,6.335-4.26953a15.25769,15.25769,0,0,1,3.15039.31445c-.17481-1.67969-.34961-7.001-.34961-9.1709a34.59909,34.59909,0,0,1-4.30567.31543,5.06514,5.06514,0,0,1-4.585-2.59082l.34961-.45508A5.45781,5.45781,0,0,0,79.74707,59.935a26.83665,26.83665,0,0,0,4.65528-.45508Zm.56054,16.207a8.32127,8.32127,0,0,0-3.501-.875c-2.625,0-4.585.91016-4.585,2.66016s1.96,2.58984,4.69043,2.58984c2.625,0,3.42968-.83984,3.42968-3.04492A12.03445,12.03445,0,0,0,84.96289,72.74647Z"/><path class="cls-2" d="M100.18653,52.16444a2.51744,2.51744,0,0,1,2.34472-1.4707c2.10059,0,4.30567,1.22559,4.30567,2.625,0,.84082-.665.98047-1.04981,3.08105a102.1392,102.1392,0,0,0-1.19043,14.03614c0,5.041,2.55567,6.126,6.5459,6.126,5.14551,0,9.66113-2.69531,12.84668-8.331l.665.31445c-2.87109,7.666-7.94629,10.74707-13.68652,10.74707-4.83106,0-8.82129-1.89062-8.82129-8.71679,0-4.585.55957-11.7959.94531-16.626v-.24512c0-1.4707-1.33008-1.50586-1.96-1.50586a3.26206,3.26206,0,0,0-.84082.07032Zm13.30078,2.58985c3.95605,1.22558,5.28613,3.04492,5.28613,4.20019,0,.665-.35059,1.22559-.94531,1.22559s-.98047-.35059-1.22559-1.01563a8.972,8.972,0,0,0-3.5-3.84961Zm3.99121-2.66016c3.95508,1.25977,5.28515,3.04492,5.28515,4.2002,0,.665-.34961,1.22558-.94531,1.22558a1.24637,1.24637,0,0,1-1.22461-.98047,8.64126,8.64126,0,0,0-3.501-3.88574Z"/><path class="cls-2" d="M142.958,51.00917a3.34411,3.34411,0,0,1,1.99512-.83984c2.97461,0,3.29,1.36425,3.29,2.48437a54.06507,54.06507,0,0,1-1.43555,5.70606c7.4209.45507,10.81641,5.32031,10.81641,10.64062,0,6.05566-4.55079,9.94141-15.82129,10.78125l-.24512-.80469c9.1709-1.33008,12.95117-5.28515,12.95117-10.11621,0-5.11035-2.58984-8.78613-8.08594-9.20605a41.12942,41.12942,0,0,1-5.70507,11.376A3.85009,3.85009,0,0,1,142.082,73.1664a1.05434,1.05434,0,0,1-1.085,1.12011,3.9512,3.9512,0,0,1-2.03027-1.15527c-1.92481,1.9248-3.91992,3.3252-6.7207,3.3252-2.06446,0-3.88477-1.82032-3.88477-5.0752,0-3.43066,2.30957-6.7207,5.21484-9.03125-.1748-.83984-.34961-1.85547-.48925-2.69531-.49024-3.67481-.80567-5.21582-2.80078-5.56543l-.07032-.10547a2.61652,2.61652,0,0,1,1.96094-.665,2.811,2.811,0,0,1,2.94043,2.59082c.10449.98047.03418,2.31055.21,4.0957a7.59134,7.59134,0,0,0,.21,1.12012,20.80043,20.80043,0,0,1,8.61035-2.76562,23.55264,23.55264,0,0,0,.875-5.0752c0-1.2959-.52441-1.92578-1.9248-1.92578Zm-5.53125,20.37207a21.25121,21.25121,0,0,1-3.39551-7.31641,9.75826,9.75826,0,0,0-3.36035,6.93164c0,1.88965.94531,2.835,2.20606,2.835C133.99707,73.83144,135.502,73.44667,137.42676,71.38124Zm-1.64453-8.751c.55957,2.48535,1.64453,5.49512,3.15039,6.96582a29.76072,29.76072,0,0,0,4.93555-9.9414A14.99943,14.99943,0,0,0,135.78223,62.63026Z"/><path class="cls-2" d="M170.74707,65.851c-1.75,3.95507-3.36035,8.085-3.39551,9.31054,0,.49024.38575,1.29493.38575,2.20508,0,1.22559-.56055,1.64551-1.08594,1.64551-1.67969,0-3.5-3.01074-3.5-8.99609,0-5.11036,1.22461-9.52149,1.89062-12.84668a7.00321,7.00321,0,0,0,.13965-1.46973c0-.35059-.03515-.665-.03515-.98047a2.70642,2.70642,0,0,0-1.71485-2.45019l-.03515-.24512a1.70557,1.70557,0,0,1,1.22461-.34961,4.096,4.096,0,0,1,3.92089,3.71,4.15,4.15,0,0,1-.70019,2.13574,28.15206,28.15206,0,0,0-2.48535,11.48047,10.64236,10.64236,0,0,0,.41992,3.60547l.28027-.06934c.73535-1.12011,2.835-4.83105,3.99024-7.001Zm6.89551-.666c-1.64453,1.78613-2.66016,3.64063-2.66016,5.35645,0,2.76464,2.06543,3.78027,6.68555,3.78027a20.04211,20.04211,0,0,0,5.8457-.665c2.03028.34961,2.83594,1.085,2.83594,1.99512,0,1.085-1.64551,1.33008-7.63086,1.33008-6.37109,0-9.52148-1.71582-9.52148-5.81055,0-2.31055,1.64551-4.58594,3.78027-6.51074Zm-3.78027-8.82031a15.84545,15.84545,0,0,0,3.43066.28027,23.07907,23.07907,0,0,0,6.8252-1.2959,10.43591,10.43591,0,0,1,1.6455-.76953c1.64551,0,3.15039.665,3.15039,1.64453,0,.80567-1.22558,1.12012-2.58984,1.43555a43.30191,43.30191,0,0,1-7.45605.91016A7.1641,7.1641,0,0,1,173.6875,56.89Z"/></svg>