<svg id="mockup" xmlns="http://www.w3.org/2000/svg" xmlns:xlink="http://www.w3.org/1999/xlink" viewBox="0 0 643.74 919.64"><defs><style>.cls-1{fill:none;}.cls-2{clip-path:url(#clip-path);}.cls-3{fill:#b59664;}.cls-4{mask:url(#mask);}.cls-5{opacity:0.3;}.cls-6{fill:#fff;}.cls-7{filter:url(#luminosity-noclip);}</style><clipPath id="clip-path"><rect class="cls-1" x="-159.07" width="802.81" height="919.64" transform="translate(484.66 919.64) rotate(-180)"/></clipPath><filter id="luminosity-noclip" x="492.58" y="165.54" width="181.2" height="136.38" filterUnits="userSpaceOnUse" color-interpolation-filters="sRGB"><feFlood flood-color="#fff" result="bg"/><feBlend in="SourceGraphic" in2="bg"/></filter><mask id="mask" x="492.58" y="165.54" width="181.2" height="136.38" maskUnits="userSpaceOnUse"><g class="cls-7"><path d="M521.7,269.29a1.32,1.32,0,0,1,2.13,0,8.39,8.39,0,0,1,1.36,2.45c.1.44-1,1.51-1.7,1.67a37.67,37.67,0,0,1-4.29.62c-.92.08-1.19-.44-.59-1.15Z"/><path d="M647.14,268.54c.93-.86,2-1.34,2.35-1.07a2.14,2.14,0,0,1-.4,2.58s-4.52,4.76-7.71,7.84c-.15.14-.68-.27-.68-.27a1.91,1.91,0,0,1-.13-3Z"/><path d="M554.37,259.6c.54-.89,1.22-.81,1.52.19a1,1,0,0,1-.07.62c-1.06,2.37-2.52,5.36-2.52,5.36a1.37,1.37,0,0,1-2.24.45s-.28-.24-.15-.5C552.08,263.39,554.37,259.6,554.37,259.6Z"/><path d="M504.65,167.62a2,2,0,0,1,2-.2c.64.29,1.43,1.42.63,2a6.58,6.58,0,0,1-2,.86,1.1,1.1,0,0,1-.92-.07C503.6,169.58,504.18,168,504.65,167.62Z"/><path d="M503.56,269.9a1.29,1.29,0,0,1-.15-2.36,1.57,1.57,0,0,1,.94-.21c2.19.09,4.34.38,4.34.38a1.3,1.3,0,0,1,1,2.15s-.87,1.36-1.91,1.36A11.24,11.24,0,0,1,503.56,269.9Z"/><path d="M618.29,189.8c.28-.34.71-.51,1-.37s.46.67.11.94c0,0-.55.44-1.17.86,0,0-.56-.5-.52-.56A9.36,9.36,0,0,1,618.29,189.8Z"/><path d="M523.89,207.76c.09-.25.27-.27.4,0,0,0,.22.39.16.51a4.8,4.8,0,0,1-.43.67c-.18.2-.39.23-.47,0l0-.14C523.67,208.41,523.89,207.76,523.89,207.76Z"/><path d="M608.15,263.83a1.46,1.46,0,0,1,2.31-.33s.6.55.46.89a5.36,5.36,0,0,1-2,2.28c-.25.17-1.72-.9-1.68-1A14,14,0,0,1,608.15,263.83Z"/><path d="M544.86,287.52c.75-1,1.57-.86,1.83.4a24.3,24.3,0,0,1,.51,4c0,.51-1.54,1.54-1.7,1.43-.93-.69-2.36-1.73-2.28-2.49A10.36,10.36,0,0,1,544.86,287.52Z"/><path d="M510.76,258.12c-.55.72-1.27.61-1.59-.24a8.72,8.72,0,0,1-.55-2.3c0-.45,1.05-1.3,1.15-1.24.75.48,1.81,1.09,1.91,1.77S510.76,258.12,510.76,258.12Z"/><path d="M578.8,295.36c-.29-.2-.39-.51-.22-.67s.67-.41.79-.26.22.74,0,1h-.22A.6.6,0,0,1,578.8,295.36Z"/><path d="M560.74,294.31a1.48,1.48,0,0,1-.55-2.72,18.54,18.54,0,0,1,2.21-1.68c.19-.13,1.73,1.27,1.67,1.36a7.44,7.44,0,0,1-2.32,2.81A1.33,1.33,0,0,1,560.74,294.31Z"/><path d="M504.89,260.53c-.22-.45-.27-.9-.1-1s.86.12,1.16.69a8.42,8.42,0,0,1,.47,1.15l.05.14C506,261.84,505.12,261,504.89,260.53Z"/><path d="M493,266.65a1.12,1.12,0,0,1,1.6.14,2.85,2.85,0,0,1-.09,3.21l-.59-.13-.87-.19A2.66,2.66,0,0,1,493,266.65Z"/><path d="M584.82,199.93a1.53,1.53,0,0,1,.23-2.28l.05.06c.82.92,1.26,1.5,1.26,1.5a1.52,1.52,0,0,1-.09,2.18l-.12-.11A15.09,15.09,0,0,1,584.82,199.93Z"/><path d="M643.81,286a1.31,1.31,0,0,1,.75-2l1-.24a1.83,1.83,0,0,1,.57,1.2c-.2,1-.22,1.08-.22,1.08C645.46,287.16,644.29,286.76,643.81,286Z"/><path d="M630.46,268.28a1.63,1.63,0,0,1,.25-2.91,2,2,0,0,1,1.27-.1l.8.15a2.31,2.31,0,0,1-.34,3.13h-.84A1.83,1.83,0,0,1,630.46,268.28Z"/><path d="M527.76,237.92c.82-1,1.91-.95,2.42.15l-.22.33a10.45,10.45,0,0,1-1,1.35c-.93.93-2.14,1.11-2.69.42l.15-.26A16.19,16.19,0,0,1,527.76,237.92Z"/><path d="M529,181.81a.93.93,0,0,1,1,.1c.31.24.7,1,.27,1.22l-.34-.06-.65-.11A.69.69,0,0,1,529,181.81Z"/><path d="M509.75,217.06a1,1,0,0,1-.21-1.81,4.64,4.64,0,0,1,.88-.54l.19-.1a1.72,1.72,0,0,1,.17,2l-.53.42A.51.51,0,0,1,509.75,217.06Z"/><path d="M626.81,206.69c.67-.8,1.38-.61,1.58.41,0,0,0,.05-.19.32a15.51,15.51,0,0,1-1,1.35c-.71.76-1.62.89-2,.28l.15-.24A21,21,0,0,1,626.81,206.69Z"/><path d="M605.67,293.42a1.09,1.09,0,0,1,1.35-.17,1.41,1.41,0,0,1-.35,1.86l-.72.13-.53.1C604.74,295,605.22,293.79,605.67,293.42Z"/><path d="M549.48,253.77c-.07,0-.11-.11-.08-.15a.1.1,0,0,1,.17,0,1.39,1.39,0,0,1,.11.16s0,.06,0,.06Z"/><path d="M518.41,269.24a1.27,1.27,0,0,1,.16,1.88l-.08,0A3.46,3.46,0,0,1,517.3,270c-.08-.14.51-.93.63-.9Z"/><path d="M616,275.22a2.11,2.11,0,0,1-.86-3l.13.07a13.58,13.58,0,0,1,2.73,1.86,6,6,0,0,1-1,1.49Z"/><path d="M582.67,231.43c.88-.48,1.91-.51,2.3-.06s.16,2.29-1.3,3.17l-1.42.21-.73.11C580.55,233.85,581.79,231.91,582.67,231.43Z"/><path d="M497.72,244.16a1.25,1.25,0,0,1-.22-1.56,2,2,0,0,1,2.49.4l.29.95.15.45C499.75,245.15,498.16,244.64,497.72,244.16Z"/><path d="M624.78,296.16a.8.8,0,0,1,.33-1.22l.41-.11.1,0a.92.92,0,0,1-.38,1.13l-.4.2Z"/><path d="M522.35,274.31a1,1,0,0,1,1,.19,1,1,0,0,1-.31,1.3l-.36-.11-.56-.19A.69.69,0,0,1,522.35,274.31Z"/><path d="M524.42,269.16c-.57.3-1.15.45-1.3.34a.6.6,0,0,1,.06-.83c.3-.23,1.36-.43,1.7.08l-.06.06Z"/><path d="M594.55,250.86a.77.77,0,0,1,0-1.16c.35-.32,1.37-.72,1.59-.27l-.12.16a6.35,6.35,0,0,1-1.41,1.22Z"/><path d="M535.68,192c.25-.27.61-.19.79.19a1.18,1.18,0,0,1,.07.32c0,.06-.44.31-.56.25a.79.79,0,0,1-.29-.6Z"/><path d="M592.46,272c-.17-.19-.14-.4.07-.48l.12,0c.08,0,.22.18.2.21s-.18.29-.26.28Z"/><path d="M564.15,284.37c-.47-.26-.37-.8.23-1.21,0,0,0,0,.18,0l.28.15a.77.77,0,0,1-.13,1h-.56Z"/><path d="M599.78,198.87a.63.63,0,0,1-.16-1l.2,0,.19,0a.84.84,0,0,1,.14.93l-.19.07Z"/><path d="M500.75,206.5c-.58-.37-.57-.93,0-1.24l.3.05.32.06a.85.85,0,0,1,0,1.17h-.28C500.8,206.54,500.75,206.5,500.75,206.5Z"/><path d="M553.06,287.47c.08-.21.25-.22.36,0,0,0,0,0,0,.11l0,.1a.26.26,0,0,1-.34,0v-.08C553.05,287.48,553.06,287.47,553.06,287.47Z"/><path d="M609.62,301.43a.71.71,0,0,1-1.23-.06l0-.25.05-.27a.92.92,0,0,1,1.13,0v.53Z"/><path d="M514.94,274.11a1.51,1.51,0,0,1,.24-2.3l.66-.26c.16-.05.95,1,.89,1a5.43,5.43,0,0,1-1.62,1.44Z"/><path d="M596.79,187.2c-.27-.12-.33-.65-.13-1.18h.13l.51,0c.56.2.93.54.83.77A1.73,1.73,0,0,1,596.79,187.2Z"/><path d="M613.09,216.39a.69.69,0,0,1-.21-.86,1.52,1.52,0,0,1,1.61-.05l.22.48.12.29A1.4,1.4,0,0,1,613.09,216.39Z"/><path d="M599.69,279.79c-.28-.22-.09-.85.44-1.41l.08.05a3,3,0,0,1,1.14,1.11l.08.16A1.65,1.65,0,0,1,599.69,279.79Z"/><path d="M604.42,292.29a1.28,1.28,0,0,1,.17-2.1l.48.06.49.07a1.39,1.39,0,0,1-.15,1.92l-.53,0Z"/><path d="M614,277.53c-.39-.48-.56-1-.38-1.25a1.09,1.09,0,0,1,1.37.11l.25.46c0,.08-.61.75-.89.72Z"/><path d="M540.71,179.61c.31-.19.65-.19.77,0s-.08.9-.65,1.25l-.55.22-.06,0C539.94,180.64,540.41,179.8,540.71,179.61Z"/><path d="M567,224.58a1.25,1.25,0,0,1,.11-1.92l.47,0,.32,0a1.63,1.63,0,0,1-.09,1.88l-.43,0Z"/><path d="M584,293.1a.35.35,0,0,1-.61.08v-.31a.38.38,0,0,1,.56-.07l0,.15Z"/><path d="M541.14,168.22c-.83-.59-.72-1.79.23-2.68l.26.11a2.1,2.1,0,0,1,1.2,1.36c0,.37-.71,1.19-1.12,1.2Z"/><path d="M558.63,253.39a1,1,0,0,1-1.38.07l0-.1.14-.37a.84.84,0,0,1,1.14-.12l0,.27Z"/><path d="M512.6,206a.66.66,0,0,1,1,0v.44a.83.83,0,0,1-1,0l0-.23Z"/><path d="M620.69,292.45c.22-.41.55-.62.74-.48a.73.73,0,0,1,.1,1l-.31.12c-.15.06-.62-.24-.6-.29Z"/><path d="M600.85,300c0-.13,0-.25,0-.27s.19,0,.21,0,0,.26-.14.3l-.06,0Z"/><path d="M581.68,284.23c-.8-.48-.73-1.2.16-1.6l.53,0,.48,0a.86.86,0,0,1-.15,1.45l-.55.05Z"/><path d="M643.7,258.86c-.1.14-.35.07-.57-.14l-.08-.19c0-.06.21-.34.32-.33h.22C643.83,258.32,643.8,258.72,643.7,258.86Z"/><path d="M519.41,174c-.21.59-.59.9-.84.67s-.55-1-.26-1.4l.35-.22c.09-.05.67.34.7.56Z"/><path d="M623.71,181.1c-.18-.53.48-1,1.47-1.12l.58.23a1.57,1.57,0,0,1,.32,1.48l-.41.52C624.92,182.53,623.9,181.62,623.71,181.1Z"/><path d="M530.71,194.08c-.52-.52-.68-1.07-.35-1.23a1.37,1.37,0,0,1,1.51.41l.11.48c0,.11-.64.56-.86.48Z"/><path d="M545.5,167.82c-.66-.57-.89-1.21-.51-1.43s1.49-.25,1.84.3l.08.54c0,.22-.68.83-.89.76Z"/><path d="M533.51,287.15c.18-.21.42-.2.51,0v.13c0,.09-.18.26-.22.25s-.33-.19-.32-.25Z"/><path d="M558.74,289.2a.8.8,0,0,1,1,.5l0,.35v.12a.84.84,0,0,1-.94-.54l0-.37Z"/><path d="M533.25,172.75a.17.17,0,0,1-.16,0v-.09c0-.06.11-.08.14,0A.22.22,0,0,1,533.25,172.75Z"/><path d="M497.63,242.92a.21.21,0,0,1,.15.24l-.06.06,0,0a.23.23,0,0,1-.15-.24l.06,0Z"/><path d="M522.81,188.18a.85.85,0,0,1,.08-1.06l.09,0,.32.17a.58.58,0,0,1,0,.92l-.24,0Z"/><path d="M512,266.18s.1,0,.11.05,0,.1-.11.07S512,266.22,512,266.18Z"/><path d="M610.75,300.67c-.06,0-.06-.1,0-.2l.07-.07s.16,0,.16,0l0,.09C611,300.63,610.82,300.68,610.75,300.67Z"/><path d="M606.49,296.35s0-.07,0-.15l0,0a.18.18,0,0,1,.13,0v.07C606.66,296.32,606.53,296.36,606.49,296.35Z"/><path d="M612.73,286.14a1.39,1.39,0,0,1,.57,1.5l-.27.09-.29.1a1.43,1.43,0,0,1-.57-1.48l.27-.11Z"/><path d="M622.59,266.43c-.07-.09,0-.26.19-.37l.16-.06s.19.2.16.27l-.06.17A.31.31,0,0,1,622.59,266.43Z"/><path d="M599.28,281.09a.11.11,0,0,1,.11-.09h.06c0,.05,0,.09-.1.09h-.07Z"/><path d="M606.47,224a.05.05,0,0,1,0-.05.07.07,0,0,1,.08.05v0A.07.07,0,0,1,606.47,224Z"/><path d="M585.8,176.19a1,1,0,0,1-1.34,0l-.05-.3c0-.15.45-.56.68-.54a.92.92,0,0,1,.7.6Z"/><path d="M632.13,233.45c-.15-.13-.22-.31-.15-.4a.73.73,0,0,1,.79.11l.24.26,0,0C632.84,233.69,632.28,233.57,632.13,233.45Z"/><path d="M562.48,168a.36.36,0,0,1-.41-.06v-.17a.4.4,0,0,1,.42.07v.08Z"/><path d="M578.38,176.78a.36.36,0,0,1-.15-.37l.07,0a.2.2,0,1,1,.14.38Z"/><path d="M592,291.88s0,0-.07,0v0s0,0,0,0h0S592,291.86,592,291.88Z"/><path d="M643,287.41a0,0,0,0,1,0-.05s0,0,0,0S643,287.42,643,287.41Z"/><path d="M617.09,298.6c-.06-.13-.08-.27,0-.31s.22-.07.28,0,.09.34-.05.38l-.1,0Z"/><path d="M537.64,166.78c-.07.08-.15.11-.18.07a.16.16,0,0,1,0-.23l.09,0s.1.09.09.12Z"/><path d="M564.82,213.59c0,.11-.17.32-.4.47l-.19,0-.15,0c-.13-.24-.09-.49.08-.56S564.82,213.48,564.82,213.59Z"/><path d="M517.11,259c.07-.21.21-.32.3-.25s.21.38.07.52l-.15.09s-.25-.12-.24-.17Z"/><path d="M601.85,233.25a.23.23,0,0,1,.07.28.37.37,0,0,1-.5-.06l-.13-.2,0,0C601.4,233.1,601.75,233.18,601.85,233.25Z"/><path d="M518.71,252.67a.3.3,0,0,1,.3.05.41.41,0,0,1-.09.52l-.16,0-.14,0A.41.41,0,0,1,518.71,252.67Z"/><path d="M580.3,185.44c.07.09,0,.18-.09.2s-.18-.07-.13-.18A.12.12,0,0,1,580.3,185.44Z"/><path d="M494.7,261.61s0,0,0-.05h0a0,0,0,0,1,0,0S494.71,261.62,494.7,261.61Z"/><path d="M518.14,266.86c0-.09.14-.24.33-.34l.14,0,.13,0c.09.19.06.38-.07.43S518.15,267,518.14,266.86Z"/><path d="M494.5,260.54c0,.09-.16.29-.35.43l-.16,0h-.11c-.11-.22-.08-.45.07-.51S494.5,260.44,494.5,260.54Z"/><path d="M528.4,207.48s.05-.12.16-.14h.1s.06.13,0,.15l-.07.07A.17.17,0,0,1,528.4,207.48Z"/><path d="M572.59,293.9c0-.13.38-.18.8-.12l.35.14.07,0c0,.32-.26.55-.48.52S572.57,294,572.59,293.9Z"/><path d="M593.94,294.72a.17.17,0,0,1,.17,0,.23.23,0,0,1,0,.3h-.18A.22.22,0,0,1,593.94,294.72Z"/><path d="M614,278.49c0-.14.1-.19.24-.13s.14.18,0,.25S614,278.62,614,278.49Z"/><path d="M531.5,288.69a13.09,13.09,0,0,0-.57,1.22l-.28.63,0,.06.3-.62A10.44,10.44,0,0,0,531.5,288.69Z"/><path d="M600,294.73a0,0,0,0,1-.08,0s0-.05,0-.06S600,294.69,600,294.73Z"/><path d="M519.5,176c0,.07-.07.06-.13,0v-.14C519.46,175.73,519.5,175.87,519.5,176Z"/><path d="M602.06,235.53c-.07.11-.16.09-.2,0s0-.22.14-.2S602.14,235.43,602.06,235.53Z"/><path d="M532.47,230.87c.08-.14.19-.14.26,0s0,.26-.14.25S532.39,231,532.47,230.87Z"/><path d="M602.46,281.68c-.08,0-.09-.08,0-.1s.24,0,.26,0S602.53,281.72,602.46,281.68Z"/><path d="M526.06,263a0,0,0,0,1,.05,0s0,0,0,0S526,263.05,526.06,263Z"/><path d="M610.94,277.54s.06,0,0,.07-.06.08-.08,0S610.9,277.53,610.94,277.54Z"/><path d="M616.38,296.53c0,.06-.06.08-.12.05s0-.09,0-.12S616.39,296.47,616.38,296.53Z"/><path d="M622.35,253.81c.06-.07.13-.05.15,0s0,.16-.11.13S622.29,253.88,622.35,253.81Z"/><path d="M560.88,253.44a.1.1,0,0,1,.06.1s-.07.09-.1,0S560.84,253.43,560.88,253.44Z"/><path d="M565.83,181c.06,0,0,.1,0,.12s-.14,0-.12-.08S565.76,181,565.83,181Z"/><path d="M609.06,227.53a.06.06,0,0,1,0,.11c0,.05-.07.05-.1,0S609,227.53,609.06,227.53Z"/></g></mask></defs><g class="cls-2"><path class="cls-3" d="M663.6,23.39c-62.08-7.34-124.7,6.92-184.33,25.69C442,60.81,405,74.53,372.35,96c-36.41,23.9-66.42,56.79-103.76,79.21C202.29,215,116.68,219.66,58.46,270.59,16,307.76-5.34,367.69,4.14,423.35,17.81,503.58,87.61,562.3,159.64,600.2c41.77,22,86.43,39.91,122.42,70.45,64.13,54.42,95.05,144.05,167.7,186.42,39.68,23.14,86.79,28.92,132.42,34.23,47.06,5.48,94.91,10.94,141.58,2.73C758.22,888,791,874.6,822.52,859.45c30-14.4,60.26-31.42,79.39-58.65,11.43-16.28,18.25-35.42,22.43-54.87C952.92,613,862.5,477.81,883.26,343.43,888,312.52,898.64,282.7,903,251.72s1.68-64.88-17.39-89.68c-16.27-21.15-38.65-26.26-59.87-39.7-16.68-10.56-25.57-31.53-40.67-45.54C752.13,46.21,707.9,28.63,663.6,23.39Z"/></g><g class="cls-4"><g class="cls-5"><polygon class="cls-6" points="583.54 198.86 580.93 198.66 578.44 197.94 575.88 197.51 573.52 196.44 571.18 195.38 568.96 194.06 566.71 192.76 564.72 191.09 563.01 189.14 561.21 187.26 559.69 185.15 558.46 182.86 557.54 180.44 556.42 178.09 555.91 175.54 555.46 172.99 555.31 170.46 557.86 170.48 560.38 171.1 562.86 171.85 565.37 172.52 567.6 173.86 569.86 175.11 572.09 176.45 573.92 178.29 575.91 179.97 577.49 182.04 579.03 184.12 580.21 186.44 581.45 188.72 582.16 191.22 583.05 193.66 583.23 196.26 583.54 198.86"/><polygon class="cls-6" points="555.12 229.84 555.55 227.13 555.93 224.57 556.67 222.1 557.6 219.7 558.65 217.34 560.03 215.17 561.44 213.02 562.86 210.83 564.88 209.18 566.72 207.35 568.98 206.08 571.24 204.85 573.47 203.53 575.91 202.68 578.35 201.78 580.92 201.39 583.6 201.19 583.27 203.85 583.05 206.45 582.08 208.87 581.21 211.29 580.33 213.74 578.79 215.84 577.41 218.01 575.76 220.01 574.04 221.95 571.93 223.46 569.79 224.89 567.68 226.4 565.33 227.5 562.84 228.22 560.33 228.79 557.86 229.62 555.12 229.84"/><polygon class="cls-6" points="552.52 229.76 549.88 229.42 547.3 229.18 544.87 228.25 542.35 227.6 540.17 226.14 537.75 225.16 535.66 223.61 533.88 221.73 531.93 220.02 530.39 217.95 528.98 215.8 527.34 213.76 526.49 211.3 525.7 208.85 524.69 206.44 524.27 203.88 524.34 201.42 526.81 201.31 529.34 201.9 531.75 202.86 534.19 203.69 536.59 204.65 538.75 206.06 541.04 207.31 542.93 209.09 544.86 210.83 546.26 213.04 547.78 215.12 548.98 217.39 550.37 219.59 551.16 222.06 551.96 224.54 552.44 227.09 552.52 229.76"/><polygon class="cls-6" points="524.21 198.83 524.59 196.28 524.73 193.68 525.67 191.25 526.32 188.74 527.56 186.46 528.91 184.26 530.46 182.21 531.93 180.08 533.86 178.36 535.67 176.5 537.84 175.08 540.07 173.77 542.41 172.65 544.78 171.6 547.38 171.3 549.91 170.85 552.5 170.37 552.25 172.99 551.7 175.51 551.12 178.03 550.32 180.49 549.33 182.9 547.96 185.11 546.5 187.26 544.59 189.03 542.8 190.88 540.84 192.54 538.72 194 536.6 195.48 534.3 196.7 531.88 197.64 529.29 197.97 526.8 198.78 524.21 198.83"/><polygon class="cls-6" points="583.4 260.45 580.96 260.18 578.38 259.95 575.96 259.02 573.46 258.32 571.08 257.31 569 255.74 566.85 254.32 564.79 252.75 562.96 250.92 561.32 248.91 559.97 246.71 558.49 244.58 557.49 242.19 556.65 239.75 555.77 237.3 555.49 234.72 555.16 232.04 557.86 232.24 560.41 232.71 562.87 233.53 565.26 234.51 567.56 235.68 569.88 236.81 571.89 238.44 573.87 240.09 575.84 241.78 577.36 243.87 578.91 245.94 580.22 248.16 581.42 250.47 582 253 582.75 255.46 583.47 257.96 583.4 260.45"/><polygon class="cls-6" points="555.22 291.48 555.31 288.83 556.05 286.34 556.67 283.84 557.38 281.34 558.56 279.04 559.78 276.75 561.24 274.6 563 272.7 564.96 271.01 566.8 269.2 568.81 267.54 571.08 266.28 573.53 265.41 575.93 264.49 578.41 263.77 580.92 263.14 583.62 262.9 583.17 265.57 582.93 268.16 582.37 270.69 581.23 273.03 580.12 275.36 578.91 277.65 577.4 279.74 575.64 281.63 573.93 283.56 571.89 285.14 569.91 286.81 567.69 288.16 565.29 289.14 562.86 289.99 560.41 290.87 557.87 291.4 555.22 291.48"/><polygon class="cls-6" points="552.33 291.31 549.89 291.14 547.33 290.79 544.83 290.1 542.46 289.06 540.09 288.04 537.75 286.9 535.67 285.34 533.73 283.63 531.95 281.74 530.41 279.67 528.77 277.67 527.63 275.35 526.52 273.02 525.58 270.62 525 268.11 524.53 265.58 524.29 263.1 526.79 263.18 529.35 263.61 531.87 264.23 534.16 265.49 536.49 266.56 538.83 267.66 541.03 269.05 542.86 270.9 544.79 272.63 546.31 274.73 547.88 276.79 549.24 278.99 550.35 281.34 551.05 283.83 551.63 286.35 552.08 288.88 552.33 291.31"/><polygon class="cls-6" points="524.16 260.61 524.43 257.99 524.88 255.44 525.57 252.96 526.29 250.46 527.35 248.09 528.97 246.04 530.42 243.91 531.82 241.71 533.7 239.92 535.82 238.43 537.94 236.97 540.18 235.71 542.47 234.53 544.89 233.67 547.36 232.94 549.87 232.29 552.55 232.05 552.04 234.7 551.99 237.31 551.24 239.8 550.35 242.24 549.07 244.5 547.84 246.77 546.24 248.79 544.82 250.98 542.78 252.6 540.85 254.3 538.74 255.78 536.54 257.12 534.24 258.29 531.82 259.19 529.3 259.78 526.76 260.21 524.16 260.61"/><polygon class="cls-6" points="645.98 198.8 643.42 198.69 640.87 198.24 638.36 197.57 635.89 196.74 633.63 195.46 631.49 194.01 629.42 192.48 627.36 190.94 625.62 189.03 623.84 187.16 622.5 184.95 620.95 182.86 619.82 180.52 618.9 178.09 618.5 175.52 617.87 173 617.86 170.52 620.33 170.68 622.87 171.13 625.37 171.78 627.78 172.71 630.15 173.75 632.36 175.1 634.4 176.68 636.39 178.32 638.2 180.16 640.03 182 641.58 184.09 642.61 186.48 643.9 188.74 644.67 191.21 645.19 193.74 645.74 196.26 645.98 198.8"/><polygon class="cls-6" points="617.72 229.74 618.13 227.14 618.51 224.59 619.18 222.1 619.92 219.62 621.09 217.32 622.27 215.01 623.7 212.84 625.59 211.05 627.19 208.99 629.39 207.58 631.35 205.89 633.57 204.54 636.03 203.7 638.41 202.71 640.86 201.84 643.43 201.49 645.98 201.31 645.78 203.85 645.32 206.4 644.67 208.9 643.61 211.25 642.56 213.6 641.34 215.87 639.89 218 638.26 220.01 636.45 221.85 634.36 223.38 632.27 224.87 630.22 226.48 627.73 227.28 625.38 228.35 622.84 228.83 620.32 229.34 617.72 229.74"/><polygon class="cls-6" points="615.01 229.76 612.4 229.28 609.82 229.06 607.4 228.13 604.87 227.53 602.63 226.21 600.29 225.09 598.26 223.48 596.25 221.86 594.4 220.05 592.79 218.02 591.41 215.84 590.13 213.61 588.85 211.35 588.09 208.88 587.27 206.42 586.97 203.85 586.57 201.15 589.26 201.65 591.79 202.11 594.36 202.52 596.67 203.7 599 204.8 601.25 206.05 603.5 207.35 605.32 209.2 607.11 211.06 608.89 212.93 610.18 215.17 611.75 217.25 612.69 219.67 613.57 222.09 614.41 224.55 614.61 227.14 615.01 229.76"/><polygon class="cls-6" points="586.61 198.92 586.8 196.24 587.51 193.74 588.22 191.27 589.05 188.83 589.88 186.37 591.13 184.09 592.9 182.17 594.4 180.06 596.31 178.31 598.21 176.55 600.31 175.04 602.65 173.93 604.96 172.81 607.35 171.82 609.88 171.31 612.36 170.52 614.95 170.41 614.87 173 614.11 175.5 613.78 178.08 612.73 180.46 611.58 182.77 610.37 185.05 608.99 187.26 607.19 189.13 605.27 190.85 603.49 192.75 601.37 194.24 599.1 195.5 596.76 196.61 594.35 197.57 591.79 197.99 589.29 198.74 586.61 198.92"/><polygon class="cls-6" points="646.13 260.69 643.44 260.24 640.85 260.05 638.43 259.09 635.91 258.43 633.57 257.3 631.51 255.71 629.26 254.42 627.21 252.84 625.66 250.73 623.89 248.86 622.35 246.78 620.97 244.59 619.8 242.27 619.21 239.73 618.36 237.28 617.86 234.74 617.84 232.23 620.31 232.55 622.89 232.77 625.34 233.63 627.72 234.59 630.18 235.44 632.33 236.89 634.48 238.32 636.45 240 638.27 241.83 639.93 243.81 641.58 245.83 642.66 248.19 643.91 250.47 644.81 252.9 645.26 255.46 645.95 257.97 646.13 260.69"/><polygon class="cls-6" points="617.76 291.43 617.92 288.85 618.41 286.31 619.04 283.8 619.99 281.39 621.25 279.14 622.46 276.87 623.99 274.79 625.4 272.61 627.28 270.82 629.25 269.14 631.48 267.82 633.72 266.56 635.91 265.14 638.43 264.49 640.91 263.82 643.43 263.27 645.98 263.04 645.67 265.58 645.25 268.12 644.71 270.65 643.67 273.01 642.76 275.44 641.45 277.67 639.87 279.72 638.4 281.87 636.3 283.43 634.38 285.14 632.28 286.62 630.05 287.9 627.71 288.97 625.35 290 622.89 290.81 620.32 291.13 617.76 291.43"/><polygon class="cls-6" points="614.91 291.4 612.38 291.12 609.85 290.64 607.37 289.94 604.98 289 602.51 288.18 600.33 286.77 598.26 285.22 596.39 283.44 594.48 281.71 592.64 279.87 591.37 277.6 590.03 275.39 588.94 273.05 588.13 270.6 587.56 268.09 586.71 265.62 586.78 263.1 589.27 263.28 591.81 263.74 594.35 264.28 596.72 265.32 599.13 266.29 601.32 267.68 603.47 269.12 605.33 270.93 607.12 272.78 608.89 274.67 610.32 276.82 611.49 279.12 612.59 281.44 613.61 283.82 614.19 286.33 614.92 288.83 614.91 291.4"/><polygon class="cls-6" points="586.57 260.69 586.76 257.97 587.37 255.44 588.01 252.94 588.84 250.49 589.88 248.1 591.22 245.88 592.81 243.83 594.35 241.75 596.26 240 598.16 238.23 600.42 236.94 602.58 235.53 604.97 234.55 607.36 233.58 609.88 233.04 612.36 232.28 614.86 232.24 614.66 234.71 614.3 237.27 613.6 239.76 612.87 242.25 611.63 244.53 610.32 246.76 608.88 248.9 607.07 250.75 605.39 252.72 603.45 254.44 601.34 255.93 599.11 257.26 596.72 258.25 594.29 259.12 591.78 259.7 589.28 260.34 586.57 260.69"/><polygon class="cls-6" points="521.18 260.48 518.69 260.37 516.15 259.87 513.66 259.18 511.16 258.48 508.81 257.36 506.73 255.78 504.63 254.29 502.68 252.61 500.74 250.9 498.96 249.01 497.61 246.78 496.23 244.59 495.2 242.21 494.18 239.82 493.75 237.25 493.41 234.7 492.9 232.03 495.59 232.44 498.16 232.74 500.58 233.69 503.06 234.41 505.46 235.4 507.58 236.9 509.79 238.26 511.63 240.09 513.42 241.93 515.13 243.87 516.54 246.02 518.03 248.14 519.14 250.48 519.79 252.99 520.64 255.43 521 258 521.18 260.48"/><polygon class="cls-6" points="492.99 229.73 493.24 227.12 493.83 224.61 494.31 222.06 495.43 219.73 496.21 217.24 497.59 215.04 499.06 212.91 500.76 210.96 502.54 209.08 504.6 207.51 506.78 206.14 508.81 204.5 511.21 203.5 513.64 202.59 516.11 201.8 518.68 201.37 521.37 201.18 521.2 203.87 520.6 206.4 519.74 208.84 518.87 211.25 518.1 213.74 516.62 215.88 515.31 218.12 513.47 219.96 511.82 221.97 509.64 223.39 507.63 225.01 505.48 226.47 503.03 227.36 500.61 228.25 498.16 229.08 495.58 229.38 492.99 229.73"/></g></g></svg>