<svg id="mockup" xmlns="http://www.w3.org/2000/svg" xmlns:xlink="http://www.w3.org/1999/xlink" viewBox="0 0 182.21484 32.6885"><defs><style>.cls-1,.cls-5{fill:none;}.cls-2{clip-path:url(#clip-path);}.cls-3{fill:#b59664;}.cls-4{fill:#f1c49d;}.cls-5{stroke:#f1c49d;stroke-miterlimit:10;}</style><clipPath id="clip-path"><rect class="cls-1" x="-978.48398" y="-659.14685" width="802.80827" height="919.64345" transform="translate(-1154.15969 -398.65026) rotate(-180)"/></clipPath></defs><g class="cls-2"><path class="cls-3" d="M-155.81648-635.7555c-62.079-7.34007-124.69752,6.91387-184.3214,25.6935-37.23925,11.72918-74.28565,25.44712-106.92492,46.87173C-483.472-539.291-513.483-506.39793-550.81774-483.972c-66.30506,39.8275-151.91873,44.48248-210.13268,95.41112-42.497,37.17863-63.80416,97.10162-54.319,152.76383C-801.59747-155.565-731.797-96.84294-659.76952-58.94647c41.77192,21.97782,86.431,39.91366,122.42135,70.45231,64.12889,54.41478,95.04462,144.05,167.69866,186.41592,39.68181,23.13923,86.78785,28.92489,132.41555,34.23365,47.0609,5.47552,94.91675,10.93334,141.57839,2.72354,34.46189-6.06333,67.2192-19.429,98.7638-34.57242,29.99932-14.40161,60.25881-31.4267,79.38663-58.657,11.43448-16.27815,18.25636-35.41789,22.437-54.86648C133.5083-46.15526,43.08951-181.33286,63.85265-315.71324c4.777-30.91722,15.37066-60.73322,19.7484-91.70951s1.67256-64.88432-17.39653-89.685C49.94194-518.25835,27.55408-523.36557,6.336-536.802c-16.6798-10.56255-25.57112-31.53449-40.6667-45.54522C-67.2866-612.93474-111.5082-630.51659-155.81648-635.7555Z"/></g><path class="cls-4" d="M51.27381,15.31641,53.63612,17.044c-.20313.35546-.50781.50781-1.21875.50781H47.03065v6.42773c0,.127-.63477.5586-1.67676.5586h-.33008V17.55176H39.0785l-.15234-.584h6.09765V12.08984H40.14588l-.15234-.585h5.03027V6.85547H39.58729l-.127-.48242a1.84146,1.84146,0,0,1-.71192.10156H29.70448L29.55116,5.916h7.06347l1.11719-1.499L39.91737,5.9668a1.01584,1.01584,0,0,1-.25391.30468h7.67188c.585-1.60058,1.27051-3.81054,1.67676-5.38574l3.04882.91406c-.10156.28028-.35547.40723-.93945.35645a34.37288,34.37288,0,0,1-3.15039,4.11523h1.80371l1.16895-1.5498,2.23535,1.626c-.20313.35547-.50781.50781-1.19434.50781h-4.9541v4.64941H49.2162l1.19336-1.57519,2.23632,1.65136c-.20312.35645-.50878.50879-1.19433.50879h-4.4209v4.87793h2.998ZM38.51991,2.74023c-.20313.38086-.50781.50782-1.169.50782H30.89784l-.17774-.5586h4.52246l1.11817-1.47363ZM36.64,7.82129l2.00683,1.44824c-.20312.35547-.48242.48242-1.14355.48242H30.92323l-.15235-.55859h4.80176Zm-5.7168,5.2334-.15235-.5586h4.80176L36.64,11.09863l2.00683,1.44825c-.20312.35546-.48242.50781-1.14355.50781ZM36.767,14.75684l2.3623,1.65136a1.65947,1.65947,0,0,1-1.041.4834v6.07129c0,.07617-.50879.61035-1.87989.61035V21.99805H32.67616v1.85449c0,.05078-.2793.68555-1.87988.68555V14.96l2.00683.88965H35.9535Zm-4.09082,6.65625h3.53222V16.4082H32.67616Zm8.48633-20.375c2.59082,1.11816,3.45507,2.56543,3.45507,3.60742A1.288,1.288,0,0,1,43.474,6.06836a1.142,1.142,0,0,1-.88965-.457A7.42346,7.42346,0,0,0,40.9076,1.21582Z"/><path class="cls-4" d="M59.06874,16.10352c-.07618.30468-.22852.457-.83887.48242a15.465,15.465,0,0,1-2.87012,5.94531l-.40722-.22852a25.14515,25.14515,0,0,0,1.60058-6.75781Zm-3.78516-11.001a9.16907,9.16907,0,0,1,2.00684.71191C57.849,4.44238,58.53553,2.5625,59.04335.86035L61.83827,1.876c-.10157.30566-.33106.43261-.94043.38183a37.66691,37.66691,0,0,1-2.998,3.91211,2.30014,2.30014,0,0,1,1.14356,1.80371.99623.99623,0,0,1-.94043,1.09278,1.12057,1.12057,0,0,1-.73633-.33008,7.08527,7.08527,0,0,0-2.26074-3.42969Zm9.6543-.20313c-.10157.20313-.28028.2793-.585.2793a1.56663,1.56663,0,0,1-.457-.05078,64.87839,64.87839,0,0,1-5.36035,6.91113c1.29492-.02539,2.76856-.07617,4.293-.15234a9.47739,9.47739,0,0,0-1.14258-1.88086l.22852-.17773c2.59082,1.14355,3.42969,2.51562,3.42969,3.48046a1.13542,1.13542,0,0,1-1.0166,1.24512,1.09534,1.09534,0,0,1-.8125-.40625,6.79066,6.79066,0,0,0-.458-1.70215q-.79982.19044-1.75293.38086V23.92871a1.922,1.922,0,0,1-1.626.60938h-.30469V13.23242l-2.82031.55957a.74968.74968,0,0,1-.63476.50781l-.8125-2.21c.60937,0,1.52343,0,2.6416-.02539a90.08511,90.08511,0,0,0,4.44629-8.38379ZM62.44764,15.51953c2.15918,1.39746,2.8711,2.8457,2.8711,3.86133,0,.86426-.50782,1.44824-1.06739,1.44824a1.08425,1.08425,0,0,1-.8125-.457,11.11524,11.11524,0,0,0-1.2959-4.70019ZM76.19276,2.08008l2.43848,1.90527a2.00969,2.00969,0,0,1-1.11817.457V23.624a2.1396,2.1396,0,0,1-1.70215.68555h-.33007V22.252H68.01112v1.626a1.91806,1.91806,0,0,1-1.65137.66016h-.30469V2.46094l2.26172.91406h6.91016ZM70.806,3.93457H68.01112v8.46H70.806Zm-2.79492,9.04395v8.71484H70.806V12.97852Zm7.46973-9.04395H72.71131v8.46h2.76954ZM72.71131,21.69336h2.76954V12.97852H72.71131Z"/><path class="cls-4" d="M80.30213,12.01367c4.64942-2.43945,8.96875-7.165,10.11231-11.12793l3.582.71094c-.07617.30469-.38086.458-1.09277.50879,2.41406,3.42969,7.08886,6.19824,11.50879,7.69726l-.05079.38184a2.5386,2.5386,0,0,0-1.8291,1.87988,21.73964,21.73964,0,0,1-3.6582-2.10937c-.10156.25488-.35547.40722-.99121.4834V23.85254c0,.05078-.33008.66016-2.083.66016V9.52344L98.5951,9.752a19.63181,19.63181,0,0,1-6.14843-7.34179c-1.98145,3.98828-6.65625,7.876-11.96582,9.959ZM80.8617,24.208c4.87793-2.51465,5.74122-6.377,5.74122-10.06055v-4.624l3.04882.2539c-.05078.35547-.2539.50879-.99023.61036v3.75976c-.05078,3.9375-1.169,8.15527-7.5459,10.39063Z"/><path class="cls-4" d="M109.8451,16.10352c-.07617.30468-.2539.457-.86425.48242a15.465,15.465,0,0,1-2.87012,5.94531l-.40723-.22852a26.06891,26.06891,0,0,0,1.626-6.75781Zm5.84375-11.20411c-.10156.20313-.28027.2793-.585.2793a1.5666,1.5666,0,0,1-.457-.05078,64.881,64.881,0,0,1-5.36035,6.91113c1.29492-.02539,2.76855-.07617,4.293-.15234a9.47739,9.47739,0,0,0-1.14258-1.88086l.22852-.17773c2.59082,1.14355,3.42968,2.51562,3.42968,3.48046a1.13541,1.13541,0,0,1-1.0166,1.24512,1.09535,1.09535,0,0,1-.8125-.40625,5.65576,5.65576,0,0,0-.458-1.70215q-.76172.19044-1.75293.38086V23.92871a1.89729,1.89729,0,0,1-1.60058.60938h-.33008V13.23242l-2.82031.55957a.7497.7497,0,0,1-.63477.50781l-.8125-2.21c.60938,0,1.52344,0,2.6416-.02539a90.08034,90.08034,0,0,0,4.44629-8.38379Zm-9.6289.20313a8.46215,8.46215,0,0,1,1.98144.71191c.5586-1.37207,1.24512-3.27734,1.75293-4.9541L112.58924,1.876c-.10156.30566-.33105.43261-.94043.38183a37.66686,37.66686,0,0,1-2.998,3.91211,2.30015,2.30015,0,0,1,1.14355,1.80371.99623.99623,0,0,1-.94043,1.09278,1.12061,1.12061,0,0,1-.73633-.33008,7.21572,7.21572,0,0,0-2.23535-3.42969Zm7.13867,10.417c2.15918,1.39746,2.87109,2.8457,2.87109,3.86133,0,.86426-.50879,1.44824-1.06738,1.44824a1.08423,1.08423,0,0,1-.8125-.457,11.11524,11.11524,0,0,0-1.2959-4.70019ZM127.223,1.46973l2.23535,1.70215a1.42643,1.42643,0,0,1-.96582.43164c-.12695,4.80175-.40625,7.39355-1.3457,8.12988a3.77228,3.77228,0,0,1-2.56641.71191c0-1.19433-.35546-1.499-2.43847-1.80371l.02539-.40625c.78711.02539,2.31152.07617,2.81933.07617.43262,0,.61036,0,.7627-.17871.48242-.48242.66016-2.87011.78711-6.98633h-4.14063a11.2635,11.2635,0,0,1-6.07226,9.70508l-.35547-.35547c3.60742-3.02343,4.06445-6.5039,4.2168-9.34961h-3.63282l-.17773-.55859H126.308Zm-1.5498,12.85547.91406-1.169,2.33789,1.75293a1.50046,1.50046,0,0,1-.99121.43262V23.751a2.24073,2.24073,0,0,1-1.70215.55859h-.33008v-1.626h-6.63086v1.19434a1.96421,1.96421,0,0,1-1.65136.63477h-.33008V13.41113l2.26074.91407Zm-6.40235,7.77441h6.63086V14.90918h-6.63086Z"/><polyline class="cls-5" points="0 32.189 180.431 32.189 153.771 15.968"/></svg>