<svg id="圖層_1" data-name="圖層 1" xmlns="http://www.w3.org/2000/svg" xmlns:xlink="http://www.w3.org/1999/xlink" viewBox="0 0 197.8038 130.5357"><defs><style>.cls-1{fill:#040000;}.cls-2{mask:url(#mask);}.cls-3{opacity:0.78;}.cls-4{fill:#353535;}.cls-5{fill:#fff;}.cls-6{filter:url(#luminosity-noclip);}</style><filter id="luminosity-noclip" x="-90.45753" y="-29.10301" width="337.99854" height="293.90979" filterUnits="userSpaceOnUse" color-interpolation-filters="sRGB"><feFlood flood-color="#fff" result="bg"/><feBlend in="SourceGraphic" in2="bg"/></filter><mask id="mask" x="-90.45753" y="-29.10301" width="337.99854" height="293.90979" maskUnits="userSpaceOnUse"><g class="cls-6"><path class="cls-1" d="M1.03591,4.80205a3.6799,3.6799,0,0,0,.6061.127c.01145-.01267.2006-.26671.39413-.5369l.6636-.966a1.73507,1.73507,0,0,0,.27946-.55461,4.29853,4.29853,0,0,0-.65759-.28831l-.71688-.25087a1.05634,1.05634,0,0,0-.97627.30886L-.20723,3.7055a.44885.44885,0,0,0,.21449.711Z"/><path class="cls-1" d="M41.39026,103.948a2.83152,2.83152,0,0,0,.5473.28644l.6493.30569c.32413.11029.63039.15463.68066.09851a3.08477,3.08477,0,0,0,.31137-.8179l.14944-.61763c.0847-.33168.03841-.67643-.1029-.76609a1.14146,1.14146,0,0,0-1.00113.12872l-.79955.84617C41.60661,103.67577,41.40074,103.93249,41.39026,103.948Z"/><path class="cls-1" d="M92.987,29.96283c-.03939.22245.0402.273.17688.11216s.41558-.67083.31885-.71371S93.02635,29.74031,92.987,29.96283Z"/><path class="cls-1" d="M31.24657,110.882a.53406.53406,0,0,0-.19889-.04759.883.883,0,0,0-.22375.58011l-.07918,1.26442c-.029.31584.10834.37082.30528.12223l.7-.93835c.17315-.26565.22984-.54624.126-.6234S31.30756,110.91006,31.24657,110.882Z"/><path class="cls-1" d="M32.19742,16.12237a1.86586,1.86586,0,0,0,.69682.11955.718.718,0,0,0,.3653-.61471l-.23536-1.53982a.42084.42084,0,0,0-.61065-.27385L29.9651,14.93429c-.26119.12012-.25729.30748.00877.41655Z"/><path class="cls-1" d="M77.61147,28.26961c-.29123.12141-.31429.279-.05124.35027s1.03523.04,1.07641-.13359-.18387-.57435-.47624-.4557Z"/><path class="cls-1" d="M81.79918,30.55293a.21008.21008,0,0,0,.20613-.16259c.01867-.093-.12824-.333-.30326-.30268s-.61828.1353-.59521.1872.12547.20417.17566.21684S81.70449,30.54936,81.79918,30.55293Z"/><path class="cls-1" d="M90.37805,59.76491a.3396.3396,0,0,0-.10956-.6126c-.29822-.126-1.16712-.30082-1.26824-.076s-.26548.88191-.10695.98212A2.677,2.677,0,0,0,90.37805,59.76491Z"/><path class="cls-1" d="M69.92166,60.22441a.67575.67575,0,0,0,.69137.54974c.32137-.02428,1.17411-.26736,1.12173-.38974a6.79194,6.79194,0,0,0-.58417-.93989l-.53252-.6714c-.20174-.26345-.43831-.46235-.52578-.44188a.81293.81293,0,0,0-.27954.68Z"/><path class="cls-1" d="M14.56062,33.514a.37657.37657,0,0,0,.04994.51173l.42093.3281a.41961.41961,0,0,0,.52936-.08162l.50157-.62209a.37646.37646,0,0,0-.07488-.50865l-.3696-.2676a.46739.46739,0,0,0-.55087.074Z"/><path class="cls-1" d="M39.13333,9.278a.536.536,0,0,0,.32071.65361c.24941.07748,1.11685-.00032,1.28026-.24137l.70006-1.18036a.31055.31055,0,0,0-.28043-.49345l-1.10557-.06327a.81549.81549,0,0,0-.68317.53569Z"/><path class="cls-1" d="M7.13921,95.07433a1.83645,1.83645,0,0,0,.55331.30675.41086.41086,0,0,0,.42159-.48875l-.2404-1.2256c-.06213-.34272-.3082-.41557-.54689-.16194a4.68128,4.68128,0,0,0-.39519.51368A1.09826,1.09826,0,0,0,7.13921,95.07433Z"/><path class="cls-1" d="M35.15206,83.95348a.52425.52425,0,0,0,.58775-.07236l.77819-.7773c.13676-.15082.21782-.31755.18013-.37066a1.71272,1.71272,0,0,0-.38926-.30658,1.06523,1.06523,0,0,0-.78477.00219l-.8041.73141a.32631.32631,0,0,0,.0264.49411Z"/><path class="cls-1" d="M109.91526,59.87487a.47049.47049,0,0,0,.61251-.06375c.16584-.17088.34167-.92259.121-1.13732l-.70234-.64809c-.23739-.19613-.4539-.10574-.48111.201l-.08958.58928A1.89881,1.89881,0,0,0,109.91526,59.87487Z"/><path class="cls-1" d="M71.03916,125.24885c.29408-.002.39673-.20076.22813-.44164l-.2961-.48533a1.02148,1.02148,0,0,0-.6714-.44108c-.2006-.0017-.76715.19646-.79127.42053s.29351.8737.58661.89758Z"/><path class="cls-1" d="M7.67961,120.78363a.31614.31614,0,0,0,.313-.21326l.08235-.30521A.29793.29793,0,0,0,7.9,119.93779l-.9057-.32331c-.12873-.03655-.23812-.06676-.24307-.06708a1.25938,1.25938,0,0,0-.11305.22277l-.22.62112a.203.203,0,0,0,.18054.26053Z"/><path class="cls-1" d="M113.45675,14.25624c-.01689.03939.18013.2023.43782.36213l.52253.34086c.2659.14577.549.17249.62909.05944a.44124.44124,0,0,0-.27175-.57791l-.71841-.19A.94259.94259,0,0,0,113.45675,14.25624Z"/><path class="cls-1" d="M43.12735,42.66833c-.04.29757.12774.50857.37277.46885s.85672-.38934.76349-.67472L43.904,41.38808c-.08649-.2875-.19727-.51953-.24632-.51563a.96079.96079,0,0,0-.28863.552Z"/><path class="cls-1" d="M197.42683,44.70567a1.7626,1.7626,0,0,0-.22219.82692l-.157,1.78305a1.143,1.143,0,0,0,.34256.92965,3.12983,3.12983,0,0,0,.96189.49784,1.83887,1.83887,0,0,0,.239-.8231l.15455-2.68907c.02274-.34338-.10516-.66531-.28424-.71542A2.162,2.162,0,0,0,197.42683,44.70567Z"/><path class="cls-1" d="M100.33389,38.17209a5.087,5.087,0,0,0-.58856.12865c-.2827.07284-1.06292.42612-1.08542.65531s.275.86809.61.86688l1.55224.00666a.32935.32935,0,0,0,.28741-.548l-.32331-.57362A1.67139,1.67139,0,0,0,100.33389,38.17209Z"/><path class="cls-1" d="M118.49907,123.79805a3.63894,3.63894,0,0,0-.32713-.64728,1.13373,1.13373,0,0,0-.66627.25339l-1.034.70916a.93018.93018,0,0,0-.34865.92356c.0895.29733.67269,1.00218,1.00583.89027l1.266-.46739a.74377.74377,0,0,0,.38236-.87775Z"/><path class="cls-1" d="M107.049,69.96926c.01177.00342.02095-.00966.0203-.02907s-.01259-.05027-.02242-.037S107.0372,69.96585,107.049,69.96926Z"/><path class="cls-1" d="M143.00292,47.23466a.39106.39106,0,0,0,.37147-.52618l-.26963-.99731c-.06457-.29732-.22545-.31624-.35742-.04206l-.43206.9545C142.21027,46.90924,142.73312,47.22687,143.00292,47.23466Z"/><path class="cls-1" d="M190.26873,88.66705a1.55918,1.55918,0,0,0,.11613.55453,5.82493,5.82493,0,0,0,.74514.28319l3.54271,1.03791c.3346.10542.60845.19037.6087.18882s-.2313-.17477-.51481-.38121l-3.75436-2.72335c-.28961-.19808-.573-.29748-.63006-.221A5.21357,5.21357,0,0,0,190.26873,88.66705Z"/><path class="cls-1" d="M121.93328,36.43168a.73567.73567,0,0,0,.63388.64045l2.46443.29432c.31893.04369.62324-.06781.67619-.24778s-.07155-.78631-.3675-.913l-3.0162-1.31469a.32793.32793,0,0,0-.484.36952Z"/><path class="cls-1" d="M183.47852,101.967a.72077.72077,0,0,0,.61479.468c.25769.008.98821-.07318,1.02548-.2222a.83386.83386,0,0,0-.48509-.72939l-.83041-.22528C183.48631,101.19266,183.398,101.71763,183.47852,101.967Z"/><path class="cls-1" d="M14.59822,1.40926a.49431.49431,0,0,0,.46649-.63338L14.92925.11106a1.23519,1.23519,0,0,0-.55169-.797c-.23414-.10745-.96994-.03484-1.074.28684L12.98417.81275a.49854.49854,0,0,0,.51937.59513Z"/><path class="cls-1" d="M156.41189,65.01733c.24494.2179.48761.13124.53926-.19248l.38666-1.96253c.05709-.32282-.00585-.63087-.13977-.68447a1.06169,1.06169,0,0,0-.8776.25615l-.68926.89221a.8567.8567,0,0,0,.06278.95589Z"/><path class="cls-1" d="M176.32561,6.79139c.10086.06009.37732-.10266.61446-.36165l.80922-.94322a.36535.36535,0,0,0-.25006-.62543l-.80483-.18443a.54047.54047,0,0,0-.65385.52334l-.02031.72483A1.3104,1.3104,0,0,0,176.32561,6.79139Z"/><path class="cls-1" d="M172.47136,54.6062c.21213-.13579.36912-.31438.34889-.39681a2.37708,2.37708,0,0,0-.4794-.67521l-.6688-.53187c-.226-.19621-.36611-.116-.31137.17818l.24916,1.31486C171.684,54.78528,172.25923,54.742,172.47136,54.6062Z"/><path class="cls-1" d="M175.01246,99.02474c-.11158.08535-.10054.39892.02453.697l.47973,1.0739c.1448.28895.379.50352.5205.4768s.49759-.32575.50791-.51327a2.22092,2.22092,0,0,0-.3502-1.08851C175.98045,99.43259,175.12413,98.93946,175.01246,99.02474Z"/><path class="cls-1" d="M102.80425,71.79284c.33517-.02274.61236-.18582.61593-.36221a.58.58,0,0,0-.71054-.38138l-.96994.48955c-.302.14732-.27418.27142.06181.27581Z"/><path class="cls-1" d="M189.87809,61.0234a.72159.72159,0,0,0-.18907.47729,1.77756,1.77756,0,0,0,.41492,1.10768c.26915.19848,1.09631.79354,1.20367.83431s.42686.07138.49346-.01194a1.179,1.179,0,0,0-.11013-.88353l-.58409-.87776a3.28952,3.28952,0,0,0-.55063-.61763A1.41877,1.41877,0,0,0,189.87809,61.0234Z"/><path class="cls-1" d="M107.35913,47.25773a.31.31,0,0,0,.14635.40355c.15463.09007.59221.16292.57637-.03378a1.96347,1.96347,0,0,0-.1543-.7103A1.16369,1.16369,0,0,0,107.35913,47.25773Z"/><path class="cls-1" d="M155.62,93.83412a.75467.75467,0,0,0-.47818.81758l.197.88515a.55766.55766,0,0,0,.75765.3601l3.04373-1.14845a1.66989,1.66989,0,0,0,.5676-.29294,2.60337,2.60337,0,0,0-.36782-.50636,2.57634,2.57634,0,0,0-1.26653-.70843,13.282,13.282,0,0,0-1.82706.375Z"/><path class="cls-1" d="M95.50776,31.58427c.24218.07585.44229.13806.44481.13814s-.00658-.23641-.02534-.52586a4.29162,4.29162,0,0,0-.16056-1.04465.60029.60029,0,0,0-.52253.26378C95.09316,30.635,95.26558,31.50841,95.50776,31.58427Z"/><path class="cls-1" d="M157.53589,62.22731c-.11817.332-.12288.65986-.0104.72857a2.94438,2.94438,0,0,0,1.00024.21611c.31494-.00763,1.27253-.28539,1.397-.61511l.59295-1.579a.57061.57061,0,0,0-.42166-.75026l-.979-.21489a.87239.87239,0,0,0-.881.49946Z"/><path class="cls-1" d="M172.70412,20.97587c.20661.01957.2369-.03265.06724-.116s-.66075-.22951-.691-.17575S172.49743,20.95638,172.70412,20.97587Z"/><path class="cls-1" d="M118.01975,87.56855c-.11021.21522.06513.4176.38959.44968l1.75575.20758c.324.03712.5525-.0549.50792-.20449a1.51258,1.51258,0,0,0-.72719-.69657l-.91829-.30326C118.71551,86.927,118.12987,87.35333,118.01975,87.56855Z"/><path class="cls-1" d="M167.33856,62.16534a1.46769,1.46769,0,0,0,.24811.31536,4.91012,4.91012,0,0,0,1.06488.76389l1.38672.5975c.292.125.51133.0514.48745-.16365s-.11524-.88945-.15325-.99552a1.09813,1.09813,0,0,0-.7081-.43133l-1.73083-.09908A1.7782,1.7782,0,0,0,167.33856,62.16534Z"/><path class="cls-1" d="M127.0552,61.60944c.26451.12247.53991.14407.61194.04791a1.10524,1.10524,0,0,0,.09762-.47591,1.60415,1.60415,0,0,0-.579-.17144l-1.20513-.14887c-.2888-.03931-.31487.041-.05783.17851Z"/><path class="cls-1" d="M111.25455,92.28634a1.54516,1.54516,0,0,0,.137-.77811c-.01421-.30479-.11914-1.15616-.233-1.189a2.78952,2.78952,0,0,0-.62161-.07228.5038.5038,0,0,0-.22463.58961l.43749,1.35758A.289.289,0,0,0,111.25455,92.28634Z"/><path class="cls-1" d="M175.42771,107.98246a1.57672,1.57672,0,0,0,.466-.98926l-.06018-1.58522c-.00211-.32778-.041-.59538-.08649-.59473a1.72086,1.72086,0,0,0-.52813.47762l-2.04464,2.76745c-.1846.27084-.33622.5058-.337.52212a1.20113,1.20113,0,0,0,1.58944.27864Z"/><path class="cls-1" d="M180.90249,104.81667c-.081-.304-.30414-.51514-.496-.46918s-.692.52684-.66839.84057l.12661,1.19571c.04857.31088.27378.4768.50036.36887s.80353-.73539.73694-1.04287Z"/><path class="cls-1" d="M27.9605,16.86937a.99094.99094,0,0,0,.93647.3165s1.54761-.3934,2.69728-.7985c.44651-.15723.79995-.28953.79995-.28953.30342-.11345.4185-.37918.25583-.59042a2.2388,2.2388,0,0,0-1.31632-.62665l-3.23231.842a.52384.52384,0,0,0-.39307.65531A2.23808,2.23808,0,0,0,27.9605,16.86937Z"/><path class="cls-1" d="M190.582,30.33845a2.14066,2.14066,0,0,0,.70282-.99633,5.22309,5.22309,0,0,0,.05149-.82847c-.02071-.31868-.249-.37959-.50734-.1353l-4.40675,4.20079c-.25257.25022-.41549.486-.36213.52383a1.38922,1.38922,0,0,0,.77137-.23057Z"/><path class="cls-1" d="M162.49871,103.33776a.48386.48386,0,0,0,.59359-.39429l.32989-1.89935c.04483-.28392-.07358-.33939-.26313-.12328l-1.18792,1.52422C161.8036,102.67863,162.2216,103.27141,162.49871,103.33776Z"/><path class="cls-1" d="M186.07582,117.721a.73662.73662,0,0,0-.23926-.87654c-.26378-.17315-1.202-.47007-1.40963-.32689a2.22274,2.22274,0,0,0-.71078,1.15754l.05344,2.38891a1.12739,1.12739,0,0,0,.18826.74513.60805.60805,0,0,0,.68332-.28611Z"/><path class="cls-1" d="M145.25733,43.6252a.65759.65759,0,0,0,.22764.81392l1.11336.59441c.2858.11979.44539-.02461.35458-.321l-.59318-1.948c-.08958-.29667-.31966-.3402-.51141-.09672Z"/><path class="cls-1" d="M108.04019,69.13c.06944-.22837-.10468-.39665-.38682-.37407s-.98334.19946-.92.37772.31487.65516.45252.68033A1.69684,1.69684,0,0,0,108.04019,69.13Z"/><path class="cls-1" d="M129.56876,89.68531c-.03045-.28523-.16892-.31316-.3078-.06221l-.52756,1.01046c-.11662.26208-.03143.49475.18931.517s.83-.17429.80053-.45967Z"/><path class="cls-1" d="M101.19,107.12411a.90051.90051,0,0,0,.02257.20385,1.03493,1.03493,0,0,0,.65191.47145l1.90089.3722a2.5479,2.5479,0,0,0,.59968.08812,1.71621,1.71621,0,0,0-.54819-.2633l-2.03587-.73255A2.2601,2.2601,0,0,0,101.19,107.12411Z"/><path class="cls-1" d="M147.782,101.02731c.00121.22074.06765.41476.14756.43116a1.66381,1.66381,0,0,0,.65434-.12929c.1954-.096.61788-.49841.50069-.71622s-.51669-.70973-.67441-.62779A2.41427,2.41427,0,0,0,147.782,101.02731Z"/><path class="cls-1" d="M86.02523,83.21167c.19589.13457.41915-.01681.49622-.33639l.1128-.64622c.07772-.31941-.06253-.43254-.31178-.25143S85.82942,83.07718,86.02523,83.21167Z"/><path class="cls-1" d="M153.37677,105.45379c-.22748.23341-.38853.51782-.35791.632a.83874.83874,0,0,0,.67237.39129c.30033-.01689,1.02305-.42588.9035-.72337S153.60425,105.22038,153.37677,105.45379Z"/><path class="cls-1" d="M108.61949,122.01752c-.04662.143.20149.30382.55128.35734l1.82406.33078c.3493.05693.66043.03874.69138-.04028s-.17559-.371-.5175-.46235l-1.73058-.51733A.84288.84288,0,0,0,108.61949,122.01752Z"/><path class="cls-1" d="M123.93228,107.86755c-.04321.10525.13465.35222.39519.54892l.48281.37837c.25616.20239.50393.337.55055.29928s-.02534-.33371-.26013-.56062l-.59343-.62713C124.27289,107.67921,123.9754,107.76237,123.93228,107.86755Z"/><path class="cls-1" d="M175.46011,106.5959c-.0004.13075.235.17737.5231.10355l.53772-.10347c.28847-.07252.48444-.204.43563-.29213a.77684.77684,0,0,0-.58953-.26532C176.13711,106.0715,175.46052,106.46514,175.46011,106.5959Z"/><path class="cls-1" d="M197.49416,127.90089c.08163.3208.25956.33639.39551.0346l.66839-1.61746a.38349.38349,0,0,0-.40038-.54632c-.32713.01283-1.18784.33452-1.10687.65547Z"/><path class="cls-1" d="M131.61227,129.92815c-.00455.216.24291.43539.55006.48736l.98772.14457c.31065.02257.567.03476.56964.027a5.77883,5.77883,0,0,0-.24576-.53333l-.29708-.66409a.63028.63028,0,0,0-.64589-.40136C132.30916,129.049,131.6169,129.712,131.61227,129.92815Z"/><path class="cls-1" d="M137.52147,113.58329c.14367-.02671.23714-.25013.20766-.49646s-.21026-.55891-.31356-.333S137.37772,113.6101,137.52147,113.58329Z"/><path class="cls-1" d="M149.00535,39.03613a.44406.44406,0,0,0,.43628.60943l.88929.03337a.98979.98979,0,0,0,.81758-.6264,11.96556,11.96556,0,0,0,.33477-1.33377,1.3473,1.3473,0,0,0-.56858-.38423c-.28547-.10484-1.23477-.007-1.371.30805Z"/><path class="cls-1" d="M168.42114,27.16234c-.02071.22894.20523.4232.50215.43173l1.66748.0951c.29684.01064.54666-.06724.555-.17307a.84215.84215,0,0,0-.50588-.557l-1.49832-.43571C168.85231,26.45626,168.44185,26.9334,168.42114,27.16234Z"/><path class="cls-1" d="M82.40179,120.41655a.64609.64609,0,0,0,.144.79467l.71266.66815c.24778.20539.50255.13741.56622-.15114s.11435-1.19011-.07277-1.3518S82.55423,120.20287,82.40179,120.41655Z"/><path class="cls-1" d="M121.47727,112.85862c-.0022.07253.23544.20458.52813.29359l.7336.22716c.29668.07471.56135.05425.58816-.04548a1.88283,1.88283,0,0,0,.0298-.465,1.12951,1.12951,0,0,0-.609-.1781l-.69024-.053C121.75234,112.62,121.47954,112.78618,121.47727,112.85862Z"/><path class="cls-1" d="M158.736,60.26933c.04215.32916.23227.5974.42247.59611a5.45034,5.45034,0,0,0,.93185-.14132.49952.49952,0,0,0,.10712-.667l-.5741-.92478c-.17307-.28319-.4055-.49768-.51644-.4768a.86626.86626,0,0,0-.41.69056Z"/><path class="cls-1" d="M90.60285,11.23086a.70176.70176,0,0,0,.69689.39819c.22294-.064.84016-.50352.855-.82846L92.16865,8.734a2.137,2.137,0,0,0-.204-.84617,1.19378,1.19378,0,0,0-.90894-.3804l-1.77615.39372a.41051.41051,0,0,0-.25859.65118Z"/><path class="cls-1" d="M3.9882,23.42918a.429.429,0,0,0,.31844.634l2.252.52293a.40559.40559,0,0,0,.51668-.4548L7.032,23.37769a1.23388,1.23388,0,0,0-.51416-.88279l-.94257-.55356a.65534.65534,0,0,0-.831.20905Z"/><path class="cls-1" d="M141.2625,38.91983a.72278.72278,0,0,0,.583.52383c.22959.00081.907-.1431.97164-.34329s-.05734-.86915-.32616-.97749a9.84082,9.84082,0,0,0-1.22088-.357c-.102-.003-.29335.21822-.196.50336Z"/><path class="cls-1" d="M90.096,115.2243a.79157.79157,0,0,0,.15674.58377c.11744.129.55307.38544.676.28416a.72175.72175,0,0,0,.041-.80109C90.77348,115.10362,90.12718,115.03231,90.096,115.2243Z"/><path class="cls-1" d="M41.42705,121.98535a1.27947,1.27947,0,0,0-.06627-.48013c-.05758-.20385-.36717-.74871-.5832-.75643l-.74359-.03849a.564.564,0,0,0-.516.36351l-.18452.63988a.319.319,0,0,0,.30829.40015l1.31.0808A.6551.6551,0,0,0,41.42705,121.98535Z"/><path class="cls-1" d="M83.37254,89.77407a4.50686,4.50686,0,0,0,.64963.10583l.92762.13863c.31739.03882.61236-.05182.65548-.20141a.97219.97219,0,0,0-.4068-.82335l-.99454-.43368a.56451.56451,0,0,0-.72208.21976A2.9102,2.9102,0,0,0,83.37254,89.77407Z"/><path class="cls-1" d="M44.00486,19.97987c.00909.07211.26435.076.56736.0086l.53268-.12109c.30317-.06643.30739-.12149.00926-.1223A3.08939,3.08939,0,0,0,44.00486,19.97987Z"/><path class="cls-1" d="M150.25726,14.54227c-.29131-.07382-.46048-.04946-.376.05417a3.01645,3.01645,0,0,0,.82026.55981,4.26013,4.26013,0,0,0,1.01915.29269,1.92444,1.92444,0,0,0,.09819-.24892.43641.43641,0,0,0-.15674-.17842A13.79019,13.79019,0,0,0,150.25726,14.54227Z"/><path class="cls-1" d="M136.93884,91.11735a.24258.24258,0,0,0,.03914.22155,2.18177,2.18177,0,0,0,.73077.22017l.52285.03127c.31113.03744.3316-.03646.0454-.16421l-.7038-.34476C137.28554,90.95712,136.96223,91.03874,136.93884,91.11735Z"/><path class="cls-1" d="M41.67824,16.6985a1.92959,1.92959,0,0,0-.04.62738,2.14324,2.14324,0,0,0,.43888-.53951l1.44-2.39743a.601.601,0,0,0-.22675-.82619c-.28807-.146-1.19311-.165-1.23624.18127Z"/><path class="cls-1" d="M99.77993,116.80838a.86211.86211,0,0,0,.92949-.19475l.42191-.48a.71131.71131,0,0,0-.03029-.8914c-.21774-.23747-1.13147-.62681-1.3834-.42467l-.89311.80353a.42877.42877,0,0,0,.1085.70689Z"/><path class="cls-1" d="M106.38383,38.45455c-.19142.27759-.27661.54592-.18939.59636a3.38627,3.38627,0,0,0,.50905.20165,1.25126,1.25126,0,0,0,.7332-.39965l1.05952-1.26556c.20645-.26654.28-.57856.1634-.69324a2.65026,2.65026,0,0,0-.60951-.36538,1.38114,1.38114,0,0,0-.58076.46934Z"/><path class="cls-1" d="M72.922,66.86153c.0281.18785.31487.24657.63713.13043l1.60551-.52569c.32031-.12166.57736-.33785.57126-.48038a3.41293,3.41293,0,0,0-.0908-.56761,2.38375,2.38375,0,0,0-.69137-.12531l-1.03125-.01186a1.04066,1.04066,0,0,0-.77478.33022A4.69218,4.69218,0,0,0,72.922,66.86153Z"/><path class="cls-1" d="M185.43114,74.02988a.42192.42192,0,0,0,.41988.50669l1.80977.162a1.00977,1.00977,0,0,0,.58392-.08755,1.75056,1.75056,0,0,0-.03232-.71931c-.07455-.27767-.47128-.98139-.76032-.944l-1.21878.132C185.94384,73.11419,185.49091,73.77283,185.43114,74.02988Z"/><path class="cls-1" d="M38.927,6.9932a.40571.40571,0,0,0,.21238.682l2.99712,1.02476a4.558,4.558,0,0,0,.61771.15723,4.838,4.838,0,0,0-.03809-.66417L42.58459,6.8112a3.818,3.818,0,0,0-.075-.6528c-.018-.01421-.32859-.15276-.65085-.27742l-.72-.28831a1.15089,1.15089,0,0,0-1.05968.1898Z"/><path class="cls-1" d="M47.55293,121.01737c.07585-.1699.13725-.31657.13636-.32608a3.52092,3.52092,0,0,0-.37489-.324c-.20465-.15918-.85388-.46446-.91016-.3575a2.10719,2.10719,0,0,0-.13157.802c.03314.20889.20279.76122.3303.81758s.55493.08341.64923-.07211Z"/><path class="cls-1" d="M41.05931,43.54756c-.11532-.06433-.21562-.11849-.22285-.12036a3.29392,3.29392,0,0,0-.12409.49971c-.05393.27856-.02518.72857.13351.55923S41.17472,43.61188,41.05931,43.54756Z"/><path class="cls-1" d="M100.14272,22.50156a.56879.56879,0,0,0-.61122-.4388,2.49719,2.49719,0,0,0-1.033.50693,1.07752,1.07752,0,0,0,.3229.73686l1.21066.88409c.225.17956.38374.09234.35271-.19394Z"/><path class="cls-1" d="M96.10224,5.489a2.08592,2.08592,0,0,0-.12393,1.15316c.07659.31226.47965,1.06463.72085,1.07519a2.00351,2.00351,0,0,0,1.2403-.53577l.8707-1.55841a2.26322,2.26322,0,0,0,.18273-1.20441l-.1215-.66473a1.00121,1.00121,0,0,0-.51319-.76325c-.22553-.0713-1.00908.05636-1.1763.36725Z"/><path class="cls-1" d="M2.33217,89.75125a.55538.55538,0,0,0,.293.63136c.20181.05222.83154-.1327.88839-.42751l.15464-.80207c.03873-.29773-.10583-.5235-.32112-.50166A2.43565,2.43565,0,0,0,2.33217,89.75125Z"/><path class="cls-1" d="M179.61428,51.08964a2.28728,2.28728,0,0,0,.05872.9792c.08243.20052.43441.633.60845.57735a1.70623,1.70623,0,0,0,.78615-.84122L181.563,49.341c.05636-.337-.1427-.56379-.44237-.50385s-1.2148.591-1.27652.92713Z"/><path class="cls-1" d="M66.34321,20.38374a6.42779,6.42779,0,0,1,.16641.74831l.56419,3.32262a1.87411,1.87411,0,0,0,.13425.5598.52078.52078,0,0,0,.20637-.18841,1.85842,1.85842,0,0,0,.09185-.92738l-.92316-3.73145c-.069-.30545-.16381-.4937-.21067-.4185A1.58023,1.58023,0,0,0,66.34321,20.38374Z"/><path class="cls-1" d="M56.40231,17.35771a.6932.6932,0,0,0-.10127-.87028c-.22829-.17218-.95743-.22838-.97465.12295l-.09282,1.91511c-.024.35092.12214.40282.32477.11532Z"/><path class="cls-1" d="M83.75173,13.01505c-.19906-.15074-.4219-.12028-.49516.06773a3.789,3.789,0,0,0-.20929,1.11555c.03784.21465.35442.50946.56379.29911l.44229-.47161C84.234,13.79031,83.95086,13.16586,83.75173,13.01505Z"/><path class="cls-1" d="M139.21421,3.48273a.5908.5908,0,0,0,.02477.81523l.61357.48533c.27028.15707.49613.28709.502.28888s.19889-.1777.4159-.40266l1.11693-1.20659a2.32762,2.32762,0,0,0,.45179-.78981c.04459-.19735-.01738-.7708-.23714-.86549a1.82827,1.82827,0,0,0-1.27619.06765Z"/><path class="cls-1" d="M23.67184,128.06494a.09125.09125,0,0,0-.00756.04191c.00244.00422.01438-.01023.01844-.0333S23.67833,128.0461,23.67184,128.06494Z"/><path class="cls-1" d="M69.67542,71.657c.17185.22585.43669.181.58856-.09957l.6329-1.243c.14886-.28222.03224-.40663-.25908-.27645l-.94175.47234C69.42309,70.67558,69.50357,71.43111,69.67542,71.657Z"/><path class="cls-1" d="M117.897,97.83707a1.79986,1.79986,0,0,0-.11386.65141c-.00747.27093.23658,1.04717.57759,1.0972l1.41694.24714a.48308.48308,0,0,0,.57508-.53439l-.03525-.84333a.76888.76888,0,0,0-.64825-.70355l-.93932-.14107A1.21088,1.21088,0,0,0,117.897,97.83707Z"/><path class="cls-1" d="M65.66264,53.76434a.803.803,0,0,0-.08779-.535,2.343,2.343,0,0,0-.61641-.50653,1.52563,1.52563,0,0,0-1.03475.09933l-.58628.53983c-.2036.21992-.28937.498-.19069.618a3.08791,3.08791,0,0,0,.90813.59254l.70713.24925c.282.10143.55437.10005.60545-.00309A10.36129,10.36129,0,0,0,65.66264,53.76434Z"/><path class="cls-1" d="M44.12221.01953a.87717.87717,0,0,0-.17591-.56614A2.56581,2.56581,0,0,0,43.202-1.0023a1.66838,1.66838,0,0,0-1.10589.264L41.543-.06461c-.18736.2689-.23844.583-.11345.698a3.37884,3.37884,0,0,0,1.07324.50474l.80369.163c.3208.06724.61568.02444.65523-.0951A11.34456,11.34456,0,0,0,44.12221.01953Z"/><path class="cls-1" d="M10.07518,55.91066c.00024-.07464-.00325-.2663-.00772-.426s-.02306-.66952-.02964-.75772a1.21542,1.21542,0,0,0-.56826-.56988c-.302-.13888-1.18718-.32031-1.23883-.07488s.08682,1.103.37651,1.2727l.918.52887C9.82268,56.03955,10.07485,55.98521,10.07518,55.91066Z"/><path class="cls-1" d="M28.15476,5.16743a1.68315,1.68315,0,0,0,.31267-.54941l1.07121-2.59454a2.07562,2.07562,0,0,0,.17266-.69559c-.01258-.11565-.18622-.07748-.29082.19052L28.13129,4.77834C28.02782,5.04675,28.09166,5.20325,28.15476,5.16743Z"/><path class="cls-1" d="M79.192,63.061c.19588.027.33305-.2326.30487-.57686l-.08153-.93745c-.025-.34443-.167-.37115-.31544-.05929l-.32136.74538A.76162.76162,0,0,0,79.192,63.061Z"/><path class="cls-1" d="M61.4046,96.21287a1.30976,1.30976,0,0,0,1.01379-.37082,3.61434,3.61434,0,0,0,.68342-1.54843l-.23812-2.69735a1.25638,1.25638,0,0,0-.58539-.918,2.7546,2.7546,0,0,0-1.65928-.20247l-1.15584.82189a1.344,1.344,0,0,0-.471,1.00729l.10729,2.75827a.976.976,0,0,0,.28993.75618,5.49085,5.49085,0,0,0,1.17817.3039Z"/><path class="cls-1" d="M1.45506,20.98188c.03427-.35011-.11793-.63915-.33834-.6424s-.81522.26792-.81149.61966l-.032,2.19708c-.00779.35166.12418.62445.29318.60618a.97329.97329,0,0,0,.66636-.69186Z"/><path class="cls-1" d="M60.81247,14.57451a.66606.66606,0,0,0,.49784.56842c.22074.01649.86054-.12068.90156-.2555a2.20693,2.20693,0,0,0-.08682-.99568l-.596-1.41946c-.11134-.27953-.3268-.46787-.47876-.41849s-.53024.42938-.4863.72711Z"/><path class="cls-1" d="M56.30388,69.42432a.67017.67017,0,0,0,.829-.30886l1.14317-2.17986c.15869-.28879.25136-.5503.20588-.58108a1.10347,1.10347,0,0,0-.64411.26053l-2.19229,1.7945a.40359.40359,0,0,0,.06579.69186C55.99218,69.26116,56.30388,69.42432,56.30388,69.42432Z"/><path class="cls-1" d="M122.16239,45.80855c.10379.30772.26825.306.36562-.00382l.43425-1.63832c.0666-.31788-.11467-.55819-.40282-.534s-1.04027.44343-.93656.75115Z"/><path class="cls-1" d="M64.67118,49.28751c-.30926-.03436-.58132.00958-.60455.09754a.78843.78843,0,0,0,.46617.54778l1.52763.60894c.29375.10241.53032.02429.52561-.17371a2.11615,2.11615,0,0,0-.19507-.82676,4.94918,4.94918,0,0,0-.87053-.168Z"/><path class="cls-1" d="M11.29671,18.46068c.03736-.28506-.12823-.38837-.3679-.22959l-.99454.77884a.57289.57289,0,0,0-.04946.76422l.69868.74944a2.56,2.56,0,0,0,.41541.32989,2.71673,2.71673,0,0,0,.1081-.5529Z"/><path class="cls-1" d="M66.16536,123.2211a1.50931,1.50931,0,0,0-.60488.13685,1.80868,1.80868,0,0,0,.18281.67716l.968,1.82975c.13895.28465.33151.2706.42791-.03119l.57353-2.0794a.44545.44545,0,0,0-.46129-.55639Z"/><path class="cls-1" d="M85.51854,67.65962a.69664.69664,0,0,0,.27141-.81969l-.46641-1.49831c-.12815-.33062-.38032-.35133-.56054-.04589l-.663,1.026a.834.834,0,0,0-.05474.88864A2.60847,2.60847,0,0,0,85.51854,67.65962Z"/><path class="cls-1" d="M42.50191,18.24619c-.05287-.293-.21749-.3216-.366-.06351l-.38341.72614c-.11914.27288-.03752.5313.18127.57434s.81-.10761.758-.40079Z"/><path class="cls-1" d="M39.97868,33.35709c.00975.28327.12483.31722.25574.07544s.33688-.95353.20816-.97586S39.969,33.07381,39.97868,33.35709Z"/><path class="cls-1" d="M140.06509,106.51014a2.19309,2.19309,0,0,0,.32234-.86712,1.478,1.478,0,0,0-.48047-.96832c-.27783-.14772-1.25743-.24388-1.45064.03712l-.887,1.40232c-.16349.29927-.22334.61048-.13295.6917a1.80613,1.80613,0,0,0,2.62873-.2957Z"/><path class="cls-1" d="M154.71615,9.64646a4.33807,4.33807,0,0,0,.09761-.65134l.339-3.27121c.04012-.33574-.0177-.49752-.12864-.35945a3.42,3.42,0,0,0-.45659,1.13309l-.28083,2.56612c-.0428.33541-.0121.61787.06822.62778A1.11165,1.11165,0,0,0,154.71615,9.64646Z"/><path class="cls-1" d="M62.02581,70.46759a.58071.58071,0,0,0-.69942-.33062l-.9143.25729a.44858.44858,0,0,0-.28815.6303l.39364.95345a.46818.46818,0,0,0,.66547.2386l.83065-.41532a.54537.54537,0,0,0,.265-.70673Z"/><path class="cls-1" d="M85.03312,2.78446a.85112.85112,0,0,0-.57995-.2149c-.22407-.00105-.844.14237-.85307.28214a.672.672,0,0,0,.6152.46487C84.50759,3.28408,85.12806,2.90157,85.03312,2.78446Z"/><path class="cls-1" d="M17.4576,93.63409c.19475-.026.31584-.312.26914-.63566s-.29424-.752-.44059-.46885-.47412,1.09509-.46909,1.09858A4.17131,4.17131,0,0,0,17.4576,93.63409Z"/></g></mask></defs><g class="cls-2"><g class="cls-3"><polygon class="cls-4" points="124.092 101.735 122.851 100.568 122.043 99.304 121.461 97.867 120.569 96.864 119.128 97.093 117.984 97.948 116.986 99.055 115.645 99.58 114.388 100.244 113.361 101.31 112.103 101.981 110.482 102.022 109.688 103.491 108.15 103.687 106.865 104.668 107.839 103.403 108.615 102.231 108.671 100.647 109.856 99.705 110.238 98.306 111.393 97.348 111.667 95.882 112.537 94.761 113.04 93.426 114.384 92.57 114.375 91.058 113.442 90.275 112.305 89.228 110.668 89.089 109.27 87.897 108.928 89.451 107.857 90.473 107.519 91.917 106.684 93.08 105.812 94.22 105.276 95.554 104.623 96.824 103.931 98.069 102.908 99.125 102.195 100.365 101.678 101.645 101.649 100.29 101.652 98.876 101.316 97.462 101.25 96.043 101.4 94.626 102.003 93.206 101.596 91.786 101.983 90.367 101.93 88.945 101.378 87.523 101.214 86.226 100.25 86.042 98.876 85.8 97.261 86.465 95.267 86.023 95.425 87.577 95.552 89.007 96.015 90.436 96.058 91.87 95.799 93.303 95.311 94.739 95.493 96.175 96.078 97.607 95.577 99.046 95.698 100.485 95.764 102.398 94.89 100.694 93.822 99.655 93.282 98.309 92.784 96.932 91.622 95.945 91.575 94.308 90.371 93.34 90.166 91.795 89.239 90.666 88.541 89.4 87.404 88.543 86.533 89.302 85.197 89.952 83.464 89.999 82.426 91.192 82.871 92.626 84.248 93.516 84.206 95.236 85.301 96.292 85.89 97.645 86.449 99.017 87.972 99.827 88.106 101.446 89.142 102.546 90.088 104.18 88.694 102.789 87.162 102.452 85.926 101.595 84.527 101.024 83.159 100.396 82.21 99.044 80.679 98.697 79.372 97.957 77.929 97.447 76.739 96.743 76.239 97.805 74.929 98.705 74.202 100.043 73.471 101.12 74.399 102.197 75.735 102.723 77.209 103.011 78.101 104.303 79.576 104.578 80.518 105.785 81.793 106.414 82.91 107.313 84.382 107.609 85.517 108.483 86.707 109.265 88.103 109.694 89.044 110.905 90.358 111.477 91.911 111.644 93.344 112.663 91.663 113.156 90.374 113.663 89.243 114.436 88.274 115.493 86.8 115.682 85.892 116.842 84.773 117.644 83.506 118.197 82.647 118.939 82.786 120.322 83.446 121.681 84.27 122.948 85.31 124.154 86.676 123.391 87.831 122.369 89.203 121.716 90.689 120.926 89.447 122.198 88.587 123.506 88.448 125.232 87.901 126.35 88.917 126.923 89.927 128.189 91.259 128.898 92.714 129.606 93.536 128.218 93.897 126.682 95.194 125.68 95.831 123.774 95.446 125.777 95.341 127.34 96.186 128.903 96.034 130.15 97.205 130.473 98.712 130.536 100.219 130.113 101.47 130.196 101.804 128.946 102.207 127.433 102.183 125.919 101.657 124.131 102.791 125.583 103.384 127.046 104.41 128.26 104.803 129.986 106.265 129.25 107.369 128.152 108.739 127.505 109.873 126.731 109.213 125.597 108.6 124.271 107.61 123.162 106.799 121.943 106.737 120.787 107.619 121.245 108.821 122.02 109.986 122.864 111.164 123.693 112.588 124.033 113.082 122.619 114.194 121.522 114.92 120.199 116.082 118.768 114.565 117.976 113.425 117.212 111.98 116.98 111.035 115.883 109.654 115.533 108.346 115.061 107.126 114.434 105.917 113.78 104.479 112.65 106.061 111.642 107.509 111.222 108.834 110.586 110.214 110.057 111.509 109.37 112.685 108.484 113.681 107.288 114.957 106.565 116.605 106.487 117.554 105.2 119.128 104.987 120.203 103.919 121.268 102.83 122.522 102.02 124.092 101.735"/><polygon class="cls-4" points="98.876 0.828 97.448 0.808 96.022 0.907 94.561 0 93.122 0.036 91.716 0.609 90.291 0.769 88.867 0.926 87.479 1.421 86.009 1.128 84.645 1.753 83.179 1.57 81.698 1.356 80.272 1.54 78.901 2.038 77.563 2.672 76.155 2.918 74.602 2.509 73.203 2.841 72.024 4.072 70.549 4.066 69.013 3.873 67.858 5.067 66.524 5.587 64.89 5.146 63.531 5.616 62.33 6.548 60.996 7.07 59.765 7.865 58.12 7.569 56.991 8.615 55.712 9.264 54.355 9.727 52.778 9.702 51.605 10.593 50.175 10.929 48.994 11.785 47.707 12.42 46.705 13.598 45.294 13.99 43.972 14.559 42.568 14.993 41.292 15.659 40.212 16.65 39.088 17.558 37.608 17.905 36.733 19.187 35.286 19.606 34.292 20.69 33.282 21.739 31.911 22.289 30.586 22.915 29.608 23.999 28.722 25.187 27.223 25.614 26.271 26.714 25.476 27.987 23.969 28.44 22.902 29.402 22.114 30.663 20.925 31.49 20.33 32.932 19.322 33.941 17.649 34.305 17.168 35.83 16.194 36.875 15.008 37.731 14.115 38.854 13.478 40.192 12.542 41.27 11.113 41.949 10.58 43.357 9.583 44.394 9.069 45.798 8.096 46.853 7.196 47.966 6.239 49.041 5.485 50.258 4.847 51.55 4.06 52.742 2.81 53.648 1.897 54.774 1.928 56.458 0.518 57.299 0 58.863 1.23 59.738 2.463 60.487 4.05 60.626 5.155 61.593 6.134 62.777 7.855 62.686 8.834 63.873 9.869 64.962 11.538 64.967 12.664 65.902 13.922 66.609 15.313 67.087 16.463 67.979 17.55 68.979 18.916 69.501 19.897 70.686 21.329 71.095 22.519 71.917 23.941 72.338 25.132 73.151 26.137 74.285 27.712 74.438 29.028 75.036 29.935 76.341 31.134 77.144 32.432 77.784 33.569 78.707 34.836 79.399 36.305 79.743 37.649 80.3 38.708 81.345 39.906 82.155 41.396 82.467 42.712 83.083 43.758 84.157 44.955 84.969 46.096 85.88 47.708 85.986 49.006 86.632 50.225 87.409 51.334 88.379 52.496 89.259 53.869 89.775 55.046 90.63 56.291 91.357 57.363 92.394 58.908 92.612 59.871 93.828 61.344 94.179 62.467 95.128 63.56 96.131 65.031 96.487 66.292 97.2 67.402 98.178 68.647 98.931 70.057 99.367 70.946 98.266 71.398 96.876 71.875 95.468 72.837 94.368 73.634 93.154 74.66 92.122 75.919 91.324 77.051 90.442 77.976 89.345 78.896 88.212 80.321 87.721 81.001 86.185 82.195 85.345 83.653 84.97 85.165 84.783 86.462 84.21 87.568 83.127 88.904 82.567 90.464 82.775 91.727 81.941 93.106 81.468 94.562 81.418 96.001 81.329 97.432 81.121 98.876 81.238 100.327 81.023 101.79 80.949 103.209 81.339 104.707 81.195 105.966 82.26 107.297 82.805 108.782 82.834 110.252 83.011 111.424 83.961 112.937 84.125 113.906 85.386 115.175 86.039 116.424 86.738 117.653 87.48 118.907 88.211 120.218 88.907 121.073 90.119 122.341 90.907 122.843 92.4 124.116 93.218 124.774 94.532 125.738 95.623 126.224 97.017 127.043 98.205 127.682 99.23 129.189 99.109 130.338 98.217 131.403 97.181 132.48 96.166 134.018 95.942 135.159 95.036 136.586 94.62 137.521 93.357 138.815 92.708 140.014 91.898 141.547 91.663 142.672 90.729 143.73 89.679 145.002 88.997 146.616 88.9 147.554 87.64 149.107 87.437 150.389 86.775 151.618 86.023 152.413 84.529 153.923 84.263 155.088 83.406 156.527 83.018 157.497 81.822 159.065 81.65 160.293 80.891 161.301 79.747 162.473 78.891 163.638 78.026 164.936 77.389 166.47 77.159 167.671 76.355 168.638 75.142 170 74.608 171.309 73.985 172.469 73.109 173.916 72.723 175.015 71.735 176.155 70.82 177.421 70.122 178.995 69.95 180.008 68.813 181.565 68.612 182.432 67.226 183.759 66.639 184.874 65.677 186.494 65.587 187.73 64.837 188.666 63.566 189.957 62.907 191.189 62.142 192.833 62.082 193.859 60.965 195.248 60.466 196.423 59.592 197.804 58.918 196.958 57.478 195.932 56.418 195.184 55.201 194.663 53.843 194.122 52.49 193.037 51.485 192.33 50.237 191.542 49.04 190.898 47.742 190.085 46.558 188.844 45.695 187.819 44.681 187.41 43.186 186.64 41.964 185.449 41.087 184.33 40.16 183.882 38.653 183.051 37.468 181.472 36.967 180.783 35.654 180.005 34.413 178.617 33.767 178.008 32.345 176.815 31.513 175.693 30.613 174.331 29.981 173.588 28.668 172.585 27.637 171.404 26.812 170.423 25.75 169.03 25.193 168.158 23.987 167.078 23.037 165.503 22.752 164.729 21.386 163.403 20.777 162.445 19.641 160.869 19.418 160.017 18.106 158.629 17.617 157.351 16.962 156.452 15.675 155.068 15.197 153.739 14.634 152.435 14.034 151.103 13.492 150.179 12.157 148.739 11.825 147.4 11.3 146.104 10.687 144.917 9.831 143.407 9.704 142.146 9.01 140.896 8.281 139.471 7.988 138.289 7.063 136.882 6.729 135.343 6.794 134.219 5.642 132.685 5.729 131.313 5.326 129.898 5.073 128.707 4.011 127.196 4.113 125.84 3.637 124.366 3.649 122.948 3.449 121.673 2.565 120.294 2.14 118.818 2.239 117.404 2.024 116.079 1.225 114.648 1.073 113.17 1.3 111.773 0.903 110.277 1.423 108.911 0.667 107.449 0.986 106.062 0.267 104.628 0.149 103.183 0.311 101.733 0.909 100.312 0.246 98.876 0.828"/></g></g><path class="cls-5" d="M50.52454,42.75533l1.36133-1.8833,2.5791,1.97021c-.23144.40577-.5791.55079-1.3623.55079H48.81458V46.812c3.8252,1.13037,5.042,2.86865,5.042,4.05664a1.1337,1.1337,0,0,1-1.043,1.24609,1.39923,1.39923,0,0,1-.89843-.40576,10.60318,10.60318,0,0,0-3.10059-4.4624V59.417c0,.20264-.78223.72412-1.91211.72412h-.377v-12.083a23.92788,23.92788,0,0,1-5.53418,7.38916l-.377-.377A31.07343,31.07343,0,0,0,45.714,43.393H40.962l-.14453-.6377h5.708V37.27877a54.01972,54.01972,0,0,1-5.59278,1.043l-.14453-.43457a49.79341,49.79341,0,0,0,10.7793-4.69385l2.78125,2.231a.92425.92425,0,0,1-.666.23193,2.87082,2.87082,0,0,1-.89843-.17383c-1.10157.40527-2.49219.84033-3.96973,1.24561v6.02734Zm14.19824-5.56348,2.89746,2.14405a2.47614,2.47614,0,0,1-1.333.63769v18.3999a3.38979,3.38979,0,0,1-2.34668.6377V56.40328H57.24622v2.28906c0,.02881-.26074.92725-2.31738.92725V37.5107l2.49121,1.12988h6.20117ZM57.24622,55.73678h6.69434V39.27828H57.24622Z"/><path class="cls-5" d="M77.82044,34.90279l1.01367-1.3042L81.47083,35.54a2.05146,2.05146,0,0,1-1.12988.55078V56.98287c0,1.68066-.40528,2.86865-3.15821,3.12939,0-1.82568-.69531-2.17334-2.72363-2.31836v-.40527h3.15821c.37695,0,.49218-.11621.49218-.46387V49.13033H73.70521c-.31836,3.85352-1.1875,7.91016-3.65039,11.06885l-.43555-.26074c2-4.83936,2.0293-10.92432,2.0293-16.40088v-9.707L74.256,34.90279Zm-3.96973,8.63477c0,1.53564,0,3.2163-.11621,4.95507h4.375V42.20455H73.85071ZM78.1095,35.54H73.85071v6.02734H78.1095ZM94.047,44.34908l2.376,2.08643c-.20313.26074-.49219.34765-1.10156.40527a23.75763,23.75763,0,0,1-3.47657,7.91064,17.15324,17.15324,0,0,0,5.15723,3.33252l-.05762.28955a2.80294,2.80294,0,0,0-2.23144,1.9126,15.86927,15.86927,0,0,1-4.25879-3.82471,17.47651,17.47651,0,0,1-4.25977,3.44776l-.23242-.46338a16.78232,16.78232,0,0,0,3.68067-4.17285,23.287,23.287,0,0,1-3.15821-8.92432H85.296V59.44576a2.11218,2.11218,0,0,1-1.8545.75342h-.37695V33.83053l2.6084,1.07226h6.54883l.98437-1.3042,2.78223,1.9707a2.26852,2.26852,0,0,1-1.2168.6084v4.86817c0,1.62256-.40625,2.81054-3.07226,3.07129,0-1.8545-.63672-2.11524-2.52051-2.34717v-.40576H92.048c.34766,0,.46289-.08692.46289-.40528V35.54H85.296V45.7109h7.418Zm-6.9834,1.99951a17.22291,17.22291,0,0,0,3.56446,7.12793,26.57042,26.57042,0,0,0,2.25976-7.12793Z"/><path class="cls-5" d="M98.53821,45.88472c5.30274-2.78173,10.22852-8.17138,11.53321-12.6914l4.085.811c-.08692.34766-.43457.52149-1.2461.57959,2.75293,3.91162,8.085,7.07032,13.127,8.77979l-.0586.43457a2.897,2.897,0,0,0-2.08593,2.14453,24.82523,24.82523,0,0,1-4.17286-2.40527c-.11523.29-.40527.46386-1.12988.55078V59.38765c0,.05811-.37695.75342-2.376.75342V43.04488l3.1875.26074a22.39306,22.39306,0,0,1-7.01269-8.374c-2.25977,4.54932-7.5918,8.98291-13.64746,11.35889Zm.6377,13.9087c5.56348-2.86866,6.54883-7.27295,6.54883-11.47461V43.04488l3.47656.29c-.05762.40576-.28906.57959-1.12988.69531v4.28858c-.05762,4.49121-1.333,9.30127-8.60547,11.85156Z"/><path class="cls-5" d="M132.23743,50.54976c-.08691.34815-.29.522-.98535.55078a17.6335,17.6335,0,0,1-3.27441,6.78028l-.46387-.26074a29.74856,29.74856,0,0,0,1.85449-7.70752Zm6.66406-12.77832c-.11621.23194-.31835.31885-.666.31885a1.77853,1.77853,0,0,1-.52149-.0581,73.9123,73.9123,0,0,1-6.11425,7.88134c1.47754-.02881,3.1582-.08691,4.89648-.17383a10.75911,10.75911,0,0,0-1.30371-2.144l.26074-.20263c2.95606,1.30371,3.91211,2.86865,3.91211,3.96972a1.29505,1.29505,0,0,1-1.15918,1.41944,1.248,1.248,0,0,1-.92676-.46338,6.49225,6.49225,0,0,0-.52246-1.94141q-.86865.21753-1.999.43457v12.6626a2.16292,2.16292,0,0,1-1.8252.6958h-.37695V47.27584l-3.2168.6372a.8544.8544,0,0,1-.72363.57959l-.92773-2.521c.69531,0,1.73828,0,3.01367-.02881a102.62512,102.62512,0,0,0,5.07129-9.5625Zm-10.98144.23194a9.57612,9.57612,0,0,1,2.25977.811c.63769-1.56445,1.41992-3.73779,1.999-5.65039l3.1875,1.15918c-.11524.34766-.377.49268-1.07227.43457a43.0017,43.0017,0,0,1-3.41894,4.4624,2.62452,2.62452,0,0,1,1.30371,2.05713,1.136,1.136,0,0,1-1.07227,1.2461,1.27824,1.27824,0,0,1-.83984-.37647,8.23766,8.23766,0,0,0-2.54981-3.91211Zm8.1416,11.88037c2.46289,1.59326,3.27442,3.24511,3.27442,4.40429,0,.98487-.57911,1.65137-1.2168,1.65137a1.23608,1.23608,0,0,1-.92676-.52148,12.67087,12.67087,0,0,0-1.47852-5.36035Zm15.99512-16.02442,2.5498,1.94141a1.626,1.626,0,0,1-1.10058.49268c-.14551,5.47656-.46387,8.43212-1.53614,9.27246a4.30417,4.30417,0,0,1-2.92675.81152c0-1.36182-.40528-1.70947-2.78125-2.05713l.02929-.46387c.89746.02881,2.63672.08692,3.21582.08692.49317,0,.69532,0,.86914-.20264.55079-.55078.75391-3.27441.89844-7.96875h-4.72265c-.31934,3.68018-1.44922,7.96875-6.92579,11.06885l-.40527-.40527c4.11426-3.44825,4.63574-7.418,4.80957-10.66358h-4.14355l-.20313-.63721H151.0138Zm-1.76758,14.66211,1.043-1.33252,2.666,1.999a1.71163,1.71163,0,0,1-1.12988.49267v9.59131a2.556,2.556,0,0,1-1.9414.63721h-.377V58.05465h-7.5625V59.417a2.24042,2.24042,0,0,1-1.88379.72412h-.376V47.47847l2.57812,1.043Zm-7.30176,8.86719h7.5625V49.188h-7.5625Z"/></svg>