<svg id="mockup" xmlns="http://www.w3.org/2000/svg" xmlns:xlink="http://www.w3.org/1999/xlink" viewBox="0 0 671.78 1034.82"><defs><style>.cls-1,.cls-2{fill:none;}.cls-2{stroke:#fff;stroke-miterlimit:10;stroke-width:0.5px;}.cls-3{fill:url(#Degradado_sin_nombre_30);}.cls-4{fill:url(#Degradado_sin_nombre_30-2);}.cls-5{fill:url(#Degradado_sin_nombre_30-3);}.cls-6{fill:url(#Degradado_sin_nombre_30-4);}.cls-7{fill:url(#Degradado_sin_nombre_30-5);}.cls-8{fill:url(#Degradado_sin_nombre_30-6);}.cls-9{fill:url(#Degradado_sin_nombre_30-7);}.cls-10{fill:url(#Degradado_sin_nombre_30-8);}.cls-11{fill:url(#Degradado_sin_nombre_30-9);}.cls-12{fill:url(#Degradado_sin_nombre_30-10);}.cls-13{fill:url(#Degradado_sin_nombre_30-11);}.cls-14{fill:url(#Degradado_sin_nombre_30-12);}.cls-15{fill:url(#Degradado_sin_nombre_30-13);}.cls-16{fill:url(#Degradado_sin_nombre_30-14);}.cls-17{fill:url(#Degradado_sin_nombre_30-15);}.cls-18{fill:url(#Degradado_sin_nombre_30-16);}.cls-19{fill:url(#Degradado_sin_nombre_30-17);}.cls-20{fill:url(#Degradado_sin_nombre_30-18);}.cls-21{fill:url(#Degradado_sin_nombre_30-19);}.cls-22{fill:url(#Degradado_sin_nombre_30-20);}.cls-23{fill:url(#Degradado_sin_nombre_30-21);}.cls-24{fill:url(#Degradado_sin_nombre_30-22);}.cls-25{fill:url(#Degradado_sin_nombre_30-23);}.cls-26{fill:url(#Degradado_sin_nombre_30-24);}.cls-27{fill:url(#Degradado_sin_nombre_30-25);}.cls-28{fill:url(#Degradado_sin_nombre_30-26);}.cls-29{fill:url(#Degradado_sin_nombre_30-27);}.cls-30{fill:url(#Degradado_sin_nombre_30-28);}.cls-31{fill:url(#Degradado_sin_nombre_30-29);}.cls-32{clip-path:url(#clip-path);}.cls-33{fill:#ec6d52;}.cls-34{opacity:0.57;}.cls-35{clip-path:url(#clip-path-2);}.cls-36{opacity:0.3;fill:url(#Nueva_muestra_de_motivo_3);}</style><linearGradient id="Degradado_sin_nombre_30" x1="30.78" y1="-15468.87" x2="43.14" y2="-15468.87" gradientTransform="matrix(1, 0, 0, -1, 0, -15452.03)" gradientUnits="userSpaceOnUse"><stop offset="0" stop-color="#fff"/><stop offset="1" stop-color="#fff"/></linearGradient><linearGradient id="Degradado_sin_nombre_30-2" x1="30.78" y1="-15478.99" x2="43.14" y2="-15478.99" xlink:href="#Degradado_sin_nombre_30"/><linearGradient id="Degradado_sin_nombre_30-3" x1="24.59" y1="-15473.93" x2="49.33" y2="-15473.93" xlink:href="#Degradado_sin_nombre_30"/><linearGradient id="Degradado_sin_nombre_30-4" x1="36.46" y1="-15466.59" x2="37.4" y2="-15466.59" xlink:href="#Degradado_sin_nombre_30"/><linearGradient id="Degradado_sin_nombre_30-5" x1="28.35" y1="-15469.87" x2="33.17" y2="-15469.87" xlink:href="#Degradado_sin_nombre_30"/><linearGradient id="Degradado_sin_nombre_30-6" x1="-6.18" y1="-15468.87" x2="6.18" y2="-15468.87" xlink:href="#Degradado_sin_nombre_30"/><linearGradient id="Degradado_sin_nombre_30-7" x1="-6.18" y1="-15478.99" x2="6.18" y2="-15478.99" xlink:href="#Degradado_sin_nombre_30"/><linearGradient id="Degradado_sin_nombre_30-8" x1="-12.37" y1="-15473.93" x2="12.37" y2="-15473.93" xlink:href="#Degradado_sin_nombre_30"/><linearGradient id="Degradado_sin_nombre_30-9" x1="-0.5" y1="-15466.59" x2="0.44" y2="-15466.59" xlink:href="#Degradado_sin_nombre_30"/><linearGradient id="Degradado_sin_nombre_30-10" x1="3.98" y1="-15470.02" x2="8.9" y2="-15470.02" xlink:href="#Degradado_sin_nombre_30"/><linearGradient id="Degradado_sin_nombre_30-11" x1="30.78" y1="-15446.98" x2="43.14" y2="-15446.98" xlink:href="#Degradado_sin_nombre_30"/><linearGradient id="Degradado_sin_nombre_30-12" x1="30.78" y1="-15457.09" x2="43.14" y2="-15457.09" xlink:href="#Degradado_sin_nombre_30"/><linearGradient id="Degradado_sin_nombre_30-13" x1="24.59" y1="-15452.03" x2="49.33" y2="-15452.03" xlink:href="#Degradado_sin_nombre_30"/><linearGradient id="Degradado_sin_nombre_30-14" x1="36.56" y1="-15459.35" x2="37.49" y2="-15459.35" xlink:href="#Degradado_sin_nombre_30"/><linearGradient id="Degradado_sin_nombre_30-15" x1="28.16" y1="-15455.98" x2="33.09" y2="-15455.98" xlink:href="#Degradado_sin_nombre_30"/><linearGradient id="Degradado_sin_nombre_30-16" x1="12.3" y1="-15457.92" x2="24.66" y2="-15457.92" xlink:href="#Degradado_sin_nombre_30"/><linearGradient id="Degradado_sin_nombre_30-17" x1="12.3" y1="-15468.04" x2="24.66" y2="-15468.04" xlink:href="#Degradado_sin_nombre_30"/><linearGradient id="Degradado_sin_nombre_30-18" x1="6.11" y1="-15462.98" x2="30.85" y2="-15462.98" xlink:href="#Degradado_sin_nombre_30"/><linearGradient id="Degradado_sin_nombre_30-19" x1="17.98" y1="-15455.64" x2="18.92" y2="-15455.64" xlink:href="#Degradado_sin_nombre_30"/><linearGradient id="Degradado_sin_nombre_30-20" x1="22.46" y1="-15459.07" x2="27.38" y2="-15459.07" xlink:href="#Degradado_sin_nombre_30"/><linearGradient id="Degradado_sin_nombre_30-21" x1="22.52" y1="-15466.71" x2="27.52" y2="-15466.71" xlink:href="#Degradado_sin_nombre_30"/><linearGradient id="Degradado_sin_nombre_30-22" x1="18.08" y1="-15470.3" x2="19.01" y2="-15470.3" xlink:href="#Degradado_sin_nombre_30"/><linearGradient id="Degradado_sin_nombre_30-23" x1="9.68" y1="-15466.93" x2="14.61" y2="-15466.93" xlink:href="#Degradado_sin_nombre_30"/><linearGradient id="Degradado_sin_nombre_30-24" x1="9.87" y1="-15458.92" x2="14.69" y2="-15458.92" xlink:href="#Degradado_sin_nombre_30"/><linearGradient id="Degradado_sin_nombre_30-25" x1="-6.18" y1="-15446.98" x2="6.18" y2="-15446.98" xlink:href="#Degradado_sin_nombre_30"/><linearGradient id="Degradado_sin_nombre_30-26" x1="-6.18" y1="-15457.09" x2="6.18" y2="-15457.09" xlink:href="#Degradado_sin_nombre_30"/><linearGradient id="Degradado_sin_nombre_30-27" x1="-12.37" y1="-15452.03" x2="12.37" y2="-15452.03" xlink:href="#Degradado_sin_nombre_30"/><linearGradient id="Degradado_sin_nombre_30-28" x1="4.04" y1="-15455.76" x2="9.04" y2="-15455.76" xlink:href="#Degradado_sin_nombre_30"/><linearGradient id="Degradado_sin_nombre_30-29" x1="-0.4" y1="-15459.35" x2="0.53" y2="-15459.35" xlink:href="#Degradado_sin_nombre_30"/><clipPath id="clip-path"><rect class="cls-1" x="-14.83" y="-68.84" width="686.6" height="1142.5"/></clipPath><clipPath id="clip-path-2"><rect class="cls-1" x="-14.83" y="-129.8" width="686.6" height="1142.5"/></clipPath><pattern id="Nueva_muestra_de_motivo_3" data-name="Nueva muestra de motivo 3" width="36.96" height="21.9" patternTransform="translate(33.68 9.52)" patternUnits="userSpaceOnUse" viewBox="0 0 36.96 21.9"><rect class="cls-1" width="36.96" height="21.9"/><polygon class="cls-2" points="43.14 11.01 30.78 11.01 24.59 21.9 30.78 32.78 43.14 32.78 49.33 21.9 43.14 11.01"/><path class="cls-3" d="M30.78,11c1.16,1.74,2.26,3.52,3.34,5.3.55.89,1.06,1.8,1.59,2.7l1.58,2.7h-.66L38.21,19c.53-.9,1-1.82,1.59-2.7,1.08-1.79,2.18-3.56,3.34-5.3-.89,1.89-1.86,3.74-2.84,5.58-.47.93-1,1.84-1.5,2.75l-1.51,2.74-.33.59-.33-.59-1.51-2.74c-.5-.91-1-1.82-1.5-2.75C32.64,14.75,31.67,12.9,30.78,11Z"/><path class="cls-4" d="M30.78,32.79c.89-1.9,1.86-3.75,2.84-5.59.47-.93,1-1.83,1.5-2.75l1.51-2.74.33-.59.33.59,1.51,2.74c.5.92,1,1.82,1.5,2.75,1,1.84,2,3.69,2.84,5.59-1.16-1.74-2.26-3.52-3.34-5.31-.55-.88-1.06-1.79-1.59-2.69l-1.58-2.71h.66l-1.58,2.71c-.53.9-1,1.81-1.59,2.69C33,29.27,31.94,31.05,30.78,32.79Z"/><path class="cls-5" d="M49.33,21.9c-2.06.15-4.13.22-6.19.28s-4.12.08-6.18.09-4.12,0-6.18-.09-4.13-.13-6.19-.28c2.06-.16,4.13-.23,6.19-.29s4.12-.08,6.18-.09,4.12,0,6.18.09S47.27,21.74,49.33,21.9Z"/><polygon class="cls-6" points="36.96 17.27 36.46 11.83 37.4 11.83 36.96 17.27"/><polygon class="cls-7" points="33.17 19.51 28.35 16.95 28.86 16.16 33.17 19.51"/><polygon class="cls-2" points="24.66 21.96 12.3 21.96 6.11 32.84 12.3 43.73 24.66 43.73 30.85 32.84 24.66 21.96"/><polygon class="cls-2" points="6.18 11.01 -6.18 11.01 -12.37 21.9 -6.18 32.78 6.18 32.78 12.37 21.9 6.18 11.01"/><path class="cls-8" d="M-6.18,11c1.16,1.74,2.26,3.52,3.34,5.3.55.89,1.06,1.8,1.59,2.7l1.58,2.7H-.33L1.25,19c.53-.9,1-1.82,1.59-2.7C3.92,14.52,5,12.75,6.18,11c-.89,1.89-1.86,3.74-2.84,5.58-.47.93-1,1.84-1.5,2.75L.33,22.08,0,22.67l-.33-.59-1.51-2.74c-.5-.91-1-1.82-1.5-2.75C-4.32,14.75-5.29,12.9-6.18,11Z"/><path class="cls-9" d="M-6.18,32.79c.89-1.9,1.86-3.75,2.84-5.59.47-.93,1-1.83,1.5-2.75l1.51-2.74L0,21.12l.33.59,1.51,2.74c.5.92,1,1.82,1.5,2.75,1,1.84,2,3.69,2.84,5.59C5,31.05,3.92,29.27,2.84,27.48c-.55-.88-1.06-1.79-1.59-2.69L-.33,22.08H.33l-1.58,2.71c-.53.9-1,1.81-1.59,2.69C-3.92,29.27-5,31.05-6.18,32.79Z"/><path class="cls-10" d="M12.37,21.9c-2.06.15-4.13.22-6.19.28s-4.12.08-6.18.09-4.12,0-6.18-.09-4.13-.13-6.19-.28c2.06-.16,4.13-.23,6.19-.29s4.12-.08,6.18-.09,4.12,0,6.18.09S10.31,21.74,12.37,21.9Z"/><polygon class="cls-11" points="0 17.27 -0.5 11.83 0.44 11.83 0 17.27"/><polygon class="cls-12" points="3.98 19.57 8.43 16.41 8.9 17.22 3.98 19.57"/><polygon class="cls-2" points="43.14 -10.89 30.78 -10.89 24.59 0 30.78 10.89 43.14 10.89 49.33 0 43.14 -10.89"/><path class="cls-13" d="M30.78-10.89c1.16,1.74,2.26,3.52,3.34,5.3.55.89,1.06,1.8,1.59,2.7l1.58,2.7h-.66l1.58-2.7c.53-.9,1-1.81,1.59-2.7,1.08-1.78,2.18-3.56,3.34-5.3C42.25-9,41.28-7.15,40.3-5.3c-.47.93-1,1.83-1.5,2.75L37.29.18,37,.77,36.63.18,35.12-2.55c-.5-.92-1-1.82-1.5-2.75C32.64-7.15,31.67-9,30.78-10.89Z"/><path class="cls-14" d="M30.78,10.89C31.67,9,32.64,7.15,33.62,5.3c.47-.93,1-1.83,1.5-2.75L36.63-.18,37-.77l.33.59L38.8,2.55c.5.92,1,1.82,1.5,2.75,1,1.85,2,3.7,2.84,5.59C42,9.15,40.88,7.37,39.8,5.59c-.55-.89-1.06-1.8-1.59-2.7L36.63.18h.66L35.71,2.89c-.53.9-1,1.81-1.59,2.7C33,7.37,31.94,9.15,30.78,10.89Z"/><path class="cls-15" d="M49.33,0c-2.06.15-4.13.23-6.19.29S39,.37,37,.37s-4.12,0-6.18-.08S26.65.16,24.59,0c2.06-.16,4.13-.23,6.19-.29S34.9-.37,37-.37s4.12,0,6.18.08S47.27-.15,49.33,0Z"/><polygon class="cls-16" points="37.01 4.6 37.49 10.04 36.56 10.03 37.01 4.6"/><polygon class="cls-17" points="33.09 2.37 28.63 5.53 28.16 4.72 33.09 2.37"/><polygon class="cls-2" points="24.66 0.06 12.3 0.06 6.11 10.95 12.3 21.84 24.66 21.84 30.85 10.95 24.66 0.06"/><path class="cls-18" d="M12.3.06c1.16,1.74,2.26,3.52,3.34,5.3.55.89,1.06,1.8,1.59,2.7l1.58,2.7h-.66l1.58-2.7c.53-.9,1-1.81,1.59-2.7C22.4,3.58,23.5,1.8,24.66.06,23.77,2,22.8,3.8,21.82,5.65c-.47.93-1,1.83-1.5,2.74l-1.51,2.74-.33.59-.33-.59L16.64,8.39c-.5-.91-1-1.81-1.5-2.74C14.16,3.8,13.19,2,12.3.06Z"/><path class="cls-19" d="M12.3,21.84c.89-1.89,1.86-3.74,2.84-5.59.47-.93,1-1.83,1.5-2.75l1.51-2.74.33-.58.33.58,1.51,2.74c.5.92,1,1.82,1.5,2.75,1,1.84,1.95,3.7,2.84,5.59-1.16-1.74-2.26-3.52-3.34-5.31-.55-.88-1.06-1.79-1.59-2.69l-1.58-2.71h.66l-1.58,2.71c-.53.9-1,1.81-1.59,2.69C14.56,18.32,13.46,20.1,12.3,21.84Z"/><path class="cls-20" d="M30.85,11c-2.06.15-4.13.23-6.19.29s-4.12.07-6.18.08-4.12,0-6.18-.08S8.17,11.1,6.11,11c2.06-.16,4.13-.23,6.19-.29s4.12-.08,6.18-.09,4.12,0,6.18.09S28.79,10.79,30.85,11Z"/><polygon class="cls-21" points="18.48 6.32 17.98 0.89 18.92 0.89 18.48 6.32"/><polygon class="cls-22" points="22.46 8.62 26.91 5.46 27.38 6.27 22.46 8.62"/><polygon class="cls-23" points="22.52 13.16 27.52 15.37 27.06 16.19 22.52 13.16"/><polygon class="cls-24" points="18.53 15.55 19.01 20.99 18.08 20.98 18.53 15.55"/><polygon class="cls-25" points="14.61 13.32 10.15 16.48 9.68 15.67 14.61 13.32"/><polygon class="cls-26" points="14.69 8.56 9.87 6 10.38 5.22 14.69 8.56"/><polygon class="cls-2" points="6.18 -10.89 -6.18 -10.89 -12.37 0 -6.18 10.89 6.18 10.89 12.37 0 6.18 -10.89"/><path class="cls-27" d="M-6.18-10.89C-5-9.15-3.92-7.37-2.84-5.59c.55.89,1.06,1.8,1.59,2.7L.33-.19H-.33l1.58-2.7c.53-.9,1-1.81,1.59-2.7C3.92-7.37,5-9.15,6.18-10.89,5.29-9,4.32-7.15,3.34-5.3c-.47.93-1,1.83-1.5,2.75L.33.18,0,.77-.33.18-1.84-2.55c-.5-.92-1-1.82-1.5-2.75C-4.32-7.15-5.29-9-6.18-10.89Z"/><path class="cls-28" d="M-6.18,10.89C-5.29,9-4.32,7.15-3.34,5.3c.47-.93,1-1.83,1.5-2.75L-.33-.18,0-.77l.33.59L1.84,2.55c.5.92,1,1.82,1.5,2.75,1,1.85,2,3.7,2.84,5.59C5,9.15,3.92,7.37,2.84,5.59c-.55-.89-1.06-1.8-1.59-2.7L-.33.18H.33L-1.25,2.89c-.53.9-1,1.81-1.59,2.7C-3.92,7.37-5,9.15-6.18,10.89Z"/><path class="cls-29" d="M12.37,0C10.31.15,8.24.23,6.18.29S2.06.37,0,.37-4.12.36-6.18.29-10.31.16-12.37,0c2.06-.16,4.13-.23,6.19-.29S-2.06-.37,0-.37s4.12,0,6.18.08S10.31-.15,12.37,0Z"/><polygon class="cls-30" points="4.04 2.21 9.04 4.42 8.58 5.24 4.04 2.21"/><polygon class="cls-31" points="0.05 4.6 0.53 10.04 -0.4 10.03 0.05 4.6"/><polygon class="cls-2" points="24.66 -21.84 12.3 -21.84 6.11 -10.95 12.3 -0.06 24.66 -0.06 30.85 -10.95 24.66 -21.84"/></pattern></defs><g class="cls-32"><path class="cls-33" d="M607.29,74.78C550.68,66.72,493.58,82.37,439.2,103c-34,12.88-67.74,28-97.5,51.48-33.21,26.24-60.58,62.37-94.62,87C186.61,285.2,108.54,290.31,55.45,346.24,16.69,387.07-2.74,452.88,5.91,514,18.38,602.12,82,666.61,147.72,708.23c38.09,24.13,78.82,43.83,111.64,77.37C317.84,845.35,346,943.79,412.29,990.32c36.19,25.41,79.15,31.76,120.76,37.59,42.91,6,86.56,12,129.11,3,31.43-6.66,61.3-21.33,90.06-38,27.36-15.82,55-34.52,72.4-64.42,10.43-17.88,16.65-38.9,20.46-60.25,26.06-146-56.39-294.45-37.46-442,4.36-34,14-66.7,18-100.72s1.52-71.26-15.86-98.49c-14.84-23.23-35.25-28.84-54.6-43.59-15.21-11.6-23.32-34.63-37.09-50C688,99.84,647.7,80.53,607.29,74.78Z"/></g><g class="cls-34"><g class="cls-35"><path class="cls-36" d="M607.29,13.82C550.68,5.76,493.58,21.41,439.2,42c-34,12.89-67.74,28-97.5,51.48-33.21,26.24-60.58,62.37-94.62,87-60.47,43.73-138.54,48.85-191.63,104.78C16.69,326.12-2.74,391.92,5.91,453.05,18.38,541.16,82,605.65,147.72,647.27c38.09,24.13,78.82,43.83,111.64,77.37C317.84,784.4,346,882.83,412.29,929.36c36.19,25.41,79.15,31.76,120.76,37.59,42.91,6,86.56,12,129.11,3,31.43-6.66,61.3-21.34,90.06-38,27.36-15.82,55-34.51,72.4-64.42,10.43-17.88,16.65-38.89,20.46-60.25,26.06-146-56.39-294.45-37.46-442,4.36-34,14-66.7,18-100.72s1.52-71.25-15.86-98.49c-14.84-23.23-35.25-28.84-54.6-43.59-15.21-11.6-23.32-34.63-37.09-50C688,38.88,647.7,19.57,607.29,13.82Z"/></g></g></svg>