<svg id="mockup" xmlns="http://www.w3.org/2000/svg" xmlns:xlink="http://www.w3.org/1999/xlink" viewBox="0 0 156.07305 245.97101"><defs><style>.cls-1{mask:url(#mask);}.cls-2{fill:#b59664;}.cls-3{filter:url(#luminosity-noclip);}</style><filter id="luminosity-noclip" x="-108.84866" y="-48.19452" width="401.53423" height="349.14662" filterUnits="userSpaceOnUse" color-interpolation-filters="sRGB"><feFlood flood-color="#fff" result="bg"/><feBlend in="SourceGraphic" in2="bg"/></filter><mask id="mask" x="-108.84866" y="-48.19452" width="401.53423" height="349.14662" maskUnits="userSpaceOnUse"><g class="cls-3"><path d="M47.78772,109.85628a3.35878,3.35878,0,0,0,.6501.3404l.7714.3632c.385.1311.7489.1838.8086.1171a3.66552,3.66552,0,0,0,.37-.9716l.1776-.7337c.1007-.394.0457-.8036-.1222-.9101a1.3558,1.3558,0,0,0-1.1893.1528l-.95,1.0051C48.04472,109.53288,47.80012,109.83788,47.78772,109.85628Z"/><path d="M109.09192,21.96868c-.0469.2643.0477.3243.2101.1333s.4938-.7969.3789-.8478S109.13872,21.70438,109.09192,21.96868Z"/><path d="M2.09472,153.02938a.808.808,0,0,0-.7241.4657c-.0688.2399.0963.8381.4319.7427l2.3437-.6755c.3362-.0929.3947-.2404.13-.3278A14.6582,14.6582,0,0,0,2.09472,153.02938Z"/><path d="M15.08,183.798a1.23413,1.23413,0,0,0-.6878-.017.96285.96285,0,0,0,.3898.6239l1.3267,1.0706c.2887.2102.5534.1687.5881-.0923a3.15183,3.15183,0,0,0-.0229-1.1091A11.46479,11.46479,0,0,0,15.08,183.798Z"/><path d="M35.73642,118.09278a.63455.63455,0,0,0-.2362-.0566,1.04812,1.04812,0,0,0-.26589.6892l-.09431,1.5021c-.0345.3751.1288.4405.3627.1452l.8317-1.1146c.2057-.3157.2731-.649.1498-.7407S35.80892,118.12608,35.73642,118.09278Z"/><path d="M36.87633,5.51988a2.21646,2.21646,0,0,0,.82779.1421.85277.85277,0,0,0,.4341-.7302l-.2794-1.8293a.5.5,0,0,0-.7254-.3255l-2.9089,1.3313c-.3103.1426-.3056.3652.0103.4947Z"/><path d="M90.82622,19.95558c-.346.1441-.3734.3314-.06089.4161s1.22979.0476,1.27879-.1586-.2184-.6823-.56579-.5414Z"/><path d="M95.80092,22.66858a.24966.24966,0,0,0,.2449-.1932c.0221-.1104-.1524-.3955-.3602-.3596s-.7345.1607-.7072.2224.1491.2426.2087.2576S95.68842,22.66438,95.80092,22.66858Z"/><path d="M105.98933,57.37278a.40343.40343,0,0,0-.13021-.7277c-.3542-.1497-1.3864-.3575-1.5066-.0904s-.3155,1.0477-.12719,1.1668A3.181,3.181,0,0,0,105.98933,57.37278Z"/><path d="M43.41542,236.83268a4.769,4.769,0,0,0,.4818.4715c.04211.0212.254-.2316.3772-.6086l.62091-1.9553c.12869-.3752-.03161-.4956-.35611-.2677l-1.2485.9513C42.995,235.68808,43.19272,236.59448,43.41542,236.83268Z"/><path d="M81.68733,57.91648a.80283.80283,0,0,0,.82129.6532c.3818-.0288,1.3949-.3174,1.33271-.4629a8.07849,8.07849,0,0,0-.69391-1.1166l-.6326-.7977c-.2396-.313-.5207-.5493-.62449-.525a.96532.96532,0,0,0-.33221.8078Z"/><path d="M15.92233,26.179a.44715.44715,0,0,0,.05919.6079l.5.3898a.49861.49861,0,0,0,.6289-.0969l.59591-.739a.44717.44717,0,0,0-.08891-.6042l-.439-.318a.55549.55549,0,0,0-.6545.0878Z"/><path d="M48.51042,238.07418c-.1004.2867-.0693.5356.0691.5533a1.10786,1.10786,0,0,0,.7501-.2743c.126-.1887.3173-.8127.1646-.9077S48.61082,237.78748,48.51042,238.07418Z"/><path d="M4.08612,227.52708a4.38346,4.38346,0,0,0,.0695.8387c.0275.0409.1486.1199.2091.0995a1.52354,1.52354,0,0,0,.2198-.8637l.0129-1.1839c-.0072-.4205-.0873-.7283-.17809-.684a1.57188,1.57188,0,0,0-.33031.9649Z"/><path d="M44.61282,188.11988c.1866.014.3133-.0125.2816-.0589a.68975.68975,0,0,0-.4588-.1187C44.27592,187.97548,44.42622,188.106,44.61282,188.11988Z"/><path d="M51.12952,198.70048c-.0451.3389.1915.4513.52581.2499,0,0,.27179-.1714.57029-.4027s.3233-.5149.0549-.63S51.17472,198.36158,51.12952,198.70048Z"/><path d="M7.099,99.31088a2.17832,2.17832,0,0,0,.65731.3644.488.488,0,0,0,.50079-.5805l-.2854-1.4561c-.0737-.4071-.3661-.4937-.6497-.1925a5.5684,5.5684,0,0,0-.4695.6103A1.30464,1.30464,0,0,0,7.099,99.31088Z"/><path d="M49.39462,201.27988a1.05637,1.05637,0,0,0-.6729.3215,2.51753,2.51753,0,0,0-.5347,1.1201l.1381,1.0168c.0255.2489.1367.4725.2471.4968a.88826.88826,0,0,0,.6573-.312l1.1429-1.9401c.11591-.2218.1395-.446.0523-.4982A5.29976,5.29976,0,0,0,49.39462,201.27988Z"/><path d="M40.379,86.10248a.62271.62271,0,0,0,.6982-.0859l.9246-.9234c.16251-.1791.2588-.3772.214-.4403a2.03807,2.03807,0,0,0-.4623-.3642,1.26573,1.26573,0,0,0-.9323.0025l-.9553.8688a.38759.38759,0,0,0,.0313.587Z"/><path d="M129.19912,57.50568a.55911.55911,0,0,0,.7277-.0757c.197-.203.406-1.096.1439-1.3511l-.8343-.77c-.282-.2331-.5392-.1257-.5716.2387l-.10649.7001A2.25633,2.25633,0,0,0,129.19912,57.50568Z"/><path d="M83.00792,135.16458c.3493-.0023.4713-.2383.2709-.5246l-.3516-.5766a1.21325,1.21325,0,0,0-.7976-.524c-.23829-.0021-.9114.2333-.9401.4995s.3487,1.0379.6969,1.0663Z"/><path d="M150.44012,194.234c.3034.1658.5544.2201.5576.1206a1.8375,1.8375,0,0,0-.425-.8148l-.7991-.79c-.2562-.2322-.5858-.3088-.7324-.1703s-.1964.7613.1087.9239Z"/><path d="M7.73812,129.85318a.37569.37569,0,0,0,.3719-.2533l.0979-.3626a.354.354,0,0,0-.2078-.389l-1.076-.3842c-.15279-.0434-.28279-.0793-.2887-.0796a1.49286,1.49286,0,0,0-.1343.2646l-.2614.7378a.24122.24122,0,0,0,.2144.3096Z"/><path d="M133.41133,3.31178c-.02.0468.214.2404.52009.4303l.6208.4049c.3159.1732.65211.2051.7473.0708a.52437.52437,0,0,0-.3228-.6867l-.85339-.2257A1.11971,1.11971,0,0,0,133.41133,3.31178Z"/><path d="M49.85812,37.05728c-.0476.3535.1516.6042.4427.557s1.0178-.4624.9071-.8015l-.4271-1.2763c-.1027-.3417-.2343-.6173-.29249-.6126a1.14015,1.14015,0,0,0-.343.6557Z"/><path d="M78.59982,230.87418c.08751.33.2392.6209.3371.6464a.78066.78066,0,0,0,.5837-.4599c.1205-.2973.127-1.1881-.1591-1.2141S78.51222,230.54408,78.59982,230.87418Z"/><path d="M91.17662,147.80848c.3003.0847.541-.1903.5349-.6111l-.065-1.1858c-.0033-.4208-.2039-.4834-.4458-.1389l-.6098.8996C90.38262,147.13788,90.87622,147.72378,91.17662,147.80848Z"/><path d="M153.26362,222.25108c.3629.1775.7041.2444.7582.1488a1.19116,1.19116,0,0,0-.33349-.8897l-1.554-1.4914a.6972.6972,0,0,0-.93111-.0775c-.2058.2206-.3405,1.1055.0243,1.2789Z"/><path d="M117.819,31.72208a6.02963,6.02963,0,0,0-.6992.1528c-.3359.0864-1.2628.506-1.28949.7783s.32649,1.0313.72459,1.0299l1.844.0081a.39128.39128,0,0,0,.3415-.651l-.38409-.6815A1.98347,1.98347,0,0,0,117.819,31.72208Z"/><path d="M139.38962,133.44628a4.3156,4.3156,0,0,0-.3886-.7689,1.34692,1.34692,0,0,0-.7915.3008l-1.2285.8425a1.10487,1.10487,0,0,0-.4143,1.0971c.1063.3532.7991,1.1906,1.1948,1.0577l1.5041-.5551a.88356.88356,0,0,0,.4542-1.0427Z"/><path d="M110.21512,235.22678a3.055,3.055,0,0,0-.0384-.4828c-.0129-.0201-.062-.0982-.0805-.1289a.84774.84774,0,0,0-.5244.0858c-.25149.1084-.9418.5947-.9326.8443s.2763.887.5419.8186S110.22333,235.47228,110.21512,235.22678Z"/><path d="M63.74582,151.29928a1.02463,1.02463,0,0,0,.2409-.8812l-.188-1.6794c-.0529-.3738-.2375-.6172-.41039-.5408a1.48179,1.48179,0,0,0-.56231,1.0583l.2006,1.63A.565.565,0,0,0,63.74582,151.29928Z"/><path d="M77.85752,177.71238a.37729.37729,0,0,0,.4083-.1972c.0934-.1564.1386-.6677-.07349-.7249s-.78831-.0789-.78171.1009A1.71778,1.71778,0,0,0,77.85752,177.71238Z"/><path d="M125.793,69.49728c.0139.0041.0248-.0114.0241-.0346s-.015-.0597-.0266-.0439S125.779,69.49318,125.793,69.49728Z"/><path d="M129.131,173.32608c.3486.1202.6307.0474.627-.1617a1.90866,1.90866,0,0,0-.4268-1.065c-.2398-.1658-1.0626-.423-1.229-.2168s-.2378.9571.1102,1.0789Z"/><path d="M139.59892,168.79748c.1311.1313.5463.1175.9227-.0309l.8398-.2981c.3788-.142.6706-.3814.6486-.532a1.01307,1.01307,0,0,0-.8706-.5031l-1.3254.1133c-.4003.0578-.7281.2068-.7284.3312A3.3314,3.3314,0,0,0,139.59892,168.79748Z"/><path d="M143.47892,29.65688a.8739.8739,0,0,0,.753.7608l2.9277.3499c.3788.052.7404-.0804.8033-.2943s-.0849-.934-.4364-1.0846l-3.58319-1.5622a.38957.38957,0,0,0-.575.439Z"/><path d="M92.61872,198.60608a.41355.41355,0,0,0,.4121.5233c.282-.0045,1.1082-.0475,1.1359-.0512a.67026.67026,0,0,0,.1831-.3406,2.82011,2.82011,0,0,0,.0427-.912.78156.78156,0,0,0-.6263-.3696A2.93734,2.93734,0,0,0,92.61872,198.60608Z"/><path d="M108.98022,163.98788c-.2037-.3099-.4931-.4942-.6431-.4097a.60054.60054,0,0,0-.0272.826l1.3903,1.2245c.27611.2475.5027.4481.5036.4456a.28249.28249,0,0,0-.0163-.0628c-.0107-.0295-.2013-.3659-.3977-.6805Z"/><path d="M75.61172,167.41058c-.1517-.0804-.522.0789-.823.3539s-.749,1.3327-.4037,1.5615l2.8962,2.0229a.80381.80381,0,0,0,.97011.0372c.18719-.2068.42779-1.069.151-1.3771l-1.68951-1.79A7.8266,7.8266,0,0,0,75.61172,167.41058Z"/><path d="M127.53712,210.41278c.1084-.1837-.06379-.4607-.38279-.6156l-1.145-.6058c-.32-.1528-.65841-.1699-.75191-.0379a.76838.76838,0,0,0,.22691.8549l1.06289.687A.9538.9538,0,0,0,127.53712,210.41278Z"/><path d="M142.53692,213.33688a3.97268,3.97268,0,0,0,.0648-.6841,7.01077,7.01077,0,0,0-.73339.0294l-.74541.0473a1.06833,1.06833,0,0,0-.84059.7378l-.43321,1.7272a.5408.5408,0,0,0,.53221.6807l1.05869.0222a.89251.89251,0,0,0,.7859-.7113Z"/><path d="M120.75,71.66328c.3982-.0271.7276-.2207.7319-.4303a.68918.68918,0,0,0-.8441-.4532l-1.1524.5815c-.3587.175-.3257.3225.0734.3277Z"/><path d="M101.15462,228.135c.2193.0622.2654-.1488.1023-.4687l-.2294-.4456c-.1626-.3202-.3601-.4133-.439-.2069A1.65011,1.65011,0,0,0,101.15462,228.135Z"/><path d="M126.16392,42.51638a.36816.36816,0,0,0,.1738.4794c.1837.107.70361.1937.6847-.04a2.33252,2.33252,0,0,0-.1832-.8439A1.38278,1.38278,0,0,0,126.16392,42.51638Z"/><path d="M112.08633,23.89528c.28769.0901.52549.164.52839.1642s-.0077-.2809-.03-.6247a5.09883,5.09883,0,0,0-.1906-1.2411.71321.71321,0,0,0-.62079.3133C111.59392,22.76758,111.79862,23.80518,112.08633,23.89528Z"/><path d="M123.01692,171.86978c.3558.0292.491-.1939.3003-.4957l-.7825-1.052a.36471.36471,0,0,0-.6752.0446l-.3141.6967a.50348.50348,0,0,0,.4555.6768Z"/><path d="M138.82412,90.40618c-.1309.2556.0774.4961.4628.5343l2.0858.2467c.3848.0442.6564-.0651.6034-.2428a1.79676,1.79676,0,0,0-.86379-.8276l-1.09081-.3604C139.65072,89.644,138.955,90.15048,138.82412,90.40618Z"/><path d="M149.56092,59.56808c.3143.1456.64141.1712.727.057a1.31234,1.31234,0,0,0,.116-.5653,1.90272,1.90272,0,0,0-.6878-.2037l-1.4316-.177c-.3431-.0468-.374.0486-.0687.212Z"/><path d="M130.78662,96.01008a1.83639,1.83639,0,0,0,.163-.9244c-.0169-.362-.1415-1.3735-.2768-1.4124a3.3074,3.3074,0,0,0-.7384-.086.59858.59858,0,0,0-.2669.7005l.5195,1.6127A.34334.34334,0,0,0,130.78662,96.01008Z"/><path d="M31.84282,6.40688a1.17727,1.17727,0,0,0,1.1126.376s1.8386-.4672,3.2044-.9483c.5304-.1867.9504-.3438.9504-.3438.3603-.1348.49711-.4505.3039-.7015a2.65938,2.65938,0,0,0-1.5637-.7445l-3.84.9999a.62223.62223,0,0,0-.467.7784A2.65774,2.65774,0,0,0,31.84282,6.40688Z"/><path d="M156.24912,213.50408c.1115.1657.2439.2882.2943.2723a1.01114,1.01114,0,0,0,.329-.3139,1.90815,1.90815,0,0,0,.2245-.8416l-.2159-.788a.49536.49536,0,0,0-.4772-.3195l-.85249.1712a.27371.27371,0,0,0-.14871.4244Z"/><path d="M135.60852,235.032a.766.766,0,0,0-.85719.4331,7.52731,7.52731,0,0,0-.55431,1.2039,1.32555,1.32555,0,0,0,.78131-.2535l.95059-.5769C136.27482,235.59468,135.89062,235.14008,135.60852,235.032Z"/><path d="M126.97062,68.50038c.0825-.2713-.12429-.4712-.4595-.4444s-1.1682.2368-1.093.4486.374.7784.5375.8083A2.01579,2.01579,0,0,0,126.97062,68.50038Z"/><path d="M152.544,92.92208c-.0362-.3388-.20069-.3721-.36569-.0739l-.62691,1.2003c-.1385.3114-.0373.5878.22491.6142s.986-.2069.951-.5459Z"/><path d="M118.82842,113.636a1.07114,1.07114,0,0,0,.02691.2422,1.22943,1.22943,0,0,0,.77429.5602l2.2583.4424a3.021,3.021,0,0,0,.71241.1047,2.04091,2.04091,0,0,0-.65131-.3129l-2.4184-.8705A2.69158,2.69158,0,0,0,118.82842,113.636Z"/><path d="M100.81562,85.22678c.23271.1599.498-.0199.5896-.3995l.13411-.7678c.09229-.3794-.07441-.5138-.37041-.2987S100.583,85.067,100.81562,85.22678Z"/><path d="M127.653,131.33c-.0554.1699.23931.361.6549.4246l2.1669.3932c.4149.0676.78451.0461.8213-.0478s-.2085-.4408-.6147-.5493l-2.0558-.6148A1.00137,1.00137,0,0,0,127.653,131.33Z"/><path d="M145.84592,114.52178c-.0513.1249.16.4184.4695.6521l.5735.4496c.3043.2404.5986.4004.654.3555s-.0301-.3964-.309-.666l-.7049-.745C146.25052,114.298,145.89722,114.39678,145.84592,114.52178Z"/><path d="M154.96722,140.73018c-.0055.2567.2886.5173.6534.579l1.1734.1719c.3691.0269.6736.0413.6767.0322a6.86177,6.86177,0,0,0-.2919-.6337l-.3528-.7888a.74866.74866,0,0,0-.7673-.4769C155.79522,139.68588,154.97272,140.47338,154.96722,140.73018Z"/><path d="M96.55172,237.90918c-.0141.1846.2064.4391.49.5656a4.96625,4.96625,0,0,0,1.0121.3666,1.0832,1.0832,0,0,0-.3739-.5978l-.588-.548A.32668.32668,0,0,0,96.55172,237.90918Z"/><path d="M96.507,129.42528a.76728.76728,0,0,0,.171.944l.8465.7938c.2943.244.597.1633.6727-.1794s.136-1.4139-.0864-1.606S96.68812,129.17138,96.507,129.42528Z"/><path d="M142.92892,120.45078c-.0027.0861.2796.2431.6273.3488l.8715.27c.3524.0888.6669.0645.6988-.054a2.24511,2.24511,0,0,0,.0354-.5523,1.34217,1.34217,0,0,0-.7235-.2117l-.8199-.0631C143.25572,120.16728,142.93162,120.36468,142.92892,120.45078Z"/><path d="M106.598,217.58928c.2896.1833.583.0294.6521-.342l.2199-1.4484c.0715-.3709-.105-.4736-.3922-.2283l-.9147.8226C105.90472,216.66878,106.30842,217.406,106.598,217.58928Z"/><path d="M106.26172-.28482a.83359.83359,0,0,0,.8277.4732c.26491-.0761.9982-.5982,1.01591-.9842l.01679-2.455a2.5378,2.5378,0,0,0-.2424-1.0053,1.41833,1.41833,0,0,0-1.0797-.452l-2.1101.4676a.48763.48763,0,0,0-.3072.7736Z"/><path d="M8.58872,149.21148a.57176.57176,0,0,0,.1313.9294l1.2547.7749a.512.512,0,0,0,.8002-.3759l.4057-2.3387c.0856-.4077.0836-.7827-.00429-.8335a1.26059,1.26059,0,0,0-.89631.3094Z"/><path d="M3.36342,14.19708a.50972.50972,0,0,0,.3783.7532l2.6752.6215a.48179.48179,0,0,0,.6139-.5402l-.0514-.8952a1.46558,1.46558,0,0,0-.6107-1.0488l-1.1197-.6578a.77859.77859,0,0,0-.9872.2483Z"/><path d="M86.849,146.55608a4.01406,4.01406,0,0,0,.5889.2796c.1233.0392.5411-.0015.65441-.1846a3.7636,3.7636,0,0,0,.36059-.9347.79653.79653,0,0,0-.4262-.5317l-1.7659-.5388c-.2214-.0655-.4524-.0271-.5134.0853a2.06783,2.06783,0,0,0-.18509.6314,1.2795,1.2795,0,0,0,.391.634Z"/><path d="M42.59933,183.32038c.21219-.3014.13559-.5712-.17011-.5994a3.376,3.376,0,0,0-1.6158.305l-1.30309,1.1377c-.27221.2486-.19391.4715.17389.4953l1.2433.114a1.312,1.312,0,0,0,1.0392-.5276Z"/><path d="M68.79072,208.05718a.26043.26043,0,0,0,.0859.3354.60983.60983,0,0,0,.5669-.2108l.0745-.1844.0556-.1408c.0603-.162.0088-.2923-.1144-.2895A1.5175,1.5175,0,0,0,68.79072,208.05718Z"/><path d="M105.64812,123.25778a.93949.93949,0,0,0,.18621.6934c.13949.1533.65689.4581.803.3377a.85758.85758,0,0,0,.04889-.9517C106.453,123.11448,105.68522,123.02968,105.64812,123.25778Z"/><path d="M85.90533,192.28828c.08079-.166-.17011-.4352-.55761-.5983l-2.2008-.9494a2.95506,2.95506,0,0,0-.7198-.2544,2.40219,2.40219,0,0,0,.5857.5412l1.8954,1.372A.85416.85416,0,0,0,85.90533,192.28828Z"/><path d="M47.82942,131.28438a1.52137,1.52137,0,0,0-.0786-.5704c-.0684-.2422-.4362-.8894-.6928-.8986l-.8833-.0458a.66982.66982,0,0,0-.6131.4317l-.21929.7602a.3788.3788,0,0,0,.36619.4754l1.5562.0961A.77744.77744,0,0,0,47.82942,131.28438Z"/><path d="M41.272,169.51068c.2788.2762.5596.3977.624.2701a1.73248,1.73248,0,0,0-.0088-1.023c-.1394-.3089-.76389-1.0597-.9924-.9574s-.5857.7212-.304.9944Z"/><path d="M97.66362,93.02258a5.36741,5.36741,0,0,0,.77171.1257l1.10189.1648c.37711.0462.7276-.0615.7788-.2392a1.15538,1.15538,0,0,0-.4831-.9781l-1.18159-.5154a.67059.67059,0,0,0-.85781.2611A3.45431,3.45431,0,0,0,97.66362,93.02258Z"/><path d="M56.23162,217.60848a.46431.46431,0,0,0-.3515-.7004l-.7166-.1594a.90086.90086,0,0,0-.8651.3113,8.11116,8.11116,0,0,0-.4208.9467,1.11528,1.11528,0,0,0,.4944.4527c.2734.1359,1.2399.1911,1.42931-.1137Z"/><path d="M141.57822,201.064c.0574.0179.2697-.165.4718-.4064a3.44053,3.44053,0,0,0,.5894-1.0919,5.26356,5.26356,0,0,0-.5138-.4118.45984.45984,0,0,0-.6429.3968l-.0508.6866A1.34865,1.34865,0,0,0,141.57822,201.064Z"/><path d="M50.903,10.10378c.0107.0857.314.0903.674.0103l.6328-.1438c.3602-.0789.3652-.1442.011-.1452A3.67045,3.67045,0,0,0,50.903,10.10378Z"/><path d="M48.13933,6.20538a2.29549,2.29549,0,0,0-.04751.7453,2.54719,2.54719,0,0,0,.52151-.6409l1.71089-2.848a.71377.71377,0,0,0-.2693-.9815c-.3422-.1735-1.4174-.1961-1.46859.2152Z"/><path d="M12.57292,169.71488c-.1578.3763-.0732.5152.1879.3087s.8831-.9367.7706-1.0705S12.73072,169.33848,12.57292,169.71488Z"/><path d="M117.15242,125.14068a1.024,1.024,0,0,0,1.1041-.2313l.5014-.5702a.84526.84526,0,0,0-.036-1.059c-.25859-.2821-1.344-.7446-1.6434-.5046l-1.061.9545a.50936.50936,0,0,0,.12881.8398Z"/><path d="M125.00622,32.05818c-.2274.3298-.3287.6486-.225.7085a4.02414,4.02414,0,0,0,.6046.2397,1.48651,1.48651,0,0,0,.8711-.4748l1.2589-1.5033c.2453-.3167.3327-.6873.1942-.8236a3.1488,3.1488,0,0,0-.7241-.4341,1.64044,1.64044,0,0,0-.6899.5575Z"/><path d="M3.41322,237.78758a4.2544,4.2544,0,0,0,.0908-.6468l.1038-.9628c.0143-.3524-.1223-.6529-.3036-.6678a4.90266,4.90266,0,0,0-.6974.0245c-.0029.0107.0818.3131.1939.6475l.3551,1.0148A2.48724,2.48724,0,0,0,3.41322,237.78758Z"/><path d="M85.251,65.80168c.0334.2232.374.2929.7569.155l1.90741-.6244c.38049-.1445.68589-.4013.67869-.5706a4.059,4.059,0,0,0-.1079-.6743,2.83324,2.83324,0,0,0-.8212-.149l-1.2252-.0141a1.23638,1.23638,0,0,0-.9205.3921A5.5799,5.5799,0,0,0,85.251,65.80168Z"/><path d="M55.107,130.13508c.0901-.2017.1631-.376.162-.3873a4.176,4.176,0,0,0-.4453-.3849c-.2431-.1892-1.01439-.552-1.0813-.4249a2.5058,2.5058,0,0,0-.1563.9528c.0393.2481.2408.9043.3923.9713s.6592.0991.7713-.0857Z"/><path d="M14.52482,190.09248c-.2431-.2853-.5471-.47-.67549-.4105a.933.933,0,0,0-.26991.8825l.4193,1.2871a.72063.72063,0,0,0,.8391.4483c.3191-.1001.9809-.6934.7287-.9706Z"/><path d="M19.20012,186.505c.1296.0161.4366-.2401.682-.5692a7.77184,7.77184,0,0,0,.9599-1.9426c.0386-.3671-.0293-1.2727-.232-1.3005a1.649,1.649,0,0,0-1.15669.5638L18.22482,185.28c-.206.3683-.2489.7499-.0953.8481A6.19,6.19,0,0,0,19.20012,186.505Z"/><path d="M47.40122,38.10158c-.1371-.0764-.2562-.1408-.2648-.143a3.90809,3.90809,0,0,0-.1475.5936c-.064.3309-.0299.8655.1586.6643S47.53822,38.178,47.40122,38.10158Z"/><path d="M117.59352,13.10568a.67531.67531,0,0,0-.7259-.5213,2.96429,2.96429,0,0,0-1.2272.602,1.27959,1.27959,0,0,0,.3835.8755l1.4381,1.0504c.26731.2134.4559.1097.419-.2304Z"/><path d="M1.38892,92.98658a.65955.65955,0,0,0,.348.75c.2398.0622.9878-.1575,1.0555-.5077l.1837-.9529c.0461-.3537-.1256-.6218-.3814-.5959A2.89333,2.89333,0,0,0,1.38892,92.98658Z"/><path d="M77.44052,10.586a7.61993,7.61993,0,0,1,.1976.8891l.6699,3.9473a2.22756,2.22756,0,0,0,.1595.665.61875.61875,0,0,0,.2451-.2238,2.20765,2.20765,0,0,0,.1093-1.1017l-1.0963-4.433c-.082-.3629-.1946-.5866-.25029-.4972A1.87877,1.87877,0,0,0,77.44052,10.586Z"/><path d="M65.63122,6.99008a.82345.82345,0,0,0-.1202-1.0339c-.2712-.2046-1.1373-.2714-1.1578.146l-.1105,2.2751c-.0286.4169.145.4786.3858.137Z"/><path d="M5.83982,218.63348c-.1252-.0085-.2463.1471-.269.3459a2.0716,2.0716,0,0,0,.4661,1.2079l4.01441,3.3997a.66356.66356,0,0,0,.90639.006c.20161-.2359.297-1.2565-.0096-1.4833l-4.0655-3.0302A3.44089,3.44089,0,0,0,5.83982,218.63348Z"/><path d="M98.12242,1.83408c-.2365-.1791-.5012-.143-.5882.0803a4.49958,4.49958,0,0,0-.2488,1.3253c.04491.255.421.6053.6697.3554l.5255-.5602C98.69522,2.75518,98.35892,2.01318,98.12242,1.83408Z"/><path d="M17.25542,167.31188a.52777.52777,0,0,0,.1014.837l.8031.6271c.3105.2188.6515.1997.7578-.0425s.26261-1.0619.0664-1.2898A2.22033,2.22033,0,0,0,17.25542,167.31188Z"/><path d="M56.83062,181.51928c-.1786-.0252-.47129.195-.6504.4893l-1.0281,1.7975a.70724.70724,0,0,0,.2117.8878c.2719.1808,1.1893.2444,1.27351-.0897l.66039-2.3678A.6955.6955,0,0,0,56.83062,181.51928Z"/><path d="M26.73582,138.505a.10958.10958,0,0,0-.0089.0498c.0029.005.017-.0122.0219-.0396S26.74362,138.48258,26.73582,138.505Z"/><path d="M81.39362,71.49818c.204.2683.51871.2151.6992-.1182l.752-1.4765c.1768-.3353.0384-.4832-.3077-.3285l-1.1189.561C81.09392,70.33228,81.18952,71.22978,81.39362,71.49818Z"/><path d="M138.67712,102.605a2.13918,2.13918,0,0,0-.1353.7739c-.0089.3218.2809,1.244.686,1.3035l1.6833.2938a.57392.57392,0,0,0,.68321-.6348l-.04181-1.0019a.91314.91314,0,0,0-.77-.8359l-1.1158-.1677A1.4393,1.4393,0,0,0,138.67712,102.605Z"/><path d="M76.62842,50.24158a.95414.95414,0,0,0-.1042-.6355,2.78528,2.78528,0,0,0-.7322-.6019,1.81254,1.81254,0,0,0-1.2294.118l-.6965.6412c-.2419.2612-.34379.5916-.2266.7342a3.66955,3.66955,0,0,0,1.0787.704l.84011.2962c.33489.1205.65859.1189.71919-.0036A12.29562,12.29562,0,0,0,76.62842,50.24158Z"/><path d="M10.59112,52.78528c.0003-.0886-.00379-.3163-.0091-.506s-.0273-.7954-.0351-.9002a1.44448,1.44448,0,0,0-.675-.6771c-.3588-.165-1.4104-.3806-1.4718-.089s.1031,1.3103.44721,1.512l1.09049.6283C10.29122,52.93838,10.59072,52.87388,10.59112,52.78528Z"/><path d="M9.08,183.68988c-.08.4034-.063.7621.0379.7972a1.26879,1.26879,0,0,0,.8377-.4738l1.3912-1.9146a.54072.54072,0,0,0-.2701-.8547c-.37239-.125-1.5406-.0582-1.612.3469Z"/><path d="M92.7,61.28728c.2327.0321.3957-.2762.36231-.6852l-.09681-1.1137c-.0297-.4092-.1983-.4409-.3747-.0705l-.3819.8855A.90481.90481,0,0,0,92.7,61.28728Z"/><path d="M71.56533,100.66928a1.55605,1.55605,0,0,0,1.20439-.4404,4.29389,4.29389,0,0,0,.8121-1.8394l-.2827-3.2045a1.49207,1.49207,0,0,0-.6953-1.0905,3.27273,3.27273,0,0,0-1.9712-.2408l-1.3731.9763a1.59616,1.59616,0,0,0-.5596,1.1966l.1271,3.2768a1.15962,1.15962,0,0,0,.34431.8984,6.52964,6.52964,0,0,0,1.39959.3611Z"/><path d="M.35442,11.28948c.0408-.4158-.14009-.7592-.4019-.7631s-.9685.3182-.9641.736l-.0383,2.6101c-.0092.4178.1475.7419.3483.7202a1.15606,1.15606,0,0,0,.7917-.8219Z"/><path d="M70.87082,3.68418a.79134.79134,0,0,0,.5913.6753c.2623.0196,1.0224-.1433,1.0711-.3034a2.62315,2.62315,0,0,0-.103-1.1829l-.708-1.6863c-.1323-.3321-.3881-.5559-.5686-.4973s-.63.5101-.5779.8638Z"/><path d="M65.50872,68.84438a.796.796,0,0,0,.9848-.3669l1.3583-2.5894c.1886-.3431.2987-.6538.2447-.6903a1.3104,1.3104,0,0,0-.76519.3094l-2.60461,2.1316a.47947.47947,0,0,0,.0781.822C65.13842,68.65048,65.50872,68.84438,65.50872,68.84438Z"/><path d="M143.75012,40.79638c.12321.3656.3186.3636.4343-.0045l.5161-1.9463c.0791-.3776-.13619-.663-.4785-.6343s-1.2359.5266-1.11269.8922Z"/><path d="M53.85082,193.549c-.0167.2406.0591.472.1683.5142a.73431.73431,0,0,0,.628-.1618c.1157-.1664.20521-.7382.0196-.8325S53.86752,193.30828,53.85082,193.549Z"/><path d="M75.451,44.92308c-.3673-.0408-.6905.0113-.7182.1158a.93692.93692,0,0,0,.5538.6508l1.81471.7236c.349.1217.63.0289.62439-.2063a2.51163,2.51163,0,0,0-.2316-.9822,5.88061,5.88061,0,0,0-1.0342-.1997Z"/><path d="M12.04642,8.29548c.0444-.3386-.1523-.4614-.43709-.2728l-1.18151.9252a.68045.68045,0,0,0-.0589.9078l.83.8905a3.04271,3.04271,0,0,0,.49341.3919,3.22969,3.22969,0,0,0,.12849-.6569Z"/><path d="M77.218,132.75518a1.793,1.793,0,0,0-.7186.1625,2.14848,2.14848,0,0,0,.2172.8044l1.14971,2.1739c.16509.3381.39379.3215.50829-.037l.6816-2.4703a.529.529,0,0,0-.54789-.6609Z"/><path d="M100.21542,66.75108a.82767.82767,0,0,0,.3225-.9737l-.554-1.78c-.1521-.3928-.4518-.4174-.6658-.0546l-.78779,1.2188a.99057.99057,0,0,0-.06511,1.0557A3.09851,3.09851,0,0,0,100.21542,66.75108Z"/><path d="M49.11772,8.04408c-.0627-.3481-.25839-.3821-.4348-.0755l-.45559.8626c-.14151.3242-.04471.6312.21529.6823s.9623-.1278.9006-.476Z"/><path d="M46.11852,25.99528c.0115.3365.1482.3769.30381.0896s.40029-1.1326.24739-1.1592S46.107,25.65878,46.11852,25.99528Z"/><path d="M72.306,70.08438a.68987.68987,0,0,0-.8308-.3929l-1.0862.3056a.533.533,0,0,0-.3424.7488l.4675,1.1327a.55631.55631,0,0,0,.7906.2835l.9869-.4933a.64784.64784,0,0,0,.3148-.8396Z"/><path d="M19.35722,97.601c.2313-.0308.3753-.3707.3198-.7552s-.3495-.8933-.5233-.557-.56339,1.3009-.55739,1.3051A4.95362,4.95362,0,0,0,19.35722,97.601Z"/></g></mask></defs><path d="M88.90978,48.2697,92.236,50.685c-.24512.49-.666.69995-1.64551.69995H71.61876a21.2059,21.2059,0,0,1-1.2959,2.87037l.875.385H84.2545L85.51525,52.995l3.39453,2.4502a2.602,2.602,0,0,1-1.46973.7351V68.50163a3.98945,3.98945,0,0,1-2.835.80518V67.20647H70.95372v1.19018c0,.07007-.31543,1.05005-2.83593,1.05005V57.65056a27.94377,27.94377,0,0,1-8.33106,7.0708l-.38476-.52515a28.22286,28.22286,0,0,0,8.68066-12.81128H60.03185l-.21-.80517H74.38341V47.11443H63.3922l-.21-.80494H74.38341V42.94914H61.53771l-.21-.77026h17.956a44.74059,44.74059,0,0,0,2.31055-5.35547l4.06055,1.54028a.742.742,0,0,1-.77051.41993,3.47084,3.47084,0,0,1-.55957-.07007,27.98143,27.98143,0,0,1-4.09571,3.46533h5.56543L87.5797,39.9738,90.9049,42.249c-.2793.49-.69922.70019-1.67969.70019H77.28868v3.36035H84.36l1.64453-2.06543,3.1504,2.17041c-.2793.49-.7002.7-1.64454.7H77.28868v3.46533h9.83594ZM67.41759,36.9633c3.57031.77027,4.72559,2.27539,4.72559,3.46558a1.639,1.639,0,0,1-1.5752,1.68018,1.70314,1.70314,0,0,1-1.25976-.59522,7.81162,7.81162,0,0,0-2.16993-4.30542Zm17.1875,18.447H70.95372V58.5258H84.60509Zm-13.65137,3.8855v3.15039H84.60509V59.29582Zm0,7.14063H84.60509V63.21623H70.95372Z"/><path d="M73.92833,88.30974l.10547.49c-1.50488.63013-3.39551,1.40015-5.63574,2.3103v12.32129c0,.105-.38477,1.05-2.69531,1.05V92.12492c-1.19043.45508-2.48535.94532-3.88575,1.43531a1.18891,1.18891,0,0,1-.875.80493L59.54161,90.725c1.26075-.14013,3.501-.49023,6.16114-.94531V81.204H62.62267a24.85756,24.85756,0,0,1-2.27539,5.88037l-.62988-.24488A61.1712,61.1712,0,0,0,61.22228,73.818l3.78027.63013c-.07031.42016-.28027.665-1.12012.7351-.28027,1.75025-.62988,3.5354-1.0498,5.21558h2.87012V71.893l4.165.385c-.06934.49-.38477.73511-1.46973.84009v7.28076h.80469l1.6455-2.38037L73.859,80.50383c-.28028.49-.73535.7002-1.68067.7002H68.39806v8.1206ZM89.29552,77.77361l3.21973,2.55517a2.40808,2.40808,0,0,1-1.46973.595c-.35059,12.98657-.98047,20.30225-2.73047,22.01734-1.12012,1.05029-2.13476,1.47021-4.30566,1.50512,0-1.6101-.21-2.20507-3.95508-2.76513l.03516-.59522c1.43457.07007,3.71.175,4.69043.175a1.489,1.489,0,0,0,1.33007-.45483c1.33008-1.26026,1.85547-8.68116,2.16993-20.51221H86.84533c-1.61036,8.96094-5.041,17.67676-12.2168,23.45239l-.31445-.52514c5.46-5.84546,8.43554-14.42139,9.626-22.92725H81.87462c-1.61035,6.33569-4.90039,12.67139-10.18652,16.87158l-.28027-.5249c3.88574-4.23535,6.54589-10.46607,7.70117-16.34668H76.97423a23.436,23.436,0,0,1-5.18066,7.5957l-.49024-.31494c2.27539-3.43042,4.2002-9.521,5.0752-15.7168l4.20117.98023c-.10547.45508-.38574.665-1.26074.73511a46.74267,46.74267,0,0,1-1.99512,5.91552H87.93029Z"/><path d="M74.76915,133.8466c9.34571-1.50512,12.81055-6.86084,12.81055-12.39135,0-6.44068-2.7998-11.6211-10.43066-11.6211a15.96228,15.96228,0,0,0-3.0459.34986,4.35425,4.35425,0,0,1,1.71582,3.78051c0,6.54566-4.55078,17.1167-9.80078,17.1167-2.69532,0-4.58594-2.94018-4.58594-7.52563,0-7.91089,6.47559-14.77149,15.85644-14.77149,8.64649,0,13.44141,5.2854,13.44141,12.8462,0,6.7207-4.27051,12.00634-15.751,12.98632Zm-1.6455-23.41748c-5.251,1.43506-9.13575,6.54566-9.13575,13.02149,0,2.62524.76953,4.58545,2.13477,4.58545,3.67578,0,7.63086-9.45117,7.63086-15.33155A3.84118,3.84118,0,0,0,73.12365,110.42912Z"/><path d="M65.38732,140.84416v7.981c0,6.26562-.24512,15.05151-5.28516,21.14209l-.52539-.3501C62.482,163.38664,62.692,155.6508,62.692,148.86V138.779l3.18555,1.29516H86.91466l1.89063-2.38037,3.53515,2.48535c-.28027.49-.70019.665-1.67969.665ZM88.8756,165.45183l3.53515,2.48511c-.28027.49023-.70019.66528-1.71582.66528H63.91759l-.24512-.77026h5.18067v-8.68091l4.12988.385c-.03418.49023-.38477.70019-1.39941.87524V167.832h5.32031V156.5258l4.165.3501c-.06934.49-.41992.7002-1.39942.875v3.39551h4.86524l1.71484-2.20532,3.25586,2.27514c-.28027.52515-.73535.7002-1.64551.7002H79.66954V167.832H86.985Zm-3.7461-9.136c0,.28-1.085.84009-2.03027.84009H82.609v-6.96582a18.80989,18.80989,0,0,1-5.98535,5.74072l-.38477-.595a19.65142,19.65142,0,0,0,5.14551-8.12109H77.74376l-.06933-.27979a2.0404,2.0404,0,0,1-1.26075.27979H72.983v1.96045c3.25586.595,4.30566,1.925,4.30566,2.94018a1.25611,1.25611,0,0,1-1.2246,1.29517,1.37437,1.37437,0,0,1-1.01563-.42017,7.88265,7.88265,0,0,0-2.06543-3.32519v6.7207c0,.07007-.38477.80493-2.415.80493v-6.09057a20.52189,20.52189,0,0,1-4.79492,5.21557l-.41992-.56006a23.10037,23.10037,0,0,0,4.41015-8.541H66.01818l-.21-.77H70.568v-4.30542l3.81543.31518c-.03516.49-.34961.73487-1.40039.83985v3.15039h1.01563l1.36523-1.78516,2.52051,1.78516H82.609v-4.34033l3.9209.31494c-.07032.49-.34961.73511-1.4004.84009v3.1853h2.10059l1.50488-1.99512,2.835,2.1001c-.27929.49023-.665.665-1.60937.665H85.61974a13.73874,13.73874,0,0,0,6.47559,6.23071l-.07032.3501a2.80193,2.80193,0,0,0-2.02929,2.27514,16.28268,16.28268,0,0,1-4.86622-7.91064Z"/><path d="M86.07482,189.98528H77.42931a14.73809,14.73809,0,0,1-2.94043,7.9458c4.585,2.52026,10.74609,3.60547,17.71191,3.92041v.41992a3.22935,3.22935,0,0,0-2.416,2.69531c-6.93067-.80493-12.53125-2.41528-16.66113-5.56543-2.69532,2.55518-6.89551,4.44531-13.127,5.60059l-.1748-.59522c5.6709-1.54,9.38086-3.67529,11.65625-6.44067a18.54327,18.54327,0,0,1-4.09571-5.9856l.5254-.385a14.97181,14.97181,0,0,0,4.51562,5.07544,14.921,14.921,0,0,0,2.13477-6.68554H66.29747v1.71508c0,.07007-.41992,1.01514-2.87011,1.01514V177.944l3.11523,1.29516h8.12109v-6.79077l4.44532.3501c-.07032.56006-.38477.77-1.54.90991v5.53076h8.15625l1.25976-1.61035,3.46582,2.45044a2.73719,2.73719,0,0,1-1.50586.7v10.95606c0,.07006-.80468.87524-2.87011.87524Zm-19.77735-.77h8.33106c.03515-.56006.03515-1.12012.03515-1.68018v-7.491H66.29747Zm19.77735-9.17115H77.569v7.45581c0,.59522-.03516,1.15528-.07031,1.71534h8.57617Z"/><g class="cls-1"><path class="cls-2" d="M23.61974,245.82165l.06424-1.73408.726-1.36378-.42818-1.41458-.22757-.81656.33518-1.4619-.1821-1.4508-.48627-1.3849.25639-1.60166-1.20374-1.121-.35681-1.43373-.44855-1.4392-1.1778-.97985-.97606-1.07535-.54734-1.49464-1.17032-.92634-1.335-.68541-1.35382-.58579-1.12113-.9681-1.38739-.47038-1.19712-1.00514-1.61029.31666-1.33054-.76135-1.4703-.07687-1.46441-.37264-.83639.06755-1.39252.52985L1.864,221.7935l-1.43628.281.37315-1.43595-.46516-1.435-.076-1.43519L0,216.33272.54284,214.897l-.11813-1.43572-.11264-1.4354.2452-1.435-.17188-1.43488.28832-1.43451L.1281,206.2869l.714-1.43409L.198,203.423l.01038-1.43.646-1.43032-.2662-1.43115.1366-1.43159-.15142-1.43231.33607-1.4328L.4471,193.401.453,191.96656.017,190.5312l.40154-1.43593L.406,187.65942l.5125-1.435-.66639-1.4347.12821-1.4338L.0386,181.92255l.875-1.43249-.12937-1.4324.00077-1.432-.35022-1.43176.135-1.43134-.16755-1.43124,0-1.431-.2518-1.43106.63054-1.43074.14384-1.431-.46714-1.43131-.434-1.43149.91425-1.43129-.14151-1.432.12086-1.43231L.1998,159.016l.24193-1.43333.18519-1.434-.0296-1.43478-.38867-1.43572L.96573,151.842l-.6975-1.43759.5516-1.43633-.3815-1.4359.49489-1.43493-.412-1.43468.3098-1.434.01868-1.43369L.182,140.36128.068,138.928l.63458-1.433-.42808-1.43338.00791-1.43338.44006-1.4335.21208-1.434-.793-1.43481.337-1.435.11391-1.43588-.11539-1.43684.49685-1.43764-.25247-1.43749-.47312-1.43674.1435-1.43586.10966-1.43534.26113-1.43492-.27183-1.43489.37951-1.43461L.733,113.09582l.04411-1.43513.0351-1.4356.016-1.43626.00193-1.4371-.34583-1.43826-.33929-1.43808.65054-1.43688-.66695-1.43669.10734-1.436.75516-1.4356L.31924,97.29405.149,95.85775.03916,94.42089l.48635-1.4375.07343-1.43877.34319-1.43791.042-1.43724L.76871,87.23259.57392,85.79583l.03763-1.43692L.04489,82.92118l.37618-1.43839L.17971,80.044l.17857-1.43775L.7218,77.169.45309,75.73153l.54052-1.43774L.89013,72.86161.49431,71.4289.045,69.99515l.94217-1.43489L.54007,67.1226l.01347-1.44014.41659-1.43759-.3646-1.43625.33232-1.43525L.78243,59.93778.01505,58.50083l.8761-1.4386L.57743,55.62169.45292,54.1834.531,52.746l.34038-1.438L.12515,49.86732l.4836-1.44.10054-1.43886.21919-1.43981L.81169,44.1071l-.20934-1.44L.6756,41.22552.37082,39.78461l.38079-1.442.00318-1.43809.24144-1.438L.924,34.02352.53472,32.58288l.07313-1.44241.08222-1.444-.3298-1.44212.57217-1.44519L.73622,25.36134.34059,23.90773l1.55758.52616,1.43393-.86134L4.701,24.1589l.8259-.168,1.43735-.25027,1.52984.47772,1.3365-.80612,1.37744-.43851,1.58177.04937,1.03659-1.2423,1.22812-.7409,1.30378-.64067,1.36618-.62761.90444-1.17958,1.39472-.72046.37714-1.57566.77887-1.21456,1.354-.925-.11722-1.66977.59243-1.31448.316-1.40686.37879-1.39341-.08033-1.45446L24.6348,5.49265,24.435,4.65232l-.82509-1.35574.53395-1.41788L23.70949.25611,25.3874.75964,26.82669.1662l1.44-.15528,1.44093.79183,1.44195-.548L32.59115.03728l1.44071.08215,1.44.32432L36.91141.07383l1.43913.644L39.78946.514l1.43887.38066,1.439-.69592,1.43927.45274L45.54632.28381l1.44039.36665L48.428.15666l1.44227.39705,1.4421-.40645,1.44124.35819L54.19415.8591l1.44017.0386,1.44-.69006,1.44.28333L59.95475.14156l1.441.68621L62.8375.3319l1.44294.3935L65.7226.72363,67.164.84423,68.60492.62117,70.04575.27005,71.48681.8073,72.92848.10357,74.37114.942,75.814.58459,77.25591.033l1.4415.64479,1.44154.309L81.581.67577,83.01727.01165,84.454.616l1.43771.216L87.331.53339,88.77266.15175,90.217.153l1.44187.311,1.44025.4832L94.53856,0l1.43967.90777L97.419.239l1.443.05881,1.44458.51665L101.749.41626l1.44156.3331,1.44224-.332,1.44458.17148,1.4443.25254,1.443-.78107,1.444.05,1.44567.13645,1.44407-.04154,1.44575.58607,1.445-.35945,1.44631-.20735,1.44223.76132L120.52.0055l1.447.30948L123.4117.16156l1.44659.26163L126.30651.38l1.44615.261,1.44955.27564,1.45187-.53854,1.35919.20716.17586,1.30448-.34325,1.38055.48008,1.41687-.54534.80543.0011,1.47615.78642,1.37-.31829,1.54342.83275,1.2796.60457,1.30653-.05258,1.63294.87594,1.20756,1.16523.9748.95263,1.08111,1.0462.98277.69836,1.37876,1.169.8897,1.19433.85782,1.26346.7587,1.31262.68046,1.35146.62557,1.59031-.24708,1.28192,1.08582,1.49511.12266,1.49573-.19309.8138-.45029,1.41153-.07884,1.41065-.2054.93311.36415.9771,1.41064-.92731,1.43453.2323,1.43524.47312,1.43566.11594,1.43592-.16344,1.43563.04693,1.43537.07019,1.43509-.22417,1.43474.00726,1.43462-.47249,1.43429.83858,1.43462-.93268,1.4293.59373,1.43027.24542,1.43062-.47371,1.4309L155.161,48.2854l.62507,1.43247.09131,1.433.02721,1.43364-.13419,1.43434-.64721,1.435.61289,1.43628-.59231,1.43564.83352,1.43542-.17879,1.4344-.62475,1.43363.48832,1.43347.16974,1.43285-.3213,1.43224-.27922,1.43188-.14519,1.43159.4217,1.43153.10754,1.43122.30125,1.43114-.82566,1.43069.76034,1.43122-.255,1.43093-.24074,1.43107.69106,1.43158-.7485,1.43135.472,1.43211-.067,1.43233-.22408,1.43277.08792,1.43345-.05622,1.434-.04108,1.43476.40738,1.43572.157,1.43653-.26213,1.43726-.35152,1.4364.45551,1.43592-.6806,1.43487-.00553,1.43453.51289,1.43425-.35341,1.43357-.22566,1.43334.42341,1.4334-.18864,1.43312.08224,1.43326-.11528,1.43335.55385,1.43385-.00172,1.434-.81223,1.43426.8391,1.43546.10089,1.436-.057,1.43678-.03383,1.4378-.47612,1.43724.32474,1.43669-.70123,1.43567.43057,1.43553-.01749,1.435.25632,1.43488-.60546,1.43453.09261,1.43489.834,1.43543-.334,1.4355.02575,1.43627-.62044,1.43689.02889,1.43815.64863,1.43818-.48174,1.43694-.14338,1.43641.31561,1.43616-.29857,1.43576.44068,1.43608.12875,1.43628-.20771,1.43675.16894,1.43773-.65994,1.43857.29724,1.43813-.07969,1.43723-.07044,1.43678-.12337,1.43665.84585,1.43722-.62668,1.43732.20019,1.43859-.269,1.4386-.16817,1.43775.09717,1.43741.33255,1.43751-.33944,1.43781.25663,1.43223-.04392,1.43256.47647,1.43376.0791,1.43524-.50921,1.43733.33957,1.44026-.014,1.43773-.46526,1.436.6294,1.43559.10516,1.43557-.55791,1.43649.46149,1.43906-.34856,1.44032.2323,1.43832.16806,1.43749-.42108,1.438.25937,1.44052-.43782,1.44.11141,1.43893.316,1.44-.72717,1.44128-.00175,1.43992-.031,1.4416.63228,1.441-.54718,1.442.54307,1.43828-.57211,1.43793.61339,1.4431-.37017,1.44038.54551,1.44263-.59976,1.44386.21478,1.44208.01189,1.44539-.46536,1.44755.12374,1.43665-1.03913.11878-1.373-.513-1.39241-.04689-.83591-.01692-1.48684.008-1.44345.39017-1.30374.86239-1.65478-.489-1.16685,1.08646L142.22,224.19l-1.345.55328-1.22607.77879-1.47461.51036-.87034,1.23989-.895,1.16528-.758,1.25021-1.25612.92136-.70615,1.30595-.42367,1.4288-.784,1.28559-.4857,1.41441.21084,1.54681.07141,1.46526-.37384,1.43662-.06462.82858.1554,1.386.37114,1.37875-.006,1.65744-1.69227-.18714-1.43929.41468-1.44005-.544-1.44093.06439-1.44194-.33915-1.44154.71566-1.44071-.35816-1.44-.3029-1.43951.11017-1.43913.08359-1.43892.07029-1.43886.39286-1.439-.51353-1.43927.48146-1.43974-.78567-1.44039.533-1.44123.093-1.44228-.53737-1.4421-.06763-1.44123.17787-1.4406-.09721-1.44017.44026-1.44.04331-1.44.06668-1.44037-.244-1.441.3856-1.44181-.26139-1.44293-.26612-1.44217.32969-1.44138-.16819-1.44094.20466-1.44083-.38167-1.44106.25639-1.44167.05679-1.44265-.16867-1.44283.03909-1.442-.23346-1.4415.32111-1.44154.38139-1.44206-.08609-1.43626-.77117-1.4367.03552-1.43771.49574-1.43934.09458L67.282,245.682l-1.44428-.26713-1.44187-.0899-1.44026.19449-1.43949-.29163-1.43966.72042-1.44082-.24324-1.443-.21631-1.44458.09717-1.44238.28584-1.44156-.67175-1.44224-.17435-1.44457.5515-1.4443.3339-1.443-.324-1.444.2316-1.44567-.06537-1.44407-.6729-1.44575.42085-1.44495.40687-1.44631-.64153-1.44223.40648-1.44226.14857-1.447-.33556-1.44465-.4868-1.44659.5667-1.44822-.23282L28.302,245.714l-1.44954-.10483-1.46427-.23824ZM33.71533,8.95792l-1.07469.25147-1.228.87294.196,1.4767L31.48743,13.002l-.80705,1.23523-.49134,1.324-.38428,1.38048-1.24458.94413-.06091,1.58828-1.00585,1.03869-1.079.95059-.54859,1.36534-.87662,1.12183-1.4286.56077-.959,1.01761-.90915,1.10867-.99117,1.04982-1.35024.52441-1.14782.84092-1.49106.16522-.9892,1.24975-1.4982.04764-1.31025.51982-1.43552.05013-1.35619.32614-1.0043,1.08986-.80975,1.17979.249,1.4349-.3727,1.43544.46566,1.436L8.727,39.4241l.2603,1.43729L8.445,42.2994l.11863,1.43877.11313,1.43958-.2447,1.44046.17237,1.44023L8.3166,49.498l.5461,1.43884L8.14918,52.375l.64458,1.43767-.00989,1.43717L8.1384,56.68658l.2667,1.43634-.13611,1.436.15192,1.43575-.33558,1.43555.46281,1.43541L8.54271,65.301l.43657,1.43533-.401,1.43538.013,1.43552-.512,1.43571.66689,1.436-.12772,1.43631L8.9606,75.352l-.87444,1.43722L8.216,78.227,8.21574,79.6654l.35072,1.43915-.13447,1.44L8.6,83.98537l.00055,1.44174.25229,1.4409-.63,1.44015-.14335,1.43949.46764,1.43891L8.98157,92.625l-.91376,1.43807.142,1.43779L8.08945,96.9385l.71786,1.43756-.24143,1.43761-.1847,1.43776.03009,1.438.38917,1.43842-.75658,1.43892.698,1.43954-.55111,1.44031.382,1.44118-.4944,1.4422.41252,1.44179-.3093,1.441-.01819,1.44028.66817,1.43977.1145,1.43938L8.312,119.9714l.42857,1.43912-.00741,1.43923-.43956,1.43953-.21159,1.44.79349,1.44065-.3365,1.44149-.11341,1.44253.11588,1.44235-.49635,1.44149.253,1.44084.47361,1.44043-.143,1.44025-.10916,1.44031-.26063,1.44063.27232,1.4412-.379,1.44206.13776,1.44319-.04361,1.44242-.03461,1.44164-.01554,1.44119L8.19474,150.233l.34632,1.44132.3398,1.44192-.65005,1.44291.66744,1.44308-.10684,1.4422-.75466,1.44176.67241,1.44179.17069,1.44231.11039,1.43652-.48586,1.43695-.07294,1.438-.34269,1.4396-.04151,1.44189.21592,1.44455.19529,1.44212-.03714,1.4405.56716,1.43976-.37569,1.43991.24186,1.44107-.17807,1.44329-.363,1.44484.2692,1.44263-.54,1.44181.104,1.4425L8.543,186.271l.44981,1.44456-.94168,1.44328.44758,1.44428-.013,1.44593-.41608,1.44432.36509,1.446-.33183,1.4452.15592,1.44656.76788,1.44249-.87561,1.44252.31422,1.44729.125,1.4449-.07758,1.44685-.33988,1.44847.74673,1.44641-.48311,1.4498-.1,1.45213-.2187,1.45214.65231,1.4716,1.39182.57808,1.362.35463,1.4429.06291,1.22643.79193,1.30691.49974,1.17607.78378,1.27072.56344,1.40789.36143,1.14232.82754,1.0886.89151,1.30455.63142.6616,1.36473,1.12544.84742,1.23809.78328.38192,1.49714,1.57638.59952.33289,1.47876.86932,1.12966.81723,1.18089-.0269,1.55461.9961,1.1275.47915,1.3405-.21879,1.514.9626,1.243.595.94539,1.035.57014,1.42615.35481,1.42661-.25178,1.42726.53514,1.42809-.68117,1.42912-.02918,1.429.72766,1.42809-.80822,1.42746.09952,1.427-.07831,1.42686.10022,1.42693-.24992,1.42723.95621,1.42782-.178,1.42865-.7647,1.42978.59575,1.429-.47065,1.42824.60335,1.4278-.59343,1.42769-.15528,1.42792.79183,1.42852-.548,1.4295-.21744,1.42967.08215,1.4288.32432,1.42836-.36991,1.42839.644,1.4289-.20386,1.42317.38065,1.42359-.69591,1.4246.45274,1.42622-.36765,1.42849.36664,1.43112-.49378,1.42872.397,1.42712-.40644,1.42637.35819,1.42653.35365,1.42768.03861,1.42988-.69006,1.4314.28334,1.42923-.34941,1.42841.68621,1.42909-.49587,1.4314.39351,1.43114-.00177,1.42987.12061,1.43085-.22306,1.43249-.35112,1.4309.53725,1.43257-.70373,1.43177.83844,1.43312-.3574,1.42908-.55159,1.42911.64479,1.43384.309,1.43148-.311,1.43339-.66412,1.435.60436,1.433.216,1.43633-.29862,1.43863-.38164,1.43864.00122,1.26568-.149,1.15043-1.08072-.64246-1.5748,1.23642-1.1374-.20741-1.54415.56082-1.30967,1.04205-1.07863.28086-1.43284.99063-1.05248.487-1.36048L129.47,224.392l1.0769-.92885.36552-1.57279,1.04832-.97751,1.15223-.85377,1.08153-.92895,1.48586-.35481.9832-1.06594,1.12675-.88818,1.59724.04284.89373-1.46706,1.44574-.2186,1.30978-.58044,1.44216-.1078,1.37872-.32788,1.316-.47857.77719-1.37951-.53853-1.43491.24555-1.43543-.27583-1.436.282-1.43662-.54216-1.43729.52425-1.438.05628-1.43877-.62136-1.43959.61342-1.44045-.45387-1.44024-.1135-1.43951.73425-1.43884-.17179-1.43822-.42534-1.43767-.07727-1.43717-.10056-1.43673.53844-1.43634-.02637-1.436.04773-1.43575.04236-1.43555.06638-1.43542.11777-1.43533-.67049-1.43533.816-1.43539-.05292-1.43551-.2512-1.43571-.42927-1.436-.01657-1.43632-.14329-1.43673.90177-1.43722-.97818-1.43779.92681-1.43843-.23279-1.43916-.47362-1.44-.11643-1.44085.16294-1.44175-.04743-1.4409-.07068-1.44015.22367-1.43948-.00775-1.43892.472-1.43844-.83907-1.43807.93218-1.4378-.59422-1.43763-.24592-1.43756.47322-1.4376.34126-1.43777-.62557-1.438-.0918-1.43841-.02771-1.43892.1337-1.43955.64672-1.4403-.61339-1.44119.59181-1.4422-.834-1.44179.17829-1.441.62426-1.44029-.48882-1.43976-.17023-1.43939.32081-1.43917.27873-1.43912.14468-1.43924L147.598,121.696l-.108-1.44-.30174-1.44064.82516-1.44149-.76083-1.44253.2545-1.44236.24024-1.44149-.69155-1.44084.748-1.44043-.47249-1.44025.0665-1.44031.22358-1.44063-.08841-1.4412.05572-1.44206.04059-1.44319-.40788-1.44241-.15747-1.44165.26163-1.44119.351-1.44108-.456-1.44131.6801-1.44192.005-1.44292-.51338-1.44308.35291-1.4422.22517-1.44176-.4239-1.44179.18814-1.44231-.08273-1.43652.11478-1.43695-.55434-1.438.00122-1.4396.81173-1.44189-.83959-1.44454-.10139-1.44212.05646-1.44051.03333-1.43975.47563-1.43992-.32524-1.44107.70074-1.44329-.43107-1.44483.017-1.44264-.25681-1.44181.605-1.4425-.09311-1.44483-.83447-1.44455.33354-1.44329-.02625-1.44428.61995-1.44592-.02939-1.44432-.64912-1.446.48124-1.4452.14289-1.44657-.31611-1.44248.29807-1.44252-.44117-1.4473-.12925-1.4449.20722-1.44684-.16944-1.44848.65945-1.44641-.29774-1.44979.07919-1.45214.07-1.45213-.45159-1.58011-1.60333-.00928-1.26049-.89855L143.1401,31.031l-1.25366-.68331-1.24026-.65086-1.30941-.47264-1.39913-.33683-1.04385-.99238-1.31248-.545-1.11-.85977-1.39959-.51971-1.11542-.8973-.643-1.36233-1.19845-.82313-.88431-1.11387-.45223-1.41364-1.29773-.84374-.80688-1.18927-.14632-1.51958-.9964-1.11073-.18015-1.4531-.65428-1.28014-.52578-1.34072.12477-1.479-.8474-.97627L122.33838,8.327l-1.42615.11191-1.42661.31654-1.42725-.72667-1.42809-.00126L115.20115,7.997l-1.429.63277-1.42809-.54668-1.42745.54356-1.427-.57161-1.42686.61388-1.42692-.36967-1.42724.546L103.78078,8.246l-1.42865.21527-1.42978.01239-1.429-.46485-1.42825.12405-1.42779.52926-1.42769-.452-1.42792.01446-1.42852.00483-1.4295-.04975L89.494,8.39864l-1.42879.59227-1.42836-.92117L85.20845,8.684l-1.42891.13645-1.42317-.1771-1.42359-.03592-1.4246-.51415L78.082,8.41259l-1.42849.13425L75.22236,8.727l-1.42872-.53093-1.42712.02432-1.42637.21568-1.42654-.28938-1.42767-.0831-1.42988.50847-1.43141.24231-1.42922-.318L62.367,8.41018l-1.42909.094-1.4314.30989-1.43113.03525-1.42987-.293L55.21466,8.971,53.78217,8.427l-1.43089.06439L50.91871,8.1522l-1.43177.71566L48.05382,8.5097l-1.42908-.3029L45.19562,8.317l-1.43384.08359-1.43147.07029-1.4334.39286-1.435-.51353-1.433.48146L36.59261,8.046l-1.42486.5319Zm2.23836,223.96144-.3369-1.05885.199-1.58694-.96151-1.20086-.78771-1.23206-.26691-1.47256-.69433-1.27653-.918-1.13889-.23169-1.59388-1.45482-.74554-.68372-1.30551-.72366-1.307-1.32024-.7547-1.11367-.92736-.69417-1.42081-1.22017-.82545-1.35169-.62232L22.038,213.878l-1.09358-.993-1.353-.5458-1.091-1.10354-1.62829.12133-1.19233-.9564-1.41946-.34557-.413-.316-.016-1.29019-.468-1.43284.38082-1.43356-.249-1.43431.3727-1.43513-.46565-1.436-.07644-1.43577-.26028-1.43506.54235-1.43438-.11862-1.43378-.11312-1.43322.2447-1.43272-.17236-1.43228.28783-1.43189-.54609-1.43157.71353-1.43131-.64457-1.4311.00989-1.431.64548-1.43089-.26669-1.43089.13612-1.43094-.15192-1.43108.33559-1.43126-.4628-1.43154.00544-1.43187-.43656-1.43228.401-1.43277-.013-1.43334.512-1.434-.66688-1.4347.12773-1.43551-.34217-1.43639.87446-1.43728-.12985-1.43644.00028-1.43569-.35071-1.435.13448-1.43446-.168-1.434-.00054-1.43362-.25229-1.43335.63006-1.43317.14336-1.43311-.46763-1.43316-.43445-1.43332.91376-1.43357-.142-1.434.12038-1.43447-.71785-1.43509.24144-1.43585.1847-1.43672-.03008-1.43773-.38916-1.43733.75659-1.4365-.698-1.43584.55111-1.4353-.382-1.43493.49441-1.43472-.41251-1.43467.30931-1.43478.0182-1.43506-.66817-1.43554-.1145-1.43619.63409-1.437-.42856-1.43807.00743-1.43789.43956-1.437.21159-1.43639-.79347-1.436.33651-1.43579.11341-1.43585-.11587-1.43617.49636-1.43674-.253-1.43759-.47361-1.43873.143-1.438.10917-1.43718.26064-1.43673L13.52219,97.983l.379-1.43685-.13775-1.43746.04362-1.43845.03461-1.43861.01554-1.43774.00145-1.43729-.34632-1.43733-.33978-1.43785.65005-1.43207-.66743-1.4325.10685-1.43351.75467-1.43514-.67241-1.43743-.17068-1.44007L13.06325,76.433l.48587-1.43605.07294-1.43529.3427-1.43546.04152-1.43661-.21591-1.43882-.19528-1.44036.03715-1.43817-.56715-1.43736.37569-1.438-.24185-1.44035.17808-1.44009.363-1.43881-.2692-1.43981.54-1.44145-.104-1.43985L13.5106,53.415l-.4498-1.44072.94168-1.44209-.44757-1.438.013-1.438.41609-1.44281-.36508-1.44044.33183-1.44236-.15591-1.444L13.027,40.44456l.87561-1.4453-.31421-1.44764-.11968-1.47307.78571-.169,1.49726-.11395,1.10752-1.2008,1.52089-.11533,1.36146-.53735,1.39748-.49837,1.20341-.85179,1.1061-.979,1.22382-.79767.94685-1.14455,1.34633-.671L28.02557,27.99l1.18949-.89586.91418-1.15767.60662-1.387.9133-1.136.87024-1.17413.45877-1.41817,1.19136-1.018.45334-1.41.19816-1.49387,1.10817-1.14914-.44543-1.66392.67973-.5366,1.41963-.18449,1.44379-.19442,1.44294.65377,1.44228-.53067,1.44187-.04757,1.44169.59585,1.44174-.69249,1.44206-.04393,1.44265.194,1.4435.35479,1.44463-.2518,1.44387.53512,1.44307-.68119,1.44263-.0292,1.44253.72763,1.44274-.80824,1.44337.0995,1.44435-.07833,1.44453.1002,1.44363-.24994,1.44322.95619,1.44322-.178,1.44374-.76472,1.438.59573,1.43837-.47068,1.43941.60333,1.441-.59345,1.44333-.1553,1.446.79181,1.44355-.548,1.44194-.21746,1.44119.08213,1.44136.3243,1.44251-.36994,1.44474.644,1.44627-.20388,1.44408.38064,1.44325-.69594,1.44394.45272,1.44627-.36768,1.446.36663,1.44472-.49381,1.44573.397,1.44736-.40647,1.44577.35818,1.44746.35362,1.44665.03859,1.448-.69008,1.44393.28332,1.444-.34943,1.44875.68619,1.44634-.49589,1.44829.39348,1.44992-.00179,1.44786.12059,1.45124-.22308,1.45358-.35114,1.32816.51114.70745.32651-.36371,1.63959.84,1.25417,1.06836,1.11875.04008,1.584.41957,1.44165,1.01794,1.10407,1.34993.84381.35943,1.525.74333,1.27977,1.18664.90509,1.2756.78226,1.03884.99477.8842,1.18482.84355,1.28956,1.732.08622.714,1.55613,1.59422.16985,1.24548.73159,1.09333,1.09241,1.49945.19826,1.25459.81422,1.49059.12009.61281.31887-.26068,1.39344.78107,1.43284-.05,1.43356-.13644,1.43432.04154,1.43514-.58607,1.436.35946,1.43578.20735,1.435-.76131,1.4344.98038,1.43377L142.70366,51.88l.15343,1.43272-.26163,1.43228.04319,1.4319-.261,1.43158L142.102,59.0398l.53854,1.43111-.24555,1.431.27584,1.4309-.282,1.43089.54217,1.43094-.52424,1.43108-.05627,1.43127.62136,1.43154-.61341,1.43187.45388,1.43229.11351,1.43278-.73424,1.43334.1718,1.434.42534,1.4347L142.866,80.523l.10057,1.4364-.53843,1.43729.02637,1.43644-.04772,1.4357-.04235,1.435-.06637,1.43447-.11776,1.434.6705,1.43362-.816,1.43336.05293,1.43318.2512,1.43311.42929,1.43316.01657,1.43331.1433,1.43359-.90176,1.434.97819,1.43446-.92681,1.4351.23281,1.43585.47362,1.43672.11644,1.43774-.16293,1.43733.04743,1.43651.07069,1.43584-.22366,1.43531.00776,1.43493-.472,1.43473.83908,1.43466-.93218,1.43479.59423,1.43507.24593,1.43554-.47321,1.43619-.34125,1.437.62558,1.43806.0918,1.43789.02772,1.437-.13369,1.4364-.64671,1.436.6134,1.43579-.59181,1.43586.834,1.43617-.17828,1.43675-.62425,1.4376.48882,1.43872.17024,1.438-.3208,1.43718-.27872,1.43674-.14468,1.43662.4222,1.43686.10805,1.43746.30174,1.43845-.82515,1.43862.76084,1.43774-.25449,1.4373-.24023,1.43733.69155,1.43785-.748,1.43208.4725,1.4325-.06649,1.43352-.22357,1.43514.08842,1.43743-.05572,1.44008-.04058,1.43766.40788,1.43605.15749,1.4353L142.728,173.859l-.351,1.43662.456,1.43882-.6801,1.44037-.005,1.43817.51339,1.43736-.35291,1.438-.22516,1.44037.42391,1.44008-.18814,1.43882.08275,1.43982-.11477,1.44145.55434,1.43985-.00121,1.44154-.81172,1.44073.8396,1.44209.10139,1.438-.05645,1.43806-.03332,1.44282-.47562,1.44044.32524,1.44236-.70073,1.444.43109,1.44194-.017,1.44531.25683,1.44764-.56877,1.27446-.42123.0551-1.134,1.23042-1.46543.18177-1.3226.58434-1.5841.06767-1.28545.71969-.921,1.30248-1.47857.397-1.2719.7459-.94782,1.15914-1.29809.73795L128.25,218.2172l-.90645,1.13532-1.10891.95508L125.464,221.547l-1.39119.79562-.55866,1.39075-.816,1.218-.75281,1.26161-.74361,1.27651.21628,1.66931-1.08672,1.14663-.246,1.4535-.29326.45115-1.32037-.19352-1.44379.09766-1.44293.33305-1.44229-.33894-1.44187.25712L111.259,232.322l-1.44175.477-1.44207.07959-1.44264-.50871-1.4435.34007-1.44463-.01352-1.44386-.46477-1.44308.6299-1.44263.10566-1.44252-.55742-1.44276.462-1.44336-.34807-1.44435.2328-1.44453.16855-1.44364-.42057-1.4432.25986-1.44323-.43733-1.44375.11191-1.438.31654-1.43839-.72667-1.4394-.00126-1.441-.03054-1.44333.63277-1.446-.54668-1.44356.54356-1.44195-.57161-1.44119.61388-1.44135-.36967-1.44251.546-1.44474-.59926-1.44627.21527-1.44407.01239-1.44326-.46485-1.44394.12405-1.44627.52926-1.446-.45195-1.44473.01446-1.44572.00483-1.44737-.04975-1.44576.21891-1.44745.59227-1.44665-.92117-1.448.61431-1.44392.13645-1.444-.1771L46.29,232.60748l-1.44635-.51415-1.44829.31926-1.44992.13425-1.44785.18018-1.45125-.53093-1.49079.02688ZM39.07276,15.95792l-.9627.16553-1.23839.578-.04748,1.49345-.33669,1.40878-.971,1.11269-.6573,1.254-.5428,1.32885L32.9769,24.112l-.2126,1.57958-1.09044.95319-1.149.87362-.63619,1.33195L28.953,29.92622l-1.45454.50319-.99668.99113-.93722,1.092-1.00484,1.03986-1.35258.52457L22.065,34.931l-1.49232.19916L19.6208,36.413l-1.49726.11438-1.28452.59405-1.2354.56294-.38215,1.35295.468,1.434-.38081,1.43485.249,1.43463-.3727,1.43392L15.6506,46.208,15.727,47.6406l.2603,1.43208L15.445,50.50426l.11863,1.43114.11313,1.43076-.2447,1.43043.17237,1.43017-.28782,1.43.5461,1.42983-.71352,1.42976.64458,1.42974-.00989,1.42981L15.1384,64.8058l.2667,1.43013-.13611,1.4304.15192,1.43073-.33558,1.43115.46281,1.43163-.00543,1.4322.43657,1.43284-.401,1.43356.013,1.43436-.512,1.43525.66689,1.43614-.12772,1.4353L15.9606,83.434l-.87444,1.43389.12985,1.43332-.00027,1.43285.35072,1.43248L15.432,90.59879l.168,1.432.00055,1.432.25229,1.432-.63,1.43217-.14335,1.43244.46764,1.43282.43446,1.43333-.91376,1.43395.142,1.4347-.12037,1.43558.71786,1.43659-.24143,1.43619-.1847,1.43536.03009,1.43469.38917,1.43417-.75658,1.43379.698,1.43357-.55111,1.43353.382,1.43364-.4944,1.43393.41252,1.43439-.3093,1.43505-.01819,1.43588.66817,1.43692.1145,1.43675-.63408,1.43588.42857,1.43525-.00741,1.43483-.43956,1.43465-.21159,1.43471.79349,1.435-.3365,1.4356-.11341,1.43645.11588,1.43758-.49635,1.43681.253,1.436.47361,1.43559-.143,1.43547-.10916,1.43572-.26063,1.43631.27232,1.4373-.379,1.43748.13776,1.43659-.04361,1.43615-.03461,1.43619-.01554,1.4367-.00143,1.43094.34632,1.43136.3398,1.43237-.65005,1.434.66744,1.43628-.10684,1.43893-.75466,1.43652.67241,1.4349.17069,1.43416.11039,1.43431-.48586,1.43547-.07294,1.43768-.34269,1.43922-.04151,1.437.21592,1.43621.19529,1.43689-.03714,1.43921.56716,1.43894-.37569,1.43768.24186,1.43866-.17807,1.44031-.363,1.4387.2692,1.44039-.54,1.43958.104,1.44094.39632,1.43688.44981,1.43691-.94168,1.44166.44758,1.43929-.013,1.44122-.41608,1.44284.36509,1.44079-.33183,1.44416.15592,1.44649.76788,1.44648-.443,1.367,1.24656.57327,1.36673.38944,1.27.63216,1.12079.917,1.60081.0088.97944,1.138,1.12853.84987,1.01774.98954,1.17909.76461,1.21074.74736.98906,1.00772,1.21634.78475.67638,1.298.9043,1.07564.66672,1.25465.867,1.09723,1.0914.9686.65495,1.25414.59241,1.28214.91153,1.13135.03385,1.52146.68533,1.23957,1.0362.7361,1.04314.97544,1.44012-.92371,1.43995.52553,1.44-.18955,1.44032-.1944,1.4409.6538,1.44175-.53066,1.44289-.04755,1.44212.59588,1.44134-.69247,1.44089-.04392,1.44077.194,1.441.35481,1.44162-.25178,1.44261.53514,1.44278-.68117,1.4419-.02918,1.44145.72766,1.44149-.80822,1.442.09952,1.43622-.07831,1.43664.10022,1.43766-.24992,1.4393.95621,1.44159-.178,1.44424-.7647,1.44182.59575,1.4402-.47065,1.43945.60335,1.43961-.59343,1.44077-.15528,1.443.79183,1.44453-.548,1.44233-.21744,1.44151.08215,1.4422.32432,1.44452-.36991,1.44425.644,1.443-.20386,1.444.38065,1.44562-.69591,1.444.45274,1.44571-.36765,1.44489.36664,1.44627-.49378,1.44218.397,1.44221-.40644,1.447.35819,1.4446.35365,1.44654.03861,1.44817-.69006,1.44611.28334,1.44949-.34941,1.45183.68621,1.45183-.49587,1.28422-.0129.81485-1.07188.61447-1.2676.35185-1.37891.29879-1.42928,1.13976-.99349.11333-1.57785,1.47209-.73118.52039-1.35186.43511-1.46273,1.40916-.67006,1.17532-.82236.77073-1.21032.59738-1.45059,1.47686-.45569,1.24349-.68949.9752-1.05719.98566-1.09265,1.232-.72461,1.40161-.39622,1.47635-.17479.9255-1.43035,1.6479.34091.61155-1.26813.3765-1.00455.51665-1.434-.39824-1.43485.33311-1.43463-.332-1.43391.17149-1.43325.25254-1.43264-.78106-1.43208.05-1.43158.13645-1.43114-.04154-1.43075.58608-1.43044-.35945-1.43017-.20734-1.43.76131-1.42983-.98037-1.42976.30948-1.42975-.15341-1.42981.26163-1.42993-.04318-1.43013.26105-1.43039.27565-1.43074-.53853-1.43114.24555-1.43164-.27583-1.43219.282-1.43284-.54216-1.43356.52425-1.43437.05628-1.43525-.62136-1.43614.61342-1.4353-.45387-1.43455-.1135-1.43389.73425-1.43332-.17179-1.43285-.42534-1.43248-.07727-1.4322-.10056-1.432.53844-1.432-.02637-1.432.04773-1.43217.04236-1.43244.06638-1.43283.11777-1.43332-.67049-1.434.816-1.43471-.05292-1.43558-.2512-1.43659-.42927-1.43618-.01657-1.43537-.14329-1.43469.90177-1.43416-.97818-1.43379.92681-1.43358-.23279-1.43353-.47362-1.43364L140.1525,126.71l.16294-1.4344-.04743-1.435-.07068-1.43589.22367-1.43692-.00775-1.43674.472-1.43589-.83907-1.43524.93218-1.43483-.59422-1.43465-.24592-1.43471.47322-1.435.34126-1.4356-.62557-1.43645-.0918-1.43758-.02771-1.43681.1337-1.436.64672-1.43558-.61339-1.43548.59181-1.43571-.834-1.43632.17829-1.4373.62426-1.43747-.48882-1.4366-.17023-1.43615.32081-1.43618.27873-1.43671.14468-1.43093-.42219-1.43136-.108-1.43238-.30174-1.434.82516-1.43628-.76083-1.43893.2545-1.43651.24024-1.43491-.69155-1.43415.748-1.43432-.47249-1.43547.0665-1.43768.22358-1.43922-.08841-1.437.05572-1.43621.04059-1.43689-.40788-1.43921-.15747-1.43894.26163-1.43767.351-1.43867-.456-1.4403.6801-1.43871.005-1.44038-.51338-1.43959.35291-1.44094.22517-1.43687-.4239-1.43692.18814-1.44166-.08273-1.43929.11478-1.44121-.55434-1.44285.00122-1.44078.81173-1.44416-.83959-1.44649-.10139-1.44649-.23714-.9284-.76281-.62168-1.15645-.95194-1.43006-.26259-.96564-1.24266-1.441-.28114-1.2079-.73162-1.329-.55457-.80028-1.30869-1.16316-.78277-1.62208-.27729-.82656-1.21244-1.02438-.98728-.49762-1.45752-.92374-1.049-1.37744-.71906-.42593-1.43278-.64207-1.25452-.98606-1.05059-.39987-1.38092-1.00882-1.07807-.68162-1.25414-.31426-1.40013-.82762-.81939-1.05089-.992-1.44013.29774-1.43995-.0792-1.44-.06994-1.44033-.12287-1.4409.84634-1.44175-.62618-1.44289.20069-1.44211-.2685-1.44134-.16767-1.44089.09766-1.44078.33305-1.441-.33894-1.44162.25712L96.80563,15.322l-1.44278.477-1.4419.07959-1.44145-.50871L91.038,15.71l-1.442-.01352-1.43622-.46477-1.43664.6299-1.43766.10566-1.4393-.55742-1.44159.462-1.44424-.34807-1.44182.2328-1.4402.16855-1.43945-.42057-1.43961.25986L73.7585,15.327l-1.443.11191-1.44453.31654-1.44233-.72667-1.44151-.00126L66.545,14.997l-1.44453.63277-1.44425-.54668-1.443.54356-1.444-.57161-1.44562.61388-1.444-.36967-1.4457.546L54.989,15.246l-1.44626.21527-1.44218.01239-1.44222-.46485-1.447.12405-1.4446.52926-1.44654-.452-1.44817.01446-1.4461.00483-1.4495-.04975-1.4667.22009Z"/></g></svg>