<svg id="mockup" xmlns="http://www.w3.org/2000/svg" xmlns:xlink="http://www.w3.org/1999/xlink" viewBox="0 0 1850.04 1228.9"><defs><style>.cls-1{fill:#fcdbc3;}.cls-2{mask:url(#mask);}.cls-3{opacity:0.3;}.cls-4{fill:#fff;}.cls-5{filter:url(#luminosity-noclip);}</style><filter id="luminosity-noclip" x="521.69" y="1019.68" width="338" height="293.91" filterUnits="userSpaceOnUse" color-interpolation-filters="sRGB"><feFlood flood-color="#fff" result="bg"/><feBlend in="SourceGraphic" in2="bg"/></filter><mask id="mask" x="521.69" y="1019.68" width="338" height="293.91" maskUnits="userSpaceOnUse"><g class="cls-5"><path d="M613.18,1053.59a5.12,5.12,0,0,0,.61.13l.39-.54.67-1a2.12,2.12,0,0,0,.28-.55,5.2,5.2,0,0,0-.66-.29l-.72-.25a1.06,1.06,0,0,0-1,.31l-.84,1.06a.45.45,0,0,0,.21.71Z"/><path d="M653.54,1152.74a3.07,3.07,0,0,0,.55.28l.64.31a1.25,1.25,0,0,0,.69.1,3.62,3.62,0,0,0,.31-.82l.15-.62c.08-.33,0-.68-.11-.77a1.2,1.2,0,0,0-1,.13l-.8.85C653.75,1152.46,653.55,1152.72,653.54,1152.74Z"/><path d="M705.13,1078.75c0,.22,0,.27.18.11s.42-.67.32-.71S705.17,1078.53,705.13,1078.75Z"/><path d="M607.93,1197.71a.69.69,0,0,0-.1.9l.67.82a.78.78,0,0,0,.94.07l1.31-1a4.51,4.51,0,0,0,.48-.46,1.42,1.42,0,0,0-.47-.47l-.9-.62a1,1,0,0,0-1,0Z"/><path d="M598.64,1082.34a.48.48,0,0,0-.45.51c0,.25.36.92.68.92l1.11,0a.45.45,0,0,0,.5-.49c-.05-.27-.26-1-.38-1S598.92,1082.31,598.64,1082.34Z"/><path d="M584.25,1194.31c.09.33.34.59.55.58a5.41,5.41,0,0,0,1.36-.36l.64-.31a.43.43,0,1,0,.16-.84l-.92-1.24a.74.74,0,0,0-.91-.2l-.67.34a.9.9,0,0,0-.44.89Z"/><path d="M571.31,1071.11c.06.33.2.6.32.62a.8.8,0,0,0,.6-.51l.31-1.14a.67.67,0,0,0-.45-.75c-.3-.09-1.13,0-1.06.32Z"/><path d="M615.08,1189.08a.68.68,0,0,0-.61.39c-.06.2.08.71.36.63l2-.57c.28-.08.33-.2.1-.28A13.22,13.22,0,0,0,615.08,1189.08Z"/><path d="M626,1215c-.29-.06-.55-.06-.58,0s.1.33.33.52l1.12.9c.24.18.46.14.49-.08a2.52,2.52,0,0,0,0-.93A10.24,10.24,0,0,0,626,1215Z"/><path d="M573.45,1211.51a.86.86,0,0,0,.18-.39.81.81,0,0,0-.48-.56l-.55-.22c-.29-.1-.56-.14-.59-.08a2.52,2.52,0,0,0-.15.33,1,1,0,0,0,.35.59C572.44,1211.37,573.37,1211.62,573.45,1211.51Z"/><path d="M777.28,1039.39a.46.46,0,0,0,.58.44l.62-.09c.32-.06.51-.28.43-.49s-.47-.8-.69-.82S777.28,1039.09,777.28,1039.39Z"/><path d="M643.39,1159.67a.54.54,0,0,0-.19-.05.9.9,0,0,0-.23.58l-.08,1.27c0,.31.11.37.31.12l.7-.94c.17-.27.23-.55.12-.62A6.14,6.14,0,0,0,643.39,1159.67Z"/><path d="M644.35,1064.91a2,2,0,0,0,.69.12.74.74,0,0,0,.37-.62l-.24-1.53a.42.42,0,0,0-.61-.28l-2.45,1.12c-.26.12-.25.31,0,.42Z"/><path d="M596.17,1230.87a.55.55,0,0,0,.2.72c.24.15,1,.17,1-.11l.16-2.19a.3.3,0,1,0-.39-.1Z"/><path d="M689.76,1077.06c-.29.12-.32.28,0,.35s1,0,1.07-.14-.18-.57-.47-.45Z"/><path d="M694,1079.34a.21.21,0,0,0,.2-.16c0-.09-.13-.33-.3-.3s-.62.13-.6.18.13.21.18.22S693.85,1079.34,694,1079.34Z"/><path d="M702.53,1108.55a.34.34,0,0,0-.11-.61c-.3-.13-1.17-.3-1.27-.08s-.27.89-.11,1A2.71,2.71,0,0,0,702.53,1108.55Z"/><path d="M682.07,1109a.67.67,0,0,0,.69.55c.32,0,1.17-.27,1.12-.39a6.38,6.38,0,0,0-.58-.94l-.53-.67c-.21-.26-.44-.46-.53-.44a.82.82,0,0,0-.28.68Z"/><path d="M626.71,1082.3a.37.37,0,0,0,0,.51l.42.33a.42.42,0,0,0,.53-.08l.5-.62a.39.39,0,0,0-.07-.51l-.37-.27a.47.47,0,0,0-.56.08Z"/><path d="M584.71,1146.17c.29.18.58.14.63-.09s.13-.9,0-.93-.6-.21-.94-.31l-.71-.24c-.33-.12-.61-.2-.61-.2s0,.12,0,.24a1.4,1.4,0,0,0,.5.77Z"/><path d="M589.23,1052.18c-.18.24-.28.45-.22.48a.87.87,0,0,0,.58-.33l.46-.54c.19-.24.28-.44.2-.46a1,1,0,0,0-.62.36Z"/><path d="M651.28,1058.07a.54.54,0,0,0,.32.65c.25.08,1.12,0,1.28-.24l.7-1.18a.31.31,0,0,0-.28-.5l-1.1-.06a.84.84,0,0,0-.69.54Z"/><path d="M779.19,1203.56a2.88,2.88,0,0,0-.3.55c-.06.16-.08.66.12.7s.76-.07.75-.39l0-.67a2.33,2.33,0,0,0-.06-.59A2.26,2.26,0,0,0,779.19,1203.56Z"/><path d="M650.87,1218.62c.16,0,.27,0,.24,0a.57.57,0,0,0-.39-.1C650.59,1218.49,650.71,1218.6,650.87,1218.62Z"/><path d="M523.65,1183.53a1,1,0,0,0-.56-.82c-.29-.13-1.15-.4-1.21-.3a2.11,2.11,0,0,0-.19.77,3.27,3.27,0,0,0,.33,1.19,3.11,3.11,0,0,0,1,.71c.19,0,.66-.19.64-.51Z"/><path d="M656.36,1227.52c0,.29.16.38.44.21a5.15,5.15,0,0,0,.48-.34c.25-.19.27-.43.05-.53S656.4,1227.24,656.36,1227.52Z"/><path d="M619.29,1143.86a1.94,1.94,0,0,0,.55.31.41.41,0,0,0,.42-.49l-.24-1.23c-.06-.34-.31-.41-.55-.16a5.39,5.39,0,0,0-.39.52A1.09,1.09,0,0,0,619.29,1143.86Z"/><path d="M647.3,1132.74a.53.53,0,0,0,.59-.07l.78-.78c.13-.15.21-.32.18-.37a2,2,0,0,0-.39-.31c-.13-.06-.63-.13-.79,0l-.8.73a.32.32,0,0,0,0,.49Z"/><path d="M722.06,1108.66a.48.48,0,0,0,.62-.06c.16-.17.34-.92.12-1.14l-.71-.65c-.23-.19-.45-.1-.48.2l-.09.59A1.92,1.92,0,0,0,722.06,1108.66Z"/><path d="M683.19,1174c.29,0,.39-.2.22-.45l-.29-.48a1,1,0,0,0-.67-.44c-.2,0-.77.19-.79.42s.29.87.58.9Z"/><path d="M740,1223.75c.26.14.47.19.47.11a1.42,1.42,0,0,0-.36-.69l-.67-.67c-.21-.19-.49-.26-.61-.14s-.17.64.09.78Z"/><path d="M619.83,1169.57a.31.31,0,0,0,.31-.21l.08-.31a.28.28,0,0,0-.17-.32l-.91-.33-.24-.06a.62.62,0,0,0-.11.22l-.22.62a.19.19,0,0,0,.18.26Z"/><path d="M639.11,1036.52a.66.66,0,0,0,.26.77l2.25,1.25a.61.61,0,0,0,.74-.18,3.84,3.84,0,0,0,.43-1.38l-.07-.93a.67.67,0,0,0-.56-.59l-1.86-.27a.77.77,0,0,0-.76.39Z"/><path d="M546.09,1044.75a2.79,2.79,0,0,0-.29.67.92.92,0,0,0,.59.53l.91.29a.83.83,0,0,0,.88-.22c.15-.22.26-1,0-1.23l-.91-.6C546.93,1044,546.23,1044.48,546.09,1044.75Z"/><path d="M725.6,1063s.18.21.44.37l.52.34c.27.14.55.17.63.06a.44.44,0,0,0-.27-.58l-.72-.19A1,1,0,0,0,725.6,1063Z"/><path d="M802.62,1046.23a.35.35,0,0,0,.14.6l.78.32a1,1,0,0,0,.93-.2l1.31-1.27a.55.55,0,0,0,0-.78l-.56-.46a.71.71,0,0,0-.85.08Z"/><path d="M546.49,1173.44c.32,0,.59-.08.6-.21a1.25,1.25,0,0,0-.44-.79l-.7-.41a.65.65,0,0,0-.82.24c-.16.28-.19,1.12.13,1.12Z"/><path d="M655.27,1091.46c0,.29.13.5.38.46s.85-.38.76-.67l-.36-1.07a1.13,1.13,0,0,0-.24-.52,1,1,0,0,0-.29.55Z"/><path d="M594.61,1126.83c-.09.16,0,.44.3.64l.6.47c.26.18.5.31.53.28a1.57,1.57,0,0,0,.16-.52c0-.23-.05-.9-.3-1A2.22,2.22,0,0,0,594.61,1126.83Z"/><path d="M809.57,1093.49a1.77,1.77,0,0,0-.22.83l-.15,1.78a1.12,1.12,0,0,0,.34.93,3.15,3.15,0,0,0,1,.5,1.81,1.81,0,0,0,.24-.82l.15-2.69c0-.34-.1-.67-.28-.72A2.2,2.2,0,0,0,809.57,1093.49Z"/><path d="M690.06,1184.68c.26.07.46-.16.45-.52l0-1c0-.36-.17-.41-.38-.12l-.51.76C689.4,1184.11,689.81,1184.61,690.06,1184.68Z"/><path d="M557.25,1118c-.1-.3-.34-.42-.54-.27s-.67.85-.58,1.15l.24.74c.1.3.36.48.57.4s.71-.64.62-1Z"/><path d="M712.48,1087l-.59.13c-.28.07-1.06.42-1.08.65s.27.87.61.87H713a.33.33,0,0,0,.29-.55l-.33-.57A1.6,1.6,0,0,0,712.48,1087Z"/><path d="M534.57,1083.13a.63.63,0,0,0,.55.63l1.18.24c.34,0,.67-.09.73-.31s-.1-.93-.43-1l-1.18-.34C535.08,1082.25,534.6,1082.85,534.57,1083.13Z"/><path d="M730.65,1172.59a3.42,3.42,0,0,0-.33-.65,1.22,1.22,0,0,0-.67.25l-1,.71a.93.93,0,0,0-.35.92c.09.3.67,1,1,.89l1.26-.46a.74.74,0,0,0,.38-.88Z"/><path d="M826,1102.66a2.81,2.81,0,0,0,.72.52,2.59,2.59,0,0,0,.84.19,1.24,1.24,0,0,0,.38-.71,2.73,2.73,0,0,0-.27-1.44l-.56-.52a.67.67,0,0,0-.87,0l-.6.67C825.46,1101.65,825.79,1102.45,826,1102.66Z"/><path d="M667,1187.62a.87.87,0,0,0,.21-.74l-.16-1.42c0-.31-.2-.52-.35-.45a1.24,1.24,0,0,0-.47.89l.17,1.37A.47.47,0,0,0,667,1187.62Z"/><path d="M610.15,1036.94c.19,0,.3-.1.25-.23s-.24-.46-.32-.48-.36,0-.41.17S610,1036.94,610.15,1036.94Z"/><path d="M752.52,1040.67a1.66,1.66,0,0,0,.34.7c.18.22.81.76,1.06.72s.91-.26.91-.38a2.42,2.42,0,0,0-.38-.88l-.35-.45-.42-.55a.57.57,0,0,0-.45,0A2,2,0,0,0,752.52,1040.67Z"/><path d="M678.85,1209.85a.32.32,0,0,0,.35-.16c.08-.14.12-.57-.06-.61s-.67-.07-.66.08A1.4,1.4,0,0,0,678.85,1209.85Z"/><path d="M719.2,1118.76s0,0,0,0,0,0,0,0S719.18,1118.75,719.2,1118.76Z"/><path d="M722,1206.16c.3.1.54,0,.53-.14a1.6,1.6,0,0,0-.36-.9c-.2-.14-.89-.35-1-.18s-.2.81.09.91Z"/><path d="M730.83,1202.34c.11.11.46.1.77,0l.71-.25c.32-.12.56-.33.55-.45a.87.87,0,0,0-.74-.43l-1.11.1c-.34,0-.62.17-.62.28A2.9,2.9,0,0,0,730.83,1202.34Z"/><path d="M755.15,1096a.39.39,0,0,0,.37-.52l-.27-1c-.06-.3-.22-.32-.36,0l-.43,1C754.36,1095.7,754.88,1096,755.15,1096Z"/><path d="M802.42,1137.45a1.69,1.69,0,0,0,.11.56,5,5,0,0,0,.75.28l3.54,1,.61.19s-.23-.18-.52-.38l-3.75-2.73c-.29-.19-.57-.29-.63-.22A5,5,0,0,0,802.42,1137.45Z"/><path d="M734.08,1085.22a.73.73,0,0,0,.63.64l2.47.29c.32,0,.62-.06.68-.24s-.08-.79-.37-.92l-3-1.31a.32.32,0,0,0-.48.37Z"/><path d="M795.63,1150.75a.72.72,0,0,0,.61.47c.26,0,1-.07,1-.22a.87.87,0,0,0-.49-.73l-.83-.22C795.63,1150,795.55,1150.51,795.63,1150.75Z"/><path d="M780.35,1038.41a.39.39,0,0,0,.31.61l.82.12a.41.41,0,0,0,.43-.55l-.33-1.07a2.47,2.47,0,0,0-.19-.58,2.36,2.36,0,0,0-.43.47Z"/><path d="M573.84,1039.44c.06.2.37.33.69.3l1.74-.19a.34.34,0,0,0,.24-.57l-.37-.58a.79.79,0,0,0-.89-.25l-1,.39A1,1,0,0,0,573.84,1039.44Z"/><path d="M626.75,1050.2a.5.5,0,0,0,.46-.64l-.13-.66a1.27,1.27,0,0,0-.55-.8c-.24-.11-1,0-1.08.29l-.32,1.21a.51.51,0,0,0,.52.6Z"/><path d="M691.28,1227.44a.35.35,0,0,0,.35.44l1,0a.58.58,0,0,0,.16-.29,2.25,2.25,0,0,0,0-.77.62.62,0,0,0-.52-.31A2.51,2.51,0,0,0,691.28,1227.44Z"/><path d="M705.05,1198.3c-.17-.26-.41-.42-.54-.35a.5.5,0,0,0,0,.7l1.17,1,.42.37a.13.13,0,0,0,0,0s-.17-.31-.34-.57Z"/><path d="M677,1201.18c-.12-.07-.44.07-.69.3s-.63,1.12-.34,1.31l2.44,1.71a.69.69,0,0,0,.82,0c.15-.18.36-.9.12-1.16l-1.42-1.51A6.57,6.57,0,0,0,677,1201.18Z"/><path d="M604,1148.76v.07a4.19,4.19,0,0,0,.57.37l.85.49c.3.16.61.19.69.07s-.09-.56-.43-.64l-1.06-.28A1.64,1.64,0,0,0,604,1148.76Z"/><path d="M768.56,1113.81c.24.21.49.13.54-.2l.39-2c0-.32,0-.63-.14-.68a1,1,0,0,0-.88.25l-.69.89a.86.86,0,0,0,.06,1Z"/><path d="M788.47,1055.58c.1.06.38-.1.62-.36l.81-1a.36.36,0,0,0-.25-.62l-.81-.19a.54.54,0,0,0-.65.53l0,.72A1.3,1.3,0,0,0,788.47,1055.58Z"/><path d="M784.62,1103.39c.21-.13.37-.31.35-.39a2.25,2.25,0,0,0-.48-.68l-.67-.53c-.23-.2-.37-.12-.31.18l.25,1.31C783.83,1103.57,784.41,1103.53,784.62,1103.39Z"/><path d="M764.47,1186.27a.64.64,0,0,0,.14-.23.92.92,0,0,0-.4-.63l-.87-.64c-.28-.2-.58-.28-.67-.18a.64.64,0,0,0,.18.75l.94.73A.91.91,0,0,0,764.47,1186.27Z"/><path d="M787.16,1147.81c-.11.09-.1.4,0,.7l.48,1.07c.15.29.38.51.52.48s.5-.33.51-.51a2.17,2.17,0,0,0-.35-1.09C788.13,1148.22,787.27,1147.73,787.16,1147.81Z"/><path d="M840,1209.9a.65.65,0,0,0,.37.29.61.61,0,0,0,.43-.36l.28-1.42a.41.41,0,0,0-.31-.44l-.7-.07a.49.49,0,0,0-.42.39l-.07.66A2.69,2.69,0,0,0,840,1209.9Z"/><path d="M838.66,1208a2.1,2.1,0,0,0,.71-.12l1.16-.34a1,1,0,0,0,.58-.81l0-1.53a1.39,1.39,0,0,0-.16-.72,2.27,2.27,0,0,0-.85-.25c-.3,0-1.2.35-1.28.68l-.39,2.37A1,1,0,0,0,838.66,1208Z"/><path d="M715,1120.58c.34,0,.61-.19.62-.36a.58.58,0,0,0-.71-.38l-1,.49c-.3.14-.28.27.06.27Z"/><path d="M802,1109.81a.69.69,0,0,0-.19.48,1.76,1.76,0,0,0,.41,1.11c.27.19,1.1.79,1.21.83s.42.07.49,0a1.21,1.21,0,0,0-.11-.89l-.59-.87a2.84,2.84,0,0,0-.55-.62A1.39,1.39,0,0,0,802,1109.81Z"/><path d="M719.51,1096.05a.3.3,0,0,0,.14.4c.16.09.6.16.58,0a2.39,2.39,0,0,0-.15-.72A1.11,1.11,0,0,0,719.51,1096.05Z"/><path d="M767.77,1142.62a.75.75,0,0,0-.48.82l.2.88a.55.55,0,0,0,.75.36l3-1.14a1.72,1.72,0,0,0,.57-.3,2.71,2.71,0,0,0-.37-.5,2.59,2.59,0,0,0-1.27-.71,13.19,13.19,0,0,0-1.83.37Z"/><path d="M707.66,1080.37l.44.14s0-.24,0-.53a3.7,3.7,0,0,0-.16-1,.59.59,0,0,0-.52.26C707.24,1079.42,707.41,1080.3,707.66,1080.37Z"/><path d="M825.05,1125.33a.93.93,0,0,0,.3-.76v-.73a1.18,1.18,0,0,0-.31-.79.44.44,0,0,0-.57.38V1125A.46.46,0,0,0,825.05,1125.33Z"/><path d="M769.68,1111c-.11.34-.12.66,0,.73a2.92,2.92,0,0,0,1,.22c.32,0,1.28-.29,1.4-.62l.59-1.57a.56.56,0,0,0-.42-.75l-1-.22a.87.87,0,0,0-.88.5Z"/><path d="M784.85,1069.76c.21,0,.24,0,.07-.11a1.66,1.66,0,0,0-.69-.18C784.2,1069.53,784.65,1069.74,784.85,1069.76Z"/><path d="M716.87,1204.93c.3,0,.41-.16.25-.42l-.66-.88a.31.31,0,0,0-.57,0l-.26.58a.42.42,0,0,0,.38.57Z"/><path d="M730.17,1136.36c-.11.21.06.41.39.45l1.75.2c.33,0,.56,0,.51-.2a1.46,1.46,0,0,0-.73-.7l-.91-.3C730.86,1135.71,730.28,1136.14,730.17,1136.36Z"/><path d="M779.49,1111a1.28,1.28,0,0,0,.24.32,5.44,5.44,0,0,0,1.07.76l1.39.6c.29.12.51,0,.48-.16a9.39,9.39,0,0,0-.15-1,1.08,1.08,0,0,0-.71-.43l-1.73-.1A1.79,1.79,0,0,0,779.49,1111Z"/><path d="M739.2,1110.4c.27.12.54.14.61,0a1,1,0,0,0,.1-.48,1.58,1.58,0,0,0-.58-.17l-1.2-.15c-.29,0-.32,0-.06.18Z"/><path d="M824.54,1222a2,2,0,0,0,.11.58l.34,1.22a.59.59,0,0,0,.66.41l1.51-.27a.7.7,0,0,0,.59-.38c0-.17-.12-.72-.39-.82l-2.23-.77A.76.76,0,0,0,824.54,1222Z"/><path d="M677.23,1038.34l.18.14.25.08a.84.84,0,0,0,.74-.42l.74-1.68c.14-.31.22-.57.18-.57a1.69,1.69,0,0,0-.6.38l-1.32,1.22a5.5,5.5,0,0,0-.43.47A1.6,1.6,0,0,0,677.23,1038.34Z"/><path d="M723.4,1141.07a1.55,1.55,0,0,0,.14-.77c0-.31-.12-1.16-.23-1.19a2.79,2.79,0,0,0-.63-.08.52.52,0,0,0-.22.59l.44,1.36A.28.28,0,0,0,723.4,1141.07Z"/><path d="M787.58,1156.77a1.61,1.61,0,0,0,.46-1l-.06-1.58c0-.33,0-.6-.09-.6a1.85,1.85,0,0,0-.52.48l-2,2.77-.34.52a2.07,2.07,0,0,0,.34.3,1.6,1.6,0,0,0,1.25,0Z"/><path d="M832.71,1228.06c0-.18,0-.36-.07-.39a1.34,1.34,0,0,0-.78.24l-1.33,1.06c-.24.19-.37.45-.31.56a.89.89,0,0,0,.84.07l1-.55A2.42,2.42,0,0,0,832.71,1228.06Z"/><path d="M532.51,1115.82c.16-.27.2-.51.08-.54a1.34,1.34,0,0,0-.85.36l-1.41,1.62c-.2.25-.24.55-.08.66a1,1,0,0,0,1-.17Z"/><path d="M793.05,1153.6c-.08-.3-.3-.51-.5-.46s-.69.52-.66.84l.12,1.19c0,.31.28.48.5.37s.81-.74.74-1Z"/><path d="M640.11,1065.66a1,1,0,0,0,.93.31s1.55-.39,2.7-.79l.8-.29c.31-.12.42-.38.26-.59a2.19,2.19,0,0,0-1.32-.63l-3.23.84a.52.52,0,0,0-.39.66A2,2,0,0,0,640.11,1065.66Z"/><path d="M827.65,1140.13a.58.58,0,0,0,0,.8,1.7,1.7,0,0,0,1.43,0l2.24-2.44a.58.58,0,0,0,0-.83c-.24-.18-1.28-.27-1.51,0Z"/><path d="M802.73,1079.13a2.13,2.13,0,0,0,.7-1,5.4,5.4,0,0,0,.05-.83c0-.32-.25-.38-.5-.13l-4.41,4.2c-.25.25-.42.48-.36.52a1.36,1.36,0,0,0,.77-.23Z"/><path d="M774.65,1152.13a.49.49,0,0,0,.59-.4l.33-1.9c0-.28-.07-.34-.26-.12l-1.19,1.52C774,1151.47,774.37,1152.06,774.65,1152.13Z"/><path d="M798.22,1166.51a.73.73,0,0,0-.24-.88c-.26-.17-1.2-.47-1.41-.32a2.3,2.3,0,0,0-.71,1.15l.06,2.39a1.09,1.09,0,0,0,.19.75.62.62,0,0,0,.68-.29Z"/><path d="M757.4,1092.41a.67.67,0,0,0,.23.82l1.12.59c.28.12.44,0,.35-.32l-.59-2c-.09-.29-.32-.34-.51-.09Z"/><path d="M720.19,1117.92c.07-.23-.11-.4-.39-.38s-1,.2-.92.38.32.66.45.68A1.66,1.66,0,0,0,720.19,1117.92Z"/><path d="M762,1184a1.85,1.85,0,0,0-.6-.16l-.64-.14c-.33-.06-.59,0-.56.06a1,1,0,0,0,.69.33A6.11,6.11,0,0,0,762,1184Z"/><path d="M768.08,1192a.65.65,0,0,0,.82.17c.25-.15.56-.86.26-1l-1.82-.8c-.29-.12-.39,0-.22.26Z"/><path d="M588.67,1118a.27.27,0,0,0,.3-.14l.12-.31a.31.31,0,0,0-.12-.32l-.54-.28a.66.66,0,0,0-.23-.08.58.58,0,0,0-.15.19l-.1.22a.59.59,0,0,0,0,.3.5.5,0,0,0,.25.25Z"/><path d="M808.91,1184.72c0,.24.09.33.23.2s.36-.62.24-.71S808.91,1184.48,808.91,1184.72Z"/><path d="M758.41,1226a1.42,1.42,0,0,0,.32-.38c.14-.21.23-.71,0-.66s-.72.3-.66.46A2.79,2.79,0,0,0,758.41,1226Z"/><path d="M746.77,1215.73a.67.67,0,0,0-.76-.22c-.22.12-.81.59-.79.8s.41.7.71.64l1-.2a.33.33,0,0,0,.17-.58Z"/><path d="M741.72,1138.47c0-.28-.17-.31-.31-.06l-.53,1c-.12.26,0,.5.19.52s.83-.18.8-.46Z"/><path d="M816.28,1185.82c-.07.28.07.38.32.22l2.42-1.7a.34.34,0,0,0,0-.59l-1.54-.93a.39.39,0,0,0-.58.27Z"/><path d="M717,1044.44c0,.17.23.32.53.34l1.93.14a.29.29,0,1,0,0-.28l-1.82-.59A.61.61,0,0,0,717,1044.44Z"/><path d="M713.34,1155.91a.61.61,0,0,0,0,.21,1.1,1.1,0,0,0,.65.47l1.9.37a2.53,2.53,0,0,0,.6.09,1.63,1.63,0,0,0-.55-.27l-2-.73A2.9,2.9,0,0,0,713.34,1155.91Z"/><path d="M826.92,1151.6a.64.64,0,0,0,.5.67l1.8.24.57,0a3.4,3.4,0,0,0-.26-.53l-1.48-2.67c-.14-.27-.31-.48-.37-.46a1.22,1.22,0,0,0-.36.61Z"/><path d="M752.45,1185.3a.41.41,0,0,0,.34.56l1.82.38c.28.06.55,0,.59-.07a.74.74,0,0,0-.32-.63l-1.49-.84C753.13,1184.58,752.55,1185,752.45,1185.3Z"/><path d="M755.9,1228.3c-.1.15,0,.38.31.5l.79.37a.75.75,0,0,0,.79-.18c.16-.2.34-.83.05-.89l-1.05-.25A1.23,1.23,0,0,0,755.9,1228.3Z"/><path d="M781.81,1193.84a.37.37,0,0,0,0,.65l1,.66a.89.89,0,0,0,.82.1c.18-.12.5-.67.31-.93l-.58-.78a.71.71,0,0,0-.88-.13Z"/><path d="M759.93,1149.81c0,.23.07.42.15.44a1.89,1.89,0,0,0,.65-.13c.2-.1.62-.5.5-.72s-.51-.71-.67-.63A2.39,2.39,0,0,0,759.93,1149.81Z"/><path d="M698.17,1132c.2.13.42,0,.5-.34l.11-.64c.08-.32-.06-.44-.31-.25S698,1131.86,698.17,1132Z"/><path d="M765.52,1154.24c-.22.23-.38.52-.35.63a.81.81,0,0,0,.67.39c.3,0,1-.42.9-.72S765.75,1154,765.52,1154.24Z"/><path d="M720.77,1170.81c0,.14.2.3.55.35l1.82.33c.35.06.66,0,.69,0s-.17-.37-.51-.46l-1.73-.52A.84.84,0,0,0,720.77,1170.81Z"/><path d="M824.91,1211.28a2,2,0,0,0-.32,1s0,.24,0,.54a.57.57,0,0,0,.54.58l1.1.07a.61.61,0,0,0,.64-.52l.23-1.33a.88.88,0,0,0-.38-.83c-.26-.15-1.17-.32-1.37-.09Z"/><path d="M736.08,1156.66c0,.1.13.35.4.54l.48.38c.25.2.5.34.55.3s0-.33-.26-.56l-.6-.63C736.42,1156.47,736.12,1156.55,736.08,1156.66Z"/><path d="M787.61,1155.38c0,.13.23.18.52.11l.54-.11c.29-.07.48-.2.43-.29a.73.73,0,0,0-.59-.26C788.28,1154.86,787.61,1155.25,787.61,1155.38Z"/><path d="M809.64,1176.69c.08.32.26.33.4,0l.67-1.61a.39.39,0,0,0-.4-.55c-.33,0-1.19.33-1.11.65Z"/><path d="M743.76,1178.72c0,.21.24.43.55.48l1,.15a4.7,4.7,0,0,0,.57,0s-.11-.25-.25-.53l-.3-.66a.62.62,0,0,0-.64-.4C744.46,1177.84,743.76,1178.5,743.76,1178.72Z"/><path d="M749.67,1162.37c.14,0,.24-.25.21-.5s-.21-.55-.32-.33S749.53,1162.4,749.67,1162.37Z"/><path d="M816.38,1139.76a.6.6,0,0,0-.08.8c.18.23.87.58,1,.29l.45-1c.12-.28.11-.55,0-.6a1.35,1.35,0,0,0-.9.15A5.46,5.46,0,0,0,816.38,1139.76Z"/><path d="M539.75,1138.29c0,.09.21.24.43.34s.94.19,1,0,0-.75-.26-.72l-.71,0C539.94,1138,539.73,1138.21,539.75,1138.29Z"/><path d="M543.39,1138.14c.09.26.28.46.41.44s.54-.2.59-.4-.09-.78-.35-.81S543.29,1137.89,543.39,1138.14Z"/><path d="M768.87,1224.32a.3.3,0,0,0,0,.38c.09.08.38.28.4.29s.1-.14.11-.35a3.59,3.59,0,0,0,0-.69A1.62,1.62,0,0,0,768.87,1224.32Z"/><path d="M824.06,1158.4c-.25.19-.27.47-.06.62s1.06.37,1.31.18l.83-.67c.23-.2.27-.49.09-.63s-1-.37-1.23-.19Z"/><path d="M761.15,1087.82a.45.45,0,0,0,.44.61l.89,0a1,1,0,0,0,.82-.63c.1-.32.34-1.28.33-1.33a1.28,1.28,0,0,0-.57-.39c-.28-.1-1.23,0-1.37.31Z"/><path d="M853.49,1169.44a1.28,1.28,0,0,0,0,.42c0,.22.22.8.38.85s.53-.06.42-.33a4.36,4.36,0,0,0-.5-.93A.88.88,0,0,0,853.49,1169.44Z"/><path d="M754.11,1187.86c.08.3.31.5.49.45a5.43,5.43,0,0,0,.73-.33,1.48,1.48,0,0,0-.07-.62l-.8-2.88c-.09-.3-.32-.43-.5-.3s-.63.8-.54,1.1Z"/><path d="M780.57,1076c0,.23.2.42.5.43l1.67.1c.3,0,.55-.07.55-.18a.83.83,0,0,0-.5-.55l-1.5-.44C781,1075.24,780.59,1075.72,780.57,1076Z"/><path d="M848.55,1157.25a2.45,2.45,0,0,0,.07.88l.19.8a.91.91,0,0,0,.76.68l1.29.14a.91.91,0,0,0,.87-.53l.55-1.56a.5.5,0,0,0-.47-.66l-2.45-.24A1,1,0,0,0,848.55,1157.25Z"/><path d="M694.55,1169.2a.66.66,0,0,0,.14.8l.72.67c.24.2.5.13.56-.15s.12-1.19-.07-1.36S694.7,1169,694.55,1169.2Z"/><path d="M733.62,1161.65c0,.07.24.2.53.29l.74.23c.29.07.56,0,.58-.05a1.53,1.53,0,0,0,0-.46,1,1,0,0,0-.6-.18l-.69,0C733.9,1161.41,733.63,1161.57,733.62,1161.65Z"/><path d="M770.88,1109.06c0,.33.24.59.43.59a4.92,4.92,0,0,0,.93-.14.51.51,0,0,0,.11-.67l-.58-.92c-.17-.28-.4-.5-.52-.48a.89.89,0,0,0-.41.69Z"/><path d="M702.75,1060a.71.71,0,0,0,.7.4c.22-.07.84-.51.85-.83l0-2.07a2,2,0,0,0-.21-.84,1.13,1.13,0,0,0-.91-.38l-1.77.39a.41.41,0,0,0-.26.65Z"/><path d="M620.54,1185.87a.48.48,0,0,0,.12.78l1.05.65a.44.44,0,0,0,.68-.32l.34-2c.07-.35.07-.66,0-.71a1.11,1.11,0,0,0-.75.26Z"/><path d="M616.14,1072.22a.42.42,0,0,0,.31.63l2.26.52a.4.4,0,0,0,.51-.45l0-.75a1.26,1.26,0,0,0-.51-.89l-.95-.55a.65.65,0,0,0-.83.21Z"/><path d="M686.42,1183.63a3.4,3.4,0,0,0,.5.23c.1,0,.45,0,.55-.16a3.09,3.09,0,0,0,.3-.78.67.67,0,0,0-.36-.45l-1.48-.45c-.19-.06-.39,0-.44.07a1.76,1.76,0,0,0-.15.53,1,1,0,0,0,.33.53Z"/><path d="M649.18,1214.58c.17-.26.11-.49-.15-.51a2.85,2.85,0,0,0-1.36.26l-1.09,1c-.23.2-.17.39.14.41l1,.1a1.11,1.11,0,0,0,.87-.45Z"/><path d="M762.31,1023a5,5,0,0,0,.44.44s0-.16,0-.35a2.35,2.35,0,0,0-.33-1.23l-1.7-1.9c-.24-.25-.53-.36-.64-.23a1.11,1.11,0,0,0,.11,1Z"/><path d="M816.37,1063.91a.68.68,0,0,0,.22.36,6,6,0,0,0,1,.69l1.49.73c.3.16.61.18.68.06a1.05,1.05,0,0,0-.22-.91l-2-1.82c-.26-.22-.59-.27-.73-.1A4.17,4.17,0,0,0,816.37,1063.91Z"/><path d="M753.41,1087.71a.72.72,0,0,0,.58.52c.23,0,.91-.14,1-.34s-.05-.87-.32-1a11.15,11.15,0,0,0-1.22-.36.38.38,0,0,0-.2.51Z"/><path d="M702.24,1164a.81.81,0,0,0,.16.59c.12.12.55.38.68.28a.74.74,0,0,0,0-.8C702.92,1163.89,702.27,1163.82,702.24,1164Z"/><path d="M685.63,1222.12c.07-.14-.14-.37-.47-.5l-1.85-.8a2.79,2.79,0,0,0-.61-.22,1.88,1.88,0,0,0,.5.46l1.59,1.15A.71.71,0,0,0,685.63,1222.12Z"/><path d="M653.57,1170.77a1.05,1.05,0,0,0-.06-.48c-.06-.2-.37-.75-.58-.75l-.75,0a.55.55,0,0,0-.51.36l-.19.64a.32.32,0,0,0,.31.4l1.31.08A.61.61,0,0,0,653.57,1170.77Z"/><path d="M798.36,1192.27c.26,0,.31,0,.11-.13s-.8-.35-.84-.27S798.1,1192.24,798.36,1192.27Z"/><path d="M648.06,1203c.23.23.47.34.52.23a1.46,1.46,0,0,0,0-.86c-.12-.26-.65-.89-.84-.81s-.49.61-.26.84Z"/><path d="M695.52,1138.56a4.83,4.83,0,0,0,.65.11l.93.14c.31,0,.61-.06.65-.21a1,1,0,0,0-.4-.82l-1-.43a.56.56,0,0,0-.72.22A2.79,2.79,0,0,0,695.52,1138.56Z"/><path d="M546.09,1194.79a.43.43,0,0,0,.4-.26,4.13,4.13,0,0,0,.18-.64.78.78,0,0,0-.54-.11c-.29,0-1.09.14-1.13.27s0,.54.07.58A9.12,9.12,0,0,0,546.09,1194.79Z"/><path d="M732.49,1229.5s.23-.14.4-.34a2.84,2.84,0,0,0,.5-.92,3.25,3.25,0,0,0-.44-.34.39.39,0,0,0-.54.33l0,.58A1.16,1.16,0,0,0,732.49,1229.5Z"/><path d="M609.42,1061.11c0,.31.09.57.21.58a1.08,1.08,0,0,0,.73-.42l.75-1.31a.44.44,0,0,0-.29-.64l-.73-.19c-.3-.06-.57-.05-.6,0a2.83,2.83,0,0,0-.09.77Z"/><path d="M811.59,1211.2a1.59,1.59,0,0,0-.14.62,3.46,3.46,0,0,0,.73.21l1.2.24c.32,0,.66,0,.74-.16a2.82,2.82,0,0,0,.25-1c0-.25-.32-1-.64-1.06l-.88-.26a.75.75,0,0,0-.83.4Z"/><path d="M732.6,1040.14a.78.78,0,0,0,.59.73l.76.12a.71.71,0,0,0,.72-.54l.19-1.1a.5.5,0,0,0-.55-.56l-1.07.07a.74.74,0,0,0-.62.66Z"/><path d="M817.82,1052.18c.35,0,.65-.27.66-.49s-.3-.85-.65-.92l-1.18-.17a.62.62,0,0,0-.68.56c0,.33.34,1.23.7,1.17Z"/><path d="M579.41,1187.56c0,.08.11.32.31.54s.87.71,1,.61.2-.59-.07-.75l-.63-.4C579.74,1187.4,579.44,1187.48,579.41,1187.56Z"/><path d="M557.33,1192a1.05,1.05,0,0,0,.1.94,4.55,4.55,0,0,0,1.07.87c.22.07.93,0,1.07-.26l.34-.74a1,1,0,0,0-.22-1l-1-.89c-.25-.2-.52-.33-.58-.28a3.6,3.6,0,0,0-.48.72Z"/><path d="M656.15,1068.77c0,.07.27.07.57,0l.53-.12c.31-.07.31-.13,0-.13A3.12,3.12,0,0,0,656.15,1068.77Z"/><path d="M582.68,1079.71c.19.21.41.33.51.25s0-.48-.24-.62S582.5,1079.49,582.68,1079.71Z"/><path d="M762.4,1063.33c-.29-.07-.46,0-.37.05a2.7,2.7,0,0,0,.82.56,4.38,4.38,0,0,0,1,.3,1.83,1.83,0,0,0,.1-.25.45.45,0,0,0-.16-.18A12.58,12.58,0,0,0,762.4,1063.33Z"/><path d="M749.09,1139.91a.22.22,0,0,0,0,.22,2.34,2.34,0,0,0,.73.22l.52,0c.31,0,.33,0,0-.17l-.7-.34C749.43,1139.74,749.11,1139.83,749.09,1139.91Z"/><path d="M653.83,1065.49a1.85,1.85,0,0,0,0,.62,2.25,2.25,0,0,0,.43-.54l1.44-2.39a.6.6,0,0,0-.22-.83c-.29-.15-1.2-.16-1.24.18Z"/><path d="M689.73,1042.77a.63.63,0,0,0,.06.9l.68.51a3.79,3.79,0,0,0,.81.41.78.78,0,0,0,.72-.47l1-3c.11-.34.09-.68,0-.76a1.19,1.19,0,0,0-1,.18Z"/><path d="M623.9,1203.13c-.13.31-.06.43.16.25s.74-.78.65-.9S624,1202.81,623.9,1203.13Z"/><path d="M609.45,1125.58a.52.52,0,0,0,.07.73,11.23,11.23,0,0,0,1,.65c.08,0,.32.07.37,0a2.89,2.89,0,0,0,.25-.74l.11-.54a.78.78,0,0,0-.2-.74c-.16-.12-.81-.25-1,0Z"/><path d="M711.93,1165.6a.87.87,0,0,0,.93-.2l.42-.48a.71.71,0,0,0,0-.89c-.22-.24-1.13-.63-1.38-.42l-.9.8a.44.44,0,0,0,.11.71Z"/><path d="M718.53,1087.24c-.19.28-.28.55-.19.6a3.59,3.59,0,0,0,.51.2,1.21,1.21,0,0,0,.73-.4l1.06-1.26c.21-.27.28-.58.17-.7a2.58,2.58,0,0,0-.61-.36,1.27,1.27,0,0,0-.58.47Z"/><path d="M607,1179.08c.21,0,.3-.34.2-.64l-.33-.91c-.09-.31-.22-.3-.28,0l-.2,1.06C606.38,1178.92,606.83,1179.13,607,1179.08Z"/><path d="M559.46,1209.68c0-.34-.25-.6-.46-.57s-.83.37-.84.61a4.36,4.36,0,0,0,.3,1.43l.33.56c.16.3.38.51.47.46a1.13,1.13,0,0,0,.31-.82Z"/><path d="M685.07,1115.65c0,.19.31.25.64.13l1.6-.53c.32-.12.58-.33.57-.48a2.71,2.71,0,0,0-.09-.56,2.13,2.13,0,0,0-.69-.13h-1a1,1,0,0,0-.77.33A4.38,4.38,0,0,0,685.07,1115.65Z"/><path d="M797.58,1122.82a.42.42,0,0,0,.42.5l1.81.17c.29,0,.55,0,.58-.09a1.82,1.82,0,0,0,0-.72c-.07-.28-.47-1-.76-.94l-1.22.13C798.09,1121.9,797.64,1122.56,797.58,1122.82Z"/><path d="M566.84,1180.86c-.06.29,0,.55.08.57a1.77,1.77,0,0,0,.78-.09,5.79,5.79,0,0,0,1.1-.77l.47-.55a.41.41,0,0,0-.16-.65l-1.29-.57a.47.47,0,0,0-.62.36Z"/><path d="M579.13,1216.28c0,.08.22.23.51.34l1.41.55c.29.11.6.09.69,0a1.77,1.77,0,0,0,.27-.54l0,0a13.39,13.39,0,0,0-1.53-1.33.6.6,0,0,0-.77,0A4.73,4.73,0,0,0,579.13,1216.28Z"/><path d="M552.81,1071.64c0,.15.26.38.55.51l1.33.57a1,1,0,0,0,1-.19l.48-.52c.2-.25.39-.48.42-.53s-.11-.33-.37-.52l-1.74-1.15a.76.76,0,0,0-.89.16l-.49.64A2.59,2.59,0,0,0,552.81,1071.64Z"/><path d="M651.07,1055.78a.41.41,0,0,0,.22.68l3,1a3.87,3.87,0,0,0,.62.15,4.18,4.18,0,0,0,0-.66l-.13-1.38a3.33,3.33,0,0,0-.07-.65,5.53,5.53,0,0,0-.65-.28l-.72-.29a1.15,1.15,0,0,0-1.06.19Z"/><path d="M659.7,1169.81a3.31,3.31,0,0,0,.14-.33,3,3,0,0,0-.38-.33c-.2-.15-.85-.46-.91-.35a2.27,2.27,0,0,0-.13.8c0,.21.2.76.33.82s.56.08.65-.08Z"/><path d="M625.54,1220.28c-.2-.24-.46-.4-.56-.35a.8.8,0,0,0-.23.75l.35,1.08a.62.62,0,0,0,.71.38c.27-.09.82-.59.61-.82Z"/><path d="M629.48,1217.26c.11,0,.37-.2.57-.48a6.41,6.41,0,0,0,.81-1.64c0-.31,0-1.07-.19-1.09a1.43,1.43,0,0,0-1,.47l-1,1.71c-.17.31-.21.63-.08.71A6.11,6.11,0,0,0,629.48,1217.26Z"/><path d="M653.21,1092.34l-.23-.13s-.07.23-.12.5,0,.73.13.56S653.32,1092.4,653.21,1092.34Z"/><path d="M712.29,1071.29a.57.57,0,0,0-.61-.44,2.41,2.41,0,0,0-1,.51,1,1,0,0,0,.32.73l1.21.89c.22.18.38.09.35-.2Z"/><path d="M680.63,1039.7a.39.39,0,0,0,.56-.37l0-1.11c0-.31-.11-.59-.29-.6a5.56,5.56,0,0,0-.73,0,4.34,4.34,0,0,0-.48.47c-.2.23-.46,1-.17,1.14Z"/><path d="M708.25,1054.28a2.09,2.09,0,0,0-.12,1.15c.07.31.48,1.06.72,1.08a2,2,0,0,0,1.24-.54l.87-1.56a2.25,2.25,0,0,0,.18-1.2l-.12-.67a1,1,0,0,0-.51-.76c-.23-.07-1,0-1.18.37Z"/><path d="M614.48,1138.54c0,.29.09.58.29.63s.83-.13.89-.43l.16-.8c0-.3-.11-.52-.33-.5A2.42,2.42,0,0,0,614.48,1138.54Z"/><path d="M791.76,1099.88a2.33,2.33,0,0,0,.06,1c.08.2.44.63.61.57a1.71,1.71,0,0,0,.79-.84l.49-2.46c.06-.34-.14-.57-.44-.51s-1.22.6-1.28.93Z"/><path d="M678.49,1069.17a7,7,0,0,1,.17.75l.56,3.32a1.69,1.69,0,0,0,.14.56.53.53,0,0,0,.2-.19,1.68,1.68,0,0,0,.09-.92l-.92-3.74c-.07-.3-.16-.49-.21-.41A1.47,1.47,0,0,0,678.49,1069.17Z"/><path d="M666.75,1037.68a.68.68,0,0,0,.81.36l1.76-.7a.77.77,0,0,0,.38-.85l-.69-2.07a.45.45,0,0,0-.71-.2l-1.76,1.29a.94.94,0,0,0-.26,1Z"/><path d="M668.55,1066.15a.69.69,0,0,0-.1-.87c-.23-.18-1-.23-1,.12l-.09,1.91c0,.35.12.41.33.12Z"/><path d="M695.9,1061.8c-.2-.15-.42-.12-.5.07a4.19,4.19,0,0,0-.21,1.12c0,.21.36.51.57.3l.44-.48C696.38,1062.58,696.1,1062,695.9,1061.8Z"/><path d="M627.84,1201.1a.45.45,0,0,0,.09.71l.67.52c.26.19.55.17.64,0s.22-.9.06-1.09A1.9,1.9,0,0,0,627.84,1201.1Z"/><path d="M751.36,1052.27a.59.59,0,0,0,0,.82l.61.48.5.29s.2-.18.42-.4l1.11-1.21a2.36,2.36,0,0,0,.46-.79c0-.2,0-.77-.24-.86a1.83,1.83,0,0,0-1.28.06Z"/><path d="M539.24,1089.34a1.81,1.81,0,0,0-.64,0,2.49,2.49,0,0,0,0,.72L539,1092c.06.34.1.61.11.61l.29-.55.85-1.85a.52.52,0,0,0-.36-.71C539.57,1089.39,539.24,1089.34,539.24,1089.34Z"/><path d="M661.16,1213.06c-.15,0-.4.16-.55.41l-.87,1.51a.6.6,0,0,0,.18.75c.23.15,1,.21,1.07-.08l.56-2A.58.58,0,0,0,661.16,1213.06Z"/><path d="M573.14,1175.93a.78.78,0,0,0-.89-.11l-3.62,1.78a.49.49,0,0,0-.16.77c.21.26,1.21.8,1.52.66l1.79-.87a5.54,5.54,0,0,0,1-.67C573,1177.27,573.32,1176.14,573.14,1175.93Z"/><path d="M587.18,1211.23a.74.74,0,0,0,.21-.44l.78-3.4c.05-.21,0-.37-.1-.35l-.1,0a5.58,5.58,0,0,0-.66.22.88.88,0,0,0-.46.54l-.65,2.84a1.59,1.59,0,0,0-.06.51c0,.06.15.23.28.22A6.64,6.64,0,0,0,587.18,1211.23Z"/><path d="M603.82,1184.74c0-.33-.12-.61-.3-.64a2,2,0,0,0-.77,0,1.32,1.32,0,0,0-.07.63c.05.19.28.72.44.78S603.8,1185.06,603.82,1184.74Z"/><path d="M635.82,1176.85a.1.1,0,0,0,0,0s0,0,0,0S635.83,1176.83,635.82,1176.85Z"/><path d="M681.82,1120.44c.17.23.44.19.59-.09l.63-1.25c.15-.28,0-.4-.25-.27l-.95.47C681.57,1119.46,681.65,1120.22,681.82,1120.44Z"/><path d="M730,1146.62a2.1,2.1,0,0,0-.11.66c0,.27.24,1,.58,1.09l1.42.25a.48.48,0,0,0,.57-.53l0-.85a.78.78,0,0,0-.65-.7l-.94-.14A1.26,1.26,0,0,0,730,1146.62Z"/><path d="M677.81,1102.55a.82.82,0,0,0-.09-.53,2.37,2.37,0,0,0-.61-.51,1.54,1.54,0,0,0-1,.1l-.58.54c-.21.22-.29.5-.2.62a3.18,3.18,0,0,0,.91.59l.71.25c.28.1.55.1.61,0A10,10,0,0,0,677.81,1102.55Z"/><path d="M656.27,1048.81a.85.85,0,0,0-.18-.57,2.36,2.36,0,0,0-.74-.45,1.63,1.63,0,0,0-1.11.26l-.55.67c-.19.27-.24.59-.11.7a3.33,3.33,0,0,0,1.07.51l.8.16c.32.07.62,0,.66-.1A11.66,11.66,0,0,0,656.27,1048.81Z"/><path d="M622.22,1104.7v-.43c0-.16,0-.67,0-.76a1.3,1.3,0,0,0-.57-.57c-.3-.13-1.19-.32-1.24-.07s.09,1.1.37,1.27l.92.53C622,1104.83,622.22,1104.77,622.22,1104.7Z"/><path d="M597.75,1082.09a.75.75,0,0,0-.93.18l-.46.65a.46.46,0,0,0,.31.7l1.37.38c.33.08.64,0,.69-.27a1.69,1.69,0,0,0-.32-1.2Z"/><path d="M587.92,1169.76a.51.51,0,0,0-.55-.55l-3.58.14a2.79,2.79,0,0,0-.61.09,5,5,0,0,0,.32.57l.73,1.22a.87.87,0,0,0,.93.34l1.91-.53A2.3,2.3,0,0,0,587.92,1169.76Z"/><path d="M560.61,1089a.49.49,0,0,0-.59-.46l-3.39.49a2.83,2.83,0,0,0-.58.15,5.45,5.45,0,0,0,.37.51l.82,1.09a.84.84,0,0,0,.92.23l1.76-.7A2.21,2.21,0,0,0,560.61,1089Z"/><path d="M717.49,1029.19a1.34,1.34,0,0,0,.77-.58c.13-.24.32-.94.14-1.06a1.77,1.77,0,0,0-1.19-.17l-1.56.9-.49.33a1,1,0,0,0,.22.35,1.94,1.94,0,0,0,1.16.45Z"/><path d="M565.18,1101.13a2.87,2.87,0,0,0-.54-.07c-.27,0-1.09.21-1.15.54l-.36,2.14c-.06.33,0,.38.25.11l1.56-2.14A1.1,1.1,0,0,0,565.18,1101.13Z"/><path d="M543.6,1211a.64.64,0,0,0-.56-.64l-.8-.1a.5.5,0,0,0-.57.52l0,2.5a.56.56,0,0,0,.57.56h.74a.6.6,0,0,0,.59-.58Z"/><path d="M621,1214.89c-.07.34-.05.64,0,.67a1.08,1.08,0,0,0,.71-.4l1.17-1.61a.46.46,0,0,0-.23-.72c-.31-.11-1.3,0-1.36.29Z"/><path d="M640.3,1054a1.68,1.68,0,0,0,.32-.55l1.07-2.6a2.38,2.38,0,0,0,.17-.69c0-.12-.19-.08-.29.19l-1.29,3.26C640.18,1053.83,640.24,1054,640.3,1054Z"/><path d="M691.34,1111.85c.2,0,.33-.23.3-.58l-.08-.94c0-.34-.16-.37-.31,0l-.32.74A.76.76,0,0,0,691.34,1111.85Z"/><path d="M673.55,1145a1.33,1.33,0,0,0,1-.37,3.72,3.72,0,0,0,.68-1.55l-.24-2.7a1.26,1.26,0,0,0-.58-.91,2.76,2.76,0,0,0-1.66-.21l-1.16.83a1.32,1.32,0,0,0-.47,1l.11,2.76c0,.35.14.69.29.76a5.56,5.56,0,0,0,1.18.3Z"/><path d="M556.15,1191.27s0-.32.05-.67l.11-1.65c0-.35,0-.66-.09-.67a1.25,1.25,0,0,0-.65.48l-.82,1.35a.61.61,0,0,0,.21.84A6.78,6.78,0,0,0,556.15,1191.27Z"/><path d="M579.14,1133.86s-.18,0-.37,0l-1.73.23a.25.25,0,0,0-.2.37l.23.55a.65.65,0,0,0,.48.36l1,.09a.48.48,0,0,0,.44-.32l.16-.83A1.19,1.19,0,0,0,579.14,1133.86Z"/><path d="M613.6,1069.77c0-.35-.12-.64-.34-.64s-.81.27-.81.62l0,2.19c0,.36.13.63.29.61s.65-.34.67-.69Z"/><path d="M859.15,1206.75a.94.94,0,0,0-.41-.1,4,4,0,0,0-.41.56l-.78,1.24a.79.79,0,0,0,.12.9l.66.6a.35.35,0,0,0,.6-.19l.75-2.22C859.77,1207.24,859.35,1206.82,859.15,1206.75Z"/><path d="M673,1063.36a.67.67,0,0,0,.5.57c.22,0,.86-.12.9-.25a2.14,2.14,0,0,0-.09-1l-.59-1.42c-.11-.28-.33-.47-.48-.42s-.53.43-.49.73Z"/><path d="M668.45,1118.21a.66.66,0,0,0,.83-.31l1.14-2.18c.16-.29.26-.55.21-.58a1.11,1.11,0,0,0-.64.26l-2.2,1.8a.4.4,0,0,0,.07.69Z"/><path d="M734.31,1094.6c.1.3.27.3.37,0l.43-1.64a.39.39,0,0,0-.4-.53c-.29,0-1,.44-.94.75Z"/><path d="M658.65,1223.18c0,.21.05.4.14.44a.65.65,0,0,0,.53-.14c.1-.14.17-.62,0-.7S658.66,1223,658.65,1223.18Z"/><path d="M676.82,1098.08c-.31,0-.58,0-.61.09a.81.81,0,0,0,.47.55l1.53.61c.29.1.53,0,.52-.17a2.07,2.07,0,0,0-.19-.83,5.73,5.73,0,0,0-.87-.17Z"/><path d="M623.44,1067.25c0-.29-.12-.39-.36-.23l-1,.78a.57.57,0,0,0-.05.76l.7.75a2.39,2.39,0,0,0,.42.33,3.17,3.17,0,0,0,.1-.55Z"/><path d="M678.31,1172a1.33,1.33,0,0,0-.6.14,1.79,1.79,0,0,0,.18.67l1,1.83c.14.29.33.27.43,0l.57-2.08a.44.44,0,0,0-.46-.55Z"/><path d="M697.67,1116.45a.71.71,0,0,0,.27-.82l-.47-1.5c-.13-.33-.38-.35-.56-.05l-.66,1a.83.83,0,0,0-.06.89A2.61,2.61,0,0,0,697.67,1116.45Z"/><path d="M654.65,1067c0-.29-.22-.32-.37-.06l-.38.73c-.12.27,0,.53.18.57s.81-.11.76-.4Z"/><path d="M652.13,1082.14c0,.29.12.32.25.08s.34-1,.21-1S652.12,1081.86,652.13,1082.14Z"/><path d="M752.21,1155.3a2.27,2.27,0,0,0,.33-.87,1.51,1.51,0,0,0-.49-1c-.27-.15-1.25-.24-1.45,0l-.88,1.4c-.17.3-.23.61-.14.69a3.23,3.23,0,0,0,.87.41A3.3,3.3,0,0,0,752.21,1155.3Z"/><path d="M766.86,1058.43a3.24,3.24,0,0,0,.1-.65l.34-3.27c0-.33,0-.5-.13-.36a3.38,3.38,0,0,0-.45,1.14l-.29,2.56c0,.34,0,.62.07.63A.89.89,0,0,0,766.86,1058.43Z"/><path d="M599.84,1201.5a1.72,1.72,0,0,0-.28-.47,1.63,1.63,0,0,0-.14.61l-.12,2.89a.41.41,0,0,0,.53.42l1-.28a.5.5,0,0,0,.26-.69Z"/><path d="M580.57,1108a3.2,3.2,0,0,0,.47-.52c0-.06-.13-.1-.42,0l-2.39,1.29c-.28.15-.44.42-.34.6a1,1,0,0,0,1.06.08Z"/><path d="M602.53,1101.23a.41.41,0,0,0-.49-.3c-.2.07-.8.47-.84.75s.1,1,.37.85l.75-.31C602.59,1102.1,602.61,1101.45,602.53,1101.23Z"/><path d="M674.17,1119.26a.59.59,0,0,0-.7-.34l-.91.26a.45.45,0,0,0-.29.63l.4,1a.46.46,0,0,0,.66.23l.83-.41a.56.56,0,0,0,.27-.71Z"/><path d="M571.33,1135.84a1.14,1.14,0,0,0,.22-.32l.14-.36a.36.36,0,0,0-.06-.33l-.37-.35a.27.27,0,0,0-.3,0,1.62,1.62,0,0,0-.34.39l-.36,1a.2.2,0,0,0,.12.26l.22.09a.38.38,0,0,0,.34-.06Z"/><path d="M697.18,1051.57a.88.88,0,0,0-.58-.21c-.22,0-.84.14-.85.28a.65.65,0,0,0,.61.46C696.66,1052.07,697.28,1051.69,697.18,1051.57Z"/><path d="M629.61,1142.42c.19,0,.31-.31.26-.63s-.29-.76-.44-.47-.47,1.09-.47,1.1A4.48,4.48,0,0,0,629.61,1142.42Z"/></g></mask></defs><rect class="cls-1" width="1850.04" height="1228.9"/><g class="cls-2"><g class="cls-3"><polygon class="cls-4" points="736.02 1150.34 735.17 1149.24 734.13 1148.14 733.22 1146.95 732.7 1145.57 731.31 1145.94 730.42 1147.23 728.96 1147.54 727.83 1148.43 726.49 1148.95 725.51 1150.1 723.98 1150.31 722.77 1151.06 721.53 1151.75 720.44 1152.72 718.81 1153.67 720.01 1152.2 720.51 1150.87 720.93 1149.5 721.68 1148.31 722.95 1147.42 723.5 1146.11 724.01 1144.78 724.48 1143.43 725.05 1142.13 726.13 1141.13 726.9 1139.92 725.75 1138.81 724.46 1138.01 723.02 1137.46 721.45 1136.72 721.19 1138.3 720.31 1139.44 719.75 1140.76 718.99 1141.96 718.18 1143.13 717.74 1144.52 716.31 1145.35 716.37 1147.02 715.36 1148.09 714.51 1149.25 713.83 1150.41 713.9 1149.08 713.85 1147.66 714.27 1146.25 713.93 1144.83 714.13 1143.41 714.29 1141.99 714.12 1140.57 713.36 1139.16 714.22 1137.73 713.77 1136.31 714.13 1134.77 712.4 1134.84 711.02 1134.63 709.36 1134.36 707.62 1134.88 707.55 1136.36 707.99 1137.79 707.72 1139.22 707.64 1140.66 707.27 1142.09 707.72 1143.53 707.48 1144.96 707.85 1146.4 707.51 1147.83 707.78 1149.27 707.91 1151.16 707.26 1149.35 706.61 1148.07 705.57 1147.02 704.89 1145.75 703.85 1144.68 703.78 1143.06 703.01 1141.84 702.03 1140.75 701.39 1139.45 700.54 1138.28 699.8 1137.05 698.61 1137.94 697.3 1138.67 695.92 1139.28 694.23 1140.05 695.38 1141.2 696.05 1142.51 697.02 1143.64 697.37 1145.13 698.22 1146.33 699.18 1147.47 699.45 1149.01 700.37 1150.16 700.85 1151.59 702.1 1152.82 700.83 1151.59 699.42 1151.05 698.04 1150.44 696.81 1149.58 695.55 1148.77 694.14 1148.2 692.81 1147.52 691.49 1146.8 690.08 1146.24 688.99 1145.1 688.39 1146.59 686.74 1147.25 686.51 1148.94 685.19 1150.27 686.91 1150.36 688.12 1151.1 689.26 1151.97 690.32 1152.97 691.82 1153.2 692.67 1154.57 693.9 1155.28 695.49 1155.36 696.64 1156.21 697.71 1157.19 699.04 1157.73 700.42 1158.19 701.34 1159.43 702.72 1159.89 704.12 1160.32 705 1161.47 703.87 1162.05 702.69 1162.74 701.6 1163.58 700.58 1164.56 699.11 1164.74 698.21 1165.92 696.92 1166.42 695.52 1166.76 694.59 1167.68 695.24 1168.93 695.8 1170.35 696.37 1171.76 697.57 1172.53 699 1172.49 699.87 1170.97 701.48 1170.72 703.02 1169.55 701.94 1171.18 701.31 1172.63 700.72 1174.09 700 1175.15 701.08 1175.68 702.05 1177.03 703.43 1177.65 704.86 1178.37 705.51 1176.91 706.15 1175.53 707.09 1174.32 707.71 1173.39 707.98 1174.56 708.11 1176.13 708.07 1177.69 707.51 1179.58 709.35 1178.92 710.86 1179 712.37 1179.31 713.57 1178.93 713.86 1177.73 713.48 1176.22 713.38 1174.71 713.89 1173.3 714.64 1174.55 715.13 1176.07 716.09 1177.32 717.11 1178.21 718.17 1177.63 719.81 1177.45 720.78 1176.11 722 1175.51 721.75 1174.16 720.69 1173.09 719.88 1171.88 718.87 1170.77 718.76 1169.46 719.69 1170.16 720.87 1170.97 722.48 1171.05 723.53 1172.1 724.64 1172.49 725.47 1171.54 725.97 1170.09 726.69 1168.77 727.62 1167.69 726.64 1166.89 725.6 1165.96 724.09 1165.84 722.91 1165.14 721.64 1164.59 720.58 1163.7 719.46 1162.9 718.14 1162.44 717.46 1161.48 718.28 1160.55 719.68 1160.04 720.77 1159 722.08 1158.36 723.3 1157.54 724.59 1156.86 726.22 1156.75 727.27 1155.64 728.67 1155.14 729.86 1154.26 731.12 1153.51 732.1 1152.27 733.62 1151.97 734.89 1151.22 736.02 1150.34"/><polygon class="cls-4" points="711.02 1049.35 709.59 1049.37 708.15 1048.83 706.74 1049.74 705.28 1049.08 703.88 1049.59 702.45 1049.71 701.02 1049.74 699.62 1050.14 698.19 1050.24 696.76 1050.31 695.3 1050.17 693.83 1050.01 692.41 1050.3 691.09 1051.07 689.6 1050.89 688.22 1051.3 686.83 1051.64 685.56 1052.52 684.08 1052.48 682.79 1053.23 681.23 1052.92 679.91 1053.53 678.6 1054.13 677.03 1053.9 675.88 1055.02 674.59 1055.67 673.05 1055.6 671.61 1055.84 670.49 1056.92 669.03 1057.14 667.82 1057.96 666.42 1058.33 665.3 1059.32 663.78 1059.44 662.68 1060.46 661.18 1060.65 659.8 1061.11 658.67 1062.03 657.46 1062.81 655.95 1063.03 655.08 1064.41 653.71 1064.9 652.23 1065.22 651.34 1066.52 649.92 1066.95 648.73 1067.74 647.68 1068.76 646.57 1069.67 645.07 1070.02 644.16 1071.22 642.99 1072.04 641.67 1072.67 641 1074.14 639.43 1074.48 638.65 1075.78 637.55 1076.7 636.6 1077.77 635.53 1078.71 634.05 1079.22 633.19 1080.4 632.46 1081.7 631.27 1082.53 630.48 1083.76 629.24 1084.55 628.43 1085.75 627.54 1086.86 626.4 1087.77 625.17 1088.59 624.59 1089.97 623.23 1090.71 622.8 1092.2 621.61 1093.09 620.61 1094.13 620.25 1095.64 618.75 1096.33 618.65 1098.01 617.58 1099.01 616.9 1100.28 615.61 1101.15 614.98 1102.45 614.02 1103.55 614.1 1105.26 613.38 1106.49 612.6 1107.25 613.32 1108.62 614.96 1108.68 615.98 1109.8 617.2 1110.56 618.43 1111.31 619.61 1112.15 621.07 1112.5 622.1 1113.62 623.66 1113.8 624.84 1114.64 626.2 1115.18 627.46 1115.88 628.69 1116.62 629.89 1117.44 631.05 1118.3 632.32 1119.01 633.36 1120.09 634.91 1120.28 636.09 1121.12 637.41 1121.72 638.47 1122.76 639.78 1123.36 641.2 1123.78 642.25 1124.85 643.39 1125.74 644.46 1126.78 645.99 1127.02 647.19 1127.83 648.65 1128.19 649.74 1129.19 650.98 1129.92 652.29 1130.54 653.24 1131.77 654.47 1132.54 655.72 1133.26 657.04 1133.86 658.42 1134.37 659.88 1134.73 660.86 1135.93 662.22 1136.46 663.17 1137.69 664.76 1137.84 665.94 1138.69 667.21 1139.38 668.33 1140.34 669.79 1140.7 671.13 1141.28 671.94 1142.76 673.58 1142.81 674.86 1143.5 676 1144.42 676.96 1145.65 678.23 1146.35 679.9 1146.37 681.18 1147.06 682.26 1147.87 682.62 1146.8 683.22 1145.47 684.22 1144.39 685.1 1143.24 685.88 1142.02 686.72 1140.83 687.98 1140.03 689 1139.02 690.2 1138.22 690.74 1136.62 691.94 1135.79 693.5 1135.51 694.42 1134.26 695.64 1133.47 697.08 1133.09 698.47 1132.67 699.66 1131.76 701.12 1131.55 702.39 1130.78 703.88 1130.73 705.31 1130.56 706.72 1130.25 708.18 1130.52 709.6 1130.27 711.02 1130.29 712.48 1129.62 713.9 1130.13 715.29 1130.62 716.74 1130.59 718.16 1130.86 719.47 1131.51 721.02 1131.34 722.48 1131.58 723.48 1132.97 724.86 1133.38 726.45 1133.45 727.66 1134.26 728.65 1135.4 729.73 1136.37 730.99 1137.08 731.99 1138.12 733.37 1138.75 734.23 1139.94 735.33 1140.9 736.13 1142.11 737.1 1143.19 737.67 1144.55 738.14 1145.94 739.31 1146.93 739.98 1148.75 741.25 1147.75 742.57 1147.15 743.72 1146.26 744.89 1145.41 746.03 1144.5 747.17 1143.6 748.7 1143.35 749.72 1142.23 751.01 1141.59 752.27 1140.88 753.56 1140.22 754.82 1139.51 756.02 1138.71 757.43 1138.27 758.41 1137.08 759.74 1136.49 761.13 1136.01 762.15 1134.9 763.77 1134.82 764.88 1133.87 766.1 1133.1 767.17 1132.09 768.58 1131.65 769.53 1130.42 771.12 1130.28 772.27 1129.39 773.32 1128.32 774.69 1127.8 776.18 1127.5 777.38 1126.68 778.53 1125.79 779.75 1125.03 780.78 1123.93 782.4 1123.82 783.75 1123.27 784.62 1121.9 786.02 1121.44 787.13 1120.48 788.42 1119.81 789.63 1119.01 791.01 1118.51 792.11 1117.51 793.35 1116.77 794.69 1116.21 795.74 1115.15 797.12 1114.63 798.5 1114.13 799.93 1113.71 800.99 1112.66 802.03 1111.56 803.28 1110.83 804.9 1110.72 806.13 1109.97 807.49 1109.41 808.45 1108.17 809.76 1107.54 809.26 1106.18 808.72 1104.83 807.23 1104.05 806.46 1102.85 806.17 1101.34 805.2 1100.26 804.35 1099.11 803.72 1097.81 802.76 1096.73 802.25 1095.33 801.22 1094.31 800.42 1093.12 799.57 1091.96 798.51 1090.97 798.01 1089.53 796.93 1088.56 795.65 1087.77 795.07 1086.37 794.17 1085.25 792.83 1084.54 791.73 1083.61 791.13 1082.19 789.9 1081.4 789.16 1080.09 787.7 1079.55 786.86 1078.36 785.55 1077.66 784.76 1076.39 783.73 1075.39 782.7 1074.38 781.35 1073.77 780.25 1072.85 779.3 1071.72 778 1071.07 776.63 1070.51 775.54 1069.58 774.23 1068.97 773 1068.23 772.2 1066.84 770.64 1066.62 769.36 1065.98 768.5 1064.63 767.07 1064.24 766.05 1063.13 764.63 1062.73 763.49 1061.83 761.98 1061.64 761 1060.39 759.36 1060.47 758.37 1059.22 756.93 1058.92 755.65 1058.28 754.22 1057.97 752.84 1057.57 751.51 1057.07 750.31 1056.2 748.86 1055.98 747.46 1055.67 746.15 1055.1 744.8 1054.63 743.66 1053.45 742.07 1053.78 740.65 1053.54 739.47 1052.43 738.08 1052.06 736.51 1052.46 735.28 1051.4 733.86 1051.17 732.45 1050.91 730.94 1051.15 729.65 1050.21 728.14 1050.55 726.68 1050.67 725.3 1050.23 723.93 1049.58 722.46 1049.82 721.08 1049.2 719.61 1049.57 718.19 1049.37 716.77 1049.13 715.34 1048.93 713.89 1049.14 712.45 1049.49 711.02 1049.35"/></g></g></svg>