<svg id="mockup" xmlns="http://www.w3.org/2000/svg" xmlns:xlink="http://www.w3.org/1999/xlink" viewBox="0 0 371.20972 691.76471"><defs><style>.cls-1{fill:none;}.cls-2{clip-path:url(#clip-path);}.cls-3{fill:#698d76;}</style><clipPath id="clip-path"><rect class="cls-1" y="-134.13157" width="415.89802" height="919.64345"/></clipPath></defs><g class="cls-2"><path class="cls-3" d="M-290.17225,762.59813c62.079,7.34008,124.69752-6.91387,184.32139-25.69349C-68.6116,725.17545-31.5652,711.45751,1.07407,690.03291c36.40924-23.89923,66.42016-56.79234,103.75494-79.21824,66.30505-39.8275,151.91873-44.48249,210.13268-95.41112,42.497-37.17863,63.80416-97.10163,54.319-152.76383-13.672-80.23206-83.4724-138.95415-155.49993-176.85061-41.77191-21.97782-86.43095-39.91366-122.42135-70.45231C27.23055,60.922-3.68518-28.71318-76.33922-71.07913-116.021-94.21835-163.12707-100.004-208.75477-105.31278c-47.0609-5.47551-94.91675-10.93333-141.57839-2.72354-34.4619,6.06333-67.2192,19.429-98.7638,34.57242-29.99932,14.40162-60.25882,31.4267-79.38663,58.65706-11.43449,16.27814-18.25636,35.41789-22.437,54.86647C-579.497,172.99789-489.07824,308.1755-509.84138,442.55587c-4.777,30.91723-15.37066,60.73323-19.7484,91.70952s-1.67256,64.88432,17.39652,89.685c16.26258,21.15057,38.65045,26.2578,59.86848,39.6942,16.67981,10.56254,25.57113,31.53448,40.66671,45.54521C-378.70214,739.77737-334.48054,757.35922-290.17225,762.59813Z"/></g></svg>