<svg id="mockup" xmlns="http://www.w3.org/2000/svg" xmlns:xlink="http://www.w3.org/1999/xlink" viewBox="0 0 223.97 134.91"><defs><style>.cls-1{mask:url(#mask);}.cls-2{opacity:0.3;}.cls-3{fill:#fff;}.cls-4{filter:url(#luminosity-noclip);}</style><filter id="luminosity-noclip" x="-60.41" y="-101.03" width="349.55" height="303.94" filterUnits="userSpaceOnUse" color-interpolation-filters="sRGB"><feFlood flood-color="#fff" result="bg"/><feBlend in="SourceGraphic" in2="bg"/></filter><mask id="mask" x="-60.41" y="-101.03" width="349.55" height="303.94" maskUnits="userSpaceOnUse"><g class="cls-4"><path d="M113.92,25.85a.39.39,0,0,1-.33-.12.35.35,0,0,1,0-.3,5.07,5.07,0,0,0-.21-4.47,1.53,1.53,0,0,0-2.67,0,5.07,5.07,0,0,0-.21,4.47.35.35,0,0,1,0,.3.39.39,0,0,1-.33.12.75.75,0,0,1-.26,0A18.12,18.12,0,0,1,102,19.74a4.05,4.05,0,0,1,1-5.46,3.65,3.65,0,0,1,2.36-.7c.39,0,.77,0,1.08.06l.23,0c.53,0,.63-.48.74-1,.23-1.12.61-3,4.65-3s4.41,1.86,4.64,3c.11.51.21,1,.69,1l.28,0c.31,0,.69-.06,1.09-.06a3.64,3.64,0,0,1,2.35.7,4.05,4.05,0,0,1,1,5.46,18.12,18.12,0,0,1-7.88,6.07A.75.75,0,0,1,113.92,25.85Zm2.77,23.89c.11-.51.21-1,.74-1l.23,0c.31,0,.69.06,1.08.06a3.65,3.65,0,0,0,2.36-.7,4,4,0,0,0,1-5.45,18,18,0,0,0-7.88-6.07.75.75,0,0,0-.26,0,.42.42,0,0,0-.33.12.35.35,0,0,0,0,.3,5.07,5.07,0,0,1-.21,4.47,1.52,1.52,0,0,1-2.67,0A5.07,5.07,0,0,1,110.5,37a.35.35,0,0,0,0-.3.42.42,0,0,0-.33-.12.75.75,0,0,0-.26,0A18,18,0,0,0,102,42.68a4,4,0,0,0,1,5.45,3.65,3.65,0,0,0,2.36.7c.39,0,.77,0,1.08-.06l.28,0c.48,0,.58.48.69,1,.23,1.12.61,3,4.65,3S116.46,50.86,116.69,49.74Zm19-10.13c2.22-1,3.2-1.94,3.62-3.51.11-.41.61-.57,1.31-.8,1.37-.44,3.45-1.12,3.45-4.16S142,27.43,140.65,27c-.7-.22-1.2-.38-1.31-.79-.42-1.57-1.4-2.53-3.62-3.52a8.94,8.94,0,0,0-3.67-.73c-6.29,0-13.28,5.38-15,7.24a.23.23,0,0,0,0,.26.37.37,0,0,0,.36.2.83.83,0,0,0,.22,0,8.8,8.8,0,0,1,2.51-.35c2.29,0,4.08.83,4.08,1.88,0,.54-.45,1-1.27,1.38a7.27,7.27,0,0,1-2.81.51h0a9.17,9.17,0,0,1-2.51-.35.85.85,0,0,0-.22,0,.37.37,0,0,0-.36.2.25.25,0,0,0,0,.27c1.7,1.86,8.69,7.24,15,7.24A8.94,8.94,0,0,0,135.72,39.61Zm-29-6.5a.25.25,0,0,0,0-.27.37.37,0,0,0-.36-.2,1,1,0,0,0-.23,0,9,9,0,0,1-2.5.35c-2.29,0-4.08-.83-4.08-1.89s1.79-1.88,4.08-1.88a8.68,8.68,0,0,1,2.5.35l.23,0a.37.37,0,0,0,.36-.2.23.23,0,0,0,0-.26c-1.7-1.86-8.69-7.24-15-7.24a8.94,8.94,0,0,0-3.67.73c-2.22,1-3.2,1.95-3.62,3.52-.11.41-.62.57-1.31.79-1.37.45-3.45,1.13-3.45,4.16s2.08,3.72,3.45,4.16c.69.23,1.2.39,1.31.8.42,1.57,1.4,2.52,3.62,3.51a8.94,8.94,0,0,0,3.67.74C98,40.35,105,35,106.7,33.11Zm5.22,0a2.19,2.19,0,0,0,1.56-.59,2.16,2.16,0,0,0,0-2.86,2.22,2.22,0,0,0-1.63-.59,2.17,2.17,0,0,0-1.56.59,2,2,0,0,0-.54,1.43,1.91,1.91,0,0,0,.54,1.42,2.17,2.17,0,0,0,1.6.6Zm2,65.18a.39.39,0,0,1-.33-.13.33.33,0,0,1,0-.29,5.07,5.07,0,0,0-.21-4.47,1.52,1.52,0,0,0-2.67,0,5.07,5.07,0,0,0-.21,4.47.33.33,0,0,1,0,.29.39.39,0,0,1-.33.13.75.75,0,0,1-.26,0A18,18,0,0,1,102,92.19a4,4,0,0,1,1-5.45,3.59,3.59,0,0,1,2.36-.71c.39,0,.77,0,1.08.07l.23,0c.53,0,.63-.49.74-1,.23-1.11.61-3,4.65-3s4.41,1.87,4.64,3c.11.52.21,1,.69,1l.28,0c.31,0,.69-.07,1.09-.07a3.58,3.58,0,0,1,2.35.71,4,4,0,0,1,1,5.45,18,18,0,0,1-7.88,6.07A.75.75,0,0,1,113.92,98.31Zm2.77,23.89c.11-.51.21-1,.74-1l.23,0c.31,0,.69.07,1.08.07a3.59,3.59,0,0,0,2.36-.71,4,4,0,0,0,1-5.45,18,18,0,0,0-7.88-6.07.75.75,0,0,0-.26,0,.39.39,0,0,0-.33.13.33.33,0,0,0,0,.29,5.07,5.07,0,0,1-.21,4.47,1.52,1.52,0,0,1-2.67,0,5.07,5.07,0,0,1-.21-4.47.33.33,0,0,0,0-.29.39.39,0,0,0-.33-.13.75.75,0,0,0-.26,0,18,18,0,0,0-7.88,6.07,4,4,0,0,0,1,5.45,3.59,3.59,0,0,0,2.36.71c.39,0,.77,0,1.08-.07l.28,0c.48,0,.58.48.69,1,.23,1.11.61,3,4.65,3S116.46,123.31,116.69,122.2Zm19-10.13c2.22-1,3.2-1.95,3.62-3.52.11-.41.61-.57,1.31-.8,1.37-.44,3.45-1.12,3.45-4.15s-2.08-3.72-3.45-4.16c-.7-.23-1.2-.39-1.31-.8-.42-1.57-1.4-2.52-3.62-3.51a8.94,8.94,0,0,0-3.67-.74c-6.29,0-13.28,5.38-15,7.24a.25.25,0,0,0,0,.27.37.37,0,0,0,.36.2.85.85,0,0,0,.22,0,9.17,9.17,0,0,1,2.51-.35c2.29,0,4.08.83,4.08,1.89,0,.53-.45,1-1.27,1.37a7.27,7.27,0,0,1-2.81.51h0a9.17,9.17,0,0,1-2.51-.35.83.83,0,0,0-.22,0,.37.37,0,0,0-.36.19.25.25,0,0,0,0,.27c1.7,1.86,8.69,7.24,15,7.24A8.94,8.94,0,0,0,135.72,112.07Zm-29-6.51a.25.25,0,0,0,0-.27.39.39,0,0,0-.36-.19l-.23,0a9,9,0,0,1-2.5.35c-2.29,0-4.08-.83-4.08-1.88s1.79-1.89,4.08-1.89a9,9,0,0,1,2.5.35,1,1,0,0,0,.23,0,.37.37,0,0,0,.36-.2.25.25,0,0,0,0-.27c-1.7-1.86-8.69-7.24-15-7.24a8.94,8.94,0,0,0-3.67.74c-2.22,1-3.2,1.94-3.62,3.51-.11.41-.62.57-1.31.8-1.37.44-3.45,1.12-3.45,4.16s2.08,3.71,3.45,4.15c.69.23,1.2.39,1.31.8.42,1.57,1.4,2.53,3.62,3.52a8.94,8.94,0,0,0,3.67.73C98,112.8,105,107.42,106.7,105.56Zm5.22,0a2.19,2.19,0,0,0,1.56-.59,2,2,0,0,0,.54-1.43,1.91,1.91,0,0,0-.54-1.42,2.19,2.19,0,0,0-1.63-.6,2.13,2.13,0,0,0-1.56.6,1.91,1.91,0,0,0-.54,1.42,2,2,0,0,0,.54,1.43,2.2,2.2,0,0,0,1.6.59Zm62.39-43.5A.42.42,0,0,1,174,62a.35.35,0,0,1,0-.3,5.1,5.1,0,0,0-.21-4.47,1.52,1.52,0,0,0-2.67,0,5.07,5.07,0,0,0-.21,4.47.35.35,0,0,1,0,.3.42.42,0,0,1-.33.12.75.75,0,0,1-.26,0A18,18,0,0,1,162.42,56a4,4,0,0,1,1-5.45,3.64,3.64,0,0,1,2.35-.7c.4,0,.78,0,1.09.06l.23,0c.53,0,.63-.48.74-1,.23-1.12.61-3,4.64-3s4.42,1.87,4.65,3c.11.51.21,1,.69,1l.28,0c.31,0,.69-.06,1.08-.06a3.6,3.6,0,0,1,2.35.7,4,4,0,0,1,1,5.45A18,18,0,0,1,174.57,62,.75.75,0,0,1,174.31,62.08ZM177.08,86c.11-.51.21-1,.73-1l.24,0c.31,0,.69.06,1.08.06a3.6,3.6,0,0,0,2.35-.7,4.06,4.06,0,0,0,1-5.46,18.12,18.12,0,0,0-7.88-6.07.75.75,0,0,0-.26,0,.39.39,0,0,0-.33.12.35.35,0,0,0,0,.3,5.1,5.1,0,0,1-.21,4.47,1.53,1.53,0,0,1-2.67,0,5.07,5.07,0,0,1-.21-4.47.35.35,0,0,0,0-.3.39.39,0,0,0-.33-.12.75.75,0,0,0-.26,0,18.12,18.12,0,0,0-7.88,6.07,4.05,4.05,0,0,0,1,5.46,3.64,3.64,0,0,0,2.35.7c.4,0,.77,0,1.09-.06l.28,0c.48,0,.58.49.69,1,.23,1.12.61,3,4.64,3S176.85,87.09,177.08,86Zm19-10.13c2.22-1,3.2-1.94,3.62-3.52.11-.4.61-.57,1.31-.79,1.37-.45,3.45-1.12,3.45-4.16s-2.08-3.71-3.45-4.16c-.7-.22-1.2-.39-1.31-.8-.42-1.57-1.4-2.52-3.62-3.51a8.94,8.94,0,0,0-3.67-.74c-6.29,0-13.28,5.39-15,7.24a.25.25,0,0,0,0,.27.37.37,0,0,0,.36.2.6.6,0,0,0,.22,0,9.17,9.17,0,0,1,2.51-.35c2.29,0,4.08.83,4.08,1.89,0,.53-.45,1-1.27,1.38a7.46,7.46,0,0,1-2.81.51h0A8.81,8.81,0,0,1,178,68.9l-.22,0a.37.37,0,0,0-.36.2.25.25,0,0,0,0,.27c1.7,1.85,8.69,7.24,15,7.24A8.94,8.94,0,0,0,196.11,75.84Zm-29-6.5a.25.25,0,0,0,0-.27.34.34,0,0,0-.35-.2l-.23,0a8.74,8.74,0,0,1-2.5.36c-2.29,0-4.08-.83-4.08-1.89s1.79-1.89,4.08-1.89a9.09,9.09,0,0,1,2.5.35.66.66,0,0,0,.23,0,.34.34,0,0,0,.35-.2.25.25,0,0,0,0-.27c-1.7-1.85-8.69-7.24-15-7.24a8.93,8.93,0,0,0-3.66.74c-2.22,1-3.21,1.94-3.63,3.51-.11.41-.61.58-1.3.8-1.37.45-3.45,1.12-3.45,4.16s2.08,3.71,3.45,4.16c.69.22,1.19.39,1.3.79.42,1.58,1.41,2.53,3.63,3.52a8.93,8.93,0,0,0,3.66.74C158.4,76.58,165.39,71.19,167.09,69.34Zm5.21,0a2.19,2.19,0,0,0,1.57-.59,2,2,0,0,0,.54-1.43,1.91,1.91,0,0,0-.54-1.42,2.23,2.23,0,0,0-1.63-.6,2.16,2.16,0,0,0-1.56.6,2.15,2.15,0,0,0,0,2.85,2.18,2.18,0,0,0,1.59.59ZM53.53,62.08A.42.42,0,0,1,53.2,62a.32.32,0,0,1,0-.3A5.1,5.1,0,0,0,53,57.19a1.52,1.52,0,0,0-2.67,0,5.1,5.1,0,0,0-.21,4.47.35.35,0,0,1,0,.3.42.42,0,0,1-.33.12.75.75,0,0,1-.26,0A18,18,0,0,1,41.64,56a4,4,0,0,1,1-5.45,3.6,3.6,0,0,1,2.35-.7c.4,0,.77,0,1.09.06l.23,0c.52,0,.62-.48.73-1,.23-1.12.61-3,4.65-3s4.42,1.87,4.64,3c.11.51.21,1,.69,1l.28,0c.32,0,.69-.06,1.09-.06a3.64,3.64,0,0,1,2.35.7,4,4,0,0,1,1,5.45A18,18,0,0,1,53.79,62,.75.75,0,0,1,53.53,62.08ZM56.3,86c.11-.51.21-1,.74-1l.23,0c.32,0,.69.06,1.09.06a3.64,3.64,0,0,0,2.35-.7,4.05,4.05,0,0,0,1-5.46,18.12,18.12,0,0,0-7.88-6.07.75.75,0,0,0-.26,0,.39.39,0,0,0-.33.12.32.32,0,0,0,0,.3A5.1,5.1,0,0,1,53,77.68a1.53,1.53,0,0,1-2.67,0,5.1,5.1,0,0,1-.21-4.47.35.35,0,0,0,0-.3.39.39,0,0,0-.33-.12.75.75,0,0,0-.26,0,18.12,18.12,0,0,0-7.88,6.07,4.06,4.06,0,0,0,1,5.46,3.6,3.6,0,0,0,2.35.7c.4,0,.77,0,1.08-.06l.28,0c.48,0,.58.49.69,1,.23,1.12.61,3,4.65,3S56.08,87.09,56.3,86Zm19-10.13c2.22-1,3.2-1.94,3.63-3.52.11-.4.61-.57,1.3-.79,1.37-.45,3.45-1.12,3.45-4.16s-2.08-3.71-3.45-4.16c-.69-.22-1.19-.39-1.3-.8-.43-1.57-1.41-2.52-3.63-3.51a8.94,8.94,0,0,0-3.67-.74c-6.29,0-13.28,5.39-15,7.24a.25.25,0,0,0,0,.27.34.34,0,0,0,.35.2.66.66,0,0,0,.23,0,9,9,0,0,1,2.5-.35c2.29,0,4.08.83,4.08,1.89,0,.53-.45,1-1.27,1.38a7.46,7.46,0,0,1-2.81.51h0a8.69,8.69,0,0,1-2.5-.36l-.23,0a.34.34,0,0,0-.35.2.25.25,0,0,0,0,.27c1.7,1.85,8.69,7.24,15,7.24A8.94,8.94,0,0,0,75.33,75.84Zm-29-6.5a.25.25,0,0,0,0-.27.37.37,0,0,0-.36-.2.83.83,0,0,0-.22,0,8.81,8.81,0,0,1-2.51.36c-2.29,0-4.08-.83-4.08-1.89s1.79-1.89,4.08-1.89a9,9,0,0,1,2.5.35.66.66,0,0,0,.23,0,.37.37,0,0,0,.36-.2.25.25,0,0,0,0-.27c-1.7-1.85-8.69-7.24-15-7.24a8.94,8.94,0,0,0-3.67.74c-2.22,1-3.2,1.94-3.62,3.51-.11.41-.61.58-1.31.8-1.37.45-3.45,1.12-3.45,4.16s2.08,3.71,3.45,4.16c.7.22,1.2.39,1.31.79.42,1.58,1.4,2.53,3.62,3.52a8.94,8.94,0,0,0,3.67.74C37.62,76.58,44.61,71.19,46.31,69.34Zm5.22,0a2.17,2.17,0,0,0,1.56-.59,2.15,2.15,0,0,0,0-2.85,2.23,2.23,0,0,0-1.63-.6,2.18,2.18,0,0,0-1.56.6,2.15,2.15,0,0,0,0,2.85,2.2,2.2,0,0,0,1.6.59Z"/><path d="M75.94,36.55a3,3,0,0,0,.57.3l.67.32c.34.11.65.16.71.1a3.53,3.53,0,0,0,.32-.85l.15-.64c.09-.34,0-.7-.1-.79a1.19,1.19,0,0,0-1,.14l-.83.87Z"/><path d="M28.78,83.06a.72.72,0,0,0-.11.93l.7.85a.78.78,0,0,0,1,.07l1.36-1a3.54,3.54,0,0,0,.49-.48,1.47,1.47,0,0,0-.48-.48l-.93-.65a1,1,0,0,0-1.05.06Z"/><path d="M4.28,79.55c.09.33.35.6.58.59a5.84,5.84,0,0,0,1.4-.37l.66-.32c.31-.16.57-.3.57-.31a4.89,4.89,0,0,0-.4-.56l-1-1.28a.77.77,0,0,0-.94-.21l-.68.35a1,1,0,0,0-.47.93Z"/><path d="M36.17,74.14a.69.69,0,0,0-.63.4c-.06.21.08.73.37.65l2-.59c.3-.08.35-.21.12-.28A11.66,11.66,0,0,0,36.17,74.14Z"/><path d="M47.47,100.92a1,1,0,0,0-.6,0,.83.83,0,0,0,.34.54l1.16.93c.25.19.48.15.51-.08a2.69,2.69,0,0,0,0-1A9.5,9.5,0,0,0,47.47,100.92Z"/><path d="M65.45,43.72a.51.51,0,0,0-.2,0,.86.86,0,0,0-.23.6l-.09,1.3c0,.33.12.39.32.13l.72-1c.18-.28.24-.57.13-.65A6.51,6.51,0,0,0,65.45,43.72Z"/><path d="M16.61,117.35a.57.57,0,0,0,.2.75c.25.15,1,.18,1.05-.12l.17-2.26a1.4,1.4,0,0,0,0-.55,1.33,1.33,0,0,0-.39.45Z"/><path d="M7.86,122.38a2.14,2.14,0,0,0-.56.47.68.68,0,0,0,.1.52,1.11,1.11,0,0,0,1,0l.75-.68c.23-.23.34-.49.24-.6a1.17,1.17,0,0,0-.94,0Z"/><path d="M4.76,29.76c.31.18.6.15.66-.09s.13-.93,0-1l-1-.32-.74-.25a5.75,5.75,0,0,0-.63-.2s0,.12,0,.24a1.32,1.32,0,0,0,.52.8Z"/><path d="M205.88,89.13a3.36,3.36,0,0,0-.31.56c-.06.18-.08.68.13.73s.79-.07.77-.4l-.05-.69a2.19,2.19,0,0,0-.06-.62A2.85,2.85,0,0,0,205.88,89.13Z"/><path d="M73.18,104.68c.16,0,.27,0,.25-.05a.62.62,0,0,0-.4-.1C72.89,104.56,73,104.67,73.18,104.68Z"/><path d="M30.79,131.07a2.15,2.15,0,0,0,.6-.4l.56-.49a.59.59,0,0,0,.08-.83c-.21-.19-.92-.37-1,0l-.25,1A1,1,0,0,0,30.79,131.07Z"/><path d="M78.85,113.9c0,.29.17.39.46.21,0,0,.24-.15.5-.35s.28-.45,0-.55S78.89,113.6,78.85,113.9Z"/><path d="M40.52,27.37a1.88,1.88,0,0,0,.58.32.42.42,0,0,0,.43-.5l-.25-1.27c-.06-.36-.32-.43-.56-.17a3.8,3.8,0,0,0-.41.53A1.13,1.13,0,0,0,40.52,27.37Z"/><path d="M77.34,116.14a.91.91,0,0,0-.58.28,2.23,2.23,0,0,0-.47,1l.12.88c0,.22.12.41.22.43a.77.77,0,0,0,.57-.27l1-1.69c.1-.19.13-.39,0-.43A4.08,4.08,0,0,0,77.34,116.14Z"/><path d="M69.49,15.88a.55.55,0,0,0,.61-.08l.81-.8c.14-.16.22-.33.18-.39a1.85,1.85,0,0,0-.4-.31,1.08,1.08,0,0,0-.81,0l-.83.76a.34.34,0,0,0,0,.51Z"/><path d="M106.6,58.59c.31,0,.41-.21.24-.46l-.31-.5a1,1,0,0,0-.69-.46c-.21,0-.79.2-.82.44s.3.9.61.92Z"/><path d="M165.31,110c.26.14.48.19.48.1a1.71,1.71,0,0,0-.37-.71l-.69-.68c-.23-.21-.51-.27-.64-.15s-.17.66.09.8Z"/><path d="M41.08,54a.32.32,0,0,0,.32-.22l.09-.31a.3.3,0,0,0-.18-.34l-.94-.34-.25-.07a1.73,1.73,0,0,0-.12.23l-.22.65a.21.21,0,0,0,.18.27Z"/><path d="M15,9.76c-.1.16,0,.45.3.66l.63.49a1.86,1.86,0,0,0,.54.29,1.59,1.59,0,0,0,.17-.54c0-.24,0-.94-.32-1A2.17,2.17,0,0,0,15,9.76Z"/><path d="M113.71,69.59c.27.08.48-.16.47-.53l-.06-1c0-.37-.17-.42-.38-.12l-.54.78C113,69,113.45,69.52,113.71,69.59Z"/><path d="M167.76,134.4c.32.15.62.21.66.13a1,1,0,0,0-.29-.78l-1.35-1.3a.6.6,0,0,0-.81-.06c-.18.19-.3,1,0,1.11Z"/><path d="M155.69,57.09a5.15,5.15,0,0,0-.34-.67,1.2,1.2,0,0,0-.69.26l-1.07.74a1,1,0,0,0-.36.95c.09.31.69,1,1,.92l1.31-.48a.77.77,0,0,0,.39-.91Z"/><path d="M89.84,72.63a.92.92,0,0,0,.21-.77l-.17-1.46c0-.32-.21-.53-.36-.47a1.27,1.27,0,0,0-.48.92l.17,1.42A.49.49,0,0,0,89.84,72.63Z"/><path d="M102.12,95.62a.32.32,0,0,0,.36-.17c.08-.13.12-.58-.07-.63s-.68-.07-.68.09A1.53,1.53,0,0,0,102.12,95.62Z"/><path d="M143.85,1.42s0,0,0,0,0,0,0,0S143.84,1.42,143.85,1.42Z"/><path d="M146.76,91.81c.3.1.54,0,.54-.14a1.6,1.6,0,0,0-.37-.93c-.21-.15-.93-.37-1.07-.19s-.21.83.1.94Z"/><path d="M155.87,87.86c.11.12.47.11.8,0l.73-.26c.33-.13.59-.33.57-.47a.88.88,0,0,0-.76-.43l-1.16.1c-.34,0-.63.18-.63.28A2.7,2.7,0,0,0,155.87,87.86Z"/><path d="M-2.18,125.74c-.12.17,0,.5.27.74l3.73,3.32a.71.71,0,0,0,.91,0c.23-.22.78-.9.78-.91a4.62,4.62,0,0,0-.52-.4l-4.2-3C-1.5,125.33-2.06,125.58-2.18,125.74Z"/><path d="M222.89,34.52a.74.74,0,0,0,.63.48c.27,0,1-.07,1.06-.23a.85.85,0,0,0-.5-.75l-.86-.23C222.9,33.72,222.8,34.26,222.89,34.52Z"/><path d="M115,113.81a.36.36,0,0,0,.36.46l1,0a.56.56,0,0,0,.16-.29,2.44,2.44,0,0,0,0-.8.65.65,0,0,0-.54-.32A2.6,2.6,0,0,0,115,113.81Z"/><path d="M129.21,83.68c-.17-.27-.43-.43-.56-.36a.53.53,0,0,0,0,.72l1.21,1.07c.24.21.44.39.44.38l0,0s-.17-.32-.34-.59Z"/><path d="M100.17,86.66c-.14-.07-.46.07-.72.31s-.65,1.16-.35,1.35l2.52,1.77a.7.7,0,0,0,.84,0c.17-.18.38-.93.13-1.2l-1.47-1.56A6.74,6.74,0,0,0,100.17,86.66Z"/><path d="M145.37,124.09c.09-.16-.06-.4-.34-.53l-1-.53c-.28-.13-.58-.15-.66,0a.67.67,0,0,0,.2.74l.93.6A.84.84,0,0,0,145.37,124.09Z"/><path d="M24.68,32.44v.07a4.55,4.55,0,0,0,.59.39l.88.5c.31.17.63.2.71.08s-.09-.59-.44-.67l-1.09-.29A1.79,1.79,0,0,0,24.68,32.44Z"/><path d="M190.66,71.25a.82.82,0,0,0,.15-.24,1,1,0,0,0-.42-.66l-.89-.65c-.29-.21-.61-.29-.7-.19a.66.66,0,0,0,.19.77l1,.76A.93.93,0,0,0,190.66,71.25Z"/><path d="M158.43,126.64a3,3,0,0,0,0-.6s-.31,0-.64,0l-.65,0a.94.94,0,0,0-.73.64l-.37,1.5a.47.47,0,0,0,.46.6l.92,0a.78.78,0,0,0,.68-.62Z"/><path d="M214.13,31.48c-.11.08-.1.41,0,.72l.49,1.11c.15.3.4.52.54.49s.52-.34.53-.53a2.36,2.36,0,0,0-.36-1.13C215.13,31.9,214.25,31.39,214.13,31.48Z"/><path d="M139.46,3.31c.35,0,.63-.2.64-.38s-.43-.55-.74-.39l-1,.5c-.31.16-.29.28.06.29Z"/><path d="M194.08,26.11a.77.77,0,0,0-.5.84l.21.92a.57.57,0,0,0,.78.37l3.15-1.19a1.82,1.82,0,0,0,.59-.3,2.64,2.64,0,0,0-1.7-1.26,15.31,15.31,0,0,0-1.88.39Z"/><path d="M141.43,90.54c.31,0,.43-.17.26-.43l-.68-.92a.31.31,0,0,0-.58,0l-.28.61a.44.44,0,0,0,.4.59Z"/><path d="M155.19,19.62c-.11.23.07.43.41.47l1.81.21c.34,0,.57-.05.53-.21a1.64,1.64,0,0,0-.75-.72l-.95-.31C155.91,19,155.31,19.4,155.19,19.62Z"/><path d="M148.2,24.5a1.69,1.69,0,0,0,.14-.8c0-.32-.12-1.2-.24-1.23a3,3,0,0,0-.65-.08.54.54,0,0,0-.23.61l.45,1.41A.31.31,0,0,0,148.2,24.5Z"/><path d="M214.56,40.74a1.58,1.58,0,0,0,.48-1L215,38.08c0-.34,0-.62-.09-.62a1.73,1.73,0,0,0-.54.5l-2.12,2.86c-.19.28-.35.52-.35.54a2.21,2.21,0,0,0,.35.31,1.68,1.68,0,0,0,1.3,0Z"/><path d="M220.22,37.47c-.08-.32-.31-.54-.51-.49s-.72.55-.69.87l.13,1.24c0,.32.28.49.52.38s.83-.76.76-1.08Z"/><path d="M201.19,35.93a.49.49,0,0,0,.61-.4l.35-2c0-.29-.08-.35-.28-.12L200.65,35C200.47,35.25,200.9,35.87,201.19,35.93Z"/><path d="M225.57,50.81a.74.74,0,0,0-.25-.9c-.27-.18-1.24-.49-1.45-.34a2.33,2.33,0,0,0-.74,1.19l.06,2.47a1.17,1.17,0,0,0,.19.78.64.64,0,0,0,.71-.3Z"/><path d="M170.36,126.78c.1.15.21.25.26.24a.85.85,0,0,0,.28-.27,1.66,1.66,0,0,0,.2-.74l-.19-.68a.42.42,0,0,0-.41-.28l-.75.15a.23.23,0,0,0-.12.37Z"/><path d="M144.87.55c.08-.23-.1-.41-.4-.38s-1,.2-.95.39.33.67.47.7A1.72,1.72,0,0,0,144.87.55Z"/><path d="M188.11,68.86a1.6,1.6,0,0,0-.62-.17l-.66-.15c-.35-.05-.61,0-.58.06A1,1,0,0,0,187,69,7.75,7.75,0,0,0,188.11,68.86Z"/><path d="M186.22,131.72a1,1,0,0,0-.6-.3l-1-.28c-.3-.08-.56-.07-.59,0s.21.41.51.47l1.23.29C186.07,132,186.25,131.81,186.22,131.72Z"/><path d="M194.4,77.19a.68.68,0,0,0,.85.18c.25-.16.57-.89.27-1l-1.89-.82c-.3-.13-.41,0-.23.27Z"/><path d="M8.86.59A.28.28,0,0,0,9.17.45L9.3.13A.31.31,0,0,0,9.17-.2L8.61-.49,8.38-.58a.45.45,0,0,0-.16.2l-.1.23a.81.81,0,0,0,0,.31.64.64,0,0,0,.26.26Z"/><path d="M210.42,123.85a1.34,1.34,0,0,0,.56,0,3.77,3.77,0,0,0,.52-.56c.15-.22.27-1,0-1.21l-1.3-.84c-.31-.16-.55,0-.55.33l0,1.58C209.58,123.47,210.18,123.82,210.42,123.85Z"/><path d="M225,119a.55.55,0,0,0,.54-.62l-.18-1.49c0-.34-.11-.63-.19-.65a1,1,0,0,0-.6.45l-.56,1a2.1,2.1,0,0,0-.23.81c0,.14.06.51.06.52h.59C224.72,119,225,119,225,119Z"/><path d="M184.4,112.33a1.58,1.58,0,0,0,.32-.39c.14-.22.24-.73,0-.68s-.75.31-.69.48A2.8,2.8,0,0,0,184.4,112.33Z"/><path d="M172.35,101.71a.65.65,0,0,0-.78-.22c-.23.12-.84.61-.82.82s.42.73.74.66l1-.21a.34.34,0,0,0,.18-.59Z"/><path d="M167.14,21.81c0-.29-.18-.32-.32-.06l-.55,1c-.12.27,0,.52.2.54s.86-.18.83-.48Z"/><path d="M137.79,39.84a.68.68,0,0,0,0,.22,1.06,1.06,0,0,0,.67.48l2,.39a2.57,2.57,0,0,0,.62.09,1.73,1.73,0,0,0-.57-.27L138.4,40A2.89,2.89,0,0,0,137.79,39.84Z"/><path d="M178.23,70.24a.42.42,0,0,0,.36.57l1.87.4c.3.06.58,0,.62-.07a.77.77,0,0,0-.34-.65l-1.53-.87C178.93,69.49,178.33,70,178.23,70.24Z"/><path d="M181.79,114.71c-.1.16.05.4.33.52l.81.38a.75.75,0,0,0,.82-.19c.17-.21.35-.86.05-.91l-1.09-.26A1.28,1.28,0,0,0,181.79,114.71Z"/><path d="M208.6,79.08a.37.37,0,0,0,0,.67l1,.68a.88.88,0,0,0,.84.1c.19-.12.52-.69.33-1l-.6-.81a.77.77,0,0,0-.92-.13Z"/><path d="M202.32,124.75a.24.24,0,0,0,.23.2,1,1,0,0,0,.48-.34c.06-.15,0-.46-.15-.44S202.29,124.63,202.32,124.75Z"/><path d="M199.12,119.16a1.33,1.33,0,0,0-.14.56,1.23,1.23,0,0,0,.52.63c.26.13,1.08.35,1.16.24a2.33,2.33,0,0,0,.21-1c0-.3-.27-1.08-.51-1.09A2.53,2.53,0,0,0,199.12,119.16Z"/><path d="M186,33.54c0,.23.07.43.15.45a1.63,1.63,0,0,0,.68-.13c.2-.1.64-.52.52-.74s-.54-.74-.7-.65A2.53,2.53,0,0,0,186,33.54Z"/><path d="M122.11,15.11c.2.14.43,0,.51-.34l.12-.67c.08-.33-.07-.45-.33-.26S121.9,15,122.11,15.11Z"/><path d="M191.76,38.12c-.24.24-.41.54-.37.66a.87.87,0,0,0,.69.4c.31,0,1.06-.44.94-.75S192,37.88,191.76,38.12Z"/><path d="M188.41,116.88a1.18,1.18,0,0,0,0,.5,1.69,1.69,0,0,0,.69.87l.75.33a4.24,4.24,0,0,0,.79.21,1.56,1.56,0,0,0,.65-.61l.35-.75a.47.47,0,0,0-.42-.68l-2-.23A1.08,1.08,0,0,0,188.41,116.88Z"/><path d="M145.47,55.25c-.05.15.21.31.57.37l1.88.34c.37.06.69,0,.72,0s-.18-.39-.54-.48l-1.78-.54A.87.87,0,0,0,145.47,55.25Z"/><path d="M161.31,40.62c-.05.1.14.36.4.56l.5.39c.27.21.52.35.57.31s0-.34-.27-.58l-.61-.64C161.66,40.42,161.35,40.51,161.31,40.62Z"/><path d="M214.59,39.31c0,.13.25.18.55.1l.55-.1c.3-.08.5-.22.45-.31a.82.82,0,0,0-.61-.27C215.29,38.76,214.59,39.17,214.59,39.31Z"/><path d="M169.25,63.43c0,.22.25.45.56.51l1,.14a4.06,4.06,0,0,0,.59,0s-.11-.26-.26-.55l-.31-.69a.64.64,0,0,0-.66-.41C170,62.52,169.25,63.21,169.25,63.43Z"/><path d="M175.36,46.53c.15,0,.24-.26.21-.52s-.21-.57-.32-.34S175.21,46.56,175.36,46.53Z"/><path d="M195.21,110.59a.32.32,0,0,0,0,.4,4,4,0,0,0,.42.3.58.58,0,0,0,.11-.36,3.76,3.76,0,0,0,0-.71A1.78,1.78,0,0,0,195.21,110.59Z"/><path d="M180,72.89c.09.31.32.52.51.46a4.64,4.64,0,0,0,.75-.34,1.58,1.58,0,0,0-.07-.64l-.83-3c-.09-.31-.33-.45-.52-.3s-.64.82-.56,1.13Z"/><path d="M118.36,53.59a.66.66,0,0,0,.14.82l.74.69c.26.21.52.14.59-.15s.11-1.23-.08-1.4S118.51,53.37,118.36,53.59Z"/><path d="M158.77,45.78c0,.07.24.21.54.3l.76.24c.31.07.58,0,.61,0a1.66,1.66,0,0,0,0-.48,1.15,1.15,0,0,0-.63-.19l-.71-.05C159.05,45.53,158.77,45.7,158.77,45.78Z"/><path d="M127.14,130.34c.25.16.51,0,.57-.3l.19-1.26c.06-.32-.09-.41-.34-.2l-.8.72C126.54,129.54,126.89,130.18,127.14,130.34Z"/><path d="M41.82,70.81a.5.5,0,0,0,.11.81l1.1.68a.44.44,0,0,0,.69-.33l.36-2c.07-.35.07-.68,0-.72a1.07,1.07,0,0,0-.78.27Z"/><path d="M110,68.5a3.88,3.88,0,0,0,.51.25.7.7,0,0,0,.57-.16,3.13,3.13,0,0,0,.31-.82.65.65,0,0,0-.37-.46l-1.53-.47c-.2-.06-.4,0-.45.07a2,2,0,0,0-.16.55,1.1,1.1,0,0,0,.34.56Z"/><path d="M71.43,100.51c.18-.27.12-.5-.15-.52a2.88,2.88,0,0,0-1.41.26l-1.13,1c-.24.22-.17.41.15.43l1.08.1a1.14,1.14,0,0,0,.91-.46Z"/><path d="M94.23,122c0,.12,0,.26.07.29a.52.52,0,0,0,.5-.18l.06-.16,0-.12c0-.14,0-.26-.1-.26A1.36,1.36,0,0,0,94.23,122Z"/><path d="M126.31,48.22a.82.82,0,0,0,.16.6c.13.14.58.4.7.3s.25-.64,0-.83S126.34,48,126.31,48.22Z"/><path d="M7.84,130.74a.81.81,0,0,0-.7.4L5.7,133.32c-.16.29-.3.52-.3.52L6,134l2.47.51a1.08,1.08,0,0,0,.95-.39l1-1.46a.61.61,0,0,0-.19-.83l-1.13-.64A8.59,8.59,0,0,0,7.84,130.74Z"/><path d="M109.13,108.31c.07-.14-.15-.38-.49-.52l-1.92-.82a2.54,2.54,0,0,0-.62-.23,1.9,1.9,0,0,0,.51.48l1.65,1.19A.74.74,0,0,0,109.13,108.31Z"/><path d="M76,55.21a1.38,1.38,0,0,0-.07-.5c-.06-.21-.38-.77-.6-.78l-.77,0a.57.57,0,0,0-.53.38l-.2.66a.33.33,0,0,0,.32.41l1.36.08A.66.66,0,0,0,76,55.21Z"/><path d="M70.27,88.49c.24.24.49.34.54.23a1.48,1.48,0,0,0,0-.89c-.12-.27-.67-.92-.87-.83s-.51.62-.26.86Z"/><path d="M119.36,21.9A5.43,5.43,0,0,0,120,22l1,.14c.33,0,.64,0,.68-.21a1,1,0,0,0-.42-.85l-1-.45a.57.57,0,0,0-.74.23A3.09,3.09,0,0,0,119.36,21.9Z"/><path d="M83.29,130.36a.4.4,0,0,0-.3-.61l-.63-.14a.77.77,0,0,0-.75.27,7.43,7.43,0,0,0-.36.82c0,.05.19.28.43.4s1.07.16,1.24-.1Z"/><path d="M157.59,116s.24-.14.41-.35a2.79,2.79,0,0,0,.51-.95,3.89,3.89,0,0,0-.44-.36.4.4,0,0,0-.56.35l0,.59A1.21,1.21,0,0,0,157.59,116Z"/><path d="M-.72,72.56c0,.09.11.34.32.56s.9.74,1,.63.2-.61-.08-.77l-.65-.41C-.38,72.4-.69,72.48-.72,72.56Z"/><path d="M174.76,23.29a.22.22,0,0,0,0,.23,2.19,2.19,0,0,0,.75.23l.55,0c.32,0,.34,0,0-.17l-.73-.35C175.12,23.13,174.78,23.21,174.76,23.29Z"/><path d="M45.29,88.66c-.14.33-.07.45.16.27s.77-.81.67-.93S45.43,88.34,45.29,88.66Z"/><path d="M30.35,8.47a.55.55,0,0,0,.07.76c.23.17,1,.63,1,.67s.34.07.39,0a2.44,2.44,0,0,0,.26-.76l.11-.56a.84.84,0,0,0-.2-.77c-.17-.12-.84-.25-1.05,0Z"/><path d="M136.33,49.86a.88.88,0,0,0,1-.2l.44-.5a.74.74,0,0,0,0-.92c-.22-.25-1.17-.65-1.43-.44l-.92.83a.44.44,0,0,0,.11.73Z"/><path d="M27.85,63.79c.21,0,.3-.35.2-.66l-.34-.94c-.09-.31-.22-.31-.29,0l-.21,1.1C27.17,63.63,27.63,63.84,27.85,63.79Z"/><path d="M-1,102.27c0,.08.24.23.54.34l1.45.57c.3.11.62.1.72,0a1.78,1.78,0,0,0,.27-.55l0,0a13.79,13.79,0,0,0-1.58-1.37.63.63,0,0,0-.79,0A5.23,5.23,0,0,0-1,102.27Z"/><path d="M82.32,54.21c.07-.18.14-.33.14-.34a3.53,3.53,0,0,0-.39-.33c-.21-.17-.88-.49-.94-.37A2.21,2.21,0,0,0,81,54c0,.21.21.78.34.84s.58.09.67-.07Z"/><path d="M47,106.4c-.21-.25-.48-.41-.59-.36a.85.85,0,0,0-.24.77l.37,1.12a.61.61,0,0,0,.73.39c.28-.08.85-.6.63-.84Z"/><path d="M51.06,103.28c.11,0,.38-.21.59-.5a7,7,0,0,0,.84-1.69c0-.32,0-1.11-.21-1.13a1.48,1.48,0,0,0-1,.49l-1.07,1.76c-.18.32-.22.66-.08.74A4.52,4.52,0,0,0,51.06,103.28Z"/><path d="M35.55,21.87c0,.3.1.6.31.65s.86-.14.91-.44l.16-.83c0-.31-.11-.54-.33-.52A2.49,2.49,0,0,0,35.55,21.87Z"/><path d="M39.43,131.25c-.11,0-.22.13-.24.3a1.84,1.84,0,0,0,.41,1l3.49,3a.58.58,0,0,0,.79,0c.18-.21.26-1.1,0-1.3l-3.54-2.63A2.83,2.83,0,0,0,39.43,131.25Z"/><path d="M49.36,86.57a.46.46,0,0,0,.09.73l.7.55c.27.19.57.17.66,0s.23-.93.06-1.12A1.93,1.93,0,0,0,49.36,86.57Z"/><path d="M83.82,98.94c-.16,0-.41.17-.57.42l-.9,1.57a.61.61,0,0,0,.19.77c.24.16,1,.22,1.11-.08l.57-2.06A.59.59,0,0,0,83.82,98.94Z"/><path d="M7.31,97a.8.8,0,0,0,.22-.45l.81-3.52c.05-.22,0-.38-.11-.36l-.1,0a5,5,0,0,0-.68.23.88.88,0,0,0-.48.55l-.68,2.94a2.76,2.76,0,0,0-.06.53c0,.07.16.24.29.23A6.66,6.66,0,0,0,7.31,97Z"/><path d="M1.48,121.8a1,1,0,0,0-.09-.78L1,120.35a.36.36,0,0,0-.62,0l-.46.54a.53.53,0,0,0,.14.75l.64.45C1,122.24,1.39,122,1.48,121.8Z"/><path d="M24.52,69.65c0-.34-.12-.63-.31-.66s-.75,0-.79,0a1.29,1.29,0,0,0-.07.65c0,.2.29.74.45.81S24.5,70,24.52,69.65Z"/><path d="M57.62,61.49a.11.11,0,0,0,0,0l0,0S57.62,61.47,57.62,61.49Z"/><path d="M105.2,3.16c.18.24.45.19.61-.1l.65-1.29c.16-.29,0-.42-.27-.28l-1,.49C104.94,2.15,105,2.93,105.2,3.16Z"/><path d="M155.07,30.24a1.88,1.88,0,0,0-.12.68c0,.28.24,1.08.59,1.13l1.47.26a.5.5,0,0,0,.59-.56l0-.87a.82.82,0,0,0-.67-.73l-1-.14A1.21,1.21,0,0,0,155.07,30.24Z"/><path d="M8.09,54.15a.53.53,0,0,0-.58-.56l-3.7.14a3,3,0,0,0-.63.09,5,5,0,0,0,.33.6l.76,1.26a.9.9,0,0,0,1,.35l2-.55A2.32,2.32,0,0,0,8.09,54.15Z"/><path d="M42.25,100.83c-.07.35-.06.66,0,.69a1.11,1.11,0,0,0,.73-.41l1.21-1.67A.47.47,0,0,0,44,98.7c-.33-.11-1.35,0-1.41.3Z"/><path d="M96.64,28.56a1.33,1.33,0,0,0,1-.39,3.79,3.79,0,0,0,.71-1.6l-.25-2.79a1.3,1.3,0,0,0-.6-1,3,3,0,0,0-1.72-.21l-1.19.85a1.38,1.38,0,0,0-.49,1.05l.11,2.85a1,1,0,0,0,.3.78,5.78,5.78,0,0,0,1.22.31Z"/><path d="M91.37.85a.69.69,0,0,0,.86-.32l1.18-2.25c.16-.3.26-.57.21-.6A1.16,1.16,0,0,0,93-2L90.69-.2a.42.42,0,0,0,.07.72Z"/><path d="M81.22,109.41c0,.21,0,.41.15.45a.63.63,0,0,0,.54-.14c.11-.15.18-.64,0-.73S81.24,109.2,81.22,109.41Z"/><path d="M101.56,56.49a1.59,1.59,0,0,0-.62.14,1.87,1.87,0,0,0,.19.7l1,1.89c.14.3.34.28.44,0l.59-2.15a.46.46,0,0,0-.47-.58Z"/><path d="M178,39.21a2.18,2.18,0,0,0,.33-.89,1.51,1.51,0,0,0-.49-1c-.29-.16-1.3-.26-1.5,0l-.92,1.45c-.17.31-.23.64-.14.72a1.88,1.88,0,0,0,2.72-.31Z"/><path d="M20.41,87c-.14-.28-.27-.5-.3-.48a2.22,2.22,0,0,0-.14.62l-.13,3a.44.44,0,0,0,.56.43l1-.29a.52.52,0,0,0,.27-.72Z"/><path d="M97.29,1.93a.6.6,0,0,0-.73-.34l-.94.27a.46.46,0,0,0-.3.65l.41,1a.48.48,0,0,0,.69.25l.85-.43a.56.56,0,0,0,.28-.73Z"/><path d="M51.19,25.89c.21,0,.33-.33.28-.66s-.3-.78-.45-.49-.49,1.14-.49,1.14A6.06,6.06,0,0,0,51.19,25.89Z"/></g></mask></defs><g class="cls-1"><g class="cls-2"><polygon class="cls-3" points="108.71 1.54 109.8 0.67 111.16 0.13 112.63 0 114.06 0.37 115.48 0.84 116.39 2.11 117.86 2.43 119.03 3.25 120.45 3.66 121.39 4.87 122.9 5.13 124.12 5.87 124.89 7.37 126.16 8.06 127.66 8.34 128.85 9.13 129.89 10.18 131.5 10.29 132.46 11.46 133.96 11.74 134.83 13.09 136.08 13.79 137.37 14.43 138.83 14.77 139.91 15.77 141.26 16.31 142.33 17.32 143.79 17.66 144.76 18.84 145.79 19.93 147.15 20.45 148.51 20.96 149.88 21.47 151.17 22.11 152.23 23.12 153.35 24.06 154.51 24.92 156.08 25.09 157.14 26.12 158.2 27.15 159.68 27.49 161.01 28.08 161.94 29.32 162.83 30.16 163.13 31.21 162.88 32.3 161.97 33.14 160.63 33.67 159.71 34.92 158.4 35.51 157.36 36.55 156.07 37.17 154.88 37.97 153.46 38.38 152.24 39.14 151.06 39.95 150 40.98 148.63 41.47 147.44 42.28 146.34 43.22 144.84 43.51 143.49 44.05 142.49 45.16 141.13 45.68 140.17 46.86 138.78 47.34 137.25 47.58 136.27 48.74 134.86 49.18 133.67 49.98 132.55 50.91 131.38 51.74 130.31 52.75 128.81 53.03 127.58 53.78 126.48 54.73 125.44 55.79 123.78 55.81 122.94 57.22 121.72 57.97 120.48 58.7 119 59.04 118.03 60.21 116.37 60.26 115.25 61.19 114.13 62.28 112.63 62.4 111.2 61.78 109.81 61.69 108.65 60.97 107.41 60.27 105.9 60 104.92 58.86 103.66 58.18 102.53 57.3 101.09 56.91 100.12 55.75 98.59 55.52 97.63 54.34 96.43 53.54 94.77 53.54 93.82 52.33 92.26 52.16 91.39 50.81 90.17 50.06 88.82 49.53 87.61 48.75 86.46 47.89 85.22 47.16 84.07 46.29 82.75 45.7 81.36 45.23 80.33 44.16 79.05 43.5 77.83 42.74 76.31 42.49 75.32 41.35 73.86 40.99 72.64 40.24 71.64 39.12 70.57 38.1 69.3 37.43 68.03 36.75 66.52 36.47 65.48 35.41 64.3 34.58 63.16 33.67 61.88 33 60.63 32.5 60.44 31.21 60.95 30.16 61.68 29.09 63.07 28.62 64.27 27.84 65.33 26.83 66.74 26.42 67.74 25.31 69.09 24.77 70.47 24.3 71.64 23.47 72.72 22.48 73.82 21.52 75.27 21.16 76.67 20.71 77.82 19.84 78.98 18.99 80.34 18.47 81.36 17.38 82.76 16.93 83.91 16.06 85.26 15.53 86.37 14.59 87.47 13.62 88.94 13.29 89.86 12.03 91.23 11.52 92.64 11.08 93.86 10.33 94.75 9.02 95.99 8.3 97.5 8.04 98.51 6.93 100.02 6.65 101.08 5.63 102.19 4.68 103.7 4.4 104.68 3.24 105.97 2.59 107.04 1.39 108.71 1.54"/><polygon class="cls-3" points="108.58 73.77 109.65 72.62 111.13 72.33 112.64 72.29 114.08 72.75 115.43 73.38 116.49 74.39 117.71 75.14 119.21 75.4 120.13 76.65 121.54 77.08 122.84 77.68 123.92 78.67 125.08 79.52 126.34 80.19 127.44 81.15 129.03 81.29 129.97 82.5 131.29 83.08 132.36 84.08 133.48 85.01 134.95 85.34 136.13 86.16 137.42 86.79 138.39 87.96 139.72 88.54 140.93 89.32 142.57 89.37 143.65 90.36 144.89 91.07 146.07 91.9 147.33 92.59 148.43 93.54 149.76 94.11 150.73 95.29 152.17 95.67 153.51 96.23 154.41 97.53 155.88 97.88 156.93 98.93 158.26 99.5 159.35 100.49 160.6 101.21 161.82 101.99 162.82 102.61 163.02 103.66 163.17 104.97 161.96 105.57 160.85 106.5 159.34 106.76 158.12 107.5 157.19 108.72 156.06 109.61 154.86 110.38 153.36 110.67 152.43 111.9 150.82 112.02 149.57 112.71 148.41 113.56 147.13 114.2 146.13 115.32 144.88 116.02 143.67 116.79 142.44 117.54 141 117.93 140 119.04 138.83 119.87 137.73 120.84 136.25 121.15 135.25 122.28 133.88 122.79 132.5 123.28 131.52 124.43 129.88 124.5 129.08 125.94 127.57 126.22 126.45 127.13 125.44 128.23 123.84 128.37 122.63 129.15 121.49 130.05 120.51 131.21 119.25 131.9 117.98 132.58 116.34 132.66 115.35 133.81 114.07 134.55 112.62 134.8 111.14 134.91 109.75 134.38 108.33 133.97 107.33 132.85 106.02 132.25 104.83 131.47 103.35 131.16 102.35 130.06 101.29 129.04 99.78 128.78 98.6 127.95 97.46 127.07 96.2 126.38 95.22 125.24 93.78 124.85 92.57 124.09 91.05 123.84 90.3 122.3 88.91 121.82 87.35 121.64 86.4 120.43 84.94 120.08 83.66 119.42 82.5 118.58 81.49 117.46 80.41 116.47 79.11 115.86 77.62 115.54 76.42 114.76 75.19 114.02 73.89 113.4 72.91 112.24 71.78 111.35 70.21 111.16 69.06 110.28 67.71 109.74 66.88 108.32 65.31 108.14 64.35 106.94 63.04 106.32 61.97 105.31 60.63 104.95 60.02 103.66 61.08 102.71 61.66 101.49 63.01 100.97 64.36 100.44 65.56 99.67 66.8 98.97 67.89 98 68.89 96.9 70.44 96.7 71.67 95.97 72.64 94.79 74.19 94.58 75.42 93.85 76.28 92.5 77.46 91.7 79.12 91.68 79.93 90.24 81.28 89.7 82.67 89.23 84 88.67 85.11 87.72 86.03 86.46 87.45 86.04 88.55 85.09 90.19 85.03 91.24 83.99 92.62 83.51 93.6 82.34 94.83 81.61 96.23 81.16 97.19 79.97 98.6 79.54 100.04 79.14 101.21 78.29 102.35 77.4 103.37 76.29 104.89 76.04 105.85 74.84 107.22 74.31 108.58 73.77"/><polygon class="cls-3" points="168.64 36.99 170.26 37.15 171.55 36.47 172.97 36.68 174.51 36.38 175.5 37.67 177.01 37.94 178.18 38.77 179.35 39.58 180.85 39.87 181.78 41.08 183.21 41.48 184.45 42.2 185.75 42.83 186.63 44.14 188.16 44.37 189.35 45.18 190.23 46.48 191.58 47.02 192.7 47.93 193.94 48.66 195.4 49.01 196.39 50.16 197.98 50.29 199 51.37 200.1 52.33 201.4 52.96 202.88 53.27 204.1 54.02 204.97 55.37 206.49 55.62 207.61 56.55 209.08 56.88 210.25 57.73 211.17 58.98 212.47 59.59 214 59.84 215.04 60.9 216.51 61.26 217.27 62.78 218.47 63.57 219.9 63.99 221.12 64.77 222.61 65.09 223.09 66.47 223.97 67.44 223.78 68.91 222.26 69.19 221.35 70.45 219.82 70.68 218.94 71.99 217.58 72.5 216.13 72.85 214.84 73.49 213.89 74.68 212.72 75.51 211.65 76.53 209.99 76.54 208.87 77.46 207.81 78.48 206.42 78.94 205.52 80.22 203.84 80.2 203.03 81.65 201.55 81.96 200.18 82.47 199.11 83.47 198.08 84.54 196.72 85.06 195.22 85.36 193.95 86.03 193.01 87.25 191.81 88.04 190.46 88.58 189.51 89.78 188.04 90.13 187.01 91.19 185.36 91.23 184.19 92.08 183.05 92.98 181.78 93.65 180.7 94.65 179.3 95.11 178.2 96.07 176.95 96.79 175.82 97.73 174.53 98.55 172.99 98.33 171.57 98.16 170.11 98.23 169.07 97.15 167.45 97.07 166.6 95.71 165.34 95.05 163.72 94.96 162.63 94.01 161.48 93.14 160.38 92.19 159.29 91.22 157.87 90.8 156.34 90.57 155.14 89.79 154.38 88.28 152.78 88.17 151.43 87.63 150.27 86.78 149.23 85.72 147.84 85.25 146.87 84.08 145.63 83.35 144.32 82.75 142.84 82.42 141.68 81.58 140.76 80.31 139.28 80 137.98 79.37 136.76 78.6 135.49 77.94 134.52 76.76 133.15 76.26 131.8 75.73 130.64 74.87 129.49 73.99 128.49 72.86 127.23 72.15 126.02 71.38 124.44 71.21 123.54 69.91 121.92 69.81 121.06 68.69 121 67.43 120.73 65.93 121.85 64.95 123.56 65.01 124.54 63.88 125.81 63.21 127.17 62.7 128.03 61.37 129.25 60.62 130.74 60.32 131.91 59.5 133.28 58.98 134.34 57.97 135.65 57.37 136.95 56.75 138.22 56.09 139.05 54.69 140.28 53.95 141.71 53.54 142.97 52.85 143.96 51.73 145.35 51.25 146.57 50.49 147.69 49.57 148.93 48.85 150.53 48.73 151.42 47.42 152.93 47.14 153.97 46.08 155.5 45.87 156.34 44.46 157.92 44.3 158.99 43.31 160.1 42.36 161.2 41.41 162.56 40.88 163.84 40.22 164.9 39.19 166.51 39.07 167.68 38.17 168.64 36.99"/><polygon class="cls-3" points="47.95 37.15 49.29 36.49 50.76 36.26 52.18 36.87 53.53 37.08 55.15 36.97 56.11 38.15 57.49 38.62 58.59 39.57 59.81 40.3 60.81 41.41 62.28 41.74 63.26 42.88 64.76 43.17 65.74 44.33 67.37 44.4 68.3 45.63 69.73 46.02 70.94 46.8 72.3 47.31 73.22 48.56 74.42 49.36 76.02 49.48 76.89 50.81 78.05 51.66 79.57 51.92 80.8 52.66 81.68 53.97 82.98 54.6 84.23 55.31 85.61 55.8 86.77 56.65 87.97 57.45 89.47 57.73 90.48 58.83 91.53 59.87 93.17 59.94 94.18 61.05 95.38 61.83 96.57 62.65 97.82 63.37 98.95 64.28 100.24 64.94 101.75 65.24 102.3 66.48 102.93 67.44 102.69 68.67 101.68 69.53 100.59 70.48 99.03 70.67 97.98 71.68 96.8 72.49 95.46 73.04 94.14 73.61 92.9 74.32 91.71 75.13 90.42 75.77 89.36 76.78 88.07 77.42 87.02 78.44 85.64 78.93 84.43 79.69 83.09 80.24 81.99 81.21 81.01 82.35 79.8 83.13 78.12 83.11 77.15 84.29 75.84 84.9 74.57 85.56 73.56 86.66 72.34 87.42 70.76 87.59 69.9 88.94 68.44 89.29 67.32 90.22 66.07 90.92 64.78 91.56 63.61 92.41 62.33 93.06 60.91 93.5 59.92 94.65 58.57 95.18 57.24 95.76 56.38 97.14 55.01 97.66 53.72 98.43 52.23 98.49 50.77 98.45 49.34 98.23 48.05 97.56 46.63 97.15 45.85 95.67 44.17 95.68 43.31 94.34 41.76 94.17 40.9 92.81 39.27 92.75 38.32 91.55 36.94 91.06 35.67 90.39 34.81 89.03 33.6 88.27 32 88.16 31 87.05 29.58 86.62 28.41 85.78 27.11 85.16 25.96 84.3 24.83 83.4 23.63 82.6 22.24 82.13 21.09 81.25 19.95 80.37 18.55 79.91 17.22 79.35 16.07 78.46 14.78 77.83 13.73 76.8 12.51 76.03 11.45 75.02 10.09 74.48 8.79 73.86 7.29 73.56 6.17 72.64 4.96 71.86 3.91 70.81 2.54 70.29 1.16 69.78 0.29 68.68 0 67.43 0.24 66.14 1.39 65.48 2.61 64.73 3.84 64.01 5.08 63.3 6.3 62.55 7.41 61.63 8.93 61.38 9.8 60.05 10.92 59.14 12.47 58.94 13.39 57.67 14.67 57.03 16.16 56.74 17.21 55.7 18.73 55.45 19.48 53.91 20.73 53.2 22.33 53.08 23.59 52.4 24.82 51.66 26.04 50.91 27.11 49.9 28.24 49 29.69 48.62 30.7 47.51 32.16 47.16 33.38 46.4 34.51 45.5 35.84 44.93 37.18 44.37 37.95 42.87 39.51 42.66 40.52 41.56 42.07 41.35 43.16 40.38 44.6 39.98 45.67 38.95 46.56 37.71 47.95 37.15"/></g></g></svg>