<svg id="mockup" xmlns="http://www.w3.org/2000/svg" xmlns:xlink="http://www.w3.org/1999/xlink" viewBox="0 0 256.00553 133.33331"><defs><style>.cls-1{fill:none;}.cls-2{fill:#b59664;}.cls-3{mask:url(#mask);}.cls-4{clip-path:url(#clip-path);}.cls-5{fill:#698d76;}.cls-6{filter:url(#luminosity-noclip);}</style><filter id="luminosity-noclip" x="-57.95068" y="-94.08659" width="364.83047" height="345.40574" filterUnits="userSpaceOnUse" color-interpolation-filters="sRGB"><feFlood flood-color="#fff" result="bg"/><feBlend in="SourceGraphic" in2="bg"/></filter><mask id="mask" x="-57.95068" y="-94.08659" width="364.83047" height="345.40574" maskUnits="userSpaceOnUse"><g class="cls-6"><path d="M141.72926,40.65436a2.777,2.777,0,0,0-.35569.55922l-.37952.66357c-.137.33119-.192.64422-.12236.69557a4.34847,4.34847,0,0,0,1.01525.31828l.76666.15278c.4117.08662.8397.03931.951-.10512a.99163.99163,0,0,0-.15966-1.023l-1.05025-.81721C142.06719,40.87543,141.74849,40.665,141.72926,40.65436Z"/><path d="M233.56482,93.38915c-.27617-.04035-.33887.041-.13929.18073s.8327.42477.88589.32593S233.841,93.4294,233.56482,93.38915Z"/><path d="M96.6168,1.34856a.70644.70644,0,0,0-.48662-.62288c-.25067-.05919-.87575.08284-.77606.37152L96.06,3.11329c.09708.2892.2512.33953.34253.11183A10.45353,10.45353,0,0,0,96.6168,1.34856Z"/><path d="M64.46606,12.51871c.06928-.29617.07722-.56241.01776-.59166a1.07023,1.07023,0,0,0-.65192.33531l-1.11869,1.14125c-.21965.24834-.17628.476.09644.50589a3.98875,3.98875,0,0,0,1.15892-.0197A8.61054,8.61054,0,0,0,64.46606,12.51871Z"/><path d="M133.12277,30.28765a.46809.46809,0,0,0,.05915-.20318,1.21968,1.21968,0,0,0-.72016-.22873l-1.56958-.08112c-.392-.02968-.46029.11079-.15172.312l1.16467.71544c.32988.17695.67815.23492.774.12886S133.088,30.35,133.12277,30.28765Z"/><path d="M250.75251,31.26821a1.60385,1.60385,0,0,0-.14848.71209.92431.92431,0,0,0,.763.37342l1.91147-.24035c.34367-.07922.49665-.36008.34012-.624l-1.3911-2.50228c-.149-.26692-.38161-.26288-.51692.00886Z"/><path d="M235.66835,77.67672c-.15057-.29764-.34629-.32121-.43479-.05238s-.04974,1.05788.16572,1.1.713-.18787.56572-.4867Z"/><path d="M232.83348,81.956a.228.228,0,0,0,.20188.21067c.11536.019.41326-.1311.37575-.30985s-.16792-.63183-.23239-.60835-.2535.12826-.26917.17953S232.83787,81.85926,232.83348,81.956Z"/><path d="M196.57035,90.72025a.45769.45769,0,0,0,.76039-.112c.15642-.30468.37356-1.1926.09446-1.296s-1.09477-.27139-1.21922-.10941A2.32935,2.32935,0,0,0,196.57035,90.72025Z"/><path d="M9.049,36.89324a4.60292,4.60292,0,0,0-.49268.41445c-.02215.03622.242.2185.63594.32448l2.04313.53411c.39206.1107.51787-.02719.27973-.30633l-.994-1.074C10.245,36.53161,9.29791,36.70167,9.049,36.89324Z"/><path d="M196.00222,69.8153a.73407.73407,0,0,0-.68254.7065c.0301.32843.33166,1.19991.4837,1.14641a8.91686,8.91686,0,0,0,1.16675-.59691l.83354-.54417c.32706-.20611.574-.44792.54858-.5372a1.10924,1.10924,0,0,0-.84409-.28577Z"/><path d="M229.16539,13.24327a.54069.54069,0,0,0-.63521.05092l-.40731.43011a.37713.37713,0,0,0,.10126.541l.77219.5126a.538.538,0,0,0,.63134-.07647l.33229-.37764a.41583.41583,0,0,0-.09175-.563Z"/><path d="M7.75174,41.276c-.29958-.08637-.55966-.05962-.57815.05944a.8579.8579,0,0,0,.28662.64524c.19718.10839.84921.273.94847.1416S8.05132,41.3624,7.75174,41.276Z"/><path d="M18.77262,3.06159a5.53587,5.53587,0,0,0-.87637.05979c-.04274.02365-.12529.12782-.104.17987a1.85067,1.85067,0,0,0,.9025.18907l1.23708.0111c.43939-.00619.761-.0751.71473-.1532a1.86523,1.86523,0,0,0-1.00825-.28413Z"/><path d="M59.95,37.92326c-.01463.16052.01306.26951.06154.24224a.51951.51951,0,0,0,.124-.39467C60.1009,37.63346,59.96454,37.76275,59.95,37.92326Z"/><path d="M48.89413,43.529c-.35412-.0388-.47157.16473-.26112.4523,0,0,.17909.2338.42078.49058s.538.2781.6583.04722S49.24825,43.56791,48.89413,43.529Z"/><path d="M152.74837,5.65333a1.80664,1.80664,0,0,0-.38077.56542c-.04734.147.182.49815.60657.4308l1.52151-.24551c.42539-.0634.51588-.31492.20115-.55888a5.80608,5.80608,0,0,0-.63772-.40387A1.5912,1.5912,0,0,0,152.74837,5.65333Z"/><path d="M46.19886,42.03664a.853.853,0,0,0-.33594-.57884,2.90323,2.90323,0,0,0-1.17041-.46l-1.06248.1188c-.26008.02193-.49372.11759-.51912.21256a.7149.7149,0,0,0,.326.56542l2.02725.98314c.23176.0997.466.12.52058.045A3.862,3.862,0,0,0,46.19886,42.03664Z"/><path d="M166.55009,34.28128a.46332.46332,0,0,0,.08976.60061l.96488.79535c.18715.13979.39415.22263.46008.18409a1.86162,1.86162,0,0,0,.38056-.39768c.08286-.13428.16238-.64447-.00261-.802l-.90783-.82176a.46381.46381,0,0,0-.61337.02692Z"/><path d="M196.43148,110.68566a.421.421,0,0,0,.0791.626c.21212.16946,1.14523.34925,1.41179.12378l.80459-.71767c.24357-.24258.13135-.46383-.24942-.4917l-.73155-.09161A2.56353,2.56353,0,0,0,196.43148,110.68566Z"/><path d="M115.2841,70.9513c.0024.30047.249.40542.54816.233l.6025-.30245a1.04751,1.04751,0,0,0,.54754-.68611c.0022-.205-.24378-.784-.52193-.80868s-1.08453.29995-1.1142.59948Z"/><path d="M53.56127,128.95748c-.17325.261-.23.47691-.126.47966a2.10161,2.10161,0,0,0,.8514-.36559l.82549-.6874c.24263-.22039.32267-.50391.178-.63s-.7955-.169-.9654.09351Z"/><path d="M120.83409,6.2031a.3312.3312,0,0,0,.26468.31991l.37889.08421a.39185.39185,0,0,0,.40647-.17875l.40146-.92559c.04535-.13144.08286-.24327.08317-.24834a1.69883,1.69883,0,0,0-.27648-.11553l-.77094-.22486a.251.251,0,0,0-.32351.18443Z"/><path d="M253.0598,114.30906c-.0489-.0172-.2512.18409-.44963.44739l-.42309.534c-.181.27174-.21431.56095-.074.64283s.63186.02409.71755-.27767l.23584-.7341A.8042.8042,0,0,0,253.0598,114.30906Z"/><path d="M217.79843,42.43535c-.36938-.041-.63134.13041-.582.38082s.48317.87552.8375.7803l1.33364-.3674c.357-.08835.645-.20155.64012-.25161a1.27247,1.27247,0,0,0-.68516-.29505Z"/><path d="M15.27517,67.15939c-.34482.07527-.64879.20576-.67544.29s.16991.39845.48056.5021,1.24147.10925,1.26864-.13686S15.6201,67.084,15.27517,67.15939Z"/><path d="M102.07223,77.97814c-.08851.25832.19885.46537.63855.46013l1.23907-.05592c.4397-.00284.50511-.17539.14513-.38348l-.94-.52456C102.773,77.29513,102.16073,77.71973,102.07223,77.97814Z"/><path d="M24.28563,131.3863c-.18548.31217-.25538.60568-.15549.65222a1.41958,1.41958,0,0,0,.92967-.28688l1.55839-1.33677c.275-.26349.31149-.62392.081-.801s-1.15516-.2929-1.33635.02091Z"/><path d="M223.37329,100.89633a4.40334,4.40334,0,0,0-.15966-.60146c-.09028-.28895-.52873-1.08628-.81326-1.10925s-1.07763.28086-1.07617.62331l-.00846,1.58624c.02058.34193.32675.47415.68024.29376l.71212-.3304A2.00087,2.00087,0,0,0,223.37329,100.89633Z"/><path d="M117.07959,119.45168a4.923,4.923,0,0,0,.80343-.33428,1.0346,1.0346,0,0,0-.31431-.68086l-.88034-1.05677a1.29355,1.29355,0,0,0-1.14639-.35639c-.36906.09144-1.24408.6874-1.10521,1.02778l.58,1.29385a1.00459,1.00459,0,0,0,1.08954.39071Z"/><path d="M10.72705,94.35534a3.86206,3.86206,0,0,0,.50449-.033c.021-.0111.10261-.05334.13469-.06925a.61426.61426,0,0,0-.08966-.4511c-.11327-.21634-.62141-.81015-.88222-.80223s-.92685.23767-.85537.46615A2.50744,2.50744,0,0,0,10.72705,94.35534Z"/><path d="M98.42462,54.38175a1.22993,1.22993,0,0,0,.92078.20723l1.75484-.16172c.39059-.04551.64493-.2043.5651-.353a1.65817,1.65817,0,0,0-1.10584-.4837l-1.70322.17256C98.46642,53.81229,98.3102,54.23148,98.42462,54.38175Z"/><path d="M70.825,66.52085c-.05.11286.04263.27088.20606.35123s.69769.11922.75746-.06323.08244-.67811-.10543-.67243A1.93207,1.93207,0,0,0,70.825,66.52085Z"/><path d="M183.90121,107.75568c-.00429.012.01191.02133.03615.02073s.06239-.0129.04588-.02288S183.90549,107.74364,183.90121,107.75568Z"/><path d="M75.40836,110.62708c-.1256.29987-.04953.54254.169.53935a2.25058,2.25058,0,0,0,1.11284-.36714c.17324-.20628.442-.91406.22654-1.0572s-1.0001-.20456-1.12737.0948Z"/><path d="M80.14039,119.63172c-.1372.11278-.12278.46994.03229.79372l.31149.72241c.14838.32585.39853.57686.5559.55794a.8698.8698,0,0,0,.5257-.74891l-.11839-1.14013c-.0604-.34434-.21609-.62632-.34608-.62658A3.75125,3.75125,0,0,0,80.14039,119.63172Z"/><path d="M225.53126,122.96936a.84848.84848,0,0,0-.795.64774l-.36562,2.51845c-.05434.32585.084.6369.30752.691s.976-.073,1.13332-.3754l1.63237-3.08231c.145-.3065-.06133-.529-.45872-.49463Z"/><path d="M48.99277,79.21865c-.30543-.04765-.55161.11192-.54681.3545s.04964.95329.0535.97712a.74654.74654,0,0,0,.3559.1575,3.56808,3.56808,0,0,0,.953.03673c.132-.0486.43114-.33393.3862-.53875A2.859,2.859,0,0,0,48.99277,79.21865Z"/><path d="M85.166,93.29306c.32382-.17523.5164-.42417.4281-.5532a.72718.72718,0,0,0-.8631-.0234l-1.27951,1.19595c-.25861.23752-.46822.43244-.46561.43321a.3491.3491,0,0,0,.06562-.014c.03082-.00921.38234-.17316.71107-.34211Z"/><path d="M81.58959,64.589c.084-.1305-.08244-.449-.3698-.708s-1.39256-.6443-1.63164-.34727l-2.11377,2.49136c-.23751.2978-.25507.67337-.03887.8345a1.78384,1.78384,0,0,0,1.439.12989l1.87041-1.45334A6.96936,6.96936,0,0,0,81.58959,64.589Z"/><path d="M36.65571,109.256c.19195.09325.48139-.05487.64325-.32928l.633-.98495c.15967-.27527.17754-.56637.03961-.6468a.92347.92347,0,0,0-.89331.19519l-.71786.91432C36.17661,108.66932,36.46386,109.16274,36.65571,109.256Z"/><path d="M33.60026,122.159a5.022,5.022,0,0,0,.71483.05575,4.97255,4.97255,0,0,0-.03072-.63088l-.04943-.64121a1.00171,1.00171,0,0,0-.77094-.72309l-1.80479-.37265a.54865.54865,0,0,0-.71128.45781l-.02319.9107a.84312.84312,0,0,0,.74325.67605Z"/><path d="M181.63791,103.41762c.02832.34254.23062.62589.44963.62959s.65778-.41815.47356-.72611l-.60762-.99131c-.18286-.30856-.337-.28017-.34242.06314Z"/><path d="M18.13742,86.56136c-.065.18865.15548.2283.48975.088l.46562-.19733c.33458-.13987.43186-.30976.21619-.37764A1.87526,1.87526,0,0,0,18.13742,86.56136Z"/><path d="M212.09411,108.07474a.42594.42594,0,0,0-.50094.1495c-.11181.158-.2024.60525.0418.589a2.88278,2.88278,0,0,0,.88181-.15759A1.167,1.167,0,0,0,212.09411,108.07474Z"/><path d="M231.55168,95.965c-.09415.24748-.17137.452-.17158.45453s.29352-.00662.65276-.02581a6.38554,6.38554,0,0,0,1.29685-.16395c.04755-.0671-.05517-.37979-.32737-.534S231.64582,95.71749,231.55168,95.965Z"/><path d="M76.93008,105.36764c-.03051.30606.20261.42236.518.25832l1.09925-.67312c.30491-.177.28391-.43845-.0466-.58081l-.728-.2702a.52491.52491,0,0,0-.7072.39183Z"/><path d="M162.05307,118.96523c-.26708-.1126-.51839.06658-.5583.39811l-.25778,1.79423c-.04619.331.068.56465.2537.51906a1.74,1.74,0,0,0,.86478-.743l.37659-.93833C162.84951,119.67628,162.32026,119.07783,162.05307,118.96523Z"/><path d="M194.27643,128.20118c-.15214.27037-.17889.55175-.05956.62538a1.63,1.63,0,0,0,.5907.09978,1.44154,1.44154,0,0,0,.21285-.59165l.18495-1.23148c.0489-.29514-.05078-.32173-.22152-.0591Z"/><path d="M156.19744,112.05125a2.28,2.28,0,0,0,.96592.14022,4.73537,4.73537,0,0,0,1.47585-.23811,2.36768,2.36768,0,0,0,.08986-.63518.682.682,0,0,0-.732-.2296l-1.68515.44689A.277.277,0,0,0,156.19744,112.05125Z"/><path d="M249.82566,26.93832a.91486.91486,0,0,0-.39289.95707s.48819,1.58159.9909,2.75648c.19509.45625.35925.81754.35925.81754a.50385.50385,0,0,0,.733.26142c.26227-.16619.873-1.02348.77794-1.34511l-1.04482-3.30323a.67131.67131,0,0,0-.81336-.40172A3.01617,3.01617,0,0,0,249.82566,26.93832Z"/><path d="M33.42555,133.95447c-.17315.09592-.30115.20981-.28454.25316a.96494.96494,0,0,0,.328.283,2.33467,2.33467,0,0,0,.87941.19311l.8234-.18572a.4347.4347,0,0,0,.33385-.41049l-.17889-.73333a.30948.30948,0,0,0-.44347-.12792Z"/><path d="M10.9306,116.19912c.11306-.24267-.0907-.57454-.45255-.73737a8.77437,8.77437,0,0,0-1.258-.47682c-.04462.02813.03166.36275.26488.67209l.60282.81771C10.34262,116.77228,10.81764,116.44179,10.9306,116.19912Z"/><path d="M184.94289,108.76867a.34983.34983,0,0,0,.46436-.39527c-.028-.28834-.24743-1.0049-.46875-.94021s-.81336.32172-.84461.46236S184.65951,108.6977,184.94289,108.76867Z"/><path d="M159.42415,130.76729c.354-.03114.38882-.17264.07722-.31457l-1.25421-.53928c-.32539-.11914-.61421-.03208-.64179.19347s.21619.84817.57042.81806Z"/><path d="M137.77977,101.76463a1.35265,1.35265,0,0,0-.25308.02314,1.11121,1.11121,0,0,0-.58536.66606l-.46227,1.94263a2.16888,2.16888,0,0,0-.10941.61282,1.66557,1.66557,0,0,0,.327-.56026l.9096-2.08035A1.97138,1.97138,0,0,0,137.77977,101.76463Z"/><path d="M167.46513,86.26975c-.16708.20018.0208.42839.41745.50718l.80229.11536c.39644.07939.53688-.064.31211-.31863S167.63211,86.06966,167.46513,86.26975Z"/><path d="M119.291,109.35568c-.17753-.04765-.37722.20586-.44367.56336l-.41087,1.864c-.07063.3569-.04817.67484.05.70649s.4606-.17935.574-.52877l.64241-1.76843A.80626.80626,0,0,0,119.291,109.35568Z"/><path d="M136.85418,125.00549c-.13051-.04413-.43719.13763-.68139.40387l-.46979.49333c-.2512.26176-.41839.51492-.37147.56258a.93794.93794,0,0,0,.69591-.26581l.77847-.60636C137.088,125.35353,136.9848,125.04961,136.85418,125.00549Z"/><path d="M109.46849,132.85176a.67892.67892,0,0,0-.605.56207l-.17962,1.00937a4.88175,4.88175,0,0,0-.03365.58211c.00961.00267.317-.10753.66217-.2511l.82423-.30348c.34932-.13643.57356-.43346.49832-.66A2.59745,2.59745,0,0,0,109.46849,132.85176Z"/><path d="M7.92415,82.60188a.75967.75967,0,0,0-.591.4215,3.80287,3.80287,0,0,0-.38307.87063,1.20438,1.20438,0,0,0,.62465-.32164l.57262-.5058C8.37723,82.83913,8.11705,82.61392,7.92415,82.60188Z"/><path d="M121.28121,82.56343a.92821.92821,0,0,0-.9864.14709l-.82946.72818c-.255.25316-.17064.51354.18746.57866A3.60886,3.60886,0,0,0,121.331,83.943C121.53178,83.75181,121.54652,82.71921,121.28121,82.56343Z"/><path d="M130.65885,122.49624c-.09-.00232-.254.24051-.36447.53961l-.28213.74968c-.09279.30314-.06739.57368.05643.60112a2.84132,2.84132,0,0,0,.57711.03045,1.023,1.023,0,0,0,.22121-.62237l.06593-.70529C130.95509,122.77736,130.74882,122.49856,130.65885,122.49624Z"/><path d="M29.15684,91.24386c-.19154.24911-.03072.5015.35736.56094l1.51346.18916c.38756.06151.49488-.09032.23856-.33737l-.85955-.78684C30.11869,90.64747,29.34837,90.99474,29.15684,91.24386Z"/><path d="M100.6062,6.93479a.67033.67033,0,0,0-.97115.113l-.8097,1.07931c-.21181.313-.035.6228.39278.68835l2.44376.349a1.53879,1.53879,0,0,0,.87094-.0037.96177.96177,0,0,0-.3233-.771Z"/><path d="M241.68552,2.43991a.55466.55466,0,0,0-.787.32542l-.64942,2.30125c-.08213.31716.17189.55484.56447.52809l.93541-.04422a1.62122,1.62122,0,0,0,1.09591-.52533l.68735-.96319a.602.602,0,0,0-.25945-.8492Z"/><path d="M103.38089,74.25547a3.219,3.219,0,0,0-.29216.50658.56888.56888,0,0,0,.19289.56293,4.48072,4.48072,0,0,0,.97669.31019c.12131-.00662.49174-.175.55558-.36662l.563-1.51906c.06845-.19045.02832-.38916-.08913-.44163a2.521,2.521,0,0,0-.65976-.15922,1.413,1.413,0,0,0-.66248.33634Z"/><path d="M64.96511,36.19122c.31494.18254.59686.11665.62633-.14632a2.46471,2.46471,0,0,0-.3187-1.38994L64.08393,33.534c-.25977-.23415-.49268-.1668-.51755.14959l-.11912,1.0695a1.07921,1.07921,0,0,0,.5513.89394Z"/><path d="M39.11712,58.72145c-.14838-.04559-.306-.01238-.35046.0739a.47673.47673,0,0,0,.22027.48765l.19268.06409.14712.04783c.16928.05187.30543.00757.30251-.09841A1.35307,1.35307,0,0,0,39.11712,58.72145Z"/><path d="M127.72576,90.42674a1.13991,1.13991,0,0,0-.72455.16017c-.16019.12-.47868.56508-.35287.69076a1.057,1.057,0,0,0,.99445.04206C127.8755,91.11913,127.9641,90.45865,127.72576,90.42674Z"/><path d="M55.59437,73.44369c.17346.0695.45475-.14633.62518-.47966l.992-1.89316a2.24688,2.24688,0,0,0,.26583-.61918,2.31678,2.31678,0,0,0-.56551.50383L55.47828,72.586A.63954.63954,0,0,0,55.59437,73.44369Z"/><path d="M119.3386,40.69023a1.91173,1.91173,0,0,0,.596-.06761c.25308-.05884.92935-.37523.939-.596l.04785-.75983a.59439.59439,0,0,0-.45109-.5274l-.79435-.18864a.38569.38569,0,0,0-.49675.315l-.10042,1.33867A.63.63,0,0,0,119.3386,40.69023Z"/><path d="M79.39515,35.04946c-.2886.23982-.41556.48137-.28223.53677a2.18306,2.18306,0,0,0,1.069-.00757c.32278-.11991,1.10731-.65711,1.00041-.85368s-.7536-.50382-1.03907-.2615Z"/><path d="M159.31914,83.55835a3.88055,3.88055,0,0,0-.13135.66383l-.1722.94787c-.04827.32439.06426.62589.24995.66994a1.31887,1.31887,0,0,0,1.022-.41557l.53855-1.01643a.52956.52956,0,0,0-.27282-.7379A4.35349,4.35349,0,0,0,159.31914,83.55835Z"/><path d="M29.13677,47.91793a.50372.50372,0,0,0,.73187-.30237l.16656-.61643a.71038.71038,0,0,0-.32529-.74417,9.49473,9.49473,0,0,0-.98922-.362,1.07622,1.07622,0,0,0-.473.42529c-.142.23518-.19968,1.06658.11881,1.22951Z"/><path d="M46.42446,121.33435c-.0187.04937.17241.232.42466.40585a3.90926,3.90926,0,0,0,1.141.507,4.82139,4.82139,0,0,0,.43029-.442c.10941-.13385.02446-.53282-.41462-.553l-.71744-.0437A1.66262,1.66262,0,0,0,46.42446,121.33435Z"/><path d="M245.9627,43.33419c-.08955.0092-.09436.2701-.01077.57978l.15026.54435c.08245.30984.15068.31415.15173.00946A2.69727,2.69727,0,0,0,245.9627,43.33419Z"/><path d="M250.03622,40.95681a2.905,2.905,0,0,0-.77878-.04086,2.60138,2.60138,0,0,0,.66969.44861l2.97593,1.47173a.8354.8354,0,0,0,1.02559-.23165c.18129-.29437.20491-1.21927-.22487-1.26331Z"/><path d="M79.18178,10.36206c-.3932-.13574-.53834-.063-.32257.16164s.97878.75965,1.11859.66288S79.57509,10.4978,79.18178,10.36206Z"/><path d="M125.75828,100.32291a.77239.77239,0,0,0,.24169.94976l.59581.43131a1.03416,1.03416,0,0,0,1.10657-.031c.29477-.22245.77805-1.15613.52727-1.41368l-.99738-.91269a.5944.5944,0,0,0-.87752.1108Z"/><path d="M223.02209,107.07886c-.34461-.19561-.67773-.28275-.74032-.19354a3.13061,3.13061,0,0,0-.25047.52008,1.2205,1.2205,0,0,0,.49613.74934l1.57083,1.08292c.33092.211.71817.28619.86059.167a2.65728,2.65728,0,0,0,.4536-.62288,1.48246,1.48246,0,0,0-.58254-.59346Z"/><path d="M8.05122,2.48275a5.339,5.339,0,0,0,.67585.07811l1.00605.08929c.36823.0123.68223-.1052.6978-.26116a3.47849,3.47849,0,0,0-.0256-.59992c-.01118-.00249-.32717.07037-.67659.1668l-1.06038.30546A2.89391,2.89391,0,0,0,8.05122,2.48275Z"/><path d="M187.76282,72.88085c-.23323.02873-.30606.32172-.162.6511l.65245,1.64077c.151.32731.41933.59.59623.58383a5.08408,5.08408,0,0,0,.70459-.09282,2.06561,2.06561,0,0,0,.1557-.70641l.01473-1.05393a.99333.99333,0,0,0-.40971-.79183A6.96447,6.96447,0,0,0,187.76282,72.88085Z"/><path d="M120.53953,46.95053c.21076.07751.39289.1403.40469.13935a3.924,3.924,0,0,0,.40219-.38305c.1977-.20912.5768-.8726.444-.93015a3.12872,3.12872,0,0,0-.9956-.13445,2.522,2.522,0,0,0-1.01493.33746c-.07.13032-.10355.56706.08955.66349Z"/><path d="M57.88881,12.04112c.29811-.20912.49111-.47063.42894-.58108a1.10524,1.10524,0,0,0-.92215-.23217l-1.34491.36069a.60475.60475,0,0,0-.46844.7218c.1046.2745.72455.84379,1.0142.62684Z"/><path d="M61.63746,16.06288c-.01682.11148.25089.37557.59477.58667a8.9368,8.9368,0,0,0,2.02986.82572c.38359.0332,1.32987-.02521,1.35892-.19957a1.334,1.334,0,0,0-.58913-.995l-2.11439-1.05678c-.38485-.1772-.78359-.21411-.8862-.082A4.73369,4.73369,0,0,0,61.63746,16.06288Z"/><path d="M216.70722,40.32189c.07983-.11794.14713-.22039.14942-.22779a4.80636,4.80636,0,0,0-.62026-.12688c-.34576-.055-.90438-.02572-.69414.13643S216.62739,40.43974,216.70722,40.32189Z"/><path d="M242.826,100.70235a.60271.60271,0,0,0,.54472-.62443,2.41429,2.41429,0,0,0-.629-1.05566,1.49481,1.49481,0,0,0-.91483.3299l-1.09759,1.23707c-.223.22994-.11462.39217.24075.36043Z"/><path d="M159.35676.74142c-.36614-.04164-.7188.09307-.78369.29935s.16457.84972.5305.908l.99571.158c.36959.03966.64973-.108.62267-.32808A2.87334,2.87334,0,0,0,159.35676.74142Z"/><path d="M245.45884,66.16214a9.44147,9.44147,0,0,1-.929.17l-4.12462.57626a2.73486,2.73486,0,0,0-.69487.1372.57979.57979,0,0,0,.23385.21084,2.77111,2.77111,0,0,0,1.15119.094l4.63214-.943c.3792-.07054.613-.1674.51953-.21531A2.37428,2.37428,0,0,0,245.45884,66.16214Z"/><path d="M249.21627,56.0036a.99968.99968,0,0,0,1.08034-.10339c.21379-.23329.28359-.97833-.15256-.996l-2.3773-.09505c-.43562-.02461-.5001.12473-.14315.33187Z"/><path d="M28.06573,4.57015c.00888-.1077-.15371-.21187-.36144-.2314a2.45711,2.45711,0,0,0-1.26216.40095L22.88972,8.193a.50009.50009,0,0,0-.00627.77969c.24649.17343,1.31294.25549,1.54993-.00825L27.5997,5.46718A2.70356,2.70356,0,0,0,28.06573,4.57015Z"/><path d="M254.60388,83.953c.18714-.20344.14942-.43114-.08391-.506a5.60764,5.60764,0,0,0-1.38483-.214c-.26646.03863-.63249.36215-.37137.57608l.58537.452C253.6414,84.44575,254.41673,84.15646,254.60388,83.953Z"/><path d="M81.69272,14.39a.62381.62381,0,0,0-.87459.08722l-.65527.69084c-.22863.2671-.20867.56043.04441.65187a2.38676,2.38676,0,0,0,1.34773.05712C81.79314,15.7083,81.94246,14.60757,81.69272,14.39Z"/><path d="M66.84712,48.4332c.02633-.15364-.20376-.40542-.51128-.55949l-1.87824-.88438a.84251.84251,0,0,0-.92768.1821c-.18893.2339-.25538,1.02306.09372,1.09549l2.47417.56808A.73692.73692,0,0,0,66.84712,48.4332Z"/><path d="M111.79365,22.5452a.1372.1372,0,0,0-.052-.00766c-.00523.0025.01275.01463.04138.01884S111.81705,22.55191,111.79365,22.5452Z"/><path d="M181.81043,69.56266c-.28035.17548-.22476.44619.12351.60146l1.54282.64688c.35036.15209.50491.033.34326-.26469l-.5862-.96249C183.0287,69.30485,182.09088,69.38709,181.81043,69.56266Z"/><path d="M149.30629,118.83878a2.66365,2.66365,0,0,0-.80866-.11639c-.33626-.00766-1.29988.24163-1.362.59011l-.307,1.448c-.06186.34847.23667.613.66331.5877l1.04691-.036a.90223.90223,0,0,0,.87345-.66237l.17523-.95982A1.09176,1.09176,0,0,0,149.30629,118.83878Z"/><path d="M204.02189,65.46356a1.18326,1.18326,0,0,0,.664-.08964,2.569,2.569,0,0,0,.62894-.62984,1.30863,1.30863,0,0,0-.1233-1.05755l-.67-.59914c-.27294-.20809-.61818-.29574-.76718-.19493a3.184,3.184,0,0,0-.73563.92792l-.3095.72267c-.12592.28808-.12424.56653.00376.61866S203.79472,65.42941,204.02189,65.46356Z"/><path d="M201.36392,8.65729c.09258.00026.33051-.00327.52873-.00783s.83113-.02348.94064-.03019a1.42632,1.42632,0,0,0,.70751-.58065c.17242-.30864.3977-1.21324.093-1.26606a2.50821,2.50821,0,0,0-1.57992.38469l-.65652.93806C201.20394,8.39931,201.27134,8.65694,201.36392,8.65729Z"/><path d="M64.579,7.35742c-.42153-.06882-.79634-.0542-.833.0326a1.0488,1.0488,0,0,0,.49509.7206l2.0006,1.19673a.61408.61408,0,0,0,.8931-.23234c.13061-.32034.06081-1.32525-.36249-1.38667Z"/><path d="M192.48,79.28859c-.03355.20017.2886.34039.716.31166l1.16372-.08327c.42759-.02555.46071-.17058.07367-.32233l-.92528-.32851A1.00606,1.00606,0,0,0,192.48,79.28859Z"/><path d="M151.329,61.10821a1.21313,1.21313,0,0,0,.46018,1.036,5.00848,5.00848,0,0,0,1.922.69858l3.34844-.24318a1.61884,1.61884,0,0,0,1.13949-.59811c.19906-.30494.48683-1.4006.25162-1.69566l-1.02016-1.18116a1.83181,1.83181,0,0,0-1.25035-.48137l-3.424.10933a1.35262,1.35262,0,0,0-.93875.29617,4.84317,4.84317,0,0,0-.37732,1.204Z"/><path d="M252.67067,60.51079c-.36771.05419-.68526.28309-.70564.50864s.14974.87948.317.92138a3.30585,3.30585,0,0,0,1.236-.0886l1.762-.609c.347-.1138.58087-.33385.51964-.48912a1.13771,1.13771,0,0,0-.9026-.49711Z"/><path d="M184.58344,55.89823a.63656.63656,0,0,0,.38338.84714l2.70572,1.16843a1.50182,1.50182,0,0,0,.72131.21049,1.016,1.016,0,0,0-.3233-.65823l-2.22736-2.24052a.55833.55833,0,0,0-.85892.06718C184.78605,55.57969,184.58344,55.89823,184.58344,55.89823Z"/><path d="M213.89137,123.20265c-.382.106-.37993.27406.0047.37359l2.03373.444c.39456.068.69278-.11716.66279-.41162s-.55025-1.06314-.93227-.95715Z"/><path d="M54.277,45.86993c-.25141-.01437-.4932.05084-.5373.14477a.55242.55242,0,0,0,.16907.54022c.17387.09952.77136.17652.8699.01686S54.52855,45.88429,54.277,45.86993Z"/><path d="M209.5793,64.45074c.04263-.316-.01181-.594-.121-.6178a.96628.96628,0,0,0-.68.47638l-.75611,1.561c-.12716.30021-.03019.54193.21557.53711a3.09185,3.09185,0,0,0,1.02632-.19922,4.28177,4.28177,0,0,0,.20867-.88964Z"/><path d="M247.85223,9.90916c.35381.03819.48212-.131.28505-.376l-.96676-1.01634a.8265.8265,0,0,0-.94858-.05067l-.9305.714a2.7542,2.7542,0,0,0-.4095.42443,4.01254,4.01254,0,0,0,.6864.11054Z"/><path d="M117.80173,65.97074a1.32935,1.32935,0,0,0-.1698-.61815,2.64194,2.64194,0,0,0-.84053.18684l-2.27156.989c-.35328.142-.33594.33875.03867.43725l2.58126.58632c.38526.06452.69613-.14761.69059-.47131Z"/><path d="M186.77077,85.75345a.96477.96477,0,0,0,1.01744.27742l1.86-.47656c.41044-.13084.43615-.38865.05705-.57273l-1.27355-.67768a1.22494,1.22494,0,0,0-1.10312-.056A2.34669,2.34669,0,0,0,186.77077,85.75345Z"/><path d="M248.11492,41.79844c.36374-.05393.39926-.22227.07889-.374l-.90135-.39191c-.33876-.12172-.65955-.03845-.713.1852s.13354.82779.49739.77471Z"/><path d="M229.35734,39.21849c-.35161.00989-.39383.12748-.09362.26133s1.18347.34435,1.21127.21282S229.709,39.2086,229.35734,39.21849Z"/><path d="M183.28774,61.74537a.56974.56974,0,0,0,.41055-.71467l-.31933-.93437a.59225.59225,0,0,0-.78244-.29453l-1.18358.40215a.44959.44959,0,0,0-.29624.68008l.51546.84895a.74423.74423,0,0,0,.87732.27079Z"/><path d="M154.53508,16.198c.03218.199.38735.32284.78912.2751s.93343-.30065.582-.45015-1.35934-.48465-1.36373-.47949A3.51161,3.51161,0,0,0,154.53508,16.198Z"/></g></mask><clipPath id="clip-path"><rect class="cls-1" x="659.05882" y="-605.58937" width="415.89802" height="919.64345"/></clipPath></defs><path class="cls-2" d="M58.3205,64.2507l2.97559,2.625c-.24512.31494-.59571.38526-1.36524.45508a19.22054,19.22054,0,0,1-4.2705,7.106,25.45432,25.45432,0,0,0,6.8955,3.01025l-.06933.38477a3.14389,3.14389,0,0,0-2.45117,2.41552,21.04223,21.04223,0,0,1-6.26563-4.06054A23.81386,23.81386,0,0,1,46.384,80.1423l-.21-.56005A20.34544,20.34544,0,0,0,52.4748,74.8215a20.42863,20.42863,0,0,1-4.2002-8.08593H45.19453V79.58225c0,.1748-.875.77-2.2754.77h-.45507V74.68137c-2.34571.84033-5.53028,1.85547-9.8711,3.15039a1.21578,1.21578,0,0,1-.83984.77l-1.92578-3.36036c.94531-.06982,2.31054-.21,3.956-.3496V62.64035H30.24726l-.21-.80518H57.37519l1.82031-2.415,3.36035,2.52c-.24511.49023-.665.70019-1.67968.70019H45.19453v3.3252h11.376ZM37.94843,58.5798v.665c0,.07032-.45508,1.01514-2.7998,1.01514V48.49875l3.04492,1.29541H54.2248l1.22558-1.61035,3.46485,2.415a2.72641,2.72641,0,0,1-1.50488.73535v7.80566c0,.105-.83985.80518-2.835.80518V58.5798Zm4.51563,4.06055H36.51288v3.25537h5.95118Zm-5.95118,4.02539v3.3252h5.95118v-3.3252Zm0,4.09522v3.81543c1.85547-.17481,3.88575-.41993,5.95118-.665V70.761Zm18.0625-20.19678H37.94843v3.18506h16.627Zm-16.62695,7.2456h16.627V54.51926H37.94843ZM49.01,66.73557a16.33626,16.33626,0,0,0,4.79492,6.3706,20.72862,20.72862,0,0,0,2.94043-6.3706Z"/><path class="cls-2" d="M74.66328,68.87082l.03515-.03467c4.34082,1.01514,5.70606,2.90527,5.70606,4.30518a1.43152,1.43152,0,0,1-1.33008,1.54,1.63,1.63,0,0,1-1.085-.45508,10.34863,10.34863,0,0,0-3.32617-4.90039V79.407c0,.07031-.38477.91016-2.7295.91016V71.07639a24.8127,24.8127,0,0,1-6.7207,6.65039l-.4209-.52491a27.94172,27.94172,0,0,0,6.23145-10.36132H65.56269l-.21-.80469h6.58105V61.41525H65.10761l-.21-.80517H74.6291c.62988-2.06543,1.29492-4.90039,1.67968-6.96582l3.95508,1.05029c-.10449.41992-.45508.59521-1.25976.56006a50.2012,50.2012,0,0,1-3.53516,5.35547h2.415l1.57519-2.03028,3.08008,2.13526c-.28027.49023-.70019.70019-1.64453.70019H75.71406c-.14063.17481-.41993.31494-1.05078.38477v4.23584h2.83593l1.54-2.10059,2.90528,2.20557c-.24512.48975-.665.69971-1.61036.69971H74.66328Zm-8.92579-15.5415-.21-.80518h6.40625V47.69357l4.2002.3501c-.03516.52539-.38477.73535-1.43555.91016v3.57031h2.415l1.5752-2.1001,3.01074,2.20508c-.28028.49023-.665.7002-1.64551.7002Zm2.55567.41992c2.58984,1.64551,3.43066,3.36035,3.43066,4.65576a1.84844,1.84844,0,0,1-1.57519,2.03027,1.45214,1.45214,0,0,1-1.15528-.70019,5.90721,5.90721,0,0,0,.03516-.80518,12.2306,12.2306,0,0,0-1.15527-5.00537Zm26.39258,4.0957,3.36035,2.48535c-.28028.48975-.73535.69971-1.67969.69971H93.53046V79.47726a2.86956,2.86956,0,0,1-2.34472.83985h-.45508V61.03h-4.6211v1.19043c0,6.3706-.80468,13.44141-8.29589,18.06152l-.45508-.41992c5.18066-4.86523,5.98633-11.02588,5.98633-17.67676V50.529l3.15039,1.0503a41.316,41.316,0,0,0,7.52539-3.85059l3.25488,2.62549a1.10975,1.10975,0,0,1-.80469.24463,3.25466,3.25466,0,0,1-1.0498-.17481,56.2171,56.2171,0,0,1-9.31153,2.1001V60.26h6.75586Z"/><path class="cls-2" d="M105.28828,71.67111c.52539,0,14.98242-.80517,17.78222-.94482a6.27272,6.27272,0,0,0,3.36035-1.05029c1.96.38525,4.48047,1.645,4.48047,2.73046a1.22426,1.22426,0,0,1-1.22558,1.12012c-1.18946,0-3.25489-.665-5.63477-.73535-.52539,0-1.12012-.03467-1.751-.03467a99.17109,99.17109,0,0,0-15.15625,1.12012c-1.46972.24463-2.10058.77-2.90527.77-1.19043,0-3.53516-2.20557-3.53516-3.67529,0-.63038.41993-1.4004.73536-1.4004C102.13788,71.216,103.43378,71.67111,105.28828,71.67111Zm.35058-17.25683c.76953,1.15527,2.16992,1.75048,4.48047,1.78515a53.21784,53.21784,0,0,0,9.06543-.80468,4.56329,4.56329,0,0,0,2.55566-1.36524c1.88965.27979,4.09571,1.085,4.06055,2.24024,0,1.01513-1.57519,1.01513-4.23535,1.15478-3.291.17529-10.22168.66553-12.49609.91016h-.28028c-1.43554,0-3.46582-1.18994-3.46582-2.58985a3.28412,3.28412,0,0,1,.28028-1.33056Z"/><path class="cls-2" d="M149.95038,63.30539c-.55957.03516-6.51074.665-7.98046,1.47021a1.68069,1.68069,0,0,1-.875.27979c-1.12012,0-2.4502-1.78516-2.4502-2.90527a1.142,1.142,0,0,1,.76953-1.2251c.10547,1.68017,1.64551,1.68017,2.37988,1.68017.73536,0,5.42579-.27978,7.31641-.45507a1.9597,1.9597,0,0,0,1.04981-.45508c.38476-.41992.665-.80469,1.085-.80469.49023,0,2.66015,1.50488,2.66015,2.20508,0,.45508-.665.62988-.91015.83984-.31446.24512-.38477.49024-.52442,1.29541-.24511,2.24024-.94531,6.33545-1.57519,9.03076,3.43066,0,3.60547,0,4.375-.77,1.71582.62989,3.291,1.50538,3.291,2.4502,0,.59522-.52539.7002-1.19043.7002-1.01562,0-1.54-.45508-3.74511-.7002-.77051-.06982-1.82032-.14014-3.08106-.14014-2.45019,0-9.59082.28028-11.72558,1.15528-.35059.14013-.77051.5249-1.15528.5249-1.40039,0-2.80078-1.81982-2.80078-2.93994,0-.42041.24512-1.36524.80566-1.36524.24512,1.71534,2.06543,1.71534,2.69532,1.71534s3.39551-.14014,10.39551-.56006c.52539-3.32569,1.15527-8.541,1.29589-10.88623Z"/><path class="cls-2" d="M185.26581,62.53537a38.32815,38.32815,0,0,0,4.27051-.31494c1.64551.03467,4.09571.59473,4.09571,1.60986,0,.7002-.77051,1.0503-2.24024,1.0503-1.26074,0-7.49121-.105-8.8916-.105-3.88477,0-12.42578,0-14.21094.73487a4.47315,4.47315,0,0,1-1.50488.49023c-1.43555,0-3.85059-2.34521-3.85059-3.78027a2.27638,2.27638,0,0,1,.665-1.89014l.24512-.03515c.38477,1.89013,1.99512,2.24023,5.39062,2.24023Z"/><path class="cls-2" d="M196.1496,77.02707c8.61133-5.07568,16.80176-14.98193,19.46192-22.71777a1.07846,1.07846,0,0,0,.07031-.27979c0-.105-.10547-.17529-.34961-.17529a93.84915,93.84915,0,0,0-9.52148,1.29541,3.72571,3.72571,0,0,0-1.54.56006,1.74218,1.74218,0,0,1-1.04981.48974c-1.33008,0-3.32617-1.99511-3.32617-3.5a1.48235,1.48235,0,0,1,.876-1.47021c.27929,1.99512,2.27441,1.99512,3.81543,1.99512,1.01465,0,7.7705-.45508,10.46582-.80518a1.49327,1.49327,0,0,0,1.0498-.48975c.38477-.35009.73535-.70019,1.085-.70019.73535,0,3.36035,1.99512,3.36035,2.625,0,.49023-.49023.665-1.0498.84033a1.90245,1.90245,0,0,0-.94531.94482,61.40182,61.40182,0,0,1-5.9502,9.45118,41.58106,41.58106,0,0,1,9.1709,5.98584c1.50488,1.50488,2.79981,3.1499,2.79981,4.37548a1.83485,1.83485,0,0,1-1.71485,1.99512c-.94531,0-1.61035-1.12012-2.73047-3.04541a32.34357,32.34357,0,0,0-8.2959-8.436,43.70338,43.70338,0,0,1-15.22656,11.72656Z"/><g class="cls-3"><path class="cls-2" d="M24.101,133.61327l.14257-2.09363.76115-1.76052-.46694-.72707-.32743-1.42375.14747-1.49179-.40962-1.40976-.73486-1.27457-.08641-1.62776-1.43066-.82713-.6937-1.31031-.79807-1.28709-1.39353-.65231-1.22464-.79343L16.67,115.62446l-1.37047-.60616-1.468-.34164-1.46142-.254-1.31836-.695-1.46533-.16886L8.20912,112.808l-1.53537.60258-1.44918-.53261-.8617.1141L2.8796,112.7297l-1.47413.09921-1.62559.365L.16142,111.759l-.24809-1.428.37358-1.42776-.46477-1.42857-.07556-1.4288-.25941-1.42955.54323-1.42989-.11774-1.43134-.11224-1.43116L.046,98.89385l-.17148-1.4297.2887-1.429L-.382,94.60582.33242,93.1772l-.6437-1.42978.01077-1.42994.64636-1.43039L.08,87.455l.137-1.43106L.066,84.59346l.33647-1.42973-.46193-1.43011.00632-1.43005-.43568-1.43093.40193-1.4314L-.099,76.00942.41385,74.5788l-.666-1.43091.1286-1.43045-.34128-1.43126.87532-1.42475-.129-1.42581.00116-1.42673-.34983-1.42857L.0682,63.14977l-.16715-1.43336.00034-1.43086L-.35,58.85614.28091,57.428l.14423-1.42858-.46675-1.4301-.43357-1.43229.91464-1.433L.29835,50.27261.4196,48.84213l-.717-1.43167.24232-1.4334L.13053,44.5439l-.0292-1.432L-.287,41.67863l.75748-1.43416L-.22659,38.811l.552-1.43438-.38112-1.43415.49529-1.435L.028,33.076.33814,31.645l.01908-1.436-.66728-1.434-.11362-1.43561.635-1.43677-.42768-1.43538.00831-1.43847.44045-1.44052.21228-1.42774L1.46679,19.852l1.44347.38914,1.4503.16611.864-.09725,1.50039.45016,1.46341-.3904L9.567,19.67341l1.45505-.17968,1.438-.30929,1.4781-.26728,1.238-.85421L16.663,17.694l1.18647-.91793L19.0686,15.917l1.14326-.96281,1.04658-1.07032.93854-1.16918.52726-1.42973.37492-1.44165L24.2474,8.72472l-.244-1.59006.34134-1.39633.83385-1.43724-.69365-.693L24.24982,2.42l-.17507-1.19488L24.48743.01624l1.421.07851,1.43584.3427L28.78015.479,30.2162.263,31.65241.06776,33.08882.1049l1.43664-.56715,1.43691.37569,1.43721-.24186,1.43756.17808,1.43794.363,1.43774-.2692,1.4374.54,1.43713-.104,1.43687-.39631L47.4609-.46658,48.8974.4751,50.33379.02752l1.43167.013,1.43211.41609L54.63016.09149l1.43311.33184L57.497.26741l1.43431-.76787,1.435.87561L61.80192.06093l1.43645-.125,1.43726.07758L66.11376.3534l1.43791-.74672,1.43718.48311,1.43652.1,1.4359.2187L73.29662.29125,74.73147.08141l1.4344.07276,1.434-.30527,1.43369.38029L80.467.23188l1.43323.24095L83.33335.40007l1.433-.38974,1.433.07263,1.43307.08173,1.4332-.33029L90.499.40607,91.9327.20935l1.434-.39621,1.43441.64537,1.4349-.9237,1.43547.52554L99.10759-.1292l1.43683-.1944,1.43763.6538,1.43853-.53065L104.86-.248l1.43857.59588,1.43783-.69246,1.43716-.04391,1.43659.194,1.43612.35481L113.482-.09142l1.43547.53515,1.43531-.68117L117.788-.26661,119.22332.461l1.43544-.80822,1.43571.09953,1.4361-.07831,1.43659.10023,1.43723-.24991,1.438.9562,1.43886-.178,1.43987-.76469,1.43946.59575L133.59919-.337l1.438.60335,1.43744-.59343,1.43706-.15527,1.43685.79183,1.4368-.548L142.22221-.456l1.4372.08216,1.43767.32432,1.43832-.36991,1.43916.644,1.4402-.20386,1.44.38066L152.294-.29449l1.43852.45275,1.4381-.36765,1.43792.36665,1.438-.49379,1.4383.39705,1.43887-.40644,1.43973.3582,1.44086.35365,1.44009.03861,1.43931-.69005,1.43887.28334,1.43875-.34941,1.439.68622,1.43959-.49587,1.44058.39351,1.44076-.00176,1.43987.12061,1.43943-.22306L179.63994-.223l1.44.53725,1.4342-.70372,1.43463.83844,1.43564-.3574,1.43728-.55159,1.43956.6448,1.44221.309,1.43979-.311,1.43818-.66411L194.01884.123l1.43759.216,1.43874-.29862,1.441-.38163,1.4425.00122,1.4403.311,1.43948.4832L204.09859-.493l1.4425.90778,1.44222-.66872,1.441.05881,1.44194.51665,1.4436-.39823,1.442.33311,1.44368-.33194L215.63833.096l1.44423.25255,1.44016-.78106,1.44019.05,1.445.13646,1.44257-.04154,1.4445.58608L225.74108-.061l1.44407-.20734L228.63261.493l1.44979-.98037,1.5917.38025.09253,1.921-.35745,1.7824.02082.70478-.1792,1.48413-.024,1.52593.92127,1.2844.32027,1.45568.92794,1.17131.573,1.38147,1.33426.79842.62927,1.41363,1.07336,1.02178,1.53991.37777.90246,1.30043,1.506.29416,1.36557.48879,1.12235,1.19585,1.47433.25479,1.52517-.09375,1.44475.14937,1.45043.03435,1.444.58291.86193-.045,1.47382-.00561,1.47777-.01108,1.24084-.20461L255.7167,21.574l.66961,1.4283-.81686,1.42749.052,1.42831.25031,1.42891.42839,1.42966.01568,1.43024.1424,1.43135-.90265,1.43053.9773,1.43083-.92771,1.429.23192,1.42932.47273,1.4293.11554,1.42913-.16382,1.42927.04654,1.43.06979,1.43084-.22456,1.43178.00687,1.43115-.47288,1.43009.83819,1.43046-.93308,1.42925.59334,1.43042.245,1.43081-.4741,1.43135-.34215,1.43161.62469,1.43132.09091,1.43055.02682,1.43055-.13458,1.431-.6476,1.4249.6125,1.42611-.59269,1.42636.83312,1.42887-.17917,1.43052-.62515,1.43287.48793,1.43117.16935,1.42936-.3217,1.4283-.27961,1.4285-.14557,1.42973.42131,1.43228.10714,1.43361.30085,1.43155-.826,1.43.75994,1.4317-.25538,1.43339-.24113,1.43312.69066,1.43244-.7489,1.43254.4716,1.43492-.06738,1.433-.22447,1.43458.08752,1.434-.05661,1.43524-.04148,1.43119.407,1.43151.15659,1.43608-.26252,1.43346-.35191,1.43532.45511,1.43745-.681,1.43469-.00593,1.43847.51249,1.44111-.35371,1.43423-1.21986-.48963-1.471.37092-1.44752-.24063-.86794.064-1.48544-.06905-1.41089.688-1.43324.22446-1.61812-.46872-1.17822,1.22129-1.31917.59427-1.33783.53883-1.28808.65423-1.489.38386-.97933,1.13993-1.57461.45574-.72186,1.37631-.93621,1.14132-.59131,1.36434-1.22486,1.03056-.47558,1.435.40572,1.6311-.56442,1.3579-.05357,1.44854-.59687.7326.12553,1.79431.69585,1.92169-1.6333-.38216-1.43583-.14288-1.43593.31611-1.436-.29808-1.43621.44118-1.43641.12924-1.43664-.20722-1.43691.16944-1.43721-.65944-1.43756.29774-1.43794-.0792-1.43773-.07-1.43741-.12286-1.43713.84633-1.43687-.62617-1.43667.20069-1.43651-.26851-1.43639-.16767-1.43167.09766-1.43211.333-1.43259-.33894-1.43311.25712-1.43369-.04343-1.4343.477-1.435.07959-1.43569-.50871-1.43645.34007-1.43726-.01352-1.43813-.46477-1.4379.6299-1.43719.10566-1.43652-.55742-1.4359.462-1.43535-.34807-1.43485.2328-1.4344.16855-1.434-.42058-1.4337.25987-1.43343-.43733-1.43324.11191-1.43309.31654-1.433-.72668-1.433-.00125-1.43307-.03055-1.4332.63277-1.43339-.54667-1.43366.54356-1.434-.57161-1.43441.61388-1.4349-.36967-1.43546.546-1.43611-.59926-1.43684.21528-1.43763.01239-1.43853-.46486-1.43942.12406-1.43857.52925-1.43782-.452-1.43716.01447-1.4366.00482-1.43612-.04974-1.43574.21891-1.43548.59227-1.4353-.92117-1.43525.61431-1.43528.13644-1.43544-.1771-1.43571-.03592-1.43609-.51414-1.4366.31925-1.43722.13425-1.438.18019-1.43886-.53094-1.43987.02433-1.43946.21567-1.43864-.28937-1.438-.08311-1.43744.50847-1.43706.24232-1.43685-.318-1.4368-.08619-1.43691.094-1.4372.30988-1.43767.03525-1.43832-.293-1.43916.41468-1.4402-.544-1.44.06439-1.43916-.33915-1.43852.71566-1.43811-.35817-1.43792-.30289-1.438.11017-1.4383.08359-1.43888.07028-1.43973.39287-1.44086-.51354-1.44009.48146-1.43931-.78567-1.43887.533-1.43875.093-1.439-.53737L83.565,132.9076l-1.44058.17786-1.44076-.0972-1.43987.44026-1.43943.04331-1.43946.06668-1.44-.244-1.4342.38561-1.43463-.2614-1.43564-.26612-1.43727.32969-1.43957-.16818-1.44221.20465-1.43979-.38166-1.43818.25639-1.43743.05679-1.43759-.16867-1.43874.03909-1.441-.23347-1.4425.32112-1.44031.38139-1.43948-.08609-1.44017-.77118-1.4425.03553-1.44222.49574-1.441.09458-1.44195-.03571-1.44359-.26713-1.442-.08991-1.44368.1945-1.44286-.29164-1.44423.72042-1.44016-.24323-1.44019-.21631-1.445.09717-1.44257.28583-1.44451-.67174-1.44614-.17435-1.44407.5515-1.44746.3339-1.44174-.32433ZM34.541,7.34693l-1.04576.22782-1.23639.79405.09788,1.53942-.255,1.48939-.94946,1.20688-.66944,1.30981-.59513,1.369-1.40191.79951-.34545,1.60346-1.20427.90125-1.26811.78976-.82617,1.28386-1.11165.98074-1.55539.32424-1.17925.85676-1.1471.95433-1.215.88154-1.47463.30335-1.32932.65439-1.55632-.063-1.23073,1.094-1.54669-.16472-1.43156.33925-1.48385.47693L8.054,28.83625,8.522,30.261l-.38081,1.42479.249,1.42511-.37269,1.42568.46565,1.42652.07645,1.42764.26029,1.42688-.54234,1.42611.11862,1.42567.11314,1.42555-.2447,1.42579.17237,1.42639-.28782,1.42736.5461,1.42754-.71353,1.42666.64458,1.42623-.00988,1.42626-.64547,1.42677.2667,1.421-.13611,1.42147.15192,1.42247L7.91781,60.197l.46281,1.42636-.00543,1.429.43657,1.42659-.401,1.425.013,1.42424-.512,1.42441.66689,1.42554-.12772,1.42775.34217,1.42926L7.91863,74.4622l.12986,1.42629-.00028,1.42695.35072,1.42927-.13446,1.429.168,1.42774.00055,1.42872.2523,1.43035-.63006,1.42876L7.912,87.3197l.46763,1.42963.43447,1.431-.91376,1.42694.142,1.427-.12036,1.4317.71785,1.42934-.24143,1.43126-.1847,1.43287.0301,1.43082.38917,1.43418-.75659,1.43649.698,1.43649.01752,1.52737,1.48411.40624,1.35912.73142,1.51431-.09458,1.33446.6729,1.38167.454,1.60944-.12041,1.415.4738,1.05405,1.211,1.49634.32677,1.25956.7802.96279,1.19465,1.02174,1.05331,1.62959.358.82972,1.27152.90758,1.15791,1.01251,1.0678.43526,1.474.97013,1.10113,1.0985,1.08514.45742,1.41664.38086,1.42655.12236,1.47643.9659,1.06065,1.24675.8163,1.43671-.13776,1.43651.04361,1.43635.03461,1.43622.01554,1.43151.00143,1.432-.34632,1.43243-.3398,1.433.65,1.43353-.66744,1.43414.10684,1.43481.75466,1.43552-.67241,1.43629-.17069,1.4371-.11039,1.438.48586,1.43774.07294,1.437.34269,1.43635.04151,1.43575-.21592,1.43518-.19529,1.43469.03714,1.43424-.56716,1.43386.37569,1.43354-.24186,1.43327.17807,1.43307.363,1.43293-.2692,1.43286.54,1.43285-.104,1.43291-.39632,1.433-.44981,1.43323.94168,1.4335-.44758,1.43383.013,1.43425.41608,1.43474-.36509,1.43531.33183,1.436-.15592,1.43667-.76788,1.43747.87561,1.43837-.31422,1.43925-.125,1.43842.07758,1.43766.33988,1.437-.74673,1.43644.48311,1.436.1,1.43559.2187,1.43531-.11728,1.43515-.20985,1.43508.07276,1.43512-.30528,1.43528.38029,1.43555.00269,1.43593.24094,1.43643-.07276,1.43707-.38975,1.43781.07264,1.4387.08172,1.43971-.3303,1.43929.57168,1.43848-.19673,1.43781-.39622,1.43727.64538,1.4369-.92371,1.43669.52553,1.43663-.18955,1.43675-.1944,1.437.6538,1.43751-.53066,1.43816-.04755,1.439.59588,1.44-.69247,1.43986-.04392,1.439.194,1.43836.35481,1.43794-.25178,1.43776.53514,1.43782-.68117,1.43814-.02917,1.43872.72765,1.43956-.80822,1.4407.09952,1.43993-.07831,1.43915.10022,1.4387-.24992,1.43859.95621,1.43883-.178,1.43943-.76471,1.44042.59575,1.44059-.47065,1.43971.60335,1.43927-.59343,1.4393-.15528,1.43982.79183,1.434-.548,1.43447-.21744,1.43548.08215,1.43711.32432,1.4394-.36991,1.442.644,1.43963-.20386,1.438.38065,1.43726-.69591,1.43743.45274,1.43858-.36765,1.4408.36665,1.44234-.49379,1.44014.397,1.43933-.40644,1.44.35819,1.44234.35365,1.44206.03861,1.44079-.69006,1.44179.28334,1.44343-.34941,1.44182.68621,1.44351-.49587,1.44271.39351,1.44407-.00177,1.44.12061,1.44-.22306,1.44479-.35112,1.44241.53725,1.44434-.70373,1.446.83844,1.44391-.3574,1.44729-.55159,1.44963.64479,1.44962.309,1.36393-.78951.11784-1.37147.96425-1.27934.6813-1.30109.30462-1.45479.3455-1.48929.78056-1.27291,1.10995-1.03011,1.29133-.8283.2959-1.72353,1.68858-.37158.67284-1.46275,1.21029-.8572,1.50133-.40483,1.04052-1.10414,1.44675-.4084,1.17645-.93465,1.42024-.41417,1.45743-.26641,1.1707-1.18716,1.45233-.33251,1.48136-.18068,1.456-.28864,1.4908-.19175.20006-1.50288-.20735-1.42473.76132-1.42479-.98038-1.42511.30949-1.42568-.15342-1.42652.26164-1.42764-.04318-1.42688.261-1.42611.27564-1.42567L247.532,90.2387l.24556-1.42579-.27583-1.42639.282-1.42736-.54216-1.42754.52425-1.42666.05627-1.42623-.62135-1.42626.61342-1.42677-.45387-1.421-.1135-1.42147.73424-1.42247-.17179-1.42409-.42533-1.42636-.07728-1.429L247.206,68.8547l.53843-1.425-.02636-1.42424.04773-1.42441.04236-1.42554.06637-1.42775.11778-1.42926-.6705-1.4271.816-1.42628-.05292-1.427-.2512-1.42927-.42927-1.429-.01657-1.42774-.14329-1.42872.90176-1.43035-.97818-1.42876.92682-1.43043-.2328-1.42963-.47361-1.431-.11643-1.42694.16294-1.427-.04743-1.4317-.07068-1.42934.22367-1.43126-.00775-1.43287.472-1.43083-.83908-1.43417.93219-1.43649-.59423-1.43649-.63815-1.05349-.91682-1.0092-1.38235-.58006-1.56507.30155-1.45648-.29037L240.12,25.7852l-1.34554-.63664L237.678,23.98324l-1.58373-.08186-1.00224-1.21917-1.68874-.05666-1.12472-.989-.78067-1.3883-1.42572-.58432-1.18152-.90709-.76028-1.304-.69923-1.30763-.71512-1.26107-1.117-1.01715-.77354-1.25225-.86571-1.24118.298-1.653-1.10949-1.21719L222.702,7.33554l-1.23719-.6743-1.43671.69155-1.43651-.748-1.43635.47249-1.43622-.0665-1.43151-.22358-1.432.08841-1.43243-.05573-1.433-.04059-1.43353.40788-1.43414.15748L205.68769,7.083l-1.43553-.351-1.43628.456-1.4371-.68011-1.438-.005-1.43774.51338-1.437-.35292-1.43635-.22516-1.43575.4239-1.43518-.18815-1.43469.08274-1.43424-.11478L188.456,7.1962,187.02243,7.195l-1.43327-.81173-1.43307.83959-1.43294.10138-1.43285-.05646-1.43285-.03332-1.43291-.47563-1.433.32523-1.43323-.70073-1.4335.43107-1.43384-.017-1.43425.25681-1.43474-.605-1.4353.09311-1.43595.83447L165.514,7.04327l-1.43747.02624-1.43837-.62-1.43925.02939-1.43842.64913-1.43766-.48125-1.437-.14288-1.43643.31611-1.436-.29808-1.43558.44118-1.43532.12924-1.43514-.20722-1.43508.16944-1.43512-.65944-1.43528.29774-1.43555-.0792-1.43593-.06995L141.094,6.4209l-1.43706.84634-1.43781-.62617-1.4387.20069-1.43971-.26851-1.4393-.16767-1.43847.09766-1.43781.33305-1.43727-.33894-1.4369.25712L126.7143,6.711l-1.43664.477-1.43675.07959-1.437-.50871-1.4375.34007-1.43816-.01352-1.439-.46477-1.44.6299-1.43986.10566-1.439-.55742-1.43836.462L110.894,6.91274l-1.43776.2328-1.43782.16855-1.43814-.42058-1.43872.25987L103.702,6.71605l-1.4407.11191-1.43993.31654-1.43915-.72668-1.4387-.00125L96.50494,6.386l-1.43883.63277-1.43943-.54668-1.44042.54357-1.4406-.57161L89.306,7.058l-1.43927-.36967-1.4393.546L84.98757,6.635l-1.434.21528-1.43447.01239-1.43548-.46486-1.43711.12406-1.4394.52925-1.442-.452-1.43963.01447-1.438.00482-1.43726-.04974-1.43743.21891-1.43858.59227-1.44081-.92117-1.44233.6143-1.44014.13645-1.43933-.1771-1.44-.03592-1.44233-.51414-1.44206.31925-1.44079.13425L56.20451,7.116l-1.44343-.53094-1.44182.02433-1.44351.21567L50.433,6.53572,48.989,6.45261l-1.44.50847-1.44.24232-1.44479-.318-1.44241-.08619-1.44434.094-1.446.30988-1.44391.03525-1.44729-.293L36.0664,7.354Zm2.50748,115.23976-.36232-.95051.09664-1.59723-1.05388-1.1243-.89624-1.15333-.41673-1.4369-.83466-1.19174L32.532,114.11233l-.43423-1.55294-1.542-.54752-.85589-1.20074-.89928-1.19511-1.41423-.56359-1.23416-.76348-.88637-1.31153-1.32307-.6514-1.42418-.43639-1.42085-.39215-1.21216-.84949-1.41179-.38122-1.21025-.97329-1.60956.29278-1.28482-.83517-.75286-.06663.31909-1.42417-.046-1.44009-.468-1.44122.38081-1.44044-.249-1.43968.37269-1.43922-.46565-1.43912-.07645-1.43934-.26029-1.44.54234-1.44094-.11863-1.44111-.11313-1.44023.2447-1.43979-.17237-1.43983L13.7942,81.099l-.5461-1.43456.71353-1.435-.64459-1.436.00989-1.43764.64547-1.43992-.2667-1.44257.13611-1.44016-.15192-1.43854.33558-1.43778-.46281-1.438.00543-1.4391-.43657-1.44133.401-1.44286-.013-1.44066.512-1.43985-.66689-1.44053.12772-1.44285-.34217-1.44259.87445-1.44131-.12986-1.44231.00028-1.444-.35072-1.44235.13446-1.444-.168-1.44322-.00055-1.4446-.2523-1.44051.63005-1.44055.14335-1.44532L13.5637,39.318l-.43447-1.44487.91376-1.44649-.142-1.44444.12036-1.44782-.71786-1.45015.245-1.46655.824-.02156,1.40764-.394,1.28025-.79009,1.62688.24129,1.10962-1.17961,1.5571-.07714,1.1487-.98157,1.52355-.2575L25.077,26.05492l1.3953-.54161,1.20654-.8434.731-1.42682,1.01262-1.02866,1.48742-.54219.69223-1.34974.9469-1.09119,1.23766-.88458L34.797,17.25279l.08089-1.65719.97594-1.11686.7101-1.27745.41644-1.4011.40038-.1664,1.2649-.222,1.43515-.47362,1.43564.143,1.43616.10917,1.43674.26063,1.43736-.27232,1.438.379,1.43874-.13776,1.43951.04361,1.44032.03461,1.44119.01553,1.441.00144,1.44025-.34633,1.43957-.33979,1.439.65,1.4384-.66744,1.43791.10685L63.098,11.673l1.43708-.67241,1.43674-.17069,1.43649-.11039,1.43628.48585,1.43614.07294,1.43607.3427,1.43606.0415,1.43612-.21592,1.43625-.19529,1.43644.03715,1.43671-.56716,1.437.37568,1.43746-.24186,1.438.17808,1.43852.363,1.43916-.26921,1.43989.54,1.4407-.104,1.44159-.39631,1.44248-.44981,1.44163.94167,1.44088-.44758,1.44022.013,1.43965.41609L99.0547,11.275l1.4388.33183,1.43853-.15592,1.43836-.76788,1.4383.87561,1.43834-.31422,1.43849-.125,1.43876.07758,1.43915.33989,1.43966-.74673,1.44028.48311,1.441.1,1.44191.21869,1.44294-.11728,1.44252-.20984,1.4417.07275,1.441-.30528,1.44049.3803,1.44013.00268,1.4399.24094,1.43986-.07275,1.44-.38975,1.44025.07263,1.44073.08173,1.44138-.3303,1.44223.57167,1.44326-.19672,1.44309-.39622,1.44222.64537,1.44158-.9237,1.44117.52553,1.441-.18955,1.44105-.19441,1.44136.6538,1.44194-.53065,1.44279-.04755,1.44392.59587,1.44315-.69246,1.44238-.04392,1.44193.194,1.44181.3548,1.442-.25177,1.44266.53514,1.44365-.68117,1.44382-.02918,1.44293.72765,1.4425-.80822,1.44252.09952,1.443-.07831,1.43725.10022,1.43768-.24991,1.4387.9562,1.44033-.178,1.44262-.7647,1.44528.59575,1.44286-.47066,1.44124.60335,1.44049-.59343,1.44065-.15528,1.4418.79184,1.444-.548,1.44557-.21745,1.44337.08216,1.44255.32432,1.44323-.36992,1.44557.644,1.44529-.20387,1.444.38066,1.445-.69591,1.44666.45274,1.44506-.36766,1.44674.36665,1.44594-.49379,1.4473.39705,1.44322-.40645,1.44326.3582,1.448.35365,1.44564.0386,1.44758-.69,1.44921.28333,1.44715-.34941,1.45053.68621L217.342,11.022l1.37167.37887.08008.48021.41794,1.41828.815,1.24338.99266,1.11713.30007,1.52451,1.404.798.22658,1.66532,1.22821.88162,1.396.66775.60352,1.46583.90958,1.19656,1.34749.66628,1.56427.3053.88188,1.29734,1.1506.93348,1.43048.42974,1.47057.2892,1.32166.577,1.23822.81452,1.228.93239,1.66688-.48875,1.18275,1.24225,1.08249-.33156-.035,1.54667-.51667,1.44008.39822,1.44123-.33313,1.44044.33193,1.43968-.1715,1.43922L242.074,40.7131l.781,1.43936-.05,1.44-.13647,1.44094.04151,1.44112-.58609,1.44022.35943,1.43979.20732,1.43983-.76134,1.44033.98036,1.43457-.30951,1.435.1534,1.436-.26165,1.43763.04316,1.43992-.26107,1.44257-.27567,1.44015.53851,1.43855-.24557,1.43778.27581,1.438-.282,1.4391.54214,1.44133L242.303,70.938l-.05629,1.44067.62134,1.43985-.61345,1.44052.45386,1.44287.11347,1.44258-.73426,1.44131.17177,1.44231.42532,1.444.07725,1.44235.10054,1.444-.53846,1.44322.02635,1.44459-.04775,1.44052-.04238,1.44055-.0664,1.44531-.11779,1.44293.67047,1.44488-.816,1.44649.0529,1.44443.25118,1.44782.42925,1.45016-.00746,1.559-.89773.46142-1.63724-.50887-1.11441,1.35523-1.67769-.40374-1.2854.749L234.899,105.4765l-1.24749.73441-1.34848.53964-1.21945.7783-1.16992.84817-1.30562.66165-1.13481.90441-1.41376.60044-.47251,1.60941-1.67763.412-.50273,1.49724-.686,1.29142-1.2103.92347-1.05567,1.07735-.135,1.584-.5161,1.347-.49053,1.349-.45282.68995-1.50008-.63483-1.43515.61339-1.43564-.59181-1.43617.834-1.43673-.17829-1.43736-.62426-1.438.48882-1.43874.17023-1.43951-.32081-1.44032-.27873-1.44119-.14469-1.441.4222-1.44025.108-1.43957.30174-1.439-.82516-1.43841.76083-1.4379-.2545-1.43745-.24024-1.43708.69155-1.43674-.748-1.43649.47249-1.43628-.0665-1.43614-.22358-1.43607.08841-1.43606-.05572-1.43612-.04059-1.43625.40788-1.43644.15747-1.43671-.26163-1.437-.351-1.43747.456-1.438-.6801-1.43852-.005-1.43916.51338-1.43989-.35291-1.4407-.22517-1.44159.4239-1.44248-.18814-1.44163.08273-1.44089-.11478-1.44021.55434-1.43965-.00122-1.43918-.81173-1.4388.83959-1.43853.10139-1.43836-.05646-1.4383-.03333-1.43834-.47563-1.43849.32523-1.43877-.70073-1.43914.43107-1.43966-.017-1.44028.25682-1.441-.605-1.44192.09311-1.44293.83447-1.44252-.33354-1.44171.02625-1.441-.62-1.4405.02939-1.44012.64913-1.4399-.48124-1.43986-.14289-1.44.31611-1.44026-.29807-1.44072.44117-1.44138.12925-1.44223-.20722-1.44326.16943-1.44309-.65944-1.44223.29774-1.44158-.0792-1.44116-.06994-1.441-.12287-1.44105.84634-1.44136-.62618-1.44194.20069-1.44279-.2685-1.44392-.16767-1.44316.09766-1.44237.33305-1.44193-.33894-1.44181.25712-1.442-.04343-1.44266.477-1.44365.07959-1.44382-.50871-1.44293.34007-1.4425-.01352-1.44252-.46477-1.443.6299-1.43725.10566-1.43768-.55742-1.4387.462-1.44033-.34807-1.44262.2328-1.44528.16855-1.44286-.42057-1.44124.25986-1.44049-.43733-1.44065.11191-1.4418.31654-1.444-.72667-1.44557-.00126-1.44337-.03054-1.44255.63277-1.44323-.54668-1.44557.54356-1.44529-.57161-1.444.61388-1.445-.36967-1.44666.546-1.44506-.59926-1.44674.21527-1.44594.01239-1.4473-.46485-1.44322.124-1.44326.52926-1.448-.45195-1.44564.01446-1.44758.00482-1.44921-.04974-1.44715.21891-1.45053.59227-1.51238-.917ZM40.11519,13.36841l-.91489.1333-1.2267.46022-.15874,1.484-.45847,1.37643-1.075,1.01476L35.495,19.01434l-.69069,1.25875-1.42674.64484-.40852,1.53946-1.20461.80363-1.25386.713L29.702,25.20818l-1.07184.93988-1.50886.30328-1.12023.85044-1.07169.96038-1.12831.90321-1.40667.35376-1.23581.7129-1.50584.02925-1.08528,1.17407-1.50139-.03686-1.02412.8257-.7196,1.217.046,1.44285.468,1.4424-.38081,1.44228.249,1.44253-.3727,1.44313.46566,1.44412.07644,1.44429.2603,1.44341-.54235,1.443.11863,1.443.11313,1.44352-.2447,1.43772.17237,1.43816-.28782,1.43916.5461,1.44081-.71352,1.44309.64458,1.44576-.00989,1.44333-.64547,1.44171.2667,1.441-.13611,1.44112.15192,1.44228-.33558,1.4445.46281,1.446-.00543,1.44384.43657,1.443-.401,1.4437.013,1.446-.512,1.44577.66689,1.44449-.12772,1.44549.34217,1.44714-.87444,1.44553.12985,1.44722L15.36267,83.959l.35072,1.44778-.13447,1.44369.168,1.44373.00055,1.4485.25229,1.44612-.63005,1.448-.14335,1.44969L15.694,95.5342l.43446,1.451-.91376,1.45335.142,1.45335.36317,1.45721,1.46347.191,1.28242.65879,1.27033.64744,1.32268.49174,1.4555.21417.94045,1.296,1.57237.04626.94289,1.1877,1.39386.436.872,1.21,1.3681.52244.88472,1.13675,1.02382.95373,1.47346.522,1.05248.97744.42252,1.49629,1.19418.871.79453,1.18264.35834,1.43636.47557,1.32962,1.31966.93805.42521,1.00012,1.0867.43675,1.43619-.11587,1.43681.49635,1.43748-.253,1.43819-.47362,1.439.143,1.43978.10917,1.44063.26063,1.44042-.27232,1.4397.379,1.439-.13776,1.43842.04361,1.43785.03461,1.43736.01553,1.43691.00144,1.43652-.34633,1.4362-.33979,1.43594.65,1.43574-.66744,1.43559.10685,1.43552.75466,1.43552-.67241,1.43557-.17069,1.4357-.11039,1.4359.48585,1.43616.07294,1.4365.3427,1.43692.0415,1.43741-.21592,1.438-.19528,1.43862.03714,1.43934-.56716,1.44015.37568,1.441-.24186,1.44193.17808,1.44109.363,1.44033-.26921,1.43967.54,1.4391-.104,1.43863-.39631,1.43826-.44981,1.438.94168,1.43781-.44759,1.43775.013,1.43779.41609,1.438-.36509,1.43821.33183,1.4386-.15592,1.43911-.76788,1.43973.87561,1.44049-.31422,1.44137-.125,1.44239.07758,1.442.33989,1.44116-.74673,1.44047.48311,1.43995.1,1.43957.21869,1.43936-.11728,1.43931-.20984,1.43942.07275,1.43971-.30528,1.44018.3803,1.44083.00268,1.44168.241,1.44271-.07276,1.44254-.38975,1.44168.07263,1.441.08173,1.44061-.3303,1.44044.57167,1.44049-.19672,1.44082-.39622,1.44139.64537,1.44224-.9237,1.44337.52553,1.44261-.18955,1.44183-.19441,1.44137.6538,1.44127-.53065,1.4415-.04755,1.44211.59587,1.4431-.69246,1.44327-.04392,1.44238.194,1.442.35481,1.442-.25178,1.4425.53514,1.43671-.68117,1.43713-.02918,1.43815.72765,1.43978-.80822,1.44208.09952,1.44473-.07831,1.44231.10023,1.44069-.24992,1.43994.9562,1.4401-.178,1.44125-.7647,1.44348.59575,1.445-.47066,1.44282.60336,1.442-.59344,1.44269-.15528,1.445.79184,1.44474-.548,1.44347-.21745,1.44447.08216,1.44611.32432,1.44451-.36992,1.4462.644,1.44538-.20387,1.44676.38066,1.44267-.69591,1.4427.45274,1.44748-.36766,1.44509.36665,1.447-.49379,1.44866.39705,1.4466-.40645,1.45.3582,1.45232.35365,1.45232.0386.93743-.96892.89194-.632.29174-1.43719,1.27487-.92114.30851-1.46278,1.11961-.94786.84411-1.12114.98978-.99832.78463-1.18453.75775-1.24725,1.40695-.55141.64-1.446,1.63263-.18852.9475-1.09553.90294-1.22992,1.55162-.15851,1.38256-.3858,1.12669-.8911,1.03442-1.17939,1.54422.03811,1.39922-.268,1.25416-.70979.748-.96407.33036-.99188.311-1.44285.4832-1.4424-.94715-1.44228.90778-1.44253-.66872-1.44313.05881-1.44412.51664-1.44429-.39823-1.44341.33311-1.443-.332-1.443.17148-1.44352.25254-1.43772-.78106-1.43815.05-1.43917.13645-1.44081-.04154-1.44309.58608-1.44576-.35945-1.44333-.20734-1.44171.76132-1.441-.98038-1.44112.30949-1.44228-.15342-1.4445.26164-1.446-.04319-1.44384.26106-1.443.27564-1.4437-.53853-1.446.24555-1.44577-.27582-1.44449.282-1.44549-.54216-1.44714.52424-1.44553.05628-1.44722-.62136-1.44641.61342-1.44778-.45387-1.44369-.1135-1.44373.73425-1.4485-.17179-1.44612-.42534-1.44805-.07727-1.44969-.10056-1.44762.53844-1.451-.02637-1.45335.04773-1.45335-.38649-1.29239-1.09755-.84323-1.30491-.53618-1.55814.15777-1.01266-1.27876-1.302-.51388-1.37269-.3857-1.45163-.28629-1.23944-.70357-1.28168-.64749-.64437-1.54768-1.71831-.07824-.49713-1.61734-1.19322-.76861-1.338-.66164-1.05245-.97458-.79012-1.2017-.897-1.10981-.86145-1.14233L218.9032,16.675l-.67972-1.24652-.17374-1.47427-1.32862-.32335-.83054-1.17925-1.43619.59422-1.43681.24592-1.43747-.47322-1.4382-.34126-1.439.62557-1.43978.0918-1.44063.02771-1.44042-.1337-1.4397-.64672-1.439.61339-1.43841-.59181-1.43785.834-1.43736-.17829-1.43691-.62426-1.43652.48882-1.4362.17023-1.43594-.32081-1.43574-.27873-1.43559-.14468-1.43553.42219-1.43551.108-1.43557.30174-1.4357-.82516-1.4359.76083-1.43616-.2545-1.43651-.24024-1.43691.69155-1.43741-.748-1.438.47249-1.43862-.0665-1.43934-.22358-1.44015.08841-1.441-.05572-1.44193-.04059-1.44109.40788-1.44033.15747-1.43967-.26163-1.4391-.351-1.43863.456-1.43826-.6801-1.438-.005-1.43781.51338L154.058,12.6848l-1.43779-.22517-1.438.4239-1.43821-.18814-1.43861.08273-1.4391-.11478-1.43974.55434-1.44048-.00122-1.44137-.81173-1.44239.83959-1.442.10139-1.44116-.05646-1.44047-.03333-1.44-.47563-1.43957.32524-1.43936-.70074-1.43931.43107-1.43942-.017-1.43971.25681-1.44018-.605-1.44083.09311-1.44168.83447-1.44271-.33354-1.44254.02625-1.44168-.61995-1.441.02939-1.44061.64912-1.44044-.48124-1.44049-.14289-1.44082.31611-1.44139-.29807-1.44224.44117-1.44338.12925-1.4426-.20722-1.44183.16944-1.44138-.65945-1.44126.29774-1.4415-.07919-1.44211-.07-1.4431-.12287-1.44327.84634L94.982,12.66255l-1.442.20069-1.442-.2685-1.4425-.16767-1.43671.09766-1.43713.33305-1.43815-.33894-1.43978.25712-1.44208-.04343-1.44473.477-1.44231.07959L79.134,12.78038l-1.43994.34007-1.4401-.01352-1.44126-.46477-1.44347.62991-1.445.10565-1.44282-.55742-1.442.462-1.44269-.34806-1.445.23279-1.44474.16855L63.26347,12.915l-1.44446.25986-1.44611-.43733-1.44451.11192-1.4462.31653-1.44538-.72667-1.44676-.00125-1.44267-.03055-1.4427.63277L50.2572,12.4936l-1.44509.54356-1.447-.57161-1.44866.61388-1.4466-.36967-1.45.546-1.49133-.59616Z"/></g><g class="cls-4"><path class="cls-5" d="M368.88657,291.14034c62.079,7.34008,124.69752-6.91387,184.3214-25.6935,37.23925-11.72918,74.28565-25.44712,106.92492-46.87172,36.40925-23.89923,66.42017-56.79234,103.75494-79.21824,66.30506-39.82751,151.91873-44.48249,210.13268-95.41112,42.497-37.17863,63.80416-97.10163,54.319-152.76383-13.672-80.23206-83.47241-138.95415-155.49993-176.85061-41.77192-21.97782-86.431-39.91366-122.42135-70.45231-64.12889-54.41479-95.04462-144.05-167.69866-186.41593-39.68181-23.13922-86.78785-28.92488-132.41555-34.23365-47.0609-5.47551-94.91675-10.93334-141.57839-2.72354-34.46189,6.06333-67.2192,19.429-98.7638,34.57242-29.99932,14.40162-60.25881,31.4267-79.38663,58.65706-11.43448,16.27814-18.25636,35.41789-22.437,54.86647C79.56179-298.4599,169.98058-163.28229,149.21744-28.90192c-4.777,30.91723-15.37066,60.73323-19.7484,91.70951s-1.67256,64.88433,17.39653,89.685c16.26258,21.15057,38.65044,26.2578,59.86848,39.6942,16.6798,10.56254,25.57112,31.53448,40.6667,45.54521C280.35669,268.31958,324.57829,285.90143,368.88657,291.14034Z"/></g></svg>