<svg id="圖層_1" data-name="圖層 1" xmlns="http://www.w3.org/2000/svg" viewBox="0 0 82.67822 251.00049"><defs><style>.cls-1{fill:#333;}.cls-2{fill:none;stroke:#333;stroke-miterlimit:10;}</style></defs><title>kyotokimono REMAKE-和服介紹</title><path class="cls-1" d="M66.68242,18.22814l.02734,3.78027c1.68066.50391,2.24023.75586,2.24023,1.56738,0,1.76465-1.28808,2.91211-7.22363,2.91211H52.6541c-4.64747,0-6.66407-1.2041-6.66407-5.23535V10.33263a20.76745,20.76745,0,0,1-3.416,2.09961l-.19531-.19629A31.124,31.124,0,0,0,49.09843.56017L54.6707,1.68028c-.11231.33594-.33692.50391-1.12012.47559A27.17288,27.17288,0,0,1,51.98222,4.3961h5.0957l2.044-2.07128,3.55664,3.27539a1.55524,1.55524,0,0,1-1.12012.39257,27.564,27.564,0,0,1-5.292,3.35938h4.89941l1.54-2.01563L66.7664,10.192a1.9511,1.9511,0,0,1-1.23242.67188v6.80469c0,.02734-1.0918,1.00781-4.05957,1.00781v-1.876H49.9666v4.5918c0,.98047.64355,1.3164,2.57519,1.3164h8.84863c2.6875,0,3.08008-.02832,5.06739-4.48046Zm-11.28418-8.876a26.99783,26.99783,0,0,0,1.876-4.50781H51.64628A33.19163,33.19163,0,0,1,48.1746,8.54064l2.1836.81152ZM49.9666,9.8004v6.55176h3.80761V9.8004Zm11.50781,0h-3.8086v6.55176h3.8086Z"/><path class="cls-1" d="M51.5623,37.91271a5.63594,5.63594,0,0,0-1.40039-2.46485l.168-.168c3.94824.58887,5.26465,2.15625,5.26465,3.47266a2.184,2.184,0,0,1-2.12793,2.12793,2.08852,2.08852,0,0,1-1.59668-.78418,9.3364,9.3364,0,0,0-.084-1.23242c-1.5957.89648-3.72363,2.04394-6.63574,3.44433a1.24825,1.24825,0,0,1-.81152.7002L42.49,38.8922l2.63184-.252V30.38048l3.332,1.2041a35.7122,35.7122,0,0,0,4.00391-2.91211l3.5,3.21973a1.12769,1.12769,0,0,1-.72754.19629,3.29814,3.29814,0,0,1-1.14844-.22461,44.12657,44.12657,0,0,1-5.31934.67285v5.71191Zm13.41211-8.708,3.63965,2.6875a1.53131,1.53131,0,0,1-1.06348.53223c-.19629,5.87988-.61621,8.12011-1.876,9.04394a4.42579,4.42579,0,0,1-2.49218.95215l3.1914,2.24023A1.72349,1.72349,0,0,1,65.282,45.276v8.84863c0,.02734-1.12012.92383-4.05957.92383v-1.708H50.07792v.50391c0,.1123-.55957,1.48437-3.97558,1.48437V42.22423l4.25586,1.624h10.584l1.14844-1.51172c0-1.93261-.19629-2.7998-2.21289-3.36035v-.30761l2.26855.02734c.3916,0,.55957-.02734.72754-.168.50391-.44726.72852-2.49121.89649-7.05566H62.00663c-.36425,4.50781-1.56835,8.76367-8.93261,11.56445l-.252-.33691c4.81641-3.47168,5.06836-7.36329,5.15235-11.22754h-2.044l-.14062-.44825h7.72851ZM53.60624,44.2965H50.07792v3.97558h3.52832Zm-3.52832,4.42382V52.8922h3.52832V48.72032ZM61.22246,44.2965H57.52617v3.97558h3.69629Zm-3.69629,8.5957h3.69629V48.72032H57.52617Z"/><path class="cls-1" d="M65.198,61.51622,68.92167,64.316a1.85122,1.85122,0,0,1-1.20312.56054V81.92833c0,.22363-1.26074,1.06348-3.19238,1.06348h-.67188v-1.876h-6.748v1.00879c0,.2793-1.12011,1.11914-2.99609,1.11914h-.67187V68.71251a.76664.76664,0,0,1-.252-.02832c-.61621.47656-1.37207,1.03613-2.04394,1.45606,1.67968.78418,2.2959,1.82031,2.2959,2.71582A2.03923,2.03923,0,0,1,51.45,74.87267a1.94535,1.94535,0,0,1-1.54-.78418,7.65179,7.65179,0,0,0-.92383-3.8086V82.18028c0,.22364-1.17578,1.0918-2.96778,1.0918h-.67187v-9.6875a22.32823,22.32823,0,0,1-3.08008,2.12793l-.168-.33594c3.13574-3.13672,5.31934-7.98047,6.29981-12.292h-5.7959l-.13965-.44824h2.88379V56.70079l4.75976.44727c-.05566.39258-.30761.58789-1.12011.72851v3.94825L50.05058,60.732l3.24805,2.74414c-.168.28028-.41992.39258-1.06446.44825a23.86151,23.86151,0,0,1-3.02441,5.54394,6.24568,6.24568,0,0,1,1.09277.33594c.41993-.75586.92383-1.76367,1.39942-2.77246l1.73633.95215V62.1881l4.03222,1.48437h1.17578v-6.916l4.67578.44824c-.02832.33594-.28027.53125-.97949.64355v5.82422H63.5457Zm-6.55176,2.60449h-1.54v7.83985h1.54Zm-1.54,8.28711v8.26075h1.54V72.40782Zm6.748-8.28711H62.34257v7.83985h1.51172ZM62.34257,80.66857h1.51172V72.40782H62.34257Z"/><path class="cls-1" d="M67.074,94.24864,44.78691,86.46446V84.3922L67.074,92.17638Z"/><path class="cls-1" d="M58.534,101.55626c.30859-.53223,1.0918-.75586,2.10058-.75586,1.81934,0,3.83594,2.35156,3.83594,3.61133,0,1.624-1.40039,1.59668-2.88476,1.84863-5.376.95215-12.207,3.5-12.207,6.97168,0,2.12793,2.49121,2.40821,5.68359,2.40821,2.04394,0,5.04-.36426,5.93555-1.0918,2.15625.30762,3.91992,1.06348,3.91992,2.37988,0,1.54-1.90332,2.12793-9.63184,2.12793-3.91992,0-8.34375-1.03613-8.34375-5.46,0-3.02441,3.05176-5.208,5.51563-6.71973-1.96-.64453-1.96-3.10839-1.96-7.58886,0-.78321-.11133-1.53907-.64356-1.792a2.72516,2.72516,0,0,0-1.14844-.30761,2.22234,2.22234,0,0,0-.41992.05566l-.084-.168a2.45516,2.45516,0,0,1,2.43652-1.45605c2.32422.02832,4.00391,1.56836,4.00391,2.96875a5.85079,5.85079,0,0,1-.36426,1.708,9.32994,9.32994,0,0,0-.28027,2.57519c0,.4209,0,.84082.02832,1.14844.05566.75586.36425,1.56836.92382,1.624.95215-.47558,2.6045-1.28808,3.55664-1.708.83985-.36425,1.42774-.72754,1.42774-1.3164a1.19312,1.19312,0,0,0-1.34375-.95117Z"/><path class="cls-1" d="M54.47441,122.58458a4.15324,4.15324,0,0,1,2.18359-.72851c2.54785,0,3.668,1.12011,3.668,2.54882a31.40924,31.40924,0,0,1-.89551,4.05957c6.07617.50391,8.25977,4.5918,8.25977,8.56836,0,4.84375-3.3877,8.0918-12.7959,8.65137l-.168-.44824c6.4961-1.45508,8.73535-5.31934,8.73535-8.5957,0-3.55567-.8955-6.21582-4.42383-6.74805a32.86042,32.86042,0,0,1-3.584,8.14844,3.38033,3.38033,0,0,1,.78418,1.93164,1.4806,1.4806,0,0,1-1.25977,1.624,2.59968,2.59968,0,0,1-1.73632-.72754,7.79556,7.79556,0,0,1-5.76758,2.51953c-2.12793,0-3.61231-1.84765-3.61231-4.11621,0-3.08008,2.07227-5.68359,4.25586-7.53125-.168-.67187-.33593-1.42871-.44726-2.10058-.39258-2.044-.7002-3.61133-2.26856-4.14356l-.05566-.084a3.3803,3.3803,0,0,1,2.04394-.67188,2.94128,2.94128,0,0,1,2.93946,2.09961,13.16909,13.16909,0,0,1,.22461,2.63184,7.19849,7.19849,0,0,0,.11132.75586,18.2792,18.2792,0,0,1,5.292-1.708,19.72419,19.72419,0,0,0,.47656-3.61133,1.80421,1.80421,0,0,0-1.84863-2.04395ZM51.1707,138.51622a15.64252,15.64252,0,0,1-2.43653-4.75976,6.80175,6.80175,0,0,0-1.76367,4.48047c0,1.39941.55957,1.76367,1.23145,1.76367A4.16912,4.16912,0,0,0,51.1707,138.51622Zm-.25293-6.58008c.39258,1.73633,1.2041,3.55664,2.07226,4.2002a20.90281,20.90281,0,0,0,2.82813-6.24414A9.02056,9.02056,0,0,0,50.91777,131.93614Z"/><path class="cls-1" d="M50.10624,159.45958a76.46126,76.46126,0,0,1,9.6875-2.49121c1.68067-.30859,2.35254-.39258,3.1084-1.2041,2.94043.64355,4.45215,1.73535,4.48047,2.88379,0,.81152-.75683,1.12012-1.624,1.12012-.4209,0-2.52051-.3086-2.9961-.3086a11.44643,11.44643,0,0,0-3.94824,1.06445,5.44267,5.44267,0,0,0-3.44433,5.34766c0,2.49219,2.35254,2.54883,4.06054,2.60449A2.54241,2.54241,0,0,1,61.95,171.024c0,1.03614-1.00781,1.42774-2.01562,1.42774a12.66378,12.66378,0,0,1-4.03223-.58789c-2.4082-.75586-3.94824-2.07227-3.94824-5.124,0-2.66015,2.66016-5.76757,4.98438-7.3916l-.13965-.084A40.04053,40.04053,0,0,0,49.91,161.69982c-1.42774.67187-1.792,2.24023-4.14356,2.24023a2.34858,2.34858,0,0,1-1.76367-2.044,1.66315,1.66315,0,0,1,1.06348-1.624,13.97171,13.97171,0,0,0,3.584-1.624c2.26758-1.31641,8.792-7.22363,8.792-7.83985,0-.13964-.02832-.19628-.1123-.19628a1.37568,1.37568,0,0,0-.53125.19628,50.13292,50.13292,0,0,0-4.87207,2.15625c-.64453.47559-1.23243,1.0918-2.0166,1.0918-1.28809,0-2.77149-1.82031-2.77149-3.416a1.92911,1.92911,0,0,1,1.06348-1.76368l.168.05567a1.12964,1.12964,0,0,0-.084.41992,1.51018,1.51018,0,0,0,1.68067,1.31641,27.3295,27.3295,0,0,0,6.916-1.48438c.55957-.19629,1.14746-.75586,1.67969-.75586,1.34375,0,3.55566,1.65137,3.55566,2.6875,0,1.37207-1.14746.8125-2.66015,1.98828a90.73036,90.73036,0,0,1-9.60352,6.32813Z"/><path class="cls-1" d="M45.06621,176.51232a2.07331,2.07331,0,0,0,2.4082,1.792,11.61827,11.61827,0,0,0,2.21191-.252c2.40821-.53222,7.92383-1.56738,10.47168-1.93164a5.004,5.004,0,0,0,2.49219-.92382c2.7998.3916,4.33984,1.17578,4.36816,2.66015,0,1.23145-2.07226,1.23145-3.44433,1.23145a8.79109,8.79109,0,0,0-7.47559,4.3125,14.45282,14.45282,0,0,0-1.0918,5.40332c.02735,2.32422,1.11915,3.94824,3.89161,4.3125a8.81515,8.81515,0,0,1,1.93164.53125,2.444,2.444,0,0,1,1.54,2.57617c0,.92383-.95215,1.42871-2.07129,1.42871a3.01986,3.01986,0,0,1-.50489-.02832c-5.34765-.67187-7.7832-3.08008-7.7832-7.98047A14.131,14.131,0,0,1,58.6746,178.277v-.084a26.73517,26.73517,0,0,0-7.53222,2.09961,11.76291,11.76291,0,0,0-1.76367,1.06348,2.66837,2.66837,0,0,1-1.5127.61621,4.10772,4.10772,0,0,1-3.668-3.8916,2.84387,2.84387,0,0,1,.58789-1.59571Zm15.65234,6.35644c2.15527.25195,4.2832,1.31543,4.2832,2.77149,0,.61621-.252,1.23242-1.00781,1.23242a1.11655,1.11655,0,0,1-1.0918-.8125,4.57225,4.57225,0,0,0-2.35156-2.88379Zm2.91211-2.2959c2.18359.22364,4.31152,1.31543,4.31152,2.77149,0,.56054-.25195,1.2041-.98047,1.2041a1.12544,1.12544,0,0,1-1.11914-.83985,4.43742,4.43742,0,0,0-2.38086-2.85644Z"/><path d="M10.909,6.22716v-1.707a3.73134,3.73134,0,0,0-.10645-1.13867.62325.62325,0,0,0-.501-.3418q-.40429-.0791-.64453-.14648L9.51054,2.858V2.08849l1.98438.38672V11.735L9.51054,11.3463v-.76953l.14649.02148c.17578.02539.38964.0625.64453.11133a1.82541,1.82541,0,0,0,.3291.0293c.18555,0,.27832-.42383.27832-1.26758V7.76622l-8.35352-1.666A5.59021,5.59021,0,0,0,1.50566,5.983a.27261.27261,0,0,0-.28613.17187,3.99058,3.99058,0,0,0-.10352.88282l-.00684.31445-.4541-.08789V2.64318l.4541.09375.00684.3164a3.405,3.405,0,0,0,.11719.9668q.08789.293,1.31836.541Z"/><path d="M.47148,13.76232a2.434,2.434,0,0,1,.68945-1.88868,2.96211,2.96211,0,0,1,2.05957-.63086,5.74672,5.74672,0,0,1,3.88965,1.46485,4.39345,4.39345,0,0,1,1.68164,3.39258,2.52523,2.52523,0,0,1-.68457,1.92968,2.92226,2.92226,0,0,1-2.05664.64063,5.71794,5.71794,0,0,1-3.89941-1.48047A4.45564,4.45564,0,0,1,.47148,13.76232Zm.55664.375q0,1.16309,1.54785,2.05078a7.04782,7.04782,0,0,0,3.5625.88476,2.94885,2.94885,0,0,0,1.57324-.33593,1.12788,1.12788,0,0,0,.52344-1.01758q0-1.13673-1.583-2.01563a7.37,7.37,0,0,0-3.63672-.8789,2.55308,2.55308,0,0,0-1.43359.36718A1.09585,1.09585,0,0,0,1.02812,14.13732Z"/><path d="M.65507,19.8795l6.05664,1.207a5.627,5.627,0,0,0,1.041.11719c.15527,0,.251-.04492.28515-.13476a5.49941,5.49941,0,0,0,.10938-.91993l.00781-.13281.4541.08789v2.8086l-3.23144-.64453Q8.785,24.45373,8.785,26.24864a1.13742,1.13742,0,0,1-.34083.9043,1.51077,1.51077,0,0,1-1.02832.30078,6.93986,6.93986,0,0,1-1.04687-.16211l-.98926-.1875q3.41309,2.30274,3.41211,4.041a1.08481,1.08481,0,0,1-.36523.89453,1.738,1.738,0,0,1-1.10645.29687,5.58738,5.58738,0,0,1-1.00293-.13281l-3.76562-.74219a5.649,5.649,0,0,0-1.04688-.11718c-.15625,0-.252.04492-.28613.13476a5.20934,5.20934,0,0,0-.10254.91211l-.00684.13867-.4541-.09375V29.63536l6.09375,1.21485a2.398,2.398,0,0,0,.418.05078.698.698,0,0,0,.41309-.09961.3422.3422,0,0,0,.13574-.29688A3.052,3.052,0,0,0,6.67949,28.817a10.8939,10.8939,0,0,0-2.332-1.87109L.65507,26.20568V24.75646L6.74882,25.9713a2.2203,2.2203,0,0,0,.418.05078.699.699,0,0,0,.41309-.09765.34221.34221,0,0,0,.13574-.29688,3.01095,3.01095,0,0,0-1.0332-1.67969,11.47365,11.47365,0,0,0-2.374-1.89258L.65507,21.32677Z"/><path d="M1.92265,40.07872A7.28571,7.28571,0,0,1,.47148,36.21153a2.24407,2.24407,0,0,1,.75488-1.77539A2.965,2.965,0,0,1,3.25468,33.774a5.65794,5.65794,0,0,1,3.83789,1.49415,4.41185,4.41185,0,0,1,1.69922,3.36914,1.68076,1.68076,0,0,1-.42773,1.17773,1.41045,1.41045,0,0,1-1.08789.46875,2.85247,2.85247,0,0,1-2.42774-1.36133,6.84072,6.84072,0,0,1-1.05859-3.63281l-.373-.01563a2.42641,2.42641,0,0,0-1.582.43946,1.618,1.618,0,0,0-.52734,1.31836,5.46924,5.46924,0,0,0,1.25976,3.17968Zm2.292-4.75976A4.77255,4.77255,0,0,0,5.075,37.93028a2.30328,2.30328,0,0,0,1.90039.94727,1.36375,1.36375,0,0,0,.87891-.24023.89.89,0,0,0,.293-.72657,2.06125,2.06125,0,0,0-1.10938-1.69922A6.09267,6.09267,0,0,0,4.21464,35.319Z"/><path d="M1.09453,41.01036l1.8164.35938v.71679l-.13183-.01367c-.4834-.06445-.75977-.0957-.82715-.0957q-.38966,0-.707.53125a2.27379,2.27379,0,0,0-.31836,1.19336A1.52177,1.52177,0,0,0,1.326,44.774a1.29474,1.29474,0,0,0,.99316.4336,1.85633,1.85633,0,0,0,1.23145-.60938l.80664-.76172a3.86937,3.86937,0,0,1,2.28711-1.332,1.88715,1.88715,0,0,1,1.543.75782,3.02375,3.02375,0,0,1,.60449,1.94531,4.726,4.726,0,0,1-.53418,2.19726L6.493,47.05333v-.71875l.13086.01563c.23926.02929.41309.05273.52051.07226a2.05323,2.05323,0,0,0,.374.04492.68045.68045,0,0,0,.62207-.34179,2.01536,2.01536,0,0,0,.20508-1.02149,1.19854,1.19854,0,0,0-.38867-.9082,1.34519,1.34519,0,0,0-.96-.36523,1.98162,1.98162,0,0,0-1.29785.71679l-.75586.76172a3.43971,3.43971,0,0,1-2.27246,1.252,1.91031,1.91031,0,0,1-1.59375-.791,3.35575,3.35575,0,0,1-.60547-2.09375,5.65355,5.65355,0,0,1,.1582-1.31055A7.55814,7.55814,0,0,1,1.09453,41.01036Z"/><path d="M.47148,50.69982a2.43853,2.43853,0,0,1,.68945-1.89063,2.96187,2.96187,0,0,1,2.05957-.62891,5.74672,5.74672,0,0,1,3.88965,1.46485,4.38975,4.38975,0,0,1,1.68164,3.39062,2.52234,2.52234,0,0,1-.68457,1.92969,2.91309,2.91309,0,0,1-2.05664.64063,5.71609,5.71609,0,0,1-3.89941-1.47852A4.45564,4.45564,0,0,1,.47148,50.69982Zm.55664.373q0,1.16309,1.54785,2.05078a7.04865,7.04865,0,0,0,3.5625.88672,2.947,2.947,0,0,0,1.57324-.33789,1.12787,1.12787,0,0,0,.52344-1.01758q0-1.13672-1.583-2.01367a7.37,7.37,0,0,0-3.63672-.8789,2.553,2.553,0,0,0-1.43359.36523A1.09584,1.09584,0,0,0,1.02812,51.07286Z"/><path d="M.65507,61.46739l3.33594.66407a9.56818,9.56818,0,0,1-2.55664-2.02539,3.31714,3.31714,0,0,1-.96289-2.084,1.4523,1.4523,0,0,1,.46191-1.17383,2.08509,2.08509,0,0,1,1.37891-.39062A6.86141,6.86141,0,0,1,6.743,58.13341a4.72452,4.72452,0,0,1,2.04883,3.625,7.69438,7.69438,0,0,1-.1748,1.29492l1.70605.33985a5.18237,5.18237,0,0,0,1.04688.125c.15625,0,.25195-.04688.28613-.13868a5.312,5.312,0,0,0,.10254-.916l.00781-.13281.45313.08789V65.2213l-9.667-1.92773a5.19036,5.19036,0,0,0-1.04785-.125c-.15625,0-.251.04687-.28515.13867a5.15954,5.15954,0,0,0-.10352.916l-.00684.13282-.4541-.08789Zm4.44336.88477,2.58008.5293a3.91276,3.91276,0,0,0,.43262-1.78516A2.07808,2.07808,0,0,0,7.1082,59.319,7.54389,7.54389,0,0,0,4.991,58.3795a8.43011,8.43011,0,0,0-2.38086-.39257,1.43833,1.43833,0,0,0-.791.17578.5915.5915,0,0,0-.26367.52734Q1.55546,60.08459,5.09843,62.35216Z"/><path d="M1.92265,71.97521A7.28576,7.28576,0,0,1,.47148,68.108a2.244,2.244,0,0,1,.75488-1.77539,2.96494,2.96494,0,0,1,2.02832-.66211,5.658,5.658,0,0,1,3.83789,1.49414A4.41186,4.41186,0,0,1,8.79179,70.5338a1.68074,1.68074,0,0,1-.42773,1.17773,1.41045,1.41045,0,0,1-1.08789.46875A2.85249,2.85249,0,0,1,4.84843,70.819a6.84076,6.84076,0,0,1-1.05859-3.63282l-.373-.01562a2.42641,2.42641,0,0,0-1.582.43945,1.618,1.618,0,0,0-.52734,1.31836A5.46927,5.46927,0,0,0,2.56718,72.108Zm2.292-4.75977A4.77259,4.77259,0,0,0,5.075,69.82677a2.30327,2.30327,0,0,0,1.90039.94726,1.36369,1.36369,0,0,0,.87891-.24023.89.89,0,0,0,.293-.72656A2.06124,2.06124,0,0,0,7.03788,68.108,6.09267,6.09267,0,0,0,4.21464,67.21544Z"/><line class="cls-2" x1="28.67822" x2="28.67822" y2="251.00049"/><line class="cls-2" x1="82.67822" x2="82.67822" y2="251.00049"/></svg>