<svg id="圖層_1" data-name="圖層 1" xmlns="http://www.w3.org/2000/svg" viewBox="0 0 57.58652 54.83496"><defs><style>.cls-1{fill:#fff;}</style></defs><title>kyotokimono REMAKE-和服介紹</title><polygon class="cls-1" points="28.834 5.242 28.102 4.056 26.317 3.669 25.571 2.193 24.377 1.185 23.108 0.009 22.904 1.755 21.936 3.028 21.355 4.467 21.209 5.995 21.378 7.53 21.857 9.008 22.366 10.403 22.293 11.976 22.928 13.36 23.057 14.909 23.417 16.397 23.909 17.845 25.224 18.892 25.484 20.47 26.17 21.871 27.674 22.571 28.894 23.656 30.049 22.544 31.394 21.934 32.365 20.848 33.233 19.673 34.108 18.483 33.929 16.801 35.074 15.717 35.721 14.391 36.262 13.016 35.82 11.43 36.41 10.059 36.517 8.672 36.092 7.304 35.997 5.949 36.282 4.485 35.262 3.341 35.407 1.811 34.121 0.924 33.544 0 32.888 0.946 31.52 1.778 30.686 3.06 29.512 4.101 28.834 5.242"/><polygon class="cls-1" points="7.33 21.296 5.793 22.338 3.996 22.259 2.701 23.149 1.338 23.922 0 24.99 1.424 25.888 2.449 27.05 3.822 27.685 5.127 28.475 6.684 28.597 8.17 28.738 9.572 29.457 11.088 29.373 12.598 29.084 14.106 29.466 15.617 29.433 17.072 28.843 18.638 29.239 20.025 28.506 21.505 28.28 23.011 27.912 23.859 26.641 23.749 25.273 23.479 23.81 22.682 22.578 21.575 21.603 20.743 20.402 19.704 19.388 18.573 18.474 17.573 17.366 15.992 17.128 14.9 16.131 13.423 15.858 12.448 14.591 10.904 14.886 9.57 14.657 8.223 14.575 6.879 14.333 5.453 13.653 4.164 14.486 3.149 15.032 3.698 16.061 4.223 17.527 5.189 18.716 5.849 20.131 7.33 21.296"/><polygon class="cls-1" points="15.001 47.089 15.362 48.425 15.951 49.899 15.504 51.567 16.426 52.967 16.455 54.835 17.985 53.757 18.88 52.52 20.212 51.769 20.944 50.43 22.307 49.599 22.861 48.173 23.302 46.757 24.224 45.503 24.651 44.053 24.752 42.51 25.328 41.116 26.119 39.755 25.906 38.186 25.898 36.697 26.244 35.239 26.672 33.64 25.367 32.679 24.195 31.617 22.692 31.867 21.449 32.848 20.06 33.194 18.768 33.815 17.43 34.359 16.223 35.153 14.873 35.76 13.562 36.469 12.752 37.763 11.731 38.798 11.194 40.133 9.761 40.815 9.59 42.319 8.356 43.278 8.324 44.76 8.214 46.149 8.106 47.491 7.977 48.677 9.265 48.554 10.799 48.399 12.105 47.461 13.695 47.412 15.001 47.089"/><polygon class="cls-1" points="42.085 47.069 43.677 46.835 45.2 47.142 46.636 48.18 48.254 47.726 49.769 47.87 49.283 46.525 48.782 45.139 48.377 43.681 47.621 42.38 46.83 41.094 45.889 39.908 45.025 38.581 43.311 38.297 42.369 37.053 40.98 36.406 39.793 35.479 38.755 34.276 37.355 33.665 35.848 33.331 34.587 32.358 33.031 32.12 31.677 32.852 30.462 33.748 30.851 35.317 30.267 36.703 29.993 38.179 30.367 39.614 31.294 40.903 31.245 42.389 31.328 43.887 31.732 45.303 32.865 46.396 33.117 47.9 34.06 48.961 35.288 49.746 36.079 50.846 36.739 52.154 37.748 53.141 39.334 53.23 40.525 53.808 41.652 54.646 41.586 53.12 42.382 51.643 41.623 50.103 41.754 48.579 42.085 47.069"/><polygon class="cls-1" points="50.208 21.623 51.072 19.996 52.023 18.73 52.189 17.09 53.168 15.831 53.96 14.329 52.282 14.036 50.795 14.349 49.25 14.161 47.943 15.22 46.264 14.828 44.821 15.377 43.91 16.845 42.286 17.104 41.086 18.031 39.722 18.74 38.735 19.935 37.529 20.849 36.504 21.962 35.55 23.128 34.555 24.253 33.65 25.499 33.923 26.952 34.445 28.239 35.686 29.032 37.069 29.499 38.37 30.286 39.834 30.496 41.286 30.731 42.786 30.072 44.224 30.617 45.676 30.486 47.147 30.49 48.491 29.707 49.788 29.309 51.314 29.498 52.445 28.61 53.853 28.274 55.052 27.525 55.75 26.175 57.014 25.491 57.587 24.225 56.282 23.566 55.056 22.498 53.397 22.613 52.078 21.723 50.208 21.623"/></svg>