<svg id="圖層_1" data-name="圖層 1" xmlns="http://www.w3.org/2000/svg" viewBox="0 0 82.23309 251.00537"><defs><style>.cls-1{fill:#333;}.cls-2{fill:none;stroke:#333;stroke-miterlimit:10;}</style></defs><title>kyotokimono REMAKE-和服介紹</title><path class="cls-1" d="M49.27,5.26856l.41992.11231c-1.00781,4.08789-2.85547,12.01172-2.85547,14v.168c.05469,1.56738,1.25977,2.49219,1.25977,4.92773a2.51773,2.51773,0,0,1-2.60449,2.77149,1.69176,1.69176,0,0,1-1.73535-1.4834,20.092,20.092,0,0,0,.36328-3.69629c0-2.49219-.41992-2.93945-2.01563-3.08008v-.50391c.92383,0,1.23242-.02734,1.23242-.02734v.02734c.41993,0,.53125,0,.83985-.58789.44726-.78418.55957-.97949,2.4082-5.76757a2.16819,2.16819,0,0,1-1.73633.95214,1.99609,1.99609,0,0,1-1.56836-.78418A7.05141,7.05141,0,0,0,41.79339,8.125l.19629-.14063c3.97558.5879,5.09668,2.12793,4.89941,3.38868ZM43.1098.92872c3.94824.55957,5.26367,2.04395,5.26367,3.30371a2.14893,2.14893,0,0,1-2.127,2.04395,2.04342,2.04342,0,0,1-1.59668-.78418,9.04746,9.04746,0,0,0-1.73535-4.42383Zm4.92773,18.33984A24.278,24.278,0,0,0,54.78558,6.72462l5.40429,1.28809c-.084.36425-.39257.55957-1.28808.64355,2.07129,2.96875,6.832,5.32031,9.96777,6.41211l-.02734.41992a4.72326,4.72326,0,0,0-2.96875,3.69629,5.64655,5.64655,0,0,1-.75586-.47559v7.55957c0,.168-1.23242.83985-3.27539.83985H61.1137V24.95216H55.37347v1.3164c0,.252-1.14746,1.06446-3.10742,1.06446h-.7002V17.47657a27.51331,27.51331,0,0,1-3.36035,2.044ZM57.67034,3.11231c-.11328.28028-.39258.47657-1.06445.41993a22.75389,22.75389,0,0,1-7.53223,6.16015l-.19629-.27929A27.15727,27.15727,0,0,0,52.99358.67677Zm3.19141,14,1.14844-1.48339a23.04464,23.04464,0,0,1-3.5-6.66407,17.941,17.941,0,0,1-5.34864,7.22364l2.49219.92382Zm-5.48828,7.39258H61.1137V17.56056H55.37347ZM59.74163,1.06837c5.93652,1.14844,7.83984,3.64062,7.83984,5.46a2.03347,2.03347,0,0,1-1.96,2.15625,2.31512,2.31512,0,0,1-1.40039-.53223,18.25522,18.25522,0,0,0-4.67578-6.88769Z"/><path class="cls-1" d="M56.57757,35.56446c-.13965.28028-.252.53223-.3916.78418A21.769,21.769,0,0,0,58.7055,44.1045a50.62243,50.62243,0,0,0,4.7041-5.96387l4.25586,3.13575a.69619.69619,0,0,1-.67188.33593,2.76,2.76,0,0,1-.44824-.05566,65.495,65.495,0,0,1-7.3916,3.27637c2.26856,3.5,5.54395,5.51562,9.37988,7.02734l-.05664.33594a4.8013,4.8013,0,0,0-3.97461,3.16406,17.29867,17.29867,0,0,1-5.09668-4.9834,117.56785,117.56785,0,0,1-11.89941,4.25586,1.0998,1.0998,0,0,1-.8125.64356L44.3139,51.04884c.8955-.02832,2.18457-.11231,3.72363-.22461V44.8047A32.72481,32.72481,0,0,1,42.018,47.82813l-.22461-.36328a28.65328,28.65328,0,0,0,9.57617-11.90039H42.12933l-.13965-.44824H53.04925V28.70509l5.15234.5039c-.05566.30762-.27929.50391-.95117.61524v5.292H62.2055l2.21289-2.77148L68.477,35.17286c-.19531.30762-.55859.3916-1.37109.3916Zm-3.61231,7c-.084.252-.36328.44825-.86718.53223v7.44824c2.15625-.168,4.56347-.36426,7.02734-.58887-1.82031-2.96777-2.88379-6.94335-3.3877-12.79589a21.04894,21.04894,0,0,1-4.08789,4.90039Z"/><path class="cls-1" d="M66.62933,66.25294,44.34222,58.46876V56.39649l22.28711,7.78418Z"/><path class="cls-1" d="M52.54534,70.17188a2.83366,2.83366,0,0,1,2.85645-1.93164c1.56738,0,3.21972.83985,3.584,1.76368a2.72653,2.72653,0,0,1,.11231.86816c0,.50391-.05664,1.00781-.05664,1.23242,0,.41992.02832.89551.02832,1.20313,3.78027-.252,7.70019,1.876,7.70019,7,0,5.87988-4.42383,7.47656-8.40039,7.58789-.72851,2.1289-3.08008,3.64062-7.8125,4.34082l-.252-.39258a8.40042,8.40042,0,0,0,4.4248-4.22754c-1.82031-.22461-3.80761-1.51269-3.80761-5.15234a14.92324,14.92324,0,0,1,.41992-3.21973l.36328.02832c-.02735.30762-.02735.58789-.02735.89551,0,2.71582,1.20313,4.67578,3.94727,4.78808a13.14856,13.14856,0,0,0,.36426-3.36035c0-1.81933-.02832-5.124-.13965-6.46777-5.46094,1.5957-7.83984,7.084-7.83984,9.26758a1.51085,1.51085,0,0,0,.02734.36426,5.8206,5.8206,0,0,1,.084,1.25976v.75684a1.46307,1.46307,0,0,1-1.56836,1.42773c-1.90332,0-2.96679-2.52051-2.96679-4.98437a19.48943,19.48943,0,0,1,.72754-5.208,15.59231,15.59231,0,0,0,.72754-3.584c0-.95214,0-3.27539-1.34375-3.44336v-.084a1.885,1.885,0,0,1,1.09179-.36426,3.76828,3.76828,0,0,1,3.89258,3.72364,5.17345,5.17345,0,0,1-1.00781,2.77246,8.36806,8.36806,0,0,0-1.40039,4.31152h.252a16.89391,16.89391,0,0,1,9.21191-7.44727c-.05566-.64453-.13964-1.65234-.22363-2.21289a1.7016,1.7016,0,0,0-1.76367-1.5957,2.16332,2.16332,0,0,0-.95312.22461ZM63.102,79.86036c0-3.416-1.708-5.23633-4.0039-5.15234.11132,1.73633.19531,3.668.19531,5.32031,0,.36328-.02734,3.72363-.19531,4.89941C62.01019,84.92774,63.102,82.32423,63.102,79.86036Z"/><path class="cls-1" d="M52.65765,101.39259a15.44834,15.44834,0,0,1,1.98828-.168c3.47168,0,5.26367,1.708,5.26367,5.96387a18.59914,18.59914,0,0,1-2.21191,9.01562,3.8096,3.8096,0,0,1-3.52735,2.21289c-.9248,0-1.457-.4209-1.457-1.708,0-.98046-.95117-2.15625-2.77148-4.08886l.14062-.252c1.20313.67286,2.91113,1.624,3.72266,1.624a.97142.97142,0,0,0,.84082-.53125,15.13844,15.13844,0,0,0,1.73535-7.252c0-1.876-.2793-3.248-1.98731-3.248a8.71835,8.71835,0,0,0-2.21191.36328,91.89439,91.89439,0,0,1-4.25586,11.8164c-.44824,1.00782-1.40039,2.82813-2.57617,2.82813-1.37207,0-1.84766-.95215-1.84766-2.46387,0-.9248.9795-1.93261,1.59571-2.77246a30.25017,30.25017,0,0,0,3.80761-8.39941,14.6426,14.6426,0,0,0-1.28808.69922c-.44727.25195-.86719.98047-1.624.98047A3.059,3.059,0,0,1,43.1098,102.709a2.79686,2.79686,0,0,1,1.03613-2.04394l.22363.02734c.02832,1.00782.28027,1.82032,1.45606,1.82032a17.197,17.197,0,0,0,3.63964-.56055,19.44169,19.44169,0,0,0,.56055-3.8916c0-.9795-.28027-1.624-1.28809-1.624a4.991,4.991,0,0,0-.81152.11231l-.084-.084a2.73956,2.73956,0,0,1,2.74414-1.624c1.81933,0,3.55469,1.0918,3.55469,2.12793,0,.72754-.78321,1.4834-1.0918,2.6875Zm7.02832-1.9043c5.06836.53223,8.14843,3.5,8.11914,7.11231,0,1.73632-.92383,3.10839-2.26758,3.10839-.75586-.02832-1.792-.22461-1.792-1.59668,0-3.86328-.72754-6.88769-4.17188-8.23144Z"/><path class="cls-1" d="M44.06194,126.87208a2.5049,2.5049,0,0,0,1.98731.8125,20.53122,20.53122,0,0,0,3.19238-.28027,21.19656,21.19656,0,0,0,.22363-2.74414c0-.44825,0-1.76368-1.03515-1.76368a3.57444,3.57444,0,0,0-1.17578.19532l-.11231-.19532a2.74874,2.74874,0,0,1,2.99512-1.792c1.877,0,3.584.78418,3.584,1.708a1.582,1.582,0,0,1-.47558,1.2041,13.61251,13.61251,0,0,0-.75586,2.46387,5.43186,5.43186,0,0,0,3.05176-2.35254l.252-.05566c1.67969.19628,3.752.64355,3.752,1.73632,0,1.03516-.86719,1.67969-2.43554,2.23926a36.6985,36.6985,0,0,1-5.34766,1.5127c-.67188,3.30371-2.29688,9.46386-2.74414,11.08789-1.06445,3.86328-1.65235,4.67578-3.16406,4.67578-.98047,0-1.48438-.75586-1.48438-3.83594a18.03593,18.03593,0,0,0,2.38086-4.28418,47.08817,47.08817,0,0,0,2.07129-7.13965,11.92559,11.92559,0,0,1-1.54.11133c-2.37988,0-3.35937-1.39941-3.35937-3.19141Zm12.544,9.46387a4.35294,4.35294,0,0,0-.50391,1.98828c0,2.74414,2.88379,2.74414,4.95508,2.74414a10.44469,10.44469,0,0,0,1.59668-.11231,14.57765,14.57765,0,0,1,1.45606-.22363c1.06445,0,2.71582,1.14746,2.71582,2.26758,0,1.42773-1.4834,1.708-3.86426,1.708-5.15137,0-8.28711-1.06348-8.28711-4.5918a6.13832,6.13832,0,0,1,1.623-4.00391Zm1.82031-2.01563c.95117-.70019,1.84766-1.40039,2.79883-2.07226-.33594-.02832-.69922-.05567-1.06348-.05567a11.50771,11.50771,0,0,0-4.67578.89551l-.22363-.19531a10.03674,10.03674,0,0,1,7.41992-3.52832c2.26758,0,3.63965,1.00781,3.63965,2.21191a1.46665,1.46665,0,0,1-1.54,1.54,12.813,12.813,0,0,0-6.13184,1.48438Z"/><path d="M5.09417,5.09278,9.07464,3.51954q.21093-.08788.831-.30762a1.1263,1.1263,0,0,0,.53907-.31543,1.598,1.598,0,0,0,.13867-.70312l.01465-.13086.4541.08789V6.084l-.4541-.08789-.01465-.22656a2.933,2.933,0,0,0-.09473-.76172c-.04394-.10254-.14551-.15429-.30566-.15429a4.052,4.052,0,0,0-1.1084.33007L5.69671,6.4629,9.04632,9.1963a4.67649,4.67649,0,0,0,1.29.88867q.24023,0,.24023-.4834c0-.083.002-.17285.00684-.27051l.01465-.13183.4541.08789v2.75781l-.4541-.08789-.01465-.13867a3.02241,3.02241,0,0,0-.07324-.66016A9.61486,9.61486,0,0,0,9.01507,9.81642L5.07171,6.60353,2.11565,6.03712a5.546,5.546,0,0,0-1.05175-.124c-.15723,0-.25293.04589-.28711.13867a5.35751,5.35751,0,0,0-.10352.916l-.00683.13184L.21233,7.01173V2.76563l.45411.09473.00683.13184A2.055,2.055,0,0,0,.94085,4.127a4.27717,4.27717,0,0,0,1.44141.42578Z"/><path d="M.21233,15.95606l3.252.64649Q.02923,14.707.02874,12.82423a1.10129,1.10129,0,0,1,.34473-.88086,1.5428,1.5428,0,0,1,1.03222-.29785,5.756,5.756,0,0,1,1.03321.13965l3.83007.76367A5.54984,5.54984,0,0,0,7.31,12.666c.15527,0,.251-.04493.28516-.13575a5.42941,5.42941,0,0,0,.10937-.91894l.00781-.13184.45411.08789v2.81543l-5.83789-1.1709a5.12464,5.12464,0,0,0-.62208-.081.51626.51626,0,0,0-.374.12207.46592.46592,0,0,0-.124.34961q0,.95947,3.39844,3.22754l3.55957.71094v1.44921L2.19476,17.79981a6.14987,6.14987,0,0,0-1.10938-.11718c-.166,0-.2666.04492-.30273.13476a4.97669,4.97669,0,0,0-.1084.91992l-.00781.13184-.45411-.08789Z"/><path d="M.21233,20.73927,9.8803,22.666a5.56307,5.56307,0,0,0,1.04688.11718c.15625,0,.252-.04492.28613-.13574a5.22923,5.22923,0,0,0,.10254-.91894l.00781-.13184.45313.08789v2.81055L4.644,23.07032v.10938Q6.47356,26.75245,7.72015,26.752a.55467.55467,0,0,0,.44629-.22754l.08789,1.46485a.79637.79637,0,0,1-.3584.10351q-1.09278,0-3.04-3.70507a26.5181,26.5181,0,0,0-3.73535,2.63476,1.4895,1.4895,0,0,0-.44629,1.11328l-.00781.16211L.21233,28.21V25.80079a23.72428,23.72428,0,0,1,4.10938-2.68652v-.11035L.21233,22.15919Z"/><path d="M.21233,33.97364l3.35352.668a9.58676,9.58676,0,0,1-2.57129-2.0293,3.31034,3.31034,0,0,1-.96582-2.084A1.45362,1.45362,0,0,1,.49065,29.3545a2.09056,2.09056,0,0,1,1.37891-.39062,6.86431,6.86431,0,0,1,4.43066,1.67383,4.71763,4.71763,0,0,1,2.04883,3.62011,3.9086,3.9086,0,0,1-.04492.52637q-.04687.32226-.13769.76758V36.9922L2.1098,35.79981a5.254,5.254,0,0,0-1.04786-.124c-.15625,0-.251.0459-.28515.13867a5.145,5.145,0,0,0-.10352.916l-.00683.13183-.45411-.08789Zm4.44532.88574,2.542.50684a3.69361,3.69361,0,0,0,.33105-.86816,3.86729,3.86729,0,0,0,.1084-.919,2.062,2.062,0,0,0-.98926-1.77246,7.53124,7.53124,0,0,0-2.10937-.92578,8.5241,8.5241,0,0,0-2.37305-.38672,1.43827,1.43827,0,0,0-.791.17578.58817.58817,0,0,0-.26368.52539Q1.11272,32.59133,4.65765,34.85938Z"/><path d="M.30022,41.67188a2.97128,2.97128,0,0,1-.27148-1.17675,1.863,1.863,0,0,1,.48731-1.34278,1.67794,1.67794,0,0,1,1.2705-.50976,3.93945,3.93945,0,0,1,.75489.08789l5.03222,1.00293V38.55958l.59278.11719v1.1748l1.44238.28809.41211,1.53027-1.85449-.36914V43.3711l-.59278-.124V41.18263l-5.22949-1.043a4.26556,4.26556,0,0,0-.76172-.07324.91234.91234,0,0,0-.65234.209.829.829,0,0,0-.21973.62891,2.6322,2.6322,0,0,0,.19727.8916Z"/><path d="M.21233,48.43263l3.35352.668A9.58715,9.58715,0,0,1,.99456,47.0713a3.31034,3.31034,0,0,1-.96582-2.084,1.4536,1.4536,0,0,1,.46191-1.17382,2.09051,2.09051,0,0,1,1.37891-.39063,6.86436,6.86436,0,0,1,4.43066,1.67383,4.71764,4.71764,0,0,1,2.04883,3.62012,3.90847,3.90847,0,0,1-.04492.52636q-.04687.32227-.13769.76758v1.44043L2.1098,50.2588a5.25324,5.25324,0,0,0-1.04786-.124c-.15625,0-.251.04589-.28515.13867a5.14462,5.14462,0,0,0-.10352.916l-.00683.13184-.45411-.08789Zm4.44532.88574,2.542.50684a3.69352,3.69352,0,0,0,.33105-.86817,3.86721,3.86721,0,0,0,.1084-.91894,2.062,2.062,0,0,0-.98926-1.77247,7.53153,7.53153,0,0,0-2.10937-.92578,8.5241,8.5241,0,0,0-2.37305-.38672,1.43826,1.43826,0,0,0-.791.17579.58817.58817,0,0,0-.26368.52539Q1.11272,47.0503,4.65765,49.31837Z"/><line class="cls-2" x1="28.23309" y1="0.00488" x2="28.23309" y2="251.00537"/><line class="cls-2" x1="82.23309" y1="0.00488" x2="82.23309" y2="251.00537"/></svg>