<svg id="圖層_1" data-name="圖層 1" xmlns="http://www.w3.org/2000/svg" xmlns:xlink="http://www.w3.org/1999/xlink" viewBox="0 0 518.2993 148.3534"><defs><style>.cls-1{fill:none;}.cls-2{fill:#feffff;}.cls-3{fill:#6f4f55;}.cls-4{opacity:0.4;fill:url(#Nueva_muestra_de_motivo_16);}.cls-5{mask:url(#mask);}.cls-6{fill:#323232;}.cls-7{clip-path:url(#clip-path);}.cls-8{opacity:0.5;}.cls-9{clip-path:url(#clip-path-2);}.cls-10{fill:#fff;fill-rule:evenodd;}.cls-11{filter:url(#luminosity-noclip);}</style><pattern id="Nueva_muestra_de_motivo_16" data-name="Nueva muestra de motivo 16" width="60.571" height="73.4858" patternTransform="translate(39.861 69.5426)" patternUnits="userSpaceOnUse" viewBox="0 0 60.571 73.486"><rect class="cls-1" width="60.571" height="73.4858"/><path class="cls-1" d="M15.2089,28.1929a.376.376,0,0,1-.3232.207A17.1188,17.1188,0,0,0,.84448,36.3967a17.73664,17.73664,0,0,1,14.986,9.6194c5.522-.0522,11.2393,3.2539,14.4546,8.3672a17.86426,17.86426,0,0,1,14.4482-8.3535,17.73711,17.73711,0,0,1,15.3676-9.6459c-2.7692-4.3931-8.0342-8.4534-13.9921-7.985a.38054.38054,0,0,1-.3647-.206,17.06129,17.06129,0,0,0-30.5352,0Z"/><path class="cls-2" d="M3.65643,0A17.74989,17.74989,0,0,1,15.8305,9.2735c5.562-.0337,11.2398,3.2534,14.4551,8.3671A17.86163,17.86163,0,0,1,44.7333,9.2871,17.75009,17.75009,0,0,1,56.9148,0H60.571V.375h-.0003a17.00353,17.00353,0,0,0-15.268,9.4463.37469.37469,0,0,1-.3228.207,17.1183,17.1183,0,0,0-14.0326,7.9845,17.73551,17.73551,0,0,1,15.3539,9.621c6.0411-.3518,11.3732,3.6676,14.2698,8.0927v1.3912h-.0003a17.00335,17.00335,0,0,0-15.268,9.4463.37488.37488,0,0,1-.3228.207,17.11937,17.11937,0,0,0-14.0326,7.9845,17.73673,17.73673,0,0,1,15.3539,9.621c6.0515-.358,11.3745,3.66815,14.2698,8.09259V73.4858H56.9148a17.96514,17.96514,0,0,1,3.1865-.35876c-2.769-4.39252-8.0411-8.45063-13.9925-7.98542a.38683.38683,0,0,1-.3647-.20605,17.06172,17.06172,0,0,0-30.5357,0,.37456.37456,0,0,1-.3227.207A17.11847,17.11847,0,0,0,.84454,73.13991a17.94091,17.94091,0,0,1,2.81189.34589H0V72.47158c.0625.09528.13013.18671.19086.28332A17.86183,17.86183,0,0,1,14.6391,64.40139a17.7351,17.7351,0,0,1,14.9911-9.633c-3.1244-4.9587-8.6661-8.1691-14.0165-7.9974a.38917.38917,0,0,1-.3457-.207A17.00331,17.00331,0,0,0,0,37.1177V35.729c.06232.0951.12976.1864.19037.2827a17.86417,17.86417,0,0,1,14.44873-8.353,17.73391,17.73391,0,0,1,14.9913-9.633c-3.1269-4.9599-8.7041-8.1824-14.0162-7.9974a.3501.3501,0,0,1-.3462-.207A17.00349,17.00349,0,0,0,0,.375V0ZM30.4765,18.7466a17.00064,17.00064,0,0,0-15.2676,9.4463.376.376,0,0,1-.3232.207A17.1188,17.1188,0,0,0,.84448,36.3967a17.73664,17.73664,0,0,1,14.986,9.6194c5.522-.0522,11.2393,3.2539,14.4546,8.3672a17.86426,17.86426,0,0,1,14.4482-8.3535,17.73711,17.73711,0,0,1,15.3676-9.6459c-2.7692-4.3931-8.0342-8.4534-13.9921-7.985a.38054.38054,0,0,1-.3647-.206A17.00175,17.00175,0,0,0,30.4765,18.7466Z"/></pattern><filter id="luminosity-noclip" x="-0.4076" y="-0.21296" width="518.91803" height="150.825" filterUnits="userSpaceOnUse" color-interpolation-filters="sRGB"><feFlood flood-color="#fff" result="bg"/><feBlend in="SourceGraphic" in2="bg"/></filter><mask id="mask" x="-0.4076" y="-0.21296" width="518.91803" height="150.825" maskUnits="userSpaceOnUse"><g class="cls-11"><path d="M112.9065,40.714a1.009,1.009,0,0,1,.2955,1.48707l-2.7806,3.76943a.64611.64611,0,0,1-1.1862-.0935s-.7514-1.4491-.3807-2.0171a13.40668,13.40668,0,0,1,3.5763-3.1387A.45834.45834,0,0,1,112.9065,40.714Z"/><path d="M65.8261,125.9508a1.22868,1.22868,0,0,1,.2376-1.9702,7.94936,7.94936,0,0,1,2.3902-1.03553c.4169-.04447,1.3043,1.06783,1.3831,1.72693a35.45993,35.45993,0,0,1,.1874,4.0208c-.0131.8657-.5163,1.0647-1.1182.4424Z"/><path d="M103.8183,86.2548c1.1643-.0611,1.178.0568.0303.262,0,0-3.7836.6764-3.804.7027-1.7675,2.2767-3.9981,5.1589-3.9981,5.1589-.7136.9222-1.1559.7331-.9828-.4198a23.53211,23.53211,0,0,1,1.2781-4.7442C96.5827,86.6344,103.8183,86.2548,103.8183,86.2548Z"/><path d="M114.7042,56.41007a2.58367,2.58367,0,0,1-2.7965.21543s-1.623-.9818-1.5241-1.2657a9.93875,9.93875,0,0,1,1.2148-2.3581,1.33162,1.33162,0,0,1,2.16-.0923,25.926,25.926,0,0,1,1.9066,2.5102C115.7433,55.5385,114.7042,56.41007,114.7042,56.41007Z"/><path d="M43.0952,139.9725a2.15638,2.15638,0,0,1,.3253-2.8502,24.24624,24.24624,0,0,1,3.2236-2.3204.67377.67377,0,0,1,.7231.0036,2.068,2.068,0,0,1,.4648,2.784l-2.0242,2.97557c-.6037.88793-1.2914,1.34963-1.5279,1.02643C44.0432,141.2682,43.0952,139.9725,43.0952,139.9725Z"/><path d="M53.8163,73.3143a1.23124,1.23124,0,0,1-.4398,1.349l-1.4778,1.0113c-.4061.2777-.85.3461-.9863.1516l.0453-.1009c.6839-1.5223,1.7228-3.7344,1.7228-3.7344.2092-.4455.5146-.4303.6791.0335Z"/><path d="M103.8324,133.3532c-.6766-.6384-.4713-1.2198.4562-1.292a.85694.85694,0,0,1,.5263.1803c1.8816,1.3794,4.2217,3.2205,4.2217,3.2205a1.22612,1.22612,0,0,1-.0304,2.0516s-.2641.1954-.4631.0352C106.7235,136.0822,103.8324,133.3532,103.8324,133.3532Z"/><path d="M64.0916,10.35777c.1016.0467.0705.1843-.0687.3056l-.7924.69c-.1392.121-.3024.1504-.3624.0647l.0087-.0077c.3865-.3484.7772-.6926,1.1789-1.0231Z"/><path d="M26.9622,112.0837a1.168,1.168,0,0,1-1.9416-.8987,1.43956,1.43956,0,0,1,.2473-.8411c1.011-1.6981,2.1706-3.2859,2.1706-3.2859a1.1791,1.1791,0,0,1,2.1481.1374s.7036,1.27867.2576,2.1034A10.22121,10.22121,0,0,1,26.9622,112.0837Z"/><path d="M17.1848,50.3723c-.3416-.2127-.542-.5751-.4456-.8047.0962-.2298.5395-.4927.8288-.2131,0,0,.4501.4349.9001.94057.027.03033-.3764.55523-.4315.52993A8.64225,8.64225,0,0,1,17.1848,50.3723Z"/><path d="M19.2079,80.6155c.3493.5718-.1239,1.2598-1.0512,1.529a20.04932,20.04932,0,0,1-2.3733.51857c-.1109.01563-.7556-1.55177-.5369-1.77147a8.06279,8.06279,0,0,1,1.3689-1.1528C17.4433,79.242,18.8588,80.0438,19.2079,80.6155Z"/><path d="M1.9367,125.4153c-.2497-.0463-.2883-.2097-.0858-.3629,0,0,.3406-.258.461-.2162a3.818,3.818,0,0,1,.6725.3135c.2161.1333.263.3237.1039.42337l-.1365-.01087C2.5717,125.5328,1.9367,125.4153,1.9367,125.4153Z"/><path d="M87.9386,93.1415a1.316,1.316,0,0,1-.2326-2.0923s.5096-.5254.814-.3933a4.84763,4.84763,0,0,1,2.0049,1.869c.1413.2259-.8579,1.5285-.9564,1.4848A12.69611,12.69611,0,0,1,87.9386,93.1415Z"/><path d="M98.1095,147.2367c-.4407-1.0835.0956-1.6369,1.1923-1.2294a22.60759,22.60759,0,0,1,3.3606,1.5634c.3951.2548.451,1.9469.2833,2.0126-.9799.3825-2.4839.9924-3.0341.5529A9.34359,9.34359,0,0,1,98.1095,147.2367Z"/><path d="M69.5983,97.6508a4.87753,4.87753,0,0,1,3.0199-.4126c.8346.2147,2.1624,1.37687,1.3257,2.1652l-.7977.0436a35.90935,35.90935,0,0,1-4.3384-.0691C67.6486,99.2798,68.7723,98.0922,69.5983,97.6508Z"/><path d="M45.6522,89.9827c.5586.6019.3563,1.2232-.4498,1.3806a7.68384,7.68384,0,0,1-2.127.1424c-.4012-.0885-1.0018-1.1315-.9289-1.2111.5395-.589,1.2359-1.4442,1.8628-1.428C44.6313,88.8827,45.6522,89.9827,45.6522,89.9827Z"/><path d="M84.7122,99.3283c-.2183.2554-.5081.3176-.6439.1382-.1357-.1796-.3206-.6646-.169-.7582a.88881.88881,0,0,1,.9033.1086l-.0133.2121A.54465.54465,0,0,1,84.7122,99.3283Z"/><path d="M117.3764,121.46507a1.39187,1.39187,0,0,1-2.4707-.83537,18.48232,18.48232,0,0,1-.3232-2.589c-.0111-.2162,1.8484-.8004,1.8983-.7074a7.13908,7.13908,0,0,1,1.1876,3.2014A1.27077,1.27077,0,0,1,117.3764,121.46507Z"/><path d="M34.7074,71.19c-.3795.267-.7798.3692-.89.227a1.1391,1.1391,0,0,1,.4662-1.151,8.03321,8.03321,0,0,1,.9814-.5845l.1228-.0638C35.7427,69.9693,35.0867,70.92307,34.7074,71.19Z"/><path d="M7.3177,19.2588a1.32972,1.32972,0,0,1-.1218-2.51993,23.12176,23.12176,0,0,1,3.4598-1.8028c.3985-.1508,1.9815,1.3688,1.8781,1.5921A15.31591,15.31591,0,0,1,9.9864,20.3463C9.8168,20.5328,7.3177,19.2588,7.3177,19.2588Z"/><path d="M6.1048,105.0337c-.3226.65937-.8652.6668-1.206.0166a.92.92,0,0,1-.0702-.6664,4.70718,4.70718,0,0,1,.4548-.9445c.4408-.5868,1.0385-.6536,1.3281-.1484l-.067.4045A5.65033,5.65033,0,0,1,6.1048,105.0337Z"/><path d="M1.7274,80.9215A1.38807,1.38807,0,0,1,.1171,79.6049l.0685-.01c1.1072-.1626,1.7667-.206,1.7667-.206a1.378,1.378,0,0,1,1.6049,1.1633l-.1425.037A13.71107,13.71107,0,0,1,1.7274,80.9215Z"/><path d="M126.9895,60.2855a1.22,1.22,0,0,1-1.9315-.37l-.3742-.8385a1.74747,1.74747,0,0,1,1.0186-.7112c.9784.0192,1.0272.0285,1.0272.0285C127.7755,58.59,127.5885,59.7253,126.9895,60.2855Z"/><path d="M108.2306,51.0997a1.51,1.51,0,0,1-2.7108.0362,1.87415,1.87415,0,0,1-.2101-1.15783l.0657-.75017a2.1356,2.1356,0,0,1,2.9152.025l.0816.7697A1.76426,1.76426,0,0,1,108.2306,51.0997Z"/><path d="M29.2201,106.3762c-1.027-.6075-1.1105-1.5993-.1853-2.2038l.3249.1558a10.23464,10.23464,0,0,1,1.3523.71687c.9544.71643,1.2827,1.78293.7296,2.37l-.2534-.09967A15.24315,15.24315,0,0,1,29.2201,106.3762Z"/><path d="M23.2264,126.9024a.94529.94529,0,0,1-1.598.3619,4.09338,4.09338,0,0,1-.5732-.7257l-.1104-.1664a1.5625,1.5625,0,0,1,1.7975-.3542l.4309.4384A.44543.44543,0,0,1,23.2264,126.9024Z"/><path d="M23.6722,27.007c-.3426-.8803.1124-1.3623,1.011-1.071,0,0,.0436.0143.1744.2896a14.17166,14.17166,0,0,1,.6094,1.4174c.2958.897-.002,1.6766-.6618,1.7328l-.1262-.2206A18.95913,18.95913,0,0,1,23.6722,27.007Z"/><path d="M98.6216,59.3034a1.01643,1.01643,0,0,1,.3215-1.2232,1.31859,1.31859,0,0,1,1.4891.95087l-.1396.66313-.1048.4966C99.6221,60.64207,98.7851,59.822,98.6216,59.3034Z"/><path d="M38.4033,103.8252c-.0515.0637-.1209.088-.154.0538a.10456.10456,0,0,1,.0488-.1541s.0601-.0316.1583-.0773c.0076-.0036.0496.0436.0476.0463C38.4407,103.7789,38.4033,103.8252,38.4033,103.8252Z"/><path d="M75.1742,144.2a1.18283,1.18283,0,0,1,1.755-.0451s.0028.0029-.0436.0724a3.14622,3.14622,0,0,1-1.0744,1.0423c-.132.07-.8414-.5219-.8012-.62953Z"/><path d="M79.3251,52.1247a1.9383,1.9383,0,0,1-2.5474,1.271l.0372-.1278a12.55622,12.55622,0,0,1,1.2203-2.7729,5.31968,5.31968,0,0,1,1.5184.6696Z"/><path d="M40.1415,87.992c-.0843-.5844.1137-1.1613.4404-1.2816.3265-.1208,1.2975.3845,1.4812,1.3722l-.1758.82447-.0905.42333C41.0397,89.6555,40.226,88.5763,40.1415,87.992Z"/><path d="M144.9609,58.7772a.72535.72535,0,0,1-1.0381-.4963l-.0395-.3867-.0091-.0878a.82693.82693,0,0,1,.9496.51567l.1195.39643Z"/><path d="M34.7202,33.8174a.89716.89716,0,0,1,.6932-1.2737l.3687.0492c.0951.0128.2662.709.1461.8241a1.52016,1.52016,0,0,1-1.0319.4108Z"/><path d="M120.041,21.6662c.0133.067-.0626.1502-.1693.185-.1064.0348-.3961-.0393-.4392-.2312l.0475-.0281.1493-.0882A.41223.41223,0,0,1,120.041,21.6662Z"/><path d="M4.095,41.8239c-.0344-.0193-.0391-.0783-.0104-.1311l.0059.0021a.67274.67274,0,0,1,.1676.0864l.008.006C4.2371,41.84407,4.1294,41.8432,4.095,41.8239Z"/><path d="M72.585,22.1214c-.8741,1.09267-1.8172.8644-2.0955-.5068a.9629.9629,0,0,1,.2351-.7112l.5568-.7437c.9525-.5631,1.9787-.4765,2.2805.193l-.1818.4026A6.96652,6.96652,0,0,1,72.585,22.1214Z"/><path d="M57.8847,74.9234a.71215.71215,0,0,1-1.069-.1149c-.2632-.3569-.5376-1.3416-.102-1.4997l.135.1291a5.82535,5.82535,0,0,1,.9987,1.4181Z"/><path d="M132.4104,131.9038a1.063,1.063,0,0,1-.2839,1.9612s-.1224.0516-.3634-.1311l-.555-.4211a1.50309,1.50309,0,0,1,.1331-1.9253l.2675.1115A3.74634,3.74634,0,0,1,132.4104,131.9038Z"/><path d="M68.1999,76.7656c-.1655.1779-.3711.1641-.4571-.0311l.0087-.1083c.006-.0773.1532-.21813.1845-.205.1109.04687.2816.1528.2769.2265A.475.475,0,0,1,68.1999,76.7656Z"/><path d="M122.4872,108.0294c-.1696.4733-.6901.4584-1.1566-.0332,0,0-.0307-.0323.0155-.171l.0951-.2863a.721.721,0,0,1,.9626-.02783l.0396.24583Z"/><path d="M1.1072,57.44507a.58453.58453,0,0,1-.9296-.013l.0102-.19117.0087-.1667a.77254.77254,0,0,1,.8621.0144l.0258.1887Z"/><path d="M1.0222,51.3994c.3527.1444.4953.4724.3172.7289a1.33491,1.33491,0,0,1-1.4091.3341l-.1846-.3574-.1533-.29693C-.2642,51.32007.6696,51.25507,1.0222,51.3994Z"/><path d="M109.8905,134.68107c-.135-.17037-.0677-.30657.1497-.30277,0,0,.0139.0005.082.0561l.0704.0576a.23619.23619,0,0,1-.1457.2804l-.0617-.0348A.76827.76827,0,0,1,109.8905,134.68107Z"/><path d="M146.2043,88.6916a.64389.64389,0,0,1-.5786.9569l-.1832-.14743-.1917-.15447a.822.822,0,0,1,.5294-.8728l.2079.1067Z"/><path d="M10.8164,62.5487c-.2048.1872-.6694.0416-1.0328-.3232l.0544-.1031.2194-.4144c.3669-.3897.7904-.5762.9413-.4145A1.6033,1.6033,0,0,1,10.8164,62.5487Z"/><path d="M.7706,88.9889a.46924.46924,0,0,1,.2673-.6251,1.2593,1.2593,0,0,1,1.3133.4809l-.1282.2463-.1654.3179A1.27359,1.27359,0,0,1,.7706,88.9889Z"/><path d="M42.4575,50.0138a.65719.65719,0,0,1-.8197-.08773A1.41024,1.41024,0,0,1,42.105,48.493l.49-.0316.2875-.0185A1.31424,1.31424,0,0,1,42.4575,50.0138Z"/><path d="M92.5907,68.8547c-.2833.1793-.78-.2-1.1039-.8427l.0737-.0578a2.87017,2.87017,0,0,1,1.3436-.6405l.1706-.0199A1.55416,1.55416,0,0,1,92.5907,68.8547Z"/><path d="M112.6669,88.9154a1.19325,1.19325,0,0,1-1.961-.1764l.065-.4456.0669-.4595a1.30017,1.30017,0,0,1,1.7967.1626l.0174.4939Z"/><path d="M123.4929,95.0859c-.5405,1.0455-1.4134,1.3036-1.9403.5731l-.0416-.4638c-.032-.3545.4171-1.05613.6672-1.06313a1.51626,1.51626,0,0,1,1.1842.69063Z"/><path d="M24.0967,88.4615a1.065,1.065,0,0,1,.0524-1.5937l.3459.0016.2827.0012a1.32458,1.32458,0,0,1-.0453,1.5252l-.3369.0348Z"/><path d="M114.6656,81.1046c-.5102.2399-1.0428.266-1.1838.058a1.00152,1.00152,0,0,1,.3967-1.1847l.4677-.11383c.0785-.01907.5226.70183.4317.94293Z"/><path d="M113.8668,105.073a.81859.81859,0,0,1,.3917-.8817,1.15906,1.15906,0,0,1,1.3477.8947l-.0771.6862-.0221.19587A1.71116,1.71116,0,0,1,113.8668,105.073Z"/><path d="M29.3397,70.3859a1.13075,1.13075,0,0,1-1.7324-.1423l-.0087-.424-.0059-.2877a1.46747,1.46747,0,0,1,1.6956.12717l.0273.38753Z"/><path d="M92.7251,74.5813a.32284.32284,0,0,1-.0557.5621l-.1384-.0232-.1435-.02413a.35873.35873,0,0,1,.0513-.51947l.1458.0024Z"/><path d="M116.6684,93.1295c-.0669-.0137-.1252-.0497-.1297-.08043a.10721.10721,0,0,1,.1075-.09627l.0484.0261c.0173.0093.0122.0994-.0116.1311Z"/><path d="M15.316,30.1207a1.34717,1.34717,0,0,1-1.2127,1.673l-.1839-.2353-.3769-.4822a1.14469,1.14469,0,0,1,.9836-1.43213l.4305.25963Z"/><path d="M89.3311,47.485c.0011-.017.3353.34307.7426.80007,0,0,.0769.08633.4766.55263l.0033.0039c-.1028.0951-.4676-.2416-.8108-.74853,0,0-.0664-.09817-.4117-.60807Z"/><path d="M61.0802,101.6017a.92066.92066,0,0,1-.1036,1.2513l-.0893-.0492-.3106-.1706a.76085.76085,0,0,1,.024-1.0398l.2499.0042Z"/><path d="M144.6444,72.8906c-.2431-.3514-.2787-.7194-.0789-.8178a.68085.68085,0,0,1,.8414.32727l-.0321.30873c-.0155.15-.4623.4117-.503.3768Z"/><path d="M95.8679,50.7645c-.1101-.03343-.2002-.1005-.2005-.1492-.0002-.0485.049-.1687.1084-.1605.0592.008.2073.12027.1967.2319l-.0547.0405Z"/><path d="M69.7203,92.4466c-.4512.75047-1.1223.6818-1.4911-.1523l.0353-.4938.0317-.4427a.80409.80409,0,0,1,1.3533.1437l.0384.5138Z"/><path d="M67.8741,97.6077a.28829.28829,0,0,1-.265-.1793.44783.44783,0,0,1,.3539-.4219l.1504.0878.121.0705A.44223.44223,0,0,1,67.8741,97.6077Z"/><path d="M50.9066,88.51607a.96216.96216,0,0,1,.8846-1.46l.2569.22883.3104.2769a1.26771,1.26771,0,0,1-.803,1.3807l-.2683-.1765Z"/><path d="M30.3231,13.58707a.18931.18931,0,0,1-.2957.0854l-.001-.0568-.0014-.0805a.232.232,0,0,1,.2812-.0798l.0066.0514Z"/><path d="M15.0167,80.3698a.4564.4564,0,0,1-.6174.1496.96316.96316,0,0,1-.0803-1.1711l.3707-.222.1343-.0804A1.25726,1.25726,0,0,1,15.0167,80.3698Z"/><path d="M121.8163,144.3147c-.5625.355-1.0849.3835-1.1612.0637a1.257,1.257,0,0,1,.6633-1.2607l.4509.0003a1.10521,1.10521,0,0,1,.2561.8609Z"/><path d="M118.4016,135.8566c-.076-.248.0433-.4268.2654-.39753l.095.07063c.0709.0529.1254.2675.0925.2945-.0973.0795-.3131.1731-.3532.1325Z"/><path d="M100.8247,130.2497a.74164.74164,0,0,1,.5235-.9414l.3185.052.1116.0181a.77415.77415,0,0,1-.5516.8461l-.3432.0214Z"/><path d="M.0537,12.02017c-.0245-.052.0282-.1727.117-.268l.0576.0137.0848.02c.075.0995.0904.217.034.261C.291,12.09077.0782,12.07217.0537,12.02017Z"/><path d="M75.0531,15.31027a.369.369,0,0,1,.5229-.0458.8008.8008,0,0,1-.1241.967l-.3389.1441-.1075.0456A1.05513,1.05513,0,0,1,75.0531,15.31027Z"/><path d="M34.2748,11.55437a.23555.23555,0,0,1-.3453-.0163l.0113-.0149.0667-.09a.25112.25112,0,0,1,.3264-.0054l-.014.0298Z"/><path d="M141.1851,119.1629c.0631.0504.0647.2158.0039.3676l-.0854.0221-.1281.033c-.1643-.0539-.2568-.17453-.2056-.2676S141.1221,119.1124,141.1851,119.1629Z"/><path d="M132.4576,118.32307c-.0479.05873-.1675.01843-.2653-.09l-.0546-.11277c-.0147-.03.0934-.1688.1213-.162l.1273.0316A.25235.25235,0,0,1,132.4576,118.32307Z"/><path d="M80.6036,147.8598c-.0354-.0521-.0126-.096.0503-.09773.0629-.00157.0919.041.0641.09463C80.6903,147.9105,80.6387,147.9119,80.6036,147.8598Z"/><path d="M94.5651,62.2838c-.005.05627-.086.07327-.1801.038l-.0645-.0556a.17814.17814,0,0,1,.0024-.147l.0817-.0253C94.5008,62.08707,94.5701,62.2274,94.5651,62.2838Z"/><path d="M126.8423,82.9189c-.0316.0308-.0843-.005-.117-.0793l-.0045-.0687c-.0021-.0297.0706-.0941.0762-.0905l.0563.0359C126.9086,82.766,126.8741,82.88807,126.8423,82.9189Z"/><path d="M97.2693,64.7349a1.32966,1.32966,0,0,1,1.491.2484l-.0551.2653-.0588.2834a1.34386,1.34386,0,0,1-1.4733-.2455l.0467-.2678Z"/><path d="M102.2571,68.4588c-.042.00127-.0791-.0451-.0822-.1032l.0062-.0519.001-.0068c.0425-.0025.0785.0443.0802.1039l-.0048.0536Z"/><path d="M18.5431,95.2296c-.2364-.2321-.318-.4933-.1815-.5804a.60544.60544,0,0,1,.7333.2147l.0627.2723c.0121.0526-.302.27-.3654.2342Z"/><path d="M51.707,67.5835a.04958.04958,0,0,1-.0302-.0435.06607.06607,0,0,1,.0753-.0443l.018.023.0146.0187A.06842.06842,0,0,1,51.707,67.5835Z"/><path d="M41.0604,21.8986c-.0954.14747-.2476.2266-.338.1757a.65984.65984,0,0,1,.0181-.7239l.2072-.2389.0244-.028C41.2076,21.23407,41.1562,21.751,41.0604,21.8986Z"/><path d="M115.3208,79.80507c.008.01653-.0114.03823-.0431.04843l-.0281-.0009c-.008-.0003-.0256-.0358-.0207-.0426l.0167-.02393C115.2709,79.7647,115.3128,79.7884,115.3208,79.80507Z"/><path d="M1.0795,34.0813a.71753.71753,0,0,1-.4393-.22523C.6074,33.7766.6339,33.563.7753,33.5569c.1412-.0061.5092.155.5044.3715l-.0978.07467Z"/><path d="M121.4641,52.9979a.04079.04079,0,0,1-.0418-.0211c-.0067-.0148-.0054-.0433.0177-.03173C121.4629,52.9566,121.4803,52.995,121.4641,52.9979Z"/><path d="M142.0448,88.4052c-.1176.0688-.2452.0917-.2834.05087-.0383-.041-.0802-.19637-.0078-.25447.0722-.05853.3021-.10653.3506.0227l-.0305.0927Z"/><path d="M127.8808,144.8916c.027.00447.0526.0178.0567.0294s-.0005.04207-.0197.0419-.0673-.0237-.0645-.0509l.0135-.0101Z"/><path d="M140.9899,22.4357c-.0163.0035-.0317-.0118-.034-.034l.003-.01963.0007-.00467c.0156-.0032.0305.0122.033.0342l-.0021.0197Z"/><path d="M193.4787,134.2107c.1041-.0109.3097.1528.4571.3638l-.0216.1721-.018.1441c-.219.1332-.4579.1101-.5306-.0519C193.2927,134.677,193.3747,134.2216,193.4787,134.2107Z"/><path d="M62.004,148.0548c-.182-.096-.2684-.2371-.1923-.3134.0762-.0765.3718-.1511.4867-.005l.0645.15c.0168.0386-.1361.2155-.1849.2051Z"/><path d="M29.2554,66.209a.20637.20637,0,0,1,.2704.0125c.0645.0703.0252.3051-.1833.4164l-.2016.0625-.0379.0119C29.0125,66.5669,29.1712,66.2725,29.2554,66.209Z"/><path d="M54.5806,132.2245a.25276.25276,0,0,1,.1753-.21643.36414.36414,0,0,1,.3721.30023l-.0883.1165-.0809.1065A.38406.38406,0,0,1,54.5806,132.2245Z"/><path d="M123.2567,73.8484a.28533.28533,0,0,1-.2751-.291l.0124-.152a1.16086,1.16086,0,0,1,.2262-.00533,1.79785,1.79785,0,0,1,.0369.436Z"/><path d="M107.6747,53.985c.0332.01907.0368.0427.0081.0527-.0287.0097-.1061.0082-.1115-.0188S107.6416,53.9658,107.6747,53.985Z"/><path d="M3.9694,74.4978c.114-.01173.1669.0636.118.1674-.0491.1034-.1422.1131-.2068.0211C3.8157,74.5943,3.8558,74.5095,3.9694,74.4978Z"/><path d="M111.2153,92.7944c-.1018-.0634-.0168-.3868.1892-.7187l.2461-.2455.0464-.0463c.2515.1503.3705.4174.2646.5936S111.3174,92.8579,111.2153,92.7944Z"/><path d="M11.7127,65.2953c-.0153-.0034-.0382-.0364-.0508-.0731l.0108-.0229.0094-.0196c.0382-.0083.0721.0063.0752.0325S11.7282,65.2987,11.7127,65.2953Z"/><path d="M127.2456,80.78007a.1517.1517,0,0,1,.0066-.16187.2062.2062,0,0,1,.2715.0131l-.0028.0815-.0031.0806A.20618.20618,0,0,1,127.2456,80.78007Z"/><path d="M79.2569,67.6954c-.1077-.0597-.1018-.1696.013-.2446s.203-.0265.1958.108S79.3646,67.7548,79.2569,67.6954Z"/><path d="M95.873,33.6634a.07513.07513,0,0,1-.0259-.10433c.0231-.032.0958-.06927.11-.01177S95.9103,33.68907,95.873,33.6634Z"/><path d="M101.2307,71.7933c.0321.0065.0407.035.0191.0632-.0214.0284-.0476.0229-.0583-.012C101.181,71.8098,101.1985,71.7866,101.2307,71.7933Z"/><path d="M57.3354,54.402c.0855.0844.057.163-.0633.175-.1205.0116-.1903-.0575-.1556-.1535C57.1515,54.3275,57.2498,54.3178,57.3354,54.402Z"/><path d="M117.3403,43.3044a.06541.06541,0,0,1,.0281-.0587.07255.07255,0,0,1,.0907.0447l-.0138.0299-.0135.0291A.0737.0737,0,0,1,117.3403,43.3044Z"/><path d="M40.4298,122.667c-.1177-.0892-.0974-.1956.0455-.2366.1429-.0407.2395.0322.2144.1622S40.5477,122.7563,40.4298,122.667Z"/><path d="M102.334,70.6894c-.0598.04667-.103.0336-.0957-.02933s.0765-.20807.1254-.19577S102.3939,70.6428,102.334,70.6894Z"/><path d="M87.3923,141.1153c-.0232-.0208-.0175-.0441.0126-.0519.0303-.0077.0492.0093.0421.0378S87.4154,141.13607,87.3923,141.1153Z"/><path d="M69.4023,55.4268a.05923.05923,0,0,1,.0624-.0525c.029.0037.0773.0375.0431.0665S69.397,55.4596,69.4023,55.4268Z"/><path d="M101.9483,62.61707c.0571-.00247.0833.04283.0587.10113s-.0713.0604-.1036.0047C101.8713,62.6675,101.8915,62.6197,101.9483,62.61707Z"/><path d="M62.7311,35.5575c-.0347-.078.0092-.1271.0976-.10943.0885.01783.1171.08163.0633.14163A.09061.09061,0,0,1,62.7311,35.5575Z"/><path d="M46.5714,71.4296a.24213.24213,0,0,1-.2172-.0998.25974.25974,0,0,1,.1568-.3304l.1102.04967.1075.04863A.2608.2608,0,0,1,46.5714,71.4296Z"/><path d="M67.3848,91.0799a.07208.07208,0,0,1,.0802-.05683c.0346.00723.0899.05183.0459.08293C67.4666,91.13707,67.3754,91.1183,67.3848,91.0799Z"/><path d="M33.4946,46.9693c.0121-.049.0572-.0596.101-.0239.0436.0359.034.0758-.0215.0889S33.4829,47.01807,33.4946,46.9693Z"/><path d="M136.4156,106.3737c.0608.0521.019.1006-.0929.1079l-.0539-.0479-.0552-.0489C136.2013,106.2772,136.3547,106.3216,136.4156,106.3737Z"/><path d="M71.5442,65.9033c-.0619-.06723.0147-.1219.1702-.1214l.1041.0591.0326.0184C71.8121,66.0113,71.6061,65.9707,71.5442,65.9033Z"/><path d="M184.2165,145.8563a1.20787,1.20787,0,0,1,.7359-1.8068,7.81238,7.81238,0,0,1,2.535-.3627c.4069.0658.9602,1.3506.8641,1.9961a34.85466,34.85466,0,0,1-.8641,3.8616c-.2367.8175-.7656.8758-1.175.1297Z"/><path d="M178.9986,134.24607a2.1815,2.1815,0,0,1,1.3337-2.57747,24.5278,24.5278,0,0,1,3.883-1.0333.68156.68156,0,0,1,.6822.26377,2.09206,2.09206,0,0,1-.5627,2.79933l-2.9849,2.0845c-.8904.622-1.7068.811-1.814.4203C179.4284,135.8123,178.9986,134.24607,178.9986,134.24607Z"/><path d="M171.8894,60.8657a1.23487,1.23487,0,0,1-.1976,1.4096l-1.282,1.2583c-.3523.3457-.7788.4912-.9476.323l.027-.1077c.4082-1.6236,1.046-3.991,1.046-3.991.1284-.4767.4327-.5153.6766-.0861Z"/><path d="M96.8266,133.3025a1.83005,1.83005,0,0,1,.1342-1.8222c.3644-.5186,1.4927-1.0449,1.8614-.2508a6.05244,6.05244,0,0,1,.4482,1.9365.98555.98555,0,0,1-.2132.8086C98.4004,134.5535,97.1173,133.78607,96.8266,133.3025Z"/><path d="M145.1883,121.8614a1.2071,1.2071,0,0,1-1.9461-1.0497,1.48731,1.48731,0,0,1,.3083-.852c1.1501-1.688,2.4467-3.2527,2.4467-3.2527a1.21869,1.21869,0,0,1,2.2073.2774s.645,1.3635.1328,2.1861A10.56145,10.56145,0,0,1,145.1883,121.8614Z"/><path d="M145.2176,14.76557c-.1788-.3668-.1556-.7862.051-.9315.2065-.1455.729-.1325.8268.2637,0,0,.1523.6161.2663,1.2931a1.61556,1.61556,0,0,1-.6563.2227A8.75214,8.75214,0,0,1,145.2176,14.76557Z"/><path d="M141.3296,69.4819c.3972.5145.0136,1.2278-.852,1.5853a19.46579,19.46579,0,0,1-2.2335.7505c-.1053.0268-.8923-1.4164-.7047-1.6512a7.81663,7.81663,0,0,1,1.1981-1.256C139.4833,68.344,140.9326,68.9677,141.3296,69.4819Z"/><path d="M128.3095,123.277c-.2227-.1088-.2164-.2726.0142-.3638,0,0,.3878-.1536.4902-.0827a3.72009,3.72009,0,0,1,.5505.4707c.1684.18187.1627.3733-.013.4254l-.1255-.0459C128.876,123.5536,128.3095,123.277,128.3095,123.277Z"/><path d="M90.8006,82.4537a14.83674,14.83674,0,0,0-.9511-1.9047c-.5608-1.0286-1.5232-3.8312-.8927-3.94293.6307-.11207,2.2235.56243,2.1383,1.747,0,0-.1447,2.01583-.2945,4.10063Z"/><path d="M185.0122,92.808a4.83741,4.83741,0,0,1,3.0025-.3574c.8241.2273,2.1213,1.4029,1.2778,2.1704l-.792.0295a35.61822,35.61822,0,0,1-4.3021-.1429C183.0503,94.3903,184.1853,93.2317,185.0122,92.808Z"/><path d="M147.1949,84.371c.7015.4637.6506,1.131-.1134,1.4827a7.86553,7.86553,0,0,1-2.082.6566c-.4207.0092-1.2708-.8833-1.2175-.98023.3942-.71667.8802-1.73627,1.5079-1.87187C145.9127,83.5236,147.1949,84.371,147.1949,84.371Z"/><path d="M202.0697,80.8972c-.1517.29287-.4148.4171-.5847.276-.1698-.1413-.455-.5636-.331-.687a.87259.87259,0,0,1,.8877-.09813l.0347.20583A.53487.53487,0,0,1,202.0697,80.8972Z"/><path d="M155.53,23.2298a2.01453,2.01453,0,0,1-2.8278-.45873,1.76055,1.76055,0,0,1-.2179-1.18c.072-.57777.171-.62537.171-.62537a2.31325,2.31325,0,0,1,2.8971.8148l.1103.901C155.7136,23.096,155.53,23.2298,155.53,23.2298Z"/><path d="M179.0018,70.4273c-.4578.0476-.8541-.0576-.8807-.2341-.0264-.1764.3799-.696.9608-.7713a7.97292,7.97292,0,0,1,1.1329-.0314l.1372.0042C180.4892,69.8709,179.4595,70.3796,179.0018,70.4273Z"/><path d="M123.0792,30.5149a1.32335,1.32335,0,0,1-.2354-2.4997,23.01689,23.01689,0,0,1,3.3578-1.94913c.3893-.168,2.0319,1.27093,1.9394,1.49753a15.2411,15.2411,0,0,1-2.3594,3.9114C125.6215,31.66807,123.0792,30.5149,123.0792,30.5149Z"/><path d="M139.9257,78.3652c-.3655.6213-.8974.5877-1.1821-.0746a.90337.90337,0,0,1-.0185-.6578,4.62206,4.62206,0,0,1,.5165-.8905c.4759-.5413,1.0662-.5617,1.3115-.04523l-.096.391A5.55169,5.55169,0,0,1,139.9257,78.3652Z"/><path d="M123.5053,77.91607a1.40547,1.40547,0,0,1-1.6302-1.33377l.0694-.01023c1.1212-.16417,1.7891-.20787,1.7891-.20787a1.39548,1.39548,0,0,1,1.6247,1.1787l-.1443.0374A13.867,13.867,0,0,1,123.5053,77.91607Z"/><path d="M149.0835,101.7378c-.4162-1.1426.1593-1.97773,1.2789-1.85573l.1551.33283a10.40956,10.40956,0,0,1,.6017,1.439c.2886,1.1813-.1423,2.2336-.9576,2.3384l-.1351-.2423A15.535,15.535,0,0,1,149.0835,101.7378Z"/><path d="M96.6799,123.8372a.85592.85592,0,0,1,.2098-.9284c.2522-.24473.99-.5123,1.1317-.1023l-.0936.3045-.1745.5674A.6253.6253,0,0,1,96.6799,123.8372Z"/><path d="M126.3251,117.2015a.966.966,0,0,1-1.5035-.7367,4.18332,4.18332,0,0,1,.0094-.945l.0188-.2032a1.59673,1.59673,0,0,1,1.6573.8709l.0617.625C126.5928,117.0568,126.3251,117.2015,126.3251,117.2015Z"/><path d="M137.2991,30.8522c-.8035-.5527-.6948-1.2285.2416-1.5014,0,0,.0454-.0131.317.146a14.64131,14.64131,0,0,1,1.3432.8565c.7733.5941.9717,1.4327.4408,1.86377l-.2357-.11507A19.6027,19.6027,0,0,1,137.2991,30.8522Z"/><path d="M188.9016,99.4658c-.0675.0491-.1422.0547-.1658.01227a.10657.10657,0,0,1,.0888-.13867s.0675-.0152.1762-.03433c.0085-.00157.0373.05613.0347.05813C188.9507,99.4302,188.9016,99.4658,188.9016,99.4658Z"/><path d="M200.7579,21.7147c.5901.4908.854,1.1349.5864,1.4315a2.18587,2.18587,0,0,1-2.4267-.6089s-.0775-.0789-.7128-1.0274l-.1655-.2474C198.4395,20.6005,200.1678,21.2238,200.7579,21.7147Z"/><path d="M131.1903,54.5463a.59.59,0,0,1,1.0409.0411l-.0467.2018-.0629.27187a.61248.61248,0,0,1-.8979-.03167l-.0179-.2578Z"/><path d="M94.7566,120.7749a.20088.20088,0,0,1-.3482.0048.71788.71788,0,0,1-.0737-.163l-.0162-.04563a.26241.26241,0,0,1,.3544.03713l.0706.1165C94.7657,120.7617,94.7566,120.7749,94.7566,120.7749Z"/><path d="M203.2723,61.7136a1.89533,1.89533,0,0,1-2.7821.0946l.085-.0985a12.28418,12.28418,0,0,1,2.2125-1.9698,5.20591,5.20591,0,0,1,1.078,1.2127Z"/><path d="M159.5728,60.7456c-.2259-.5584-.1704-1.1781.124-1.3769.294-.1992,1.379.0647,1.8017.99837l.0267.85973.0136.44127C160.868,62.1747,159.7989,61.3038,159.5728,60.7456Z"/><path d="M148.002,33.72007a.908.908,0,0,1,.57-1.35227l.3762.0125c.0971.0033.3394.6871.23.8152a1.53794,1.53794,0,0,1-.9978.5173Z"/><path d="M109.0173,24.2495c-.0316-.0242-.0278-.0838.0085-.1323l.0055.00287a.67991.67991,0,0,1,.1549.11033l.0071.0071C109.1561,24.29,109.0489,24.2737,109.0173,24.2495Z"/><path d="M196.6837,59.5389a.7066.7066,0,0,1-.9955-.3834c-.1612-.4095-.1725-1.4237.2855-1.4639l.0965.1582a5.78219,5.78219,0,0,1,.595,1.615Z"/><path d="M128.3047,94.346c-.2689-.2188-.2108-.5544.1294-.7455a1.46676,1.46676,0,0,1,.3004-.0809c.0561-.0119.3098.392.2574.5067a.72256.72256,0,0,1-.5381.3084Z"/><path d="M104.9538,106.9369c-.9069.0983-1.7081-.1643-1.7805-.5835a1.71259,1.71259,0,0,1,1.2182-1.6049l.6371.1835c.2114.0609.3682,1.2405.124,1.6618Z"/><path d="M194.3837,84.7075c-.1887.1478-.3869.10257-.4406-.1008l.0252-.1043c.0177-.07433.1829-.1889.2114-.1712.1008.0627.2508.1923.2349.2634A.47711.47711,0,0,1,194.3837,84.7075Z"/><path d="M84.0066,66.5499c.4063.6307.0463,1.446-.7997,1.8117l-.2236-.1742-.3978-.3099a1.23147,1.23147,0,0,1,.6436-1.5403l.422.1154Z"/><path d="M147.8893,52.7804a.59756.59756,0,0,1-.8668-.3896l.0872-.1753.0759-.1528a.78954.78954,0,0,1,.8029.3636l-.0525.1875Z"/><path d="M131.1551,31.6306c.157.33947.0401.6706-.2593.7359a1.31053,1.31053,0,0,1-1.2362-.7021l.1064-.38033.0883-.31587C130.2835,30.7134,130.9982,31.291,131.1551,31.6306Z"/><path d="M139.6909,123.0864c-.2564.5728-.7608.6355-1.1211.1392l.0063-.273.007-.3008a.77161.77161,0,0,1,1.0466-.1721l.0372.249A.99411.99411,0,0,1,139.6909,123.0864Z"/><path d="M139.9648,46.42607c-.1785.21223-.6578.12853-1.0654-.18557l.0405-.1092.1633-.43923c.3127-.43377.7081-.67377.8786-.53327A1.60217,1.60217,0,0,1,139.9648,46.42607Z"/><path d="M121.6778,96.2889a.47482.47482,0,0,1,.0656-.6847,1.27408,1.27408,0,0,1,1.4136.0601l-.048.27677-.0618.35723A1.28839,1.28839,0,0,1,121.6778,96.2889Z"/><path d="M157.4178,58.3286a.63322.63322,0,0,1-.7795.1534,1.3588,1.3588,0,0,1,.0207-1.4523l.4419-.1691.2593-.0991A1.26666,1.26666,0,0,1,157.4178,58.3286Z"/><path d="M208.3833,58.4404c-.2947.1378-.7261-.2885-.9588-.9471l.0781-.0465a2.78461,2.78461,0,0,1,1.3722-.4511l.1667.0018A1.508,1.508,0,0,1,208.3833,58.4404Z"/><path d="M139.3448,79.54007a1.07263,1.07263,0,0,1,.0746-1.60417l.3483.0064.2846.0051a1.33378,1.33378,0,0,1-.0665,1.5352l-.3398.03047Z"/><path d="M107.104,91.5659c-.1471-.2975-.1059-.6159.0915-.7072s.8279.16837,1.0913.7209l.1476.5278.018.0644C107.9786,92.3806,107.2509,91.8636,107.104,91.5659Z"/><path d="M150.9844,89.80407a1.15347,1.15347,0,0,1-1.7683.13143l-.0759-.4259-.0516-.289a1.49677,1.49677,0,0,1,1.7286-.1407l.089.38617Z"/><path d="M111.912,16.35617a1.3477,1.3477,0,0,1-1.3856,1.53373l-.1578-.25383-.323-.52a1.145,1.145,0,0,1,1.132-1.3187l.4002.3043Z"/><path d="M90.3692,81.6499c-.8915.34217-1.7824-.3675-1.9796-1.57683l.2195-.15077a1.9908,1.9908,0,0,1,1.6937-.2268,1.55143,1.55143,0,0,1,.3527,1.5029Z"/><path d="M89.0358,81.72207c-.8102.43293-1.7452-.13847-2.0775-1.26937l.1915-.1701a1.915,1.915,0,0,1,1.5899-.4183,1.49269,1.49269,0,0,1,.5157,1.3927Z"/><path d="M207.7642,24.3337c.0054-.0163.2426.4189.5273.9672,0,0,.0537.1034.3286.6589l.0023.0045c-.1242.0675-.3972-.3524-.6067-.9335l-.2515-.6971Z"/><path d="M162.6815,104.8288a.92875.92875,0,0,1,.0202,1.2665l-.0946-.0405-.3286-.1405a.76738.76738,0,0,1-.0791-1.04623l.2512-.02057Z"/><path d="M127.4145,109.9608a.60048.60048,0,0,1,.3273-.87573l.1989.07133.1697.06067a.732.732,0,0,1-.3094.83413l-.2033-.0476Z"/><path d="M209.4602,82.107c-.638.5888-1.2577.3369-1.3768-.5595l.1708-.4601.1531-.4126a.79741.79741,0,0,1,1.2482.5129l-.1062.4998Z"/><path d="M205.9645,17.7813c.1151.1043.0331.3316-.1823.5051l-.1811.0568c-.0574.018-.2852-.2227-.2718-.32313l.027-.20077C205.4844,17.6114,205.8493,17.677,205.9645,17.7813Z"/><path d="M166.4538,110.8832a.29589.29589,0,0,1-.3212-.06913.46.46,0,0,1,.1752-.53777l.177.026.1423.02077A.454.454,0,0,1,166.4538,110.8832Z"/><path d="M196.9973,118.2688a.96907.96907,0,0,1,1.0552-1.3574l.2302.2589.2783.3131a1.27659,1.27659,0,0,1-.9642,1.2875l-.2479-.2077Z"/><path d="M165.5323,15.77577a.19377.19377,0,0,1-.3131-.0339l.0211-.0542.0299-.0767a.23744.23744,0,0,1,.2972.0335l-.0137.0512Z"/><path d="M87.7458,114.7685c.5434.2395.8029.6147.5769.8338-.2263.2193-.9951.4499-1.3328.1487l-.1806-.3411c-.0494-.0937.359-.6109.5736-.6221Z"/><path d="M106.1568,47.8974c-.1886.10467-.4249-.1148-.5251-.4876l.0538-.2383a.60463.60463,0,0,1,.5448-.218l.2231.1225C106.6276,47.341,106.3456,47.793,106.1568,47.8974Z"/><path d="M136.2339,81.2447a.46867.46867,0,0,1-.6502-.052.9892.9892,0,0,1,.2973-1.1683l.4327-.0976.1568-.0354A1.29082,1.29082,0,0,1,136.2339,81.2447Z"/><path d="M107.5645,94.7056c-.3894.5366-.8625.7562-1.0514.48847a1.25307,1.25307,0,0,1,.1477-1.41247l.4176-.16653c.0906-.03617.5927.49493.5555.70223Z"/><path d="M111.0453,105.8239c-.4864.6453-1.0707.8965-1.2985.55817s-.3215-1.37287.1711-1.73577l.4954-.104c.2069-.0435.8141.5856.7622.7841Z"/><path d="M190.7816,24.9963c-.2261.0756-.398-.0744-.3817-.333l.0893-.0817.0791-.0723a.454.454,0,0,1,.3769.3349l-.0602.0558Z"/><path d="M99.5728,112.1247c.0092.0276-.0284.08137-.0836.1201l-.0361-.011-.0399-.0121c-.0303-.0587-.0279-.1198.0051-.136C99.4515,112.0695,99.5636,112.0975,99.5728,112.1247Z"/><path d="M68.5011,66.9104a.15475.15475,0,0,1-.163.1499c-.0899-.0018-.3334-.1453-.3475-.3154l.0497-.02383.1349-.06477A.34072.34072,0,0,1,68.5011,66.9104Z"/><path d="M97.0991,30.11607a1.08471,1.08471,0,0,1-.7551-1.02887l.2056-.2186.1234-.1318a1.13146,1.13146,0,0,1,.7709,1.0342l-.2017.202Z"/><path d="M105.8667,116.9693a.8.8,0,0,1-.981-.1656l.0484-.0727.1909-.2865a.535.535,0,0,1,.8465.0855l-.0531.2226Z"/><path d="M209.2239,64.059a1.30488,1.30488,0,0,1,1.4197-.43l.0669.2573.0715.2749a1.3185,1.3185,0,0,1-1.4028.4248l-.0754-.2558Z"/><path d="M185.2728,26.7619c-.0888.0488-.2311-.044-.3162-.2061l-.0408-.1539c-.0053-.0203.198-.1491.2566-.1222l.1529.07A.28207.28207,0,0,1,185.2728,26.7619Z"/><path d="M138.8531,100.9048c-.233-.2532-.3039-.5283-.1577-.6114a.62861.62861,0,0,1,.7492.2611l.0507.28557c.0098.05523-.3273.26423-.3912.22373Z"/><path d="M165.1605,32.8384a.05048.05048,0,0,1-.0441-.03133.0676.0676,0,0,1,.057-.06867l.0252.0159.0205.0129A.06973.06973,0,0,1,165.1605,32.8384Z"/><path d="M100.5974,64.3755a.84613.84613,0,0,1,.8412-.4459l.0764.1538.0789.1583a.85649.85649,0,0,1-.8314.4408l-.0817-.1516Z"/><path d="M88.9218,52.035c.1662.0698.1682.3314.0046.5814l-.2056.1438a.53774.53774,0,0,1-.441-.1138l-.0265-.2807C88.2929,52.0508,88.7558,51.965,88.9218,52.035Z"/><path d="M92.5343,36.412a.078.078,0,0,1,.1189-.0215.15635.15635,0,0,1-.0075.2179l-.0804.029-.0299.01067C92.4828,36.60507,92.5075,36.4556,92.5343,36.412Z"/><path d="M123.8038,57.4943a.86246.86246,0,0,1-.4724,1.1239l-.2664-.0586c-.1361-.0297-.3129-.576-.2196-.7644a.847.847,0,0,1,.7447-.3709Z"/><path d="M175.9846,42.5229c-.1653.0685-.3385.0469-.3849-.048-.0462-.09483.1046-.4534.4334-.5965l.3117-.0806.0366-.0094C176.4919,42.0507,176.1502,42.4545,175.9846,42.5229Z"/><path d="M116.3836,87.0803a.32059.32059,0,0,1,.0089.3816l-.0808.0059-.0676.0048a.353.353,0,0,1-.009-.3934l.0693.0004Z"/><path d="M207.7203,44.945c-.1884.12007-.3686.138-.4004.0395a.43665.43665,0,0,1,.2499-.45043l.1808-.01037c.0307-.0017.1325.2417.0987.2792Z"/><path d="M111.7162,74.4342a.34149.34149,0,0,1-.3677-.0815l.0154-.066a.1873.1873,0,0,1,.3654.0823Z"/><path d="M126.454,37.5554a.72485.72485,0,0,1-.4925-.0738c-.0569-.0654-.1004-.2781.0328-.32953.133-.05127.5366-.01587.6017.19263l-.0694.1029Z"/><path d="M85.7288,69.5625a.19376.19376,0,0,1-.1255-.0443l-.0102-.0377-.0062-.0231c.0457-.0396.1046-.0496.1308-.0224C85.7441,69.462,85.752,69.5544,85.7288,69.5625Z"/><path d="M76.1233,71.9182c-.0553-.0202-.0635-.0662-.0185-.102a.05726.05726,0,0,1,.1005.0368C76.2154,71.90907,76.1784,71.9385,76.1233,71.9182Z"/><path d="M104.7151,93.607c.0453.0833.0442.16607-.0021.184-.0465.0178-.1803-.0153-.1955-.1094l.0075-.0836c.0019-.0212.1149-.0622.1315-.0464Z"/><path d="M139.7559,81.5032c.0998-.0172.3088.1272.4647.3211l-.0096.1674-.008.1401c-.2025.1428-.4344.1361-.5151-.0153C139.607,81.96507,139.6564,81.5206,139.7559,81.5032Z"/><path d="M177.6411,126.59307c-.1665-.12317-.2312-.27667-.1439-.34107.0874-.0646.393-.094.4852.0687l.0415.1591c.0108.041-.1681.1939-.2151.1762Z"/><path d="M160.4603,63.8349a.20278.20278,0,0,1,.2643-.0281c.0731.0587.0698.2924-.116.4315l-.1864.0906-.035.0173C160.2777,64.2185,160.388,63.90907,160.4603,63.8349Z"/><path d="M154.1861,120.652a.25426.25426,0,0,1-.0003-.2803.36657.36657,0,0,1,.4814-.0015l.0049.1471.0043.1346A.38646.38646,0,0,1,154.1861,120.652Z"/><path d="M71.4328,109.4835c.0139.0101.0111.0212-.0061.02457-.0173.00373-.0288-.00447-.0255-.01807C71.4048,109.4766,71.4188,109.4737,71.4328,109.4835Z"/><path d="M139.6555,118.5396c-.0534.0042-.1196-.148-.1471-.33853l.0061-.17257.0006-.0195c.1526-.0158.2852.0528.2949.1525S139.7087,118.5352,139.6555,118.5396Z"/><path d="M113.4947,52.192c.1053-.041.1755.0168.1561.1284-.0196.1113-.1056.1449-.1913.0743S113.3895,52.2329,113.4947,52.192Z"/><path d="M119.7259,99.3594c-.0509-.0089-.0701-.0964-.0429-.19433l.0419-.07727c.0069-.0129.1291.00527.138.0302l.0298.085C119.9016,99.3046,119.7766,99.3682,119.7259,99.3594Z"/><path d="M106.002,66.697c-.0155-.0012-.0424-.0306-.0597-.065l.0076-.0238.0066-.0206c.0364-.0132.0717-.0034.0782.0219S106.0176,66.6983,106.002,66.697Z"/><path d="M112.3974,73.7094c-.0677-.0705-.0566-.12733.0249-.12633s.2763.07063.2671.13483S112.4653,73.7799,112.3974,73.7094Z"/><path d="M197.1552,67.5178c-.1235.0046-.1754-.0928-.1157-.21673s.1606-.128.2241-.00867C197.3273,67.4115,197.2785,67.513,197.1552,67.5178Z"/><path d="M214.4929,60.6245a.07663.07663,0,0,1-.0214-.10743c.025-.03147.1009-.066.1126-.00677S214.5297,60.6525,214.4929,60.6245Z"/><path d="M117.1956,118.7968c.0586.038.0273.0845-.0696.1026l-.0541-.03533-.0522-.03417C116.9982,118.73807,117.1372,118.7589,117.1956,118.7968Z"/><path d="M179.0536,67.4175c.0549.1042.0049.1691-.1109.14457-.116-.02487-.1608-.11007-.0998-.18937S178.9986,67.3135,179.0536,67.4175Z"/><path d="M162.2881,133.9873c-.109-.0997-.0789-.2038.0672-.2315.1461-.0273.2356.0541.1986.18127C162.5169,134.0644,162.3973,134.08707,162.2881,133.9873Z"/><path d="M76.9654,66.3635a.03584.03584,0,0,1,.0394-.0307c.0175.0036.0462.02627.0243.0432C77.0076,66.393,76.9612,66.3839,76.9654,66.3635Z"/><path d="M203.501,134.1752c-.0217-.0225-.0143-.0454.0164-.0512.0309-.0055.0487.0129.0395.0409C203.5479,134.19307,203.5227,134.1977,203.501,134.1752Z"/><path d="M174.2211,56.2502c-.0671-.05-.0532-.113.0309-.1404s.1393.0135.1222.0906S174.2883,56.3,174.2211,56.2502Z"/><path d="M171.2436,84.9253a.239.239,0,0,1-.21-.108.25652.25652,0,0,1,.1692-.3193l.1066.0539.104.0527A.25754.25754,0,0,1,171.2436,84.9253Z"/><path d="M81.8635,17.46587c.0561-.069.1285-.1091.1606-.0893.0323.0199.0993.1011.0771.1361a.24445.24445,0,0,1-.2443.05153l.0023-.03243Z"/><path d="M181.3635,104.19107a.07209.07209,0,0,1,.0956-.02327c.0295.0194.0646.08127.0121.094C181.4185,104.2745,181.3405,104.2233,181.3635,104.19107Z"/><path d="M118.7551,74.85707c.058-.04367.1028-.01727.0993.05863s-.051.1119-.1057.0796S118.6969,74.9008,118.7551,74.85707Z"/><path d="M170.2587,64.4604c.0323-.0382.077-.0278.1002.0232.0229.0511-.0033.0823-.0582.0694S170.2269,64.4985,170.2587,64.4604Z"/><path d="M183.8655,67.1546c-.0685-.0657.0073-.1274.1686-.1369l.1118.0546.035.0169C184.1502,67.2493,183.9339,67.2204,183.8655,67.1546Z"/></g></mask><clipPath id="clip-path"><polygon class="cls-1" points="362.126 -407.375 648.665 -526.784 648.665 -772.665 -445.627 -772.665 362.126 -407.375"/></clipPath><clipPath id="clip-path-2"><rect class="cls-1" x="-709.5618" y="-1200.83309" width="1850.04119" height="1211.84907"/></clipPath></defs><title>kyotokimono REMAKE-和服介紹</title><rect class="cls-3" x="8.28327" y="12.99975" width="500" height="126"/><rect class="cls-4" x="16.28327" y="19.99975" width="483" height="110"/><g class="cls-5"><path class="cls-6" d="M518.16724,23.18594l.01653,2.43772-.08064,2.58317.35487,2.58239-.09844,2.58244-.20077,2.58338.312,2.58525-.26121,2.5847.1555,2.58343.03029,2.58327-.008,2.5843-.29756,2.58626.1802,2.58437.22175,2.58392-.03205,2.585.01413,2.58582-.19157,2.5845.083,2.5851-.01723,2.58612-.03,2.58494L518.186,74.7218l.28083,2.581-.26617,2.58517.07006,2.58469.05273,2.58242-.14322,2.58419.279,2.58714-.25591,2.58427.29355,2.58729.01347,2.58584-.03017,2.58829-.09009,2.58671-.03033,2.588-.22624,2.58912.37691,2.58357-.25076,2.587.081,2.59.05681,2.59031-.26246,2.591.36442,2.59515-.26387,2.52445-3.00482.09017-2.478.47114-2.435.60175-2.29373,1.01442-2.15378,1.27772-1.86588,1.66222-1.97109,1.58841-1.40448,2.10168-1.024,2.29688-1.11755,2.27331-.15962,2.5336-.48,2.48322-.02785.271.17114,3.21712-2.49688.08989L492.902,148.226l-2.5915.03079-2.59109.11866-2.5907-.17979-2.59037.36531-2.59007-.2034-2.5898.09838-2.58959.04708-2.5894.057-2.58927-.15609-2.58918-.177-2.58912.259-2.58911.04961-2.58914-.15146-2.58921-.20023-2.58934.2873-2.5895-.0451-2.58971-.11731-2.59.23691-2.59026-.076-2.59062-.03759-2.591.11924-2.59146-.04619-2.59194-.33768-2.59249.11853-2.59308-.04668-2.59373.32651-2.59362-.25124-2.59306.1949-2.59253-.27941-2.59206-.01213-2.59165.29672-2.59128-.33862-2.591.00074-2.59074.05963-2.59053.036-2.59041.29586-2.59033-.039-2.59031.03143-2.59035-.105-2.59045-.26222-2.59062.07489-2.59085.18376-2.59113-.06118-2.59149.07306-2.59191-.107-2.59239.1548-2.59294-.26227-2.59357-.07437-2.59425.08154-2.59389.06341-2.59329.17557-2.59278-.25154-2.59234.26724-2.592-.17653-2.59167-.041-2.59145-.00207-2.59132.17974-2.59125.04475-2.59127-.07579-2.59137-.10256-2.59155-.058-2.59183.15484-2.59217-.21746-2.59262.18559-2.59314.10131-2.59377-.27563-2.59447-.03172-2.59426.31035-2.59364-.16228-2.59311-.07648-2.59269.12873-2.59236-.06893-2.59214-.02041-2.592-.1175-2.592.02254-2.5921-.068-2.5923.20838-2.59261-.02637-2.593-.03007-2.59358-.12424-2.59424.10013-2.595-.11041-2.59424.1544-2.59365.03426-2.5932-.14637-2.59286.08645-2.59266.231-2.59261-.24859-2.59267.00471-2.5929.07079-2.59325-.166-2.59376.27558-2.59443-.14263-2.59516-.0563-2.59441.14507-2.59384-.06376-2.59342-.03337-2.59317-.02535-2.5931.2179-2.5932-.282-2.59348.2128-2.594-.12477-2.5946-.13984-2.59529.20873-2.59453.09483-2.594-.12467-2.59364.18139-2.59351-.21571-2.5936.11216-2.59392.09788-2.59319-.187-2.595.01036-2.59427.08451-2.5928-.0963-2.59158-.10458-2.59063.102-2.58995.17646-2.58957-.26138-2.58948.31807-2.58968-.21394-2.5902.0459-2.591-.17512-2.59222.30791-2.59373-.26419-2.59561.15828-2.59529-.0464-2.59374.0787-2.59258-.04635-2.59183-.17632-2.59151.325-2.59161-.17717-2.59219-.0705-2.59322-.12171-2.59476.36447-2.5968-.34353-2.5954.08868-2.594.25679-2.5932-.22885-2.593-.18287-2.59342.165-2.59452-.05419-2.5963.0219-2.5966-.01765-2.595.04942-2.59422-.08865-2.59427.24-2.59522.0264-2.5971.0421-2.59655-.32246-2.59527.30866-2.59511-.20973-2.59614.024-2.59811.22034-2.59622-.03327-2.59577-.24924-2.59684.07962L85.8512,148.318l-2.59635-.13257-2.597.164-2.598-.06908-2.59679.061-2.5916-.19489-2.59284.13832-2.597.14629-2.59654-.05641-2.59425.09069-2.596-.18469-2.599-.10278-2.59612.03228-2.59914-.01283-2.59769.21761-2.60015-.169-2.59857.21241-2.59987.04841-2.601.0615-2.59541-.34088-2.5989.05006-2.60182.11666-2.60219.04337-2.60284-.1087-2.607-.02184-2.77032.17393.33011-3.40439-.31654-.35307.07153-2.54892-.77846-2.42956-.65706-2.46752-1.25869-2.22514-1.43858-2.1222-1.91855-1.69934-1.93308-1.67739L10.623,128.228l-2.50334-.59965-2.449-.6122-2.50732-.5728-3.02706-.075-.31107-2.426.14491-2.58627.06625-2.58549L.12959,116.185l-.012-2.58649-.02449-2.58835-.24569-2.58781.35931-2.58653-.28342-2.58637.00488-2.5874.20423-2.58937L-.0437,95.48523l.16162-2.587.00863-2.5881L.09137,87.72119.028,85.13358l.15646-2.58821L.05236,79.95614l.1409-2.588L.0956,74.78522l-.15225-2.5841.09681-2.58828L.15377,67.025.14591,64.43953l-.21459-2.5873L-.09381,59.262l-.04046-2.58737.0077-2.5904.27193-2.58894L-.049,48.90387l-.07677-2.58982L.156,43.72294.10326,41.13071.12941,38.544l-.2017-2.59014.09537-2.59307-.086-2.59342.23854-2.59409-.21923-2.59826.03646-2.60668,3.16377-.1972,2.51717-.294,2.4726-.54919,2.4146-.8165L12.74049,19.786l2.12193-1.43528,1.60371-1.999,1.82173-1.83535.90946-2.4193.86773-2.38.56469-2.47071.24108-2.53-.17266-1.02907L20.56991-.04653l2.655.038,2.581.092,2.58049-.13729,2.58.2034L33.546.073,36.12526.01761l2.57891.11888L41.28277-.05l2.57835.23037,2.57813-.2245L49.0172-.15,51.595.003l2.57772-.10846,2.57766-.05548,2.57765.125,2.57769.11529,2.57776-.18667,2.57788.16248,2.578.14286,2.57825-.37491,2.57851.25635L77.375.12339l2.57915.02784L82.53367.14862l2.58-.24472,2.58048.25548,2.581-.17314,2.5816.06948,2.58225-.232,2.58215.004,2.58158.21641,2.58106-.20011,2.58059.234,2.58018-.03,2.57982.13751,2.57952-.25176,2.57927.10784,2.57907-.03622,2.57894-.13658,2.57887-.06119,2.57885.11829,2.57889-.02025,2.579.285L134.136.07664l2.57938-.16723L139.295-.12953l2.58-.0235,2.58044.26629,2.58092.07307,2.58147-.37878,2.58209.2267,2.58277-.17395,2.58241.17494,2.58182.1014,2.58131-.2326,2.58086.07727,2.5805-.15511,2.5802.18821,2.58.1617,2.57984-.26728,2.57979.27939,2.5798-.35151,2.57991.13475,2.58008.05619,2.58036.07385,2.58071-.18125,2.58114.24142,2.58167-.373,2.58229.4171,2.583-.22065,2.58278.03307,2.58216.12823L208.985.15656l2.58122-.193,2.58089.06426,2.58067-.06744,2.58055.24043,2.58053-.34294,2.58063-.04449,2.58083.11268,2.58114.1882L232.213.03567l2.5821.1104,2.58276-.34957,2.58347.2717,2.58277.04812,2.58218.02746L247.708-.12653l2.58139.14322,2.58119-.02514,2.58113-.05673,2.5812-.07785,2.58142.15861L263.19609-.158l2.58229.04024,2.58294.11586,2.58368-.208,2.58294.31549,2.58236.07552,2.58194-.38226,2.5817.16293,2.58162.02156,2.58173.13144,2.582-.049,2.58247-.26377,2.58312.37915,2.58381-.26077,2.58305.19243,2.5825-.15313,2.58216-.1082,2.582-.0436,2.58212-.00833,2.58245.05643,2.58171.04309,2.58354.04528,2.58279-.01889,2.58133-.007,2.58011.11017,2.57916-.20035,2.5785.05978,2.57811.18423,2.578-.09787,2.57822.02918,2.57874-.08259,2.57958-.00282L345.80357.049l2.58226-.25363,2.58413.1275,2.5838.28319,2.58227-.3951,2.5811.2414L361.2975.036l2.58-.21137,2.58015.08122,2.58072-.06838,2.58175.32376,2.58327-.17255,2.58531-.14558,2.58392.0867,2.58254.1876,2.58173-.19054,2.58152.2851,2.582-.28816,2.583-.13672,2.58481.276,2.58511-.11787,2.58353.121,2.58275.03038,2.5828-.08317,2.58373.13638,2.58561-.36152,2.58506.07105,2.58378.20242,2.58363-.12049,2.58465.25309,2.58662-.08571,2.58473-.20618,2.58428.20811,2.58535-.2328,2.58618.29364,2.58486-.30635,2.58546.19658,2.58648-.11429,2.58529.17948,2.58014.007,2.58136-.16589,2.58553-.09274,2.58505.06127L456.893.15835,459.47754.052,462.065.04929l2.58463-.07475,2.58764-.16947,2.5862.07957,2.58864.08616,2.58708.17248,2.58835-.00984L480.17706-.047,482.761-.21243l2.58739.35775,2.59031.02854,2.59067.02951,2.59133-.06331,2.59551-.3169,2.51636.22714-.13876,3.63706.09361,1.029.00869,2.50034.69,2.4026.66553,2.41053,1.14615,2.231,1.456,2.04508,1.80449,1.73845,1.99985,1.485,2.06766,1.40168,2.26108,1.10705,2.4256.72111,2.54178-.05111Zm-6.14611,97.40067-.0731-2.67383.08064-2.61426-.35487-2.613.09844-2.61282.20077-2.61385-.312-2.61584.26121-2.61393-.1555-2.61347-.03029-2.61456.008-2.61539.29756-2.61407-.1802-2.61466-.22175-2.6157.032-2.6145-.01413-2.60928.19157-2.61053-.083-2.61474.01723-2.61425.03-2.61195.13206-2.61375-.28083-2.61673.26617-2.61382-.07006-2.61688-.05273-2.61541.14322-2.61789-.27905-2.6163.25591-2.61759-.29355-2.61874-.01347-2.61311.03017-2.61663.09009-2.61957.03033-2.61994.22624-2.6206-.37691-2.62483.2491-2.63618-2.49086-.51569-2.3958-.76136-2.16208-1.28685L502.47852,25.44,500.63381,23.711l-1.81237-1.71327-1.79588-1.74641-1.4443-2.048L494.275,16.06429l-1.03852-2.28318-.93118-2.33981L492.07911,8.924l-.44886-2.5469-2.61885.15847L486.4213,6.253l-2.58983.36393-2.58962-.31016-2.58944-.04368-2.58931.08315-2.5892.137-2.58915-.14392-2.58915.0308-2.58917.11866-2.58925-.1798-2.58937.36532-2.58953-.2034-2.58974.09837-2.59.04709-2.5903.057-2.59065-.15609-2.591-.177-2.59149.259-2.592.04961-2.59252-.15145-2.59311-.20023-2.59376.2873L429.43,6.5394,426.837,6.42208l-2.59256.23691-2.5921-.076-2.59168-.03758-2.59132.11923-2.591-.04619-2.59076-.33768-2.59058.11853-2.59043-.04668-2.59036.32651-2.59034-.25124-2.59039.1949-2.59049-.2794-2.59065-.01213-2.59087.29672-2.59117-.33863-2.59152.00074-2.59194.05964-2.59243.036-2.593.29585-2.5936-.039L372.4155,6.674l-2.59392-.105-2.59333-.26223-2.59282.07489-2.59236.18376-2.592-.06118-2.5917.07306-2.59149-.107-2.59134.1548-2.59128-.26226-2.5913-.07438-2.59141.08155-2.59159.0634-2.59185.17557-2.59221-.25154-2.59265.26724-2.59318-.17652-2.59379-.041-2.59451-.00206-2.59429.17973-2.59367.04476-2.59314-.0758-2.59272-.10255-2.5924-.058-2.59217.15484-2.59205-.21745-2.592.18558-2.59213.10131L299.82583,6.342l-2.59264-.03172-2.59307.31035-2.59361-.16227-2.59427-.07648-2.595.12872L284.263,6.44164l-2.59369-.0204-2.59323-.1175-2.59289.02253-2.5927-.068-2.59263.20837-2.59271-.02637L266.1122,6.4102,263.51892,6.286l-2.5938.10014-2.59445-.11041-2.5952.15439-2.59445.03426L250.54715,6.318l-2.59345.08645-2.5932.231-2.59313-.24859-2.59323.00471-2.59352.07079-2.594-.166-2.59463.27557-2.59532-.14263L227.20212,6.373l-2.594.14506-2.59367-.06376L219.4209,6.421l-2.59364-.02535-2.594.21789-2.59322-.282-2.595.21279-2.59431-.12476-2.59283-.13984-2.59161.20873-2.59066.09483-2.59-.12467-2.5896.18139-2.5895-.21572-2.58972.11216-2.59024.09788-2.59107-.187-2.59226.01036-2.59376.08452-2.59565-.09631-2.59532-.10458-2.59377.102-2.59261.17645-2.59186-.26138-2.59154.31807-2.59165-.21394-2.59222.04591-2.59325-.17513-2.59479.30792L149.42,6.37694l-2.59544.15829-2.594-.04641-2.59323.0787-2.593-.04635-2.59346-.17632-2.59455.325-2.59633-.17716-2.59664-.07051-2.595-.12171L123.474,6.665l-2.59431-.34353-2.59525.08867-2.59713.25679-2.59658-.22885-2.5953-.18287-2.59515.165-2.59617-.05419-2.59814.02189-2.59625-.01764-2.5958.04941L94.917,6.33106l-2.59771.24-2.59638.02641-2.597.0421-2.598-.32247-2.59681.30867L79.33949,6.416l-2.59287.024-2.59706.22034L71.553,6.62711l-2.59428-.24924-2.59607.07963-2.599-.02624L61.16747,6.2987l-2.59918.164-2.59773-.06909-2.60018.061-2.5986-.19489-2.5999.13831-2.601.14629L42.97542,6.488l-2.59892.09069L37.77464,6.394l-2.60222-.10277-2.60287.03227-2.60708-.01283-2.58826.21466-.44183,2.45732-.37567,2.53526-.79843,2.44062-1.03835,2.355-1.612,2.01573-1.48828,2.06332-1.64692,1.953L18.08183,24.072l-2.14226,1.39992-2.22551,1.24537-2.242,1.2653-2.53583.4715-2.26556.701-.24591,2.54527.24,2.60783-.25318,2.60655.03684,2.60639-.11231,2.60742.1766,2.6094-.15,2.6075L6.301,49.95252l.36665,2.60812-.02276,2.609-.33656,2.60764-.0531,2.60823.38641,2.60926L6.49672,65.6028l-.06625,2.60287-.09326,2.6041.012,2.60831.02449,2.60782.24569,2.60552-.35931,2.60732L6.54348,83.849l-.00488,2.6074-.20423,2.61044.17613,2.609L6.34888,94.2873l-.00863,2.60986.03518,2.61116.06341,2.61229-.15646,2.60669.13206,2.61018-.1409,2.61313.09766,2.6135.15225,2.61415-.09681,2.61837-.10621,2.66549,2.72138.64567,2.59924.6301,2.44867,1.087,2.32793,1.33325,2.14462,1.61379,1.77067,2.01552,1.89571,1.883,1.59691,2.15278,1.03839,2.47409,1.06844,2.43175.72166,2.55765.613,2.53143,2.55481.09169,2.57724-.086,2.57694.23854,2.57668-.21923,2.57647.03255,2.57629-.123,2.57615-.05694,2.57605.04564,2.576.13451,2.576-.0691,2.576.16327,2.5761-.25231,2.57622.37495,2.57638-.35606,2.57659-.01779,2.57684.02679,2.57714.06072,2.57749-.12106,2.57788.11445,2.57833.07845,2.57881.092,2.57935-.13729,2.57995.2034,2.58058-.07654,2.58048-.05539,2.57992.11888,2.57939-.18653,2.57893.23037,2.57851-.22451,2.57816-.10579,2.57785.153,2.57761-.10847,2.57741-.05548,2.57728.125,2.5772.11529,2.57719-.18666,2.57722.16248,2.57733.14286,2.57749-.37491,2.57772.25635,2.578.04387,2.57835.02783,2.57878-.0026,2.57926-.24472,2.5798.25548,2.58042-.17314,2.58111.06948,2.58075-.232,2.58015.004,2.57964.21641,2.5792-.20011,2.57884.234,2.57853-.03,2.57832.13752,2.57819-.25177,2.57812.10785,2.57814-.03622,2.57824-.13658,2.57842-.06119,2.57869.11829,2.579-.02025,2.57948.285,2.58-.11412,2.58062-.16723,2.58133-.03895,2.58111-.02349,2.5805.26628,2.58.07308,2.57955-.37878,2.57923.2267,2.579-.174,2.57889.17495,2.57887.10139,2.579-.23259,2.57916.07727,2.57948-.15512,2.57989.18822,2.58044.16169,2.58109-.26727,2.58181.27939,2.5811-.35152,2.58051.13475,2.58006.0562,2.57972.07384,2.57953-.18124,2.57946.24142,2.57954-.373,2.57976.4171,2.58012-.22065,2.58062.03306,2.58127.12824,2.582.01014,2.58127-.193,2.5807.06425,2.58028-.06744,2.58.24044,2.58-.34294,2.58006-.04449,2.58034.11268,2.5808.18819,2.58146-.07853,2.58214.1104,2.58138-.34957,2.58084.27169,2.58049.04813,2.58037.02746,2.58046-.27032,2.58078.14323,2.58-.02515,2.58187-.05673,2.58113-.07784,2.57966.15861,2.57845-.17359,2.5775.04025,2.57683.11586,2.57645-.208,2.57635.31549,2.57656.07552,2.57708-.38226,2.57792.16293,2.57908.02156,2.5806.13143,2.58245-.04895,2.58215-.26378,2.58059.37916,2.57944-.26077,2.5787.19242,2.57837-.15313,2.57849-.10819,2.579-.04361,2.58008-.00832,2.58161.05642,2.58364.04309,2.58226.04529,2.58087-.0189,2.58006-.007,2.57986.11017,2.58029-.20034,2.58137.05978,2.58314.18423,2.58345-.09787,2.58186.02918,2.58108-.0826,2.58113-.00281,2.58207.13071,2.58394-.25363,2.58339.1275,2.58212.28319,2.582-.3951,2.583.24139,2.58495-.01635,2.58306-.21137,2.58261.08121,2.58368-.06837,2.58451.32375,2.5832-.17254,2.58379-.14558,2.58481.0867,2.58362.1876,2.57848-.19055,2.5797.28511,2.58386-.28816,2.58338-.13672,2.58111.276,2.58288-.11787,2.58583.121,2.583.03038,2.586-.08316,2.58453.13638,2.587-.36153,2.5854.07106,2.58669.20241,2.58781-.12048,2.58226.25309,2.58572-.08572,2.58864-.20617,2.589.20811,2.58966-.23281,2.59383.29364,2.55219-.29976.5457-2.43863.60674-2.54884,1.14607-2.35623,1.2338-2.29327,1.33191-2.25352,1.62706-2.06344,1.94294-1.7702,2.205-1.419,2.16615-1.45382,2.35779-1.12423,2.44477-.936Z"/><path class="cls-6" d="M508.5507,9.344l1.06416,1.14341-.05231,2.59728L509.561,15.684l.27141,2.59794-.38984,2.59654.2323,2.59573-.18175,2.59552.1564,2.596.04042,2.597-.09874,2.59882.22065,2.59914-.292,2.59754-.07035,2.59675-.00429,2.5968.12041,2.59775.12,2.59963-.252,2.59908.28951,2.59779-.23758,2.59765.2157,2.59866L509.5336,62.443l-.04928,2.59874.08739,2.5983-.15138,2.59937.07327,2.6002.22085,2.59888-.02084,2.59948.014,2.6005.0442,2.59932.00391,2.59413-.25378,2.59536.04622,2.59955.16366,2.59907-.16762,2.59678.22131,2.59856.04011,2.60153-.25743,2.59864-.07148,2.60168.22766,2.60023-.17976,2.60268.26871,2.6011-.36337,2.60239.3333,2.60353.00838,2.59793-.1365,2.60143-.10324,2.60436.12187,2.60472-.03808,2.60538.19735,2.60958-.34761,2.60958-.91473,1.26524-2.58093-.14132-2.58132.15818-2.58176-.06594-2.58224-.19022-2.58274-.02431-2.58327.14648-2.58386.0448-2.58446-.01941-2.58407-.30435-2.58353.34469-2.583.02025-2.58259-.0256-2.58218.06627-2.5818-.4105-2.58146.25633-2.58116.02475-2.58091-.05627-2.58068.18216-2.58051-.02511-2.58037-.10345-2.58027-.10739-2.58022-.17072-2.58021.07786-2.58024.13458-2.58032-.00685-2.58043.1916-2.5806-.01048-2.58081-.15376-2.58106.12384-2.58137-.131-2.58171.073-2.5821-.19759-2.58255.07926-2.583.00541-2.58358.08208-2.58416-.19055-2.58481.33089-2.58471-.17289-2.58414.06244-2.58362-.002-2.58315-.07129-2.58274-.04955-2.58238.1978-2.58207-.276-2.58183.11142-2.58163-.17368-2.5815-.02036-2.58143.279-2.5814-.2236-2.58145.26-2.58155.0948-2.58171-.06909-2.58194-.00076-2.58223-.04051-2.58258.07936-2.583-.00372-2.58348-.126-2.584.0698-2.58465-.12381-2.58533.11657-2.585.00247-2.58438.04063-2.58386-.36224-2.58343.14693-2.58305.21355-2.58276-.35194-2.58255.30681-2.5824-.23569-2.58235.0819-2.58236.00221-2.58246.179-2.58265-.16267-2.58291.03576-2.58327-.17731-2.5837.32731-2.58423-.31652-2.58485-.01744-2.58556.07715-2.58534.2952-2.58472-.13971-2.5842.14062-2.58377-.10023-2.58345-.04226-2.58323-.126-2.58311.14307-2.5831-.09721-2.58318.16613-2.58339.02067-2.5837-.19113-2.58412.109-2.58466-.03276-2.58532-.23794-2.586.23394-2.58533-.00378-2.58474-.17168-2.58427.12568-2.584-.02519-2.58376-.04695-2.58369.03522-2.58376-.05489-2.584.06691-2.58434-.0039-2.58485.246-2.5855-.10275-2.58624-.28335-2.5855.222-2.58492.1457-2.58451-.15949-2.58426-.14227-2.58418.13777-2.58429-.14457-2.58456-.03772-2.585.29157-2.58569.04929L211.491,138.742l-2.58562.2928-2.58506-.158-2.58472-.07351-2.5846-.05292-2.58468.04062-2.585.33284-2.58427-.21163-2.5861.18814-2.58536-.07088-2.58388.10718-2.58267-.3876-2.58173.3478-2.58105-.06473-2.58067-.11531-2.58057.22441-2.58078-.06619-2.5813-.07806-2.58214-.223-2.58331.15689-2.58482.06078-2.58668-.12411-2.58637-.08936-2.58483.27726-2.58366-.233-2.58293-.0865-2.58259.29226-2.58271-.03428-2.58327-.15462-2.58431.21572-2.58584-.13825-2.58787.09338-2.58649-.09194-2.58509.1917-2.58429-.14644-2.58409.02853-2.58451-.16061-2.5856.05068-2.58737.20265-2.58768.04219-2.58609-.02064-2.58531-.22976-2.58536.15057-2.5863-.21034L97.77524,138.8l-2.58762-.066-2.58635.41092-2.58619-.07211-2.58721-.2471-2.58918.28888-2.5873-.05751-2.58684-.29885-2.58791.22924-2.58875.06417-2.58742-.22133-2.588.14135-2.58905.11367-2.58785-.21758-2.5827.06311-2.58393.11123-2.58809.103-2.58761-.01807-2.58534-.27695-2.58711.00976-2.59006-.07278-2.58719.03-2.59021.01889-2.58877-.06265-2.59121.2064-2.58964-.22411-2.59092.27676-2.59205-.18924-2.58649.02084-2.58995-.107-2.59289-.02367-2.59324.29693-2.59389.05466-2.59808-.22046-2.59808.2429L8.52252,137.866l-.05119-2.59729.354-2.59933.05327-2.59793L8.716,127.47491l-.01-2.59573-.05244-2.59552-.15221-2.596.30234-2.597-.3298-2.59883.0799-2.59913-.04894-2.59754.00713-2.59675.01874-2.59681.35387-2.59775-.26238-2.59963.0622-2.59907.01587-2.5978.00237-2.59764-.12547-2.59866.02587-2.60065-.06426-2.59875.03475-2.59829L8.50718,78.114l.07949-2.6002-.07639-2.59888.22691-2.59948L8.7321,67.71492l-.20246-2.59931.32769-2.59413-.15355-2.59536-.17172-2.59956.24858-2.59906-.0401-2.59678-.20419-2.59857.01878-2.60153L8.76744,44.332l.099-2.60168-.02388-2.60022L8.75811,36.5274l-.28455-2.6011.0633-2.6024.33236-2.60352-.21228-2.59794L8.60381,23.521l-.07246-2.60436.2448-2.60472-.08831-2.60538L8.50936,13.097l.09-2.60958L9.7481,9.32371,12.329,9.417l2.58132-.19072,2.58176.33154,2.58224-.23606,2.58274.109,2.58327-.06621,2.58386.14405,2.58446.0896,2.58407-.1724,2.58353-.02959,2.58305-.04833,2.58259.25627,2.58218-.07231,2.5818-.04242,2.58146-.17053,2.58116-.02455,2.58091.24748,2.58068-.00243,2.58051.08454L61.391,9.30064l2.58027.13208,2.58022.04684,2.58021-.12626,2.58024.17882,2.58032-.03064,2.58043-.03393,2.5806-.05285,2.58081-.1555,2.58106.08893,2.58137.09881,2.58171.08684,2.5821-.1641,2.58255.09545,2.583.0617,2.58358-.08291,2.58416.06381,2.58481-.01637,2.58471-.1043,2.58414.12223,2.58362-.10405,2.58315.07115,2.58274-.0322,2.58238-.18532,2.58207.01386,2.58183.23422,2.58163-.10737,2.5815.0227,2.58143.08326,2.5814-.20662,2.58145.19224,2.58155-.01244,2.58171-.16372,2.58194.25859,2.58223-.36525,2.58258.11913,2.583-.04517,2.58348.21009,2.584-.27,2.58465.02412,2.58533.00721,2.585.04409,2.58438.26973,2.58386-.14818,2.58343.17341,2.583-.17577,2.58276-.02311,2.58255-.16206,2.5824.13152,2.58235.20805,2.58236-.05289,2.58246-.1751,2.58265.11621,2.58291.03552,2.58327-.19469,2.5837.1057,2.58423.10816,2.58485-.31261,2.58556.21072,2.58534.1965,2.58472.01022L218.937,9.539l2.58377-.09072,2.58345-.09722,2.58323.21768,2.58311-.3208,2.5831.10472,2.58318.14646,2.58339-.16572,2.5837.27794,2.58412-.39543,2.58466.15884,2.58532.13215,2.586.03691,2.58533-.02059,2.58474-.28456,2.58427.161,2.584.13892,2.58376-.11976,2.58369.00023,2.58376-.13525,2.584.19322,2.58434-.09174,2.58485.1349,2.5855-.23434,2.58624-.05321,2.5855.19908,2.58492-.22565,2.58451.07312,2.58426.29831,2.58418.045,2.58429-.36952,2.58456.34785,2.585-.2112,2.58569-.17562,2.58636.4099,2.58562-.00881,2.58506-.01261,2.58472-.09719,2.5846-.21226,2.58468.26048,2.585-.00516,2.58427-.20607,2.5861-.0255,2.58536-.112,2.58388.38109,2.58267.00454,2.58173-.369,2.58105.09388,2.58067.2282,2.58057-.06439,2.58078-.06719,2.5813-.13822,2.58214.26626,2.58331-.13117,2.58482-.16659,2.58668.28457,2.58637.08494,2.58483-.0209,2.58366-.02034,2.58293-.28786,2.58259.25206,2.58271-.33967,2.58327.24493,2.58431-.19849,2.58584.34022,2.58787.02052,2.58649-.013,2.58509-.11024,2.58429-.18722,2.58409.33119,2.58451-.20886,2.5856-.20939,2.58737.09882,2.58768-.09052,2.58609.01046,2.58531.07506,2.58536.15082,2.5863.098,2.58817.03673,2.58762-.32567,2.58635.19691,2.58619.14505,2.58721-.3504,2.58918.128,2.5873-.054,2.58684.18793,2.58791-.08893,2.58875-.06628,2.58742-.0784,2.588-.03069,2.589.21009,2.58785-.03973,2.5827-.0569,2.58393.022,2.58809.1339,2.58761-.06723,2.58534-.01853,2.58711-.01219,2.59006.18378,2.58719-.37754,2.59021-.00554,2.58877.3748,2.59121-.33469,2.58964.26915,2.59092.08844,2.592-.16789,2.58649-.00235,2.58995.0387,2.59289-.23252,2.59324.28218,2.59389-.29964,2.598.16747Zm-3.2334,126.3008,1.09144-1.01219.05231-2.57093.00158-2.56955-.27141-2.56874.38984-2.56854-.2323-2.569.18175-2.57-.1564-2.57181-.04042-2.57212.09874-2.57054-.22065-2.56975.292-2.56981.07035-2.57074.00429-2.5726-.12041-2.57206-.12-2.57079.252-2.57064-.28951-2.57165.23758-2.57361-.2157-2.57173L506.49,83.2167l.04928-2.57235-.08739-2.57317.15138-2.57186L506.53,72.92686l-.22085-2.57347L506.33,67.7811l-.014-2.56716-.0442-2.56838-.00391-2.57253.25378-2.57205-.04622-2.56978-.16366-2.57155.16762-2.57448-.22131-2.57163-.04011-2.57463.25743-2.57319.07148-2.57563-.22766-2.57406.17976-2.57534-.26871-2.57646.36337-2.57093-.3333-2.57438-.00838-2.57728.1365-2.57764.10324-2.5783-.12187-2.58245.03808-2.58245-1.09061-.89326-2.589-.34761-2.58945.35052-2.59-.14133-2.59058.15818-2.59118-.06594-2.59079-.19022-2.59026-.02431-2.58976.14648-2.58931.0448-2.58889-.0194-2.58852-.30435-2.58817.34468-2.58788.02025-2.58762-.0256-2.58739.06627-2.58722-.4105-2.58708.25633-2.587.02475-2.58693-.05627-2.58692.18216-2.587-.02511-2.587-.10345-2.58714-.10739-2.58732-.17071-2.58752.07786-2.58777.13457-2.58808-.00685-2.58842.1916-2.58883-.01047-2.58926-.15377-2.58976.12385L422.485,12.6555l-2.59089.073-2.59153-.19758-2.59144.07925-2.59086.00541-2.59033.08208-2.58988-.19054-2.58945.33088-2.5891-.17289-2.58879.06244-2.58854-.002-2.58835-.0713-2.58821-.04955-2.58814.1978-2.58812-.276-2.58816.11142-2.58826-.17368-2.58843-.02036-2.58866.279-2.58894-.2236-2.5893.26-2.58972.09479-2.5902-.06908L362.929,12.7842l-2.59137-.04051-2.59206.07936-2.59169-.00372-2.59111-.126-2.59059.0698-2.59014-.1238-2.58977.11656-2.58948.00248-2.58926.04062-2.58912-.36224-2.58906.14694-2.58908.21354-2.58918-.35194-2.58936.30681-2.58964-.23568-2.59.0819-2.59042.00221-2.591.179-2.59157-.16266-2.59228.03576-2.59206-.17731-2.59145.3273-2.59092-.31652-2.5905-.01744-2.59017.07715-2.58994.2952-2.58983-.1397-2.58981.14061-2.58991-.10022-2.5901-.04226-2.59042-.126-2.59085.14307-2.59138-.09721-2.59205.16613-2.59276.02067-2.592-.19113-2.59146.109-2.591-.03276-2.59067-.23793-2.59048.23393-2.5904-.00377-2.59049-.17168-2.5907.12567-2.59106-.02518-2.59157-.047-2.59223.03522-2.593-.05489-2.59222.06692-2.59165-.00391-2.59122.246-2.591-.10276-2.59091-.28335-2.591.222-2.59128.14569-2.59176-.15948-2.59241-.14228-2.59309.13778-2.59234-.14458-2.59179-.03772-2.59144.29158-2.59132.04928-2.59141-.38954-2.59173.2928-2.591-.158-2.59282-.0735-2.59209-.05293-2.5906.04063-2.58939.33283-2.58844-.21162-2.58777.18814-2.58737-.07089-2.58729.10718-2.58749-.3876-2.588.34781-2.58885-.06473-2.59-.11532-2.59154.22441-2.59342-.06619-2.59309-.07806-2.59155-.223-2.59039.15689-2.58964.06079-2.58931-.12412-2.58942-.08936-2.59.27726-2.591-.233-2.59256-.0865-2.59461.29226-2.59321-.03427-2.59182-.15463-2.591.21573-2.5908-.13825-2.59124.09337-2.59232-.09194-2.5941.1917-2.59441-.14644-2.59282.02854-2.592-.16062-2.59208.05068-2.593.20265-2.5949.04219-2.59435-.02064-2.59308-.22975-2.59292.15056-2.59394-.21033-2.59592-.0167-2.594-.066-2.59357.41092L80.48515,12.772l-2.59547-.24709-2.59416.28887-2.59475-.0575L70.105,12.45745l-2.59459.22924-2.58941.06416-2.59064-.22133-2.59483.14135-2.59434.11367L54.54912,12.567l-2.59385.06311-2.59679.11123-2.59392.103-2.59695-.01808-2.5955-.27694-2.598.00976-2.59637-.07278-2.59766.03-2.59879.01889-2.59322-.06265-2.59669.2064-2.59963-.22411-2.6.27677-2.60065-.18925-2.60483.02084-2.60484-.107L11.6932,13.7208l.29693,2.57093.05467,2.56954L11.82433,21.43l.2429,2.56854-.01575,2.569.05119,2.57005-.354,2.57181-.05327,2.57212L11.858,36.852l.01,2.56976.05244,2.5698.15221,2.57075-.30234,2.5726.3298,2.57206-.0799,2.57079.04894,2.57063L12.062,57.42007l-.01874,2.57361-.35387,2.57174.26238,2.57128-.0622,2.57235-.01587,2.57317-.00237,2.57186.12547,2.57245L11.971,78l.06426,2.57229-.03475,2.56717.06636,2.56838-.07949,2.57253.07639,2.572-.22691,2.56978.00509,2.57156.20246,2.57448-.32769,2.57163.15355,2.57463.17172,2.57319-.24858,2.57563.0401,2.57406.20419,2.57534-.01878,2.57645-.21231,2.57093-.099,2.57438.02388,2.57729.08443,2.57764.28455,2.5783-.0633,2.58245-.33236,2.58245L12.9815,135.697l2.58895-.05313,2.58945-.07247,2.59.24481,2.59058-.08831,2.59118-.17848,2.59079.09,2.59026-.015,2.58976.09328,2.58931-.19071,2.58889.33154,2.58852-.23607,2.58817.109,2.58788-.0662,2.58762.144,2.58739.0896,2.58722-.17241,2.58708-.02959,2.587-.04832,2.58693.25626,2.58692-.07231,2.58695-.04241,2.587-.17054,2.58714-.02455,2.58731.24749,2.58753-.00243,2.58777.08454,2.58808-.32327,2.58842.13208,2.58883.04684,2.58926-.12627,2.58976.17883,2.59029-.03064,2.59089-.03393,2.59153-.05285,2.59144-.1555,2.59086.08892,2.59033.09882,2.58988.08684,2.58945-.16411,2.5891.09545,2.58879.06171,2.58854-.08291,2.58835.06381,2.58821-.01637,2.58814-.10431,2.58812.12224,2.58816-.10405,2.58826.07115,2.58843-.0322,2.58866-.18532,2.58894.01385,2.5893.23423,2.58972-.10737,2.5902.02269,2.59075.08327,2.59137-.20662,2.59206.19224,2.59169-.01245,2.59111-.16371,2.59059.25859,2.59014-.36525,2.58977.11913,2.58948-.04517,2.58926.21008,2.58912-.27,2.58906.02412,2.58908.00721,2.58918.04408,2.58936.26974,2.58964-.14818,2.59.17341,2.59042-.17577,2.591-.02312,2.59157-.16206,2.59228.13153,2.59206.208,2.59145-.05289,2.59092-.1751,2.5905.11621,2.59017.03553,2.58994-.19469,2.58983.1057,2.58981.10816,2.58991-.31262,2.5901.21073,2.59042.1965,2.59085.01022,2.59138-.08013,2.59205-.09071,2.59276-.09723,2.59205.21769,2.59146-.32081,2.591.10473,2.59067.14646,2.59048-.16572,2.5904.27794,2.59049-.39543,2.5907.15884,2.59106.13214,2.59157.03692,2.59223-.02059,2.593-.28456,2.59222.161,2.59165.13892,2.59122-.11975,2.591.00023,2.59091-.13525,2.591.19321,2.59128-.09174,2.59176.13491,2.59241-.23434,2.59309-.05321,2.59234.19907,2.59179-.22565,2.59144.07313,2.59132.29831,2.59141.045,2.59173-.36951,2.591.34785,2.59282-.21121,2.59209-.17561,2.5906.40989,2.58939-.0088,2.58844-.01262,2.58777-.09718,2.58737-.21226,2.58729.26048,2.58749-.00516,2.588-.20607,2.58885-.0255,2.59-.112,2.59154.38109,2.59342.00454,2.59309-.369,2.59155.09389,2.59039.2282,2.58964-.06439,2.58931-.06719,2.58942-.13822,2.59.26626,2.591-.13117,2.59256-.16659,2.59461.28456,2.59321.08494,2.59182-.02089,2.591-.02034,2.5908-.28786,2.59124.25206,2.59232-.33967,2.5941.24493,2.59441-.19849,2.59282.34021,2.592.02053,2.59208-.013,2.593-.11024,2.5949-.18721,2.59435.33119,2.59308-.20886,2.59292-.20939,2.59394.09882,2.59592-.09052,2.594.01046,2.59357.07506,2.59465.15081,2.59547.098,2.59416.03673,2.59475-.32567,2.59578.19691,2.59459.145,2.58941-.3504,2.59064.128,2.59483-.054,2.59434.18792,2.59206-.08892,2.59385-.06628,2.59679-.0784,2.59392-.0307,2.59695.2101,2.5955-.03973,2.59795-.0569,2.59637.022,2.59766.13389,2.59879-.06723,2.59322-.01852,2.59669-.0122,2.59963.18379,2.6-.37754,2.60065-.00554,2.60716.37479Z"/></g><g class="cls-7"><g class="cls-8"><g class="cls-9"><path class="cls-10" d="M343.73951,9.67354c-.38036-.11807-2.11248.21036-1.3858.43913.38861.11438,2.11248-.21033,1.3858-.43913"/><path class="cls-10" d="M145.9337,7.51488c0-.23983-1.13231-.49075-1.39431,0,0,.23986,1.11529.49079,1.39431,0"/><path class="cls-10" d="M402.25326,6.65a22.51645,22.51645,0,0,1-2.78011-.43172c0,.43172-1.14082.51291-1.41107.86347a22.05832,22.05832,0,0,1,2.80538.43172c0-.43172,1.11529-.51291,1.3858-.86347"/><path class="cls-10" d="M276.88287,7.0824c.304-.26936-2.11248-.93357-2.78011-.86344-3.67569.34315.87883,2.428,2.78011.86344"/><path class="cls-10" d="M352.08189,3.616c-.2705-.52028-1.53794-.262-2.7801,0,.03378.43913,2.45879.54614,2.7801,0"/><path class="cls-10" d="M474.68017,2.75844c.43915-.59039,2.00262-.83394,1.40256-1.738-3.87864-.69-3.85311,1.86714-1.40256,1.738"/><path class="cls-10" d="M386.921,1.88981c-.39738-.11807-2.11248.21036-1.40282.43175.38036.12176,2.14626-.20664,1.40282-.43175"/></g></g></g></svg>