<svg id="圖層_1" data-name="圖層 1" xmlns="http://www.w3.org/2000/svg" viewBox="0 0 80.80842 42.62609"><defs><style>.cls-1{fill:#ecdecc;}</style></defs><path class="cls-1" d="M71.27493,22.19651l-.19063-1.42044.13681-1.3894.00282-1.4075-.19954-1.398-.19422-1.42968-.5549-1.32591-.906-1.12664-.41651-1.46417-1.46-.61608-.85429-1.14833-1.19034-.77049-1.29055-.64733L62.7771,7.64819,61.59119,6.60054l-1.57894.5133-1.36412-.62409-1.42952.39337-1.48818-.50218-1.36985.58262-1.34384.51167L51.481,8.0411,50.83712,6.545l-1.10246-.9302-.263-1.64954-1.67659-.286L47.036,2.36734,45.97141,1.32158l-1.55963-.03035-1.25792-.73L41.69562.66216,40.30382,0,38.86147.24905l-1.39682.3616-1.18995.89322-1.59976-.10261L33.7768,2.67567l-1.29588.61594-1.0166.99167-.78,1.18725-1.36849.79038-.30335,1.45358-1.41433-.25212-1.33555-.55905-1.45283-.02477L23.42107,6.087l-1.43857.854L20.516,6.62748l-1.35633.53-1.28292.62467-1.33135.46842-1.59657.133L13.93253,9.4313l-1.08766.92788-.55549,1.38048-1.14962.90264-.66695,1.25513-.806,1.21836-.44525,1.38009-.01388,1.461-.49058,1.4042.3456,1.44066.11225,1.28-1.1242.95768L6.496,22.99993l-1.15646.96034-1.15381.84128L2.781,25.37329l-.673,1.33594-1.37607.87319.007,1.60145L.54272,30.59246,0,32.00855.04726,33.499.1966,35.01268l1.19893,1.09649.61487,1.29106.86438,1.16564,1.28446.70525,1.16057.83624,1.18077.89769,1.2944.80328,1.47908.264,1.4387.48311,1.53652-.44169,1.47178.01811,1.30581-.4143,1.474-.10673,1.21924-.795,1.51955-.10288,1.17-.89764L21.529,38.80367l1.41347-.34758,1.44-.27372,1.45646-.21081,1.28521-.6381,1.12352-1.1175,1.34763-.52982,1.43365-.25971,1.35259-.5406,1.41448-.32535,1.48634.047,1.468.086,1.36367-.6911,1.44415-.14913,1.4531.69308,1.45693-.6917,1.44973.13323,1.38827.52811,1.52066-.26045,1.25794.9967,1.32673.57224,1.45011.14822,1.34106.514,1.56385-.07816,1.262.747,1.28158.67815L57.44294,38.835l1.32791.54911,1.55311.07155,1.17736.87979,1.48577.21121,1.05057,1.17333,1.44027.29935,1.4057.6068,1.45906-.68048,1.50181.28705,1.41721-.47735,1.37657-.51615,1.54843-.04211,1.48514-.40093.752-1.567,1.6974-.27439L78.9317,37.642l.83133-1.25749.34079-1.47005.7046-1.38366-.67726-1.52171.64208-1.51674L80.12705,29.099l-.874-1.20123-.234-1.58853-1.26795-.86967-1.32051-.66205-.835-1.43186-1.55206-.19771-1.33966-.61484ZM16.75178,34.79937l-1.10593.98155-1.43987-.2501L12.90482,34.999l-1.24464-.62307L10.56339,33.525l-1.09972-.778-1.10186-.82482.26351-1.11447.70762-1.08633,1.3779.39309,1.34053.32711,1.30917.48386,1.32151.50651.75125,1.3131,1.56329.49161ZM27.49873,26.3762l-1.44885.04371-.996-1.03729-.8005-1.143L23.50629,23.081l-.54272-1.28124-.68026-1.18391-.83814-1.11589-.03925-1.44072-.98065-1.1621.63837-1.22008,1.26825.16677,1.09966.8496,1.04692.943.28377,1.48817,1.43718.72517.2738,1.44125.98231,1.0682L27.382,23.87889l.62865,1.25626Zm12.80239-1.71362-1.25779-1.02735-.25271-1.60614-.067-1.59282-.02985-1.5804.19777-1.58109.02307-1.56992-.15642-1.58945.68693-1.488L39.13866,10.946l1.16248-1.01542.982,1.08211.44858,1.5237.38155,1.55818-.53939,1.61219.85345,1.568-.50348,1.57955.30666,1.61588-.82119,1.49692L41.361,23.57267Zm17.5211-2.75746-.45208,1.35029-.9135,1.06192-.99494.9774-1.079.85873-1.16768.04743-.28715-1.03125.06364-1.36374.9678-1.07646-.00745-1.532.92609-1.06688.66731-1.20446.73576-1.17359.75958-1.18844,1.4354-.41736,1.34822-.93709.15465,1.66413.06771,1.463-1.10345,1.05734L58.622,20.76881ZM68.93936,34.35946l-1.14318.87566-1.39361.29575-1.42345-.00309-1.13982-.72034.37606-1.19009.88526-.96062.96672-.99622,1.438-.2153.98136-1.18513,1.41172-.14567,1.36664-.19831,1.23931.63514-.03245,1.51823-1.40023.58817-.653,1.47541Z"/><path class="cls-1" d="M71.27493,22.19651l-.19063-1.42044.13681-1.3894.00282-1.4075-.19954-1.398-.19422-1.42968-.5549-1.32591-.906-1.12664-.41651-1.46417-1.46-.61608-.85429-1.14833-1.19034-.77049-1.29055-.64733L62.7771,7.64819,61.59119,6.60054l-1.57894.5133-1.36412-.62409-1.42952.39337-1.48818-.50218-1.36985.58262-1.34384.51167L51.481,8.0411,50.83712,6.545l-1.10246-.9302-.263-1.64954-1.67659-.286L47.036,2.36734,45.97141,1.32158l-1.55963-.03035-1.25792-.73L41.69562.66216,40.30382,0,38.86147.24905l-1.39682.3616-1.18995.89322-1.59976-.10261L33.7768,2.67567l-1.29588.61594-1.0166.99167-.78,1.18725-1.36849.79038-.30335,1.45358-1.41433-.25212-1.33555-.55905-1.45283-.02477L23.42107,6.087l-1.43857.854L20.516,6.62748l-1.35633.53-1.28292.62467-1.33135.46842-1.59657.133L13.93253,9.4313l-1.08766.92788-.55549,1.38048-1.14962.90264-.66695,1.25513-.806,1.21836-.44525,1.38009-.01388,1.461-.49058,1.4042.3456,1.44066.11225,1.28-1.1242.95768L6.496,22.99993l-1.15646.96034-1.15381.84128L2.781,25.37329l-.673,1.33594-1.37607.87319.007,1.60145L.54272,30.59246,0,32.00855.04726,33.499.1966,35.01268l1.19893,1.09649.61487,1.29106.86438,1.16564,1.28446.70525,1.16057.83624,1.18077.89769,1.2944.80328,1.47908.264,1.4387.48311,1.53652-.44169,1.47178.01811,1.30581-.4143,1.474-.10673,1.21924-.795,1.51955-.10288,1.17-.89764L21.529,38.80367l1.41347-.34758,1.44-.27372,1.45646-.21081,1.28521-.6381,1.12352-1.1175,1.34763-.52982,1.43365-.25971,1.35259-.5406,1.41448-.32535,1.48634.047,1.468.086,1.36367-.6911,1.44415-.14913,1.4531.69308,1.45693-.6917,1.44973.13323,1.38827.52811,1.52066-.26045,1.25794.9967,1.32673.57224,1.45011.14822,1.34106.514,1.56385-.07816,1.262.747,1.28158.67815L57.44294,38.835l1.32791.54911,1.55311.07155,1.17736.87979,1.48577.21121,1.05057,1.17333,1.44027.29935,1.4057.6068,1.45906-.68048,1.50181.28705,1.41721-.47735,1.37657-.51615,1.54843-.04211,1.48514-.40093.752-1.567,1.6974-.27439L78.9317,37.642l.83133-1.25749.34079-1.47005.7046-1.38366-.67726-1.52171.64208-1.51674L80.12705,29.099l-.874-1.20123-.234-1.58853-1.26795-.86967-1.32051-.66205-.835-1.43186-1.55206-.19771-1.33966-.61484ZM16.75178,34.79937l-1.10593.98155-1.43987-.2501L12.90482,34.999l-1.24464-.62307L10.56339,33.525l-1.09972-.778-1.10186-.82482.26351-1.11447.70762-1.08633,1.3779.39309,1.34053.32711,1.30917.48386,1.32151.50651.75125,1.3131,1.56329.49161ZM27.49873,26.3762l-1.44885.04371-.996-1.03729-.8005-1.143L23.50629,23.081l-.54272-1.28124-.68026-1.18391-.83814-1.11589-.03925-1.44072-.98065-1.1621.63837-1.22008,1.26825.16677,1.09966.8496,1.04692.943.28377,1.48817,1.43718.72517.2738,1.44125.98231,1.0682L27.382,23.87889l.62865,1.25626Zm12.80239-1.71362-1.25779-1.02735-.25271-1.60614-.067-1.59282-.02985-1.5804.19777-1.58109.02307-1.56992-.15642-1.58945.68693-1.488L39.13866,10.946l1.16248-1.01542.982,1.08211.44858,1.5237.38155,1.55818-.53939,1.61219.85345,1.568-.50348,1.57955.30666,1.61588-.82119,1.49692L41.361,23.57267Zm17.5211-2.75746-.45208,1.35029-.9135,1.06192-.99494.9774-1.079.85873-1.16768.04743-.28715-1.03125.06364-1.36374.9678-1.07646-.00745-1.532.92609-1.06688.66731-1.20446.73576-1.17359.75958-1.18844,1.4354-.41736,1.34822-.93709.15465,1.66413.06771,1.463-1.10345,1.05734L58.622,20.76881ZM68.93936,34.35946l-1.14318.87566-1.39361.29575-1.42345-.00309-1.13982-.72034.37606-1.19009.88526-.96062.96672-.99622,1.438-.2153.98136-1.18513,1.41172-.14567,1.36664-.19831,1.23931.63514-.03245,1.51823-1.40023.58817-.653,1.47541Z"/></svg>