<svg id="圖層_1" data-name="圖層 1" xmlns="http://www.w3.org/2000/svg" viewBox="0 0 83.52065 251.00049"><defs><style>.cls-1{fill:#333;}.cls-2{fill:none;stroke:#333;stroke-miterlimit:10;}</style></defs><title>kyotokimono REMAKE-和服介紹</title><path class="cls-1" d="M48.54113,20.41252a9.47926,9.47926,0,0,1,.41993,2.60351c0,2.85645-1.792,4.3125-3.52832,4.3125-1.14747,0-2.24024-.61621-2.24024-1.82031a2.31264,2.31264,0,0,1,1.56836-1.98828c1.45606-.33594,3.16406-1.51172,3.44434-3.10742Zm-5.32031-1.20411H54.3927V15.68009H45.99328l-.1123-.44824H54.3927V11.76017H50.47277v.41992c0,.11231-.61621,1.45606-3.97558,1.45606V1.31584l4.25586,1.624H62.23254l1.48438-1.96,3.94824,2.77246a1.73107,1.73107,0,0,1-1.09278.61621V12.2924a5.00674,5.00674,0,0,1-2.07129.75586l2.85547,2.24023c-.19629.30762-.58789.3916-1.37207.3916H58.31262v3.52832h5.7959l1.98828-2.80078,3.63965,2.85645c-.22364.30762-.58789.3916-1.39942.3916H43.33313Zm7.25195-7.89648H54.3927V3.41642H50.47277V5.06779l.19629-.11133c2.77149.97949,3.69532,2.23926,3.69532,3.27539a1.81726,1.81726,0,0,1-1.792,1.76465,1.724,1.724,0,0,1-1.45507-.84082,6.22527,6.22527,0,0,0,.02734-.72754,7.35018,7.35018,0,0,0-.67188-3.21973Zm1.00782,9.63184c2.94043,1.26074,3.91992,2.77246,3.91992,3.94824a2.20367,2.20367,0,0,1-2.18359,2.18359,1.99314,1.99314,0,0,1-1.76368-1.09179,8.91728,8.91728,0,0,0,.252-2.15528,7.10635,7.10635,0,0,0-.47657-2.77246Zm4.92773-.11133c4.3125.69922,5.71289,2.43555,5.71289,3.86328A2.23127,2.23127,0,0,1,59.965,26.936a2.13513,2.13513,0,0,1-1.624-.78418A8.36247,8.36247,0,0,0,56.213,21.00041Zm6.10449-17.416H58.31262v7.89551h4.20019V6.83244a32.28842,32.28842,0,0,1-3.72363,3.21972l-.252-.1123A47.6807,47.6807,0,0,0,59.545,4.76017L62.51281,5.852Zm-4.20019,8.34375v3.47168h3.6123l1.4834-2.04394h-.89551V11.76017Zm3.64062,8.76367c5.93555.50391,7.86719,2.77247,7.86719,4.53614a2.16694,2.16694,0,0,1-2.09961,2.24023,2.36213,2.36213,0,0,1-1.45605-.5039,15.173,15.173,0,0,0-4.45215-6.07618Z"/><path class="cls-1" d="M52.40442,37.91252A5.63443,5.63443,0,0,0,51.005,35.44767l.168-.168c3.94824.58887,5.26367,2.15625,5.26367,3.47266a2.18329,2.18329,0,0,1-2.12793,2.12793,2.08527,2.08527,0,0,1-1.5957-.78418,9.50478,9.50478,0,0,0-.084-1.23242c-1.59668.89648-3.7246,2.04394-6.63574,3.44433a1.24977,1.24977,0,0,1-.8125.7002L43.33313,38.892l2.63183-.252V30.38029l3.332,1.2041a35.89453,35.89453,0,0,0,4.00391-2.91211l3.5,3.21973a1.12886,1.12886,0,0,1-.72852.19629,3.29342,3.29342,0,0,1-1.14746-.22461,44.14552,44.14552,0,0,1-5.32031.67285v5.71191Zm13.4121-8.708,3.64063,2.6875a1.53169,1.53169,0,0,1-1.06445.53223c-.19629,5.87988-.61621,8.12011-1.876,9.04394a4.423,4.423,0,0,1-2.49219.95215l3.19239,2.24023a1.72352,1.72352,0,0,1-1.0918.61524v8.84863c0,.02734-1.12012.92383-4.06055.92383v-1.708H50.921v.50391c0,.1123-.56055,1.48437-3.97657,1.48437V42.224l4.25684,1.624h10.583l1.14844-1.51172c0-1.93261-.19629-2.7998-2.21192-3.36035v-.30761l2.26758.02734c.39258,0,.56055-.02734.72852-.168.5039-.44726.72753-2.49121.8955-7.05566H62.84875c-.36426,4.50781-1.56836,8.76367-8.93164,11.56445l-.252-.33691c4.81543-3.47168,5.06738-7.36329,5.15136-11.22754H56.77258l-.13965-.44825h7.72754ZM54.44836,44.29631H50.921v3.97558h3.52734ZM50.921,48.72013V52.892h3.52734V48.72013Zm11.14355-4.42382H58.36926v3.97558h3.69531ZM58.36926,52.892h3.69531V48.72013H58.36926Z"/><path class="cls-1" d="M66.04113,61.516l3.72364,2.79981a1.85428,1.85428,0,0,1-1.2041.56054V81.92814c0,.22363-1.25977,1.06348-3.19239,1.06348h-.67187v-1.876h-6.748v1.00879c0,.2793-1.11914,1.11914-2.99512,1.11914h-.67285V68.71232a.76658.76658,0,0,1-.25195-.02832c-.61524.47656-1.37207,1.03613-2.044,1.45606,1.68067.78418,2.2959,1.82031,2.2959,2.71582a2.03839,2.03839,0,0,1-1.9873,2.0166,1.94535,1.94535,0,0,1-1.54-.78418,7.67257,7.67257,0,0,0-.92383-3.8086V82.18009c0,.22364-1.17676,1.0918-2.96875,1.0918h-.67188v-9.6875a22.32812,22.32812,0,0,1-3.08007,2.12793l-.168-.33594c3.13672-3.13672,5.32031-7.98047,6.2998-12.292h-5.7959l-.13964-.44824h2.88378V56.7006l4.75977.44727c-.05566.39258-.30762.58789-1.11914.72851v3.94825l1.06348-1.09278,3.248,2.74414c-.168.28028-.41992.39258-1.06347.44825a23.898,23.898,0,0,1-3.02442,5.54394,6.2609,6.2609,0,0,1,1.0918.33594c.41992-.75586.92383-1.76367,1.40039-2.77246l1.73535.95215v-5.7959l4.03223,1.48437H59.4884v-6.916l4.67676.44824c-.02832.33594-.28028.53125-.98047.64355v5.82422h1.2041ZM59.4884,64.12052h-1.54v7.83985h1.54Zm-1.54,8.28711v8.26075h1.54V72.40763Zm6.748-8.28711H63.18469v7.83985h1.51172ZM63.18469,80.66838h1.51172V72.40763H63.18469Z"/><path class="cls-1" d="M67.91711,94.24845,45.629,86.46427V84.392l22.28809,7.78418Z"/><path class="cls-1" d="M59.37707,101.55607c.30762-.53223,1.0918-.75586,2.09961-.75586,1.82031,0,3.83594,2.35156,3.83594,3.61133,0,1.624-1.39942,1.59668-2.88379,1.84863-5.376.95215-12.208,3.5-12.208,6.97168,0,2.12793,2.49219,2.40821,5.6836,2.40821,2.04394,0,5.04-.36426,5.93652-1.0918,2.15625.30762,3.91992,1.06348,3.91992,2.37988,0,1.54-1.9043,2.12793-9.63184,2.12793-3.91992,0-8.34375-1.03613-8.34375-5.46,0-3.02441,3.05176-5.208,5.51563-6.71973-1.96-.64453-1.96-3.10839-1.96-7.58886,0-.78321-.11231-1.53907-.64453-1.792a2.72122,2.72122,0,0,0-1.14746-.30761,2.21188,2.21188,0,0,0-.41993.05566l-.084-.168a2.45468,2.45468,0,0,1,2.43555-1.456c2.32422.02832,4.0039,1.56836,4.0039,2.96875a5.87922,5.87922,0,0,1-.36328,1.708,9.29269,9.29269,0,0,0-.28027,2.57519c0,.4209,0,.84082.02832,1.14844.05566.75586.36328,1.56836.92383,1.624.95215-.47558,2.60351-1.28808,3.55566-1.708.83984-.36425,1.42774-.72754,1.42774-1.3164a1.19252,1.19252,0,0,0-1.34375-.95117Z"/><path class="cls-1" d="M55.31652,122.58439a4.15954,4.15954,0,0,1,2.18457-.72851c2.54786,0,3.668,1.12011,3.668,2.54882a31.2684,31.2684,0,0,1-.89648,4.05957c6.07617.50391,8.25976,4.5918,8.25976,8.56836,0,4.84375-3.38769,8.0918-12.79589,8.65137l-.168-.44824c6.49609-1.45508,8.73633-5.31934,8.73633-8.5957,0-3.55567-.89649-6.21582-4.42383-6.74805a32.897,32.897,0,0,1-3.584,8.14844,3.38033,3.38033,0,0,1,.78418,1.93164,1.48053,1.48053,0,0,1-1.26074,1.624,2.59586,2.59586,0,0,1-1.73535-.72754,7.79953,7.79953,0,0,1-5.76856,2.51953c-2.12793,0-3.61132-1.84765-3.61132-4.11621,0-3.08008,2.07129-5.68359,4.25586-7.53125-.168-.67187-.33594-1.42871-.44825-2.10058-.3916-2.044-.70019-3.61133-2.26757-4.14356l-.05665-.084a3.38274,3.38274,0,0,1,2.044-.67188,2.94165,2.94165,0,0,1,2.94043,2.09961,13.17092,13.17092,0,0,1,.22363,2.63184,6.95369,6.95369,0,0,0,.11231.75586,18.27924,18.27924,0,0,1,5.292-1.708,19.71761,19.71761,0,0,0,.47559-3.61133,1.804,1.804,0,0,0-1.84766-2.04395ZM52.01281,138.516a15.64,15.64,0,0,1-2.43554-4.75976,6.803,6.803,0,0,0-1.76465,4.48047c0,1.39941.56055,1.76367,1.23242,1.76367A4.16663,4.16663,0,0,0,52.01281,138.516Zm-.252-6.58008c.3916,1.73633,1.2041,3.55664,2.07227,4.2002a20.95164,20.95164,0,0,0,2.82812-6.24414A9.02056,9.02056,0,0,0,51.76086,131.936Z"/><path class="cls-1" d="M50.94836,159.45939a76.46966,76.46966,0,0,1,9.68848-2.49121c1.67968-.30859,2.35156-.39258,3.1084-1.2041,2.93945.64355,4.45117,1.73535,4.47949,2.88379,0,.81152-.75586,1.12012-1.624,1.12012-.41992,0-2.51953-.3086-2.99609-.3086a11.44637,11.44637,0,0,0-3.94824,1.06445A5.44315,5.44315,0,0,0,56.213,165.8715c0,2.49219,2.35156,2.54883,4.05957,2.60449a2.54329,2.54329,0,0,1,2.52051,2.54785c0,1.03614-1.00879,1.42774-2.0166,1.42774a12.65769,12.65769,0,0,1-4.03125-.58789c-2.40821-.75586-3.94825-2.07227-3.94825-5.124,0-2.66015,2.66016-5.76757,4.9834-7.3916l-.13965-.084a40.03211,40.03211,0,0,0-6.88769,2.43555c-1.42774.67187-1.792,2.24023-4.14453,2.24023a2.351,2.351,0,0,1-1.76368-2.044,1.6626,1.6626,0,0,1,1.06446-1.624,13.98678,13.98678,0,0,0,3.584-1.624c2.26758-1.31641,8.792-7.22363,8.792-7.83985,0-.13964-.02832-.19628-.1123-.19628a1.37831,1.37831,0,0,0-.53223.19628,50.23936,50.23936,0,0,0-4.87207,2.15625c-.64355.47559-1.23144,1.0918-2.01562,1.0918-1.28809,0-2.77246-1.82031-2.77246-3.416a1.93009,1.93009,0,0,1,1.06445-1.76368l.168.05567a1.11064,1.11064,0,0,0-.084.41992,1.50921,1.50921,0,0,0,1.67969,1.31641,27.32089,27.32089,0,0,0,6.916-1.48438c.56054-.19629,1.14844-.75586,1.67969-.75586,1.34472,0,3.55664,1.65137,3.55664,2.6875,0,1.37207-1.14844.8125-2.66016,1.98828a90.85022,90.85022,0,0,1-9.60449,6.32813Z"/><path class="cls-1" d="M45.9093,176.51213a2.0724,2.0724,0,0,0,2.40722,1.792,11.61828,11.61828,0,0,0,2.21192-.252c2.4082-.53222,7.9248-1.56738,10.47265-1.93164a5.00009,5.00009,0,0,0,2.49122-.92382c2.80078.3916,4.34082,1.17578,4.36816,2.66015,0,1.23145-2.07129,1.23145-3.44336,1.23145a8.79285,8.79285,0,0,0-7.47656,4.3125,14.45282,14.45282,0,0,0-1.0918,5.40332c.02832,2.32422,1.12012,3.94824,3.8916,4.3125a8.82429,8.82429,0,0,1,1.93262.53125,2.44518,2.44518,0,0,1,1.54,2.57617c0,.92383-.95215,1.42871-2.07227,1.42871a3.0081,3.0081,0,0,1-.5039-.02832c-5.34766-.67187-7.78418-3.08008-7.78418-7.98047a14.13347,14.13347,0,0,1,6.66406-11.36719v-.084a26.75454,26.75454,0,0,0-7.53223,2.09961,11.81266,11.81266,0,0,0-1.76367,1.06348,2.66229,2.66229,0,0,1-1.51172.61621,4.10772,4.10772,0,0,1-3.668-3.8916,2.83678,2.83678,0,0,1,.58789-1.59571Zm15.65137,6.35644c2.15625.25195,4.28417,1.31543,4.28417,2.77149,0,.61621-.252,1.23242-1.00781,1.23242a1.11654,1.11654,0,0,1-1.09179-.8125,4.57738,4.57738,0,0,0-2.35254-2.88379Zm2.9121-2.2959c2.1836.22364,4.31153,1.31543,4.31153,2.77149,0,.56054-.252,1.2041-.97949,1.2041a1.1266,1.1266,0,0,1-1.12012-.83985,4.43261,4.43261,0,0,0-2.37988-2.85644Z"/><path d="M11.756,6.228V4.52287a3.74715,3.74715,0,0,0-.10645-1.14063.62168.62168,0,0,0-.501-.33984c-.26954-.05469-.48438-.10156-.64454-.14649l-.14648-.0371V2.09123l1.98438.38476v9.25977L10.35754,11.349v-.76953l.14648.02148c.17579.02344.38965.06055.64454.10938a1.82541,1.82541,0,0,0,.3291.02929q.27831,0,.27832-1.26562V7.767L3.40246,6.103a5.43207,5.43207,0,0,0-1.0498-.11719.27263.27263,0,0,0-.28614.17187,3.97226,3.97226,0,0,0-.10351.88282l-.00684.31445L1.50207,7.267V2.644l.4541.0957.00684.31446a3.386,3.386,0,0,0,.11719.96679q.08789.293,1.31836.543Z"/><path d="M1.31848,13.76506a2.43853,2.43853,0,0,1,.68945-1.89063,2.96187,2.96187,0,0,1,2.05957-.62891,5.74672,5.74672,0,0,1,3.88965,1.46485A4.38975,4.38975,0,0,1,9.63879,16.101a2.52238,2.52238,0,0,1-.68457,1.92969,2.91313,2.91313,0,0,1-2.05664.64063,5.71609,5.71609,0,0,1-3.89941-1.47852A4.45564,4.45564,0,0,1,1.31848,13.76506Zm.55664.373q0,1.16309,1.54785,2.05078a7.04865,7.04865,0,0,0,3.5625.88672,2.947,2.947,0,0,0,1.57324-.33789,1.12787,1.12787,0,0,0,.52344-1.01758q0-1.13671-1.583-2.01367a7.37,7.37,0,0,0-3.63672-.8789,2.553,2.553,0,0,0-1.43359.36523A1.09584,1.09584,0,0,0,1.87512,14.1381Z"/><path d="M1.50207,19.88029l6.05664,1.207a5.627,5.627,0,0,0,1.041.11719c.15527,0,.251-.04492.28515-.13477a5.43122,5.43122,0,0,0,.10938-.91992l.00781-.13086.4541.08789v2.8086l-3.23144-.64454Q9.632,24.45353,9.632,26.24943a1.1418,1.1418,0,0,1-.34082.90625,1.521,1.521,0,0,1-1.02832.29883,6.84226,6.84226,0,0,1-1.04687-.16016l-.98926-.1875q3.41309,2.29981,3.41211,4.03906a1.08633,1.08633,0,0,1-.36523.89649,1.73844,1.73844,0,0,1-1.10645.29492,5.54575,5.54575,0,0,1-1.00293-.13086l-3.76562-.74414a5.64915,5.64915,0,0,0-1.04688-.11719c-.15625,0-.25195.04688-.28613.13672A5.17927,5.17927,0,0,0,1.963,32.394l-.00684.13867-.4541-.0957V29.63615L7.59582,30.851a2.2202,2.2202,0,0,0,.418.05078.699.699,0,0,0,.41309-.09765.34456.34456,0,0,0,.13574-.29688,3.06126,3.06126,0,0,0-1.03613-1.68945,11.01448,11.01448,0,0,0-2.332-1.87109l-3.69238-.74024V24.7592L7.59582,25.974a2.39788,2.39788,0,0,0,.418.05078.69792.69792,0,0,0,.41309-.09961.33856.33856,0,0,0,.13574-.29492,3.00492,3.00492,0,0,0-1.0332-1.67969,11.47365,11.47365,0,0,0-2.374-1.89258l-3.65332-.72851Z"/><path d="M2.76965,40.08146a7.29686,7.29686,0,0,1-1.45117-3.86719,2.2509,2.2509,0,0,1,.75488-1.77734,2.96494,2.96494,0,0,1,2.02832-.66211A5.658,5.658,0,0,1,7.93957,35.269,4.41484,4.41484,0,0,1,9.63879,38.6381a1.68564,1.68564,0,0,1-.42773,1.17969,1.41045,1.41045,0,0,1-1.08789.46875,2.85452,2.85452,0,0,1-2.42774-1.36328,6.84072,6.84072,0,0,1-1.05859-3.63281l-.37305-.01368a2.42641,2.42641,0,0,0-1.582.43946,1.618,1.618,0,0,0-.52734,1.31836,5.46419,5.46419,0,0,0,1.25976,3.17773Zm2.292-4.76172A4.767,4.767,0,0,0,5.922,37.93107a2.3,2.3,0,0,0,1.90039.94922,1.36344,1.36344,0,0,0,.87891-.24219.88583.88583,0,0,0,.293-.72461,2.06125,2.06125,0,0,0-1.10938-1.69922A6.09307,6.09307,0,0,0,5.06164,35.31974Z"/><path d="M1.94152,41.01115l1.81641.35937v.7168l-.13184-.01367c-.48339-.06445-.75976-.0957-.82714-.0957q-.38965,0-.707.5332a2.26676,2.26676,0,0,0-.31836,1.19141A1.52177,1.52177,0,0,0,2.173,44.77482a1.29475,1.29475,0,0,0,.99316.43359A1.86167,1.86167,0,0,0,4.39758,44.601l.80664-.76172a3.875,3.875,0,0,1,2.28711-1.334,1.89252,1.89252,0,0,1,1.543.75781,3.02377,3.02377,0,0,1,.60449,1.94531,4.71084,4.71084,0,0,1-.53418,2.19727L7.34,47.05412v-.71875l.13086.01562c.23926.0293.41309.05274.52051.07227a2.05323,2.05323,0,0,0,.374.04492.67886.67886,0,0,0,.62207-.33984A2.0285,2.0285,0,0,0,9.1925,45.1049a1.19854,1.19854,0,0,0-.38867-.9082,1.34519,1.34519,0,0,0-.96-.36524,1.98159,1.98159,0,0,0-1.29785.7168L5.79016,45.31a3.44377,3.44377,0,0,1-2.27246,1.2539,1.91031,1.91031,0,0,1-1.59375-.791,3.36174,3.36174,0,0,1-.60547-2.09571,5.65353,5.65353,0,0,1,.1582-1.31054A7.55859,7.55859,0,0,1,1.94152,41.01115Z"/><path d="M1.31848,50.7006a2.434,2.434,0,0,1,.68945-1.88867,2.96211,2.96211,0,0,1,2.05957-.63086,5.74671,5.74671,0,0,1,3.88965,1.46484,4.39348,4.39348,0,0,1,1.68164,3.39258,2.52529,2.52529,0,0,1-.68457,1.92969,2.9223,2.9223,0,0,1-2.05664.64063,5.718,5.718,0,0,1-3.89941-1.48047A4.45565,4.45565,0,0,1,1.31848,50.7006Zm.55664.375q0,1.16309,1.54785,2.05078a7.04772,7.04772,0,0,0,3.5625.88477,2.94875,2.94875,0,0,0,1.57324-.33594,1.12787,1.12787,0,0,0,.52344-1.01758q0-1.13671-1.583-2.01562a7.37,7.37,0,0,0-3.63672-.87891,2.55308,2.55308,0,0,0-1.43359.36719A1.09584,1.09584,0,0,0,1.87512,51.0756Z"/><path d="M1.50207,61.46818l3.33594.66406a9.52952,9.52952,0,0,1-2.55664-2.02539,3.3128,3.3128,0,0,1-.96289-2.084A1.45491,1.45491,0,0,1,1.78039,56.849a2.096,2.096,0,0,1,1.37891-.39063A6.86142,6.86142,0,0,1,7.59,58.1342a4.72748,4.72748,0,0,1,2.04883,3.625,7.6862,7.6862,0,0,1-.1748,1.29687l1.706.33984a5.308,5.308,0,0,0,1.04688.123c.15625,0,.252-.04492.28613-.13867a5.2815,5.2815,0,0,0,.10254-.916l.00781-.13086.45312.0879v2.80078l-9.667-1.92774a5.31754,5.31754,0,0,0-1.04785-.123c-.15625,0-.251.04492-.28516.13867a5.13142,5.13142,0,0,0-.10351.916l-.00684.13086-.4541-.08789Zm4.44336.88672,2.58008.5293A3.91884,3.91884,0,0,0,8.95813,61.099a2.08125,2.08125,0,0,0-1.00293-1.7793A7.60043,7.60043,0,0,0,5.838,58.38029a8.49216,8.49216,0,0,0-2.38086-.39063,1.43832,1.43832,0,0,0-.791.17579.586.586,0,0,0-.26367.52539Q2.40246,60.0883,5.94543,62.3549Z"/><path d="M2.76965,71.978a7.29686,7.29686,0,0,1-1.45117-3.86719,2.2509,2.2509,0,0,1,.75488-1.77735,2.965,2.965,0,0,1,2.02832-.6621,5.65793,5.65793,0,0,1,3.83789,1.49414,4.41483,4.41483,0,0,1,1.69922,3.36914,1.68563,1.68563,0,0,1-.42773,1.17968,1.41045,1.41045,0,0,1-1.08789.46875,2.85449,2.85449,0,0,1-2.42774-1.36328,6.84072,6.84072,0,0,1-1.05859-3.63281l-.37305-.01367a2.42641,2.42641,0,0,0-1.582.43945,1.618,1.618,0,0,0-.52734,1.31836,5.46421,5.46421,0,0,0,1.25976,3.17774Zm2.292-4.76172A4.767,4.767,0,0,0,5.922,69.82756a2.29994,2.29994,0,0,0,1.90039.94921,1.3635,1.3635,0,0,0,.87891-.24218.88584.88584,0,0,0,.293-.72461,2.06124,2.06124,0,0,0-1.10938-1.69922A6.09307,6.09307,0,0,0,5.06164,67.21623Z"/><line class="cls-2" x1="29.52065" x2="29.52065" y2="251.00049"/><line class="cls-2" x1="83.52065" x2="83.52065" y2="251.00049"/></svg>