<svg id="圖層_1" data-name="圖層 1" xmlns="http://www.w3.org/2000/svg" viewBox="0 0 82.31053 251.06429"><defs><style>.cls-1{fill:#333;}.cls-2{fill:none;stroke:#333;stroke-miterlimit:10;}</style></defs><title>kyotokimono REMAKE-和服介紹</title><path class="cls-1" d="M63.00985,4.57235l4.22851,3.10742a2.13912,2.13912,0,0,1-1.28808.72851V25.65633c-.05567.33594-2.01563,1.39942-3.668,1.39942h-.67188V24.11629H48.81453v1.45606c0,.13965-.61621,1.67968-4.14453,1.67968V5.07625l4.42481,1.73633h2.71582c.33594-1.82031.67187-4.39648.81152-6.13183l5.99219,1.39941c-.084.36426-.33594.53223-1.0918.53223a49.81373,49.81373,0,0,1-5.18066,4.20019h8.93261Zm-1.39942,2.6875H48.81453v7.89648h12.7959Zm-12.7959,16.4082h12.7959V15.60457H48.81453Z"/><path class="cls-1" d="M68.7784,40.13192c-.22461.30859-.58789.39258-1.37207.39258h-3.416v5.73925l1.42773-2.2959,3.02441,2.77247c-.22461.30761-.58789.3916-1.37207.3916h-24.5l-.1123-.44727H46.462V40.5245H42.09481l-.11231-.44825H46.462V36.52059a22.836,22.836,0,0,1-3.80761,2.40723l-.252-.19532a33.75056,33.75056,0,0,0,4.9004-9.96777l5.0957,2.21191c-.168.33594-.50391.53125-1.25977.47559a21.20776,21.20776,0,0,1-1.48437,1.96l.33594.11231H61.89071l1.876-2.63184L67.21,33.58016c-.22363.30859-.61621.39258-1.37207.39258H63.99032v5.99121l1.65234-2.40723Zm-21.168,8.03613a9.6154,9.6154,0,0,1,.50391,2.85645c0,2.9121-1.84766,4.31152-3.47168,4.31152a1.86691,1.86691,0,0,1-2.10059-1.76367,2.22463,2.22463,0,0,1,1.45606-1.9043,4.68541,4.68541,0,0,0,3.27636-3.5ZM49.878,33.97274v6.10351h1.17676V33.97274Zm0,6.55176v6.16015h1.17676V40.5245Zm.8125,8.00781c2.46387,1.42773,3.332,2.93945,3.332,4.14355a2.29671,2.29671,0,0,1-2.21191,2.32422,1.93513,1.93513,0,0,1-1.708-1.17578,10.04394,10.04394,0,0,0,.53125-3.19238,7.13832,7.13832,0,0,0-.252-1.98731Zm5.01172-14.55957H54.44246v6.10351h1.25977Zm0,6.55176H54.44246v6.16015h1.25977ZM55.39461,48.42c3.80762,1.14844,5.04,2.91211,5.04,4.33985a2.18084,2.18084,0,0,1-2.07226,2.24023,2.06991,2.06991,0,0,1-1.59571-.83984A9.304,9.304,0,0,0,55.17,48.56063Zm5.01172-14.44726H59.14657v6.10351h1.25976Zm0,12.71191V40.5245H59.14657v6.16015ZM60.63,48.11239c5.74024.78418,7.61621,3.13574,7.61621,4.95605a2.17752,2.17752,0,0,1-2.07226,2.2959,2.45174,2.45174,0,0,1-1.4834-.58789A12.97708,12.97708,0,0,0,60.462,48.30868Z"/><path class="cls-1" d="M48.36629,73.36825c1.17578-.168,2.43653-.36426,3.668-.5879l.02832.252A69.704,69.704,0,0,1,44.39071,78.212a1.24776,1.24776,0,0,1-.83985.75585l-1.84863-4.67578c.61621-.05566,1.56836-.168,2.74414-.33593V64.82821H42.09481L41.9825,64.38h2.46387V56.9327l5.01172.47558c-.05567.39161-.30762.5879-1.0918.7002v5.71191l1.17578-2.18457,2.6045,2.80078c-.19629.30762-.61622.39161-1.34375.39161H48.36629Zm8.00781-7V68.2159c0,.78418-.02734,1.59668-.05566,2.43653l3.16406,1.23144h3.416l1.51172-1.9873,4.0039,2.82812a2.096,2.096,0,0,1-1.23144.67188v8.624c0,.02734-1.03613,1.06348-3.97656,1.06348V80.98446H59.34188v.95214c0,.084-.55957,1.42774-3.80762,1.42774V75.18856a13.29173,13.29173,0,0,1-7.41992,8.17578l-.22363-.30859c4.08789-4.25586,4.56347-9.65918,4.56347-14.95118V58.836l3.89258,1.23242a37.38535,37.38535,0,0,0,7.95117-3.668l3.89258,3.78028a1.217,1.217,0,0,1-.75586.22363,3.56737,3.56737,0,0,1-1.28808-.28028,57.19264,57.19264,0,0,1-9.77247.8125V65.92h6.66407l2.10058-2.93945,3.752,2.99609c-.22461.30762-.64454.39161-1.40039.39161Zm6.832,5.96386H59.34188v8.2041h3.86426Z"/><path class="cls-1" d="M66.70614,94.31258,44.419,86.5284V84.45614l22.28711,7.78418Z"/><path class="cls-1" d="M46.63,97.61629a2.43984,2.43984,0,0,1,2.26856-1.56836c2.49219,0,4.47949,1.59668,4.47949,2.91211-.02734.8125-.36328.89649-.72754,2.2959A53.59788,53.59788,0,0,0,51.502,111.78426c0,3.13574,1.76465,3.91992,4.67676,3.91992,3.8916,0,7.53125-2.04394,10.19141-6.16015l.252.14062c-2.21191,7.19531-6.46777,9.63184-10.80762,9.63184-4.36816,0-7.5039-1.59571-7.5039-7.50391,0-3.36035.53125-8.59668.83984-12.5166v-.22363c0-1.45606-1.17578-1.45606-1.708-1.45606a3.45917,3.45917,0,0,0-.75586.05567Z"/><path class="cls-1" d="M49.40242,145.6368c7.11231-.7002,11.70411-3.44434,11.70411-7.1123,0-2.74415-.75586-4.5918-3.97657-4.5918-1.51172,0-5.0957,1.06348-8.14746,5.0957-.56054.7002-1.09179,1.73633-2.0166,1.73633a1.81622,1.81622,0,0,1-1.792-2.01563c0-1.876.89648-2.0166,2.04492-3.19238,2.49121-2.52051,6.85938-7.1123,8.791-8.96.61621-.58789.98047-.92383.98047-1.06445,0-.02735-.05567-.13965-.22364-.13965a15.38648,15.38648,0,0,0-5.40429,1.82031c-.64356.3916-.8125.81153-1.56836.81153-1.31543.02832-2.85547-1.708-2.85547-3.21973a2.74236,2.74236,0,0,1,.78418-2.01563l.168.02735a1.80323,1.80323,0,0,0,1.96,1.73633,20.0449,20.0449,0,0,0,6.2998-1.06446c.78418-.33593,1.39942-.92383,1.73633-.92383,1.0918,0,3.35937,1.28809,3.35937,2.71582,0,1.09278-1.2041,1.23243-2.18359,1.96a60.70164,60.70164,0,0,0-8.28809,7.72851l.05567.05567a14.53468,14.53468,0,0,1,7.41992-2.54786c3.94824,0,6.86035,2.54786,6.832,6.27246,0,5.15137-4.62012,7.30762-15.56738,7.39161Z"/><path class="cls-1" d="M46.88192,150.50789c.1123-.95214,1.40039-1.708,2.43652-1.708,1.624,0,3.8916.83984,3.8916,1.876a1.55541,1.55541,0,0,1-.252.83985,7.88052,7.88052,0,0,0-.22363,1.28808,3.51881,3.51881,0,0,0,1.48339-.86816c.22461-.25195.44825-.58789.56055-.58789,1.2041,0,2.91211,1.12011,2.88379,1.84863,0,1.14746-.61621,1.5957-2.07227,2.01563a22.11656,22.11656,0,0,1-3.1914.70019c-.14063,1.54-.3086,3.08008-.33594,3.91992a3.23722,3.23722,0,0,1,.168.97949,9.00206,9.00206,0,0,1-1.12012,4.28418,4.16228,4.16228,0,0,0-.64453,1.59571c0,1.65234,1.2041,1.877,4.06055,1.877,6.38379,0,6.46777-1.84863,6.46777-3.30469a10.7762,10.7762,0,0,0-1.06348-4.75976,10.35669,10.35669,0,0,1-1.14843-4.08789,3.40212,3.40212,0,0,1,3.668-3.584c2.60449,0,5.15234,2.66016,5.15234,4.7041,0,1.34375-.47656,2.54786-1.9043,2.54786-.78418,0-.92383-.8125-1.82031-1.06446a2.5589,2.5589,0,0,0-.75586-.084c-.44824,0-1.00781.05664-1.708.1123l-.05566-.28027c.72754-.168,2.09961-.75586,2.09961-1.54,0-.75586-.7002-2.49121-2.21192-2.49121-.81152,0-1.624.2793-1.624,1.81934,0,2.71582,2.21192,4.90039,2.88379,6.0205.61621,1.0918,1.624,2.57618,1.624,4.17188,0,4.42383-3.5,5.34765-9.46386,5.34765-4.95606,0-7.67188-.8955-7.67188-3.55566a3.7063,3.7063,0,0,1,.22461-1.23242,1.4623,1.4623,0,0,1-.53223.05664c-1.93261,0-3.30468-1.31641-3.30468-4.08789,0-3.75293,2.15625-5.15235,4.59277-5.15235a4.143,4.143,0,0,1,1.25977.22364c.02832-.67188.05566-1.42774.05566-2.07129-.67188.02734-1.37207.05566-1.96.05566-2.66016,0-3.35938-1.42773-3.668-2.99609l.19629-.168c.58789.58789,1.31543.75586,2.6875.75586a15.3497,15.3497,0,0,0,2.7168-.28027c-.02832-.61524-.05664-1.14746-.05664-1.54-.02735-.55957-.30762-1.67969-1.45606-1.67969a1.16008,1.16008,0,0,0-.70019.22461Zm.168,14.36426c.9248,0,1.3164-.47656,1.73632-1.48437a5.03753,5.03753,0,0,0,.33594-1.708c0-.95215-.41992-1.51172-1.31543-1.51172-1.09277,0-1.82031.95215-1.93262,2.37988C45.73446,164.25594,46.294,164.87215,47.04989,164.87215Z"/><path class="cls-1" d="M53.88192,175.84871a2.91332,2.91332,0,0,1,2.18457-.95214c2.18359,0,4.7041,1.98828,4.7041,3.27636,0,1.42774-1.28809,1.51172-2.88379,2.32422a55.27362,55.27362,0,0,0-7.28027,4.47949,2.48494,2.48494,0,0,0-1.06446,1.876c0,.89648,1.96,1.93262,3.584,2.68848,5.04,2.35156,8.23242,5.87988,8.23242,7.78418,0,1.67968-.72852,2.65918-2.21191,2.6875a2.44431,2.44431,0,0,1-2.04395-1.51172,21.37047,21.37047,0,0,0-7.56055-8.5127,3.83536,3.83536,0,0,1-1.93164-3.02343,3.927,3.927,0,0,1,1.37207-2.96778c1.28809-1.23242,4.56348-4.08789,5.90821-5.208.83984-.70019,1.06347-1.17578,1.06347-1.708,0-.72852-.92383-1.14844-2.04394-1.03614Z"/><path d="M.54207.95809l2.09571.417v.81348L2.49813,2.1661q-.60059-.08056-.72559-.10938a1.38245,1.38245,0,0,0-.23437-.04394q-.43213,0-.72461.64062a3.81109,3.81109,0,0,0-.293,1.58594A2.14515,2.14515,0,0,0,1.21981,5.836a2.3023,2.3023,0,0,0,1.65234.67383,2.91618,2.91618,0,0,0,2.168-1.33008L5.589,4.49032A3.7328,3.7328,0,0,1,8.30574,2.7745a2.75027,2.75027,0,0,1,2.2129,1.0664,4.07658,4.07658,0,0,1,.8789,2.68067,7.765,7.765,0,0,1-.13281,1.35937A12.20666,12.20666,0,0,1,10.86239,9.461L8.6866,9.02938v-.8125l.22071.03613q.29149.03663.65527.08106c.24121.02929.374.043.39941.043q.39552,0,.67676-.583A3.17632,3.17632,0,0,0,10.921,6.39657,2.088,2.088,0,0,0,10.30965,4.878a2.01769,2.01769,0,0,0-1.498-.624,3.0908,3.0908,0,0,0-2.23437,1.4248l-.58594.7334A3.66317,3.66317,0,0,1,3.253,8.07723,2.82439,2.82439,0,0,1,.91219,6.92,4.78922,4.78922,0,0,1,.01473,3.90243,7.54538,7.54538,0,0,1,.14754,2.588,15.37284,15.37284,0,0,1,.54207.95809Z"/><path d="M.28621,9.84188l9.668,1.92676a5.56307,5.56307,0,0,0,1.04688.11718c.15625,0,.25195-.04492.28613-.13476a5.26235,5.26235,0,0,0,.10254-.91992l.00781-.13184.45313.08789V13.6036L4.99032,12.23153A9.62868,9.62868,0,0,1,7.4991,14.28719a3.346,3.346,0,0,1,.92383,2.07031,1.2435,1.2435,0,0,1-.34082.95508,1.47225,1.47225,0,0,1-1.0332.31836,6.0055,6.0055,0,0,1-1.043-.13965L2.1827,16.72957a5.56307,5.56307,0,0,0-1.04688-.11718c-.15625,0-.25195.04492-.28613.13574a5.22923,5.22923,0,0,0-.10254.91894l-.00683.13184L.28621,17.711V14.9034L6.212,16.08407a3.55382,3.55382,0,0,0,.61915.07324.51453.51453,0,0,0,.38281-.12793.52909.52909,0,0,0,.125-.38477q0-1.18651-3.44824-3.63281l-3.6045-.72168Z"/><path d="M.28621,19.30477l6.05664,1.208a5.62774,5.62774,0,0,0,1.041.11718c.15527,0,.251-.04492.28516-.13476a5.46568,5.46568,0,0,0,.10937-.91992l.00781-.13184.45411.08789V22.3409l-6.05762-1.21a5.56317,5.56317,0,0,0-1.04688-.11719c-.15625,0-.25195.0459-.28613.13575a5.24431,5.24431,0,0,0-.10254.91894l-.00683.13184-.45411-.08789Zm9.39649,1.873,1.44336.28808v1.44922L9.6827,22.628Z"/><path d="M.28621,23.64071l6.05664,1.207a5.54975,5.54975,0,0,0,1.041.11719c.15527,0,.251-.04493.28516-.13477a5.46568,5.46568,0,0,0,.10937-.91992l.00781-.13184.45411.08789v2.8086l-3.25391-.64844q3.43651,2.1167,3.43652,4.06445a.97827.97827,0,0,1-.06543.35938L6.70223,29.835a1.62948,1.62948,0,0,0,.14648-.667q0-1.3916-2.84863-3.33887L.28621,25.089Z"/><path d="M.10262,32.97274a2.43624,2.43624,0,0,1,.68945-1.88965,2.962,2.962,0,0,1,2.05957-.62988,5.74671,5.74671,0,0,1,3.88965,1.46484,4.39158,4.39158,0,0,1,1.68164,3.3916,2.52381,2.52381,0,0,1-.68457,1.92969A2.91769,2.91769,0,0,1,5.68172,37.88a5.717,5.717,0,0,1-3.89941-1.47949A4.45563,4.45563,0,0,1,.10262,32.97274Zm.55664.374q0,1.16308,1.54785,2.05078a7.04818,7.04818,0,0,0,3.5625.88574,2.94787,2.94787,0,0,0,1.57324-.33691,1.12787,1.12787,0,0,0,.52344-1.01758q0-1.13672-1.583-2.01465a7.37008,7.37008,0,0,0-3.63671-.8789,2.553,2.553,0,0,0-1.4336.36621A1.09584,1.09584,0,0,0,.65926,33.34676Z"/><path d="M.28621,39.088l6.05664,1.207a5.627,5.627,0,0,0,1.041.11719c.15527,0,.251-.04492.28516-.13476a5.466,5.466,0,0,0,.10937-.91993l.00781-.13183.45411.08789v2.80859l-3.23145-.64453q3.40722,2.18409,3.40723,3.97949a1.13962,1.13962,0,0,1-.34082.90528,1.5159,1.5159,0,0,1-1.02832.2998,6.89036,6.89036,0,0,1-1.04688-.16113l-.98926-.1875q3.41308,2.30127,3.41211,4.04a1.08555,1.08555,0,0,1-.36523.8955,1.73816,1.73816,0,0,1-1.10645.2959,5.56649,5.56649,0,0,1-1.00293-.13183L2.1827,50.67a5.649,5.649,0,0,0-1.04688-.11718c-.15625,0-.25195.04589-.28613.13574a5.19419,5.19419,0,0,0-.10254.91211l-.00683.13867-.45411-.09473V48.84383L6.38,50.05868a2.30661,2.30661,0,0,0,.418.05078.69842.69842,0,0,0,.41309-.09864.34336.34336,0,0,0,.13574-.29687,3.05658,3.05658,0,0,0-1.03613-1.68848,10.954,10.954,0,0,0-2.332-1.87109L.28621,45.41414V43.9659L6.38,45.18075a2.30571,2.30571,0,0,0,.418.05078.69842.69842,0,0,0,.41309-.09864.34037.34037,0,0,0,.13574-.29589,3.00788,3.00788,0,0,0-1.0332-1.67969,11.47306,11.47306,0,0,0-2.374-1.89258L.28621,40.53621Z"/><path d="M.28621,57.7286l3.252.64648Q.10311,56.47958.10262,54.59676a1.10129,1.10129,0,0,1,.34473-.88086,1.5428,1.5428,0,0,1,1.03222-.29785,5.757,5.757,0,0,1,1.03321.13965l3.83007.76367a5.54892,5.54892,0,0,0,1.041.11719c.15527,0,.251-.04492.28516-.13574a5.42978,5.42978,0,0,0,.10937-.91895l.00781-.13184.45411.0879v2.81542l-5.8379-1.17089a5.12515,5.12515,0,0,0-.62207-.08106.51631.51631,0,0,0-.374.12207.46593.46593,0,0,0-.124.34961q0,.95948,3.39843,3.22754l3.55958.71094v1.44922L2.26864,59.57235a6.15,6.15,0,0,0-1.10938-.11719c-.166,0-.2666.04492-.30273.13477a4.97654,4.97654,0,0,0-.1084.91992l-.00781.13183-.45411-.08789Z"/><path d="M.28621,62.51082l9.668,1.92676a5.56234,5.56234,0,0,0,1.04688.11719c.15625,0,.25195-.04492.28613-.13574a5.22956,5.22956,0,0,0,.10254-.919l.00781-.13183.45313.08789v2.81054l-7.13282-1.4248v.10937Q6.54745,68.524,7.794,68.52352a.55469.55469,0,0,0,.44629-.22754l.08789,1.46484a.7964.7964,0,0,1-.3584.10352q-1.09278,0-3.04-3.70508A26.51887,26.51887,0,0,0,1.19442,68.794a1.48948,1.48948,0,0,0-.44629,1.11328l-.00781.16211-.45411-.08789V67.57235a23.72489,23.72489,0,0,1,4.10938-2.68653v-.11035L.28621,63.93075Z"/><path d="M.28621,75.57039l3.252.64649Q.10311,74.32137.10262,72.43856a1.10129,1.10129,0,0,1,.34473-.88086,1.5428,1.5428,0,0,1,1.03222-.29785,5.756,5.756,0,0,1,1.03321.13965l3.83007.76367a5.54965,5.54965,0,0,0,1.041.11718c.15527,0,.251-.04492.28516-.13574a5.42941,5.42941,0,0,0,.10937-.91894l.00781-.13184.45411.08789v2.81543l-5.8379-1.1709a5.12433,5.12433,0,0,0-.62207-.08105.51626.51626,0,0,0-.374.12207.4659.4659,0,0,0-.124.34961q0,.95947,3.39843,3.22754l3.55958.71093v1.44922L2.26864,77.41414A6.14987,6.14987,0,0,0,1.15926,77.297c-.166,0-.2666.04492-.30273.13476a4.97669,4.97669,0,0,0-.1084.91992l-.00781.13184-.45411-.08789Z"/><line class="cls-2" x1="28.31053" y1="0.0638" x2="28.31053" y2="251.06429"/><line class="cls-2" x1="82.31053" y1="0.0638" x2="82.31053" y2="251.06429"/></svg>