<svg id="圖層_1" data-name="圖層 1" xmlns="http://www.w3.org/2000/svg" viewBox="0 0 82.74104 251.00049"><defs><style>.cls-1{fill:#333;}.cls-2{fill:none;stroke:#333;stroke-miterlimit:10;}</style></defs><title>kyotokimono REMAKE-和服介紹</title><path class="cls-1" d="M61.90129,13.1605a18.18272,18.18272,0,0,0,2.01563,4.95507,41.7304,41.7304,0,0,0,1.65234-4.59179l3.91992,2.4082a.60289.60289,0,0,1-.53222.28027,1.39973,1.39973,0,0,1-.44824-.084,31.37031,31.37031,0,0,1-4.17188,2.66016,13.02131,13.02131,0,0,0,5.0957,4.67578l-.05566.30761a4.53469,4.53469,0,0,0-2.99609,3.52833,13.30693,13.30693,0,0,1-3.08008-4.9004,65.10638,65.10638,0,0,1-5.93555,3.83594,1.17837,1.17837,0,0,1-.8125.7002L54.621,22.596c.58789-.02832,1.45606-.084,2.51953-.168V13.1605h-.70019c-.252,4.75976-1.4834,10.21972-6.94336,13.83105l-.252-.19531c2.71582-4.14453,3.332-9.21192,3.44336-13.97266-.92382.58887-2.15527,1.37207-3.69531,2.26856v7.78418c0,2.35156-.53223,4.08789-4.28418,4.45215,0-2.46485-.36426-3.27637-2.46387-3.64063v-.36426h2.77149c.25195,0,.33594-.13965.33594-.41992v-5.7959l-1.14747.58789a1.31949,1.31949,0,0,1-.86816.72852L42.10442,13.888c.70019-.05567,1.84863-.19629,3.248-.39161V7.58823H42.30071L42.18938,7.14h3.16309V.67222l4.76074.41992c-.02832.36426-.168.58789-1.12012.72754V6.77573l1.23145-2.35156L52.6884,7.19565c-.22363.3086-.61523.39258-1.34375.39258H48.99309v5.4043c1.2041-.169,2.46387-.36426,3.69531-.56055.02832-.70019.02832-1.37207.02832-2.04394V1.87632l4.33985,1.4834h6.88867l1.876-2.5752,3.44336,2.63184c-.22364.30761-.61622.3916-1.37208.3916H56.497V10.388c0,.75586,0,1.51171-.02832,2.32421h7.67187l1.876-2.57617,3.44433,2.63184c-.22363.30859-.61621.39258-1.37207.39258Zm.9795-5.15235,1.792-2.49218,3.248,2.54785c-.19629.30859-.61622.39258-1.34375.39258H57.16887l-.1123-.44825ZM60.78118,22.1478l2.35156-.22363a38.95855,38.95855,0,0,1-1.624-8.76367h-.72754Z"/><path class="cls-1" d="M65.26067,33.516l3.72363,2.7998a1.85127,1.85127,0,0,1-1.20312.56055V53.92807c0,.22364-1.26075,1.06348-3.19239,1.06348h-.67187v-1.876h-6.748v1.00879c0,.2793-1.12012,1.11914-2.99609,1.11914H53.5009V40.71225a.76658.76658,0,0,1-.252-.02832c-.61621.47657-1.37207,1.03614-2.044,1.45606,1.67969.78418,2.2959,1.82031,2.2959,2.71582a2.03922,2.03922,0,0,1-1.98828,2.0166,1.94538,1.94538,0,0,1-1.54-.78418,7.65163,7.65163,0,0,0-.92383-3.80859V54.18c0,.22363-1.17578,1.09179-2.96777,1.09179h-.67187v-9.6875A22.32736,22.32736,0,0,1,42.329,47.71225l-.168-.33593c3.13574-3.13672,5.31934-7.98047,6.2998-12.292H42.665l-.13965-.44824h2.88379V28.70054l4.75976.44726c-.05566.39258-.30762.58789-1.12012.72852v3.94824l1.06446-1.09277,3.248,2.74414c-.168.28027-.41992.39257-1.06445.44824a23.86168,23.86168,0,0,1-3.02441,5.54394,6.24679,6.24679,0,0,1,1.09277.33594c.41992-.75586.92383-1.76367,1.39942-2.77246l1.73632.95215v-5.7959l4.03223,1.48438h1.17578v-6.916l4.67578.44824c-.02832.33594-.28027.53125-.97949.64356v5.82422h1.20313Zm-6.55176,2.60449h-1.54V43.9603h1.54Zm-1.54,8.28711v8.26074h1.54V44.40757Zm6.748-8.28711H62.4052V43.9603h1.51172ZM62.4052,52.66831h1.51172V44.40757H62.4052Z"/><path class="cls-1" d="M67.13665,66.24839,44.84954,58.46421V56.39194l22.28711,7.78418Z"/><path class="cls-1" d="M50.05657,67.84409c.95215,1.37207,2.74414,1.51172,4.50781,1.51172,1.2041,0,2.46484-.22363,2.96875-.22363,1.73535,0,3.30371,1.23242,3.30371,2.49218a1.563,1.563,0,0,1-1.48437,1.45606c-4.11524,0-6.35547,1.876-6.32715,3.47168,0,1.5957,1.51172,2.88379,3.05176,3.91992a12.29027,12.29027,0,0,1,3.416-.50391c4.5918,0,8.67969,2.68848,8.67969,6.16016a2.46013,2.46013,0,0,1-2.12793,2.6875,2.13017,2.13017,0,0,1-2.09961-2.07129c-.30859-2.10058-2.04395-5.54394-5.34863-5.54394a5.95959,5.95959,0,0,0-1.39942.168,7.16377,7.16377,0,0,1,2.6875,5.93555,4.38273,4.38273,0,0,1-4.50781,4.42383c-.89648,0-1.23242-.72754-1.56836-1.54-.41992-1.00781-2.12793-1.96-4.87207-2.96777l-.33594.41992c-.89551,1.25976-1.39941,1.98828-2.82715,1.98828-1.12011,0-2.49218-1.73633-2.49218-2.74414,0-1.54.95215-1.98828,1.09179-1.98828a2.37346,2.37346,0,0,0,1.40039.44824,4.4692,4.4692,0,0,0,1.93164-.53223c1.67969-.83984,4.5918-2.6875,5.96387-3.332a6.742,6.742,0,0,1-2.01562-4.11523c0-1.56836.83984-2.82813,2.63183-4.2002.47559-.36425.7002-.56054.7002-.67187,0-.11231-.19629-.168-.58887-.19629-2.88379-.33594-4.45117-1.708-4.56348-4.33984ZM54.537,82.432a22.04179,22.04179,0,0,0-5.32032,4.33984,30.3372,30.3372,0,0,0,5.60059.86817c.81152,0,1.25977-.41992,1.25977-1.34375A5.51,5.51,0,0,0,54.537,82.432Z"/><path class="cls-1" d="M48.57317,94.725a1.7532,1.7532,0,0,1,1.25976-.47656c1.82032,0,3.36036,2.12793,3.36036,3.668a3.92139,3.92139,0,0,1-.92481,2.54882,7.4626,7.4626,0,0,0-1.34375,3.97559,3.39287,3.39287,0,0,0,.13965,1.06445l.14062.02735c1.31543-3.35938,3.416-8.03614,6.85938-8.00782a4.66691,4.66691,0,0,1,3.44434,1.45606c1.14843,1.28809,1.98828,3.21973,1.98828,7.41992,0,6.07617-2.63184,10.584-12.34766,12.62793l-.22461-.30762A12.26737,12.26737,0,0,0,59.15715,106.765c0-4.03223-.252-7.50391-2.18457-7.50391-2.2959-.02832-4.03125,3.21973-4.45215,8.2041a6.70844,6.70844,0,0,1,.14063,1.28711c0,1.31641-.44824,2.43653-1.45606,2.43653-2.18457,0-3.27636-2.91211-3.27636-4.92774,0-4.59277,1.65234-6.88867,1.65234-8.90429,0-1.03614,0-2.37989-.98047-2.60352Z"/><path class="cls-1" d="M50.16887,132.01987a76.46084,76.46084,0,0,1,9.6875-2.49121c1.68067-.30859,2.35254-.39258,3.1084-1.2041,2.94043.64355,4.45215,1.73535,4.48047,2.88379,0,.81152-.75684,1.12012-1.624,1.12012-.4209,0-2.52051-.3086-2.9961-.3086a11.44643,11.44643,0,0,0-3.94824,1.06445,5.44268,5.44268,0,0,0-3.44434,5.34766c0,2.49219,2.35254,2.54883,4.06055,2.60449a2.54241,2.54241,0,0,1,2.51953,2.54785c0,1.03614-1.00781,1.42774-2.01562,1.42774a12.66378,12.66378,0,0,1-4.03223-.58789c-2.4082-.75586-3.94824-2.07227-3.94824-5.124,0-2.66016,2.66015-5.76758,4.98437-7.39161l-.13965-.084a40.04168,40.04168,0,0,0-6.88867,2.43555c-1.42773.67187-1.792,2.24023-4.14355,2.24023a2.34856,2.34856,0,0,1-1.76367-2.04394,1.66316,1.66316,0,0,1,1.06347-1.624,13.97162,13.97162,0,0,0,3.584-1.624c2.26758-1.31641,8.792-7.22363,8.792-7.83985,0-.13964-.02832-.19628-.11231-.19628a1.37578,1.37578,0,0,0-.53125.19628,50.13506,50.13506,0,0,0-4.87207,2.15625c-.64453.47559-1.23242,1.0918-2.0166,1.0918-1.28808,0-2.77148-1.82031-2.77148-3.416a1.92911,1.92911,0,0,1,1.06348-1.76368l.168.05567a1.12983,1.12983,0,0,0-.084.41992,1.51017,1.51017,0,0,0,1.68066,1.31641,27.32947,27.32947,0,0,0,6.916-1.48438c.55957-.19629,1.14746-.75586,1.67969-.75586,1.34375,0,3.55566,1.65137,3.55566,2.6875,0,1.37207-1.14746.8125-2.66016,1.98828a90.73016,90.73016,0,0,1-9.60351,6.32813Z"/><path class="cls-1" d="M45.12883,149.07163a2.07332,2.07332,0,0,0,2.40821,1.792,11.61817,11.61817,0,0,0,2.21191-.25195c2.4082-.53223,7.92383-1.56738,10.47168-1.93164a5.0133,5.0133,0,0,0,2.49219-.92383c2.7998.3916,4.33984,1.17578,4.36816,2.66016,0,1.23144-2.07226,1.23144-3.44433,1.23144a8.79109,8.79109,0,0,0-7.47559,4.3125,14.45282,14.45282,0,0,0-1.0918,5.40332c.02735,2.32422,1.11914,3.94824,3.8916,4.3125a8.81539,8.81539,0,0,1,1.93164.53125,2.444,2.444,0,0,1,1.54,2.57617c0,.92383-.95214,1.42871-2.07129,1.42871a3.0198,3.0198,0,0,1-.50488-.02832c-5.34765-.67187-7.7832-3.08007-7.7832-7.98046a14.131,14.131,0,0,1,6.66406-11.36719v-.084A26.73568,26.73568,0,0,0,51.205,152.8519a11.68538,11.68538,0,0,0-1.76367,1.06446,2.67452,2.67452,0,0,1-1.51269.61523,4.10772,4.10772,0,0,1-3.668-3.8916,2.84386,2.84386,0,0,1,.58789-1.5957Zm15.65235,6.35644c2.15527.252,4.2832,1.31543,4.2832,2.77149,0,.61621-.25195,1.23242-1.00781,1.23242a1.11655,1.11655,0,0,1-1.0918-.8125,4.57227,4.57227,0,0,0-2.35156-2.88379Zm2.91211-2.29589c2.18359.22363,4.31152,1.31543,4.31152,2.77148,0,.56055-.252,1.2041-.98047,1.2041a1.12545,1.12545,0,0,1-1.11914-.83984,4.43743,4.43743,0,0,0-2.38086-2.85645Z"/><path d="M.82219,1.04233,11.0761,3.08628V1.91245l.59277.11719v1.1748a7.56192,7.56192,0,0,1,2.92285,1.49707,2.90642,2.90642,0,0,1,.8711,2.18067,5.13431,5.13431,0,0,1-.0625.82129,4.00209,4.00209,0,0,1-.18653.73437L13.29485,8.057V7.33921l.13183.01465q.38087.05127.60059.08789a1.78206,1.78206,0,0,0,.33008.03711.49893.49893,0,0,0,.457-.24707,1.45857,1.45857,0,0,0,.15039-.7461A1.15619,1.15619,0,0,0,14.38958,5.433a7.854,7.854,0,0,0-2.252-.69141l-.46875-.0957V6.90659l-.59277-.10937V4.52768L.82219,2.49057Z"/><path d="M3.71477,11.70444l3.25195.64649Q3.53166,10.45541,3.53118,8.57261a1.1013,1.1013,0,0,1,.34472-.88086A1.5428,1.5428,0,0,1,4.90813,7.3939a5.75667,5.75667,0,0,1,1.0332.13964l3.83008.76368a5.54965,5.54965,0,0,0,1.041.11718c.15527,0,.251-.04492.28515-.13574a5.42889,5.42889,0,0,0,.10938-.91894l.00781-.13184.4541.08789V10.1312L5.831,8.9603a5.12457,5.12457,0,0,0-.62207-.081.51626.51626,0,0,0-.374.12207.46591.46591,0,0,0-.124.34961q0,.95946,3.39844,3.22754l3.55957.71093v1.44922L5.69719,13.54819A6.14979,6.14979,0,0,0,4.58782,13.431c-.166,0-.2666.04493-.30274.13477a4.97848,4.97848,0,0,0-.1084.91992l-.00781.13184-.4541-.08789Z"/><path d="M3.71477,16.67026l6.05664,1.207a5.54892,5.54892,0,0,0,1.041.11719c.15527,0,.251-.04492.28515-.13476a5.46535,5.46535,0,0,0,.10938-.91993l.00781-.13183.4541.08789v2.80859L8.415,19.056q3.43652,2.11671,3.43652,4.06446a.97838.97838,0,0,1-.06543.35937l-1.65527-.61523a1.62967,1.62967,0,0,0,.14648-.667q0-1.39161-2.84863-3.33887L3.71477,18.1185Z"/><path d="M3.71477,23.71616l6.05664,1.208a5.62768,5.62768,0,0,0,1.041.11719c.15527,0,.251-.04493.28515-.13477a5.46515,5.46515,0,0,0,.10938-.91992l.00781-.13184.4541.08789v2.80957l-6.05762-1.21a5.563,5.563,0,0,0-1.04687-.11718c-.15625,0-.25195.04589-.28613.13574a5.24431,5.24431,0,0,0-.10254.91894l-.00684.13184-.4541-.08789Zm9.39648,1.87305,1.44336.28808v1.44922l-1.44336-.28711Z"/><path d="M4.15422,27.24643l1.81641.35938v.7168l-.13184-.01368c-.48339-.06445-.75976-.0957-.82714-.0957q-.38966,0-.707.53223a2.27031,2.27031,0,0,0-.31836,1.19238,1.52182,1.52182,0,0,0,.39942,1.07227,1.29475,1.29475,0,0,0,.99316.43359,1.859,1.859,0,0,0,1.23145-.6084l.80664-.76172a3.8722,3.8722,0,0,1,2.28711-1.333,1.88982,1.88982,0,0,1,1.543.75782,3.02375,3.02375,0,0,1,.60449,1.94531,4.71847,4.71847,0,0,1-.53418,2.19727L9.55266,33.2894v-.71875l.13086.01563c.23926.02929.41309.05273.52051.07226a2.05337,2.05337,0,0,0,.374.04493.67966.67966,0,0,0,.62207-.34082,2.02193,2.02193,0,0,0,.20508-1.02247,1.19856,1.19856,0,0,0-.38867-.9082,1.34519,1.34519,0,0,0-.96-.36523,1.98162,1.98162,0,0,0-1.29785.71679l-.75586.76172A3.44173,3.44173,0,0,1,5.7304,32.79819a1.91031,1.91031,0,0,1-1.59375-.791,3.35876,3.35876,0,0,1-.60547-2.09473,5.65355,5.65355,0,0,1,.1582-1.31055A7.55886,7.55886,0,0,1,4.15422,27.24643Z"/><path d="M3.53118,36.93589a2.43624,2.43624,0,0,1,.68945-1.88965,2.962,2.962,0,0,1,2.05957-.62988,5.74671,5.74671,0,0,1,3.88965,1.46484,4.39161,4.39161,0,0,1,1.68164,3.3916,2.52385,2.52385,0,0,1-.68457,1.92969,2.91769,2.91769,0,0,1-2.05664.64062,5.717,5.717,0,0,1-3.89942-1.47949A4.45565,4.45565,0,0,1,3.53118,36.93589Zm.55664.374q0,1.16308,1.54785,2.05078a7.04818,7.04818,0,0,0,3.5625.88574,2.94787,2.94787,0,0,0,1.57324-.33691,1.12787,1.12787,0,0,0,.52344-1.01758q0-1.13672-1.583-2.01465a7.37009,7.37009,0,0,0-3.63672-.8789,2.553,2.553,0,0,0-1.43359.36621A1.09584,1.09584,0,0,0,4.08782,37.30991Z"/><path d="M3.71477,47.70347l3.33594.66406a9.54891,9.54891,0,0,1-2.55664-2.02539,3.315,3.315,0,0,1-.96289-2.084,1.4536,1.4536,0,0,1,.46191-1.17383A2.09054,2.09054,0,0,1,5.372,42.6937a6.86141,6.86141,0,0,1,4.43066,1.67578,4.726,4.726,0,0,1,2.04883,3.625,7.68947,7.68947,0,0,1-.17481,1.2959l1.70606.33984a5.24441,5.24441,0,0,0,1.04687.124c.15625,0,.252-.0459.28614-.13868a5.29654,5.29654,0,0,0,.10254-.916l.00781-.13184.45312.08789v2.80176l-9.667-1.92773a5.25324,5.25324,0,0,0-1.04785-.124c-.15625,0-.251.0459-.28516.13868a5.14613,5.14613,0,0,0-.10351.916l-.00684.13184-.4541-.08789Zm4.44336.88574,2.58008.52929a3.91578,3.91578,0,0,0,.43262-1.78515A2.07968,2.07968,0,0,0,10.1679,45.555a7.57218,7.57218,0,0,0-2.11719-.93946,8.46119,8.46119,0,0,0-2.38086-.3916,1.43839,1.43839,0,0,0-.791.17578.58876.58876,0,0,0-.26367.52637Q4.61516,46.32213,8.15813,48.58921Z"/><path d="M4.98235,58.21323A7.29128,7.29128,0,0,1,3.53118,54.346a2.24746,2.24746,0,0,1,.75488-1.77636,2.96494,2.96494,0,0,1,2.02832-.66211,5.65793,5.65793,0,0,1,3.83789,1.49414,4.41334,4.41334,0,0,1,1.69922,3.36914,1.68317,1.68317,0,0,1-.42774,1.17871,1.41042,1.41042,0,0,1-1.08789.46875A2.85348,2.85348,0,0,1,7.90813,57.056a6.84072,6.84072,0,0,1-1.05859-3.63281l-.37305-.01465a2.42639,2.42639,0,0,0-1.582.43946,1.618,1.618,0,0,0-.52735,1.31836,5.46677,5.46677,0,0,0,1.25977,3.17871Zm2.292-4.76074a4.7698,4.7698,0,0,0,.86035,2.61133,2.30162,2.30162,0,0,0,1.90039.94824,1.36362,1.36362,0,0,0,.87891-.24121.88789.88789,0,0,0,.293-.72559A2.06124,2.06124,0,0,0,10.09758,54.346,6.09287,6.09287,0,0,0,7.27434,53.45249Z"/><line class="cls-2" x1="28.74104" x2="28.74104" y2="251.00049"/><line class="cls-2" x1="82.74104" x2="82.74104" y2="251.00049"/></svg>