<svg id="圖層_1" data-name="圖層 1" xmlns="http://www.w3.org/2000/svg" viewBox="0 0 82.02276 250.99576"><defs><style>.cls-1{fill:#333;}.cls-2{fill:none;stroke:#333;stroke-miterlimit:10;}</style></defs><title>kyotokimono REMAKE-和服介紹</title><path class="cls-1" d="M51.38354,1.1994l3.69629,2.71582a1.77033,1.77033,0,0,1-.98047.53223V22.61933c0,2.46386-.64356,4.2832-4.78809,4.56347,0-3.27539-1.28808-3.63965-3.13574-3.91992v-.33594h3.63965c.252,0,.36426-.1123.36426-.3916V16.20722a70.58572,70.58572,0,0,1-5.59961,5.292,1.15948,1.15948,0,0,1-.72852.86816l-2.18359-4.56445c1.42773-.36426,4.98339-1.37207,8.51172-2.51953V3.57929h-8.0918L41.947,3.13105h7.95215Zm-7.7002,5.208c4.25586.53125,5.65625,2.35156,5.65625,3.8916A2.35927,2.35927,0,0,1,47.155,12.73456a2.26,2.26,0,0,1-1.65137-.83984,7.79675,7.79675,0,0,0-1.98828-5.292ZM64.03979,1.14276l3.77929,2.77246a1.45017,1.45017,0,0,1-.95214.53223V22.61933c0,2.54785-.67188,4.42382-4.95606,4.7041,0-3.36035-1.25977-3.78028-3.16309-4.06055v-.33594h3.69532c.22461,0,.33593-.13964.33593-.3916V16.03925a73.44186,73.44186,0,0,1-5.54394,5.4873,1.315,1.315,0,0,1-.72754.89649L54.239,17.99921c1.456-.39258,5.01269-1.54,8.54-2.79981V3.57929H55.10717l-.13965-.44824h7.53223ZM55.72338,6.4914c4.56348.33593,6.07617,2.21191,6.07617,3.83593a2.30965,2.30965,0,0,1-2.15625,2.40723,2.33811,2.33811,0,0,1-1.624-.75586,9.06047,9.06047,0,0,0-2.43555-5.292Z"/><path class="cls-1" d="M41.83569,33.31464a11.56065,11.56065,0,0,1,2.0996.67285c.3086-1.51269.64454-3.55664.89649-5.32031l4.39551,1.28808c-.11231.36426-.3916.58789-1.12012.58789a25.75055,25.75055,0,0,1-3.30371,3.94825,2.23346,2.23346,0,0,1,1.0918,1.76367,1.78239,1.78239,0,0,1-1.76368,1.708,1.70592,1.70592,0,0,1-1.37207-.7002,6.851,6.851,0,0,0-1.14843-3.80762ZM59.615,51.54315c0,.252-1.624,1.00782-2.77148,1.00782h-.58789V51.26288H54.99584v1.31641c0,.084-.50488,1.2041-3.27637,1.2041V49.89081a1.61313,1.61313,0,0,1-1.37207.8125,1.565,1.565,0,0,1-1.28808-.75684,10.41613,10.41613,0,0,0-.61621-4.0039v8.42871c0,.19531-1.0918.95215-2.85547.95215h-.64453V48.12714A12.34326,12.34326,0,0,1,42.031,52.99921l-.41992-.22461a27.63628,27.63628,0,0,0,1.00878-7.64355l2.32325.44824V43.36737l-1.39942.53125a1.151,1.151,0,0,1-.83984.61621l-1.09277-3.584h2.77246a86.52624,86.52624,0,0,0,3.08007-8.708l4.22754,1.45606c-.11132.30859-.41992.44824-1.12011.39257a52.34392,52.34392,0,0,1-5.09571,6.83106l3.332-.084a7.37343,7.37343,0,0,0-.70019-2.01563l.25195-.13965c1.96.72754,3.02442,1.5957,3.47266,2.43555l3.248,1.3164h.92382l1.20411-1.56835,3.30371,2.26855a1.42344,1.42344,0,0,1-.89649.47559ZM48.44311,41.93866v3.13672a6.5117,6.5117,0,0,1,3.27636,2.65918V43.28339a1.71192,1.71192,0,0,1-1.34375.67187,1.66278,1.66278,0,0,1-1.37207-.78418,8.58565,8.58565,0,0,0-.02832-1.45605Zm15.68066,2.07227c.22363-.86817.44727-1.708.58789-2.54785l4.25586,1.31543c-.1123.33691-.36426.53222-1.06445.53222a23.35613,23.35613,0,0,1-2.6875,5.34864c.11133.252.72754,1.54.97949,1.54.30859,0,1.59668-3.13671,1.84863-3.78027l.168.05567-.53222,4.87207a7.97886,7.97886,0,0,1,.70019,2.63183c0,1.23242-1.42871,1.34473-1.68066,1.34473-2.2959,0-3.63965-2.66016-4.11524-3.64063a17.45518,17.45518,0,0,1-5.7959,3.61231l-.19629-.33594a16.98034,16.98034,0,0,0,5.124-5.46,38.15312,38.15312,0,0,1-1.42871-9.99609H50.17944l-.11231-.44825h6.24414c.13965-1.65136.252-3.94824.28027-5.57226l3.61133.64453v-.89649H50.62768l-.14063-.44726h3.248V28.6955l4.75976.44726c-.05566.33594-.27929.53223-.97949.64454v2.93945l1.31641-2.01563,1.37109,1.17578V28.66718l4.81641.5039c-.02832.36426-.22363.55957-1.06348.7002-.085,3.69531-.16894,6.52344-.1123,9.18359h.02734l1.624-2.26757,2.9961,2.32324c-.22363.30859-.61524.39258-1.34375.39258H63.8435a43.94331,43.94331,0,0,0,.252,4.50781ZM52.1394,33.56659c2.46386,1.14844,3.30371,2.46485,3.30371,3.5a1.79356,1.79356,0,0,1-1.73535,1.792,1.59859,1.59859,0,0,1-1.37207-.83984,7.77985,7.77985,0,0,0,.084-1.17578,9.11324,9.11324,0,0,0-.56055-3.16406Zm4.11621,9.32422H54.99584V46.5871h1.25977Zm-1.25977,7.92383h1.25977v-3.7793H54.99584Zm5.0957-15.96a39.32377,39.32377,0,0,1-3.27636,4.20019h3.47168q-.0835-2.01562-.084-4.20019Zm4.42383-4.39551c2.9961.89551,4.00391,2.21191,4.00391,3.27539a1.88292,1.88292,0,0,1-1.84766,1.84863,1.75872,1.75872,0,0,1-1.45605-.8125,4.22556,4.22556,0,0,0,.02734-.58789,6.93367,6.93367,0,0,0-.97949-3.584Z"/><path class="cls-1" d="M66.41967,66.24335,44.13158,58.45917V56.3869l22.28809,7.78418Z"/><path class="cls-1" d="M44.24389,69.15448a2.09091,2.09091,0,0,1,1.51172-.55957,4.15483,4.15483,0,0,1,3.83593,3.72364,3.28133,3.28133,0,0,1-.75585,2.10058,14.13667,14.13667,0,0,0-2.46387,7.55957c0,1.67969.5039,2.54785.83984,2.54785.168,0,.252-.30761.41992-.58789.47559-.81152,1.59571-2.82812,2.21192-3.91992l.252.084a28.84141,28.84141,0,0,0-1.42773,6.63575c0,.33593.30761,1.90429.30761,2.26855a1.67874,1.67874,0,0,1-1.51172,1.67969c-2.12792,0-3.6123-3.27637-3.6123-7.64356a31.135,31.135,0,0,1,1.23242-7.89648,13.28217,13.28217,0,0,0,.67188-3.55566c0-1.12012-.39258-2.12793-1.48438-2.37989Zm11.05957.28028a3.03019,3.03019,0,0,1,2.82812-1.65235c2.21192,0,3.55567,1.23242,3.55567,2.10059a2.44184,2.44184,0,0,1-.19629.89551,22.54983,22.54983,0,0,0-.2793,3.05273c.55957-.14062,1.56738-.39258,1.84766-1.34473,1.82031.28028,3.27637.72852,3.30371,1.9043,0,1.23242-.81152,1.792-5.15137,2.37988a43.34915,43.34915,0,0,0,.30762,6.63575l.084.47656a12.59329,12.59329,0,0,1,3.36035,1.792,3.09791,3.09791,0,0,1,1.34375,2.79981,1.57878,1.57878,0,0,1-1.45605,1.624c-.78418,0-1.17578-.22363-1.93164-1.12012a6.66482,6.66482,0,0,0-1.00879-.97949,3.89507,3.89507,0,0,1-.05566.64355c-.22364,1.37207-1.93164,2.40821-5.04,2.40821-3.02344,0-5.31934-1.59571-5.31934-4.36817,0-2.32422,2.60352-3.6123,4.92774-3.6123a15.76662,15.76662,0,0,1,1.9873.1123c-.05566-.86816-.084-5.06836-.11133-6.01953-.95215.11133-2.26855.19531-2.94043.19531a3.57971,3.57971,0,0,1-3.69531-3.21972l.168-.13965a3.51254,3.51254,0,0,0,2.82715.95117,18.53254,18.53254,0,0,0,3.52832-.41992c0-.55957-.02832-1.14746-.02832-1.5957-.02735-1.73633-.05567-3.3877-1.96-3.3877a4.4341,4.4341,0,0,0-.78321.084Zm3.248,16.29589a6.67637,6.67637,0,0,0-2.54786-.78418c-1.56836,0-2.74414.53223-2.74414,1.65235,0,1.03613,1.37207,1.56836,2.85547,1.56836,2.0166,0,2.46485-.53223,2.46485-1.84863Z"/><path class="cls-1" d="M55.61108,97.37909c2.24023.33594,3.08007,1.14746,3.08007,2.07129a2.0345,2.0345,0,0,1-.95214,1.42871,15.7824,15.7824,0,0,1-4.84375,1.84766c0,.47558-.11231,3.94824-.11231,4.67578a13.99828,13.99828,0,0,1,6.69238-1.98731c4.75977,0,7,2.79981,7,5.96387,0,3.97559-2.96777,6.1875-6.35644,6.1875-2.26758,0-4.70313-1.39941-4.70313-3.80762a7.47427,7.47427,0,0,1,1.28711-4.28417l.19629.05566a8.70426,8.70426,0,0,0-.19629,1.76465c0,2.09961,1.09278,2.74316,2.49219,2.74316,2.24023,0,3.44434-1.624,3.44434-3.86328a3.52865,3.52865,0,0,0-3.668-3.668,9.72749,9.72749,0,0,0-6.10449,2.57617c0,3.10743.39257,3.89161.39257,5.76758,0,2.32422-.78418,3.72363-2.63183,3.72363-1.00782,0-1.2041-.86816-1.34473-1.93164a5.05382,5.05382,0,0,0-1.90332-2.7998,2.80623,2.80623,0,0,1-2.37988,1.12012,2.5664,2.5664,0,0,1-2.15625-2.54883c0-1.17578.58789-1.51172,1.06347-1.51172.64454,0,.8125.19629,1.59668.19629.83985,0,2.96778-1.12012,4.56348-2.21192l.084-5.74023a19.61542,19.61542,0,0,1-2.29589.25195c-1.39942,0-3.89161-.53222-3.752-4.03222l.084-.05567a3.36845,3.36845,0,0,0,2.74414,1.23242,12.67823,12.67823,0,0,0,3.27637-.47656V98.72284c0-2.35254-.72852-2.82812-1.76465-2.82812a3.00822,3.00822,0,0,0-.50391.02832l-.05566-.084a3.0281,3.0281,0,0,1,2.82812-1.59668c1.90332,0,3.16406,1.09278,3.16406,1.93262,0,.252-.39257.92383-.47656,1.28809a13.48251,13.48251,0,0,0-.28027,1.90332,4.2037,4.2037,0,0,0,2.43652-1.96ZM49.9558,113.53437c0-.5879.02735-1.4834.05567-2.37989-1.03614.95215-1.73633,1.76465-2.32422,2.32422a6.351,6.351,0,0,0,1.98828.81152C49.81518,114.29022,49.9558,114.29022,49.9558,113.53437Zm9.26758-12.73926a5.13961,5.13961,0,0,1,4.25586-2.60449c2.99609,0,3.91992,2.18457,3.91992,3.27636a1.40182,1.40182,0,0,1-1.34375,1.34375c-.83984,0-1.06445-.084-1.5957-.084a14.28756,14.28756,0,0,0-3.02442.67187l-.1123-.19629a5.27686,5.27686,0,0,0,1.73633-1.708c0-.81153-1.17578-1.11914-2.09961-1.11914a2.08068,2.08068,0,0,0-1.42871.67187Z"/><path class="cls-1" d="M47.85522,121.59882a1.75479,1.75479,0,0,1,1.25976-.47656c1.82031,0,3.36035,2.12793,3.36035,3.668a3.92553,3.92553,0,0,1-.92382,2.54883,7.45426,7.45426,0,0,0-1.34375,3.97559,3.36483,3.36483,0,0,0,.13964,1.06445l.13965.02735c1.31641-3.35938,3.416-8.03614,6.86035-8.00782a4.6683,4.6683,0,0,1,3.44434,1.45606c1.14746,1.28808,1.9873,3.21972,1.9873,7.41992,0,6.07617-2.63183,10.584-12.34765,12.62793l-.22363-.30762a12.26629,12.26629,0,0,0,8.23144-11.95605c0-4.03223-.252-7.50391-2.18359-7.50391-2.2959-.02832-4.03223,3.21973-4.45215,8.2041a6.70751,6.70751,0,0,1,.13965,1.28711c0,1.31641-.44727,2.43653-1.45606,2.43653-2.18359,0-3.27539-2.91211-3.27539-4.92774,0-4.59277,1.65137-6.88867,1.65137-8.9043,0-1.03613,0-2.37988-.97949-2.60351Z"/><path d="M5.31908,4.30683,1.89819,3.62128A5.57086,5.57086,0,0,0,.85131,3.50409c-.15625,0-.25195.04492-.28613.13477a5.26219,5.26219,0,0,0-.10254.91992L.4558,4.69159.0017,4.6037V.34784L.4558.43573.46264.5744a2.08153,2.08153,0,0,0,.25,1.10938,2.9062,2.9062,0,0,0,1.18555.40039l7.04687,1.4043a5.3294,5.3294,0,0,0,1.042.123c.15528,0,.25-.04492.28418-.13867a5.44083,5.44083,0,0,0,.10156-.916l.01465-.13868.4541.09571V6.76972l-.4541-.09571-.01465-.13281A2.17169,2.17169,0,0,0,10.12865,5.424a2.83724,2.83724,0,0,0-1.18554-.39062L5.905,4.424V9.57636l3.04.60547a5.67231,5.67231,0,0,0,1.042.11718q.23292,0,.28418-.13476a5.38893,5.38893,0,0,0,.10156-.91992l.01465-.13086.4541.08789v4.2539l-.4541-.08789-.01465-.13867a2.14611,2.14611,0,0,0-.24414-1.10937,2.85769,2.85769,0,0,0-1.18554-.39258L1.89819,10.31659A5.57169,5.57169,0,0,0,.85131,10.1994c-.15625,0-.25195.04493-.28613.13477a5.23215,5.23215,0,0,0-.10254.91992L.4558,11.385l-.4541-.08789V7.0412l.4541.08789.00684.14063a2.09365,2.09365,0,0,0,.25,1.10937,2.91583,2.91583,0,0,0,1.18555.39844l3.42089.68164Z"/><path d="M.0017,17.82636l3.35352.668A9.60628,9.60628,0,0,1,.78393,16.465a3.31245,3.31245,0,0,1-.96582-2.084A1.45224,1.45224,0,0,1,.28,13.20722a2.08507,2.08507,0,0,1,1.37891-.39063,6.85909,6.85909,0,0,1,4.43066,1.67383,4.71453,4.71453,0,0,1,2.04883,3.61914,3.921,3.921,0,0,1-.04492.52734q-.04687.32227-.1377.76758v1.43946L1.89916,19.65253a5.19108,5.19108,0,0,0-1.04785-.125c-.15625,0-.251.04687-.28516.13867a5.16108,5.16108,0,0,0-.10351.916L.4558,20.715l-.4541-.08789Zm4.44531.88476,2.542.50782a3.717,3.717,0,0,0,.331-.86914,3.85918,3.85918,0,0,0,.1084-.918,2.06354,2.06354,0,0,0-.98926-1.77344,7.53109,7.53109,0,0,0-2.10937-.92578,8.52416,8.52416,0,0,0-2.373-.38672,1.4383,1.4383,0,0,0-.791.17578.59037.59037,0,0,0-.26367.52539Q.90209,16.44452,4.447,18.71112Z"/><path d="M-.18189,24.58612a2.434,2.434,0,0,1,.68945-1.88867,2.96207,2.96207,0,0,1,2.05957-.63086,5.74668,5.74668,0,0,1,3.88965,1.46485A4.39345,4.39345,0,0,1,8.13842,26.924a2.52528,2.52528,0,0,1-.68457,1.92969,2.9223,2.9223,0,0,1-2.05664.64063,5.718,5.718,0,0,1-3.89942-1.48047A4.45567,4.45567,0,0,1-.18189,24.58612Zm.55664.375q0,1.16308,1.54785,2.05078a7.04772,7.04772,0,0,0,3.5625.88477,2.94875,2.94875,0,0,0,1.57324-.33594,1.12787,1.12787,0,0,0,.52344-1.01758q0-1.13671-1.583-2.01562a7.37,7.37,0,0,0-3.63672-.87891,2.55308,2.55308,0,0,0-1.43359.36719A1.09584,1.09584,0,0,0,.37475,24.96112Z"/><path d="M.0017,30.70136l6.05664,1.207a5.54975,5.54975,0,0,0,1.041.11719c.15527,0,.251-.04493.28515-.13477a5.43122,5.43122,0,0,0,.10938-.91992L7.5017,30.84l.4541.08789v2.80859l-3.2539-.64843q3.43652,2.11523,3.43652,4.06445a.98192.98192,0,0,1-.06543.35937l-1.65527-.61523a1.63751,1.63751,0,0,0,.14648-.668q0-1.3916-2.84863-3.33789L.0017,32.15058Z"/><path d="M.0017,37.74823l6.05664,1.207a5.62681,5.62681,0,0,0,1.041.11719c.15527,0,.251-.04492.28515-.13476a5.43159,5.43159,0,0,0,.10938-.91993l.00781-.13086.4541.0879v2.80859l-6.05761-1.209a5.56316,5.56316,0,0,0-1.04688-.11718c-.15625,0-.25195.04492-.28613.13476a5.2625,5.2625,0,0,0-.10254.91992l-.00684.13086-.4541-.08789Zm9.39649,1.873,1.44335.28711v1.44922L9.39819,41.0705Z"/><line class="cls-2" x1="28.02276" y1="-0.00473" x2="28.02276" y2="250.99576"/><line class="cls-2" x1="82.02276" y1="-0.00473" x2="82.02276" y2="250.99576"/></svg>