<svg id="圖層_1" data-name="圖層 1" xmlns="http://www.w3.org/2000/svg" viewBox="0 0 85.85375 252.02913"><defs><style>.cls-1{fill:#333;}.cls-2{fill:none;stroke:#333;stroke-miterlimit:10;}</style></defs><title>kyotokimono REMAKE-和服介紹</title><path class="cls-1" d="M69.8571,18.22853l.02832,3.78027c1.67968.50391,2.24023.75586,2.24023,1.56738,0,1.76465-1.28808,2.91211-7.22461,2.91211H55.82975c-4.64843,0-6.66406-1.2041-6.66406-5.23535V10.333a20.76753,20.76753,0,0,1-3.416,2.09961l-.19628-.19629A31.09782,31.09782,0,0,0,52.27311.56056l5.57227,1.12012c-.11231.33593-.33594.5039-1.12012.47558A26.71,26.71,0,0,1,55.1569,4.3965h5.09668l2.044-2.07129L65.85319,5.6006c-.22363.25195-.53223.33593-1.12012.39258a27.53416,27.53416,0,0,1-5.292,3.35937h4.90039l1.54-2.01562,4.05957,2.85546a1.94818,1.94818,0,0,1-1.23144.67188V17.669c0,.02734-1.09278,1.00781-4.06055,1.00781v-1.876H53.14128v4.5918c0,.98047.64453,1.31641,2.57617,1.31641H64.5651c2.68848,0,3.08008-.02832,5.06836-4.48047Zm-11.28418-8.876a26.91638,26.91638,0,0,0,1.876-4.50781H54.821A33.10042,33.10042,0,0,1,51.34928,8.541l2.18457.81152Zm-5.43164.44824v6.55176h3.80761V9.80079Zm11.50781,0H60.84147v6.55176h3.80762Z"/><path class="cls-1" d="M53.19694,40.82423c1.48438-.19531,3.02441-.44727,4.56445-.69922l.02832.25195c-1.12011.72754-2.63281,1.624-4.59277,2.66016v7.47559c0,2.46386-.58789,4.31152-4.70312,4.67578,0-2.71582-.64454-3.52832-2.88477-3.86426v-.36328h3.30469c.27929,0,.36328-.14063.36328-.41992v-5.5166c-.53125.28027-1.0918.53222-1.67969.8125a1.34681,1.34681,0,0,1-.89551.75585l-1.42871-4.7041c.83985-.084,2.26856-.252,4.00391-.5039v-5.7959H45.58171l-.11231-.44824H49.277V28.70118l5.01269.41993c-.02832.36328-.168.61523-1.09277.72753V35.001l1.54-2.60449,2.88476,2.7998c-.19628.30859-.61621.39258-1.34472.39258H53.19694ZM68.821,29.56837l3.69629,2.91211c-.19629.30859-.61621.39258-1.40039.39258H66.88932V50.457c0,2.60352-.75586,4.50782-5.48828,4.81543,0-3.27539-1.624-3.80761-4.19922-4.17187V50.793h5.03907c.33691,0,.47656-.14062.47656-.39258V32.87306H56.33366l-.11231-.44824H66.74967Z"/><path class="cls-1" d="M51.99382,68.96486c1.17578-.168,2.40722-.36426,3.61132-.56055l.05664.28027c-.9248.61621-2.12793,1.37207-3.668,2.26856V78.877c0,2.35157-.53223,4.0879-4.28418,4.45215,0-2.46484-.36426-3.27636-2.46387-3.64062v-.36426h2.77148c.252,0,.33594-.13965.33594-.41992V72.96876l-1.12012.58789a1.19448,1.19448,0,0,1-.86718.72754l-1.14844-4.39551c.67187-.05566,1.76367-.19629,3.13574-.3916v-5.9082H45.44108l-.13965-.44824h3.05176V56.67286l4.75977.41992c-.02735.36426-.168.5879-1.11914.72754v4.90039l1.09179-2.0996,2.32422,2.57519c-.19629.30859-.61621.39258-1.31641.39258h-2.0996ZM68.70964,57.17677c-.05665.3916-.252.61621-1.09278.72754v7.56055c3.72461,1.37207,4.92871,3.21972,4.92871,4.67578a2.07707,2.07707,0,0,1-1.96,2.18359,2.02045,2.02045,0,0,1-1.54-.81152,12.58225,12.58225,0,0,0-1.42871-5.48828V82.041c0,.36328-1.56738,1.25976-2.93945,1.25976h-.7002v-5.124c-1.90429,1.03613-4.67578,2.4082-8.56738,4.11621a1.22135,1.22135,0,0,1-.84082.69922l-1.5957-4.25586c.83984-.05566,2.18359-.19531,3.83593-.36328V73.27638h-2.7998l-.13965-.44727h2.93945V68.209l4.5918.41992c-.05566.36426-.30762.53222-1.00781.64355v3.30469L61.569,70.75685l2.4082,2.04394v-5.46a2.04038,2.04038,0,0,1-1.03613.168H53.75749l-.13965-.44824h3.1914v-5.124H54.54167l-.14063-.44824h2.4082V56.67286l4.5918.41992c-.05566.36426-.2793.55958-1.00781.64356v3.69629l1.14844-1.792,2.23925,1.90429c-.19531.30762-.58789.3916-1.25976.3916H60.39323v4.87208L61.653,64.82032l2.32422,2.044V56.72853ZM60.39323,73.27638v4.7041c1.14844-.13965,2.35254-.28027,3.584-.44824V72.99708c-.22363.22363-.58789.2793-1.2041.2793Z"/><path class="cls-1" d="M70.24967,94.249,47.96159,86.46486V84.39259l22.28808,7.78418Z"/><path class="cls-1" d="M46.70182,97.16017a2.05548,2.05548,0,0,1,.72754-.13965c3.30371,0,4.92774,2.32422,4.92774,3.8916a2.41828,2.41828,0,0,1-.39161,1.37207,11.33054,11.33054,0,0,0-1.23242,5.7959c0,.67187.39258,3.27637,2.0166,3.27637.36329,0,.7002-.13965,1.42774-1.17578.89551-1.26075,2.09961-3.19239,2.99609-4.67579l.33594.19532c-.89648,2.57617-2.09961,6.38379-2.09961,7.61621,0,.19629.11133.33594.2793.58789a2.65692,2.65692,0,0,1,.64453,1.37207c0,1.2041-.78418,1.624-1.876,1.624-2.26855,0-6.66406-2.57617-6.66406-10.91992,0-1.45605.22363-4.3125.22363-5.376,0-.53222,0-2.68847-1.31543-3.332ZM61.31706,99.876c6.80468-.11133,9.57617,3.9209,9.57617,6.97265,0,1.67969-.92383,3.08008-2.43555,3.08008a1.60931,1.60931,0,0,1-1.76465-1.3164c-.27929-4.22754-1.96-7.95215-5.46-8.17579Z"/><path class="cls-1" d="M52.945,143.05275c7.1123-.7002,11.7041-3.44434,11.7041-7.11231,0-2.74414-.75586-4.5918-3.97559-4.5918-1.51172,0-5.0957,1.06446-8.14843,5.09571-.55958.70019-1.0918,1.73633-2.01563,1.73633a1.81622,1.81622,0,0,1-1.792-2.01563c0-1.876.89551-2.0166,2.04394-3.19238,2.49219-2.52051,6.86035-7.11231,8.792-8.96.61621-.58789.97949-.92383.97949-1.06446,0-.02734-.05567-.13964-.22364-.13964a15.3926,15.3926,0,0,0-5.40429,1.82031c-.64356.3916-.81153.81152-1.56738.81152-1.31641.02832-2.85645-1.708-2.85645-3.21973a2.74233,2.74233,0,0,1,.78418-2.01562l.168.02734a1.80378,1.80378,0,0,0,1.96,1.73633,20.03508,20.03508,0,0,0,6.2998-1.06445c.78418-.33594,1.40039-.92383,1.73633-.92383,1.0918,0,3.36035,1.28809,3.36035,2.71582,0,1.09277-1.2041,1.23242-2.18457,1.96a60.75828,60.75828,0,0,0-8.28808,7.72852l.05664.05566a14.52889,14.52889,0,0,1,7.41992-2.54785c3.94727,0,6.85937,2.54785,6.832,6.27246,0,5.15137-4.62012,7.30762-15.56836,7.3916Z"/><path class="cls-1" d="M51.43327,155.0088a.93757.93757,0,0,0-.02832.2793,1.27572,1.27572,0,0,0,1.40039,1.17676c1.65234,0,4.75976-2.46387,8.12012-2.46387,4.31152,0,5.26367,2.91113,5.26367,6.46777,0,4.78809-3.91992,9.23926-12.46,10.72363l-.19532-.36425c6.71973-2.79981,8.45508-7.50391,8.45508-10.94727,0-2.60449-.27929-4.22851-1.90332-4.22851-1.82031,0-3.94824,1.708-4.75976,3.416a1.80053,1.80053,0,0,1-1.84864,1.28809,3.77277,3.77277,0,0,1-3.248-3.27637,2.51884,2.51884,0,0,1,.95215-2.26758Zm4.48047-3.584c.47558-.22461,2.46386-1.31641,2.46386-1.37207,0-.02832-.02832-.05664-.084-.084-.64453-.22461-2.18457-.084-3.13672-.72851a3.369,3.369,0,0,1-1.623-3.16407l.168-.13965c.19532.36426.92383,1.20411,3.30371,1.20411.95215,0,1.96-.11231,2.77149-.11231,1.84863,0,3.69629.95215,3.69629,2.57617,0,.92383-.86817,1.40039-1.9043,1.40039l-1.14746-.02832a15.49072,15.49072,0,0,0-4.42383.72754Z"/><path class="cls-1" d="M61.51335,176.23243a4.92643,4.92643,0,0,0,2.04394.30762c1.34375,0,2.49219.64356,2.49219,1.792,0,.78418-.8125,1.12012-1.98828,1.59571a42.61252,42.61252,0,0,1-7.78418,1.84863,42.18416,42.18416,0,0,0-.7832,5.26367c0,.53223.084.78418.252.78418a.3735.3735,0,0,0,.22363-.084,14.34156,14.34156,0,0,1,6.832-2.37989c4.03223,0,6.16016,2.15528,6.16016,5.208,0,5.544-5.82422,6.85938-14.8125,7.30762l-.084-.39258c8.14844-1.5957,10.89258-4.67578,10.89258-6.97168,0-1.9873-.39258-3.8916-2.66015-3.8916a7.02211,7.02211,0,0,0-5.96387,4.17187c-.36426.83985-.7002,1.40039-1.54,1.40039a2.75012,2.75012,0,0,1-2.74414-2.49218c0-.7002.3916-1.00782.53223-1.68067.27929-1.34375.81152-4.45117.95214-5.93554-.33691.02832-1.23242.1123-1.93261.1123-2.79981,0-3.78028-1.42871-3.69629-3.5l.16894-.02832c.67188.86816,1.59571,1.12012,3.47168,1.12012a22.21872,22.21872,0,0,0,2.26758-.168c.084-.92383.19629-1.98828.19629-2.71582,0-.36426,0-1.37207-1.54-1.37207a2.57429,2.57429,0,0,0-.67187.084l-.084-.05664a2.58546,2.58546,0,0,1,2.77149-1.73535c1.51269,0,3.47265.89551,3.47265,1.792,0,.78418-.41992,1.06348-.67187,1.792a12.422,12.422,0,0,0-.44824,1.73536c2.35156-.39161,4.59179-1.624,4.59179-2.26758a.59156.59156,0,0,0-.13965-.36426Z"/><path class="cls-1" d="M56.277,206.669a15.44834,15.44834,0,0,1,1.98828-.168c3.47168,0,5.26367,1.708,5.26367,5.96387a18.59914,18.59914,0,0,1-2.21191,9.01562,3.80858,3.80858,0,0,1-3.52735,2.21289c-.9248,0-1.456-.4209-1.456-1.708,0-.98047-.95215-2.15625-2.77246-4.08886l.14062-.252c1.20313.67285,2.91114,1.624,3.72364,1.624a.97117.97117,0,0,0,.83984-.53125,15.13426,15.13426,0,0,0,1.73633-7.252c0-1.876-.28028-3.248-1.98828-3.248a8.725,8.725,0,0,0-2.21192.36328,91.74709,91.74709,0,0,1-4.25586,11.8164c-.44824,1.00782-1.40039,2.82813-2.57617,2.82813-1.37207,0-1.84766-.95215-1.84766-2.46387,0-.9248.9795-1.93262,1.59571-2.77246a30.25043,30.25043,0,0,0,3.80762-8.39941,14.6387,14.6387,0,0,0-1.28809.69922c-.44727.252-.86719.98046-1.624.98046a3.059,3.059,0,0,1-2.88379-3.30371,2.79686,2.79686,0,0,1,1.03613-2.04394l.22363.02734c.02832,1.00781.28028,1.82031,1.45606,1.82031a17.21434,17.21434,0,0,0,3.64062-.56054,19.50914,19.50914,0,0,0,.55957-3.8916c0-.9795-.28027-1.624-1.28808-1.624a4.99091,4.99091,0,0,0-.81153.11231l-.084-.084a2.74039,2.74039,0,0,1,2.74414-1.624c1.81934,0,3.55566,1.0918,3.55566,2.12793,0,.72754-.78418,1.4834-1.09179,2.6875Zm7.02832-1.9043c5.06836.53223,8.14844,3.5,8.12012,7.1123,0,1.73633-.92383,3.1084-2.26856,3.1084-.75586-.02832-1.792-.22461-1.792-1.59668,0-3.86328-.72754-6.88769-4.17188-8.23144Z"/><path class="cls-1" d="M53.75749,238.50489a47.89492,47.89492,0,0,0-1.12012,6.01954c0,.86816.44824,1.65234.44824,2.18457,0,.95214-.36426,1.76367-1.792,1.76367-1.93262,0-3.86426-3.16406-3.83594-7.3916-.02832-4.56446,1.67969-7.61621,1.67969-10.668,0-1.00782-.44824-2.12793-1.12012-2.21192l-.02832-.168a2.59,2.59,0,0,1,1.14844-.25195c1.82031,0,3.5,1.96,3.5,4.05957a3.52778,3.52778,0,0,1-.61621,2.01563,12.53617,12.53617,0,0,0-1.90332,6.6084c0,1.34375.2793,2.49218.7832,2.49218.44824,0,1.792-3.02441,2.54883-4.67578Zm11.78808-7.05566c0,.69922,0,1.51172.02735,2.15527.36425-.11132,1.84863-.55957,2.24023-1.42773,1.51172.53223,2.96777.61621,3.02442,1.93164,0,.89648-.67188,1.31641-1.792,1.708a25.55381,25.55381,0,0,1-3.248.72851c.05566,1.31543.168,3.19239.168,4.00391,0,5.51562-1.51171,8.56836-9.26855,10.416l-.19531-.33594c4.50781-2.60449,6.04785-5.46,6.04785-10.61231,0-.41992-.05566-2.51953-.05566-2.99609a22.62242,22.62242,0,0,1-2.52051.168c-2.15625-.02735-3.416-1.23145-4.17188-3.24805l.168-.19531a4.98236,4.98236,0,0,0,3.332.92383,18.87029,18.87029,0,0,0,3.13574-.30762c-.05566-3.97656-.13964-5.46-.8955-5.9082a2.74876,2.74876,0,0,0-1.76465-.39258l-.05567-.11133a2.48763,2.48763,0,0,1,2.07227-1.23242c1.39941,0,4.00391.67187,4.00391,2.18457a16.0342,16.0342,0,0,1-.252,1.73535Z"/><path d="M4.528,6.81837a6.44224,6.44224,0,0,1-.8789-3.123,2.24378,2.24378,0,0,1,.7373-1.78418,2.9968,2.9968,0,0,1,2.041-.64355,5.60484,5.60484,0,0,1,3.85644,1.51367A4.55071,4.55071,0,0,1,11.9694,6.2422a4.89617,4.89617,0,0,1-.084.89648,6.17626,6.17626,0,0,1-.252.93262L9.62565,7.668v-.7168l.13281.01368c.1211.01562.28028.042.47559.08105a1.91542,1.91542,0,0,0,.26367.02246.69574.69574,0,0,0,.64453-.37305,2.34789,2.34789,0,0,0-1.11718-3.10058,6.332,6.332,0,0,0-3.30665-.79688A2.58838,2.58838,0,0,0,5.0446,3.2588,1.68506,1.68506,0,0,0,4.485,4.64064a6.38015,6.38015,0,0,0,.6582,2.30273Z"/><path d="M3.64909,11.13282a2.43624,2.43624,0,0,1,.68945-1.88964,2.96194,2.96194,0,0,1,2.05957-.62989,5.74668,5.74668,0,0,1,3.88965,1.46485,4.39159,4.39159,0,0,1,1.68164,3.3916,2.52381,2.52381,0,0,1-.68457,1.92969,2.91773,2.91773,0,0,1-2.05664.64062,5.717,5.717,0,0,1-3.89941-1.47949A4.45565,4.45565,0,0,1,3.64909,11.13282Zm.55664.374q0,1.16308,1.54785,2.05078a7.04829,7.04829,0,0,0,3.5625.88574,2.94787,2.94787,0,0,0,1.57324-.33691,1.12788,1.12788,0,0,0,.52344-1.01758q0-1.13671-1.583-2.01465A7.37,7.37,0,0,0,6.193,10.19532a2.553,2.553,0,0,0-1.43359.36621A1.09587,1.09587,0,0,0,4.20573,11.50685Z"/><path d="M3.83268,17.06544l9.668,1.92676a5.56308,5.56308,0,0,0,1.04688.11719c.15625,0,.252-.04493.28613-.13575a5.22923,5.22923,0,0,0,.10254-.91894l.00781-.13184.45313.08789v2.80762l-9.668-1.92676a5.56307,5.56307,0,0,0-1.04688-.11718c-.15625,0-.25195.04492-.28613.13574a5.22923,5.22923,0,0,0-.10254.91894l-.00684.13184-.4541-.08789Z"/><path d="M3.64909,23.86915a2.43627,2.43627,0,0,1,.68945-1.88965,2.962,2.962,0,0,1,2.05957-.62988,5.74671,5.74671,0,0,1,3.88965,1.46484,4.39163,4.39163,0,0,1,1.68164,3.39161,2.52379,2.52379,0,0,1-.68457,1.92968,2.91769,2.91769,0,0,1-2.05664.64063,5.71706,5.71706,0,0,1-3.89941-1.47949A4.45565,4.45565,0,0,1,3.64909,23.86915Zm.55664.374q0,1.16309,1.54785,2.05078a7.04829,7.04829,0,0,0,3.5625.88574,2.94786,2.94786,0,0,0,1.57324-.33692,1.12785,1.12785,0,0,0,.52344-1.01757q0-1.13673-1.583-2.01465A7.37,7.37,0,0,0,6.193,22.93165a2.553,2.553,0,0,0-1.43359.36621A1.09585,1.09585,0,0,0,4.20573,24.24318Z"/><path d="M3.83268,29.98536l6.05664,1.207a5.54892,5.54892,0,0,0,1.041.11719c.15527,0,.251-.04492.28515-.13476a5.46517,5.46517,0,0,0,.10938-.91993l.00781-.13183.4541.08789v2.80859l-3.2539-.64843q3.43652,2.1167,3.43652,4.06445a.97818.97818,0,0,1-.06543.35937L10.2487,36.1797a1.62967,1.62967,0,0,0,.14648-.667q0-1.39161-2.84863-3.33887l-3.71387-.74023Z"/><path d="M.9401,36.53517,11.194,38.57911V37.40528l.59277.11719v1.17481a7.56191,7.56191,0,0,1,2.92286,1.49707,2.90643,2.90643,0,0,1,.87109,2.18066,5.13422,5.13422,0,0,1-.0625.82129,4.00279,4.00279,0,0,1-.18652.73438l-1.91895-.38086V42.832l.13184.01465q.38085.05127.60058.08789a1.78129,1.78129,0,0,0,.33008.03711.49893.49893,0,0,0,.457-.24707,1.45852,1.45852,0,0,0,.15039-.74609,1.15618,1.15618,0,0,0-.57519-1.05274,7.85371,7.85371,0,0,0-2.252-.6914l-.46875-.09571v2.26075l-.59277-.10938V40.02052L.9401,37.98341Z"/><path d="M3.83268,47.19825l3.252.64649q-3.43506-1.89551-3.43555-3.77832a1.10129,1.10129,0,0,1,.34473-.88086A1.5428,1.5428,0,0,1,5.026,42.88771a5.756,5.756,0,0,1,1.0332.13965l3.83008.76367a5.54965,5.54965,0,0,0,1.041.11718c.15527,0,.251-.04492.28515-.13574a5.42889,5.42889,0,0,0,.10938-.91894l.00781-.13184.4541.08789V45.625l-5.83789-1.1709a5.12433,5.12433,0,0,0-.62207-.081.51626.51626,0,0,0-.374.12207.4659.4659,0,0,0-.124.34961q0,.95947,3.39843,3.22754l3.55957.71093v1.44922L5.8151,49.042a6.14968,6.14968,0,0,0-1.10937-.11718c-.166,0-.2666.04492-.30274.13476a4.97809,4.97809,0,0,0-.10839.91992l-.00782.13184-.4541-.08789Z"/><path d="M3.83268,51.98048l9.668,1.92676a5.56308,5.56308,0,0,0,1.04688.11719c.15625,0,.252-.04493.28613-.13575a5.22923,5.22923,0,0,0,.10254-.91894l.00781-.13184.45313.08789v2.80762l-9.668-1.92676a5.56317,5.56317,0,0,0-1.04688-.11719c-.15625,0-.25195.04493-.28613.13575a5.22923,5.22923,0,0,0-.10254.91894l-.00684.13184-.4541-.08789Z"/><path d="M3.74479,62.84669q.86426.05859,1.21582.05859a14.99574,14.99574,0,0,0,5.80078-1.04492q.564-.227.56348-1.12011l.00781-.13184.4541.08789V63.082A24.0538,24.0538,0,0,1,5.986,64.23048a21.62665,21.62665,0,0,0,5.75684,2.63672v.46094a19.71746,19.71746,0,0,1-5.918,1.35547l1.04.71093a7.696,7.696,0,0,0,3.67676,1.69434,1.763,1.763,0,0,0,1.24511-.47559v1.77246a2.36728,2.36728,0,0,1-.38086.03711,6.99269,6.99269,0,0,1-3.1416-1.49609q-3.71484-2.55762-4.51953-3.17383v-.49023c.48828.04394.82813.06543,1.01758.06543a13.84468,13.84468,0,0,0,4.62207-.76172,45.67215,45.67215,0,0,1-5.28027-3.0166c-.0293-.01954-.14942-.08985-.35938-.21192Z"/><path d="M5.10026,79.17482a7.29131,7.29131,0,0,1-1.45117-3.86719A2.24747,2.24747,0,0,1,4.404,73.53126a2.965,2.965,0,0,1,2.02832-.66211,5.658,5.658,0,0,1,3.83789,1.49414,4.41337,4.41337,0,0,1,1.69922,3.36914,1.68319,1.68319,0,0,1-.42773,1.17871,1.41045,1.41045,0,0,1-1.08789.46875A2.8535,2.8535,0,0,1,8.026,78.01759a6.84072,6.84072,0,0,1-1.05859-3.63281l-.37305-.01465a2.42641,2.42641,0,0,0-1.582.43945A1.618,1.618,0,0,0,4.485,76.12794a5.4667,5.4667,0,0,0,1.25976,3.17871Zm2.292-4.76075A4.76977,4.76977,0,0,0,8.2526,77.0254a2.3016,2.3016,0,0,0,1.90039.94824,1.36356,1.36356,0,0,0,.87891-.24121.88789.88789,0,0,0,.293-.72558,2.06124,2.06124,0,0,0-1.10938-1.69922A6.093,6.093,0,0,0,7.39225,74.41407Z"/><path d="M3.83268,85.56153l3.33594.66407A9.54891,9.54891,0,0,1,4.612,84.20021a3.315,3.315,0,0,1-.96289-2.084A1.45363,1.45363,0,0,1,4.111,80.94239a2.09056,2.09056,0,0,1,1.37891-.39062,6.86141,6.86141,0,0,1,4.43066,1.67578,4.726,4.726,0,0,1,2.04883,3.625,7.69024,7.69024,0,0,1-.1748,1.2959l1.706.33984a5.24442,5.24442,0,0,0,1.04688.124c.15625,0,.252-.0459.28613-.13868a5.29654,5.29654,0,0,0,.10254-.916l.00781-.13184.45313.08789v2.80176l-9.667-1.92773a5.25324,5.25324,0,0,0-1.04785-.124c-.15625,0-.251.0459-.28515.13868a5.14462,5.14462,0,0,0-.10352.916l-.00684.13184-.4541-.08789Zm4.44336.88575,2.58008.52929a3.91568,3.91568,0,0,0,.43262-1.78515,2.07965,2.07965,0,0,0-1.00293-1.77832,7.572,7.572,0,0,0-2.11719-.93946,8.46119,8.46119,0,0,0-2.38086-.3916,1.43841,1.43841,0,0,0-.791.17578.58875.58875,0,0,0-.26367.52637Q4.73307,84.1802,8.276,86.44728Z"/><path d="M3.83268,94.68849l3.33594.66406A9.54891,9.54891,0,0,1,4.612,93.32716a3.315,3.315,0,0,1-.96289-2.084A1.4536,1.4536,0,0,1,4.111,90.06935a2.09056,2.09056,0,0,1,1.37891-.39063A6.86147,6.86147,0,0,1,9.92057,91.3545a4.726,4.726,0,0,1,2.04883,3.625,7.69024,7.69024,0,0,1-.1748,1.2959l1.706.33985a5.24507,5.24507,0,0,0,1.04688.124c.15625,0,.252-.0459.28613-.13867a5.29688,5.29688,0,0,0,.10254-.916l.00781-.13183.45313.08789v2.80175l-9.667-1.92773a5.25315,5.25315,0,0,0-1.04785-.124c-.15625,0-.251.04589-.28515.13867a5.14477,5.14477,0,0,0-.10352.916l-.00684.13184-.4541-.08789Zm4.44336.88574,2.58008.5293a3.91572,3.91572,0,0,0,.43262-1.78516A2.07965,2.07965,0,0,0,10.28581,92.54a7.57206,7.57206,0,0,0-2.11719-.93945,8.46119,8.46119,0,0,0-2.38086-.3916,1.43833,1.43833,0,0,0-.791.17578.58873.58873,0,0,0-.26367.52636Q4.73307,93.30715,8.276,95.57423Z"/><path d="M3.83268,99.16212l6.05664,1.208a5.62786,5.62786,0,0,0,1.041.11719c.15527,0,.251-.04493.28515-.13477a5.46515,5.46515,0,0,0,.10938-.91992l.00781-.13184.4541.08789v2.80957l-6.05761-1.21a5.56307,5.56307,0,0,0-1.04688-.11718c-.15625,0-.25195.04589-.28613.13574a5.24431,5.24431,0,0,0-.10254.91894l-.00684.13184-.4541-.08789Zm9.39649,1.873,1.44336.28808v1.44922l-1.44336-.28711Z"/><path d="M3.83268,103.49806l6.05664,1.207a5.62786,5.62786,0,0,0,1.041.11719c.15527,0,.251-.04492.28515-.13477a5.46515,5.46515,0,0,0,.10938-.91992l.00781-.13184.4541.08789v2.8086l-3.24707-.64746a9.63863,9.63863,0,0,1,2.50684,2.05664,3.35414,3.35414,0,0,1,.92285,2.07226,1.24639,1.24639,0,0,1-.34082.95508,1.47225,1.47225,0,0,1-1.0332.31836,6.0055,6.0055,0,0,1-1.043-.13965l-3.82324-.76172a5.56307,5.56307,0,0,0-1.04688-.11718c-.15625,0-.25195.04492-.28613.13574a5.22923,5.22923,0,0,0-.10254.91894l-.00684.13184-.4541-.08789v-2.80762l5.92578,1.18067a3.55383,3.55383,0,0,0,.61914.07324.51454.51454,0,0,0,.38282-.12793.52909.52909,0,0,0,.125-.38477q0-1.188-3.44825-3.63574l-3.60449-.71875Z"/><path d="M1.16667,112.63868l2.05078-.53418a5.88279,5.88279,0,0,0-1.78711,3.79,1.24621,1.24621,0,0,0,.63574,1.1377,8.82113,8.82113,0,0,0,2.47754.75781l3.085.61426A9.42677,9.42677,0,0,1,5.07,116.35743a3.38538,3.38538,0,0,1-.97364-2.10547,1.4191,1.4191,0,0,1,.48731-1.11816,1.82862,1.82862,0,0,1,1.25586-.42969,5.89614,5.89614,0,0,1,2.37988.5752,7.71685,7.71685,0,0,1,2.22656,1.47363,4.35833,4.35833,0,0,1,1.52344,3.17578,3.88483,3.88483,0,0,1-.04492.51953c-.03125.21485-.07715.47266-.1377.77539v1.44922l-5.52929-1.11035a12.89833,12.89833,0,0,1-3.584-1.083,4.18112,4.18112,0,0,1-1.90918-3.85742A6.15034,6.15034,0,0,1,1.16667,112.63868Zm7.59668,5.99219,2.07129.41211a3.686,3.686,0,0,0,.31445-.83789,3.77,3.77,0,0,0,.10351-.88184,2.1097,2.1097,0,0,0-.90039-1.78515A6.81675,6.81675,0,0,0,6.18229,114.25a1.33529,1.33529,0,0,0-.75.17188.58014.58014,0,0,0-.25195.51464Q5.18034,116.28713,8.76335,118.63087Z"/><path d="M3.83268,126.37208l9.668,1.92676a5.56308,5.56308,0,0,0,1.04688.11719c.15625,0,.252-.04492.28613-.13575a5.22923,5.22923,0,0,0,.10254-.91894l.00781-.13184.45313.08789v2.81055l-7.13282-1.4248v.10937q1.82959,3.57276,3.07617,3.57227a.55466.55466,0,0,0,.44629-.22754l.08789,1.46484a.79633.79633,0,0,1-.35839.10352q-1.09278,0-3.04-3.70508a26.5181,26.5181,0,0,0-3.73535,2.63476,1.48951,1.48951,0,0,0-.44629,1.11329l-.00782.16211-.4541-.0879v-2.40917a23.72489,23.72489,0,0,1,4.10938-2.68653v-.11035L3.83268,127.792Z"/><path d="M3.83268,134.95607l6.05664,1.208a5.627,5.627,0,0,0,1.041.11719c.15527,0,.251-.04492.28515-.13476a5.46535,5.46535,0,0,0,.10938-.91993l.00781-.13183.4541.08789v2.80957l-6.05761-1.21a5.56234,5.56234,0,0,0-1.04688-.11719c-.15625,0-.25195.0459-.28613.13574a5.24449,5.24449,0,0,0-.10254.91895l-.00684.13183-.4541-.08789Zm9.39649,1.873,1.44336.28809v1.44922l-1.44336-.28711Z"/><path d="M3.83268,139.292l6.05664,1.207a5.627,5.627,0,0,0,1.041.11719c.15527,0,.251-.04492.28515-.13476a5.46517,5.46517,0,0,0,.10938-.91993l.00781-.13183.4541.08789v2.80859l-3.23144-.64453q3.40722,2.18409,3.40723,3.97949a1.13962,1.13962,0,0,1-.34083.90528,1.51586,1.51586,0,0,1-1.02832.2998,6.89048,6.89048,0,0,1-1.04687-.16113l-.98926-.1875q3.41309,2.30127,3.41211,4.04a1.08558,1.08558,0,0,1-.36523.89551,1.73823,1.73823,0,0,1-1.10645.29589,5.56638,5.56638,0,0,1-1.00293-.13183L5.72917,150.874a5.649,5.649,0,0,0-1.04688-.11718c-.15625,0-.25195.0459-.28613.13574a5.19419,5.19419,0,0,0-.10254.91211l-.00684.13867-.4541-.09473v-2.80078l6.09375,1.21485a2.30571,2.30571,0,0,0,.418.05078.6985.6985,0,0,0,.41309-.09863.34338.34338,0,0,0,.13574-.29688A3.05665,3.05665,0,0,0,9.8571,148.2295a10.954,10.954,0,0,0-2.332-1.87109l-3.69239-.74023v-1.44825l6.09375,1.21485a2.30571,2.30571,0,0,0,.418.05078.6985.6985,0,0,0,.41309-.09863.34039.34039,0,0,0,.13574-.2959A3.00788,3.00788,0,0,0,9.86,143.36134a11.47365,11.47365,0,0,0-2.374-1.89258l-3.65332-.72851Z"/><path d="M3.64909,155.7422a2.43626,2.43626,0,0,1,.68945-1.88965,2.962,2.962,0,0,1,2.05957-.62988,5.74671,5.74671,0,0,1,3.88965,1.46484,4.39161,4.39161,0,0,1,1.68164,3.3916,2.5238,2.5238,0,0,1-.68457,1.92969,2.91769,2.91769,0,0,1-2.05664.64063,5.717,5.717,0,0,1-3.89941-1.4795A4.45561,4.45561,0,0,1,3.64909,155.7422Zm.55664.374q0,1.16308,1.54785,2.05078a7.04819,7.04819,0,0,0,3.5625.88575,2.94786,2.94786,0,0,0,1.57324-.33692,1.12787,1.12787,0,0,0,.52344-1.01758q0-1.13672-1.583-2.01464A7.37,7.37,0,0,0,6.193,154.8047a2.553,2.553,0,0,0-1.43359.36621A1.09584,1.09584,0,0,0,4.20573,156.11622Z"/><path d="M3.83268,161.85743l6.05664,1.207a5.627,5.627,0,0,0,1.041.11719c.15527,0,.251-.04492.28515-.13476a5.46517,5.46517,0,0,0,.10938-.91993l.00781-.13183.4541.08789v2.80859l-3.24707-.64746a9.63863,9.63863,0,0,1,2.50684,2.05664,3.35417,3.35417,0,0,1,.92285,2.07227,1.24639,1.24639,0,0,1-.34082.95508,1.4723,1.4723,0,0,1-1.0332.31836,6.0065,6.0065,0,0,1-1.043-.13965l-3.82324-.76172a5.56234,5.56234,0,0,0-1.04688-.11719c-.15625,0-.25195.04492-.28613.13574a5.22956,5.22956,0,0,0-.10254.91895l-.00684.13183-.4541-.08789V166.919l5.92578,1.18066a3.55285,3.55285,0,0,0,.61914.07324.51454.51454,0,0,0,.38282-.12793.529.529,0,0,0,.125-.38476q0-1.188-3.44825-3.63574l-3.60449-.71875Z"/><path d="M3.64909,173.60548a2.43626,2.43626,0,0,1,.68945-1.88965,2.962,2.962,0,0,1,2.05957-.62988,5.74671,5.74671,0,0,1,3.88965,1.46484,4.39162,4.39162,0,0,1,1.68164,3.3916,2.5238,2.5238,0,0,1-.68457,1.92969,2.91769,2.91769,0,0,1-2.05664.64063,5.717,5.717,0,0,1-3.89941-1.4795A4.45561,4.45561,0,0,1,3.64909,173.60548Zm.55664.374q0,1.16308,1.54785,2.05078a7.04819,7.04819,0,0,0,3.5625.88575,2.94786,2.94786,0,0,0,1.57324-.33692,1.12787,1.12787,0,0,0,.52344-1.01758q0-1.13672-1.583-2.01464A7.37,7.37,0,0,0,6.193,172.668a2.553,2.553,0,0,0-1.43359.36621A1.09584,1.09584,0,0,0,4.20573,173.9795Z"/><line class="cls-2" x1="31.85375" x2="31.85375" y2="251.00049"/><line class="cls-2" x1="85.85375" x2="85.85375" y2="251.00049"/></svg>