<svg id="圖層_1" data-name="圖層 1" xmlns="http://www.w3.org/2000/svg" viewBox="0 0 22.16797 267.85134"><defs><style>.cls-1{fill:#040000;}.cls-2{fill:none;stroke:#040000;stroke-miterlimit:10;}</style></defs><path class="cls-1" d="M4.30078,4.111h14.959a3.65216,3.65216,0,0,0,1.81347-.25293q.29736-.25194.3877-1.61132l.01172-.21387H22.168v4.291H14.35059a5.94152,5.94152,0,0,1,1.92187,1.90332,4.5669,4.5669,0,0,1,.63965,2.38575,3.90625,3.90625,0,0,1-1.62891,3.291,7.1338,7.1338,0,0,1-4.38476,1.22461,7.88513,7.88513,0,0,1-4.90039-1.4043A4.4563,4.4563,0,0,1,4.1543,9.99575a4.77607,4.77607,0,0,1,.416-1.98828,5.19312,5.19312,0,0,1,1.2461-1.6836V6.18911L4.30078,5.90786ZM6.69434,6.32387A7.56188,7.56188,0,0,0,5.71582,8.0563a4.577,4.577,0,0,0-.32519,1.65332,2.5397,2.5397,0,0,0,1.2246,2.30664,7.05924,7.05924,0,0,0,3.67676.76465,8.05519,8.05519,0,0,0,3.89551-.74219,2.41893,2.41893,0,0,0,1.29883-2.23926,3.80607,3.80607,0,0,0-.47754-1.86719,5.32587,5.32587,0,0,0-1.43359-1.6084Z"/><path class="cls-1" d="M6.10352,25.028A5.702,5.702,0,0,1,4.1543,21.11684a3.60144,3.60144,0,0,1,.98437-2.585A3.2664,3.2664,0,0,1,7.60742,17.4977a3.437,3.437,0,0,1,2.8125,1.34766q1.23633,1.53809,1.23633,5.21094v.46093h1.5166q2.88574,0,2.88574-2.19043a2.8059,2.8059,0,0,0-.6289-1.80761,2.32336,2.32336,0,0,0-1.56055-.584l-.21289-.01172V18.4186h2.23438a10.87693,10.87693,0,0,1,1.02148,4.335q0,3.97558-3.65234,3.97559H7.81836a5.81477,5.81477,0,0,0-2.05664.25293.89027.89027,0,0,0-.5957.88086,2.34837,2.34837,0,0,0,.10156.5957l-.832.06738a4.34617,4.34617,0,0,1-.28125-1.42676Q4.1543,25.4645,6.10352,25.028Zm.252-.51075h4.61621v-.51757a5.05939,5.05939,0,0,0-.81152-3.05469,2.6247,2.6247,0,0,0-2.2334-1.09961,2.40933,2.40933,0,0,0-1.75879.68457,2.29018,2.29018,0,0,0-.69922,1.707A4.29668,4.29668,0,0,0,6.35547,24.51723Z"/><path class="cls-1" d="M4.85156,39.39712a9.22548,9.22548,0,0,1-.69726-3.42481,5.64862,5.64862,0,0,1,1.78711-4.33594,6.56605,6.56605,0,0,1,4.65429-1.66211,6.48742,6.48742,0,0,1,4.5918,1.60059,5.535,5.535,0,0,1,1.72461,4.2627,15.46342,15.46342,0,0,1-.54981,3.55957H13.45313V38.01528l.20312-.01074q2.51514,0,2.51563-2.21192A2.91636,2.91636,0,0,0,14.71,33.237a7.19605,7.19605,0,0,0-3.957-.94824,6.48285,6.48285,0,0,0-4.02441,1.123,3.63355,3.63355,0,0,0-1.47266,3.05469,7.1874,7.1874,0,0,0,.56055,2.93067Z"/><path class="cls-1" d="M10.43262,45.27016H7.34375a4.02683,4.02683,0,0,0-1.81348.23047q-.30907.23-.38769,1.36524l-.01074.21289H4.43555V40.9811h.69629l.01074.21289q.09082,1.35938.38769,1.61133a3.655,3.655,0,0,0,1.81348.25293h11.916a3.65228,3.65228,0,0,0,1.81347-.25293q.29736-.252.3877-1.61133l.01172-.21289H22.168v4.28906H10.98242v.52832l2.71875,2.83008a15.64724,15.64724,0,0,0,1.98731,1.81934q.2124,0,.23047-.61719c.01074-.41211.0166-.69727.0166-.85352v-.23632h.69629V53.4938h-.69629l-.01172-.21289a3.93622,3.93622,0,0,0-.28711-1.52149,24.626,24.626,0,0,0-1.96-2.10742l-2.09863-2.13574L7.27539,51.17739a17.6276,17.6276,0,0,0-1.82422,1.74609,2.499,2.499,0,0,0-.30859,1.2295l-.01074.21386H4.43555V50.942l5.99707-5.14356Z"/><path class="cls-1" d="M4.50293,69.45083a4.225,4.225,0,0,1-.34863-1.60645,3.67244,3.67244,0,0,1,.97754-2.83594,4.52361,4.52361,0,0,1,3.11035-.89257h7.48047V62.319h.90918v1.79688h2.21191l.55078,2.21191H16.63184V69.7311h-.90918V66.32778H7.95117a4.41919,4.41919,0,0,0-2.23535.417,1.546,1.546,0,0,0-.66309,1.4209,3.19254,3.19254,0,0,0,.34864,1.28516Z"/><path class="cls-1" d="M4.1543,77.28872a5.47249,5.47249,0,0,1,1.71484-4.25684,6.67174,6.67174,0,0,1,4.66992-1.56152,6.654,6.654,0,0,1,4.665,1.56152,6.16471,6.16471,0,0,1,0,8.51856,6.66924,6.66924,0,0,1-4.665,1.55468,6.67132,6.67132,0,0,1-4.66992-1.56054A5.47036,5.47036,0,0,1,4.1543,77.28872Zm.68554-.00586a2.88374,2.88374,0,0,0,1.61524,2.48535,7.68236,7.68236,0,0,0,4.07812.99023,7.70082,7.70082,0,0,0,4.06836-.99023,2.70425,2.70425,0,0,0,0-4.96A7.70082,7.70082,0,0,0,10.5332,73.818a7.71858,7.71858,0,0,0-4.07812.98438A2.87231,2.87231,0,0,0,4.83984,77.28286Z"/><path class="cls-1" d="M4.50293,99.31216a4.225,4.225,0,0,1-.34863-1.60645,3.67244,3.67244,0,0,1,.97754-2.83594,4.52361,4.52361,0,0,1,3.11035-.89258h7.48047V92.18032h.90918v1.79687h2.21191l.55078,2.21192H16.63184v3.40332h-.90918V96.18911H7.95117a4.41919,4.41919,0,0,0-2.23535.417,1.546,1.546,0,0,0-.66309,1.4209,3.19254,3.19254,0,0,0,.34864,1.28516Z"/><path class="cls-1" d="M4.1543,107.151a5.47246,5.47246,0,0,1,1.71484-4.25683,6.6717,6.6717,0,0,1,4.66992-1.56153,6.65393,6.65393,0,0,1,4.665,1.56153,6.16469,6.16469,0,0,1,0,8.51855,6.66925,6.66925,0,0,1-4.665,1.55469,6.67128,6.67128,0,0,1-4.66992-1.56055A5.47033,5.47033,0,0,1,4.1543,107.151Zm.68554-.00586a2.88373,2.88373,0,0,0,1.61524,2.48535,7.68236,7.68236,0,0,0,4.07812.99024,7.70082,7.70082,0,0,0,4.06836-.99024,2.70425,2.70425,0,0,0,0-4.96,7.70091,7.70091,0,0,0-4.06836-.99023,7.71858,7.71858,0,0,0-4.07812.98437A2.87232,2.87232,0,0,0,4.83984,107.14516Z"/><path class="cls-1" d="M5.81738,118.78481H2.9082a3.70518,3.70518,0,0,0-1.81347.2461Q.80762,119.277.707,120.651l-.01172.21192H0v-6.36719H.69531l.01172.21289A2.846,2.846,0,0,0,1.09961,116.32a3.61976,3.61976,0,0,0,1.80859.25293H13.72266a3.61708,3.61708,0,0,0,1.80859-.25293,2.83764,2.83764,0,0,0,.39258-1.61133l.01172-.21289h.69629v4.28906H14.35059a5.83211,5.83211,0,0,1,1.92187,1.83106,4.26529,4.26529,0,0,1,.63965,2.29492,3.71018,3.71018,0,0,1-1.62891,3.165,7.34118,7.34118,0,0,1-4.38476,1.17773A8.10652,8.10652,0,0,1,5.99805,125.903,4.2335,4.2335,0,0,1,4.1543,122.317a4.44432,4.44432,0,0,1,.416-1.91211A5.02782,5.02782,0,0,1,5.81738,118.78481Zm.877,0a7.12707,7.12707,0,0,0-.97852,1.64258,4.14336,4.14336,0,0,0-.32519,1.56738,2.37878,2.37878,0,0,0,1.2246,2.18653,7.391,7.391,0,0,0,3.67676.72461,8.41622,8.41622,0,0,0,3.89551-.70411,2.27317,2.27317,0,0,0,1.29883-2.12207,3.46017,3.46017,0,0,0-.47754-1.76953,5.16617,5.16617,0,0,0-1.43359-1.52539Z"/><polyline class="cls-2" points="4.436 267.851 4.436 150.767 16.698 159.767"/></svg>