<svg id="編排稿" xmlns="http://www.w3.org/2000/svg" viewBox="0 0 24.97 24.97"><defs><style>.cls-1{fill:#7a7a7a;}.cls-2{fill:#fff;fill-rule:evenodd;}</style></defs><title>kyotokimono REMAKE-RWD</title><path class="cls-1" d="M25,12.57A12.5,12.5,0,1,1,12.5.06,12.5,12.5,0,0,1,25,12.57Z"/><path class="cls-2" d="M17.47,5.82H7.53A1.6,1.6,0,0,0,5.74,7.63v9.91a1.59,1.59,0,0,0,1.73,1.77h10a1.61,1.61,0,0,0,1.79-1.79V7.59A1.6,1.6,0,0,0,17.47,5.82ZM16.38,7.34c1.34,0,1.34,0,1.34,1.34S17.72,10,16.4,10s-1.33,0-1.33-1.33S15.07,7.34,16.38,7.34Zm-3.87,2.6a2.62,2.62,0,1,1-2.64,2.59A2.69,2.69,0,0,1,12.51,9.94Zm5.21,7c0,.63-.18.81-.81.81H8.08c-.62,0-.79-.18-.79-.81,0-1.62,0-3.27,0-4.92,0-.46.13-.57.56-.55.62,0,.63,0,.56.62a4.14,4.14,0,1,0,8.18-.32c0-.24,0-.28.22-.28.94-.07.94-.09.94.88Z"/></svg>