<svg id="圖層_1" data-name="圖層 1" xmlns="http://www.w3.org/2000/svg" viewBox="0 0 54.05881 329.88496"><defs><style>.cls-1{fill:#a8d1cc;opacity:0.3;}.cls-2{fill:#4f4f4f;}</style></defs><title>b01</title><rect class="cls-1" width="40.05882" height="329.88496"/><path class="cls-2" d="M36.53147,50.1026a26.58,26.58,0,0,1-8.33984,12.08594l-.53321-.51953A28.38044,28.38044,0,0,0,34.385,51.2237a46.76529,46.76529,0,0,0,1.8457-6.89063H28.08225l-.23242-.69726h8.49023q.3545-1.85889.69727-5.60547,2.91212.38232,2.91211.92968,0,.38234-1.20313.752-.21972,1.38135-.4375,2.8164-.16405,1.01221-.17773,1.10743H48.60374L50.176,41.5987a18.11353,18.11353,0,0,1,2.14649,2.14648l-.27344.58789H37.99436q-.57421,2.84327-1.12109,4.62109h9.24218l1.09375-1.33984q1.79,1.40772,1.791,1.90039c0,.11817-.10547.23731-.31445.35547l-.752.39648a29.62424,29.62424,0,0,1-4.73046,6.248,26.864,26.864,0,0,0,9.43359,4.53906,5.418,5.418,0,0,0-1.4082,1.668,27.94319,27.94319,0,0,1-9.0918-5.14062.46423.46423,0,0,1-.16406.16406,26.26759,26.26759,0,0,1-10.22657,5.23633l-.36914-.61524a25.99822,25.99822,0,0,0,9.55664-5.93359A26.58037,26.58037,0,0,1,36.53147,50.1026Zm5.44141,5.34571a27.86673,27.86673,0,0,0,4.25195-5.79688H37.25608A23.84209,23.84209,0,0,0,41.97288,55.44831Z"/><path class="cls-2" d="M33.12717,85.34186a6.87321,6.87321,0,0,0,3.95118,2.74805,28.9554,28.9554,0,0,0,7.86132.80664q3.5127,0,7.82032-.36914a5.05422,5.05422,0,0,0-.73829,1.81836H45.44553q-6.35742,0-9.16015-1.14844a6.86427,6.86427,0,0,1-3.66407-3.10352,46.19789,46.19789,0,0,1-2.99414,3.80078q0,1.12061-.36914,1.1211-.61523,0-1.73633-2.11914a32.66979,32.66979,0,0,0,4.03321-2.83008V78.50592H27.79514l-.27344-.69726h3.77344l1.09375-1.3125q1.667,1.35351,1.668,1.73633,0,.16406-.25976.32812l-.66993.42383Zm-4.1289-18.32031q4.292,2.00976,4.293,4.22461,0,1.09423-1.03907,1.09375-.62988,0-.916-.916a8.842,8.842,0,0,0-2.77539-3.89648ZM43.84592,77.46686v2.51563h4.08789l1.23047-1.50391q1.05176.99756,1.68164,1.72266l-.28711.47851H43.84592v2.87109h5.5918l1.27148-1.57226a18.48193,18.48193,0,0,1,1.81836,1.791l-.28711.47852H43.84592v3.418H42.19163v-3.418H34.79514l-.35547-.69727h7.752V80.67975H36.20335l-.3418-.69726h6.33008V77.46686H35.16428l-.31445-.69727h4.93555a1.16223,1.16223,0,0,1-.45118-.793,4.29862,4.29862,0,0,0-1.46289-2.37891l.39649-.50586q2.83008,1.3125,2.83008,2.80273a.94883.94883,0,0,1-.56055.875H44.4885A17.57086,17.57086,0,0,0,45.883,73.06452H34.7678l-.30078-.69727h7.752V69.71491H35.8342l-.31445-.69727H42.219V65.79108q2.80224.09522,2.80273.73828,0,.38232-1.20312.752v1.73633h4.30664l1.14844-1.57226a14.19358,14.19358,0,0,1,1.627,1.791l-.31445.47852H43.81858v2.65234h5.50977l1.17578-1.50391a15.83792,15.83792,0,0,1,1.709,1.72266l-.27344.47852H45.91038q2.269.86133,2.26953,1.35351,0,.3003-1.1211.38281a15.73155,15.73155,0,0,1-1.61328,1.96875H49.1096l1.25781-1.57226a3.63547,3.63547,0,0,1,.36914.3418A11.12,11.12,0,0,1,51.99436,76.961l-.28711.50586Z"/><path class="cls-2" d="M32.66233,105.06256a36.78724,36.78724,0,0,1-.875,6.49414,18.28987,18.28987,0,0,1-3.89648,7.45118l-.57422-.4375q3.77343-5.63234,3.77343-15.96875V99.88092H27.69944l-.21875-.69726h4.70312V93.94733q2.74806.123,2.748.72461,0,.34131-1.17578.76562v3.7461H35.7385l1.24414-1.73633a14.88344,14.88344,0,0,1,1.668,1.87305l-.32812.56054H32.717v2.748q0,1.3125-.02735,1.73633h2.93946l.957-1.20313q1.626,1.36671,1.627,1.76367c0,.06348-.05957.13672-.17773.21875l-.69727.42383q-.041,9.54346-1.20312,11.82617a2.53917,2.53917,0,0,1-2.59766,1.33985,1.38917,1.38917,0,0,0-.71094-1.20313,7.81879,7.81879,0,0,0-1.92773-.56054v-.72461a16.034,16.034,0,0,0,2.59765.24609,1.38313,1.38313,0,0,0,1.49024-1.12109,48.98066,48.98066,0,0,0,.84765-10.3086ZM41.09788,99.211a17.38486,17.38486,0,0,1-3.17188,4.19727l-.5332-.45118a22.1166,22.1166,0,0,0,3.81445-9.17382q2.6792.42333,2.67969,1.01172,0,.36913-1.17578.58789a21.62381,21.62381,0,0,1-1.25781,3.13086h7.875l1.33984-1.81836a17.98837,17.98837,0,0,1,1.90039,1.98242l-.30078.5332Zm3.52734,5.209q-.54784.20507-1.59961.58789v14.02734h-1.627V105.54108l-.39649.10937q-.68407.21826-2.59765.72461l-.39649-.64257a29.14724,29.14724,0,0,0,11.03321-5.5918q1.79,1.20264,1.791,1.709,0,.27393-.5332.27344a3.87637,3.87637,0,0,1-.86133-.10937,27.23641,27.23641,0,0,1-4.00586,2.09179l.05469.31446a22.718,22.718,0,0,0,1.59961,5.66015,32.738,32.738,0,0,0,3.1582-4.62109q1.88671,1.24365,1.88672,1.791c0,.2002-.21484.30078-.64258.30078a3.66728,3.66728,0,0,1-.50586-.02734,22.83566,22.83566,0,0,1-3.582,3.25391,17.56388,17.56388,0,0,0,5.373,6.30273,5.96014,5.96014,0,0,0-1.57227,1.44922Q45.50022,113.33355,44.62522,104.42Z"/><path class="cls-2" d="M33.3596,133.42975q1.43555.24609,1.43554.69727,0,.31494-1.0664.69726v12.209h-1.627V135.0567a27.00925,27.00925,0,0,1-4.334,4.14258l-.50586-.50586A33.52515,33.52515,0,0,0,34.71311,127.879q2.2002.91552,2.20117,1.49023,0,.41016-1.25781.41016A29.87913,29.87913,0,0,1,33.3596,133.42975Zm-5.82422-3.47266a27.65166,27.65166,0,0,0,6.86328-7.69726q2.07714.97119,2.07812,1.51758,0,.35595-1.35351.35547a21.76523,21.76523,0,0,1-7.13672,6.38476Zm19.6875,2.72071v11.8125q0,2.25585-2.93946,2.21484a1.32372,1.32372,0,0,0-.98437-1.17578,27.60553,27.60553,0,0,0-3.10352-.61523v-.752a37.767,37.767,0,0,0,4.2793.2461q1.1206,0,1.12109-.88868V132.6778H36.44944l-.25977-.69727H48.93186l1.54492-1.92773a18.4796,18.4796,0,0,1,2.00977,2.09179l-.31445.53321Zm.39648-7.82031,1.54492-1.873a22.22226,22.22226,0,0,1,2.00977,2.02344l-.3418.54687H37.844l-.27344-.69726Z"/><path class="cls-2" d="M47.07249,173.5401H35.71116V175.044H34.11155v-9.39258a21.46891,21.46891,0,0,1-6.33008,5.61914L27.3303,170.71a21.816,21.816,0,0,0,7.58789-9.584H28.13694l-.35547-.69727h11.334V157.5987h-8.627l-.35547-.69727h8.98242v-2.625H29.258l-.30078-.69727H42.13694l.10937-.1914a20.00935,20.00935,0,0,0,1.94141-3.86914q2.4331.88916,2.43359,1.43554,0,.38233-1.25781.38282a15.31091,15.31091,0,0,1-2.24219,2.24218h5.04493l1.33984-1.5996a13.07027,13.07027,0,0,1,1.68164,1.76367l-.31445.5332H40.71506v2.625h6.28907l1.18945-1.50391a12.96635,12.96635,0,0,1,1.68164,1.69532l-.3418.50586H40.71506v2.83007h8.47657l1.35351-1.65429a19.53768,19.53768,0,0,1,1.873,1.81836l-.3418.5332H36.7092l-.10937.28711a20.51377,20.51377,0,0,1-1.01172,1.96875l.15039.05469a1.558,1.558,0,0,0,.19141.082H46.81272l1.06641-1.24414q1.77685,1.23046,1.77734,1.668,0,.19189-.28711.35546l-.69726.45118V175.044H47.07249Zm-13.0293-23.85742q3.67675.88916,3.67773,2.69336a1.00457,1.00457,0,0,1-.45117.84766.9389.9389,0,0,1-.58789.24609q-.61524,0-.875-.90234a4.12231,4.12231,0,0,0-2.03711-2.37891ZM47.07249,166.376v-2.16016H35.71116V166.376Zm0,3.10352v-2.40625H35.71116v2.40625Zm0,3.36328v-2.666H35.71116v2.666Z"/><path class="cls-2" d="M33.6467,185.20709v6.65821q2.51514-.65625,4.2793-1.23047l.123.69726q-2.748,1.10744-4.32031,1.68165l-.16407.082v9.93945H31.96506v-9.37891q-1.55859.50538-3.02148.92969-.123.99756-.47852.998-.561,0-1.23046-2.40625,2.4873-.38233,4.8125-.916v-7.05469H29.80491a25.27128,25.27128,0,0,1-1.84571,6.01563l-.64257-.24609a43.24392,43.24392,0,0,0,1.39453-11.42969q2.52831.13623,2.52929.71094,0,.30028-.92968.64257a30.97432,30.97432,0,0,1-.39649,3.60938H32.0471v-6.57617q2.69238.041,2.69335.64258,0,.34129-1.09375.80664v5.12695h1.44922l1.2168-1.791a14.28634,14.28634,0,0,1,1.50391,2.00977l-.30078.47851Zm14.082-.82031a31.21593,31.21593,0,0,1-2.35157,8.59961,21.63686,21.63686,0,0,1-8.51757,9.24219l-.50586-.5332q8.13427-5.86524,9.77539-17.3086H43.99631a20.14774,20.14774,0,0,1-8.02539,12.41406l-.47851-.50585A21.69946,21.69946,0,0,0,42.383,184.38678H40.1135a22.974,22.974,0,0,1-3.65039,5.9336l-.58789-.38282a28.58737,28.58737,0,0,0,4.34766-12.07226q2.56933.46436,2.57031,1.0664,0,.32813-1.06641.58789a30.27666,30.27666,0,0,1-1.33984,4.16993H49.5471l1.01171-1.3125q1.708,1.32568,1.709,1.791c0,.14551-.10547.27344-.31445.38281l-.64258.36915q-.041,12.29149-1.36719,15.85937a3.23672,3.23672,0,0,1-3.44531,2.0918,1.20947,1.20947,0,0,0-.92969-1.20313,18.3269,18.3269,0,0,0-2.93945-.72461v-.75195a26.794,26.794,0,0,0,4.00586.35547,1.776,1.776,0,0,0,1.92773-1.23047q1.13379-3.65038,1.17578-14.92969Z"/><path class="cls-2" d="M31.18577,210.45807a5.6887,5.6887,0,0,0,1.46289,1.05274,3.18033,3.18033,0,0,0,1.3125.24609q1.03857,0,4.64844-.25977,3.9375-.27392,6.82226-.64257a2.55,2.55,0,0,0,1.29883-.50586.91221.91221,0,0,1,.51953-.19141q.39551,0,1.29883.88867.77929.79248.7793,1.2168,0,.25928-.56055.66992a3.06248,3.06248,0,0,0-.7793,1.33984,26.96881,26.96881,0,0,1-5.07226,8.709,26.04731,26.04731,0,0,1-9.4336,6.28906l-.45117-.69726a25.43525,25.43525,0,0,0,9.48828-7.72461,25.10352,25.10352,0,0,0,4.0332-8.87305q-5.38769.50536-10.63671,1.17578a5.8195,5.8195,0,0,0-1.76368.45117,1.93353,1.93353,0,0,1-.86132.16406,2.16324,2.16324,0,0,1-1.42188-.88867,8.646,8.646,0,0,1-1.29883-1.9414Zm19.8789-5.1543a2.74641,2.74641,0,0,1,2.72071,2.72071,2.72995,2.72995,0,0,1-4.75782,1.8457,2.675,2.675,0,0,1-.71093-1.8457,2.58636,2.58636,0,0,1,.90234-2.00977A2.67955,2.67955,0,0,1,51.06467,205.30377Zm0,.90235a1.77875,1.77875,0,0,0-1.36718.61523,1.72058,1.72058,0,0,0-.47852,1.20313,1.86131,1.86131,0,0,0,1.8457,1.8457,1.72626,1.72626,0,0,0,1.33985-.61523,1.79035,1.79035,0,0,0,.47851-1.23047,1.86284,1.86284,0,0,0-1.81836-1.81836Z"/><path class="cls-2" d="M31.54124,239.50983a4.45844,4.45844,0,0,0,1.36718.90234,3.78208,3.78208,0,0,0,1.29883.19141q1.20264,0,3.77344-.19141,4.44286-.34131,7.082-.56054a3.15766,3.15766,0,0,0,1.49023-.42383.99848.99848,0,0,1,.53321-.21875q.41016,0,1.12109.752a1.97265,1.97265,0,0,1,.66992,1.17578q0,.34131-.50586.58789a1.98694,1.98694,0,0,0-.69726,1.01172,22.83434,22.83434,0,0,1-5.332,7.834,21.57063,21.57063,0,0,1-7.54688,4.34765l-.39648-.72461a20.34052,20.34052,0,0,0,11.75781-13.19336q-4.40332.31494-9.7207.916a8.28724,8.28724,0,0,0-2.03711.39648,2.79032,2.79032,0,0,1-.80664.16407,2.29844,2.29844,0,0,1-1.49024-.834A5.27763,5.27763,0,0,1,30.926,239.961Zm2.543-5.83789a4.73259,4.73259,0,0,0,2.93946.88867q1.07958,0,2.3789-.082,1.59961-.09522,2.584-.21875a4.59435,4.59435,0,0,0,1.53125-.39649,1.62552,1.62552,0,0,1,.84765-.24609,2.48071,2.48071,0,0,1,1.40821.41016q.51855.32813.51953.71093,0,.77931-.834.7793-.58886,0-1.81835.05469-2.32471.09522-6.52149.45117l-.58789.05469-.68359.082q-1.08107,0-2.32422-1.95508Z"/><path class="cls-2" d="M31.85569,258.54694a11.68975,11.68975,0,0,1,4.8125,2.43359,3.16436,3.16436,0,0,1,1.23047,2.1875q0,1.42236-1.06641,1.42188-.46582,0-1.12109-1.09375a12.3394,12.3394,0,0,0-4.22461-4.2793Zm.41016,15.17578q.75146,1.12061,1.54492,1.12109a6.52492,6.52492,0,0,0,2.69336-.92968,37.6299,37.6299,0,0,0,14.13672-12.45508l.64257.56054a33.453,33.453,0,0,1-6.05664,7.875,39.90585,39.90585,0,0,1-8.08008,5.72852,16.714,16.714,0,0,0-1.96875,1.17578,1.8597,1.8597,0,0,1-1.28515.45117q-.4248,0-1.16211-.94336a7.11349,7.11349,0,0,1-1.10742-2.14648Z"/></svg>