<svg id="圖層_1" data-name="圖層 1" xmlns="http://www.w3.org/2000/svg" xmlns:xlink="http://www.w3.org/1999/xlink" viewBox="0 0 518.2993 148.3534"><defs><style>.cls-1{fill:none;}.cls-2{fill:#feffff;}.cls-3{fill:#eb6d52;}.cls-4{opacity:0.4;fill:url(#Nueva_muestra_de_motivo_16);}.cls-5{mask:url(#mask);}.cls-6{fill:#323232;}.cls-7{clip-path:url(#clip-path);}.cls-8{opacity:0.5;}.cls-9{clip-path:url(#clip-path-2);}.cls-10,.cls-11{fill:#fff;}.cls-10{fill-rule:evenodd;}.cls-12{filter:url(#luminosity-noclip);}</style><pattern id="Nueva_muestra_de_motivo_16" data-name="Nueva muestra de motivo 16" width="60.571" height="73.4858" patternTransform="translate(39.861 69.5426)" patternUnits="userSpaceOnUse" viewBox="0 0 60.571 73.486"><rect class="cls-1" width="60.571" height="73.4858"/><path class="cls-1" d="M15.2089,28.1929a.376.376,0,0,1-.3232.207A17.1188,17.1188,0,0,0,.84448,36.3967a17.73664,17.73664,0,0,1,14.986,9.6194c5.522-.0522,11.2393,3.2539,14.4546,8.3672a17.86426,17.86426,0,0,1,14.4482-8.3535,17.73711,17.73711,0,0,1,15.3676-9.6459c-2.7692-4.3931-8.0342-8.4534-13.9921-7.985a.38054.38054,0,0,1-.3647-.206,17.06129,17.06129,0,0,0-30.5352,0Z"/><path class="cls-2" d="M3.65643,0A17.74989,17.74989,0,0,1,15.8305,9.2735c5.562-.0337,11.2398,3.2534,14.4551,8.3671A17.86163,17.86163,0,0,1,44.7333,9.2871,17.75009,17.75009,0,0,1,56.9148,0H60.571V.375h-.0003a17.00353,17.00353,0,0,0-15.268,9.4463.37469.37469,0,0,1-.3228.207,17.1183,17.1183,0,0,0-14.0326,7.9845,17.73551,17.73551,0,0,1,15.3539,9.621c6.0411-.3518,11.3732,3.6676,14.2698,8.0927v1.3912h-.0003a17.00335,17.00335,0,0,0-15.268,9.4463.37488.37488,0,0,1-.3228.207,17.11937,17.11937,0,0,0-14.0326,7.9845,17.73673,17.73673,0,0,1,15.3539,9.621c6.0515-.358,11.3745,3.66815,14.2698,8.09259V73.4858H56.9148a17.96514,17.96514,0,0,1,3.1865-.35876c-2.769-4.39252-8.0411-8.45063-13.9925-7.98542a.38683.38683,0,0,1-.3647-.20605,17.06172,17.06172,0,0,0-30.5357,0,.37456.37456,0,0,1-.3227.207A17.11847,17.11847,0,0,0,.84454,73.13991a17.94091,17.94091,0,0,1,2.81189.34589H0V72.47158c.0625.09528.13013.18671.19086.28332A17.86183,17.86183,0,0,1,14.6391,64.40139a17.7351,17.7351,0,0,1,14.9911-9.633c-3.1244-4.9587-8.6661-8.1691-14.0165-7.9974a.38917.38917,0,0,1-.3457-.207A17.00331,17.00331,0,0,0,0,37.1177V35.729c.06232.0951.12976.1864.19037.2827a17.86417,17.86417,0,0,1,14.44873-8.353,17.73391,17.73391,0,0,1,14.9913-9.633c-3.1269-4.9599-8.7041-8.1824-14.0162-7.9974a.3501.3501,0,0,1-.3462-.207A17.00349,17.00349,0,0,0,0,.375V0ZM30.4765,18.7466a17.00064,17.00064,0,0,0-15.2676,9.4463.376.376,0,0,1-.3232.207A17.1188,17.1188,0,0,0,.84448,36.3967a17.73664,17.73664,0,0,1,14.986,9.6194c5.522-.0522,11.2393,3.2539,14.4546,8.3672a17.86426,17.86426,0,0,1,14.4482-8.3535,17.73711,17.73711,0,0,1,15.3676-9.6459c-2.7692-4.3931-8.0342-8.4534-13.9921-7.985a.38054.38054,0,0,1-.3647-.206A17.00175,17.00175,0,0,0,30.4765,18.7466Z"/></pattern><filter id="luminosity-noclip" x="-0.4076" y="-0.21156" width="518.91399" height="150.8236" filterUnits="userSpaceOnUse" color-interpolation-filters="sRGB"><feFlood flood-color="#fff" result="bg"/><feBlend in="SourceGraphic" in2="bg"/></filter><mask id="mask" x="-0.4076" y="-0.21156" width="518.91399" height="150.8236" maskUnits="userSpaceOnUse"><g class="cls-12"><path d="M112.9065,40.714a1.009,1.009,0,0,1,.2955,1.48707l-2.7806,3.76943a.64611.64611,0,0,1-1.1862-.0935s-.7514-1.4491-.3807-2.0171a13.40668,13.40668,0,0,1,3.5763-3.1387A.45834.45834,0,0,1,112.9065,40.714Z"/><path d="M65.8261,125.9508a1.22868,1.22868,0,0,1,.2376-1.9702,7.94936,7.94936,0,0,1,2.3902-1.03553c.4169-.04447,1.3043,1.06783,1.3831,1.72693a35.45993,35.45993,0,0,1,.1874,4.0208c-.0131.8657-.5163,1.0647-1.1182.4424Z"/><path d="M103.8183,86.2548c1.1643-.0611,1.178.0568.0303.262,0,0-3.7836.6764-3.804.7027-1.7675,2.2767-3.9981,5.1589-3.9981,5.1589-.7136.9222-1.1559.7331-.9828-.4198a23.53211,23.53211,0,0,1,1.2781-4.7442C96.5827,86.6344,103.8183,86.2548,103.8183,86.2548Z"/><path d="M114.7042,56.41007a2.58367,2.58367,0,0,1-2.7965.21543s-1.623-.9818-1.5241-1.2657a9.93875,9.93875,0,0,1,1.2148-2.3581,1.33162,1.33162,0,0,1,2.16-.0923,25.926,25.926,0,0,1,1.9066,2.5102C115.7433,55.5385,114.7042,56.41007,114.7042,56.41007Z"/><path d="M43.0952,139.9725a2.15638,2.15638,0,0,1,.3253-2.8502,24.24624,24.24624,0,0,1,3.2236-2.3204.67377.67377,0,0,1,.7231.0036,2.068,2.068,0,0,1,.4648,2.784l-2.0242,2.97557c-.6037.88793-1.2914,1.34963-1.5279,1.02643C44.0432,141.2682,43.0952,139.9725,43.0952,139.9725Z"/><path d="M53.8163,73.3143a1.23124,1.23124,0,0,1-.4398,1.349l-1.4778,1.0113c-.4061.2777-.85.3461-.9863.1516l.0453-.1009c.6839-1.5223,1.7228-3.7344,1.7228-3.7344.2092-.4455.5146-.4303.6791.0335Z"/><path d="M103.8324,133.3532c-.6766-.6384-.4713-1.2198.4562-1.292a.85694.85694,0,0,1,.5263.1803c1.8816,1.3794,4.2217,3.2205,4.2217,3.2205a1.22612,1.22612,0,0,1-.0304,2.0516s-.2641.1954-.4631.0352C106.7235,136.0822,103.8324,133.3532,103.8324,133.3532Z"/><path d="M64.0916,10.35777c.1016.0467.0705.1843-.0687.3056l-.7924.69c-.1392.121-.3024.1504-.3624.0647l.0087-.0077c.3865-.3484.7772-.6926,1.1789-1.0231Z"/><path d="M26.9622,112.0837a1.168,1.168,0,0,1-1.9416-.8987,1.43956,1.43956,0,0,1,.2473-.8411c1.011-1.6981,2.1706-3.2859,2.1706-3.2859a1.1791,1.1791,0,0,1,2.1481.1374s.7036,1.27867.2576,2.1034A10.22121,10.22121,0,0,1,26.9622,112.0837Z"/><path d="M17.1848,50.3723c-.3416-.2127-.542-.5751-.4456-.8047.0962-.2298.5395-.4927.8288-.2131,0,0,.4501.4349.9001.94057.027.03033-.3764.55523-.4315.52993A8.64225,8.64225,0,0,1,17.1848,50.3723Z"/><path d="M19.2079,80.6155c.3493.5718-.1239,1.2598-1.0512,1.529a20.04932,20.04932,0,0,1-2.3733.51857c-.1109.01563-.7556-1.55177-.5369-1.77147a8.06279,8.06279,0,0,1,1.3689-1.1528C17.4433,79.242,18.8588,80.0438,19.2079,80.6155Z"/><path d="M1.9367,125.4153c-.2497-.0463-.2883-.2097-.0858-.3629,0,0,.3406-.258.461-.2162a3.818,3.818,0,0,1,.6725.3135c.2161.1333.263.3237.1039.42337l-.1365-.01087C2.5717,125.5328,1.9367,125.4153,1.9367,125.4153Z"/><path d="M87.9386,93.1415a1.316,1.316,0,0,1-.2326-2.0923s.5096-.5254.814-.3933a4.84763,4.84763,0,0,1,2.0049,1.869c.1413.2259-.8579,1.5285-.9564,1.4848A12.69611,12.69611,0,0,1,87.9386,93.1415Z"/><path d="M98.1095,147.2367c-.4407-1.0835.0956-1.6369,1.1923-1.2294a22.60759,22.60759,0,0,1,3.3606,1.5634c.3951.2548.451,1.9469.2833,2.0126-.9799.3825-2.4839.9924-3.0341.5529A9.34359,9.34359,0,0,1,98.1095,147.2367Z"/><path d="M69.5983,97.6508a4.87753,4.87753,0,0,1,3.0199-.4126c.8346.2147,2.1624,1.37687,1.3257,2.1652l-.7977.0436a35.90935,35.90935,0,0,1-4.3384-.0691C67.6486,99.2798,68.7723,98.0922,69.5983,97.6508Z"/><path d="M45.6522,89.9827c.5586.6019.3563,1.2232-.4498,1.3806a7.68384,7.68384,0,0,1-2.127.1424c-.4012-.0885-1.0018-1.1315-.9289-1.2111.5395-.589,1.2359-1.4442,1.8628-1.428C44.6313,88.8827,45.6522,89.9827,45.6522,89.9827Z"/><path d="M84.7122,99.3283c-.2183.2554-.5081.3176-.6439.1382-.1357-.1796-.3206-.6646-.169-.7582a.88881.88881,0,0,1,.9033.1086l-.0133.2121A.54465.54465,0,0,1,84.7122,99.3283Z"/><path d="M117.3764,121.46507a1.39187,1.39187,0,0,1-2.4707-.83537,18.48232,18.48232,0,0,1-.3232-2.589c-.0111-.2162,1.8484-.8004,1.8983-.7074a7.13908,7.13908,0,0,1,1.1876,3.2014A1.27077,1.27077,0,0,1,117.3764,121.46507Z"/><path d="M34.7074,71.19c-.3795.267-.7798.3692-.89.227a1.1391,1.1391,0,0,1,.4662-1.151,8.03321,8.03321,0,0,1,.9814-.5845l.1228-.0638C35.7427,69.9693,35.0867,70.92307,34.7074,71.19Z"/><path d="M7.3177,19.2588a1.32972,1.32972,0,0,1-.1218-2.51993,23.12176,23.12176,0,0,1,3.4598-1.8028c.3985-.1508,1.9815,1.3688,1.8781,1.5921A15.31591,15.31591,0,0,1,9.9864,20.3463C9.8168,20.5328,7.3177,19.2588,7.3177,19.2588Z"/><path d="M6.1048,105.0337c-.3226.65937-.8652.6668-1.206.0166a.92.92,0,0,1-.0702-.6664,4.70718,4.70718,0,0,1,.4548-.9445c.4408-.5868,1.0385-.6536,1.3281-.1484l-.067.4045A5.65033,5.65033,0,0,1,6.1048,105.0337Z"/><path d="M1.7274,80.9215A1.38807,1.38807,0,0,1,.1171,79.6049l.0685-.01c1.1072-.1626,1.7667-.206,1.7667-.206a1.378,1.378,0,0,1,1.6049,1.1633l-.1425.037A13.71107,13.71107,0,0,1,1.7274,80.9215Z"/><path d="M126.9895,60.2855a1.22,1.22,0,0,1-1.9315-.37l-.3742-.8385a1.74747,1.74747,0,0,1,1.0186-.7112c.9784.0192,1.0272.0285,1.0272.0285C127.7755,58.59,127.5885,59.7253,126.9895,60.2855Z"/><path d="M108.2306,51.0997a1.51,1.51,0,0,1-2.7108.0362,1.87415,1.87415,0,0,1-.2101-1.15783l.0657-.75017a2.1356,2.1356,0,0,1,2.9152.025l.0816.7697A1.76426,1.76426,0,0,1,108.2306,51.0997Z"/><path d="M29.2201,106.3762c-1.027-.6075-1.1105-1.5993-.1853-2.2038l.3249.1558a10.23464,10.23464,0,0,1,1.3523.71687c.9544.71643,1.2827,1.78293.7296,2.37l-.2534-.09967A15.24315,15.24315,0,0,1,29.2201,106.3762Z"/><path d="M23.2264,126.9024a.94529.94529,0,0,1-1.598.3619,4.09338,4.09338,0,0,1-.5732-.7257l-.1104-.1664a1.5625,1.5625,0,0,1,1.7975-.3542l.4309.4384A.44543.44543,0,0,1,23.2264,126.9024Z"/><path d="M23.6722,27.007c-.3426-.8803.1124-1.3623,1.011-1.071,0,0,.0436.0143.1744.2896a14.17166,14.17166,0,0,1,.6094,1.4174c.2958.897-.002,1.6766-.6618,1.7328l-.1262-.2206A18.95913,18.95913,0,0,1,23.6722,27.007Z"/><path d="M98.6216,59.3034a1.01643,1.01643,0,0,1,.3215-1.2232,1.31859,1.31859,0,0,1,1.4891.95087l-.1396.66313-.1048.4966C99.6221,60.64207,98.7851,59.822,98.6216,59.3034Z"/><path d="M38.4033,103.8252c-.0515.0637-.1209.088-.154.0538a.10456.10456,0,0,1,.0488-.1541s.0601-.0316.1583-.0773c.0076-.0036.0496.0436.0476.0463C38.4407,103.7789,38.4033,103.8252,38.4033,103.8252Z"/><path d="M75.1742,144.2a1.18283,1.18283,0,0,1,1.755-.0451s.0028.0029-.0436.0724a3.14622,3.14622,0,0,1-1.0744,1.0423c-.132.07-.8414-.5219-.8012-.62953Z"/><path d="M79.3251,52.1247a1.9383,1.9383,0,0,1-2.5474,1.271l.0372-.1278a12.55622,12.55622,0,0,1,1.2203-2.7729,5.31968,5.31968,0,0,1,1.5184.6696Z"/><path d="M40.1415,87.992c-.0843-.5844.1137-1.1613.4404-1.2816.3265-.1208,1.2975.3845,1.4812,1.3722l-.1758.82447-.0905.42333C41.0397,89.6555,40.226,88.5763,40.1415,87.992Z"/><path d="M144.9609,58.7772a.72535.72535,0,0,1-1.0381-.4963l-.0395-.3867-.0091-.0878a.82693.82693,0,0,1,.9496.51567l.1195.39643Z"/><path d="M34.7202,33.8174a.89716.89716,0,0,1,.6932-1.2737l.3687.0492c.0951.0128.2662.709.1461.8241a1.52016,1.52016,0,0,1-1.0319.4108Z"/><path d="M120.041,21.6662c.0133.067-.0626.1502-.1693.185-.1064.0348-.3961-.0393-.4392-.2312l.0475-.0281.1493-.0882A.41223.41223,0,0,1,120.041,21.6662Z"/><path d="M4.095,41.8239c-.0344-.0193-.0391-.0783-.0104-.1311l.0059.0021a.67274.67274,0,0,1,.1676.0864l.008.006C4.2371,41.84407,4.1294,41.8432,4.095,41.8239Z"/><path d="M72.585,22.1214c-.8741,1.09267-1.8172.8644-2.0955-.5068a.9629.9629,0,0,1,.2351-.7112l.5568-.7437c.9525-.5631,1.9787-.4765,2.2805.193l-.1818.4026A6.96652,6.96652,0,0,1,72.585,22.1214Z"/><path d="M57.8847,74.9234a.71215.71215,0,0,1-1.069-.1149c-.2632-.3569-.5376-1.3416-.102-1.4997l.135.1291a5.82535,5.82535,0,0,1,.9987,1.4181Z"/><path d="M132.4104,131.9038a1.063,1.063,0,0,1-.2839,1.9612s-.1224.0516-.3634-.1311l-.555-.4211a1.50309,1.50309,0,0,1,.1331-1.9253l.2675.1115A3.74634,3.74634,0,0,1,132.4104,131.9038Z"/><path d="M68.1999,76.7656c-.1655.1779-.3711.1641-.4571-.0311l.0087-.1083c.006-.0773.1532-.21813.1845-.205.1109.04687.2816.1528.2769.2265A.475.475,0,0,1,68.1999,76.7656Z"/><path d="M122.4872,108.0294c-.1696.4733-.6901.4584-1.1566-.0332,0,0-.0307-.0323.0155-.171l.0951-.2863a.721.721,0,0,1,.9626-.02783l.0396.24583Z"/><path d="M1.1072,57.44507a.58453.58453,0,0,1-.9296-.013l.0102-.19117.0087-.1667a.77254.77254,0,0,1,.8621.0144l.0258.1887Z"/><path d="M1.0222,51.3994c.3527.1444.4953.4724.3172.7289a1.33491,1.33491,0,0,1-1.4091.3341l-.1846-.3574-.1533-.29693C-.2642,51.32007.6696,51.25507,1.0222,51.3994Z"/><path d="M109.8905,134.68107c-.135-.17037-.0677-.30657.1497-.30277,0,0,.0139.0005.082.0561l.0704.0576a.23619.23619,0,0,1-.1457.2804l-.0617-.0348A.76827.76827,0,0,1,109.8905,134.68107Z"/><path d="M146.2043,88.6916a.64389.64389,0,0,1-.5786.9569l-.1832-.14743-.1917-.15447a.822.822,0,0,1,.5294-.8728l.2079.1067Z"/><path d="M10.8164,62.5487c-.2048.1872-.6694.0416-1.0328-.3232l.0544-.1031.2194-.4144c.3669-.3897.7904-.5762.9413-.4145A1.6033,1.6033,0,0,1,10.8164,62.5487Z"/><path d="M.7706,88.9889a.46924.46924,0,0,1,.2673-.6251,1.2593,1.2593,0,0,1,1.3133.4809l-.1282.2463-.1654.3179A1.27359,1.27359,0,0,1,.7706,88.9889Z"/><path d="M42.4575,50.0138a.65719.65719,0,0,1-.8197-.08773A1.41024,1.41024,0,0,1,42.105,48.493l.49-.0316.2875-.0185A1.31424,1.31424,0,0,1,42.4575,50.0138Z"/><path d="M92.5907,68.8547c-.2833.1793-.78-.2-1.1039-.8427l.0737-.0578a2.87017,2.87017,0,0,1,1.3436-.6405l.1706-.0199A1.55416,1.55416,0,0,1,92.5907,68.8547Z"/><path d="M112.6669,88.9154a1.19325,1.19325,0,0,1-1.961-.1764l.065-.4456.0669-.4595a1.30017,1.30017,0,0,1,1.7967.1626l.0174.4939Z"/><path d="M123.4929,95.0859c-.5405,1.0455-1.4134,1.3036-1.9403.5731l-.0416-.4638c-.032-.3545.4171-1.05613.6672-1.06313a1.51626,1.51626,0,0,1,1.1842.69063Z"/><path d="M24.0967,88.4615a1.065,1.065,0,0,1,.0524-1.5937l.3459.0016.2827.0012a1.32458,1.32458,0,0,1-.0453,1.5252l-.3369.0348Z"/><path d="M114.6656,81.1046c-.5102.2399-1.0428.266-1.1838.058a1.00152,1.00152,0,0,1,.3967-1.1847l.4677-.11383c.0785-.01907.5226.70183.4317.94293Z"/><path d="M113.8668,105.073a.81859.81859,0,0,1,.3917-.8817,1.15906,1.15906,0,0,1,1.3477.8947l-.0771.6862-.0221.19587A1.71116,1.71116,0,0,1,113.8668,105.073Z"/><path d="M29.3397,70.3859a1.13075,1.13075,0,0,1-1.7324-.1423l-.0087-.424-.0059-.2877a1.46747,1.46747,0,0,1,1.6956.12717l.0273.38753Z"/><path d="M92.7251,74.5813a.32284.32284,0,0,1-.0557.5621l-.1384-.0232-.1435-.02413a.35873.35873,0,0,1,.0513-.51947l.1458.0024Z"/><path d="M116.6684,93.1295c-.0669-.0137-.1252-.0497-.1297-.08043a.10721.10721,0,0,1,.1075-.09627l.0484.0261c.0173.0093.0122.0994-.0116.1311Z"/><path d="M15.316,30.1207a1.34717,1.34717,0,0,1-1.2127,1.673l-.1839-.2353-.3769-.4822a1.14469,1.14469,0,0,1,.9836-1.43213l.4305.25963Z"/><path d="M89.3311,47.485c.0011-.017.3353.34307.7426.80007,0,0,.0769.08633.4766.55263l.0033.0039c-.1028.0951-.4676-.2416-.8108-.74853,0,0-.0664-.09817-.4117-.60807Z"/><path d="M61.0802,101.6017a.92066.92066,0,0,1-.1036,1.2513l-.0893-.0492-.3106-.1706a.76085.76085,0,0,1,.024-1.0398l.2499.0042Z"/><path d="M144.6444,72.8906c-.2431-.3514-.2787-.7194-.0789-.8178a.68085.68085,0,0,1,.8414.32727l-.0321.30873c-.0155.15-.4623.4117-.503.3768Z"/><path d="M95.8679,50.7645c-.1101-.03343-.2002-.1005-.2005-.1492-.0002-.0485.049-.1687.1084-.1605.0592.008.2073.12027.1967.2319l-.0547.0405Z"/><path d="M69.7203,92.4466c-.4512.75047-1.1223.6818-1.4911-.1523l.0353-.4938.0317-.4427a.80409.80409,0,0,1,1.3533.1437l.0384.5138Z"/><path d="M67.8741,97.6077a.28829.28829,0,0,1-.265-.1793.44783.44783,0,0,1,.3539-.4219l.1504.0878.121.0705A.44223.44223,0,0,1,67.8741,97.6077Z"/><path d="M50.9066,88.51607a.96216.96216,0,0,1,.8846-1.46l.2569.22883.3104.2769a1.26771,1.26771,0,0,1-.803,1.3807l-.2683-.1765Z"/><path d="M30.3231,13.58707a.18931.18931,0,0,1-.2957.0854l-.001-.0568-.0014-.0805a.232.232,0,0,1,.2812-.0798l.0066.0514Z"/><path d="M15.0167,80.3698a.4564.4564,0,0,1-.6174.1496.96316.96316,0,0,1-.0803-1.1711l.3707-.222.1343-.0804A1.25726,1.25726,0,0,1,15.0167,80.3698Z"/><path d="M121.8163,144.3147c-.5625.355-1.0849.3835-1.1612.0637a1.257,1.257,0,0,1,.6633-1.2607l.4509.0003a1.10521,1.10521,0,0,1,.2561.8609Z"/><path d="M118.4016,135.8566c-.076-.248.0433-.4268.2654-.39753l.095.07063c.0709.0529.1254.2675.0925.2945-.0973.0795-.3131.1731-.3532.1325Z"/><path d="M100.8247,130.2497a.74164.74164,0,0,1,.5235-.9414l.3185.052.1116.0181a.77415.77415,0,0,1-.5516.8461l-.3432.0214Z"/><path d="M.0537,12.02017c-.0245-.052.0282-.1727.117-.268l.0576.0137.0848.02c.075.0995.0904.217.034.261C.291,12.09077.0782,12.07217.0537,12.02017Z"/><path d="M75.0531,15.31027a.369.369,0,0,1,.5229-.0458.8008.8008,0,0,1-.1241.967l-.3389.1441-.1075.0456A1.05513,1.05513,0,0,1,75.0531,15.31027Z"/><path d="M34.2748,11.55437a.23555.23555,0,0,1-.3453-.0163l.0113-.0149.0667-.09a.25112.25112,0,0,1,.3264-.0054l-.014.0298Z"/><path d="M141.1851,119.1629c.0631.0504.0647.2158.0039.3676l-.0854.0221-.1281.033c-.1643-.0539-.2568-.17453-.2056-.2676S141.1221,119.1124,141.1851,119.1629Z"/><path d="M132.4576,118.32307c-.0479.05873-.1675.01843-.2653-.09l-.0546-.11277c-.0147-.03.0934-.1688.1213-.162l.1273.0316A.25235.25235,0,0,1,132.4576,118.32307Z"/><path d="M80.6036,147.8598c-.0354-.0521-.0126-.096.0503-.09773.0629-.00157.0919.041.0641.09463C80.6903,147.9105,80.6387,147.9119,80.6036,147.8598Z"/><path d="M94.5651,62.2838c-.005.05627-.086.07327-.1801.038l-.0645-.0556a.17814.17814,0,0,1,.0024-.147l.0817-.0253C94.5008,62.08707,94.5701,62.2274,94.5651,62.2838Z"/><path d="M126.8423,82.9189c-.0316.0308-.0843-.005-.117-.0793l-.0045-.0687c-.0021-.0297.0706-.0941.0762-.0905l.0563.0359C126.9086,82.766,126.8741,82.88807,126.8423,82.9189Z"/><path d="M97.2693,64.7349a1.32966,1.32966,0,0,1,1.491.2484l-.0551.2653-.0588.2834a1.34386,1.34386,0,0,1-1.4733-.2455l.0467-.2678Z"/><path d="M102.2571,68.4588c-.042.00127-.0791-.0451-.0822-.1032l.0062-.0519.001-.0068c.0425-.0025.0785.0443.0802.1039l-.0048.0536Z"/><path d="M18.5431,95.2296c-.2364-.2321-.318-.4933-.1815-.5804a.60544.60544,0,0,1,.7333.2147l.0627.2723c.0121.0526-.302.27-.3654.2342Z"/><path d="M51.707,67.5835a.04958.04958,0,0,1-.0302-.0435.06607.06607,0,0,1,.0753-.0443l.018.023.0146.0187A.06842.06842,0,0,1,51.707,67.5835Z"/><path d="M41.0604,21.8986c-.0954.14747-.2476.2266-.338.1757a.65984.65984,0,0,1,.0181-.7239l.2072-.2389.0244-.028C41.2076,21.23407,41.1562,21.751,41.0604,21.8986Z"/><path d="M115.3208,79.80507c.008.01653-.0114.03823-.0431.04843l-.0281-.0009c-.008-.0003-.0256-.0358-.0207-.0426l.0167-.02393C115.2709,79.7647,115.3128,79.7884,115.3208,79.80507Z"/><path d="M1.0795,34.0813a.71753.71753,0,0,1-.4393-.22523C.6074,33.7766.6339,33.563.7753,33.5569c.1412-.0061.5092.155.5044.3715l-.0978.07467Z"/><path d="M121.4641,52.9979a.04079.04079,0,0,1-.0418-.0211c-.0067-.0148-.0054-.0433.0177-.03173C121.4629,52.9566,121.4803,52.995,121.4641,52.9979Z"/><path d="M142.0448,88.4052c-.1176.0688-.2452.0917-.2834.05087-.0383-.041-.0802-.19637-.0078-.25447.0722-.05853.3021-.10653.3506.0227l-.0305.0927Z"/><path d="M127.8808,144.8916c.027.00447.0526.0178.0567.0294s-.0005.04207-.0197.0419-.0673-.0237-.0645-.0509l.0135-.0101Z"/><path d="M140.9899,22.4357c-.0163.0035-.0317-.0118-.034-.034l.003-.01963.0007-.00467c.0156-.0032.0305.0122.033.0342l-.0021.0197Z"/><path d="M193.4787,134.2107c.1041-.0109.3097.1528.4571.3638l-.0216.1721-.018.1441c-.219.1332-.4579.1101-.5306-.0519C193.2927,134.677,193.3747,134.2216,193.4787,134.2107Z"/><path d="M62.004,148.0548c-.182-.096-.2684-.2371-.1923-.3134.0762-.0765.3718-.1511.4867-.005l.0645.15c.0168.0386-.1361.2155-.1849.2051Z"/><path d="M29.2554,66.209a.20637.20637,0,0,1,.2704.0125c.0645.0703.0252.3051-.1833.4164l-.2016.0625-.0379.0119C29.0125,66.5669,29.1712,66.2725,29.2554,66.209Z"/><path d="M54.5806,132.2245a.25276.25276,0,0,1,.1753-.21643.36414.36414,0,0,1,.3721.30023l-.0883.1165-.0809.1065A.38406.38406,0,0,1,54.5806,132.2245Z"/><path d="M123.2567,73.8484a.28533.28533,0,0,1-.2751-.291l.0124-.152a1.16086,1.16086,0,0,1,.2262-.00533,1.79785,1.79785,0,0,1,.0369.436Z"/><path d="M107.6747,53.985c.0332.01907.0368.0427.0081.0527-.0287.0097-.1061.0082-.1115-.0188S107.6416,53.9658,107.6747,53.985Z"/><path d="M3.9694,74.4978c.114-.01173.1669.0636.118.1674-.0491.1034-.1422.1131-.2068.0211C3.8157,74.5943,3.8558,74.5095,3.9694,74.4978Z"/><path d="M111.2153,92.7944c-.1018-.0634-.0168-.3868.1892-.7187l.2461-.2455.0464-.0463c.2515.1503.3705.4174.2646.5936S111.3174,92.8579,111.2153,92.7944Z"/><path d="M11.7127,65.2953c-.0153-.0034-.0382-.0364-.0508-.0731l.0108-.0229.0094-.0196c.0382-.0083.0721.0063.0752.0325S11.7282,65.2987,11.7127,65.2953Z"/><path d="M127.2456,80.78007a.1517.1517,0,0,1,.0066-.16187.2062.2062,0,0,1,.2715.0131l-.0028.0815-.0031.0806A.20618.20618,0,0,1,127.2456,80.78007Z"/><path d="M79.2569,67.6954c-.1077-.0597-.1018-.1696.013-.2446s.203-.0265.1958.108S79.3646,67.7548,79.2569,67.6954Z"/><path d="M95.873,33.6634a.07513.07513,0,0,1-.0259-.10433c.0231-.032.0958-.06927.11-.01177S95.9103,33.68907,95.873,33.6634Z"/><path d="M101.2307,71.7933c.0321.0065.0407.035.0191.0632-.0214.0284-.0476.0229-.0583-.012C101.181,71.8098,101.1985,71.7866,101.2307,71.7933Z"/><path d="M57.3354,54.402c.0855.0844.057.163-.0633.175-.1205.0116-.1903-.0575-.1556-.1535C57.1515,54.3275,57.2498,54.3178,57.3354,54.402Z"/><path d="M117.3403,43.3044a.06541.06541,0,0,1,.0281-.0587.07255.07255,0,0,1,.0907.0447l-.0138.0299-.0135.0291A.0737.0737,0,0,1,117.3403,43.3044Z"/><path d="M40.4298,122.667c-.1177-.0892-.0974-.1956.0455-.2366.1429-.0407.2395.0322.2144.1622S40.5477,122.7563,40.4298,122.667Z"/><path d="M102.334,70.6894c-.0598.04667-.103.0336-.0957-.02933s.0765-.20807.1254-.19577S102.3939,70.6428,102.334,70.6894Z"/><path d="M87.3923,141.1153c-.0232-.0208-.0175-.0441.0126-.0519.0303-.0077.0492.0093.0421.0378S87.4154,141.13607,87.3923,141.1153Z"/><path d="M69.4023,55.4268a.05923.05923,0,0,1,.0624-.0525c.029.0037.0773.0375.0431.0665S69.397,55.4596,69.4023,55.4268Z"/><path d="M101.9483,62.61707c.0571-.00247.0833.04283.0587.10113s-.0713.0604-.1036.0047C101.8713,62.6675,101.8915,62.6197,101.9483,62.61707Z"/><path d="M62.7311,35.5575c-.0347-.078.0092-.1271.0976-.10943.0885.01783.1171.08163.0633.14163A.09061.09061,0,0,1,62.7311,35.5575Z"/><path d="M46.5714,71.4296a.24213.24213,0,0,1-.2172-.0998.25974.25974,0,0,1,.1568-.3304l.1102.04967.1075.04863A.2608.2608,0,0,1,46.5714,71.4296Z"/><path d="M67.3848,91.0799a.07208.07208,0,0,1,.0802-.05683c.0346.00723.0899.05183.0459.08293C67.4666,91.13707,67.3754,91.1183,67.3848,91.0799Z"/><path d="M33.4946,46.9693c.0121-.049.0572-.0596.101-.0239.0436.0359.034.0758-.0215.0889S33.4829,47.01807,33.4946,46.9693Z"/><path d="M136.4156,106.3737c.0608.0521.019.1006-.0929.1079l-.0539-.0479-.0552-.0489C136.2013,106.2772,136.3547,106.3216,136.4156,106.3737Z"/><path d="M71.5442,65.9033c-.0619-.06723.0147-.1219.1702-.1214l.1041.0591.0326.0184C71.8121,66.0113,71.6061,65.9707,71.5442,65.9033Z"/><path d="M184.2165,145.8563a1.20787,1.20787,0,0,1,.7359-1.8068,7.81238,7.81238,0,0,1,2.535-.3627c.4069.0658.9602,1.3506.8641,1.9961a34.85466,34.85466,0,0,1-.8641,3.8616c-.2367.8175-.7656.8758-1.175.1297Z"/><path d="M178.9986,134.24607a2.1815,2.1815,0,0,1,1.3337-2.57747,24.5278,24.5278,0,0,1,3.883-1.0333.68156.68156,0,0,1,.6822.26377,2.09206,2.09206,0,0,1-.5627,2.79933l-2.9849,2.0845c-.8904.622-1.7068.811-1.814.4203C179.4284,135.8123,178.9986,134.24607,178.9986,134.24607Z"/><path d="M171.8894,60.8657a1.23487,1.23487,0,0,1-.1976,1.4096l-1.282,1.2583c-.3523.3457-.7788.4912-.9476.323l.027-.1077c.4082-1.6236,1.046-3.991,1.046-3.991.1284-.4767.4327-.5153.6766-.0861Z"/><path d="M96.8266,133.3025a1.83005,1.83005,0,0,1,.1342-1.8222c.3644-.5186,1.4927-1.0449,1.8614-.2508a6.05244,6.05244,0,0,1,.4482,1.9365.98555.98555,0,0,1-.2132.8086C98.4004,134.5535,97.1173,133.78607,96.8266,133.3025Z"/><path d="M145.1883,121.8614a1.2071,1.2071,0,0,1-1.9461-1.0497,1.48731,1.48731,0,0,1,.3083-.852c1.1501-1.688,2.4467-3.2527,2.4467-3.2527a1.21869,1.21869,0,0,1,2.2073.2774s.645,1.3635.1328,2.1861A10.56145,10.56145,0,0,1,145.1883,121.8614Z"/><path d="M145.2176,14.76557c-.1788-.3668-.1556-.7862.051-.9315.2065-.1455.729-.1325.8268.2637,0,0,.1523.6161.2663,1.2931a1.61556,1.61556,0,0,1-.6563.2227A8.75214,8.75214,0,0,1,145.2176,14.76557Z"/><path d="M141.3296,69.4819c.3972.5145.0136,1.2278-.852,1.5853a19.46579,19.46579,0,0,1-2.2335.7505c-.1053.0268-.8923-1.4164-.7047-1.6512a7.81663,7.81663,0,0,1,1.1981-1.256C139.4833,68.344,140.9326,68.9677,141.3296,69.4819Z"/><path d="M128.3095,123.277c-.2227-.1088-.2164-.2726.0142-.3638,0,0,.3878-.1536.4902-.0827a3.72009,3.72009,0,0,1,.5505.4707c.1684.18187.1627.3733-.013.4254l-.1255-.0459C128.876,123.5536,128.3095,123.277,128.3095,123.277Z"/><path d="M90.8006,82.4537a14.83674,14.83674,0,0,0-.9511-1.9047c-.5608-1.0286-1.5232-3.8312-.8927-3.94293.6307-.11207,2.2235.56243,2.1383,1.747,0,0-.1447,2.01583-.2945,4.10063Z"/><path d="M185.0122,92.808a4.83741,4.83741,0,0,1,3.0025-.3574c.8241.2273,2.1213,1.4029,1.2778,2.1704l-.792.0295a35.61822,35.61822,0,0,1-4.3021-.1429C183.0503,94.3903,184.1853,93.2317,185.0122,92.808Z"/><path d="M147.1949,84.371c.7015.4637.6506,1.131-.1134,1.4827a7.86553,7.86553,0,0,1-2.082.6566c-.4207.0092-1.2708-.8833-1.2175-.98023.3942-.71667.8802-1.73627,1.5079-1.87187C145.9127,83.5236,147.1949,84.371,147.1949,84.371Z"/><path d="M202.0697,80.8972c-.1517.29287-.4148.4171-.5847.276-.1698-.1413-.455-.5636-.331-.687a.87259.87259,0,0,1,.8877-.09813l.0347.20583A.53487.53487,0,0,1,202.0697,80.8972Z"/><path d="M155.53,23.2298a2.01453,2.01453,0,0,1-2.8278-.45873,1.76055,1.76055,0,0,1-.2179-1.18c.072-.57777.171-.62537.171-.62537a2.31325,2.31325,0,0,1,2.8971.8148l.1103.901C155.7136,23.096,155.53,23.2298,155.53,23.2298Z"/><path d="M179.0018,70.4273c-.4578.0476-.8541-.0576-.8807-.2341-.0264-.1764.3799-.696.9608-.7713a7.97292,7.97292,0,0,1,1.1329-.0314l.1372.0042C180.4892,69.8709,179.4595,70.3796,179.0018,70.4273Z"/><path d="M123.0792,30.5149a1.32335,1.32335,0,0,1-.2354-2.4997,23.01689,23.01689,0,0,1,3.3578-1.94913c.3893-.168,2.0319,1.27093,1.9394,1.49753a15.2411,15.2411,0,0,1-2.3594,3.9114C125.6215,31.66807,123.0792,30.5149,123.0792,30.5149Z"/><path d="M139.9257,78.3652c-.3655.6213-.8974.5877-1.1821-.0746a.90337.90337,0,0,1-.0185-.6578,4.62206,4.62206,0,0,1,.5165-.8905c.4759-.5413,1.0662-.5617,1.3115-.04523l-.096.391A5.55169,5.55169,0,0,1,139.9257,78.3652Z"/><path d="M123.5053,77.91607a1.40547,1.40547,0,0,1-1.6302-1.33377l.0694-.01023c1.1212-.16417,1.7891-.20787,1.7891-.20787a1.39548,1.39548,0,0,1,1.6247,1.1787l-.1443.0374A13.867,13.867,0,0,1,123.5053,77.91607Z"/><path d="M149.0835,101.7378c-.4162-1.1426.1593-1.97773,1.2789-1.85573l.1551.33283a10.40956,10.40956,0,0,1,.6017,1.439c.2886,1.1813-.1423,2.2336-.9576,2.3384l-.1351-.2423A15.535,15.535,0,0,1,149.0835,101.7378Z"/><path d="M96.6799,123.8372a.85592.85592,0,0,1,.2098-.9284c.2522-.24473.99-.5123,1.1317-.1023l-.0936.3045-.1745.5674A.6253.6253,0,0,1,96.6799,123.8372Z"/><path d="M126.3251,117.2015a.966.966,0,0,1-1.5035-.7367,4.18332,4.18332,0,0,1,.0094-.945l.0188-.2032a1.59673,1.59673,0,0,1,1.6573.8709l.0617.625C126.5928,117.0568,126.3251,117.2015,126.3251,117.2015Z"/><path d="M137.2991,30.8522c-.8035-.5527-.6948-1.2285.2416-1.5014,0,0,.0454-.0131.317.146a14.64131,14.64131,0,0,1,1.3432.8565c.7733.5941.9717,1.4327.4408,1.86377l-.2357-.11507A19.6027,19.6027,0,0,1,137.2991,30.8522Z"/><path d="M188.9016,99.4658c-.0675.0491-.1422.0547-.1658.01227a.10657.10657,0,0,1,.0888-.13867s.0675-.0152.1762-.03433c.0085-.00157.0373.05613.0347.05813C188.9507,99.4302,188.9016,99.4658,188.9016,99.4658Z"/><path d="M200.7579,21.7147c.5901.4908.854,1.1349.5864,1.4315a2.18587,2.18587,0,0,1-2.4267-.6089s-.0775-.0789-.7128-1.0274l-.1655-.2474C198.4395,20.6005,200.1678,21.2238,200.7579,21.7147Z"/><path d="M131.1903,54.5463a.59.59,0,0,1,1.0409.0411l-.0467.2018-.0629.27187a.61248.61248,0,0,1-.8979-.03167l-.0179-.2578Z"/><path d="M94.7566,120.7749a.20088.20088,0,0,1-.3482.0048.71788.71788,0,0,1-.0737-.163l-.0162-.04563a.26241.26241,0,0,1,.3544.03713l.0706.1165C94.7657,120.7617,94.7566,120.7749,94.7566,120.7749Z"/><path d="M203.2723,61.7136a1.89533,1.89533,0,0,1-2.7821.0946l.085-.0985a12.28418,12.28418,0,0,1,2.2125-1.9698,5.20591,5.20591,0,0,1,1.078,1.2127Z"/><path d="M159.5728,60.7456c-.2259-.5584-.1704-1.1781.124-1.3769.294-.1992,1.379.0647,1.8017.99837l.0267.85973.0136.44127C160.868,62.1747,159.7989,61.3038,159.5728,60.7456Z"/><path d="M148.002,33.72007a.908.908,0,0,1,.57-1.35227l.3762.0125c.0971.0033.3394.6871.23.8152a1.53794,1.53794,0,0,1-.9978.5173Z"/><path d="M109.0173,24.2495c-.0316-.0242-.0278-.0838.0085-.1323l.0055.00287a.67991.67991,0,0,1,.1549.11033l.0071.0071C109.1561,24.29,109.0489,24.2737,109.0173,24.2495Z"/><path d="M196.6837,59.5389a.7066.7066,0,0,1-.9955-.3834c-.1612-.4095-.1725-1.4237.2855-1.4639l.0965.1582a5.78219,5.78219,0,0,1,.595,1.615Z"/><path d="M128.3047,94.346c-.2689-.2188-.2108-.5544.1294-.7455a1.46676,1.46676,0,0,1,.3004-.0809c.0561-.0119.3098.392.2574.5067a.72256.72256,0,0,1-.5381.3084Z"/><path d="M104.9538,106.9369c-.9069.0983-1.7081-.1643-1.7805-.5835a1.71259,1.71259,0,0,1,1.2182-1.6049l.6371.1835c.2114.0609.3682,1.2405.124,1.6618Z"/><path d="M194.3837,84.7075c-.1887.1478-.3869.10257-.4406-.1008l.0252-.1043c.0177-.07433.1829-.1889.2114-.1712.1008.0627.2508.1923.2349.2634A.47711.47711,0,0,1,194.3837,84.7075Z"/><path d="M84.0066,66.5499c.4063.6307.0463,1.446-.7997,1.8117l-.2236-.1742-.3978-.3099a1.23147,1.23147,0,0,1,.6436-1.5403l.422.1154Z"/><path d="M147.8893,52.7804a.59756.59756,0,0,1-.8668-.3896l.0872-.1753.0759-.1528a.78954.78954,0,0,1,.8029.3636l-.0525.1875Z"/><path d="M131.1551,31.6306c.157.33947.0401.6706-.2593.7359a1.31053,1.31053,0,0,1-1.2362-.7021l.1064-.38033.0883-.31587C130.2835,30.7134,130.9982,31.291,131.1551,31.6306Z"/><path d="M139.6909,123.0864c-.2564.5728-.7608.6355-1.1211.1392l.0063-.273.007-.3008a.77161.77161,0,0,1,1.0466-.1721l.0372.249A.99411.99411,0,0,1,139.6909,123.0864Z"/><path d="M139.9648,46.42607c-.1785.21223-.6578.12853-1.0654-.18557l.0405-.1092.1633-.43923c.3127-.43377.7081-.67377.8786-.53327A1.60217,1.60217,0,0,1,139.9648,46.42607Z"/><path d="M121.6778,96.2889a.47482.47482,0,0,1,.0656-.6847,1.27408,1.27408,0,0,1,1.4136.0601l-.048.27677-.0618.35723A1.28839,1.28839,0,0,1,121.6778,96.2889Z"/><path d="M157.4178,58.3286a.63322.63322,0,0,1-.7795.1534,1.3588,1.3588,0,0,1,.0207-1.4523l.4419-.1691.2593-.0991A1.26666,1.26666,0,0,1,157.4178,58.3286Z"/><path d="M208.3833,58.4404c-.2947.1378-.7261-.2885-.9588-.9471l.0781-.0465a2.78461,2.78461,0,0,1,1.3722-.4511l.1667.0018A1.508,1.508,0,0,1,208.3833,58.4404Z"/><path d="M139.3448,79.54007a1.07263,1.07263,0,0,1,.0746-1.60417l.3483.0064.2846.0051a1.33378,1.33378,0,0,1-.0665,1.5352l-.3398.03047Z"/><path d="M107.104,91.5659c-.1471-.2975-.1059-.6159.0915-.7072s.8279.16837,1.0913.7209l.1476.5278.018.0644C107.9786,92.3806,107.2509,91.8636,107.104,91.5659Z"/><path d="M150.9844,89.80407a1.15347,1.15347,0,0,1-1.7683.13143l-.0759-.4259-.0516-.289a1.49677,1.49677,0,0,1,1.7286-.1407l.089.38617Z"/><path d="M111.912,16.35617a1.3477,1.3477,0,0,1-1.3856,1.53373l-.1578-.25383-.323-.52a1.145,1.145,0,0,1,1.132-1.3187l.4002.3043Z"/><path d="M90.3692,81.6499c-.8915.34217-1.7824-.3675-1.9796-1.57683l.2195-.15077a1.9908,1.9908,0,0,1,1.6937-.2268,1.55143,1.55143,0,0,1,.3527,1.5029Z"/><path d="M89.0358,81.72207c-.8102.43293-1.7452-.13847-2.0775-1.26937l.1915-.1701a1.915,1.915,0,0,1,1.5899-.4183,1.49269,1.49269,0,0,1,.5157,1.3927Z"/><path d="M207.7642,24.3337c.0054-.0163.2426.4189.5273.9672,0,0,.0537.1034.3286.6589l.0023.0045c-.1242.0675-.3972-.3524-.6067-.9335l-.2515-.6971Z"/><path d="M162.6815,104.8288a.92875.92875,0,0,1,.0202,1.2665l-.0946-.0405-.3286-.1405a.76738.76738,0,0,1-.0791-1.04623l.2512-.02057Z"/><path d="M127.4145,109.9608a.60048.60048,0,0,1,.3273-.87573l.1989.07133.1697.06067a.732.732,0,0,1-.3094.83413l-.2033-.0476Z"/><path d="M209.4602,82.107c-.638.5888-1.2577.3369-1.3768-.5595l.1708-.4601.1531-.4126a.79741.79741,0,0,1,1.2482.5129l-.1062.4998Z"/><path d="M205.9645,17.7813c.1151.1043.0331.3316-.1823.5051l-.1811.0568c-.0574.018-.2852-.2227-.2718-.32313l.027-.20077C205.4844,17.6114,205.8493,17.677,205.9645,17.7813Z"/><path d="M166.4538,110.8832a.29589.29589,0,0,1-.3212-.06913.46.46,0,0,1,.1752-.53777l.177.026.1423.02077A.454.454,0,0,1,166.4538,110.8832Z"/><path d="M196.9973,118.2688a.96907.96907,0,0,1,1.0552-1.3574l.2302.2589.2783.3131a1.27659,1.27659,0,0,1-.9642,1.2875l-.2479-.2077Z"/><path d="M165.5323,15.77577a.19377.19377,0,0,1-.3131-.0339l.0211-.0542.0299-.0767a.23744.23744,0,0,1,.2972.0335l-.0137.0512Z"/><path d="M87.7458,114.7685c.5434.2395.8029.6147.5769.8338-.2263.2193-.9951.4499-1.3328.1487l-.1806-.3411c-.0494-.0937.359-.6109.5736-.6221Z"/><path d="M106.1568,47.8974c-.1886.10467-.4249-.1148-.5251-.4876l.0538-.2383a.60463.60463,0,0,1,.5448-.218l.2231.1225C106.6276,47.341,106.3456,47.793,106.1568,47.8974Z"/><path d="M136.2339,81.2447a.46867.46867,0,0,1-.6502-.052.9892.9892,0,0,1,.2973-1.1683l.4327-.0976.1568-.0354A1.29082,1.29082,0,0,1,136.2339,81.2447Z"/><path d="M107.5645,94.7056c-.3894.5366-.8625.7562-1.0514.48847a1.25307,1.25307,0,0,1,.1477-1.41247l.4176-.16653c.0906-.03617.5927.49493.5555.70223Z"/><path d="M111.0453,105.8239c-.4864.6453-1.0707.8965-1.2985.55817s-.3215-1.37287.1711-1.73577l.4954-.104c.2069-.0435.8141.5856.7622.7841Z"/><path d="M190.7816,24.9963c-.2261.0756-.398-.0744-.3817-.333l.0893-.0817.0791-.0723a.454.454,0,0,1,.3769.3349l-.0602.0558Z"/><path d="M99.5728,112.1247c.0092.0276-.0284.08137-.0836.1201l-.0361-.011-.0399-.0121c-.0303-.0587-.0279-.1198.0051-.136C99.4515,112.0695,99.5636,112.0975,99.5728,112.1247Z"/><path d="M68.5011,66.9104a.15475.15475,0,0,1-.163.1499c-.0899-.0018-.3334-.1453-.3475-.3154l.0497-.02383.1349-.06477A.34072.34072,0,0,1,68.5011,66.9104Z"/><path d="M97.0991,30.11607a1.08471,1.08471,0,0,1-.7551-1.02887l.2056-.2186.1234-.1318a1.13146,1.13146,0,0,1,.7709,1.0342l-.2017.202Z"/><path d="M105.8667,116.9693a.8.8,0,0,1-.981-.1656l.0484-.0727.1909-.2865a.535.535,0,0,1,.8465.0855l-.0531.2226Z"/><path d="M209.2239,64.059a1.30488,1.30488,0,0,1,1.4197-.43l.0669.2573.0715.2749a1.3185,1.3185,0,0,1-1.4028.4248l-.0754-.2558Z"/><path d="M185.2728,26.7619c-.0888.0488-.2311-.044-.3162-.2061l-.0408-.1539c-.0053-.0203.198-.1491.2566-.1222l.1529.07A.28207.28207,0,0,1,185.2728,26.7619Z"/><path d="M138.8531,100.9048c-.233-.2532-.3039-.5283-.1577-.6114a.62861.62861,0,0,1,.7492.2611l.0507.28557c.0098.05523-.3273.26423-.3912.22373Z"/><path d="M165.1605,32.8384a.05048.05048,0,0,1-.0441-.03133.0676.0676,0,0,1,.057-.06867l.0252.0159.0205.0129A.06973.06973,0,0,1,165.1605,32.8384Z"/><path d="M100.5974,64.3755a.84613.84613,0,0,1,.8412-.4459l.0764.1538.0789.1583a.85649.85649,0,0,1-.8314.4408l-.0817-.1516Z"/><path d="M88.9218,52.035c.1662.0698.1682.3314.0046.5814l-.2056.1438a.53774.53774,0,0,1-.441-.1138l-.0265-.2807C88.2929,52.0508,88.7558,51.965,88.9218,52.035Z"/><path d="M92.5343,36.412a.078.078,0,0,1,.1189-.0215.15635.15635,0,0,1-.0075.2179l-.0804.029-.0299.01067C92.4828,36.60507,92.5075,36.4556,92.5343,36.412Z"/><path d="M123.8038,57.4943a.86246.86246,0,0,1-.4724,1.1239l-.2664-.0586c-.1361-.0297-.3129-.576-.2196-.7644a.847.847,0,0,1,.7447-.3709Z"/><path d="M175.9846,42.5229c-.1653.0685-.3385.0469-.3849-.048-.0462-.09483.1046-.4534.4334-.5965l.3117-.0806.0366-.0094C176.4919,42.0507,176.1502,42.4545,175.9846,42.5229Z"/><path d="M116.3836,87.0803a.32059.32059,0,0,1,.0089.3816l-.0808.0059-.0676.0048a.353.353,0,0,1-.009-.3934l.0693.0004Z"/><path d="M207.7203,44.945c-.1884.12007-.3686.138-.4004.0395a.43665.43665,0,0,1,.2499-.45043l.1808-.01037c.0307-.0017.1325.2417.0987.2792Z"/><path d="M111.7162,74.4342a.34149.34149,0,0,1-.3677-.0815l.0154-.066a.1873.1873,0,0,1,.3654.0823Z"/><path d="M126.454,37.5554a.72485.72485,0,0,1-.4925-.0738c-.0569-.0654-.1004-.2781.0328-.32953.133-.05127.5366-.01587.6017.19263l-.0694.1029Z"/><path d="M85.7288,69.5625a.19376.19376,0,0,1-.1255-.0443l-.0102-.0377-.0062-.0231c.0457-.0396.1046-.0496.1308-.0224C85.7441,69.462,85.752,69.5544,85.7288,69.5625Z"/><path d="M76.1233,71.9182c-.0553-.0202-.0635-.0662-.0185-.102a.05726.05726,0,0,1,.1005.0368C76.2154,71.90907,76.1784,71.9385,76.1233,71.9182Z"/><path d="M104.7151,93.607c.0453.0833.0442.16607-.0021.184-.0465.0178-.1803-.0153-.1955-.1094l.0075-.0836c.0019-.0212.1149-.0622.1315-.0464Z"/><path d="M139.7559,81.5032c.0998-.0172.3088.1272.4647.3211l-.0096.1674-.008.1401c-.2025.1428-.4344.1361-.5151-.0153C139.607,81.96507,139.6564,81.5206,139.7559,81.5032Z"/><path d="M177.6411,126.59307c-.1665-.12317-.2312-.27667-.1439-.34107.0874-.0646.393-.094.4852.0687l.0415.1591c.0108.041-.1681.1939-.2151.1762Z"/><path d="M160.4603,63.8349a.20278.20278,0,0,1,.2643-.0281c.0731.0587.0698.2924-.116.4315l-.1864.0906-.035.0173C160.2777,64.2185,160.388,63.90907,160.4603,63.8349Z"/><path d="M154.1861,120.652a.25426.25426,0,0,1-.0003-.2803.36657.36657,0,0,1,.4814-.0015l.0049.1471.0043.1346A.38646.38646,0,0,1,154.1861,120.652Z"/><path d="M71.4328,109.4835c.0139.0101.0111.0212-.0061.02457-.0173.00373-.0288-.00447-.0255-.01807C71.4048,109.4766,71.4188,109.4737,71.4328,109.4835Z"/><path d="M139.6555,118.5396c-.0534.0042-.1196-.148-.1471-.33853l.0061-.17257.0006-.0195c.1526-.0158.2852.0528.2949.1525S139.7087,118.5352,139.6555,118.5396Z"/><path d="M113.4947,52.192c.1053-.041.1755.0168.1561.1284-.0196.1113-.1056.1449-.1913.0743S113.3895,52.2329,113.4947,52.192Z"/><path d="M119.7259,99.3594c-.0509-.0089-.0701-.0964-.0429-.19433l.0419-.07727c.0069-.0129.1291.00527.138.0302l.0298.085C119.9016,99.3046,119.7766,99.3682,119.7259,99.3594Z"/><path d="M106.002,66.697c-.0155-.0012-.0424-.0306-.0597-.065l.0076-.0238.0066-.0206c.0364-.0132.0717-.0034.0782.0219S106.0176,66.6983,106.002,66.697Z"/><path d="M112.3974,73.7094c-.0677-.0705-.0566-.12733.0249-.12633s.2763.07063.2671.13483S112.4653,73.7799,112.3974,73.7094Z"/><path d="M197.1552,67.5178c-.1235.0046-.1754-.0928-.1157-.21673s.1606-.128.2241-.00867C197.3273,67.4115,197.2785,67.513,197.1552,67.5178Z"/><path d="M214.4929,60.6245a.07663.07663,0,0,1-.0214-.10743c.025-.03147.1009-.066.1126-.00677S214.5297,60.6525,214.4929,60.6245Z"/><path d="M117.1956,118.7968c.0586.038.0273.0845-.0696.1026l-.0541-.03533-.0522-.03417C116.9982,118.73807,117.1372,118.7589,117.1956,118.7968Z"/><path d="M179.0536,67.4175c.0549.1042.0049.1691-.1109.14457-.116-.02487-.1608-.11007-.0998-.18937S178.9986,67.3135,179.0536,67.4175Z"/><path d="M162.2881,133.9873c-.109-.0997-.0789-.2038.0672-.2315.1461-.0273.2356.0541.1986.18127C162.5169,134.0644,162.3973,134.08707,162.2881,133.9873Z"/><path d="M76.9654,66.3635a.03584.03584,0,0,1,.0394-.0307c.0175.0036.0462.02627.0243.0432C77.0076,66.393,76.9612,66.3839,76.9654,66.3635Z"/><path d="M203.501,134.1752c-.0217-.0225-.0143-.0454.0164-.0512.0309-.0055.0487.0129.0395.0409C203.5479,134.19307,203.5227,134.1977,203.501,134.1752Z"/><path d="M174.2211,56.2502c-.0671-.05-.0532-.113.0309-.1404s.1393.0135.1222.0906S174.2883,56.3,174.2211,56.2502Z"/><path d="M171.2436,84.9253a.239.239,0,0,1-.21-.108.25652.25652,0,0,1,.1692-.3193l.1066.0539.104.0527A.25754.25754,0,0,1,171.2436,84.9253Z"/><path d="M81.8635,17.46587c.0561-.069.1285-.1091.1606-.0893.0323.0199.0993.1011.0771.1361a.24445.24445,0,0,1-.2443.05153l.0023-.03243Z"/><path d="M181.3635,104.19107a.07209.07209,0,0,1,.0956-.02327c.0295.0194.0646.08127.0121.094C181.4185,104.2745,181.3405,104.2233,181.3635,104.19107Z"/><path d="M118.7551,74.85707c.058-.04367.1028-.01727.0993.05863s-.051.1119-.1057.0796S118.6969,74.9008,118.7551,74.85707Z"/><path d="M170.2587,64.4604c.0323-.0382.077-.0278.1002.0232.0229.0511-.0033.0823-.0582.0694S170.2269,64.4985,170.2587,64.4604Z"/><path d="M183.8655,67.1546c-.0685-.0657.0073-.1274.1686-.1369l.1118.0546.035.0169C184.1502,67.2493,183.9339,67.2204,183.8655,67.1546Z"/></g></mask><clipPath id="clip-path"><polygon class="cls-1" points="1161.42 -230.557 1447.958 -349.965 1447.958 -595.847 353.666 -595.847 1161.42 -230.557"/></clipPath><clipPath id="clip-path-2"><rect class="cls-1" x="89.73156" y="-1024.01475" width="1850.04119" height="1211.84907"/></clipPath></defs><title>b01</title><rect class="cls-3" x="8.28327" y="12.99975" width="500" height="126"/><rect class="cls-4" x="16.28327" y="19.99975" width="483" height="110"/><g class="cls-5"><path class="cls-6" d="M518.42152,22.90282l-.32321,2.72084.07644,2.58317.13557,2.58239-.02962,2.58244L518.366,35.955l-.2632,2.58525.26549,2.5847.13809,2.58343-.14446,2.58327-.16743,2.5843.19484,2.58626-.12231,2.58437.09824,2.58392-.2338,2.585.0201,2.58582.01939,2.5845.06975,2.5851.04782,2.58612.05071,2.58494-.22382,2.57978.1811,2.581L518.1757,79.888l.12524,2.58469-.09639,2.58242-.0819,2.58419.32534,2.58714-.32152,2.58427L518.338,95.398l.042,2.58584-.12885,2.58829.23027,2.58671-.21983,2.588-.03587,2.58912.19982,2.58357-.10472,2.587.04266,2.59-.27593,2.59031.36841,2.591-.30873,2.59515.12887,2.56945-3.03671.20736-2.52472.11135-2.43662.68315-2.29777,1.04411-2.14725,1.3106-2.00548,1.52341-1.49508,2.02825-1.63044,1.89956-1.11765,2.24267-.9516,2.32348-.361,2.48468-.17374,2.48886-.27306.27293.24277,3.27633-2.57385-.18891-2.59195.20421-2.5915-.02638-2.59109-.08981-2.5907.00151-2.59037.30924-2.59007-.2239-2.5898.22275-2.58959-.22463-2.58941-.1438-2.58926.25751-2.58918-.24367-2.58912.34749-2.58911-.31677-2.58914.24655-2.58921-.29294-2.58934.34167-2.5895-.29355-2.58971.177-2.59.00291-2.59026-.18564-2.59062.32519-2.591-.27878-2.59146.15478-2.59194.00863-2.59249-.15073-2.59308-.13343-2.59373.19853-2.59362.08692-2.59306-.24942-2.59253.32669-2.59206-.26605-2.59165.27322-2.59128-.20653-2.591-.00562-2.59074-.03518-2.59053.14187-2.59041.01909-2.59033-.04931-2.59031-.15181-2.59035.19028-2.59045-.17-2.59062-.07677-2.59085.31-2.59113-.25622-2.59149-.05922-2.59191.21079-2.59239-.12406-2.59294.192-2.59357.028-2.59425-.03283-2.59389-.01528-2.59329.139-2.59278.00032-2.59234-.01884-2.592-.11506-2.59167.08743-2.59145-.12194-2.59132-.0163-2.59125-.18686-2.59127.22273-2.59137-.26346-2.59155.34342-2.59183-.31732-2.59217.29472-2.59262-.12494-2.59314-.09414-2.59377-.08881-2.59447.2507-2.59426.08-2.59364-.16215-2.59311-.19368-2.59269.27217-2.59236-.1322-2.59214.05887-2.592.13776-2.592-.26934-2.5921.30128-2.5923-.15457-2.59261.142-2.593-.24944-2.59358.211-2.59424-.03217-2.595-.10067-2.59424-.15922-2.59365.34874-2.5932-.161-2.59286.05285-2.59266-.24955-2.59261.1147-2.59267-.03234-2.5929.32581-2.59325-.40335-2.59376.3835-2.59443-.25261-2.59516.01555-2.59441-.0651-2.59384.08986-2.59342.01076-2.59317.19514-2.5931-.00587-2.5932-.332-2.59348-.05089-2.594.0243-2.5946.05765-2.59529.29767-2.59453-.01634-2.594-.16647-2.59364.17639-2.59351-.01876-2.5936-.24375-2.59392-.06593-2.59319.33368-2.595-.0229-2.59427-.19194-2.5928.05784-2.59158-.14773-2.59063.19629-2.58995-.00524-2.58957.01979-2.58948-.13035-2.58968.10574-2.5902-.24261-2.591.04027-2.59222.20556-2.59373.12654-2.59561-.23583-2.59529.02656-2.59374.05219-2.59258-.1907-2.59183.12678-2.59151.13085-2.59161-.15334-2.59219-.15472-2.59322.311-2.59476-.27126-2.5968-.03939-2.5954.31584-2.594-.17483-2.5932.153-2.593.03308-2.59342.08325-2.59452-.367-2.5963.13572-2.5966.18626-2.595-.35911-2.59422.3564-2.59427-.36031-2.59522.18988-2.5971-.17621-2.59655.23255-2.59527.171-2.59511-.03033-2.59614-.00947-2.59811-.3309-2.59622.00864-2.59577.11237-2.59684.14917L85.8512,148.301l-2.59635.03355-2.597.15779-2.598-.14019-2.59679.01775-2.5916.05638L70.2787,148.224l-2.597.11134-2.59654.03392-2.59425.03236-2.596-.09013-2.599.14251-2.59612.08817-2.59914-.14184-2.59769-.07661-2.60015.1472-2.59857-.02629-2.59987.06793-2.601-.34524-2.59541.10962-2.5989.27192-2.60182-.28951-2.60219-.04609-2.60284.10479-2.607-.14859-2.61276.1884.09281-3.28249-.05321-.35025-.14855-2.5453-.69237-2.44955-.81052-2.40517L17.98991,135.133l-1.36135-2.16126L14.777,131.21l-2.09686-1.43818-2.1699-1.30923-2.30544-1.10274-2.49829-.5593-2.55071-.02516-3.07189-.34486-.28359-2.48822.3771-2.58627-.2115-2.58549L-.19366,116.185l.06973-2.58649-.02788-2.58835.015-2.58781.12548-2.58653.07075-2.58637-.07548-2.5874.106-2.58937-.29664-2.58748.11571-2.587.227-2.5881-.34636-2.58892.081-2.58761.17912-2.58821.07338-2.58923L.026,77.3681l.05507-2.58288.0086-2.5841-.11938-2.58828L-.17844,67.025l.32258-2.58551-.28069-2.5873L-.09623,59.262.07,56.67461l.10516-2.5904L.10928,51.49527l-.31308-2.5914.3159-2.58982-.14679-2.59111.22935-2.59223L-.17283,38.544.0028,35.9539l-.04824-2.59307.25158-2.59342L.02767,28.17332.1571,25.57506.1074,23.10391l3.04879-.35321,2.55608-.04287,2.53682-.457,2.3402-1.08076,2.28108-1.18972L14.674,18.139l1.82283-1.76113,1.48161-2.05862,1.42444-2.12856L20.06122,9.716l.76905-2.4408L20.77334,4.7164l.0454-1.03749L20.80737.10382l2.41754.0755,2.581-.20276,2.58049-.13083,2.58-.02957L33.546-.06541l2.57924.24613,2.57891-.34346,2.5786.02683,2.57835.24,2.57813-.15449,2.578.10861L51.595.07438l2.57772-.24009,2.57766.34846L59.328-.13415,61.90573-.122l2.57776-.04112,2.57788.34174,2.578-.1919,2.57825.08253,2.57851-.13688L77.375.196l2.57915-.111,2.57955.014,2.58-.226,2.58048-.07869,2.581.32172,2.5816-.03037L95.439.091,98.02116.0761l2.58158-.23064,2.58106.19412,2.58059.05507,2.58018-.02922,2.57982.12236,2.57952-.39688,2.57927.42081,2.57907-.1242,2.57894-.20567,2.57887-.00537L126.39891.092l2.57889-.29638,2.579.413L134.136-.02289l2.57938.12137L139.295-.16895l2.58.23066,2.58044-.15793,2.58092-.04151,2.58147.074,2.58209.17543,2.58277.04346L157.36512.13l2.58182-.21075,2.58131.17823L165.10911.147l2.5805-.12326,2.5802.14589,2.58-.37373,2.57984.39369,2.57979-.03636,2.5798-.21936,2.57991.27134,2.58008-.06577,2.58036-.31942,2.58071.14473,2.58114.00777,2.58167-.03224,2.58229.10714,2.583-.05387,2.58278-.00915,2.58216.16839,2.58164-.34,2.58122-.018,2.58089.14587,2.58067-.01346,2.58055-.12384,2.58053.09334,2.58063-.06557,2.58083.17236,2.58114.20613L232.213-.0702l2.5821.12129,2.58276-.049,2.58347-.02229,2.58277.17076L245.12626.1414,247.708.17584l2.58139-.17573,2.58119-.1782,2.58113-.017,2.5812.10047L260.61431-.05l2.58178.19355,2.58229-.114,2.58294.05954L270.945-.08209,273.52794-.192l2.58236.40153L278.69224-.014l2.5817-.01043,2.58162-.046L286.43729-.127l2.582.10224L291.60176.176,294.18488-.044l2.58381.08916,2.58305-.11931,2.5825.281L304.5164.01639l2.582-.0937,2.58212-.02217L312.263-.12814l2.58171.06369,2.58354-.09789,2.58279.37627,2.58133-.15154,2.58011-.03794,2.57916.129,2.5785-.34242,2.57811-.02259,2.578.12321,2.57822.26064L340.64324-.099l2.57958.23871,2.58075-.04723,2.58226-.03235L350.97.17077l2.5838-.20368,2.58227-.0905,2.5811.07807,2.58037.1664,2.58.07186,2.58015-.33433L369.0384.1241,371.62015.175l2.58327-.36115,2.58531.19127,2.58392-.21482,2.58254.22437,2.58173.05977,2.58152.11586,2.582.01871,2.583-.20389L394.86824-.124l2.58511.002,2.58353.25924L402.61963.142l2.5828.049,2.58373-.28913L410.37177.057l2.58506-.26055,2.58378.31976,2.58363-.09293,2.58465-.187,2.58662.18634,2.58473.15892,2.58428-.21882,2.58535.20017,2.58618-.10216,2.58486-.20434,2.58546.31286,2.58648.02131L443.97814.148l2.58014-.01939,2.58136-.02076L451.72517.0077l2.58505.10739L456.893-.17566,459.47754-.184l2.5875.12354,2.58463-.09512,2.58764.1459,2.5862-.07,2.58864.198,2.58708.00314,2.58835-.28669L480.17706-.17,482.761.09358l2.58739-.05371,2.59031-.19839,2.59067.2344,2.59133.11694,2.59551-.35438,2.70944.08915-.25716,3.76491L497.915,4.7164l.10832,2.52418.61157,2.44987,1.027,2.29083.88547,2.3725,1.52932,2.01592,1.67509,1.89962,2.12183,1.38222,2.1633,1.25745,2.31649.93382,2.36349.89327,2.52024.21325ZM511.65794,120.473l.37555-2.5602-.07644-2.61426-.13557-2.613.02962-2.61282-.08531-2.61385.2632-2.61584-.26549-2.61393-.13809-2.61347.14446-2.61456.16743-2.61539-.19484-2.61407.12231-2.61466-.09824-2.6157.2338-2.6145-.0201-2.60928-.01939-2.61053-.06975-2.61474-.04782-2.61425-.05071-2.61195.22382-2.61375-.1811-2.61673.12082-2.61382-.12524-2.61688.09639-2.61541.0819-2.61789-.32534-2.6163.32152-2.61759-.21153-2.61874-.042-2.61311.12885-2.61663-.23027-2.61957.21983-2.61994.03587-2.6206-.19982-2.62483.10563-2.61864-2.43854-.51126-2.27415-1.07095-2.42667-.71506-1.9994-1.54188-2.07769-1.38855-1.8891-1.64557-1.5245-1.98775L495.68392,18.136,494.361,16.01965l-1.06387-2.26253-.74033-2.38659-.86027-2.3801-.09235-2.5312-2.59277.05417-2.5901-.109-2.58983.15631-2.58962-.00339-2.58944-.28889-2.58931.17485-2.5892-.17973-2.58915.2042-2.58915-.02638-2.58917-.08981-2.58925.00152-2.58937.30923-2.58953-.2239-2.58974.22275-2.59-.22463-2.5903-.1438-2.59065.25751-2.591-.24367-2.59149.34749-2.592-.31677-2.59252.24655-2.59311-.29294-2.59376.34167L429.43,6.339l-2.59308.177-2.59256.00291-2.5921-.18564-2.59168.32519-2.59132-.27879-2.591.15479-2.59076.00863-2.59058-.15074-2.59043-.13343-2.59036.19853-2.59034.08693-2.59039-.24943-2.59049.32669-2.59065-.266-2.59087.27322-2.59117-.20653-2.59152-.00561-2.59194-.03518-2.59243.14186-2.593.01909-2.5936-.04931L372.4155,6.3413l-2.59392.19028-2.59333-.17-2.59282-.07677-2.59236.31-2.592-.25622-2.5917-.05922-2.59149.21079-2.59134-.12406-2.59128.192-2.5913.028-2.59141-.03283L341.311,6.538l-2.59185.139-2.59221.00032-2.59265-.01884-2.59318-.115-2.59379.08742-2.59451-.12193-2.59429-.01631-2.59367-.18686-2.59314.22273L315.37895,6.265l-2.5924.34342-2.59217-.31732-2.59205.29472-2.592-.12493-2.59213-.09415L299.82583,6.278l-2.59264.2507-2.59307.08-2.59361-.16216-2.59427-.19368-2.595.27217L284.263,6.39277l-2.59369.05886-2.59323.13776-2.59289-.26934-2.5927.30129-2.59263-.15458-2.59271.142-2.59293-.24945-2.59328.211-2.5938-.03216-2.59445-.10068-2.5952-.15922L253.141,6.627l-2.59387-.161-2.59345.05285-2.5932-.24956-2.59313.1147-2.59323-.03234-2.59352.32581-2.594-.40335-2.59463.3835L229.79669,6.405l-2.59457.01555-2.594-.06509-2.59367.08985L219.4209,6.456l-2.59364.19513-2.594-.00586-2.59322-.332-2.595-.05088-2.59431.0243-2.59283.05765-2.59161.29766-2.59066-.01634-2.59-.16647-2.5896.17639-2.5895-.01876-2.58972-.24375-2.59024-.06593-2.59107.33368-2.59226-.02289L177.94949,6.426l-2.59565.05783-2.59532-.14773-2.59377.19629-2.59261-.00523-2.59186.01978-2.59154-.13035-2.59165.10574-2.59222-.24261L154.61162,6.32l-2.59479.20556L149.42,6.65208l-2.59544-.23583-2.594.02656-2.59323.0522-2.593-.19071-2.59346.12678-2.59455.13085-2.59633-.15334-2.59664-.15472-2.595.311L123.474,6.29361l-2.59431-.03939-2.59525.31583-2.59713-.17482-2.59658.15305-2.5953.03307-2.59515.08326-2.59617-.367-2.59814.13572-2.59625.18626-2.5958-.35911-2.59687.3564-2.59771-.36031-2.59638.18988-2.597-.17621-2.598.23256-2.59681.171L79.33949,6.6435,76.74662,6.634l-2.59706-.3309L71.553,6.31178l-2.59428.11237-2.59607.14916-2.599-.15905-2.59614.03355-2.59918.15779-2.59773-.14018-2.60018.01775-2.5986.05637-2.5999-.20224-2.601.11134-2.59544.03392-2.59892.03237-2.60186-.09014-2.60222.14251-2.60287.08818-2.60708-.14184-2.61614-.07519-.19254,2.58382-.6103,2.49177-.77987,2.44663-1.39733,2.16377L23.149,18.3569l-1.321,2.2095-1.94949,1.6827-1.93631,1.64744-2.00842,1.56632-2.28163,1.13165-2.25108,1.20121-2.44443.73548-2.46133.56962-.03364,2.59956L6.613,34.30821l-.08717,2.60655.072,2.60639L6.4,42.12857,6.485,44.738l.14013,2.6075-.06383,2.60705L6.386,52.56064l.04037,2.609.21412,2.60764-.3039,2.60823.33,2.60926-.3771,2.60807.2115,2.60287.15954,2.6041-.06973,2.60831.02788,2.60782-.015,2.60552-.12548,2.60732L6.40738,83.849l.07548,2.6074-.106,2.61044.29664,2.609L6.5578,94.2873l-.227,2.60986.34636,2.61116-.081,2.61229-.17912,2.60669-.07338,2.61018.09711,2.61313-.05507,2.6135-.0086,2.61415.11938,2.61837.14016,2.56369,2.40563.74575,2.62348.56862,2.42508,1.148L16.3042,124.328l2.06473,1.67557,1.98993,1.75878,1.99181,1.81279,1.27288,2.37363,1.41221,2.26585.81045,2.54487,1.10213,2.45834.29508,2.67155,2.57846-.04809,2.57724.25158,2.57694-.17847,2.57668.12942,2.57647.00932,2.57629-.321,2.57615.19739,2.57605.15059,2.576-.13922,2.576.09961,2.576-.35393,2.5761.07139,2.57622-.03226,2.57638.2367,2.57659-.24759,2.57684.23335,2.57714-.23934,2.57749.09731,2.57788.27463,2.57833-.01477,2.57881-.20275,2.57935-.13083,2.57995-.02958,2.58058.11844,2.58048.24613,2.57992-.34346,2.57939.02682,2.57893.24,2.57851-.15448,2.57816.10861,2.57785.01613,2.57761-.2401,2.57741.34847,2.57728-.3169,2.5772.01211,2.57719-.04111,2.57722.34174,2.57733-.1919,2.57749.08253,2.57772-.13688,2.578.26368,2.57835-.111,2.57878.014,2.57926-.226,2.5798-.07869,2.58042.32171,2.58111-.03036,2.58075.00534,2.58015-.01492,2.57964-.23065,2.5792.19413,2.57884.05507,2.57853-.02922,2.57832.12236,2.57819-.39688,2.57812.42081,2.57814-.1242,2.57824-.20568,2.57842-.00536,2.57869.21549,2.579-.29638,2.57948.413,2.58-.23144,2.58062.12137,2.58133-.26743,2.58111.23066,2.5805-.15793,2.58-.04151,2.57955.074,2.57923.17543,2.579.04346,2.57889-.02512,2.57887-.21075,2.579.17823,2.57916.04953,2.57948-.12326,2.57989.14589,2.58044-.37374,2.58109.3937,2.58181-.03637,2.5811-.21935,2.58051.27134,2.58006-.06577,2.57972-.31942,2.57953.14472,2.57946.00778,2.57954-.03225,2.57976.10715,2.58012-.05388,2.58062-.00914,2.58127.16839,2.582-.34,2.58127-.018,2.5807.14586,2.58028-.01346,2.58-.12384,2.58.09335,2.58006-.06557,2.58034.17236,2.5808.20612,2.58146-.27985,2.58214.12129,2.58138-.049,2.58084-.02228,2.58049.17075,2.58037-.00911,2.58046.03444,2.58078-.17573,2.58-.17821,2.58187-.017,2.58113.10048,2.57966.04465,2.57845.19355,2.5775-.114,2.57683.05953,2.57645-.17116,2.57635-.10993,2.57656.40154,2.57708-.22354,2.57792-.01043,2.57908-.046,2.5806-.05655,2.58245.10224,2.58215.20076,2.58059-.21991,2.57944.08916,2.5787-.11932,2.57837.281,2.57849-.1905,2.579-.0937,2.58008-.02217,2.58161-.02865,2.58364.06369,2.58226-.0979,2.58087.37628,2.58006-.15154,2.57986-.03794,2.58029.129,2.58137-.34243,2.58314-.02259,2.58345.12321,2.58186.26065,2.58108-.27134,2.58113.23871,2.58207-.04723,2.58394-.03235,2.58339.11068,2.58212-.20367,2.582-.09051,2.583.07807,2.58495.16641,2.58306.07186,2.58261-.33434,2.58368.26552,2.58451.05089,2.5832-.36115,2.58379.19127,2.58481-.21482,2.58362.22437,2.57848.05977,2.5797.11586,2.58386.01871,2.58338-.20389,2.58111-.12908,2.58288.002,2.58583.25925,2.583.00466,2.586.049,2.58453-.28913,2.587.15517,2.5854-.26055,2.58669.31975,2.58781-.09292,2.58226-.187,2.58572.18634,2.58864.15891,2.589-.21881,2.58966.20017,2.59383-.10216,2.54951-.19734.65326-2.40647.73185-2.49373.93523-2.42625,1.21019-2.30493,1.44775-2.16614,1.61215-2.05721,1.96285-1.72554,1.899-1.82958,2.24315-1.38621,2.42856-1.01831,2.45012-.95946Z"/><path class="cls-6" d="M508.5507,9.19663l.87874,1.29077.21951,2.59728.15913,2.59933-.28656,2.59794.29574,2.59654-.26873,2.59573.07913,2.59552-.18838,2.596.07012,2.597.00112,2.59882.1308,2.59914.1561,2.59754L509.633,41.655l.05487,2.5968.07171,2.59775-.33324,2.59963.30757,2.59908-.31125,2.59779.36351,2.59765-.0355,2.59866-.00155,2.60065-.06842,2.59874.048,2.5983-.10945,2.59937.17157,2.6002-.03982,2.59888-.07172,2.59948.03194,2.6005-.12336,2.59932.11444,2.59413-.20867,2.59536.17086,2.59955-.01894,2.59907-.03528,2.59678-.03436,2.59856.16614,2.60153-.23879,2.59864.21537,2.60168-.1693,2.60023.117,2.60268-.20456,2.6011-.016,2.60239.12213,2.60353-.02834,2.59793-.10413,2.60143.39589,2.60436-.07454,2.60472.03448,2.60538-.21493,2.60958-.00281,2.60958-1.02288.9676-2.58093-.052-2.58132.30853-2.58176-.17542-2.58224-.07945-2.58274.1906-2.58327-.045-2.58386-.245-2.58446.0597-2.58407.21626-2.58353-.00368-2.583.09231-2.58259-.04459-2.58218-.13519-2.5818.0846-2.58146-.06845-2.58116.118-2.58091-.10707-2.58068.206-2.58051-.21042-2.58037.02616-2.58027.06341-2.58022-.118-2.58021.04318-2.58024-.02583-2.58032.12766-2.58043-.26116-2.5806.07743-2.58081.19433-2.58106-.01711-2.58137-.21381-2.58171.03109-2.5821.21846-2.58255.02805-2.583-.04423-2.58358-.30416-2.58416.14915-2.58481.15581-2.58471-.1716-2.58414-.09549-2.58362.33789-2.58315-.30244-2.58274.082-2.58238.10345-2.58207-.15267-2.58183.20774-2.58163.00257-2.5815.03033-2.58143-.32059-2.5814.04026-2.58145.05674-2.58155.055-2.58171-.06245-2.58194-.15263-2.58223.42027-2.58258-.0862-2.583-.07772-2.58348-.23689-2.584.14888-2.58465-.12125-2.58533.24473-2.585.07229-2.58438-.04313-2.58386-.21839-2.58343.0055-2.58305-.077-2.58276.35773-2.58255-.06611-2.5824-.23657-2.58235.2792-2.58236-.14479-2.58246-.20626-2.58265.3246-2.58291.0668-2.58327-.40213-2.5837.14576-2.58423-.11569-2.58485.33194-2.58556-.21494-2.58534-.09808-2.58472.246-2.5842-.2394-2.58377.273-2.58345-.24339-2.58323.0764-2.58311.2583-2.5831-.27752-2.58318-.07618-2.58339.14792-2.5837-.09683-2.58412.13194-2.58466-.1214-2.58532.25136-2.586-.26857-2.58533-.11086-2.58474.26382-2.58427-.20289-2.584-.056-2.58376.29135-2.58369-.2043-2.58376.32572-2.584-.0779-2.58434.04517-2.58485-.16857-2.5855-.0412-2.58624.05884-2.5855.10954-2.58492-.05232-2.58451-.00142-2.58426-.03751-2.58418-.14058-2.58429.21111-2.58456-.08907-2.585.09261-2.58569.03589L211.491,139.054l-2.58562.03815-2.58506-.3394-2.58472.358-2.5846-.29933-2.58468.34752-2.585-.42089-2.58427.36462-2.5861-.11377-2.58536-.096-2.58388-.156-2.58267.41451-2.58173-.36338-2.58105.03077-2.58067.13262-2.58057.20419-2.58078-.00687-2.5813-.10436-2.58214-.09914-2.58331-.07709-2.58482.15695-2.58668-.01221-2.58637-.13644-2.58483.11111-2.58366-.16956-2.58293.06845-2.58259-.15165-2.58271.168-2.58327.05989-2.58431.16252-2.58584-.35012-2.58787.1971-2.58649.15434-2.58509-.20459-2.58429.02918-2.58409.10016-2.58451-.10434-2.5856.16365-2.58737-.2917-2.58768.17623-2.58609-.12738-2.58531.13165-2.58536-.26918-2.5863.155-2.58817.10062-2.58762-.20334-2.58635.26123-2.58619.05877-2.58721-.32463-2.58918.35885-2.5873-.0999-2.58684-.17847-2.58791.20907-2.58875-.18841-2.58742.26364-2.588-.23282-2.58905-.15418-2.58785.34949-2.5827.038-2.58393-.26309-2.58809.00525-2.58761-.15155-2.58534.22551-2.58711-.17-2.59006.011-2.58719.12917-2.59021.0518-2.58877.11721-2.59121.02841-2.58964-.3839-2.59092.07644-2.59205.13557-2.58649-.02962-2.58995.08531-2.59289-.2632-2.59324.26549-2.59389.13809-2.59808-.14446L9.7481,138.839l-1.16784-.973.12231-2.59729-.09824-2.59933.2338-2.59793-.0201-2.59654-.01939-2.59573-.06975-2.59552-.04782-2.596-.05071-2.597.22382-2.59883-.1811-2.59913.12082-2.59754-.12524-2.59675.09639-2.59681.0819-2.59775-.32534-2.59963.32152-2.59907-.21153-2.5978-.042-2.59764.12885-2.59866L8.48814,85.9104,8.708,83.31165l.03587-2.59829L8.544,78.114l.10472-2.6002-.04266-2.59888L8.882,70.31543,8.5136,67.71492l.30873-2.59931L8.7049,62.52148l-.05207-2.59536.19559-2.59956L8.81237,54.7275l-.07254-2.59678-.02954-2.59857.06176-2.60153L8.45929,44.332l.21884-2.60168L8.6236,39.13008l.109-2.60268-.15631-2.6011.00339-2.6024.28889-2.60352-.17485-2.59794L8.87348,23.521l-.2042-2.60436.02638-2.60472.08981-2.60538L8.784,13.097,8.47472,10.4874,9.7481,9.43792,12.329,9.21517l2.58132.22463,2.58176.1438,2.58224-.25751,2.58274.24367,2.58327-.34749,2.58386.31677,2.58446-.24655,2.58407.29294,2.58353-.34167,2.58305.29354,2.58259-.177,2.58218-.00291,2.5818.18564,2.58146-.32519,2.58116.27879,2.58091-.15479,2.58068-.00863,2.58051.15074L61.391,9.6174l2.58027-.19853,2.58022-.08693,2.58021.24942,2.58024-.32668,2.58032.266,2.58043-.27323,2.5806.20654,2.58081.00561,2.58106.03518L87.19652,9.353l2.58171-.01909,2.5821.04931,2.58255.15181,2.583-.19028,2.58358.17,2.58416.07677,2.58481-.31,2.58471.25622,2.58414.05922,2.58362-.21079,2.58315.12406,2.58274-.192,2.58238-.028,2.58207.03283,2.58183.01527,2.58163-.139,2.5815-.00032,2.58143.01884,2.5814.11505,2.58145-.08742,2.58155.12193,2.58171.0163,2.58194.18687,2.58223-.22273,2.58258.26346,2.583-.34343,2.58348.31733,2.584-.29472,2.58465.12493,2.58533.09415,2.585.08881,2.58438-.2507,2.58386-.08,2.58343.16216,2.583.19368,2.58276-.27217,2.58255.13219,2.5824-.05886,2.58235-.13776,2.58236.26934L193.0956,9.255l2.58265.15458,2.58291-.142,2.58327.24945,2.5837-.211,2.58423.03216,2.58485.10068,2.58556.15922,2.58534-.34874,2.58472.161,2.5842-.05285,2.58377.24956,2.58345-.1147,2.58323.03234,2.58311-.32581,2.5831.40335,2.58318-.3835,2.58339.25261,2.5837-.01555,2.58412.06509,2.58466-.08985,2.58532-.01077,2.586-.19513,2.58533.00586,2.58474.332,2.58427.05089,2.584-.0243,2.58376-.05765,2.58369-.29766,2.58376.01634,2.584.16647,2.58434-.17639,2.58485.01876,2.5855.24375,2.58624.06593,2.5855-.33368,2.58492.02289,2.58451.19194,2.58426-.05783,2.58418.14773,2.58429-.19629,2.58456.00523,2.585-.01979,2.58569.13036,2.58636-.10574,2.58562.24261,2.58506-.04028,2.58472-.20555,2.5846-.12654,2.58468.23583,2.585-.02656,2.58427-.0522,2.5861.19071,2.58536-.12678,2.58388-.13085,2.58267.15334,2.58173.15472,2.58105-.311,2.58067.27126,2.58057.03939,2.58078-.31583,2.5813.17482L353.308,9.328l2.58331-.03307,2.58482-.08326,2.58668.367L363.6492,9.443,366.234,9.2567l2.58366.35911,2.58293-.3564,2.58259.36031,2.58271-.18988,2.58327.17621,2.58431-.23256,2.58584-.171,2.58787.03033,2.58649.00947,2.58509.3309,2.58429-.00865,2.58409-.11237,2.58451-.14916,2.5856.15905,2.58737-.03355,2.58768-.15779,2.58609.14018,2.58531-.01775,2.58536-.05637,2.5863.20224,2.58817-.11134,2.58762-.03392,2.58635-.03237,2.58619.09014,2.58721-.14251,2.58918-.08818,2.5873.14184,2.58684.07661,2.58791-.14719,2.58875.02629,2.58742-.06793,2.588.34524,2.589-.10962,2.58785-.27192,2.5827.28951,2.58393.04609,2.58809-.1048,2.58761.14859,2.58534-.19119,2.58711.04755,2.59006-.07011,2.58719.035,2.59021-.15135,2.58877.08717,2.59121-.072,2.58964.19779,2.59092-.08494,2.592-.14013,2.58649.06383,2.58995.17531,2.59289-.04037,2.59324-.21412,2.59389.3039,2.5899-.3298Zm-3.2334,126.3008,1.27686-.86483-.21951-2.57093-.15913-2.56955.28656-2.56874-.29574-2.56854.26873-2.569-.07913-2.57.18838-2.57181-.07012-2.57212-.00112-2.57054-.1308-2.56975-.1561-2.56981.16443-2.57074-.05487-2.5726L506.264,98.6464l.33324-2.57079L506.2897,93.505l.31125-2.57165-.36351-2.57361.0355-2.57173.00155-2.57128.06842-2.57235-.048-2.57317.10945-2.57186-.17157-2.57246.03982-2.57347.07172-2.57229-.03194-2.56716.12336-2.56838-.11444-2.57253L506.53,57.501l-.17086-2.56978.01894-2.57155.03528-2.57448.03436-2.57163-.16614-2.57463.23879-2.57319-.21537-2.57563.1693-2.57406-.117-2.57534.20456-2.57646.016-2.57093-.12213-2.57438.02834-2.57728.10413-2.57764-.39589-2.5783.07454-2.58245-.03448-2.58245-.915-1.12991-2.589-.00281-2.58945-.05527-2.59-.052-2.59058.30853-2.59118-.17541-2.59079-.07946-2.59026.1906-2.58976-.045-2.58931-.245-2.58889.05969-2.58852.21627-2.58817-.00369-2.58788.09231-2.58762-.04459-2.58739-.13518-2.58722.08459-2.58708-.06845-2.587.118-2.58693-.10707-2.58692.206-2.587-.21041-2.587.02615-2.58714.06342-2.58732-.118-2.58752.04318-2.58777-.02582-2.58808.12765-2.58842-.26115-2.58883.07742-2.58926.19434-2.58976-.01712-2.59029-.21381-2.59089.03109-2.59153.21847-2.59144.02805-2.59086-.04424L409.53,12.468l-2.58988.14915-2.58945.15582-2.5891-.1716-2.58879-.09549-2.58854.33788-2.58835-.30244-2.58821.082-2.58814.10345-2.58812-.15266-2.58816.20774-2.58826.00256-2.58843.03033-2.58866-.32059-2.58894.04026-2.5893.05675-2.58972.055-2.5902-.06245-2.59075-.15263-2.59137.42027-2.59206-.0862-2.59169-.07771-2.59111-.2369-2.59059.14888-2.59014-.12125-2.58977.24474-2.58948.07228-2.58926-.04313-2.58912-.21838-2.58906.00549-2.58908-.077-2.58918.35772-2.58936-.06611-2.58964-.23657-2.59.2792-2.59042-.14479-2.591-.20625-2.59157.32459-2.59228.0668-2.59206-.40213-2.59145.14576-2.59092-.11568-2.5905.33194-2.59017-.21494-2.58994-.09809-2.58983.246-2.58981-.23939-2.58991.273-2.5901-.2434-2.59042.0764-2.59085.2583-2.59138-.27752-2.59205-.07618-2.59276.14792-2.592-.09683-2.59146.13195-2.591-.12141-2.59067.25137-2.59048-.26858-2.5904-.11086-2.59049.26382-2.5907-.20289-2.59106-.056-2.59157.29136-2.59223-.20431-2.593.32573-2.59222-.0779-2.59165.04516-2.59122-.16857-2.591-.04119-2.59091.05883-2.591.10954-2.59128-.05232-2.59176-.00142-2.59241-.03751-2.59309-.14058-2.59234.21111-2.59179-.08907-2.59144.09261-2.59132.03589-2.59141-.04343-2.59173.03816-2.591-.3394-2.59282.358-2.59209-.29932-2.5906.34751-2.58939-.42089-2.58844.36462-2.58777-.11376-2.58737-.09606-2.58729-.156-2.58749.41451-2.588-.36338-2.58885.03077-2.59.13262-2.59154.20419-2.59342-.00687-2.59309-.10435-2.59155-.09915-2.59039-.07709-2.58964.157L147.899,12.712l-2.58942-.13643-2.59.1111-2.591-.16956-2.59256.06845-2.59461-.15165-2.59321.168-2.59182.05989-2.591.16252-2.5908-.35012-2.59124.1971-2.59232.15434-2.5941-.20459-2.59441.02919-2.59282.10016-2.592-.10435-2.59208.16366-2.593-.29171-2.5949.17623-2.59435-.12738-2.59308.13166-2.59292-.26919-2.59394.155-2.59592.10062-2.594-.20333-2.59357.26122-2.59465.05877L77.88968,12.477l-2.59416.35885-2.59475-.0999L70.105,12.55746l-2.59459.20907L64.921,12.57812l-2.59064.26364-2.59483-.23282-2.59434-.15418-2.59206.34949-2.59385.038-2.59679-.26309-2.59392.00525-2.59695-.15155-2.5955.22552-2.598-.17-2.59637.011-2.59766.12917-2.59879.0518-2.59322.11721-2.59669.02841L23.3918,12.442l-2.6.07644-2.60065.13557-2.60483-.02962-2.60484.08531L11.70721,13.7208l.26549,2.57093.13809,2.56954L11.96633,21.43l-.16743,2.56854.19484,2.569-.12231,2.57005.09824,2.57181-.2338,2.57212L11.756,36.852l.01939,2.56976.06975,2.5698.04782,2.57075.05071,2.5726L11.71982,49.707l.1811,2.57079-.12082,2.57063.12524,2.57165L11.809,59.99368l-.0819,2.57174.32534,2.57128-.32152,2.57235.21153,2.57317.042,2.57186-.12885,2.57245L12.08586,78,11.866,80.57229l-.03587,2.56717L12.03,85.70784l-.10472,2.57253.04266,2.572L11.692,93.42219l.36841,2.57156-.30873,2.57448.11743,2.57163.05207,2.57463-.19559,2.57319.036,2.57563.07254,2.57406.02954,2.57534-.06176,2.57645.31276,2.57093-.21884,2.57438.05453,2.57729-.109,2.57764.15631,2.5783-.00339,2.58245-.28889,2.58245,1.2761,1.10125,2.58895.17973,2.58945-.2042,2.59.02638,2.59058.0898,2.59118-.00151,2.59079-.30923,2.59026.2239,2.58976-.22276,2.58931.22464,2.58889.1438,2.58852-.25751,2.58817.24367,2.58788-.34749,2.58762.31677,2.58739-.24656,2.58722.293,2.58708-.34168,2.587.29355,2.58693-.177,2.58692-.00291,2.58695.18564,2.587-.32519,2.58714.27879,2.58731-.15479,2.58753-.00863,2.58777.15073,2.58808.13344,2.58842-.19853,2.58883-.08693,2.58926.24942,2.58976-.32669,2.59029.266,2.59089-.27322,2.59153.20653,2.59144.00562,2.59086.03518,2.59033-.14187,2.58988-.01909,2.58945.04932,2.5891.15181,2.58879-.19028,2.58854.17,2.58835.07677,2.58821-.31,2.58814.25622,2.58812.05922,2.58816-.2108,2.58826.12407,2.58843-.192,2.58866-.028,2.58894.03282,2.5893.01528,2.58972-.139,2.5902-.00031,2.59075.01884,2.59137.115,2.59206-.08742,2.59169.12193,2.59111.0163,2.59059.18686,2.59014-.22272,2.58977.26346,2.58948-.34343,2.58926.31732,2.58912-.29471,2.58906.12493,2.58908.09415,2.58918.0888,2.58936-.25069,2.58964-.08,2.59.16216,2.59042.19367,2.591-.27217,2.59157.1322,2.59228-.05886,2.59206-.13776,2.59145.26934,2.59092-.30129,2.5905.15458,2.59017-.142,2.58994.24945,2.58983-.211,2.58981.03217,2.58991.10067,2.5901.15922,2.59042-.34874,2.59085.161,2.59138-.05285,2.59205.24955,2.59276-.11469,2.59205.03233,2.59146-.3258,2.591.40335,2.59067-.3835,2.59048.2526,2.5904-.01555,2.59049.0651,2.5907-.08986,2.59106-.01076,2.59157-.19514,2.59223.00587,2.593.332,2.59222.05089,2.59165-.0243,2.59122-.05765,2.591-.29767,2.59091.01634,2.591.16647,2.59128-.17639,2.59176.01876,2.59241.24376,2.59309.06592,2.59234-.33367,2.59179.02289,2.59144.19194,2.59132-.05784,2.59141.14774,2.59173-.1963,2.591.00524,2.59282-.01979,2.59209.13036,2.5906-.10574,2.58939.2426,2.58844-.04027,2.58777-.20556,2.58737-.12653,2.58729.23583,2.58749-.02657,2.588-.05219,2.58885.1907,2.59-.12677,2.59154-.13086,2.59342.15334,2.59309.15472,2.59155-.311,2.59039.27126,2.58964.03939,2.58931-.31583,2.58942.17482,2.59-.15305,2.591-.03308,2.59256-.08325,2.59461.367,2.59321-.13572,2.59182-.18626,2.591.35911,2.5908-.3564,2.59124.3603,2.59232-.18987,2.5941.1762,2.59441-.23255,2.59282-.171,2.592.03032,2.59208.00948,2.593.3309,2.5949-.00865,2.59435-.11237,2.59308-.14917,2.59292.15905,2.59394-.03355,2.59592-.15778,2.594.14018,2.59357-.01775,2.59465-.05637,2.59547.20224,2.59416-.11135,2.59475-.03391,2.59578-.03237,2.59459.09014,2.58941-.14251,2.59064-.08818,2.59483.14184,2.59434.07661,2.59206-.14719,2.59385.02628,2.59679-.06792,2.59392.34524,2.59695-.10962,2.5955-.27192,2.59795.28951,2.59637.04608,2.59766-.10479,2.59879.14859,2.59322-.19119,2.59669.04755,2.59963-.07011,2.6.035,2.60065-.15135,2.60242.08722Z"/></g><g class="cls-7"><g class="cls-8"><g class="cls-9"><path class="cls-10" d="M127.446,43.2728c-2.4-.0295-3.58286.32843-4.18293.85979,2.18-.03688,4.825.059,4.18293-.85979"/><path class="cls-10" d="M474.28877,40.67465c-1.24216.76015-3.36315,1.25831-4.17441,2.155,2.80538-.02953,8.04428-1.48339,4.17441-2.155"/><path class="cls-10" d="M438.07932,42.82965c.3801.12179,2.12073-.20292,1.38554-.42434-.38011-.11807-2.11248.203-1.38554.42434"/><path class="cls-10" d="M321.07245,42.40418c.36334.11441,2.11248-.21033,1.36878-.43172-.36334-.12176-2.09571.20664-1.36878.43172"/><path class="cls-10" d="M211.01753,40.67465c-.39737-.12176-2.11247.203-1.3943.42806.3801.11807,2.121-.20664,1.3943-.42806"/><path class="cls-10" d="M190.11916,39.806c2.59392-1.4428-5.00244-1.82286-5.56021-.86713,2.17179.18817,1.18311,1.36529,5.56021.86713"/><path class="cls-10" d="M275.10078,38.93777c1.17434-.49813,1.842-1.15865,1.394-2.16235-4.5375.25093-6.49784-.2878-9.75113-.43172,1.64779,1.21772,2.25611,2.75646,8.35708,2.59407"/><path class="cls-10" d="M346.14937,38.07653c-.40563-1.57193,9.41306.04059,6.96251-2.16235-3.92067.23248-7.24153.6347-11.15369.85978-.95489,1.16974,2.88119.83763,4.19118,1.30257"/><path class="cls-10" d="M394.88929,34.61713c2.20531-.64574,1.56321-1.92987-2.78011-1.73429-.38861.98892.33807,1.62728,2.78011,1.73429"/><path class="cls-10" d="M280.65918,32.88391c3.18548-.98154-.92962-1.90405-2.78861-2.594-2.13775.6568-2.4588,2.96675,2.78861,2.594"/><path class="cls-10" d="M383.75314,31.59018c.07581-.262.19417-.52029,1.38554-.43541v-.86715c-3.4137-.67156-4.08958,1.47232-1.38554,1.30256"/><path class="cls-10" d="M121.86408,31.154V29.84782H119.067c-.06756.56085-1.78292.60883-1.3858,1.30622Z"/><path class="cls-10" d="M217.986,29.84962c.3801.12916,2.11248-.20664,1.40256-.42432-.38861-.12179-2.1295.20293-1.40256.42432"/><path class="cls-10" d="M440.86432,29.42451c1.47012-1.09592-4.70666-1.91877-5.58548-.8671,2.20531.18446,1.19987,1.36158,5.58548.8671"/><path class="cls-10" d="M169.22156,29.42451c0-.43169,1.11529-.5166,1.394-.8671-2.18855.04054-4.84178-.05906-4.18267.8671Z"/><path class="cls-10" d="M493.8047,28.55589c-.39738-.11807-2.11248.21036-1.39431.43547.38011.11807,2.121-.20664,1.39431-.43547"/><path class="cls-10" d="M486.84374,25.96145c0-.2398-1.13232-.49075-1.40282,0-.00851.23987,1.1238.49082,1.40282,0"/><path class="cls-10" d="M471.50377,25.09649c.27876-1.23984.17741-2.36527-4.1574-2.16235.042.5978-.66762.95207-1.40281,1.29525,2.76308.011,1.77441,1.18078,5.56021.8671"/><path class="cls-10" d="M399.07711,22.50206a17.82664,17.82664,0,0,1-4.19117-.43541c-.64236,1.34316,3.76,1.62733,4.19117.43541"/><path class="cls-10" d="M408.83082,22.06586a35.1466,35.1466,0,0,0,9.75964,0c-1.14933-1.22875-2.23935-2.476-8.3741-2.16235-1.17434.50557-1.83346,1.16237-1.38554,2.16235"/><path class="cls-10" d="M510.51448,21.20461c0-.2398-1.11555-.49441-1.3858,0-.00851.2362,1.11529.4871,1.3858,0"/><path class="cls-10" d="M446.44723,21.20461c.36334.11813,2.104-.2103,1.394-.43541-.39712-.11435-2.11248.20665-1.394.43541"/><path class="cls-10" d="M404.65564,18.1777c0-.24352-1.14934-.49442-1.39431,0-.02553.23248,1.11529.49081,1.39431,0"/><path class="cls-10" d="M392.11254,16.44451V15.14566c-2.0787.07747-5.14608-.15867-5.56873.4354,2.76335.00738,1.76616,1.17712,5.56873.86345"/><path class="cls-10" d="M475.68308,14.27884c1.52093.97419,3.78555,1.7159,8.36533,1.73065V13.8508c-2.45054.24724-8.18791-.524-8.36533.428"/><path class="cls-10" d="M280.65918,13.41753c-4.36885.07754-6.69252.80444-6.96277,2.16241,2.628-.096,3.07563.487,5.58523.428.9126-.90409,3.67569-1.91883,1.37754-2.59044"/><path class="cls-10" d="M481.266,10.81944c-.37185-.1107-2.11248.21035-1.3858.43175.38861.12178,2.11248-.20293,1.3858-.43175"/><path class="cls-10" d="M474.28877,9.95813V9.091a22.95235,22.95235,0,0,1-2.78861-.43546c.15214.68264-.16891,1.50926,2.78861,1.30256"/><path class="cls-10" d="M424.15454,9.95813c1.073-.0996,2.74607-.01475,2.78836-.43906-1.08151.0996-2.74632.01475-2.78836.43906"/><path class="cls-10" d="M373.99169,4.76521c.98842.53141-.81977,1.61258,2.79687,1.29525,4.529-1.08855-1.46187-4.11069-5.577-2.59782-.47319.8635,1.95183.845,2.78011,1.30257"/><path class="cls-10" d="M426.93981,5.63011c.37159.11813,2.104-.214,1.40256-.43169-.39712-.11807-2.121.20664-1.40256.43169"/><path class="cls-10" d="M305.757,4.76521c-.40564-.12173-2.1295.2067-1.41133.43175.37185.11807,2.121-.20664,1.41133-.43175"/><path class="cls-10" d="M234.69576,5.19763c.38861.11813,2.11248-.2103,1.40256-.43169-.38036-.12179-2.121.20293-1.40256.43169"/><path class="cls-10" d="M205.43463,3.46444c-3.16047-.11807-5.22214.10338-5.56021.86716,2.00262.10332,2.3492.71221,4.18266.86716-.31254-.81547,1.555-.95939,1.37755-1.73432"/><path class="cls-10" d="M148.3317,3.46444h-4.18293c-.17741.77493,1.37755,1.01108,4.18293.86716Z"/><path class="cls-10" d="M121.86408,2.59954c-.38887-.11807-2.121.21035-1.38579.43175.3801.12179,2.11247-.20664,1.38579-.43175"/><path class="cls-10" d="M467.349.43753c-.00851.2362,1.11529.48709,1.38554,0,0-.23981-1.1238-.49076-1.38554,0"/><path class="cls-10" d="M102.35667-.42744c-.37185-.11807-2.11248.21036-1.3858.43175.38861.11808,2.11248-.20664,1.3858-.43175"/><path class="cls-10" d="M511.90879,25.529c8.847-.31362.09283-2.594-1.39431-1.30256,1.63078.07753,1.5039.69373,1.39431,1.30256"/><path class="cls-10" d="M362.93006,148.42781c.98842.52769-.81977,1.61255,2.79687,1.29522,4.529-1.08855-1.46187-4.1144-5.577-2.60148-.47319.86716,1.95183.845,2.78011,1.30626"/><path class="cls-10" d="M194.37274,147.123c-3.152-.11807-5.22214.10335-5.56021.86716,2.00262.107,2.3492.71586,4.18266.86715-.31253-.81549,1.555-.95569,1.37755-1.73431"/><path class="cls-10" d="M518.96027,148.42781c.88707-1.05164-6.64173-1.62359-6.96277-.86713,2.65323.17711,2.5181,1.23615,6.96277.86713"/><path class="cls-10" d="M137.27007,147.123h-4.18293c-.17741.77862,1.37755,1.01107,4.18293.86716Z"/><path class="cls-10" d="M110.8022,146.26177c-.38887-.12176-2.121.21036-1.3858.42806.3801.12176,2.104-.20664,1.3858-.42806"/><path class="cls-10" d="M456.28294,144.09979c-.00851.23617,1.1238.48341,1.38554,0,0-.24352-1.1238-.49445-1.38554,0"/><path class="cls-10" d="M91.29916,143.23114c-.38036-.11439-2.121.21035-1.3858.43175.38861.11807,2.104-.203,1.3858-.43175"/><path class="cls-10" d="M521.74527,139.77174c.13513-.68265,3.54882-.33946,2.77134-1.30257-2.5096-.36531-3.81932-1.107-6.94575-1.29519-.08458,1.31735,1.25067,2.20664,4.17441,2.59776"/><rect class="cls-11" x="506.42233" y="137.17325" width="2.78836" height="0.86347"/><path class="cls-10" d="M464.62119,135.44409c-1.07325.09225-2.73781.01478-2.77159.42806,1.06449-.08857,2.73756-.00738,2.77159-.42806"/><path class="cls-10" d="M106.61876,134.57915c-.37185-.11807-2.11248.21036-1.40282.42438.38861.12544,2.1295-.203,1.40282-.42438"/><path class="cls-10" d="M167.92189,131.54852c-3.92093-.07748-3.81958-1.41326-6.97979-1.7306,1.71536,1.4022-4.49521.33209-2.78011,1.7306,5.22215-.40219,7.99374,1.83764,9.7599,0"/><path class="cls-10" d="M516.16314,131.54852c-.28752-.524-1.52969-.262-2.77159,0,.01676.43544,2.43352.53876,2.77159,0"/><path class="cls-10" d="M520.351,129.38654c.95463-1.15865-2.88145-.83394-4.19118-1.30257-.81977,1.13283.57454,1.56089,4.19118,1.30257"/><path class="cls-10" d="M489.69888,126.35962c4.24172-1.46124-5.14607-1.30994,0,0"/><path class="cls-10" d="M467.43173,123.3327a21.32906,21.32906,0,0,1,2.77134.42806c-.00825-.43543,1.13231-.50922,1.41133-.86347a20.99261,20.99261,0,0,1-2.79713-.43172c0,.43541-1.132.51291-1.38554.86713"/><path class="cls-10" d="M496.67171,113.81207c.06756-.55349,1.78292-.60146,1.394-1.29888H495.2774c-1.56321.62361-1.50416,1.06273,1.39431,1.29888"/><path class="cls-10" d="M414.47536,112.08217c.39712.1181,2.11248-.214,1.40256-.43541-.38036-.11438-2.104.21033-1.40256.43541"/><path class="cls-10" d="M286.31971,110.78512c.27876-1.24353.17741-2.3653-4.18293-2.16235-.41388.583-1.97709.82287-1.38579,1.73063,1.876.13654,2.67025.61623,5.56872.43172"/><rect class="cls-11" x="265.43062" y="108.19178" width="2.78836" height="0.86347"/><path class="cls-10" d="M374.07369,105.16005c.00826-.23983-1.12406-.49076-1.3858,0-.017.23986,1.12381.49447,1.3858,0"/><path class="cls-10" d="M101.04,100.40324c-.38036-.12176-2.10423.20667-1.3858.42806.38861.11807,2.104-.203,1.3858-.42806"/><path class="cls-10" d="M325.32191,99.9671c.3801-.98523-.32956-1.62728-2.78862-1.72692-1.75765.50554-1.107,1.797,2.78862,1.72692"/><path class="cls-10" d="M266.81229,99.53129c-.92963-1.61252,3.86987-2.535-2.7716-2.59038.83654.88929-2.25611,3.00369,2.7716,2.59038"/><path class="cls-10" d="M234.78292,98.67005c-.38036-.11807-2.11248.20667-1.40282.43543.38036.11439,2.104-.21032,1.40282-.43543"/><path class="cls-10" d="M153.98809,97.80511c-.38036-.11807-2.121.21036-1.3943.43544.3801.11807,2.11247-.20664,1.3943-.43544"/><path class="cls-10" d="M222.24807,97.80511c.42239-.5867,1.98561-.82656,1.38554-1.7306h-5.56846c-.245,1.08118,2.12949,1.35423,4.18292,1.7306"/><path class="cls-10" d="M390.80462,97.37263c1.08151-.09591,2.74606-.01106,2.78835-.43172-1.08151.096-2.75457.01107-2.78835.43172"/><path class="cls-10" d="M141.44164,96.51139c-.20294.4465,1.08151,1.11439,1.394.42806.2112-.45388-1.08151-1.11808-1.394-.42806"/><path class="cls-10" d="M404.71727,93.91323c-.38036-.12176-2.09572.21036-1.3858.42807.39712.12544,2.12924-.203,1.3858-.42807"/><path class="cls-10" d="M414.47536,93.48075c-.37185-.12176-2.10423.21036-1.3858.43175.38861.11807,2.11248-.20664,1.3858-.43175"/><path class="cls-10" d="M195.77556,93.91323a22.20839,22.20839,0,0,0,5.55995-.43172c.43942-1.1439-1.92655-1.42066-5.55995-1.30256Z"/><path class="cls-10" d="M493.89083,93.48075v-.86344h-4.19117c-.16917.77859,1.394,1.00736,4.19117.86344"/><path class="cls-10" d="M477.16868,93.0483c6.54012.13654,3.72623-2.00368,0-2.166-2.60269.82657.828.786,0,2.166"/><path class="cls-10" d="M459.05969,92.18c-1.08177.09594-2.75483.01478-2.7801.43543,1.073-.09963,2.73781-.01475,2.7801-.43543"/><path class="cls-10" d="M305.81862,92.18c.07581-.262.21119-.51292,1.40256-.428v-.87084c-3.43072-.67158-4.1066,1.46864-1.40256,1.29888"/><path class="cls-10" d="M113.58746,91.31877a22.39107,22.39107,0,0,1,2.79687.43175c3.8023-.69743-2.05343-1.45386-2.79687-.43175"/><path class="cls-10" d="M131.70831,90.45015c-1.09028.09225-2.7716.01109-2.79713.43175,1.08177-.096,2.74632-.01107,2.79713-.43175"/><path class="cls-10" d="M457.66951,89.5889c-.38887-.12176-2.11248.20667-1.3858.42438.37159.12913,2.087-.203,1.3858-.42438"/><path class="cls-10" d="M386.62092,89.5889c-1.555.0406-2.16328-.631-2.79713,0,.02553.43175,2.45906.53876,2.79713,0"/><rect class="cls-11" x="397.76481" y="88.71952" width="2.79687" height="0.86716"/><path class="cls-10" d="M219.46745,88.28817c-1.57172.04428-2.17179-.631-2.79713,0,.017.43543,2.442.54244,2.79713,0"/><path class="cls-10" d="M329.51824,87.852c0-.23246-1.14933-.48338-1.41133,0,0,.24354,1.12381.49447,1.41133,0"/><path class="cls-10" d="M468.81753,86.99444c0-.23983-1.13231-.49813-1.3858,0-.02553.23248,1.10678.4871,1.3858,0"/><path class="cls-10" d="M195.77556,86.99444c-1.08177.09225-2.75484.0074-2.78011.42806,1.073-.09226,2.73782-.01475,2.78011-.42806"/><path class="cls-10" d="M467.43173,85.69c.36334.12179,2.11248-.20664,1.38554-.428-.41388-.11807-2.12073.203-1.38554.428"/><path class="cls-10" d="M133.09049,84.82877c-2.67876-.17711-1.09027-1.67894-5.56872-1.29888-3.78554.68264,3.43072,2.57932,5.56872,1.29888"/><path class="cls-10" d="M371.30983,83.53135c-.39738-.12545-2.1295.20667-1.41132.43175.39712.11439,2.11247-.203,1.41132-.43175"/><path class="cls-10" d="M142.836,83.53135c-.38887-.12545-2.11248.20667-1.39431.43175.38861.11439,2.12924-.203,1.39431-.43175"/><path class="cls-10" d="M371.30983,82.66678c-.39738-.12544-2.1295.20667-1.41132.42807.39712.12176,2.11247-.20665,1.41132-.42807"/><path class="cls-10" d="M367.105,82.22693c-2.39149-.02213-3.55759.3358-4.17441.86716,2.20557-.03688,4.84178.05906,4.17441-.86716"/><path class="cls-10" d="M126.12617,82.66678c-.38887-.12544-2.11247.20667-1.3943.42807.3801.12176,2.121-.20665,1.3943-.42807"/><path class="cls-10" d="M364.32,80.93689c.00826-.24352-1.11555-.49445-1.3943,0,0,.23617,1.13231.49078,1.3943,0"/><path class="cls-10" d="M316.97076,80.06863c-1.08177.096-2.74633.01109-2.78862.42806,1.09-.09225,2.74633-.00737,2.78862-.42806"/><path class="cls-10" d="M251.501,80.4974c.3801.12179,2.104-.20664,1.37728-.428-.36334-.12176-2.10422.20664-1.37728.428"/><path class="cls-10" d="M378.26564,77.90628c1.46161-2.5129-6.04191-.18448,0,0"/><path class="cls-10" d="M94.08417,75.30813c0-.23614-1.12406-.49076-1.3858,0,0,.23986,1.1238.49079,1.3858,0"/><path class="cls-10" d="M231.99765,74.87565c-.38887-.11807-2.11247.21036-1.41132.43175.40563.11807,2.12949-.203,1.41132-.43175"/><path class="cls-10" d="M227.80983,74.44688c-.37185-.11807-2.11248.20667-1.39431.42807.39712.12176,2.11248-.20664,1.39431-.42807"/><path class="cls-10" d="M147.02377,72.71367c-.38886-.11439-2.11247.20667-1.40281.43175.38861.12176,2.11248-.20664,1.40281-.43175"/><path class="cls-10" d="M206.92435,70.9838v-.86344h-4.18292c-.18593.7749,1.37754,1.011,4.18292.86344"/><path class="cls-10" d="M489.69888,69.68675c1.78292.02216,1.94332.54982,4.19092.43175,2.15477-1.06274-4.74018-1.27306-4.19092-.43175"/><path class="cls-10" d="M340.64589,68.82182c-1.08177.09225-2.74633.01109-2.78011.42806,1.09-.09226,2.74607-.00738,2.78011-.42806"/><path class="cls-10" d="M236.177,69.25058c.84478-.02213,1.656-.06641,1.38554-.428-2.2899-.01107-.77722-1.20294-2.77985-1.30257-2.43353.8856,1.02246.85238-1.40282,1.7306Z"/><path class="cls-10" d="M255.68439,68.82182H259.85c.39712-.98892-.32105-1.631-2.7801-1.738-.43091.59039-1.9771.82656-1.38554,1.738"/><path class="cls-10" d="M325.32191,67.95685c.01676-.23983-1.12406-.49075-1.39431,0,0,.23249,1.14907.49079,1.39431,0"/><path class="cls-10" d="M254.2893,67.08491c-.38886-.1107-2.121.21036-1.41132.43544.40563.11807,2.11248-.20664,1.41132-.43544"/><path class="cls-10" d="M438.16209,65.3587c-.38887-.12176-2.11248.21036-1.3858.43175.3716.11807,2.11248-.203,1.3858-.43175"/><path class="cls-10" d="M431.206,63.62551v1.73432h4.18267c.36334-1.12915.45617-2.16235-4.18267-1.73432"/><path class="cls-10" d="M392.19531,64.49045c-.38036-.1107-2.12949.214-1.3943.43174.38861.12545,2.121-.203,1.3943-.43174"/><path class="cls-10" d="M192.9988,64.49045c0-.23246-1.14933-.48707-1.40281,0-.00851.24354,1.13231.49816,1.40281,0"/><path class="cls-10" d="M138.67263,64.06168c-1.86751-.56086-5.19688-.56826-5.58549.42806,1.85048.56826,5.17985.572,5.58549-.42806"/><path class="cls-10" d="M252.87488,64.06168c1.78292.02216,1.94332.54982,4.19092.42806,2.16328-1.059-4.72342-1.26937-4.19092-.42806"/><path class="cls-10" d="M467.43173,62.76427c-1.09028.09225-2.7716.01109-2.81389.43174,1.10678-.09594,2.7716-.01475,2.81389-.43174"/><path class="cls-10" d="M243.133,62.33178c-.38887-.12176-2.11248.20667-1.39431.43175.38861.11808,2.11248-.21033,1.39431-.43175"/><path class="cls-10" d="M500.84767,61.46353c1.77441.02584,1.92656.55351,4.19092.43544,2.15477-1.06643-4.73193-1.27676-4.19092-.43544"/><path class="cls-10" d="M250.10174,74.87565c.566-.738,1.79968.08857,4.19092,0V73.57308c-2.71229-.19926-7.13168,1.17343-4.19092,1.30257"/><path class="cls-10" d="M248.7278,64.49045c-2.78861-.00369-1.78317-1.1771-5.594-.86345-1.335,1.059,6.26136,1.43173,5.594.86345"/></g></g></g></svg>