<svg id="圖層_1" data-name="圖層 1" xmlns="http://www.w3.org/2000/svg" viewBox="0 0 54.05874 329.88496"><defs><style>.cls-1{fill:#78d8ff;opacity:0.3;}.cls-2{fill:#4f4f4f;}</style></defs><title>b01</title><rect class="cls-1" width="40.05882" height="329.88496"/><path class="cls-2" d="M37.84389,51.05048H29.1896l-.30079-.69727h9.0918a19.8191,19.8191,0,0,0,.36914-3.88281q2.83008.24609,2.83008.80664,0,.31494-1.14844.69727-.178,1.8457-.23242,2.24218h8.12109l1.06641-1.28515q1.70874,1.28466,1.709,1.709,0,.16407-.25976.32813l-.72461.47851a18.28733,18.28733,0,0,1-1.14844,6.207,3.58561,3.58561,0,0,1-3.71875,2.26954,1.12185,1.12185,0,0,0-.752-1.06641,19.91461,19.91461,0,0,0-3.52734-.80664v-.72461a42.24843,42.24843,0,0,0,4.38867.35547,2.22343,2.22343,0,0,0,2.29687-1.3125,17.38875,17.38875,0,0,0,.834-5.45508H39.6896q-1.72266,7.6831-11.38868,9.65234l-.31445-.69726q5.19507-1.62744,7.45117-4.14258A10.96882,10.96882,0,0,0,37.84389,51.05048Zm-4.9082-14.13672h14.041l1.06641-1.28516q1.70874,1.32569,1.709,1.73633,0,.16407-.28711.32813l-.66993.39648v9.51563H47.19545V46.238H32.66225V47.7829H31.06264V36.05243Q31.445,36.20331,32.93569,36.91376Zm6.166.69727H32.66225v3.44531H39.1017Zm-6.43945,7.92968H39.1017V41.7536H32.66225Zm14.5332-4.48437V37.611H40.64663v3.44531Zm0,.69726H40.64663v3.78711h6.54882Z"/><path class="cls-2" d="M28.61538,68.73114l.72461.082a24.79335,24.79335,0,0,1,.42382,3.97852q0,4.30663-1.76367,4.30664-.95727,0-.957-.90234a2.87192,2.87192,0,0,1,.39649-.97071Q28.57411,73.16133,28.61538,68.73114ZM31.131,88.43231V63.31708q2.77515.041,2.77539.66992,0,.34131-1.14844.82031v23.625Zm2.543-20.52148q2.47412,2.63818,2.47461,4.53906,0,1.17627-1.01172,1.17578-.64306,0-.72461-1.12109a10.53026,10.53026,0,0,0-1.29883-4.16992Zm10.95117,3.39063v6.78125h3.36328l1.33985-1.81836a26.28891,26.28891,0,0,1,1.76367,1.98242l-.32813.5332H44.62514v7.7793H49.383l1.4629-1.95508.32812.32812q.92945.9712,1.57227,1.76368l-.3418.56054H35.32827l-.3418-.69726h7.957V78.78H37.62514l-.28711-.69726H42.9435V71.30146H39.22475a22.57815,22.57815,0,0,1-2.9668,5.94726l-.68359-.39648a33.27213,33.27213,0,0,0,3.19922-11.73047q2.6521.66944,2.65234,1.23047,0,.34131-1.08007.56054-.52,2.48877-.90235,3.69141h3.5V63.49481q2.88427.041,2.88477.72461,0,.38233-1.20313.752v5.63281h4.03321l1.36718-1.8457a21.36611,21.36611,0,0,1,1.627,1.73632l.21875.27344-.30079.53321Z"/><path class="cls-2" d="M39.21108,93.34931a4.46011,4.46011,0,0,1,.957,2.41992,16.41077,16.41077,0,0,1-.7793,4.293,27.501,27.501,0,0,1-2.05078,5.11328,11.88856,11.88856,0,0,1-2.26953,3.30859,3.35493,3.35493,0,0,1-2.32422.97071,2.98249,2.98249,0,0,1-1.98242-1.14844,5.53406,5.53406,0,0,1-1.23047-2.32422,11.031,11.031,0,0,1-.45117-3.18555A9.51622,9.51622,0,0,1,30.0646,98.613a10.52923,10.52923,0,0,1,2.40625-3.24024,11.78473,11.78473,0,0,1,8.25781-3.07617,11.1554,11.1554,0,0,1,6.43945,1.81836,8.62192,8.62192,0,0,1,3.81445,7.45117,8.22587,8.22587,0,0,1-3.30859,7.041,16.53557,16.53557,0,0,1-8.03906,2.91211l-.19141-.80664a13.03863,13.03863,0,0,0,7.30078-3.62305,7.97151,7.97151,0,0,0,2.28321-5.67383,7.86979,7.86979,0,0,0-2.666-6.17968A8.0534,8.0534,0,0,0,40.674,93.2536,11.00488,11.00488,0,0,0,39.21108,93.34931Zm-.86133.17773A11.13777,11.13777,0,0,0,33.756,95.82392a9.04453,9.04453,0,0,0-2.43359,3.28125,8.71557,8.71557,0,0,0-.82031,3.63672A6.70578,6.70578,0,0,0,31.54116,106.57q.62841.95655,1.28515.957a2.12852,2.12852,0,0,0,1.38086-.75195,16.00382,16.00382,0,0,0,2.88477-5.04492,18.92827,18.92827,0,0,0,1.68164-6.22071A3.709,3.709,0,0,0,38.34975,93.527Z"/><path class="cls-2" d="M39.14272,118.59931v-3.47266q2.77515.041,2.77539.66992,0,.32813-1.17578.69727v2.10547h7.7793l1.42187-1.84571q1.10742,1.05322,1.9961,2.03711l-.28711.50586H28.51967l-.27343-.69726Zm-7.54687,9.666H48.5353l1.09375-1.20312q1.74975,1.3125,1.75,1.709a.38866.38866,0,0,1-.23242.32813l-.72461.47851v8.09375q0,2.269-2.80274,2.26953a1.01747,1.01747,0,0,0-.64258-.98437,9.95836,9.95836,0,0,0-3.04882-.58789v-.7793q1.70874.16407,3.29492.16406a2.66607,2.66607,0,0,0,1.44922-.21875.89506.89506,0,0,0,.15039-.56054v-8.01172H31.29506v11.25195H29.69545V127.45868A13.58572,13.58572,0,0,1,31.59585,128.26532Zm4.10156-6.83593h8.832l1.06641-1.20313q1.66772,1.27149,1.668,1.6543,0,.16405-.25976.32812l-.66992.42383v4.32031H44.7892v-1.0664H35.34194v1.14843H33.82436v-6.38476Q34.73989,120.97822,35.69741,121.42939Zm1.14844,9.80273H43.0392l1.01172-1.12109q1.69484,1.21728,1.69532,1.62695a.31832.31832,0,0,1-.20508.27344l-.752.45117v4.19726H43.27163v-.86132H36.54506v1.62695H35.00014v-7.05469Q36.20278,130.89081,36.84585,131.23212Zm-1.50391-9.10547v3.0625H44.7892v-3.0625Zm1.20312,9.80274v3.17187h6.72657v-3.17187Z"/><path class="cls-2" d="M27.31655,166.01532a25.28646,25.28646,0,0,0,1.51758-7.76562q2.51513.54639,2.51562,1.0664,0,.32813-.92969.53321a18.22252,18.22252,0,0,1-2.51562,6.43945ZM30.256,154.8454a55.78373,55.78373,0,0,0,5.40039-8.57226q2.21484.91552,2.21485,1.51757,0,.36915-1.17579.41016A64.367,64.367,0,0,1,31.2267,154.777q1.55861-.06885,5.07227-.38281a9.13341,9.13341,0,0,0-1.55859-2.1875l.35547-.47852q3.47241,2.17383,3.47265,4.53907,0,1.09423-.834,1.09375-.75221,0-.875-1.1211a7.46118,7.46118,0,0,0-.27344-1.17578q-1.83252.397-2.88477.56055v12.59179H32.1017v-12.3457q-1.64062.27393-3.19921.47852-.2461.93017-.51954.92968-.561,0-.98437-2.35156Q28.57412,154.88642,30.256,154.8454Zm.2461-6.94531a30.36722,30.36722,0,0,0,2.10546-5.1543q2.37891.83351,2.37891,1.39453,0,.34131-1.09375.42383a24.70239,24.70239,0,0,1-2.83008,3.74609,3.25237,3.25237,0,0,1,1.46289,2.26954q0,1.03857-.957,1.03906-.53321,0-.7793-.66992a8.6641,8.6641,0,0,0-2.96679-3.75977l.39648-.49219A12.73868,12.73868,0,0,1,30.5021,147.90009Zm4.5664,9.67969q2.91212,2.48877,2.91211,4.70312,0,1.20264-.98437,1.20313-.561,0-.69727-1.23047a9.39348,9.39348,0,0,0-1.668-4.30664Zm5.9336-11.53907H37.28335l-.31446-.69726H46.881l1.03906-1.28516q1.59961,1.38135,1.59961,1.73633,0,.20508-.31445.38281l-.69727.39649a55.48374,55.48374,0,0,1-1.23046,6.084l-.10938.50586h2.35156l1.03907-1.3125q1.68164,1.38135,1.68164,1.791c0,.13671-.08692.24609-.25977.32812l-.7793.42383a21.82507,21.82507,0,0,1-3.418,7.45117,21.6985,21.6985,0,0,0,5.45507,4.55274,5.27236,5.27236,0,0,0-1.39453,1.49023,26.4811,26.4811,0,0,1-4.99023-4.8125,18.2353,18.2353,0,0,1-7.80664,5.05859l-.39649-.58789a18.44516,18.44516,0,0,0,7.31446-5.72851,24.04537,24.04537,0,0,1-3.5-9.4336,31.49849,31.49849,0,0,1-1.38086,7.94336,16.20288,16.20288,0,0,1-5.373,7.80664l-.47852-.46484a18.42877,18.42877,0,0,0,4.90821-9.5293,50.189,50.189,0,0,0,.86133-10.13086Zm1.5996,0v1.33985a21.94245,21.94245,0,0,0,4.22461,13.28906,21.99334,21.99334,0,0,0,2.85743-6.80859H46.963q0,.02783-.35547,1.25781l-1.54492-.27344a69.61,69.61,0,0,0,1.92774-8.80469Z"/><path class="cls-2" d="M47.07241,194.72138H35.71108v1.5039H34.11147v-9.39257a21.463,21.463,0,0,1-6.33008,5.61914l-.45117-.56055a21.809,21.809,0,0,0,7.58789-9.584H28.13686l-.35547-.69726h11.334V178.78h-8.627l-.35547-.69726h8.98243v-2.625H29.258l-.30078-.69727H42.13686l.10938-.19141a19.982,19.982,0,0,0,1.9414-3.86914q2.4331.88917,2.4336,1.43555,0,.38232-1.25782.38281a15.31133,15.31133,0,0,1-2.24218,2.24219h5.04492l1.33984-1.59961a13.00983,13.00983,0,0,1,1.68164,1.76367l-.31445.53321H40.715v2.625h6.28906l1.18945-1.50391a12.9061,12.9061,0,0,1,1.68164,1.69531l-.34179.50586H40.715v2.83008h8.47656l1.35351-1.6543a19.53889,19.53889,0,0,1,1.873,1.81836l-.3418.5332H36.70913l-.10938.28711a20.51142,20.51142,0,0,1-1.01172,1.96875l.15039.05469a1.58917,1.58917,0,0,0,.19141.082H46.81264l1.06641-1.24414q1.77686,1.23047,1.77734,1.668,0,.1919-.28711.35547l-.69726.45117v10.29492H47.07241ZM34.04311,170.864q3.67749.88915,3.67774,2.69335a1.00458,1.00458,0,0,1-.45118.84766.93785.93785,0,0,1-.58789.24609q-.61523,0-.875-.90234a4.12054,4.12054,0,0,0-2.03711-2.37891Zm13.0293,16.69335v-2.16015H35.71108v2.16015Zm0,3.10352v-2.40625H35.71108v2.40625Zm0,3.36328v-2.666H35.71108v2.666Z"/><path class="cls-2" d="M33.64663,206.38837v6.6582q2.51512-.65625,4.27929-1.23047l.123.69727q-2.748,1.10742-4.32031,1.68164l-.16406.082v9.93945H31.965v-9.3789q-1.5586.50536-3.02149.92969-.123.99755-.47851.998-.561,0-1.23047-2.40625,2.488-.38232,4.8125-.916v-7.05469H29.80483a25.22706,25.22706,0,0,1-1.8457,6.01562l-.64258-.24609a43.24339,43.24339,0,0,0,1.39453-11.42969q2.529.13623,2.5293.71094,0,.3003-.92969.64258a30.865,30.865,0,0,1-.39649,3.60937H32.047v-6.57617q2.69311.041,2.69336.64258,0,.34131-1.09375.80664v5.12695h1.44922l1.21679-1.791a14.249,14.249,0,0,1,1.50391,2.00976l-.30078.47852Zm14.082-.82031a31.199,31.199,0,0,1-2.35156,8.59961,21.634,21.634,0,0,1-8.51758,9.24218l-.50586-.5332q8.13428-5.86524,9.77539-17.30859H43.99624a20.1458,20.1458,0,0,1-8.02539,12.41406l-.47852-.50586a21.69357,21.69357,0,0,0,6.89062-11.9082H40.11342a22.94727,22.94727,0,0,1-3.65039,5.93359l-.58789-.38281a28.57423,28.57423,0,0,0,4.34766-12.07227q2.57007.46436,2.57031,1.06641,0,.32813-1.06641.58789a30.20969,30.20969,0,0,1-1.33984,4.16992H49.547l1.01172-1.3125q1.70874,1.32569,1.709,1.791,0,.21825-.31445.38281l-.64258.36914q-.041,12.29151-1.36719,15.85938a3.2367,3.2367,0,0,1-3.44531,2.09179,1.20893,1.20893,0,0,0-.92969-1.20312,18.31238,18.31238,0,0,0-2.93945-.72461v-.752a26.79811,26.79811,0,0,0,4.00586.35547,1.77527,1.77527,0,0,0,1.92773-1.23047q1.13452-3.65038,1.17578-14.92968Z"/><path class="cls-2" d="M31.18569,231.63935a5.68837,5.68837,0,0,0,1.46289,1.05273,3.18033,3.18033,0,0,0,1.3125.24609q1.03857,0,4.64844-.25976,3.9375-.27393,6.82226-.64258a2.54991,2.54991,0,0,0,1.29883-.50586.91342.91342,0,0,1,.51953-.19141q.39624,0,1.29883.88868.7793.79248.7793,1.21679,0,.25929-.56055.66993a3.06252,3.06252,0,0,0-.7793,1.33984,26.9598,26.9598,0,0,1-5.07226,8.709,26.04745,26.04745,0,0,1-9.4336,6.28907l-.45117-.69727A25.43127,25.43127,0,0,0,42.51967,242.03a25.09494,25.09494,0,0,0,4.03321-8.873q-5.387.50538-10.63672,1.17579a5.827,5.827,0,0,0-1.76367.45117,1.93369,1.93369,0,0,1-.86133.16406,2.16433,2.16433,0,0,1-1.42188-.88867,8.66271,8.66271,0,0,1-1.29883-1.94141Zm19.87891-5.1543a2.74639,2.74639,0,0,1,2.7207,2.7207,2.72994,2.72994,0,0,1-4.75781,1.84571,2.67727,2.67727,0,0,1-.71094-1.84571,2.58632,2.58632,0,0,1,.90234-2.00976A2.67952,2.67952,0,0,1,51.0646,226.48505Zm0,.90234a1.77946,1.77946,0,0,0-1.36719.61524,1.72057,1.72057,0,0,0-.47852,1.20312,1.86132,1.86132,0,0,0,1.84571,1.84571,1.7255,1.7255,0,0,0,1.33984-.61524,1.78807,1.78807,0,0,0,.47851-1.23047,1.86286,1.86286,0,0,0-1.81835-1.81836Z"/><path class="cls-2" d="M31.54116,260.6911a4.464,4.464,0,0,0,1.36719.90235,3.78393,3.78393,0,0,0,1.29882.1914q1.20264,0,3.77344-.1914,4.44287-.34131,7.082-.56055a3.15594,3.15594,0,0,0,1.49024-.42383,1.0013,1.0013,0,0,1,.5332-.21875q.41016,0,1.12109.752a1.97267,1.97267,0,0,1,.66993,1.17578q0,.34131-.50586.58789a1.98683,1.98683,0,0,0-.69727,1.01172,22.83415,22.83415,0,0,1-5.332,7.834,21.57071,21.57071,0,0,1-7.54688,4.34766l-.39648-.72461a20.34056,20.34056,0,0,0,11.75781-13.19336q-4.40259.31494-9.7207.916a8.29216,8.29216,0,0,0-2.03711.39649,2.78755,2.78755,0,0,1-.80664.16406,2.29847,2.29847,0,0,1-1.49024-.834,5.2855,5.2855,0,0,1-1.17578-1.68164Zm2.543-5.83789a4.73346,4.73346,0,0,0,2.93945.88868q1.07959,0,2.37891-.082,1.5996-.0952,2.584-.21875a4.59081,4.59081,0,0,0,1.53125-.39648,1.62552,1.62552,0,0,1,.84766-.24609,2.48067,2.48067,0,0,1,1.4082.41015q.51929.32813.51953.71094,0,.77929-.834.7793-.58814,0-1.81836.05468-2.32471.09522-6.52149.45118l-.58789.05468-.68359.082q-1.08033,0-2.32422-1.95507Z"/><path class="cls-2" d="M31.85561,279.72821a11.68963,11.68963,0,0,1,4.8125,2.4336,3.16432,3.16432,0,0,1,1.23047,2.1875q0,1.42236-1.06641,1.42187-.46509,0-1.12109-1.09375a12.331,12.331,0,0,0-4.22461-4.27929Zm.41016,15.17578q.75145,1.1206,1.54492,1.1211a6.52261,6.52261,0,0,0,2.69336-.92969,37.62974,37.62974,0,0,0,14.13672-12.45508l.64258.56055a33.4534,33.4534,0,0,1-6.05665,7.875,39.906,39.906,0,0,1-8.08007,5.72852,16.71247,16.71247,0,0,0-1.96875,1.17578,1.85889,1.85889,0,0,1-1.28516.45117q-.42406,0-1.16211-.94336a7.13575,7.13575,0,0,1-1.10742-2.14649Z"/></svg>