<svg id="圖層_1" data-name="圖層 1" xmlns="http://www.w3.org/2000/svg" viewBox="0 0 54.05881 329.88496"><defs><style>.cls-1{fill:#e67f6c;opacity:0.3;}.cls-2{fill:#4f4f4f;}</style></defs><title>b01</title><rect class="cls-1" width="40.05882" height="329.88496"/><path class="cls-2" d="M39.08811,44.93753a24.39832,24.39832,0,0,0,.57422-4.32031,1.28468,1.28468,0,0,0-.47852-1.03906,5.09262,5.09262,0,0,0-1.10742-.61524l.28711-.75195a6.07249,6.07249,0,0,1,2.625.80664q.77929.49218.7793,1.01172a1.67661,1.67661,0,0,1-.082.5332,16.90718,16.90718,0,0,0-.47852,2.05078q-.219,1.13526-.4375,2.17383,3.77345-.35595,5.5918-.58789a1.421,1.421,0,0,0,.86133-.35547q.36913-.36914.56054-.36914a2.485,2.485,0,0,1,1.38086.834q.8064.82032.80664,1.27149,0,.32813-.50586.69726a1.20845,1.20845,0,0,0-.5332.916,40.98781,40.98781,0,0,1-1.53125,7.01367A15.92477,15.92477,0,0,1,45.4592,58.5137q-.90234,1.36671-1.873,1.36719-.7251,0-.72461-.69727a2.17352,2.17352,0,0,0-.39649-.92968,13.657,13.657,0,0,0-2.3789-2.4336l.47851-.72461q1.07959.79248,2.61133,1.791a1.87077,1.87077,0,0,0,.94336.39648q.2732,0,.50586-.47851a31.56728,31.56728,0,0,0,2.85742-11.457q-2.46093.13623-6.97265.61523a26.59828,26.59828,0,0,1-3.26758,7.84766A19.59609,19.59609,0,0,1,29.81858,60.25l-.50586-.66992A21.768,21.768,0,0,0,38.801,46.14066q-2.26977.31494-3.85547.5332a3.31589,3.31589,0,0,0-1.23047.28711,1.89082,1.89082,0,0,1-.90234.21875q-.5061,0-1.23047-.875a7.70516,7.70516,0,0,1-1.12109-1.8457l.64258-.45118a4.78675,4.78675,0,0,0,1.38086,1.08008,4.19247,4.19247,0,0,0,1.44921.19141Q35.68358,45.27933,39.08811,44.93753Z"/><path class="cls-2" d="M34.63108,66.47073l.61523-.47851q3.33546,2.24268,3.33594,4.293,0,1.25829-1.03906,1.25781a.725.725,0,0,1-.65625-.31445,3.58454,3.58454,0,0,1-.32813-1.02539A8.2204,8.2204,0,0,0,34.63108,66.47073ZM37.885,81.03128l-.42383-.66992a29.23539,29.23539,0,0,0,7.28711-5.90625,18.364,18.364,0,0,0,3.65039-6.83594,5.53559,5.53559,0,0,0,.28711-1.39453q0-.5332-1.1211-1.03906l.25977-.64258a6.77983,6.77983,0,0,1,2.33789.86133q.79248.52.793,1.09375a.96526.96526,0,0,1-.21875.64258,3.99909,3.99909,0,0,0-.56055,1.12109,25.12415,25.12415,0,0,1-5.168,8.13477A26.23779,26.23779,0,0,1,37.885,81.03128Zm1.81836-15.90039.61523-.47852a12.16057,12.16057,0,0,1,2.44727,2.502,3.44092,3.44092,0,0,1,.6289,1.92773q0,1.34034-1.12109,1.33985a.60423.60423,0,0,1-.57422-.32813,4.22625,4.22625,0,0,1-.31445-1.12109A9.595,9.595,0,0,0,39.70335,65.13089Z"/><path class="cls-2" d="M31.18577,88.751a5.68837,5.68837,0,0,0,1.46289,1.05273,3.18032,3.18032,0,0,0,1.3125.2461q1.03857,0,4.64844-.25977,3.9375-.27393,6.82226-.64258a2.54983,2.54983,0,0,0,1.29883-.50586.9134.9134,0,0,1,.51953-.1914q.39624,0,1.29883.88867.77929.79248.7793,1.2168,0,.25928-.56055.66992a3.06242,3.06242,0,0,0-.7793,1.33984,26.96,26.96,0,0,1-5.07226,8.709,26.04756,26.04756,0,0,1-9.4336,6.28906l-.45117-.69727a25.43127,25.43127,0,0,0,9.48828-7.72461,25.09478,25.09478,0,0,0,4.0332-8.873q-5.387.50536-10.63671,1.17578a5.82716,5.82716,0,0,0-1.76368.45117,1.93367,1.93367,0,0,1-.86132.16406,2.16433,2.16433,0,0,1-1.42188-.88867,8.66238,8.66238,0,0,1-1.29883-1.94141Zm19.8789-5.1543a2.74639,2.74639,0,0,1,2.72071,2.7207,2.72995,2.72995,0,0,1-4.75782,1.84571,2.6773,2.6773,0,0,1-.71093-1.84571,2.58634,2.58634,0,0,1,.90234-2.00976A2.67955,2.67955,0,0,1,51.06467,83.59671Zm0,.90234a1.77946,1.77946,0,0,0-1.36718.61524,1.72057,1.72057,0,0,0-.47852,1.20312,1.8613,1.8613,0,0,0,1.8457,1.84571,1.72552,1.72552,0,0,0,1.33985-.61524,1.78812,1.78812,0,0,0,.47851-1.23047,1.86286,1.86286,0,0,0-1.81836-1.81836Z"/><path class="cls-2" d="M28.19163,130.29105a15.59878,15.59878,0,0,0,5.12695-6.207,17.79414,17.79414,0,0,0,1.33984-7.17774,2.08821,2.08821,0,0,0-.42382-1.54492,3.57518,3.57518,0,0,0-1.14844-.69727l.28711-.72461a6.46987,6.46987,0,0,1,2.40625.66993q.98438.53319.98437,1.14843a2.837,2.837,0,0,1-.10937.752q-.10987.479-.28711,1.90039a18.59923,18.59923,0,0,1-2.5293,7.82031,15.48029,15.48029,0,0,1-5.14062,4.73047Zm24.2539-11.03321a26.97071,26.97071,0,0,1-4.51172,5.46875,59.3788,59.3788,0,0,1-5.09961,4.19727,5.33928,5.33928,0,0,0-.957.834.63354.63354,0,0,1-.49218.3418q-.53321,0-1.1211-.80664a1.69827,1.69827,0,0,1-.39648-.92969,1.88672,1.88672,0,0,1,.13672-.47851,6.26028,6.26028,0,0,0,.17773-1.3125q.05419-1.51758.05469-7.84766a33.98272,33.98272,0,0,0-.21875-5.45508,2.07858,2.07858,0,0,0-1.51758-1.28515l.24609-.793a8.30851,8.30851,0,0,1,2.85743.77929,1.20952,1.20952,0,0,1,.58789,1.09375,2.98615,2.98615,0,0,1-.10938.76563,11.1836,11.1836,0,0,0-.20508,2.11914q-.16405,8.4082-.16406,11.42969a32.11905,32.11905,0,0,0,5.56445-3.91016,46.27934,46.27934,0,0,0,4.55274-4.74414Z"/><path class="cls-2" d="M47.07249,158.20023H35.71116v1.5039H34.11155v-9.39258a21.463,21.463,0,0,1-6.33008,5.61915l-.45117-.56055a21.809,21.809,0,0,0,7.58789-9.584H28.13694l-.35547-.69726h11.334v-2.83008h-8.627l-.35547-.69727h8.98242v-2.625H29.258l-.30078-.69726H42.13694l.10937-.19141a19.98153,19.98153,0,0,0,1.94141-3.86914q2.4331.88917,2.43359,1.43555,0,.38232-1.25781.38281a15.31094,15.31094,0,0,1-2.24219,2.24219h5.04493l1.33984-1.59961a13.01044,13.01044,0,0,1,1.68164,1.76367l-.31445.5332H40.71506v2.625h6.28907l1.18945-1.5039a12.90671,12.90671,0,0,1,1.68164,1.69531l-.3418.50586H40.71506v2.83008h8.47657l1.35351-1.6543a19.53889,19.53889,0,0,1,1.873,1.81836l-.3418.5332H36.7092l-.10937.28711a20.51142,20.51142,0,0,1-1.01172,1.96875l.15039.05469a1.58917,1.58917,0,0,0,.19141.082H46.81272l1.06641-1.24414q1.77685,1.23047,1.77734,1.668,0,.1919-.28711.35547l-.69726.45117v10.29492H47.07249ZM34.04319,134.3428q3.67749.88917,3.67773,2.69336a1.00457,1.00457,0,0,1-.45117.84766.93785.93785,0,0,1-.58789.24609q-.61524,0-.875-.90234a4.12061,4.12061,0,0,0-2.03711-2.37891Zm13.0293,16.69336V148.876H35.71116v2.16015Zm0,3.10352v-2.40625H35.71116v2.40625Zm0,3.36328v-2.666H35.71116v2.666Z"/><path class="cls-2" d="M33.6467,169.86722v6.6582q2.51514-.65625,4.2793-1.23047l.123.69727q-2.748,1.10742-4.32031,1.68164l-.16407.082v9.93945H31.96506v-9.3789q-1.55859.50536-3.02148.92968-.123.99756-.47852.99805-.561,0-1.23046-2.40625,2.488-.38232,4.8125-.916v-7.05469H29.80491a25.227,25.227,0,0,1-1.84571,6.01562l-.64257-.24609a43.24381,43.24381,0,0,0,1.39453-11.42969q2.529.13623,2.52929.71094,0,.3003-.92968.64258a30.8672,30.8672,0,0,1-.39649,3.60937H32.0471v-6.57617q2.69311.041,2.69335.64258,0,.34131-1.09375.80664V169.17h1.44922l1.2168-1.791a14.249,14.249,0,0,1,1.50391,2.00976l-.30078.47852Zm14.082-.82031a31.19934,31.19934,0,0,1-2.35157,8.59961,21.63392,21.63392,0,0,1-8.51757,9.24218l-.50586-.5332q8.13427-5.86524,9.77539-17.30859H43.99631A20.14571,20.14571,0,0,1,35.97092,181.461l-.47851-.50586a21.69357,21.69357,0,0,0,6.89062-11.9082H40.1135a22.94727,22.94727,0,0,1-3.65039,5.93359l-.58789-.38281a28.57436,28.57436,0,0,0,4.34766-12.07227q2.57007.46436,2.57031,1.06641,0,.32813-1.06641.58789a30.20969,30.20969,0,0,1-1.33984,4.16992H49.5471l1.01171-1.3125q1.70874,1.32568,1.709,1.791,0,.21825-.31445.38281l-.64258.36914q-.041,12.29151-1.36719,15.85937a3.23672,3.23672,0,0,1-3.44531,2.0918,1.20893,1.20893,0,0,0-.92969-1.20312,18.31127,18.31127,0,0,0-2.93945-.72461v-.752a26.798,26.798,0,0,0,4.00586.35547,1.77527,1.77527,0,0,0,1.92773-1.23047q1.13453-3.65038,1.17578-14.92968Z"/><path class="cls-2" d="M31.18577,195.1182a5.68837,5.68837,0,0,0,1.46289,1.05273,3.18033,3.18033,0,0,0,1.3125.24609q1.03857,0,4.64844-.25976,3.9375-.27393,6.82226-.64258a2.54991,2.54991,0,0,0,1.29883-.50586.91342.91342,0,0,1,.51953-.19141q.39624,0,1.29883.88868.77929.79248.7793,1.21679,0,.25928-.56055.66992a3.06254,3.06254,0,0,0-.7793,1.33985,26.95991,26.95991,0,0,1-5.07226,8.709,26.04745,26.04745,0,0,1-9.4336,6.28907l-.45117-.69727a25.43127,25.43127,0,0,0,9.48828-7.72461,25.09475,25.09475,0,0,0,4.0332-8.873q-5.387.50538-10.63671,1.17578a5.82741,5.82741,0,0,0-1.76368.45118,1.93367,1.93367,0,0,1-.86132.16406,2.16433,2.16433,0,0,1-1.42188-.88867,8.66261,8.66261,0,0,1-1.29883-1.94141Zm19.8789-5.1543a2.74639,2.74639,0,0,1,2.72071,2.7207,2.72994,2.72994,0,0,1-4.75782,1.8457,2.67728,2.67728,0,0,1-.71093-1.8457,2.58632,2.58632,0,0,1,.90234-2.00976A2.6795,2.6795,0,0,1,51.06467,189.9639Zm0,.90234a1.77946,1.77946,0,0,0-1.36718.61524,1.72057,1.72057,0,0,0-.47852,1.20312,1.86129,1.86129,0,0,0,1.8457,1.8457,1.72551,1.72551,0,0,0,1.33985-.61523,1.78812,1.78812,0,0,0,.47851-1.23047,1.86286,1.86286,0,0,0-1.81836-1.81836Z"/><path class="cls-2" d="M31.54124,224.17a4.46405,4.46405,0,0,0,1.36718.90235,3.784,3.784,0,0,0,1.29883.1914q1.20264,0,3.77344-.1914,4.44286-.34131,7.082-.56055a3.15586,3.15586,0,0,0,1.49023-.42383,1.00136,1.00136,0,0,1,.53321-.21875q.41016,0,1.12109.75195a1.97269,1.97269,0,0,1,.66992,1.17579q0,.34131-.50586.58789a1.98689,1.98689,0,0,0-.69726,1.01172,22.83439,22.83439,0,0,1-5.332,7.834,21.5708,21.5708,0,0,1-7.54688,4.34766l-.39648-.72461a20.34056,20.34056,0,0,0,11.75781-13.19336q-4.40259.31494-9.7207.916a8.29216,8.29216,0,0,0-2.03711.39649,2.78755,2.78755,0,0,1-.80664.16406,2.29847,2.29847,0,0,1-1.49024-.834,5.28543,5.28543,0,0,1-1.17578-1.68165Zm2.543-5.83789a4.73351,4.73351,0,0,0,2.93946.88867q1.07958,0,2.3789-.082,1.59961-.0952,2.584-.21875a4.59089,4.59089,0,0,0,1.53125-.39648,1.62553,1.62553,0,0,1,.84765-.2461,2.48071,2.48071,0,0,1,1.40821.41016q.51929.32813.51953.71094,0,.7793-.834.7793-.58814,0-1.81835.05468-2.32471.09522-6.52149.45117l-.58789.05469-.68359.082q-1.08033,0-2.32422-1.95507Z"/><path class="cls-2" d="M31.85569,243.20706a11.68963,11.68963,0,0,1,4.8125,2.4336,3.16432,3.16432,0,0,1,1.23047,2.1875q0,1.42236-1.06641,1.42187-.46509,0-1.12109-1.09375a12.33124,12.33124,0,0,0-4.22461-4.2793Zm.41016,15.17578q.75146,1.12061,1.54492,1.1211a6.52261,6.52261,0,0,0,2.69336-.92969,37.62982,37.62982,0,0,0,14.13672-12.45508l.64257.56055a33.45337,33.45337,0,0,1-6.05664,7.875,39.90544,39.90544,0,0,1-8.08008,5.72851A16.71342,16.71342,0,0,0,35.178,261.459a1.85885,1.85885,0,0,1-1.28515.45117q-.42408,0-1.16211-.94336a7.13575,7.13575,0,0,1-1.10742-2.14649Z"/></svg>