<svg id="圖層_1" data-name="圖層 1" xmlns="http://www.w3.org/2000/svg" viewBox="0 0 54.05888 329.88496"><defs><style>.cls-1{fill:#e9c299;opacity:0.3;}.cls-2{fill:#4f4f4f;}</style></defs><title>b01</title><rect class="cls-1" width="40.05882" height="329.88496"/><path class="cls-2" d="M42.67021,55.57627q8.1482,3.65039,8.14844,5.64648,0,.93018-.834.92969-.397,0-1.627-1.06641a40.72474,40.72474,0,0,0-6.50781-4.30664q-4.00635,4.853-13.57617,5.90625l-.35547-.66992q8.73633-1.47657,12.45508-6.0293a59.316,59.316,0,0,0-6.8086-2.93945q-.54711,1.05322-1.33984,2.5293L30.68,55.01572a76.43582,76.43582,0,0,0,4.40234-9.10547l.24609-.58789H27.973l-.39649-.69727h8.03906q1.46265-3.82762,2.35157-6.80859,2.59716.46436,2.59765,1.03906,0,.38234-1.3125.66993-.90234,2.83006-1.8457,5.0996H48.91826l1.58594-2.13281A28.89615,28.89615,0,0,1,52.555,44.76181l-.31446.56055H46.73076A30.16178,30.16178,0,0,1,42.67021,55.57627ZM41.15263,54.92a29.10865,29.10865,0,0,0,3.73242-9.59766H37.11943q-1.38135,3.40429-3.18555,7.05469Q37.24223,53.34824,41.15263,54.92Z"/><path class="cls-2" d="M28.61552,71.339l.72461.082a24.79239,24.79239,0,0,1,.42383,3.97852q0,4.30663-1.76367,4.30664-.95727,0-.957-.90234a2.87181,2.87181,0,0,1,.39648-.97071Q28.57427,75.76915,28.61552,71.339Zm2.51563,19.70117V65.9249q2.77515.041,2.77539.66992,0,.34131-1.14844.82031v23.625Zm2.543-20.52148q2.47411,2.63819,2.47461,4.53906,0,1.17627-1.01172,1.17578-.64306,0-.72461-1.12109a10.53021,10.53021,0,0,0-1.29883-4.16992Zm10.95117,3.39062v6.78125h3.36328l1.33984-1.81835a26.28742,26.28742,0,0,1,1.76368,1.98242l-.32813.5332H44.62529v7.7793H49.3831L50.846,87.212l.32813.32812q.92945.97119,1.57226,1.76368l-.34179.56054H35.32841l-.34179-.69726h7.957v-7.7793H37.62529l-.28711-.69727h5.60547V73.90927H39.2249a22.57867,22.57867,0,0,1-2.9668,5.94727l-.68359-.39648a33.27213,33.27213,0,0,0,3.19922-11.73047q2.65209.66944,2.65234,1.23047,0,.3413-1.08008.56054-.52,2.48877-.90234,3.69141h3.5V66.10263q2.88428.041,2.88476.72461,0,.38233-1.20312.752V73.212h4.0332l1.36719-1.8457a21.36779,21.36779,0,0,1,1.627,1.73632l.21875.27344-.30078.5332Z"/><path class="cls-2" d="M39.21123,95.95713a4.46008,4.46008,0,0,1,.957,2.41992,16.41126,16.41126,0,0,1-.7793,4.293,27.50165,27.50165,0,0,1-2.05078,5.11328,11.88878,11.88878,0,0,1-2.26953,3.30859,3.35492,3.35492,0,0,1-2.32422.9707,2.98246,2.98246,0,0,1-1.98242-1.14843,5.534,5.534,0,0,1-1.23047-2.32422,11.031,11.031,0,0,1-.45117-3.18555,9.51621,9.51621,0,0,1,.98437-4.18359A10.52955,10.52955,0,0,1,32.471,97.98056a11.78476,11.78476,0,0,1,8.25781-3.07617,11.15544,11.15544,0,0,1,6.43946,1.81836,8.62192,8.62192,0,0,1,3.81445,7.45117,8.2259,8.2259,0,0,1-3.30859,7.041,16.53557,16.53557,0,0,1-8.03907,2.91211l-.1914-.80664a13.03867,13.03867,0,0,0,7.30078-3.623,7.97154,7.97154,0,0,0,2.2832-5.67383,7.86982,7.86982,0,0,0-2.666-6.17969,8.05346,8.05346,0,0,0-5.6875-1.98242A11.00477,11.00477,0,0,0,39.21123,95.95713Zm-.86133.17773a11.13765,11.13765,0,0,0-4.59375,2.29688,9.04455,9.04455,0,0,0-2.4336,3.28125,8.71568,8.71568,0,0,0-.82031,3.63671,6.70579,6.70579,0,0,0,1.03906,3.82813q.62843.95654,1.28516.957a2.12852,2.12852,0,0,0,1.38086-.752,16.004,16.004,0,0,0,2.88477-5.04492,18.92827,18.92827,0,0,0,1.68164-6.22071A3.70911,3.70911,0,0,0,38.3499,96.13486Z"/><path class="cls-2" d="M39.14287,121.20713v-3.47266q2.77513.041,2.77539.66992,0,.32813-1.17578.69727v2.10547h7.77929l1.42188-1.84571q1.10742,1.05323,1.99609,2.03711l-.28711.50586H28.51982l-.27344-.69726Zm-7.54688,9.666H48.53545L49.6292,129.67q1.74975,1.3125,1.75,1.709a.38865.38865,0,0,1-.23243.32813l-.72461.47851v8.09375q0,2.269-2.80273,2.26953a1.01748,1.01748,0,0,0-.64258-.98437,9.95806,9.95806,0,0,0-3.04883-.58789v-.7793q1.70874.16407,3.29493.16406a2.666,2.666,0,0,0,1.44921-.21875.895.895,0,0,0,.15039-.56054v-8.01172H31.29521v11.25195H29.6956V130.0665A13.58383,13.58383,0,0,1,31.596,130.87314Zm4.10156-6.83594h8.832l1.0664-1.20312q1.66773,1.27149,1.668,1.6543,0,.16405-.25976.32812l-.66993.42383v4.32031H44.78935v-1.0664H35.34209v1.14843H33.82451v-6.38476Q34.74,123.586,35.69755,124.0372Zm1.14844,9.80274h6.19336l1.01172-1.1211q1.69482,1.2173,1.69531,1.627a.31832.31832,0,0,1-.20508.27344l-.752.45117v4.19726H43.27177v-.86133H36.54521v1.627H35.00029v-7.05469Q36.20293,133.49863,36.846,133.83994Zm-1.5039-9.10547v3.0625h9.44726v-3.0625Zm1.20312,9.80273v3.17188h6.72656V134.5372Z"/><path class="cls-2" d="M27.3167,168.62314a25.28617,25.28617,0,0,0,1.51757-7.76562q2.51514.54637,2.51563,1.0664,0,.32813-.92969.53321a18.2229,18.2229,0,0,1-2.51562,6.43945Zm2.93945-11.16992a55.78409,55.78409,0,0,0,5.40039-8.57227q2.21484.91554,2.21484,1.51758,0,.36915-1.17578.41016a64.367,64.367,0,0,1-5.46875,6.57617q1.55859-.06885,5.07227-.38281a9.1332,9.1332,0,0,0-1.5586-2.1875l.35547-.47852q3.47241,2.17383,3.47266,4.53906,0,1.09425-.834,1.09375-.75219,0-.875-1.12109a7.46008,7.46008,0,0,0-.27343-1.17578q-1.83252.397-2.88477.56055v12.59179H32.10185v-12.3457q-1.64062.27393-3.19922.47852-.24609.93016-.51953.92968-.561,0-.98437-2.35156Q28.57427,157.49424,30.25615,157.45322Zm.24609-6.94531a30.3664,30.3664,0,0,0,2.10547-5.1543q2.37891.83349,2.37891,1.39453,0,.34131-1.09375.42383a24.70371,24.70371,0,0,1-2.83008,3.74609,3.25238,3.25238,0,0,1,1.46289,2.26953q0,1.03858-.957,1.03907-.5332,0-.7793-.66992a8.66409,8.66409,0,0,0-2.9668-3.75977l.39649-.49219A12.73826,12.73826,0,0,1,30.50224,150.50791Zm4.56641,9.67968q2.9121,2.48877,2.91211,4.70313,0,1.20264-.98438,1.20312-.561,0-.69726-1.23046a9.39359,9.39359,0,0,0-1.668-4.30664Zm5.93359-11.53906H37.28349l-.31445-.69726h9.91211l1.03906-1.28516q1.59962,1.38135,1.59961,1.73633,0,.20508-.31445.38281l-.69727.39649a55.48362,55.48362,0,0,1-1.23047,6.084l-.10937.50586h2.35156l1.03906-1.3125q1.68165,1.38135,1.68164,1.791,0,.20508-.25976.32813l-.7793.42383a21.82488,21.82488,0,0,1-3.418,7.45117,21.69849,21.69849,0,0,0,5.45508,4.55273,5.27253,5.27253,0,0,0-1.39453,1.49024,26.48116,26.48116,0,0,1-4.99024-4.8125,18.2353,18.2353,0,0,1-7.80664,5.05859l-.39648-.58789a18.44513,18.44513,0,0,0,7.31445-5.72851,24.04553,24.04553,0,0,1-3.5-9.4336,31.49857,31.49857,0,0,1-1.38086,7.94336,16.20286,16.20286,0,0,1-5.373,7.80664l-.47852-.46484a18.42868,18.42868,0,0,0,4.9082-9.5293,50.189,50.189,0,0,0,.86133-10.13086Zm1.59961,0v1.33985a21.94239,21.94239,0,0,0,4.22461,13.28906,21.993,21.993,0,0,0,2.85742-6.8086h-2.7207q0,.02784-.35547,1.25782l-1.54492-.27344a69.60858,69.60858,0,0,0,1.92773-8.80469Z"/><path class="cls-2" d="M47.07255,197.3292H35.71123v1.5039H34.11162v-9.39258a21.463,21.463,0,0,1-6.33008,5.61915l-.45117-.56055a21.809,21.809,0,0,0,7.58789-9.584H28.137l-.35547-.69726h11.334v-2.83008H30.48857l-.35547-.69727h8.98242v-2.625H29.2581l-.30078-.69726H42.137l.10937-.19141a19.98153,19.98153,0,0,0,1.94141-3.86914q2.43311.88917,2.43359,1.43555,0,.38232-1.25781.38281a15.31094,15.31094,0,0,1-2.24219,2.24219H48.1663l1.33985-1.59961a13.01044,13.01044,0,0,1,1.68164,1.76367l-.31445.5332H40.71513v2.625H47.0042l1.18945-1.5039a12.90671,12.90671,0,0,1,1.68164,1.69531l-.3418.50586H40.71513v2.83008H49.1917l1.35351-1.6543a19.54005,19.54005,0,0,1,1.873,1.81836l-.3418.5332H36.70927l-.10937.28711a20.51142,20.51142,0,0,1-1.01172,1.96875l.15039.05469a1.58849,1.58849,0,0,0,.19141.082H46.81279l1.06641-1.24414q1.77685,1.23047,1.77734,1.668,0,.19189-.28711.35547l-.69727.45117V198.8331H47.07255ZM34.04326,173.47177q3.67749.88917,3.67773,2.69336a1.00457,1.00457,0,0,1-.45117.84766.93785.93785,0,0,1-.58789.24609q-.61524,0-.875-.90234a4.12061,4.12061,0,0,0-2.03711-2.37891Zm13.02929,16.69336V188.005H35.71123v2.16015Zm0,3.10352V190.8624H35.71123v2.40625Zm0,3.36328v-2.666H35.71123v2.666Z"/><path class="cls-2" d="M33.64677,208.99619v6.6582q2.51514-.65625,4.2793-1.23047l.123.69727q-2.748,1.10742-4.32032,1.68164l-.16406.082v9.93945H31.96513v-9.3789q-1.55859.50536-3.02148.92968-.123.99756-.47852.99805-.561,0-1.23047-2.40625,2.488-.38232,4.8125-.916v-7.05469H29.805a25.227,25.227,0,0,1-1.84571,6.01562l-.64257-.24609A43.24381,43.24381,0,0,0,28.71123,203.336q2.529.13623,2.52929.71094,0,.3003-.92968.64258a30.8672,30.8672,0,0,1-.39649,3.60937h2.13281v-6.57617q2.69312.041,2.69336.64258,0,.34131-1.09375.80664v5.127H35.096l1.2168-1.791a14.24981,14.24981,0,0,1,1.50391,2.00976l-.30079.47852Zm14.082-.82031a31.199,31.199,0,0,1-2.35156,8.59961,21.63389,21.63389,0,0,1-8.51758,9.24218l-.50586-.5332q8.13429-5.86524,9.7754-17.30859H43.99638A20.14571,20.14571,0,0,1,35.971,220.58994l-.47851-.50586a21.69363,21.69363,0,0,0,6.89062-11.9082H40.11357a22.94727,22.94727,0,0,1-3.65039,5.93359l-.58789-.38281A28.57436,28.57436,0,0,0,40.223,201.65439q2.57006.46435,2.57031,1.06641,0,.32813-1.06641.58789a30.20969,30.20969,0,0,1-1.33984,4.16992h9.16015l1.01172-1.3125q1.70874,1.32569,1.709,1.791,0,.21825-.31446.38281l-.64257.36914q-.041,12.29151-1.36719,15.85937a3.23672,3.23672,0,0,1-3.44531,2.0918,1.20893,1.20893,0,0,0-.92969-1.20312,18.31127,18.31127,0,0,0-2.93945-.72461v-.752a26.79787,26.79787,0,0,0,4.00585.35547,1.77527,1.77527,0,0,0,1.92774-1.23047q1.13452-3.65038,1.17578-14.92968Z"/><path class="cls-2" d="M31.18584,234.24717a5.6882,5.6882,0,0,0,1.46289,1.05273,3.18026,3.18026,0,0,0,1.3125.24609q1.03857,0,4.64843-.25976,3.9375-.27393,6.82227-.64258a2.54991,2.54991,0,0,0,1.29883-.50586.91342.91342,0,0,1,.51953-.19141q.39624,0,1.29883.88868.77929.79248.77929,1.21679,0,.25928-.56054.66992a3.06254,3.06254,0,0,0-.7793,1.33985,26.95974,26.95974,0,0,1-5.07227,8.709,26.04741,26.04741,0,0,1-9.43359,6.28907l-.45117-.69727a25.43135,25.43135,0,0,0,9.48828-7.72461,25.09475,25.09475,0,0,0,4.0332-8.87305q-5.387.50538-10.63672,1.17578a5.82742,5.82742,0,0,0-1.76367.45118,1.93369,1.93369,0,0,1-.86133.16406,2.16433,2.16433,0,0,1-1.42187-.88867,8.66261,8.66261,0,0,1-1.29883-1.94141Zm19.8789-5.1543a2.74639,2.74639,0,0,1,2.72071,2.7207,2.72994,2.72994,0,0,1-4.75782,1.8457,2.67728,2.67728,0,0,1-.71093-1.8457,2.58632,2.58632,0,0,1,.90234-2.00976A2.6795,2.6795,0,0,1,51.06474,229.09287Zm0,.90234a1.77949,1.77949,0,0,0-1.36719.61524,1.72061,1.72061,0,0,0-.47851,1.20312,1.86129,1.86129,0,0,0,1.8457,1.8457,1.72551,1.72551,0,0,0,1.33985-.61523,1.78812,1.78812,0,0,0,.47851-1.23047,1.86286,1.86286,0,0,0-1.81836-1.81836Z"/><path class="cls-2" d="M31.5413,263.29892a4.46408,4.46408,0,0,0,1.36719.90235,3.784,3.784,0,0,0,1.29883.1914q1.20264,0,3.77344-.1914,4.44287-.34131,7.082-.56055a3.15586,3.15586,0,0,0,1.49023-.42383,1.00136,1.00136,0,0,1,.53321-.21875q.41015,0,1.12109.752a1.97269,1.97269,0,0,1,.66992,1.17579q0,.34131-.50586.58789a1.98689,1.98689,0,0,0-.69726,1.01172,22.83439,22.83439,0,0,1-5.332,7.834,21.5708,21.5708,0,0,1-7.54688,4.34766l-.39648-.72461a20.34056,20.34056,0,0,0,11.75781-13.19336q-4.40259.31494-9.7207.916a8.29206,8.29206,0,0,0-2.03711.39649,2.78762,2.78762,0,0,1-.80664.16406,2.29847,2.29847,0,0,1-1.49024-.834,5.28543,5.28543,0,0,1-1.17578-1.68165Zm2.543-5.83789a4.73349,4.73349,0,0,0,2.93946.88867q1.07958,0,2.3789-.082,1.59962-.09521,2.584-.21875a4.59089,4.59089,0,0,0,1.53125-.39648,1.6255,1.6255,0,0,1,.84765-.2461,2.48071,2.48071,0,0,1,1.40821.41016q.51928.32813.51953.71094,0,.77929-.834.7793-.58813,0-1.81836.05468-2.3247.09522-6.52148.45117l-.58789.05469-.68359.082q-1.08033,0-2.32422-1.95507Z"/><path class="cls-2" d="M31.85576,282.336a11.68963,11.68963,0,0,1,4.8125,2.4336,3.16432,3.16432,0,0,1,1.23047,2.1875q0,1.42236-1.06641,1.42187-.46509,0-1.12109-1.09375a12.33124,12.33124,0,0,0-4.22461-4.2793Zm.41015,15.17578q.75147,1.1206,1.54493,1.1211a6.5227,6.5227,0,0,0,2.69336-.92969,37.62971,37.62971,0,0,0,14.13671-12.45508l.64258.56055a33.45337,33.45337,0,0,1-6.05664,7.875,39.90544,39.90544,0,0,1-8.08008,5.72851A16.71342,16.71342,0,0,0,35.178,300.588a1.85885,1.85885,0,0,1-1.28515.45117q-.42408,0-1.16211-.94336a7.13575,7.13575,0,0,1-1.10742-2.14649Z"/></svg>