<svg id="圖層_1" data-name="圖層 1" xmlns="http://www.w3.org/2000/svg" viewBox="0 0 54.05874 329.88496"><defs><style>.cls-1{fill:#e9c299;opacity:0.3;}.cls-2{fill:#4f4f4f;}</style></defs><title>b01</title><rect class="cls-1" width="40.05882" height="329.88496"/><path class="cls-2" d="M37.98061,48.19831q4.40185,4.73,4.40234,9.7207,0,5.08593-3.97851,5.08594a1.19171,1.19171,0,0,0-.64258-1.1211,13.9901,13.9901,0,0,0-2.9668-.80664v-.7793a22.96611,22.96611,0,0,0,3.82813.38282,1.65411,1.65411,0,0,0,1.73633-.916,7.07435,7.07435,0,0,0,.39648-2.55664,10.7977,10.7977,0,0,0-.27344-2.33789,35.41081,35.41081,0,0,1-12.52343,6.49414l-.41016-.65625a31.59915,31.59915,0,0,0,12.40039-7.51953,12.38137,12.38137,0,0,0-.82031-1.76367,29.86491,29.86491,0,0,1-10.459,5.08594l-.39648-.5879a29.1916,29.1916,0,0,0,10.02148-5.90625,2.52837,2.52837,0,0,1-.16406-.27343q-.24609-.38233-.82031-1.09375a27.39424,27.39424,0,0,1-8.39453,3.39062l-.39649-.61523a24.35059,24.35059,0,0,0,9.5293-5.127H31.6642l-.34179-.69726h14.082L46.922,43.86432a19.126,19.126,0,0,1,1.92773,1.90039l-.36914.5332H42.1642a19.29972,19.29972,0,0,0,2.625,6.15235,34.58243,34.58243,0,0,0,3.95118-4.86719q2.064,1.27149,2.06445,1.873,0,.31494-.61523.31445-.12306,0-.61524-.05469a37.07568,37.07568,0,0,1-4.30664,3.418,21.15435,21.15435,0,0,0,7.3418,6.07031,6.4586,6.4586,0,0,0-1.43555,1.627,21.47512,21.47512,0,0,1-9.93945-14.53321h-.88867Q39.11537,47.37751,37.98061,48.19831Zm1.18945-6.72657V37.80768q2.80225,0,2.80274.64258,0,.36914-1.20313.7793v2.24218h8.76368l1.03906-1.3125q2.00976,1.96875,2.00976,2.46094,0,.25928-.38281.30078l-.957.15039a20.6519,20.6519,0,0,1-2.10547,1.90039l-.56055-.42383a12.06279,12.06279,0,0,0,1.09375-2.3789H30.96694v.21875a6.41526,6.41526,0,0,1-.90234,3.65039,1.35414,1.35414,0,0,1-1.08008.752,1.13709,1.13709,0,0,1-.82032-.36914.84989.84989,0,0,1-.27343-.61523,2.02476,2.02476,0,0,1,.66992-1.14844,6.74413,6.74413,0,0,0,1.59961-4.22461l.64258.082q.06812.34131.13672.957Z"/><path class="cls-2" d="M32.33413,71.88483v2.74805q0,.93016-.02735,1.76367h2.93946l.9707-1.25781q1.57177,1.3125,1.57226,1.68164a.35578.35578,0,0,1-.1914.30078l-.58789.39648q-.041,8.6001-.82031,11.23828a2.696,2.696,0,0,1-2.91211,1.98242,1.29372,1.29372,0,0,0-.69727-1.12109,8.387,8.387,0,0,0-1.81836-.56055v-.72461a12.12441,12.12441,0,0,0,2.48828.2461,1.34844,1.34844,0,0,0,1.43555-.80664q.76537-2.228.80664-10.67774H32.27944v.19141q-.26,8.62647-4.56641,13.72656l-.61523-.4375a21.08491,21.08491,0,0,0,3.13086-8.49023,50.46992,50.46992,0,0,0,.47851-7.45117V71.88483H27.52163l-.25977-.69727H32.047V65.92389q2.7202.123,2.7207.66992,0,.34131-1.12109.752v3.84179h2.1875l1.23047-1.68164a12.63925,12.63925,0,0,1,1.5996,1.81836l-.31445.56055Zm8.65429-.27344a17.47535,17.47535,0,0,1-3.11718,3.97852l-.49219-.47852a24.116,24.116,0,0,0,3.88281-9.06445q2.584.5874,2.584,1.17578,0,.356-1.17579.5332a23.514,23.514,0,0,1-1.32617,3.15821h7.98438l1.36718-1.87305.28711.24609a21.26264,21.26264,0,0,1,1.6543,1.76367l-.28711.56055Zm4.86719,5.23633v4.70312h3.71875l1.29883-1.68164a13.58016,13.58016,0,0,1,1.76367,1.84571l-.36914.5332H46.047A11.65322,11.65322,0,0,0,53.1017,89.0567a5.43993,5.43993,0,0,0-1.36718,1.5586,11.15831,11.15831,0,0,1-6.043-7.21875Q44.63833,89.19294,38.09,91.01178l-.35547-.64258q5.97436-2.33789,6.43945-8.12109H38.131l-.28711-.69727h6.38477V76.84772H42.09585a15.08714,15.08714,0,0,1-2.76172,4.14258l-.56055-.42383a21.13388,21.13388,0,0,0,2.88477-7.9707q2.406.54637,2.40625,1.12109,0,.31494-1.06641.5332a13.77435,13.77435,0,0,1-.61524,1.90039h6.22071l1.28515-1.65429a17.38023,17.38023,0,0,1,1.6543,1.81836l-.31445.5332Z"/><path class="cls-2" d="M32.66225,105.06256a36.741,36.741,0,0,1-.875,6.49414,18.28987,18.28987,0,0,1-3.89648,7.45118l-.57422-.4375Q31.09,112.938,31.09,102.60163V99.88092H27.69936l-.21875-.69726h4.70313V93.94733q2.748.123,2.748.72461,0,.34131-1.17578.76562v3.7461h1.98242l1.24414-1.73633a14.84415,14.84415,0,0,1,1.668,1.87305l-.32812.56054H32.71694v2.748q0,1.3125-.02734,1.73633h2.93945l.957-1.20313q1.6267,1.36671,1.627,1.76367c0,.06348-.05957.13672-.17773.21875l-.69727.42383q-.041,9.54346-1.20312,11.82617a2.53875,2.53875,0,0,1-2.59766,1.33985,1.38817,1.38817,0,0,0-.71094-1.20313,7.80536,7.80536,0,0,0-1.92773-.56054v-.72461a16.03892,16.03892,0,0,0,2.59766.24609,1.38312,1.38312,0,0,0,1.49023-1.12109,48.94768,48.94768,0,0,0,.84766-10.3086ZM41.0978,99.211a17.372,17.372,0,0,1-3.17188,4.19727l-.5332-.45118a22.1166,22.1166,0,0,0,3.81445-9.17382q2.67921.42333,2.67969,1.01172,0,.36913-1.17578.58789a21.5682,21.5682,0,0,1-1.25781,3.13086h7.875l1.33984-1.81836A17.9432,17.9432,0,0,1,52.5685,98.6778l-.30078.5332Zm3.52734,5.209q-.54711.20507-1.59961.58789v14.02734h-1.627V105.54108l-.39648.10937q-.68409.21826-2.59766.72461l-.39649-.64257a29.13989,29.13989,0,0,0,11.03321-5.5918q1.79078,1.20264,1.791,1.709,0,.27393-.5332.27344a3.88332,3.88332,0,0,1-.86133-.10937,27.21174,27.21174,0,0,1-4.00586,2.09179l.05469.31446a22.718,22.718,0,0,0,1.59961,5.66015,32.65565,32.65565,0,0,0,3.1582-4.62109q1.88673,1.24365,1.88672,1.791,0,.3003-.64258.30078a3.67214,3.67214,0,0,1-.50586-.02734,22.81329,22.81329,0,0,1-3.582,3.25391,17.56388,17.56388,0,0,0,5.373,6.30273,5.96765,5.96765,0,0,0-1.57227,1.44922Q45.50014,113.33355,44.62514,104.42Z"/><path class="cls-2" d="M33.35952,133.42975q1.43554.24609,1.43554.69727,0,.31494-1.0664.69726v12.209h-1.627V135.0567a27.00883,27.00883,0,0,1-4.334,4.14258l-.50586-.50586A33.52515,33.52515,0,0,0,34.713,127.879q2.20094.91552,2.20117,1.49023,0,.41016-1.25781.41016A29.87913,29.87913,0,0,1,33.35952,133.42975Zm-5.82422-3.47266a27.64385,27.64385,0,0,0,6.86328-7.69726q2.07787.97119,2.07812,1.51758,0,.35595-1.35351.35547a21.75541,21.75541,0,0,1-7.13672,6.38476Zm19.6875,2.72071v11.8125q0,2.25585-2.93945,2.21484a1.32373,1.32373,0,0,0-.98438-1.17578,27.58012,27.58012,0,0,0-3.10352-.61523v-.752a37.77359,37.77359,0,0,0,4.2793.2461q1.1206,0,1.1211-.88868V132.6778H36.44936l-.25976-.69727H48.93178l1.54492-1.92773a18.39444,18.39444,0,0,1,2.00977,2.09179l-.31445.53321Zm.39648-7.82031,1.54492-1.873a22.22226,22.22226,0,0,1,2.00977,2.02344l-.3418.54687H37.84389l-.27344-.69726Z"/><path class="cls-2" d="M47.07241,173.5401H35.71108V175.044H34.11147v-9.39258a21.46282,21.46282,0,0,1-6.33008,5.61914l-.45117-.56055a21.809,21.809,0,0,0,7.58789-9.584H28.13686l-.35547-.69727h11.334V157.5987h-8.627l-.35547-.69727h8.98243v-2.625H29.258l-.30078-.69727H42.13686l.10938-.1914a19.982,19.982,0,0,0,1.9414-3.86914q2.4331.88916,2.4336,1.43554,0,.38233-1.25782.38282a15.3113,15.3113,0,0,1-2.24218,2.24218h5.04492l1.33984-1.5996a13.00983,13.00983,0,0,1,1.68164,1.76367l-.31445.5332H40.715v2.625h6.28906l1.18945-1.50391a12.90557,12.90557,0,0,1,1.68164,1.69532l-.34179.50586H40.715v2.83007h8.47656l1.35351-1.65429a19.53768,19.53768,0,0,1,1.873,1.81836l-.3418.5332H36.70913l-.10938.28711A20.51377,20.51377,0,0,1,35.588,163.3819l.15039.05469a1.59079,1.59079,0,0,0,.19141.082H46.81264l1.06641-1.24414q1.77686,1.23046,1.77734,1.668,0,.19189-.28711.35546l-.69726.45118V175.044H47.07241Zm-13.0293-23.85742q3.67749.88916,3.67774,2.69336a1.00458,1.00458,0,0,1-.45118.84766.93785.93785,0,0,1-.58789.24609q-.61523,0-.875-.90234a4.12048,4.12048,0,0,0-2.03711-2.37891ZM47.07241,166.376v-2.16016H35.71108V166.376Zm0,3.10352v-2.40625H35.71108v2.40625Zm0,3.36328v-2.666H35.71108v2.666Z"/><path class="cls-2" d="M33.64663,185.20709v6.65821q2.51512-.65625,4.27929-1.23047l.123.69726q-2.748,1.10744-4.32031,1.68165l-.16406.082v9.93945H31.965v-9.37891q-1.5586.50538-3.02149.92969-.123.99756-.47851.998-.561,0-1.23047-2.40625,2.488-.38233,4.8125-.916v-7.05469H29.80483a25.227,25.227,0,0,1-1.8457,6.01563l-.64258-.24609a43.2435,43.2435,0,0,0,1.39453-11.42969q2.529.13623,2.5293.71094,0,.30028-.92969.64257a30.86524,30.86524,0,0,1-.39649,3.60938H32.047v-6.57617q2.69311.041,2.69336.64258,0,.34129-1.09375.80664v5.12695h1.44922l1.21679-1.791a14.24858,14.24858,0,0,1,1.50391,2.00977l-.30078.47851Zm14.082-.82031a31.19881,31.19881,0,0,1-2.35156,8.59961,21.63391,21.63391,0,0,1-8.51758,9.24219l-.50586-.5332q8.13428-5.86524,9.77539-17.3086H43.99624a20.14577,20.14577,0,0,1-8.02539,12.41406l-.47852-.50585A21.69364,21.69364,0,0,0,42.383,184.38678H40.11342a22.94716,22.94716,0,0,1-3.65039,5.9336l-.58789-.38282A28.57419,28.57419,0,0,0,40.2228,177.8653q2.57007.46436,2.57031,1.0664,0,.32813-1.06641.58789a30.20987,30.20987,0,0,1-1.33984,4.16993H49.547l1.01172-1.3125q1.70874,1.32568,1.709,1.791,0,.21827-.31445.38281l-.64258.36915q-.041,12.29149-1.36719,15.85937a3.23671,3.23671,0,0,1-3.44531,2.0918,1.20893,1.20893,0,0,0-.92969-1.20313,18.31238,18.31238,0,0,0-2.93945-.72461v-.75195a26.79944,26.79944,0,0,0,4.00586.35547,1.77528,1.77528,0,0,0,1.92773-1.23047q1.13452-3.65038,1.17578-14.92969Z"/><path class="cls-2" d="M31.18569,210.45807a5.6887,5.6887,0,0,0,1.46289,1.05274,3.18033,3.18033,0,0,0,1.3125.24609q1.03857,0,4.64844-.25977,3.9375-.27392,6.82226-.64257a2.55,2.55,0,0,0,1.29883-.50586.91342.91342,0,0,1,.51953-.19141q.39624,0,1.29883.88867.7793.79248.7793,1.2168,0,.25928-.56055.66992a3.06258,3.06258,0,0,0-.7793,1.33984,26.96,26.96,0,0,1-5.07226,8.709,26.04731,26.04731,0,0,1-9.4336,6.28906l-.45117-.69726a25.43137,25.43137,0,0,0,9.48828-7.72461,25.0951,25.0951,0,0,0,4.03321-8.87305q-5.387.50536-10.63672,1.17578a5.8276,5.8276,0,0,0-1.76367.45117,1.93355,1.93355,0,0,1-.86133.16406,2.16429,2.16429,0,0,1-1.42188-.88867,8.66287,8.66287,0,0,1-1.29883-1.9414Zm19.87891-5.1543a2.74641,2.74641,0,0,1,2.7207,2.72071,2.72994,2.72994,0,0,1-4.75781,1.8457,2.67724,2.67724,0,0,1-.71094-1.8457,2.58636,2.58636,0,0,1,.90234-2.00977A2.67957,2.67957,0,0,1,51.0646,205.30377Zm0,.90235a1.77948,1.77948,0,0,0-1.36719.61523,1.72058,1.72058,0,0,0-.47852,1.20313,1.86132,1.86132,0,0,0,1.84571,1.8457,1.72552,1.72552,0,0,0,1.33984-.61523,1.78809,1.78809,0,0,0,.47851-1.23047,1.86284,1.86284,0,0,0-1.81835-1.81836Z"/><path class="cls-2" d="M31.54116,239.50983a4.46409,4.46409,0,0,0,1.36719.90234,3.78391,3.78391,0,0,0,1.29882.19141q1.20264,0,3.77344-.19141,4.44287-.34131,7.082-.56054a3.15594,3.15594,0,0,0,1.49024-.42383,1.0013,1.0013,0,0,1,.5332-.21875q.41016,0,1.12109.752a1.97267,1.97267,0,0,1,.66993,1.17578q0,.34131-.50586.58789a1.98688,1.98688,0,0,0-.69727,1.01172,22.8342,22.8342,0,0,1-5.332,7.834,21.57054,21.57054,0,0,1-7.54688,4.34765l-.39648-.72461a20.34052,20.34052,0,0,0,11.75781-13.19336q-4.40259.31494-9.7207.916a8.29225,8.29225,0,0,0-2.03711.39648,2.78729,2.78729,0,0,1-.80664.16407,2.29844,2.29844,0,0,1-1.49024-.834,5.28539,5.28539,0,0,1-1.17578-1.68164Zm2.543-5.83789a4.73352,4.73352,0,0,0,2.93945.88867q1.07959,0,2.37891-.082,1.5996-.09522,2.584-.21875a4.59076,4.59076,0,0,0,1.53125-.39649,1.62552,1.62552,0,0,1,.84766-.24609,2.48067,2.48067,0,0,1,1.4082.41016q.51929.32813.51953.71093,0,.77931-.834.7793-.58814,0-1.81836.05469-2.32471.09522-6.52149.45117l-.58789.05469-.68359.082q-1.08033,0-2.32422-1.95508Z"/><path class="cls-2" d="M31.85561,258.54694a11.68975,11.68975,0,0,1,4.8125,2.43359,3.16436,3.16436,0,0,1,1.23047,2.1875q0,1.42236-1.06641,1.42188-.46509,0-1.12109-1.09375a12.331,12.331,0,0,0-4.22461-4.2793Zm.41016,15.17578q.75145,1.12061,1.54492,1.12109a6.52271,6.52271,0,0,0,2.69336-.92968,37.62983,37.62983,0,0,0,14.13672-12.45508l.64258.56054a33.453,33.453,0,0,1-6.05665,7.875,39.906,39.906,0,0,1-8.08007,5.72852,16.714,16.714,0,0,0-1.96875,1.17578,1.85889,1.85889,0,0,1-1.28516.45117q-.42406,0-1.16211-.94336a7.1357,7.1357,0,0,1-1.10742-2.14648Z"/></svg>