<svg id="圖層_1" data-name="圖層 1" xmlns="http://www.w3.org/2000/svg" viewBox="0 0 54.05882 329.88496"><defs><style>.cls-1{fill:#b1aacc;}.cls-2{fill:#4f4f4f;}</style></defs><title>b01</title><rect class="cls-1" width="40.05882" height="329.88496"/><path class="cls-2" d="M41.37132,51.00983v9.57031h7.58789l1.61328-2.06445q.31422.30028.53321.49219a17.23547,17.23547,0,0,1,1.46289,1.709l-.31446.56055H27.508l-.27344-.69727h5.09961V47.29108q2.88428.20508,2.88477.80664,0,.36913-1.25781.7793V60.58014h5.70117V41.795h-10.377l-.31445-.69727H47.52367l1.54492-2.07813a13.56252,13.56252,0,0,1,2.03711,2.21485l-.30078.56055h-9.4336v8.51757h5.00391l1.43555-1.92773a19.0614,19.0614,0,0,1,1.95507,2.0918l-.32812.5332Z"/><path class="cls-2" d="M27.426,88.835a25.2864,25.2864,0,0,0,1.51758-7.76562q2.51514.54639,2.51562,1.06641,0,.32813-.92968.5332a16.73744,16.73744,0,0,1-2.51563,6.4668Zm2.9668-11.21093a52.14042,52.14042,0,0,0,5.373-8.53125q2.24195,1.09423,2.24219,1.65429,0,.3003-.7793.30078a2.95716,2.95716,0,0,1-.42382-.02734,60.80271,60.80271,0,0,1-5.44141,6.54883q3.07617-.1919,4.77148-.35547a8.69113,8.69113,0,0,0-1.49023-2.21484l.42383-.45118q3.33545,2.16064,3.33594,4.51172,0,1.12061-.92969,1.1211-.71118,0-.834-1.1211a10.44375,10.44375,0,0,0-.25976-1.17578q-.02784.01319-.50586.09571-.58814.10986-1.08008.20507l-.98437.20508V91.0362H32.21117v-12.373l-.42383.082q-1.09424.21827-2.77539.42383-.2461.93018-.51953.92969-.561,0-.98438-2.35157Q30.21508,77.63727,30.39281,77.62409Zm.1914-6.9043a29.61631,29.61631,0,0,0,2.16016-5.127q2.324.88916,2.32422,1.42187,0,.356-1.06641.39649a31.20872,31.20872,0,0,1-2.85742,3.71875,3.459,3.459,0,0,1,1.54492,2.35156A.89418.89418,0,0,1,31.678,74.49323a.85236.85236,0,0,1-.80664-.66992,7.90288,7.90288,0,0,0-2.96679-3.78711l.38281-.51954A12.35956,12.35956,0,0,1,30.58421,70.71979ZM35.178,80.6319q2.85719,2.81689,2.85742,5.209,0,1.28467-1.01171,1.28516-.76613,0-.80664-1.23047A10.6899,10.6899,0,0,0,34.6721,80.96Zm6.084-4.64844h8.3125l.9707-1.16211q1.74975,1.32569,1.75,1.75a.3183.3183,0,0,1-.20508.27344l-.69726.45117V88.68463q0,2.0918-2.69336,2.05078a1.20124,1.20124,0,0,0-.834-1.21679,14.631,14.631,0,0,0-2.61133-.64258v-.72461a29.69076,29.69076,0,0,0,3.6504.25977.7797.7797,0,0,0,.88867-.875V84.5694H40.86546v6.4668H39.26585V75.19049A20.168,20.168,0,0,1,41.262,75.98346Zm.86133-8.43555H48.508l1.03906-1.14843q1.5857,1.21728,1.58594,1.59961a.33957.33957,0,0,1-.19141.27343l-.61523.42383v5.23633H48.75413V72.86627h-6.959v1.23047H40.25023V66.82331Q40.86546,67.0152,42.12328,67.54791Zm7.66992,12.209V76.68073H40.86546V79.7569Zm0,.69726H40.86546v3.418H49.7932Zm-7.998-12.209V72.169h6.959V68.24518Z"/><path class="cls-2" d="M33.07249,105.48444v.082q1.33961.75147,1.53125.88867a22.74644,22.74644,0,0,0,1.68164-3.47265q1.8318.98438,1.832,1.49023,0,.38232-1.08008.3418a18.61431,18.61431,0,0,1-1.873,2.00976q2.47411,1.79151,2.47461,3.15821,0,.98438-.875.98437-.49218,0-.834-.80664a9.69965,9.69965,0,0,0-2.85743-3.81445v12.6875H31.50023v-11.6211a27.6767,27.6767,0,0,1-3.97852,3.63672l-.47851-.5332a31.43883,31.43883,0,0,0,7.45117-10.66406H27.74046l-.1914-.69727h4.00586V93.918q2.80224.082,2.80273.72461,0,.41016-1.25781.793v3.71875h1.3125l1.09375-1.39453q1.70874,1.57178,1.709,2.00976c0,.10059-.08691.19141-.25976.27344l-.834.3418A38.47369,38.47369,0,0,1,33.07249,105.48444Zm7.6836-5.42774h3.5v-6.166q2.748.13623,2.748.76562,0,.36915-1.17578.752v4.64843H49.7932L50.887,98.71686q1.74975,1.43555,1.75,1.8457c0,.10938-.07764.21-.23242.30078l-.7793.47852v17.69141H50.053v-2.11914H40.428v2.11914H38.8557V99.127Q39.79905,99.53717,40.75609,100.0567Zm-.32813.69727v7.13672h3.82813V100.754Zm3.82813,7.834H40.428v7.62891h3.82813Zm5.79687-.69726V100.754H45.82835v7.13672Zm0,8.32617V108.588H45.82835v7.62891Z"/><path class="cls-2" d="M47.07249,145.5401H35.71117V147.044H34.11156v-9.39258a21.463,21.463,0,0,1-6.33008,5.61914l-.45117-.56055a21.80905,21.80905,0,0,0,7.58789-9.584H28.137l-.35547-.69727h11.334V129.5987H30.48851l-.35547-.69727h8.98242v-2.625H29.258l-.30078-.69727H42.137l.10937-.1914a19.98153,19.98153,0,0,0,1.94141-3.86914q2.4331.88916,2.43359,1.43554,0,.38234-1.25781.38282a15.31091,15.31091,0,0,1-2.24219,2.24218h5.04492l1.33985-1.5996a13.01044,13.01044,0,0,1,1.68164,1.76367l-.31445.5332H40.71507v2.625h6.28906l1.18946-1.50391a12.90619,12.90619,0,0,1,1.68164,1.69532l-.3418.50586H40.71507v2.83007h8.47656l1.35352-1.65429a19.53885,19.53885,0,0,1,1.873,1.81836l-.3418.5332H36.70921l-.10937.28711a20.51377,20.51377,0,0,1-1.01172,1.96875l.15039.05469a1.5901,1.5901,0,0,0,.19141.082H46.81273l1.0664-1.24414q1.77685,1.23046,1.77735,1.668,0,.19189-.28711.35546l-.69727.45118V147.044H47.07249ZM34.0432,121.68268q3.67749.88916,3.67773,2.69336a1.00457,1.00457,0,0,1-.45117.84766.93785.93785,0,0,1-.58789.24609q-.61524,0-.875-.90234a4.12055,4.12055,0,0,0-2.03711-2.37891ZM47.07249,138.376v-2.16016H35.71117V138.376Zm0,3.10352v-2.40625H35.71117v2.40625Zm0,3.36328v-2.666H35.71117v2.666Z"/><path class="cls-2" d="M33.64671,157.20709v6.65821q2.51514-.65625,4.2793-1.23047l.123.69726q-2.748,1.10744-4.32032,1.68165l-.16406.082v9.93945H31.96507v-9.37891q-1.55859.50538-3.02148.92969-.123.99756-.47852.998-.561,0-1.23047-2.40625,2.488-.38233,4.8125-.916v-7.05469H29.80492a25.227,25.227,0,0,1-1.84571,6.01563l-.64258-.24609a43.24347,43.24347,0,0,0,1.39454-11.42969q2.529.13623,2.52929.71094,0,.30028-.92968.64257a30.86741,30.86741,0,0,1-.39649,3.60938H32.0471v-6.57617q2.69311.041,2.69336.64258,0,.34129-1.09375.80664v5.12695h1.44922l1.2168-1.791a14.24854,14.24854,0,0,1,1.5039,2.00977l-.30078.47851Zm14.082-.82031a31.19881,31.19881,0,0,1-2.35156,8.59961,21.63385,21.63385,0,0,1-8.51758,9.24219l-.50586-.5332q8.13429-5.86524,9.77539-17.3086H43.99632a20.14569,20.14569,0,0,1-8.02539,12.41406l-.47851-.50585A21.6937,21.6937,0,0,0,42.383,156.38678H40.11351a22.94716,22.94716,0,0,1-3.65039,5.9336l-.58789-.38282a28.57418,28.57418,0,0,0,4.34765-12.07226q2.57007.46436,2.57032,1.0664,0,.32813-1.06641.58789a30.20987,30.20987,0,0,1-1.33984,4.16993H49.5471l1.01172-1.3125q1.70874,1.32568,1.709,1.791,0,.21827-.31446.38281l-.64257.36915q-.041,12.29149-1.36719,15.85937a3.23672,3.23672,0,0,1-3.44531,2.0918,1.20893,1.20893,0,0,0-.92969-1.20313,18.31229,18.31229,0,0,0-2.93946-.72461v-.75195a26.79944,26.79944,0,0,0,4.00586.35547,1.77528,1.77528,0,0,0,1.92774-1.23047q1.13452-3.65038,1.17578-14.92969Z"/><path class="cls-2" d="M31.18578,182.45807a5.68854,5.68854,0,0,0,1.46289,1.05274,3.18026,3.18026,0,0,0,1.3125.24609q1.03857,0,4.64843-.25977,3.9375-.27392,6.82227-.64257a2.55,2.55,0,0,0,1.29883-.50586.91342.91342,0,0,1,.51953-.19141q.39624,0,1.29883.88867.7793.79248.77929,1.2168,0,.25928-.56054.66992a3.06248,3.06248,0,0,0-.7793,1.33984,26.9598,26.9598,0,0,1-5.07227,8.709,26.04726,26.04726,0,0,1-9.43359,6.28906l-.45117-.69726a25.43145,25.43145,0,0,0,9.48828-7.72461,25.09491,25.09491,0,0,0,4.0332-8.87305q-5.387.50536-10.63672,1.17578a5.82777,5.82777,0,0,0-1.76367.45117,1.93355,1.93355,0,0,1-.86133.16406,2.16429,2.16429,0,0,1-1.42187-.88867,8.66253,8.66253,0,0,1-1.29883-1.9414Zm19.8789-5.1543a2.74639,2.74639,0,0,1,2.7207,2.72071,2.72994,2.72994,0,0,1-4.75781,1.8457,2.67729,2.67729,0,0,1-.71094-1.8457,2.58637,2.58637,0,0,1,.90235-2.00977A2.67955,2.67955,0,0,1,51.06468,177.30377Zm0,.90235a1.77951,1.77951,0,0,0-1.36719.61523,1.72061,1.72061,0,0,0-.47851,1.20313,1.86131,1.86131,0,0,0,1.8457,1.8457,1.72554,1.72554,0,0,0,1.33985-.61523,1.78814,1.78814,0,0,0,.47851-1.23047,1.86284,1.86284,0,0,0-1.81836-1.81836Z"/><path class="cls-2" d="M31.54124,211.50983a4.46421,4.46421,0,0,0,1.36719.90234,3.784,3.784,0,0,0,1.29883.19141q1.20264,0,3.77344-.19141,4.44287-.34131,7.082-.56054a3.15586,3.15586,0,0,0,1.49023-.42383,1.00136,1.00136,0,0,1,.53321-.21875q.41014,0,1.12109.752a1.97265,1.97265,0,0,1,.66992,1.17578q0,.34131-.50586.58789a1.98694,1.98694,0,0,0-.69726,1.01172,22.83434,22.83434,0,0,1-5.332,7.834,21.57063,21.57063,0,0,1-7.54688,4.34765l-.39648-.72461a20.34055,20.34055,0,0,0,11.75781-13.19336q-4.40259.31494-9.7207.916a8.292,8.292,0,0,0-2.03711.39648,2.78735,2.78735,0,0,1-.80664.16407,2.29842,2.29842,0,0,1-1.49024-.834A5.28539,5.28539,0,0,1,30.926,211.961Zm2.543-5.83789a4.73353,4.73353,0,0,0,2.93946.88867q1.07958,0,2.3789-.082,1.59962-.09522,2.584-.21875a4.59084,4.59084,0,0,0,1.53125-.39649,1.62549,1.62549,0,0,1,.84765-.24609,2.48071,2.48071,0,0,1,1.40821.41016q.51929.32813.51953.71093,0,.77931-.834.7793-.58813,0-1.81836.05469-2.3247.09522-6.52148.45117l-.58789.05469-.6836.082q-1.08031,0-2.32421-1.95508Z"/><path class="cls-2" d="M31.8557,230.54694a11.68975,11.68975,0,0,1,4.8125,2.43359,3.16436,3.16436,0,0,1,1.23047,2.1875q0,1.42236-1.06641,1.42188-.46509,0-1.12109-1.09375a12.33107,12.33107,0,0,0-4.22461-4.2793Zm.41015,15.17578q.75147,1.1206,1.54493,1.12109a6.52272,6.52272,0,0,0,2.69335-.92968,37.62975,37.62975,0,0,0,14.13672-12.45508l.64258.56054a33.453,33.453,0,0,1-6.05664,7.875,39.90585,39.90585,0,0,1-8.08008,5.72852,16.714,16.714,0,0,0-1.96875,1.17578,1.85885,1.85885,0,0,1-1.28515.45117q-.42408,0-1.16211-.94336a7.1357,7.1357,0,0,1-1.10742-2.14648Z"/></svg>