<svg id="圖層_1" data-name="圖層 1" xmlns="http://www.w3.org/2000/svg" xmlns:xlink="http://www.w3.org/1999/xlink" viewBox="0 0 1448.95822 43.91479"><defs><style>.cls-1{fill:#fdede2;}.cls-2{mask:url(#mask);}.cls-3{fill:#fff;}.cls-4{filter:url(#luminosity-noclip);}</style><filter id="luminosity-noclip" x="451.4764" y="-10.74455" width="497.68509" height="75.66512" filterUnits="userSpaceOnUse" color-interpolation-filters="sRGB"><feFlood flood-color="#fff" result="bg"/><feBlend in="SourceGraphic" in2="bg"/></filter><mask id="mask" x="451.4764" y="-10.74455" width="497.68509" height="75.66512" maskUnits="userSpaceOnUse"><g class="cls-4"><path d="M643.49744,30.76605c-.0533.3008.0543.3691.2392.1517s.5619-.9069.4311-.9649S643.55074,30.46525,643.49744,30.76605Z"/><path d="M876.65934,7.92315a.94392.94392,0,0,0-.1452,1.2196l.9163,1.106a1.03478,1.03478,0,0,0,1.2657.0911l1.7702-1.3699a5.26185,5.26185,0,0,0,.6451-.6249,1.8952,1.8952,0,0,0-.6274-.6319l-1.2132-.8472a1.351,1.351,0,0,0-1.3729.0715Z"/><path d="M499.51164,35.61135a.64453.64453,0,0,0-.6091.6857c.0445.3338.494,1.2481.9219,1.2485l1.5054.0458a.59359.59359,0,0,0,.6639-.6618c-.0627-.3676-.341-1.39-.5077-1.4148S499.89114,35.568,499.51164,35.61135Z"/><path d="M844.63644,3.32745c.1191.4431.4563.7947.7494.7813a7.49833,7.49833,0,0,0,1.8308-.4864l.8685-.4215a5.55269,5.55269,0,0,0,.7447-.4082,7.17549,7.17549,0,0,0-.5247-.7258l-1.2486-1.6715a.99365.99365,0,0,0-1.2304-.2742l-.8963.457a1.2321,1.2321,0,0,0-.6035,1.2093Z"/><path d="M462.55794,20.424c.0834.436.2782.8133.433.8383a1.08385,1.08385,0,0,0,.8098-.691l.4256-1.5402a.90089.90089,0,0,0-.6033-1.0153c-.4146-.1223-1.5309-.0076-1.4367.4263Z"/><path d="M901.09994,31.27525a1.40553,1.40553,0,0,0-.7828-.0193,1.09556,1.09556,0,0,0,.4436.71l1.5099,1.2185c.3286.2392.6298.1919.6693-.1051a3.58713,3.58713,0,0,0-.026-1.2622A13.05052,13.05052,0,0,0,901.09994,31.27525Z"/><path d="M830.04114,26.58315a1.3289,1.3289,0,0,0,.2334-.5271,1.07864,1.07864,0,0,0-.647-.7577l-.7462-.2962c-.3906-.1424-.7476-.1965-.7933-.1202a3.51087,3.51087,0,0,0-.206.4451,1.39651,1.39651,0,0,0,.4744.7982C828.66754,26.38985,829.92874,26.73335,830.04114,26.58315Z"/><path d="M561.30954,12.04575a2.521,2.521,0,0,0,.9422.1617.97086.97086,0,0,0,.494-.831l-.3181-2.0819a.56891.56891,0,0,0-.8255-.3704l-3.3105,1.5151c-.3532.1622-.348.4156.0117.5631Z"/><path d="M622.70954,28.475c-.3938.164-.4251.3771-.0694.4735s1.3996.0542,1.4554-.1805-.2486-.7765-.6439-.6162Z"/><path d="M628.37114,31.56255a.28413.28413,0,0,0,.2787-.2198c.0252-.1257-.1734-.4502-.41-.4093s-.8359.1829-.8048.2531.1697.2761.2375.2932S628.24314,31.55775,628.37114,31.56255Z"/><path d="M537.46194,35.55765a.509.509,0,0,0,.0674.6919l.569.4436a.56721.56721,0,0,0,.7158-.1103l.6782-.8409a.509.509,0,0,0-.1012-.6877l-.4996-.3619a.63208.63208,0,0,0-.7449.0999Z"/><path d="M570.688,2.79275a.7247.7247,0,0,0,.4335.8837c.3373.1049,1.51-.0002,1.731-.3261l.9467-1.5958a.4199.4199,0,0,0-.3791-.6672l-1.4947-.0857a1.10291,1.10291,0,0,0-.9239.7242Z"/><path d="M934.71094,36.19405c.2123.0159.3565-.0143.3204-.067a.78517.78517,0,0,0-.5221-.1352C934.32754,36.02965,934.49854,36.17825,934.71094,36.19405Z"/><path d="M671.17524,9.53285c-.0228.0532.2435.2735.5919.4896l.7065.4609c.3595.1971.7422.2334.8505.0805a.5967.5967,0,0,0-.3673-.7815l-.9714-.2569A1.27336,1.27336,0,0,0,671.17524,9.53285Z"/><path d="M653.42964,41.86625a6.882,6.882,0,0,0-.7957.1739c-.3823.0984-1.4371.5759-1.4675.8858s.3715,1.1737.8246,1.1721l2.0986.0092a.44529.44529,0,0,0,.3887-.7409l-.4371-.7756A2.2567,2.2567,0,0,0,653.42964,41.86625Z"/><path d="M682.633,39.51585a.99457.99457,0,0,0,.857.8659l3.332.3983c.4311.0591.8426-.0916.9142-.335s-.0966-1.063-.4967-1.2344l-4.0779-1.7779a.44341.44341,0,0,0-.6545.4996Z"/><path d="M646.90544,32.95865c.3274.1026.598.1867.6013.1869s-.0088-.3197-.0342-.711a5.80461,5.80461,0,0,0-.2168-1.4125.81186.81186,0,0,0-.7066.3567C646.345,31.67525,646.578,32.85605,646.90544,32.95865Z"/><path d="M751.27884,18.62535c.2795.0264.3204-.0441.091-.1568s-.8933-.3104-.9342-.2377S750.99944,18.59895,751.27884,18.62535Z"/><path d="M555.58094,13.05525a1.33984,1.33984,0,0,0,1.2662.4279s2.0925-.5316,3.6469-1.0792c.6037-.2125,1.0816-.3913,1.0816-.3913.4102-.1534.5659-.5126.346-.7983a3.02725,3.02725,0,0,0-1.7797-.8474l-4.3702,1.138a.70825.70825,0,0,0-.5316.8859A3.0334,3.0334,0,0,0,555.58094,13.05525Z"/><path d="M775.44924,31.28615a2.89522,2.89522,0,0,0,.9504-1.3471,7.06044,7.06044,0,0,0,.0696-1.12c-.0279-.4309-.3366-.5133-.6858-.183l-5.9587,5.679c-.3415.3383-.5618.657-.4896.7082a1.87738,1.87738,0,0,0,1.0429-.3117Z"/><path d="M719.235,43.04055a.60034.60034,0,0,0,.5899.8239l1.2023.0453a1.33836,1.33836,0,0,0,1.1055-.8468,16.19592,16.19592,0,0,0,.4528-1.8032,1.8199,1.8199,0,0,0-.7688-.5196c-.3859-.1418-1.6694-.0097-1.8535.4162Z"/><path d="M745.48744,26.98905c-.0281.3096.2774.5723.6788.5838l2.2545.1288c.4014.0144.7391-.0908.7505-.2339a1.13866,1.13866,0,0,0-.6839-.7531l-2.0257-.5892C746.07044,26.03455,745.51544,26.67955,745.48744,26.98905Z"/><path d="M640.27644,5.43955a.94885.94885,0,0,0,.9421.5385c.3014-.0866,1.1359-.6808,1.1562-1.1201l.019-2.794a2.88947,2.88947,0,0,0-.2758-1.1441,1.614,1.614,0,0,0-1.2288-.5145l-2.4015.5322a.555.555,0,0,0-.3497.8804Z"/><path d="M523.16884,21.92125a.58007.58007,0,0,0,.4305.8572l3.0446.7074a.54835.54835,0,0,0,.6986-.6149l-.0584-1.0188a1.668,1.668,0,0,0-.695-1.1936l-1.2744-.7487a.88616.88616,0,0,0-1.1235.2826Z"/><path d="M932.41934,30.73165c.2415-.343.1544-.6499-.1936-.6821a3.842,3.842,0,0,0-1.8389.3472l-1.483,1.2947c-.3098.2829-.2207.5366.1979.5637l1.415.1297a1.49268,1.49268,0,0,0,1.1827-.6004Z"/><path d="M793.89154,10.71305a.94281.94281,0,0,0,.2946.4931,8.15927,8.15927,0,0,0,1.3651.9267l2.0144.9956c.4104.2063.827.238.9259.0704a1.41068,1.41068,0,0,0-.2968-1.2293l-2.7503-2.4634c-.354-.2927-.7951-.3538-.9802-.1357A5.43393,5.43393,0,0,0,793.89154,10.71305Z"/><path d="M708.76654,42.88225a.97726.97726,0,0,0,.7881.7083c.3104.0012,1.2263-.1933,1.3137-.464s-.0774-1.1751-.4408-1.3216a13.26679,13.26679,0,0,0-1.6507-.4828c-.1379-.0042-.3966.2949-.2649.6805Z"/><path d="M930.90874,15.01505c.3174.3143.637.4526.7102.3073a1.97178,1.97178,0,0,0-.0099-1.1642c-.1588-.3516-.8695-1.2061-1.1295-1.0896s-.6666.8208-.346,1.1317Z"/><path d="M793.03944,3.96445a.59517.59517,0,0,0,.5526-.3479,6.05392,6.05392,0,0,0,.241-.8709,1.16665,1.16665,0,0,0-.7355-.1409c-.3879.0234-1.4655.189-1.5218.3691s-.0606.725.0903.7775A12.69352,12.69352,0,0,0,793.03944,3.96445Z"/><path d="M514.08464,6.90545c0,.4123.1317.7661.2928.7864a1.478,1.478,0,0,0,.9856-.5707l1.0098-1.7772a.58943.58943,0,0,0-.3945-.8627l-.9828-.2593c-.4063-.0704-.7718-.0627-.8124.0171a3.91456,3.91456,0,0,0-.1259,1.0471Z"/><path d="M808.24754.12845a1.4132,1.4132,0,0,0,.1309,1.2743,6.07887,6.07887,0,0,0,1.4467,1.1711c.3018.096,1.2609.0489,1.4495-.3532l.4568-.9967a1.36576,1.36576,0,0,0-.2966-1.3246l-1.3372-1.1956c-.3469-.2775-.6993-.4502-.7832-.3839a4.98024,4.98024,0,0,0-.6589.9752Z"/><path d="M577.27324,17.26275c.0122.0975.3574.1027.767.0116l.7202-.1636c.41-.0898.4156-.1642.0126-.1653A4.17564,4.17564,0,0,0,577.27324,17.26275Z"/><path d="M477.93834,32.04545c.2478.2894.5543.4458.681.3475s.0628-.6543-.3161-.8503S477.69054,31.75605,477.93834,32.04545Z"/><path d="M720.93074,9.92405c-.3938-.0998-.6226-.0668-.5084.0732a4.07757,4.07757,0,0,0,1.109.757,5.75328,5.75328,0,0,0,1.3779.3958,2.60259,2.60259,0,0,0,.1328-.3365.59128.59128,0,0,0-.2119-.2413A18.69276,18.69276,0,0,0,720.93074,9.92405Z"/><path d="M574.12784,12.826a2.60938,2.60938,0,0,0-.054.8482,2.89915,2.89915,0,0,0,.5934-.7294l1.9472-3.2412a.81237.81237,0,0,0-.3065-1.1171c-.3894-.1975-1.6131-.2232-1.6714.245Z"/><path d="M898.24664,15.24745c-.1796.4283-.0834.5864.2139.3513s1.005-1.066.877-1.2183S898.42624,14.81905,898.24664,15.24745Z"/><path d="M661.60934,42.24885c-.2588.3753-.374.7381-.256.8062a4.57087,4.57087,0,0,0,.6881.2728,1.69132,1.69132,0,0,0,.9914-.5403l1.4327-1.7109c.2792-.3604.3786-.7822.221-.9373a3.58578,3.58578,0,0,0-.824-.4941,1.86771,1.86771,0,0,0-.7853.6345Z"/><path d="M811.12094,24.10005c-.0511-.4629-.3321-.8098-.6246-.7708s-1.1178.5089-1.1329.8267a5.86441,5.86441,0,0,0,.4029,1.9334l.4464.7575c.2237.4085.513.687.6428.6191a1.56516,1.56516,0,0,0,.4177-1.0999Z"/><path d="M837.71064,33.03315c-.0102.1062.3025.3084.695.4492l1.901.7485c.3914.1437.8153.1211.9419-.0504a2.62663,2.62663,0,0,0,.3546-.7315l-.0287-.0297a17.95389,17.95389,0,0,0-2.0683-1.7987.80542.80542,0,0,0-1.0304-.0038A6.68376,6.68376,0,0,0,837.71064,33.03315Z"/><path d="M570.40944-.29635a.54848.54848,0,0,0,.2871.922l4.052,1.386a6.17793,6.17793,0,0,0,.8351.2126,6.5341,6.5341,0,0,0-.0513-.898l-.1778-1.8683a5.15785,5.15785,0,0,0-.1013-.8825c-.0243-.0192-.4442-.2066-.8799-.3752l-.9733-.3899a1.55629,1.55629,0,0,0-1.4328.2565Z"/><path d="M900.468,38.439c-.2766-.3246-.6226-.5348-.7688-.4671a1.06185,1.06185,0,0,0-.3072,1.0043l.4772,1.4649a.82032.82032,0,0,0,.955.5102c.3632-.114,1.1164-.7892.8293-1.1047Z"/><path d="M905.78894,34.35605c.1476.0183.4969-.2732.7763-.6477a8.8532,8.8532,0,0,0,1.0924-2.2109c.0439-.4177-.0333-1.4485-.264-1.4801a1.87748,1.87748,0,0,0-1.3166.6416l-1.3981,2.303c-.2344.4191-.2832.8535-.1085.9652A7.03351,7.03351,0,0,0,905.78894,34.35605Z"/><path d="M653.17314,20.67915a.76868.76868,0,0,0-.8262-.5933,3.37454,3.37454,0,0,0-1.3967.6851,1.45654,1.45654,0,0,0,.4365.9964l1.6366,1.1954c.3043.2429.5189.1249.477-.2621Z"/><path d="M647.71244-2.32295a2.82171,2.82171,0,0,0-.1678,1.5591c.1036.4222.6485,1.4395.9746,1.4538a2.70906,2.70906,0,0,0,1.677-.7242l1.1774-2.107a3.05816,3.05816,0,0,0,.2471-1.6283l-.1641-.8988a1.35391,1.35391,0,0,0-.6937-1.032c-.305-.0964-1.3644.0761-1.5905.4964Z"/><path d="M607.47534,17.81155a8.67854,8.67854,0,0,1,.2249,1.0118l.7624,4.4924a2.53522,2.53522,0,0,0,.1815.7569.70577.70577,0,0,0,.279-.2548,2.51278,2.51278,0,0,0,.1243-1.2539l-1.2477-5.0451c-.0933-.413-.2214-.6676-.2848-.5659A2.13738,2.13738,0,0,0,607.47534,17.81155Z"/><path d="M594.03524,13.71905a.93733.93733,0,0,0-.1368-1.1767c-.3086-.2329-1.2944-.3089-1.3177.1661l-.1258,2.5893c-.0325.4745.1651.5447.4391.156Z"/><path d="M631.01324,7.85105c-.2692-.2039-.5705-.1628-.6695.0914a5.12042,5.12042,0,0,0-.2831,1.5083c.0511.2902.4791.6888.7622.4044l.5981-.6375C631.66514,8.89925,631.28234,8.05485,631.01324,7.85105Z"/><path d="M903.57564,12.51265a.60061.60061,0,0,0,.1155.9525l.914.7137c.3534.2491.7415.2273.8625-.0483s.2988-1.2086.0755-1.468A2.527,2.527,0,0,0,903.57564,12.51265Z"/><path d="M948.61584,28.68185c-.2032-.0286-.5363.2219-.7401.5569l-1.1701,2.0457a.80487.80487,0,0,0,.2409,1.0104c.3095.2058,1.3536.2782,1.4494-.102l.7516-2.6948A.79169.79169,0,0,0,948.61584,28.68185Z"/><path d="M848.59234,26.19705a1.00171,1.00171,0,0,0,.2952-.5908l1.054-4.5916c.061-.2878-.0037-.5015-.1438-.4748l-.1345.0373a8.2571,8.2571,0,0,0-.891.3004,1.16657,1.16657,0,0,0-.6173.723l-.8875,3.838a2.81149,2.81149,0,0,0-.0796.6894.47062.47062,0,0,0,.3809.3037A8.57255,8.57255,0,0,0,848.59234,26.19705Z"/><path d="M498.30974,35.26965a1.03655,1.03655,0,0,0-1.2644.2374l-.613.8872a.61437.61437,0,0,0,.4146.9371l1.8539.5183c.4511.1033.8719-.059.935-.3605a2.30783,2.30783,0,0,0-.4402-1.6328Z"/><path d="M789.67384,25.83465a.8652.8652,0,0,0-.7558-.8679l-1.0833-.1343a.67708.67708,0,0,0-.7681.6975l-.0606,3.3882a.73758.73758,0,0,0,.7691.7558l.9991-.011a.79931.79931,0,0,0,.7895-.788Z"/><path d="M894.27134,31.15225c-.0911.4591-.0717.8674.0431.9073a1.444,1.444,0,0,0,.9534-.5393l1.5834-2.1789a.61552.61552,0,0,0-.3074-.9728c-.4239-.1422-1.7534-.0662-1.8347.3948Z"/><path d="M519.74424,18.61215c.0464-.4733-.1594-.8641-.4574-.8685s-1.1022.3621-1.0972.8377l-.0436,2.9705c-.0105.4754.1679.8443.3964.8196a1.31581,1.31581,0,0,0,.901-.9354Z"/><path d="M599.99834,9.95665a.9006.9006,0,0,0,.673.7685c.2985.0223,1.1635-.1631,1.219-.3453a2.98548,2.98548,0,0,0-.1172-1.3462l-.8058-1.9192c-.1505-.378-.4417-.6327-.6472-.5659s-.7169.5805-.6576.983Z"/><path d="M945.22464,42.37275c-.019.2739.0672.5372.1915.5852a.83566.83566,0,0,0,.7147-.1841c.1317-.1894.2335-.8401.0224-.9475S945.24354,42.099,945.22464,42.37275Z"/><path d="M533.05084,15.20465c.0505-.3854-.1734-.5251-.4974-.3105l-1.3448,1.053a.77442.77442,0,0,0-.067,1.0331l.9446,1.0135a3.45714,3.45714,0,0,0,.5616.446,3.67348,3.67348,0,0,0,.1462-.7475Z"/><path d="M575.24134,14.91855c-.0714-.3962-.294-.4348-.4948-.0859l-.5185.9817c-.1611.3689-.0509.7183.245.7765s1.0952-.1454,1.025-.5418Z"/><path d="M571.828,35.34865c.013.383.1687.4289.3458.102s.4554-1.2891.2815-1.3193S571.81494,34.96565,571.828,35.34865Z"/><path d="M726.95994,3.30535a5.86337,5.86337,0,0,0,.1321-.8806l.4587-4.4228c.0543-.4539-.0239-.6726-.1739-.4859a4.62558,4.62558,0,0,0-.6174,1.5319l-.3801,3.4693c-.0578.4535-.0164.8355.0922.8489A1.50486,1.50486,0,0,0,726.95994,3.30535Z"/><path d="M865.71894,13.04215c-.1755-.3656-.3479-.6465-.3831-.6242a2.388,2.388,0,0,0-.1881.8167l-.1674,3.915a.56581.56581,0,0,0,.7263.5672l1.3559-.3831a.67255.67255,0,0,0,.3574-.9351Z"/></g></mask></defs><title>full_bg-05</title><rect class="cls-1" x="-0.00007" y="-3243.95473" width="1448.95829" height="6408.21233"/><g class="cls-2"><polygon class="cls-3" points="573.398 10.789 573.701 12.167 573.178 13.477 572.037 14.315 571.084 15.314 569.741 15.681 568.432 15.957 567.133 16.183 565.816 16.499 564.383 16.886 562.95 16.223 561.515 16.734 560.081 16.49 558.647 16.815 557.214 17.119 555.782 16.332 554.349 16.604 552.917 16.465 551.484 16.7 550.051 16.878 548.617 16.28 547.182 17.058 545.747 17.016 544.314 16.38 542.88 16.346 541.447 16.506 540.014 16.212 538.58 16.937 537.145 16.231 535.71 16.879 534.276 16.519 532.842 16.705 531.408 16.36 529.973 16.833 528.545 16.487 527.116 16.313 525.686 16.995 524.254 16.635 522.82 17.013 521.384 16.662 519.949 16.317 518.517 16.946 517.085 16.169 515.653 16.49 514.22 17.026 512.785 17.027 511.348 16.393 509.913 16.62 508.479 16.237 507.045 16.509 505.608 17.038 504.171 16.304 502.736 16.96 501.3 16.399 499.862 16.849 498.425 16.546 496.987 16.934 495.55 16.465 494.111 16.359 492.677 16.842 491.242 17.116 489.803 16.665 488.366 16.775 486.927 16.211 485.487 16.58 484.048 16.772 482.606 16.352 481.162 16.955 479.718 17.129 478.326 16.767 476.97 16.454 475.57 16.2 474.643 15.008 473.343 14.477 472.415 13.435 472.168 12.057 471.676 10.789 472.272 9.552 472.261 8.037 473.541 7.309 474.605 6.508 475.91 6.172 476.986 5.186 478.353 5.017 479.718 5.105 481.151 5.155 482.584 4.557 484.019 5.315 485.453 4.886 486.887 4.946 488.32 5.205 489.752 5.386 491.185 4.529 492.617 5.409 494.05 4.838 495.483 4.652 496.917 4.738 498.352 4.486 499.787 4.616 501.221 4.919 502.654 4.473 504.087 4.518 505.52 4.991 506.954 5.335 508.389 4.833 509.824 5.048 511.259 4.594 512.692 5.172 514.126 4.929 515.561 4.715 516.989 5.274 518.418 5.417 519.848 4.953 521.28 5.073 522.714 5.251 524.15 4.78 525.585 5.173 527.017 4.683 528.449 4.873 529.881 5.203 531.314 5.058 532.749 5.317 534.186 4.928 535.621 4.473 537.055 5.268 538.489 4.628 539.926 4.985 541.363 5.032 542.798 4.716 544.234 5.114 545.672 4.733 547.109 4.559 548.547 4.43 549.984 4.733 551.423 4.787 552.857 4.453 554.292 5.418 555.731 5.01 557.168 4.934 558.607 4.775 560.047 5.279 561.486 4.976 562.928 5.273 564.372 4.766 565.816 4.754 567.201 4.868 568.443 5.579 569.976 5.348 571.014 6.376 571.832 7.484 572.962 8.247 573.587 9.449 573.398 10.789"/><polygon class="cls-3" points="912.86 33.673 913.246 35.108 912.027 36.012 911.767 37.584 910.639 38.49 909.227 38.836 907.913 39.258 906.496 39.015 905.186 39.846 903.748 39.807 902.311 39.112 900.875 39.612 899.438 39.299 898.002 39.059 896.566 39.911 895.13 39.9 893.695 39.833 892.259 39.984 890.824 39.055 889.389 39.76 887.954 40.022 886.519 39.961 885.084 39.252 883.649 39.496 882.215 39.454 880.78 39.549 879.346 39.914 877.911 39.261 876.477 39.276 875.043 39.513 873.609 39.394 872.174 39.06 870.74 39.625 869.306 39.147 867.872 39.937 866.438 39.298 865.004 39.742 863.569 40.039 862.135 39.388 860.701 39.302 859.266 40.029 857.832 39.939 856.397 39.185 854.962 39.705 853.527 39.854 852.092 39.888 850.657 39.663 849.222 39.107 847.786 39.368 846.35 39.267 844.915 39.201 843.478 39.923 842.042 39.119 840.606 39.913 839.169 39.256 837.732 39.807 836.294 39.747 834.856 39.964 833.418 39.792 831.98 39.586 830.542 39.549 829.105 39.591 827.668 39.159 826.23 39.077 824.794 39.172 823.357 39.272 821.921 39.937 820.484 39.727 819.048 39.239 817.612 39.759 816.176 39.786 814.741 39.452 813.305 39.181 811.869 39.4 810.434 39.825 808.999 39.606 807.563 39.048 806.128 39.976 804.693 39.578 803.257 39.471 801.822 39.599 800.387 39.694 798.951 40.015 797.516 39.174 796.08 39.424 794.644 39.514 793.208 39.72 791.772 39.451 790.336 39.416 788.9 39.441 787.463 39.719 786.026 39.148 784.589 39.339 783.152 39.968 781.714 39.993 780.276 39.877 778.838 39.793 777.4 39.293 775.961 39.215 774.523 39.723 773.085 39.357 771.648 39.498 770.211 39.741 768.774 39.422 767.337 39.185 765.9 39.32 764.463 39.379 763.027 39.901 761.591 39.83 760.154 39.69 758.718 39.976 757.282 39.595 755.846 39.602 754.409 39.683 752.973 39.349 751.537 39.45 750.1 39.208 748.664 39.043 747.227 39.595 745.79 40.006 744.353 39.984 742.916 39.936 741.479 39.307 740.041 39.485 738.603 39.483 737.164 39.087 735.726 39.73 734.287 39.265 732.849 39.706 731.411 39.955 729.973 39.389 728.535 39.675 727.098 39.757 725.66 39.115 724.223 39.219 722.786 39.496 721.35 39.206 719.913 39.481 718.476 39.724 717.039 39.077 715.602 39.931 714.165 39.551 712.728 39.206 711.29 39.487 709.853 39.739 708.415 39.305 706.977 39.589 705.539 39.59 704.1 39.522 702.661 39.938 701.222 39.863 699.784 39.458 698.346 39.257 696.908 39.062 695.47 39.698 694.032 40.037 692.595 39.605 691.162 39.549 689.729 39.236 688.295 39.453 686.861 39.413 685.426 39.659 683.991 39.611 682.555 39.877 681.118 39.881 679.68 39.624 678.242 39.218 676.803 39.361 675.364 39.689 673.925 39.326 672.488 39.267 671.051 39.531 669.614 39.863 668.178 39.24 666.743 39.65 665.308 39.564 663.873 39.649 662.438 39.293 661.004 39.65 659.57 39.342 658.136 39.198 656.702 39.792 655.267 39.538 653.833 39.199 652.399 39.32 650.964 39.087 649.529 39.567 648.093 39.156 646.657 39.107 645.221 39.111 643.783 39.407 642.345 39.06 640.907 39.695 639.467 39.464 638.027 39.561 636.587 39.53 635.148 39.95 633.71 39.198 632.272 39.768 630.835 39.114 629.398 39.361 627.961 39.951 626.525 39.95 625.089 39.565 623.652 39.918 622.216 39.592 620.779 39.719 619.342 39.645 617.904 39.255 616.466 40.031 615.027 39.981 613.587 39.359 612.146 39.849 610.705 39.355 609.265 39.666 607.826 40.026 606.388 39.541 604.95 39.937 603.512 39.118 602.074 39.095 600.636 39.172 599.197 39.687 597.759 39.172 596.319 39.111 594.879 39.614 593.438 39.083 591.996 39.454 590.556 39.74 589.117 39.97 587.677 39.163 586.238 39.93 584.799 39.255 583.36 39.231 581.92 39.109 580.479 39.242 579.037 39.387 577.596 39.172 576.155 39.597 574.715 39.857 573.276 39.96 571.836 39.761 570.395 39.561 568.953 39.559 567.511 39.202 566.07 39.871 564.63 39.531 563.189 39.323 561.748 39.145 560.313 39.569 558.877 39.193 557.44 39.089 556.002 40.015 554.561 39.766 553.118 39.346 551.677 39.49 550.238 40.036 548.799 39.515 547.361 39.887 545.921 40.034 544.479 39.52 543.035 39.725 541.594 40.002 540.153 39.796 538.712 39.691 537.268 39.587 535.825 39.209 534.383 39.147 532.94 39.111 531.495 39.479 530.052 39.403 528.607 39.54 527.163 39.142 525.718 39.651 524.277 39.583 522.835 39.896 521.389 39.337 519.945 39.439 518.5 39.382 517.053 39.616 515.607 39.165 514.159 39.333 512.708 39.092 511.257 39.748 509.833 39.896 508.523 39.283 507.342 38.539 506.142 37.954 504.868 37.376 503.669 36.51 503.126 35.129 503.222 33.673 503.233 32.249 503.869 30.967 505.085 30.198 506.07 29.276 507.176 28.417 508.429 27.71 509.919 28.112 511.257 28.149 512.694 27.587 514.131 27.867 515.568 28.029 517.004 28.072 518.44 28.113 519.876 27.655 521.312 27.895 522.748 27.313 524.184 28.21 525.619 27.834 527.054 28.219 528.489 27.661 529.924 28.241 531.359 28.3 532.793 27.818 534.228 27.452 535.663 27.365 537.097 28.039 538.531 27.373 539.966 27.567 541.4 28.081 542.834 28.302 544.268 27.533 545.702 27.459 547.136 27.971 548.571 27.855 550.005 27.322 551.439 28.182 552.873 28.233 554.308 28.024 555.742 28.189 557.176 27.889 558.611 28.089 560.046 27.759 561.48 27.551 562.915 27.752 564.35 27.669 565.786 27.419 567.221 28.17 568.656 27.805 570.092 27.469 571.528 27.52 572.964 28.206 574.4 27.647 575.837 27.961 577.274 28.148 578.711 28.294 580.148 27.491 581.586 27.468 583.024 28.257 584.462 27.484 585.9 27.523 587.338 27.884 588.775 27.58 590.212 27.39 591.649 28.04 593.086 27.34 594.522 27.367 595.958 27.393 597.394 27.341 598.83 27.402 600.266 27.661 601.702 28.243 603.138 27.822 604.573 27.908 606.009 27.342 607.444 27.891 608.879 28.275 610.315 28.019 611.75 27.657 613.185 27.922 614.621 27.821 616.056 27.601 617.492 27.445 618.927 27.396 620.363 27.486 621.798 27.509 623.234 27.782 624.67 27.478 626.107 27.851 627.543 27.881 628.98 28.273 630.416 27.672 631.853 27.776 633.291 28.027 634.728 27.689 636.166 28.018 637.604 27.645 639.043 28.025 640.481 28.19 641.919 28.092 643.357 28.115 644.795 27.584 646.232 27.841 647.669 28.153 649.106 27.823 650.543 28.303 651.979 27.635 653.416 28.276 654.852 28.042 656.288 27.902 657.725 27.76 659.161 27.826 660.597 27.727 662.033 27.515 663.469 27.306 664.906 28.1 666.342 27.945 667.779 27.651 669.215 28.147 670.652 27.505 672.089 28.14 673.526 27.911 674.964 28.216 676.402 28.084 677.84 28.212 679.278 28.048 680.717 27.877 682.156 27.765 683.594 27.873 685.032 27.481 686.47 27.632 687.907 28.154 689.345 28.256 690.782 27.838 692.219 27.87 693.656 28.23 695.093 28.232 696.53 27.63 697.967 27.878 699.404 27.777 700.841 27.422 702.278 27.655 703.715 27.838 705.152 27.902 706.59 27.356 708.027 28.214 709.465 28.022 710.904 27.477 712.342 27.761 713.781 27.745 715.22 27.908 716.659 27.858 718.097 27.434 719.535 27.959 720.973 27.434 722.41 27.715 723.848 27.683 725.281 28.077 726.714 28.113 728.148 27.324 729.582 27.792 731.017 28.259 732.452 28.219 733.888 28.158 735.325 27.485 736.762 27.821 738.201 27.77 739.64 28.127 741.079 27.859 742.517 27.337 743.955 27.525 745.392 27.31 746.828 27.752 748.264 28.205 749.7 27.718 751.135 27.515 752.57 28.011 754.004 27.793 755.439 27.729 756.873 27.526 758.307 27.638 759.741 27.742 761.175 27.446 762.609 27.36 764.044 28.277 765.479 27.521 766.914 27.493 768.349 27.401 769.785 28.012 771.222 27.84 772.659 28.085 774.097 27.731 775.536 27.938 776.975 28 778.416 27.698 779.856 27.526 781.295 27.491 782.733 27.781 784.171 28.283 785.608 27.84 787.045 27.985 788.481 27.964 789.918 28.254 791.354 27.631 792.79 27.34 794.227 28.074 795.664 27.946 797.101 27.373 798.539 27.462 799.977 27.443 801.416 27.783 802.856 28.093 804.297 28.249 805.738 28.188 807.177 27.862 808.616 28.182 810.055 27.683 811.493 28.185 812.931 28.177 814.369 27.821 815.807 27.989 817.245 27.657 818.684 28.199 820.123 27.365 821.564 27.317 823.005 27.443 824.446 28.033 825.886 27.525 827.326 27.931 828.765 27.56 830.204 27.871 831.643 27.711 833.083 27.355 834.523 28.148 835.964 27.958 837.406 27.345 838.847 27.459 840.287 27.378 841.727 27.788 843.167 27.526 844.607 27.951 846.048 27.449 847.489 27.757 848.931 27.865 850.372 28.238 851.813 28.222 853.253 27.978 854.694 27.835 856.13 28.135 857.566 27.633 859.002 27.491 860.441 27.502 861.881 27.374 863.325 27.44 864.766 27.579 866.205 27.949 867.643 27.404 869.082 27.418 870.522 27.407 871.964 28.266 873.408 27.434 874.849 27.596 876.29 27.712 877.731 27.422 879.174 28.188 880.618 27.617 882.06 27.75 883.503 27.896 884.948 27.354 886.391 27.828 887.835 28.229 889.279 27.371 890.725 28.185 892.166 28.187 893.607 27.445 895.053 27.374 896.497 28.216 897.943 27.578 899.39 27.332 900.835 28.175 902.284 27.582 903.735 27.642 905.186 27.657 906.552 27.895 907.872 28.24 909.233 28.497 910.26 29.455 911.657 29.881 912.093 31.291 912.93 32.341 912.86 33.673"/><polygon class="cls-3" points="539.841 22.499 539.386 20.925 540.367 19.675 541.465 18.703 542.468 17.661 543.804 17.063 545.26 17.033 543.827 16.144 542.396 16.304 540.963 16.585 539.529 16.872 538.097 16.667 536.663 17.032 535.23 16.554 533.795 17.094 532.365 16.584 530.934 16.375 529.499 16.754 528.066 17.062 526.631 16.673 525.194 16.398 523.76 16.45 522.322 16.608 520.882 16.802 519.442 16.913 520.885 17.111 522.55 17.117 523.332 18.61 524.298 19.697 525.441 20.892 525.715 22.499 524.708 23.91 524.809 25.599 523.914 26.972 522.376 27.583 520.915 27.999 519.442 27.876 520.874 28.374 522.306 28.115 523.738 28.256 525.172 28.693 526.604 28.628 528.039 27.872 529.472 28.255 530.906 28.711 532.337 28.823 533.767 28.655 535.203 28.25 536.636 28.261 538.071 28.373 539.507 28.121 540.942 28.565 542.379 28.613 543.819 28.012 545.26 27.902 543.74 28.17 542.369 27.507 541.184 26.574 539.874 25.609 539.703 23.987 539.841 22.499"/><polygon class="cls-3" points="539.841 22.499 539.386 20.925 540.367 19.675 541.465 18.703 542.468 17.661 543.804 17.063 545.26 17.033 543.827 16.144 542.396 16.304 540.963 16.585 539.529 16.872 538.097 16.667 536.663 17.032 535.23 16.554 533.795 17.094 532.365 16.584 530.934 16.375 529.499 16.754 528.066 17.062 526.631 16.673 525.194 16.398 523.76 16.45 522.322 16.608 520.882 16.802 519.442 16.913 520.885 17.111 522.55 17.117 523.332 18.61 524.298 19.697 525.441 20.892 525.715 22.499 524.708 23.91 524.809 25.599 523.914 26.972 522.376 27.583 520.915 27.999 519.442 27.876 520.874 28.374 522.306 28.115 523.738 28.256 525.172 28.693 526.604 28.628 528.039 27.872 529.472 28.255 530.906 28.711 532.337 28.823 533.767 28.655 535.203 28.25 536.636 28.261 538.071 28.373 539.507 28.121 540.942 28.565 542.379 28.613 543.819 28.012 545.26 27.902 543.74 28.17 542.369 27.507 541.184 26.574 539.874 25.609 539.703 23.987 539.841 22.499"/></g></svg>