<svg id="mockup" xmlns="http://www.w3.org/2000/svg" xmlns:xlink="http://www.w3.org/1999/xlink" viewBox="0 0 759.48 881.29"><defs><style>.cls-1{fill:none;}.cls-2{clip-path:url(#clip-path);}.cls-3{fill:#f1c49d;}</style><clipPath id="clip-path"><rect class="cls-1" y="-19.66" width="802.81" height="919.64"/></clipPath></defs><g class="cls-2"><path class="cls-3" d="M96.74,3.26C158.82-4.09,221.44,10.17,281.06,29,318.3,40.68,355.35,54.4,388,75.82c36.41,23.9,66.42,56.79,103.76,79.22,66.3,39.83,151.92,44.48,210.13,95.41,42.5,37.18,63.81,97.1,54.32,152.76-13.67,80.24-83.47,139-155.5,176.85-41.77,22-86.43,39.92-122.42,70.46-64.13,54.41-95,144.05-167.7,186.41-39.68,23.14-86.79,28.93-132.41,34.24-47.07,5.47-94.92,10.93-141.58,2.72-34.46-6.06-67.22-19.43-98.77-34.57-30-14.4-60.26-31.43-79.38-58.66C-153,764.38-159.83,745.24-164,725.79c-28.58-132.93,61.84-268.11,41.08-402.49-4.78-30.92-15.37-60.74-19.75-91.71s-1.67-64.89,17.4-89.69c16.26-21.15,38.65-26.26,59.87-39.69,16.68-10.56,25.57-31.54,40.66-45.55C8.21,26.08,52.43,8.49,96.74,3.26Z"/></g></svg>