<svg id="mockup" xmlns="http://www.w3.org/2000/svg" xmlns:xlink="http://www.w3.org/1999/xlink" viewBox="0 0 258.76 136.76"><defs><style>.cls-1{fill:#fff;}.cls-2{mask:url(#mask);}.cls-3{filter:url(#luminosity-noclip);}</style><filter id="luminosity-noclip" x="-56.44" y="-91.83" width="364.83" height="345.41" filterUnits="userSpaceOnUse" color-interpolation-filters="sRGB"><feFlood flood-color="#fff" result="bg"/><feBlend in="SourceGraphic" in2="bg"/></filter><mask id="mask" x="-56.44" y="-91.83" width="364.83" height="345.41" maskUnits="userSpaceOnUse"><g class="cls-3"><path d="M143.24,42.91a2.81,2.81,0,0,0-.36.56l-.38.66c-.14.34-.19.65-.12.7a4.25,4.25,0,0,0,1,.32l.77.15a1.17,1.17,0,0,0,1-.1,1,1,0,0,0-.16-1l-1-.81Z"/><path d="M235.07,95.65c-.27,0-.34,0-.14.18s.83.42.89.32S235.35,95.69,235.07,95.65Z"/><path d="M98.12,3.61A.69.69,0,0,0,97.64,3c-.25-.06-.88.09-.78.38l.71,2c.09.29.25.34.34.11A10.19,10.19,0,0,0,98.12,3.61Z"/><path d="M66,14.78c.07-.3.08-.57,0-.6a1.13,1.13,0,0,0-.65.34l-1.12,1.14c-.22.25-.18.48.1.51a3.92,3.92,0,0,0,1.16,0A9.89,9.89,0,0,0,66,14.78Z"/><path d="M134.63,32.55a.68.68,0,0,0,.06-.21,1.23,1.23,0,0,0-.72-.23L132.4,32c-.39,0-.46.11-.15.31l1.16.72c.33.18.68.23.78.13S134.59,32.61,134.63,32.55Z"/><path d="M252.26,33.53a1.65,1.65,0,0,0-.15.71.94.94,0,0,0,.76.37l1.92-.24c.34-.08.49-.36.34-.62l-1.4-2.51c-.14-.26-.38-.26-.51,0Z"/><path d="M237.18,79.93c-.16-.29-.35-.32-.44-.05s-.05,1.06.17,1.1.71-.19.56-.48Z"/><path d="M234.34,84.21a.22.22,0,0,0,.2.21c.12,0,.42-.13.38-.31s-.17-.63-.23-.6-.26.12-.27.18A3.56,3.56,0,0,0,234.34,84.21Z"/><path d="M198.08,93a.46.46,0,0,0,.76-.11c.15-.31.37-1.2.09-1.3s-1.09-.27-1.22-.11A2.39,2.39,0,0,0,198.08,93Z"/><path d="M10.56,39.15a4.85,4.85,0,0,0-.5.42,1.28,1.28,0,0,0,.64.32l2,.53c.39.11.52,0,.28-.3L12,39C11.75,38.79,10.8,39,10.56,39.15Z"/><path d="M197.51,72.07a.73.73,0,0,0-.68.71c0,.33.33,1.2.48,1.15a11,11,0,0,0,1.17-.6l.83-.55c.33-.2.57-.44.55-.53A1.13,1.13,0,0,0,199,72Z"/><path d="M230.67,15.5a.54.54,0,0,0-.63.05l-.41.43a.38.38,0,0,0,.1.54l.77.52a.54.54,0,0,0,.63-.08l.34-.38a.41.41,0,0,0-.1-.56Z"/><path d="M9.26,43.53c-.3-.08-.56-.06-.58.06a.86.86,0,0,0,.29.65c.19.11.85.27.95.14S9.56,43.62,9.26,43.53Z"/><path d="M20.28,5.32a6.34,6.34,0,0,0-.88.06s-.12.13-.1.18a1.89,1.89,0,0,0,.9.19h1.24c.44,0,.76-.08.71-.15a1.86,1.86,0,0,0-1-.29Z"/><path d="M61.46,40.18c0,.16,0,.27.06.24a.47.47,0,0,0,.12-.39C61.61,39.89,61.47,40,61.46,40.18Z"/><path d="M50.4,45.79c-.35,0-.47.16-.26.45,0,0,.18.23.42.49s.54.28.66.05S50.75,45.83,50.4,45.79Z"/><path d="M154.26,7.91a1.81,1.81,0,0,0-.39.57c0,.14.19.49.61.43L156,8.66c.43-.06.52-.31.2-.56a5.74,5.74,0,0,0-.63-.4A1.58,1.58,0,0,0,154.26,7.91Z"/><path d="M47.71,44.29a.85.85,0,0,0-.34-.57,2.76,2.76,0,0,0-1.17-.46l-1.06.11c-.26,0-.5.12-.52.22a.69.69,0,0,0,.32.56l2,1c.23.1.47.12.52,0A3.73,3.73,0,0,0,47.71,44.29Z"/><path d="M168.06,36.54a.45.45,0,0,0,.09.6l1,.8c.19.13.4.22.46.18a1.64,1.64,0,0,0,.38-.4c.08-.13.16-.64,0-.8L169,36.1a.46.46,0,0,0-.61,0Z"/><path d="M197.94,112.94a.43.43,0,0,0,.08.63c.21.17,1.14.35,1.41.12l.8-.71c.25-.25.14-.47-.25-.5l-.73-.09A2.57,2.57,0,0,0,197.94,112.94Z"/><path d="M116.79,73.21c0,.3.25.4.55.23l.6-.3a1,1,0,0,0,.55-.69c0-.2-.24-.78-.52-.81s-1.09.3-1.12.6Z"/><path d="M55.07,131.22c-.18.26-.23.47-.13.47a1.89,1.89,0,0,0,.85-.36l.83-.69c.24-.22.32-.5.18-.63s-.8-.17-1,.1Z"/><path d="M122.34,8.46a.34.34,0,0,0,.27.32l.37.09a.42.42,0,0,0,.41-.18l.4-.93.09-.25-.28-.11-.77-.23a.26.26,0,0,0-.33.19Z"/><path d="M254.57,116.57s-.25.18-.45.44l-.43.54c-.18.27-.21.56-.07.64s.63,0,.72-.28l.23-.73C254.66,116.88,254.62,116.58,254.57,116.57Z"/><path d="M219.31,44.69c-.37,0-.64.13-.59.38s.49.88.84.78l1.33-.36c.36-.09.65-.2.64-.25a1.23,1.23,0,0,0-.68-.3Z"/><path d="M16.78,69.42c-.34.07-.65.2-.67.29s.17.4.48.5,1.24.11,1.27-.14S17.13,69.34,16.78,69.42Z"/><path d="M103.58,80.24c-.09.25.2.46.64.46l1.24-.06c.44,0,.5-.18.14-.38l-.94-.53C104.28,79.55,103.67,80,103.58,80.24Z"/><path d="M25.79,133.64c-.18.32-.25.61-.15.66a1.5,1.5,0,0,0,.93-.29l1.55-1.34c.28-.26.32-.62.09-.8s-1.16-.29-1.34,0Z"/><path d="M224.88,103.15a5.12,5.12,0,0,0-.16-.6c-.09-.29-.53-1.08-.81-1.11s-1.08.28-1.08.63v1.58c0,.34.33.48.68.3l.71-.33A2,2,0,0,0,224.88,103.15Z"/><path d="M118.59,121.71a5,5,0,0,0,.8-.33,1.08,1.08,0,0,0-.31-.69l-.88-1a1.31,1.31,0,0,0-1.15-.36c-.37.09-1.25.69-1.11,1l.58,1.29a1,1,0,0,0,1.09.39Z"/><path d="M12.23,96.61a3.17,3.17,0,0,0,.51,0l.13-.07s0-.23-.09-.45-.62-.81-.88-.8-.93.24-.85.46A2.48,2.48,0,0,0,12.23,96.61Z"/><path d="M99.93,56.64a1.27,1.27,0,0,0,.92.21l1.76-.16c.39,0,.64-.21.56-.36a1.64,1.64,0,0,0-1.1-.48l-1.71.17C100,56.07,99.82,56.49,99.93,56.64Z"/><path d="M72.33,68.78c0,.11,0,.27.21.35s.7.12.76-.06.08-.68-.11-.68A2,2,0,0,0,72.33,68.78Z"/><path d="M185.41,110s0,0,0,0,.07,0,.05,0S185.41,110,185.41,110Z"/><path d="M76.92,112.88c-.13.3,0,.55.16.54a2.31,2.31,0,0,0,1.12-.36c.17-.21.44-.92.22-1.06s-1-.2-1.12.09Z"/><path d="M81.65,121.89c-.14.11-.13.47,0,.79l.31.73c.15.32.4.57.56.55a.88.88,0,0,0,.52-.75L83,122.07c-.06-.34-.21-.62-.34-.62A3.73,3.73,0,0,0,81.65,121.89Z"/><path d="M227,125.23a.86.86,0,0,0-.8.64l-.36,2.52c-.06.33.08.64.3.69s1-.07,1.14-.37l1.63-3.08c.15-.31-.06-.53-.46-.5Z"/><path d="M50.5,81.48c-.31,0-.55.11-.55.35s0,1,.06,1a.73.73,0,0,0,.35.16,3.93,3.93,0,0,0,1,0c.13,0,.43-.33.38-.54A2.76,2.76,0,0,0,50.5,81.48Z"/><path d="M86.67,95.55c.33-.17.52-.42.43-.55a.74.74,0,0,0-.86,0L85,96.17l-.47.43h.07s.38-.17.71-.34Z"/><path d="M83.1,66.85c.08-.13-.09-.45-.37-.71s-1.4-.65-1.64-.35L79,68.28a.61.61,0,0,0,0,.84,1.79,1.79,0,0,0,1.44.13l1.87-1.46A7,7,0,0,0,83.1,66.85Z"/><path d="M38.16,111.51c.19.1.48-.05.65-.33l.63-1c.16-.28.18-.57,0-.65a.94.94,0,0,0-.9.2l-.71.91C37.68,110.93,38,111.42,38.16,111.51Z"/><path d="M35.11,124.42a4.22,4.22,0,0,0,.71,0,4.54,4.54,0,0,0,0-.63l0-.64a1,1,0,0,0-.77-.72l-1.8-.38a.57.57,0,0,0-.72.46l0,.91a.85.85,0,0,0,.74.68Z"/><path d="M183.14,105.68c0,.34.24.62.45.63s.66-.42.48-.73l-.61-1c-.18-.31-.34-.28-.34.06Z"/><path d="M19.64,88.82c-.06.19.16.23.49.09l.47-.2c.33-.14.43-.31.22-.38A1.88,1.88,0,0,0,19.64,88.82Z"/><path d="M213.6,110.33a.43.43,0,0,0-.5.15c-.11.16-.2.61,0,.59a2.87,2.87,0,0,0,.88-.16A1.17,1.17,0,0,0,213.6,110.33Z"/><path d="M233.06,98.22c-.1.25-.17.45-.17.46l.65,0a7.17,7.17,0,0,0,1.3-.16c0-.07-.06-.38-.33-.54S233.15,98,233.06,98.22Z"/><path d="M78.44,107.63c0,.3.2.42.51.25l1.1-.67c.31-.18.29-.44,0-.58l-.73-.27a.53.53,0,0,0-.71.39Z"/><path d="M163.56,121.22c-.27-.11-.52.07-.56.4l-.26,1.8c0,.33.07.56.26.51a1.7,1.7,0,0,0,.86-.74l.38-.94C164.36,121.93,163.83,121.34,163.56,121.22Z"/><path d="M195.78,130.46c-.15.27-.18.55-.06.62a1.42,1.42,0,0,0,.59.1,1.3,1.3,0,0,0,.22-.59l.18-1.23c0-.29-.05-.32-.22-.06Z"/><path d="M157.7,114.31a2.42,2.42,0,0,0,1,.14,4.8,4.8,0,0,0,1.48-.24,2.39,2.39,0,0,0,.09-.63.68.68,0,0,0-.74-.23l-1.68.44A.28.28,0,0,0,157.7,114.31Z"/><path d="M251.33,29.2a.91.91,0,0,0-.39.95s.49,1.58,1,2.76l.36.82A.5.5,0,0,0,253,34c.26-.17.88-1,.78-1.35l-1-3.3a.67.67,0,0,0-.82-.4A3.34,3.34,0,0,0,251.33,29.2Z"/><path d="M34.93,136.21c-.17.1-.3.21-.28.26a.89.89,0,0,0,.33.28,2.23,2.23,0,0,0,.88.19l.82-.18a.43.43,0,0,0,.33-.41l-.18-.74a.31.31,0,0,0-.44-.13Z"/><path d="M12.44,118.46c.11-.25-.09-.58-.46-.74a9.15,9.15,0,0,0-1.25-.48c-.05,0,0,.37.26.67l.6.82C11.85,119,12.32,118.7,12.44,118.46Z"/><path d="M186.45,111a.35.35,0,0,0,.46-.4c0-.29-.24-1-.46-.94s-.82.32-.85.46S186.17,111,186.45,111Z"/><path d="M65,138.18a.59.59,0,0,0,.26-.77c-.14-.23-.73-.83-1-.81s-.87.42-.8.72l.25,1a.44.44,0,0,0,.72.18Z"/><path d="M160.93,133c.35,0,.39-.18.08-.32l-1.26-.54c-.32-.12-.61,0-.64.19s.22.85.57.82Z"/><path d="M139.29,104l-.26,0a1.08,1.08,0,0,0-.58.66l-.46,1.94a1.83,1.83,0,0,0-.11.62,1.88,1.88,0,0,0,.32-.56l.91-2.08A2.45,2.45,0,0,0,139.29,104Z"/><path d="M169,88.53c-.17.2,0,.43.42.5l.8.12c.4.08.54-.06.31-.32S169.14,88.33,169,88.53Z"/><path d="M120.8,111.61c-.18,0-.38.21-.45.57l-.41,1.86c-.07.36,0,.68,0,.71s.46-.18.58-.53l.64-1.77A.81.81,0,0,0,120.8,111.61Z"/><path d="M138.36,127.26c-.13,0-.44.14-.68.41l-.47.49c-.25.26-.42.52-.37.56a.9.9,0,0,0,.69-.26l.78-.61C138.59,127.61,138.49,127.31,138.36,127.26Z"/><path d="M111,135.11a.67.67,0,0,0-.61.56l-.18,1a4,4,0,0,0,0,.58,4.79,4.79,0,0,0,.66-.25l.82-.3c.35-.14.58-.43.5-.66A2.55,2.55,0,0,0,111,135.11Z"/><path d="M9.43,84.86a.77.77,0,0,0-.59.42,3.93,3.93,0,0,0-.38.87,1.23,1.23,0,0,0,.62-.32l.57-.51C9.88,85.1,9.62,84.87,9.43,84.86Z"/><path d="M122.79,84.82a.94.94,0,0,0-1,.15l-.83.73c-.25.25-.17.51.19.58a3.7,3.7,0,0,0,1.68-.08C123,86,123.05,85,122.79,84.82Z"/><path d="M132.17,124.75c-.09,0-.26.24-.37.54l-.28.75c-.09.31-.07.58.06.6a2.34,2.34,0,0,0,.57,0,1,1,0,0,0,.22-.62l.07-.7A.65.65,0,0,0,132.17,124.75Z"/><path d="M30.66,93.5c-.19.25,0,.5.36.56l1.51.19c.39.06.5-.09.24-.34l-.86-.78C31.63,92.91,30.86,93.25,30.66,93.5Z"/><path d="M258.32,93.21c-.35.17-.57.49-.49.71s.63.86,1,.88h2.56a3,3,0,0,0,1.05-.21,1.13,1.13,0,0,0,.48-.92l-.49-1.82a.54.54,0,0,0-.81-.26Z"/><path d="M102.11,9.19a.68.68,0,0,0-1,.12l-.81,1.07c-.21.32,0,.63.39.69l2.45.35a1.55,1.55,0,0,0,.87,0,1,1,0,0,0-.32-.77Z"/><path d="M243.19,4.7a.55.55,0,0,0-.78.32l-.65,2.3c-.09.32.17.56.56.53l.94,0a1.62,1.62,0,0,0,1.09-.53l.69-1a.6.6,0,0,0-.26-.85Z"/><path d="M104.89,76.51a3.24,3.24,0,0,0-.29.51.54.54,0,0,0,.19.56,4.06,4.06,0,0,0,1,.31.78.78,0,0,0,.55-.36l.56-1.52c.07-.19,0-.39-.09-.44a2.2,2.2,0,0,0-.66-.16,1.46,1.46,0,0,0-.66.33Z"/><path d="M66.47,38.45c.32.18.6.12.63-.15a2.5,2.5,0,0,0-.32-1.39l-1.19-1.12c-.26-.23-.49-.16-.52.15L65,37a1.07,1.07,0,0,0,.56.89Z"/><path d="M40.62,61a.32.32,0,0,0-.35.07.48.48,0,0,0,.22.49l.2.06.14,0c.17.05.31,0,.31-.1A1.4,1.4,0,0,0,40.62,61Z"/><path d="M129.23,92.68a1.14,1.14,0,0,0-.72.16c-.16.12-.48.57-.35.7a1.07,1.07,0,0,0,1,0C129.38,93.38,129.47,92.72,129.23,92.68Z"/><path d="M57.1,75.7c.17.07.46-.14.63-.48l1-1.89a2.07,2.07,0,0,0,.26-.62,2.53,2.53,0,0,0-.56.5L57,74.84A.65.65,0,0,0,57.1,75.7Z"/><path d="M120.85,43a1.92,1.92,0,0,0,.59-.07c.25-.06.93-.37.94-.6l.05-.76A.6.6,0,0,0,122,41l-.8-.19a.38.38,0,0,0-.49.31l-.1,1.34A.61.61,0,0,0,120.85,43Z"/><path d="M80.9,37.31c-.29.24-.41.48-.28.53a2.12,2.12,0,0,0,1.07,0c.32-.12,1.11-.66,1-.86s-.75-.5-1-.26Z"/><path d="M160.83,85.82a3.57,3.57,0,0,0-.14.66l-.17,1c-.05.32.07.62.25.67a1.31,1.31,0,0,0,1-.42l.54-1a.53.53,0,0,0-.27-.74A4.28,4.28,0,0,0,160.83,85.82Z"/><path d="M30.64,50.18a.51.51,0,0,0,.74-.31l.16-.61a.72.72,0,0,0-.32-.75,10.12,10.12,0,0,0-1-.36,1.11,1.11,0,0,0-.48.43c-.14.23-.2,1.06.12,1.23Z"/><path d="M47.93,123.59s.17.23.43.41a4,4,0,0,0,1.14.51c.06-.06.32-.31.43-.45s0-.53-.42-.55l-.71,0A1.69,1.69,0,0,0,47.93,123.59Z"/><path d="M247.47,45.59c-.09,0-.09.27,0,.58l.15.55c.08.31.15.31.15,0A2.72,2.72,0,0,0,247.47,45.59Z"/><path d="M251.54,43.21a2.92,2.92,0,0,0-.78,0,2.8,2.8,0,0,0,.67.45l3,1.47a.83.83,0,0,0,1-.23c.18-.29.2-1.22-.23-1.26Z"/><path d="M80.69,12.62c-.39-.14-.54-.06-.32.16s1,.76,1.11.66S81.08,12.76,80.69,12.62Z"/><path d="M127.26,102.58a.78.78,0,0,0,.25,1l.59.43a1,1,0,0,0,1.11,0c.29-.22.78-1.16.53-1.41l-1-.92a.6.6,0,0,0-.88.12Z"/><path d="M224.53,109.34c-.35-.2-.68-.29-.74-.2a3.08,3.08,0,0,0-.25.52,1.15,1.15,0,0,0,.49.75l1.57,1.09c.34.21.72.28.87.16a2.77,2.77,0,0,0,.45-.62,1.46,1.46,0,0,0-.58-.59Z"/><path d="M9.56,4.74a5.59,5.59,0,0,0,.67.08l1,.09c.37,0,.68-.11.7-.26a4.14,4.14,0,0,0,0-.6,6.6,6.6,0,0,0-.67.16l-1.06.31A3.35,3.35,0,0,0,9.56,4.74Z"/><path d="M189.27,75.14c-.23,0-.31.32-.16.65l.65,1.64c.15.33.42.59.6.58a4.32,4.32,0,0,0,.7-.09,2.17,2.17,0,0,0,.16-.7V76.16a1,1,0,0,0-.41-.79A6.67,6.67,0,0,0,189.27,75.14Z"/><path d="M122.05,49.21l.4.14a3.64,3.64,0,0,0,.4-.39c.2-.2.58-.87.45-.93a3.57,3.57,0,0,0-1-.13,2.44,2.44,0,0,0-1,.34c-.07.13-.11.56.09.66Z"/><path d="M59.4,14.3c.29-.21.49-.47.42-.58a1.08,1.08,0,0,0-.92-.23l-1.34.36c-.36.12-.58.44-.47.72s.72.84,1,.63Z"/><path d="M63.14,18.32c0,.11.26.38.6.59a8.82,8.82,0,0,0,2,.82c.38,0,1.33,0,1.36-.2a1.32,1.32,0,0,0-.59-1l-2.12-1.06c-.38-.18-.78-.21-.88-.08A5.14,5.14,0,0,0,63.14,18.32Z"/><path d="M218.21,42.58l.15-.23a3.73,3.73,0,0,0-.62-.12c-.34-.06-.9,0-.69.13S218.13,42.7,218.21,42.58Z"/><path d="M244.33,103c.35-.07.6-.35.55-.62a2.48,2.48,0,0,0-.63-1.06,1.5,1.5,0,0,0-.92.33l-1.09,1.24c-.23.23-.12.39.24.36Z"/><path d="M160.86,3c-.36,0-.72.09-.78.3s.16.85.53.91l1,.15c.37,0,.65-.1.62-.32A2.88,2.88,0,0,0,160.86,3Z"/><path d="M247,68.42a8.16,8.16,0,0,1-.93.17l-4.13.58a3.37,3.37,0,0,0-.69.13.53.53,0,0,0,.23.21,2.72,2.72,0,0,0,1.15.1l4.63-.94c.38-.08.62-.17.52-.22A2.25,2.25,0,0,0,247,68.42Z"/><path d="M250.72,58.26a1,1,0,0,0,1.08-.1c.22-.24.29-1-.15-1l-2.38-.09c-.43,0-.5.12-.14.33Z"/><path d="M29.57,6.83c0-.11-.15-.21-.36-.23A2.44,2.44,0,0,0,28,7L24.4,10.45a.5.5,0,0,0,0,.78c.25.17,1.31.26,1.55,0l3.17-3.5A2.59,2.59,0,0,0,29.57,6.83Z"/><path d="M256.11,86.21c.19-.2.15-.43-.08-.51a5.84,5.84,0,0,0-1.39-.21c-.26,0-.63.36-.37.58l.59.45C255.15,86.7,255.92,86.41,256.11,86.21Z"/><path d="M83.2,16.65a.63.63,0,0,0-.88.09l-.65.69c-.23.26-.21.56,0,.65a2.4,2.4,0,0,0,1.35.05C83.3,18,83.45,16.87,83.2,16.65Z"/><path d="M68.35,50.69c0-.15-.2-.4-.51-.56L66,49.25a.83.83,0,0,0-.92.18c-.19.23-.26,1,.09,1.09l2.47.57A.73.73,0,0,0,68.35,50.69Z"/><path d="M113.3,24.8s0,0,0,0h0S113.32,24.81,113.3,24.8Z"/><path d="M183.32,71.82c-.28.18-.23.45.12.6l1.54.65c.35.15.51,0,.35-.27l-.59-1C184.54,71.56,183.6,71.64,183.32,71.82Z"/><path d="M150.81,121.1A2.59,2.59,0,0,0,150,121c-.33,0-1.3.24-1.36.59l-.3,1.45c-.07.35.23.61.66.59l1.05,0a.89.89,0,0,0,.87-.66l.17-1A1.06,1.06,0,0,0,150.81,121.1Z"/><path d="M205.53,67.72a1.07,1.07,0,0,0,.66-.09,2.51,2.51,0,0,0,.63-.63,1.31,1.31,0,0,0-.12-1.06l-.67-.59c-.27-.21-.62-.3-.77-.2a3.14,3.14,0,0,0-.73.93l-.31.72c-.13.29-.13.57,0,.62S205.3,67.69,205.53,67.72Z"/><path d="M202.87,10.92h.53l.94,0a1.47,1.47,0,0,0,.71-.58c.17-.31.4-1.22.09-1.27s-1.37.09-1.58.39l-.66.93C202.71,10.66,202.78,10.91,202.87,10.92Z"/><path d="M66.09,9.62c-.43-.07-.8-.06-.84,0a1.1,1.1,0,0,0,.5.72l2,1.2a.61.61,0,0,0,.89-.24c.13-.32.06-1.32-.36-1.38Z"/><path d="M194,81.55c0,.2.29.34.71.31l1.17-.09c.42,0,.46-.17.07-.32l-.93-.33A1,1,0,0,0,194,81.55Z"/><path d="M152.84,63.37a1.18,1.18,0,0,0,.46,1,4.87,4.87,0,0,0,1.92.7l3.35-.24a1.68,1.68,0,0,0,1.14-.6c.19-.31.48-1.4.25-1.7l-1-1.18a1.82,1.82,0,0,0-1.25-.48l-3.43.11a1.36,1.36,0,0,0-.94.3,4.89,4.89,0,0,0-.37,1.2Z"/><path d="M246.23,2.11c.43,0,.79-.12.8-.35s-.33-.83-.77-.83l-2.73,0c-.44,0-.77.13-.75.3a1.11,1.11,0,0,0,.86.68Z"/><path d="M254.18,62.77c-.37,0-.69.28-.71.51s.15.88.32.92a3.22,3.22,0,0,0,1.23-.09l1.77-.61c.34-.11.58-.33.52-.49a1.18,1.18,0,0,0-.91-.5Z"/><path d="M186.09,58.16a.63.63,0,0,0,.38.84l2.71,1.17c.36.16.68.26.72.21a1,1,0,0,0-.32-.66l-2.23-2.24a.56.56,0,0,0-.86.07C186.29,57.84,186.09,58.16,186.09,58.16Z"/><path d="M215.4,125.46c-.38.11-.38.27,0,.37l2,.45c.39.07.69-.12.66-.41s-.55-1.07-.93-1Z"/><path d="M55.78,48.13c-.25,0-.49,0-.53.14a.52.52,0,0,0,.17.54c.17.1.77.18.87,0S56,48.14,55.78,48.13Z"/><path d="M211.09,66.71c0-.32,0-.6-.12-.62a1,1,0,0,0-.69.48l-.75,1.56c-.13.3,0,.54.21.54a3.33,3.33,0,0,0,1-.2,4.5,4.5,0,0,0,.21-.89Z"/><path d="M249.36,12.17c.35,0,.48-.13.28-.38l-1-1a.84.84,0,0,0-1,0l-.93.72a3,3,0,0,0-.41.42,3.11,3.11,0,0,0,.69.11Z"/><path d="M119.31,68.23a1.4,1.4,0,0,0-.17-.62,2.55,2.55,0,0,0-.84.19l-2.27,1c-.36.14-.34.33,0,.43l2.58.59c.38.06.69-.15.69-.47Z"/><path d="M188.28,88a1,1,0,0,0,1,.28l1.86-.48c.42-.13.44-.39.06-.57l-1.27-.68a1.2,1.2,0,0,0-1.1,0C188.6,86.67,188.14,87.76,188.28,88Z"/><path d="M249.62,44.06c.37-.06.4-.23.08-.38l-.9-.39c-.34-.12-.66,0-.71.19s.13.82.49.77Z"/><path d="M230.86,41.48c-.35,0-.39.12-.09.26s1.18.34,1.21.21S231.22,41.47,230.86,41.48Z"/><path d="M184.79,64a.56.56,0,0,0,.41-.71l-.31-.94a.61.61,0,0,0-.79-.29l-1.18.4a.45.45,0,0,0-.3.68l.52.85a.74.74,0,0,0,.88.27Z"/><path d="M156,18.46c0,.19.39.32.79.27s.93-.3.58-.45-1.36-.48-1.36-.48A3.24,3.24,0,0,0,156,18.46Z"/></g></mask></defs><path class="cls-1" d="M47.91,80.7c8.62-5.08,16.81-15,19.47-22.72a1.26,1.26,0,0,0,.07-.28c0-.1-.11-.17-.35-.17a94.67,94.67,0,0,0-9.52,1.29,3.82,3.82,0,0,0-1.54.56,1.75,1.75,0,0,1-1,.49c-1.33,0-3.33-2-3.33-3.5a1.48,1.48,0,0,1,.88-1.47c.28,2,2.27,2,3.81,2,1,0,7.77-.46,10.47-.81a1.49,1.49,0,0,0,1.05-.49c.38-.35.73-.7,1.08-.7.74,0,3.36,2,3.36,2.63s-.49.66-1,.84a1.86,1.86,0,0,0-.94.94,61.53,61.53,0,0,1-5.95,9.45,41.69,41.69,0,0,1,9.17,6c1.5,1.5,2.8,3.15,2.8,4.37a1.84,1.84,0,0,1-1.72,2c-.94,0-1.61-1.12-2.73-3.05a32.31,32.31,0,0,0-8.29-8.43A43.72,43.72,0,0,1,48.37,81.36Z"/><path class="cls-1" d="M84,54A2.26,2.26,0,0,1,86,52.73c1.93,0,4.73,1.3,4.73,2.7,0,.31-.28.56-.53.91s-.45,6-.49,7.87c4,.46,7.7,1.44,9.73,2.59s2.91,2,2.91,3.36a1.45,1.45,0,0,1-1.44,1.47A4.26,4.26,0,0,1,98.21,70a21.84,21.84,0,0,0-8.5-4.65c0,3.53,0,7.28,0,9.48s.17,4.17.17,5.57c0,1.57-.7,2.34-1.61,2.34-1.4,0-1.92-2.94-2.31-4.51.77-1,.84-2,1-5.25.07-1.72.14-5.18.14-8.51,0-2.73,0-5.39-.14-6.89C86.87,55.81,86.66,54,84,54Z"/><path class="cls-1" d="M125.93,64.53a29.41,29.41,0,0,0,5-7.77c0-.14-.17-.25-.31-.25-3.89.25-11.55.84-13.55,1.16a18.19,18.19,0,0,0-3.46.7c-.77.31-1.16.73-1.89.73-1.37,0-3.36-2.13-3.36-3.5a2.14,2.14,0,0,1,.94-2l.14,0c.14,1.47,1.3,2.28,3.19,2.28,3.36,0,14.21-.6,17.25-.88a2.08,2.08,0,0,0,1.44-.45c.49-.39.91-.77,1.22-.77.77,0,3.61,2.66,3.61,3.46,0,.49-.63.67-1.37.84a2.8,2.8,0,0,0-1.61,1.09,33.45,33.45,0,0,1-6.61,5.88ZM118,62.22A2.26,2.26,0,0,1,120.16,61c1.61,0,4.23,1.12,4.23,2.17a.85.85,0,0,1-.42.63,4.84,4.84,0,0,0-.7,1.75c-1.57,6.48-4.55,12.43-12.42,17l-.56-.63a27.41,27.41,0,0,0,10.08-18.2c0-1.09-.74-1.4-1.68-1.4a4.43,4.43,0,0,0-.63,0Z"/><path class="cls-1" d="M171.08,75.55l-.42,5.6c.81.88,1.09,1.33,1.09,1.72A1.33,1.33,0,0,1,170.31,84c-1.22,0-4.58-1.47-6.75-4.55a22.12,22.12,0,0,1-9.14,4.17l-.24-.56a22,22,0,0,0,8.26-5.46,27.59,27.59,0,0,1-2.24-6.72h-5.39c0,1.08-.14,2.13-.28,3.18,3.43.7,4.55,2.21,4.55,3.36A1.44,1.44,0,0,1,157.71,79a1.52,1.52,0,0,1-1.08-.49,7.76,7.76,0,0,0-2.21-3.64,12.71,12.71,0,0,1-5.91,9.21l-.49-.53c3.6-3.67,3.88-8.15,3.95-12.63h-1.5a1.31,1.31,0,0,1-1.19,1,1.35,1.35,0,0,1-1-.49,11,11,0,0,0-2-5V83c0,.1-.35.91-2.66.91v-15a28.93,28.93,0,0,1-4.16,6.93l-.53-.45a46.07,46.07,0,0,0,4.24-14.77h-3.89l-.24-.77h4.58v-8.4l4.13.35c0,.49-.38.77-1.47.87v7.18H147l1.47-2.24,2.66,2.31c-.28.49-.7.7-1.61.7h-3.29v5c3.08,1.47,4.2,3.22,4.31,4.48h9.52c-.21-1.12-.39-2.35-.53-3.57h0a1.36,1.36,0,0,1-1.26,1.26,1.41,1.41,0,0,1-1-.53,6.74,6.74,0,0,0-.35-1.78c-1.26.45-3,1.12-5.35,1.85a1.05,1.05,0,0,1-.81.74l-1.29-2.84c.56,0,1.4-.07,2.34-.1A96.38,96.38,0,0,0,155.44,56l3.25,1.3c-.1-1.89-.17-3.85-.24-5.88l4.06.42c0,.42-.32.63-1.33.8.1,6.62.35,12.71,1.33,17.54h4.76L168.84,68l3,2.21c-.24.52-.66.7-1.61.7h-7.56a22.87,22.87,0,0,0,1.51,4.65,24.14,24.14,0,0,0,2.45-4l3.29,1.92a.8.8,0,0,1-.74.35,2.38,2.38,0,0,1-.63-.1,22.65,22.65,0,0,1-3.11,4,7.15,7.15,0,0,0,3.36,2.77c.17,0,.31-.18.49-.56a39.08,39.08,0,0,0,1.43-4.41ZM149.7,56.72a8.26,8.26,0,0,1,1.71.53c.53-1.61,1.12-3.78,1.61-5.74l3.57,1.19c-.1.38-.42.59-1.22.52-1,1.47-2.1,3.15-3.12,4.41a2.56,2.56,0,0,1,1.51,2.07A1.27,1.27,0,0,1,152.57,61a1.44,1.44,0,0,1-.95-.42A7.64,7.64,0,0,0,149.45,57Zm6.93,8a11.08,11.08,0,0,0-1.16-2.17l.39-.24c2.1,1,3.11,2.13,3.46,3.11h0c-.28-2.48-.49-5.11-.63-7.91-.21.25-.53.32-1.12.28a75.07,75.07,0,0,1-4.76,7.25ZM168.77,52.7c-.1.42-.45.59-1.26.56-1,1.36-2.24,3-3.29,4.16a2.73,2.73,0,0,1,1.61,2.24,1.24,1.24,0,0,1-2.17.91,7.28,7.28,0,0,0-2.06-3.81l.31-.28a9,9,0,0,1,1.54.56c.53-1.51,1.19-3.64,1.72-5.57Zm-4.9,11.65c1.23-2.31,2.7-5.67,3.92-8.64l3.33,1.43c-.18.39-.46.56-1.3.49A71.09,71.09,0,0,1,165,64.32c1.15,0,2.52-.11,3.88-.18a10.2,10.2,0,0,0-1.15-2.24l.35-.21c2.69,1.33,3.57,2.87,3.57,4a1.41,1.41,0,0,1-1.26,1.54,1.26,1.26,0,0,1-1-.52,6.63,6.63,0,0,0-.28-1.75c-1.16.38-2.63.8-4.45,1.33v0c2.45.18,3.29,1.09,3.29,1.89a1.24,1.24,0,0,1-1.22,1.23,1.38,1.38,0,0,1-.88-.35,4.76,4.76,0,0,0-1.71-2.45l.1-.18-.35.11a1.09,1.09,0,0,1-.87.7l-1-2.84Z"/><path class="cls-1" d="M184,52.52c-.14.39-.49.53-1.33.53a55.86,55.86,0,0,1-4.09,6.23c2.38-.07,5.21-.18,8.19-.28a14.32,14.32,0,0,0-2.91-2.91l.25-.31c5.18,1,6.82,3.36,6.82,5a1.58,1.58,0,0,1-1.43,1.75,1.76,1.76,0,0,1-1.12-.46,9.23,9.23,0,0,0-1.09-2.31c-2.66.63-6.26,1.37-11.06,2.24a1.28,1.28,0,0,1-.91.77l-1.47-3.32c.87,0,2.07,0,3.5-.07a80.74,80.74,0,0,0,2.24-8.09Zm1.51,12.15L186.8,63l3.39,2.49a2.79,2.79,0,0,1-1.5.7V80.28c0,2-.28,3.32-3.61,3.74,0-2-.7-2.62-2.66-2.87V80.7h3c.35,0,.49-.11.49-.49V75.62h-7v7.32s-.32,1-2.7,1V63.37l2.87,1.3Zm.35.77h-7v4.27h7Zm-7,9.41h7V70.48h-7Zm26.35-11.13c1.16.39,1.3.53,1.3,1,0,1.12-1,1.64-4.17,1.64h-6.12c-3.22,0-3.85-.63-3.85-3.39V51.44l4,.35c0,.42-.28.63-1.22.77V58a36,36,0,0,0,7.35-4l3,2.35a.91.91,0,0,1-.77.28,2.92,2.92,0,0,1-1-.18,48.71,48.71,0,0,1-8.61,2.31V63c0,.95.07,1,1.26,1h5.91c.6,0,.95,0,1.26-.46a20.05,20.05,0,0,0,1.3-3.57h.31Zm.21,13v3.85c1.16.42,1.3.56,1.3,1,0,1.12-1,1.68-4.17,1.68h-6.26c-3.26,0-3.89-.63-3.89-3.46V67.61l4,.35c-.07.42-.25.63-1.23.73v5.39a45.21,45.21,0,0,0,7.7-4.2l3.26,2.42a1,1,0,0,1-.84.31,4,4,0,0,1-1-.17,65,65,0,0,1-9.14,2.45v4.86c0,1,.07,1,1.26,1h6.09c.6,0,.95,0,1.26-.45a22.92,22.92,0,0,0,1.3-3.68Z"/><g class="cls-2"><path class="cls-1" d="M25.61,135.87l.14-2.09.76-1.76-.47-.73-.32-1.42.14-1.5L25.45,127l-.73-1.27-.09-1.63-1.43-.82-.69-1.32-.8-1.28L20.32,120l-1.23-.8-.91-1.31-1.37-.6-1.47-.35-1.46-.25L12.56,116l-1.47-.17-1.37-.75-1.54.6-1.45-.53-.86.11L4.39,115l-1.48.1-1.62.36L1.67,114l-.25-1.43.37-1.43-.46-1.43-.08-1.43L1,106.87l.55-1.43L1.42,104l-.11-1.43.24-1.43-.17-1.43.29-1.43-.55-1.43.72-1.42L1.2,94V92.58l.64-1.43-.26-1.44.13-1.43-.15-1.43.34-1.43L1.45,84V82.56L1,81.13l.4-1.43V78.27l.51-1.43-.67-1.43L1.38,74,1,72.54l.88-1.42-.13-1.43V68.27l-.35-1.43.13-1.43L1.41,64V62.54l-.25-1.43.63-1.42.14-1.43-.46-1.43L1,55.4,2,54l-.14-1.43.12-1.43-.72-1.43.24-1.43.19-1.44,0-1.43-.39-1.43L2,42.5l-.7-1.43.55-1.44L1.45,38.2,2,36.77l-.42-1.44.31-1.43,0-1.43L1.2,31,1.08,29.6l.64-1.44-.43-1.43V25.29l.44-1.44L2,22.42l1-.31,1.45.39,1.45.16.86-.09,1.5.45,1.47-.39,1.37-.7,1.46-.18L14,21.44l1.47-.27,1.24-.85L18.17,20,19.36,19l1.22-.86,1.14-1,1-1.07L23.7,15l.53-1.43.38-1.44L25.75,11l-.24-1.59L25.85,8l.84-1.44-.7-.7-.23-1.18-.18-1.2L26,2.27l1.43.08,1.43.35,1.44,0,1.43-.22,1.44-.19,1.44,0L36,1.8l1.44.37,1.44-.24,1.43.18,1.44.36,1.44-.27,1.44.54,1.43-.1,1.44-.4L49,1.79l1.43.94,1.44-.44h1.43l1.43.41,1.44-.36,1.43.33L59,2.53l1.44-.77,1.43.87,1.44-.31,1.44-.13,1.43.08,1.44.34,1.44-.75,1.44.49,1.43.1,1.44.22,1.43-.12,1.44-.21,1.43.07,1.44-.3,1.43.38H82l1.44.24,1.43-.07,1.43-.39,1.44.07,1.43.08,1.43-.33L92,2.66l1.43-.19,1.43-.4,1.44.65,1.43-.93,1.44.53,1.43-.19,1.44-.2,1.44.66,1.44-.53L106.37,2l1.44.6,1.43-.7,1.44,0,1.44.19,1.43.36L115,2.17l1.43.53L117.86,2l1.43,0,1.44.73,1.44-.81,1.43.1L125,1.93l1.43.1,1.44-.25,1.44,1,1.44-.18,1.44-.76,1.44.59,1.44-.47,1.43.6L138,1.93l1.44-.15,1.44.79L142.29,2l1.44-.22,1.44.08,1.43.33L148,1.84l1.44.64,1.44-.2,1.44.38L153.8,2l1.44.46,1.44-.37,1.44.37,1.43-.5,1.44.4,1.44-.41,1.44.36,1.44.35,1.44,0L168.19,2l1.44.29,1.44-.35,1.44.68L174,2.1l1.44.39h1.44l1.44.12,1.44-.22L181.15,2l1.44.54,1.43-.7,1.44.84,1.43-.36,1.44-.55,1.44.64,1.44.31,1.44-.31,1.44-.66,1.44.6L197,2.6l1.44-.3,1.44-.38h1.45l1.44.31,1.44.48,1.44-.95,1.44.91L208.49,2l1.44.06,1.44.52,1.45-.4,1.44.33,1.44-.33,1.45.17,1.44.26L220,1.83l1.44,0,1.44.13,1.45,0,1.44.59,1.45-.36L228.69,2l1.45.76,1.45-1,1.59.38.09,1.92-.35,1.78,0,.71L232.76,8l0,1.53.92,1.28.33,1.46.92,1.17.58,1.38,1.33.8.63,1.41,1.07,1,1.54.37.91,1.3,1.5.3,1.37.49L245,21.75l1.47.26,1.53-.1,1.44.15,1.45,0,1.45.58.86,0h3l1.24-.21-.12,1.42.67,1.43-.81,1.43.05,1.43.25,1.42.43,1.43V32.4l.14,1.44-.9,1.43,1,1.43-.93,1.43.23,1.43.48,1.43.11,1.42-.16,1.43,0,1.43.07,1.43-.22,1.44v1.43L257.19,51l.84,1.43-.93,1.43.59,1.43.25,1.43-.48,1.43-.34,1.43.63,1.43.09,1.43,0,1.43-.13,1.43-.65,1.43.61,1.43-.59,1.42.83,1.43-.17,1.43-.63,1.43.49,1.44.17,1.42-.32,1.43-.28,1.43L257,81l.42,1.43.11,1.44.3,1.43L257,86.75l.76,1.43-.25,1.43-.24,1.44.69,1.43-.75,1.43.47,1.44-.07,1.43-.22,1.43.09,1.44-.06,1.43,0,1.44.41,1.43.15,1.43-.26,1.44-.35,1.43.45,1.44-.68,1.43v1.44l.51,1.44-.36,1.44-1.22-.49-1.47.37-1.44-.24-.87.06-1.49-.07-1.41.69L248,116l-1.62-.47-1.18,1.22-1.32.59-1.34.54-1.28.66-1.49.38-1,1.14-1.58.45-.72,1.38-.93,1.14-.6,1.37-1.22,1-.48,1.43.41,1.63-.56,1.36-.06,1.45-.59.73.12,1.8.7,1.92-1.64-.38-1.43-.15-1.44.32-1.43-.3-1.44.44-1.44.13-1.43-.21-1.44.17-1.44-.66-1.44.3-1.43-.08-1.44-.07-1.44-.12-1.44.85-1.43-.63-1.44.2-1.44-.27-1.43-.16-1.43.09-1.44.34-1.43-.34-1.43.25-1.44,0-1.43.48-1.43.08-1.44-.51-1.44.34h-1.43l-1.44-.47L190,136l-1.44.11-1.43-.56-1.44.46-1.44-.35-1.43.24-1.43.16-1.44-.42-1.43.26-1.44-.43-1.43.11-1.43.31-1.43-.72h-1.44l-1.43,0-1.43.63-1.44-.55-1.43.55-1.44-.58-1.43.62-1.43-.37-1.44.54-1.44-.6-1.43.22h-1.44l-1.44-.46-1.44.12-1.44.53-1.43-.45H146.9l-1.43-.05-1.44.22-1.44.59-1.43-.92-1.44.61-1.43.14-1.44-.18-1.43,0-1.44-.52-1.44.32-1.43.14-1.44.18-1.44-.54-1.44,0-1.44.21-1.44-.28-1.44-.09-1.43.51-1.44.24-1.44-.31-1.43-.09-1.44.09-1.44.31-1.44,0-1.43-.3-1.44.42-1.44-.54-1.44.06-1.44-.34-1.44.72-1.44-.36-1.44-.3-1.43.11L98,135.5l-1.44.07-1.44.39-1.44-.51-1.44.48-1.44-.79-1.44.54-1.44.09-1.44-.54-1.44-.06-1.44.17-1.44-.09-1.44.44-1.44,0-1.44.07-1.44-.25-1.43.39-1.44-.26-1.43-.27-1.44.33-1.44-.17-1.44.21-1.44-.38-1.44.25-1.44.06-1.43-.17-1.44,0-1.44-.23-1.45.32-1.44.38L54.85,136l-1.44-.77-1.44,0-1.44.49-1.44.1-1.44,0-1.45-.27-1.44-.09-1.44.2-1.45-.29-1.44.72L39,135.8l-1.44-.21-1.45.09-1.44.29-1.44-.67-1.45-.18-1.44.56-1.45.33-1.44-.32ZM36.05,9.6l-1,.23-1.23.8.09,1.54-.25,1.49-1,1.2L32,16.17l-.6,1.37-1.4.8-.34,1.6-1.21.91-1.27.79-.82,1.28-1.11,1-1.56.32-1.18.86-1.14,1-1.22.88-1.47.3-1.33.65-1.56-.06-1.23,1.1L13,28.74l-1.43.34-1.48.48-.53,1.53L10,32.52l-.38,1.42.25,1.43-.38,1.42L10,38.22l.08,1.43.26,1.43L9.78,42.5l.12,1.43L10,45.35l-.25,1.43.17,1.42-.28,1.43.54,1.43-.71,1.43.64,1.42v1.43l-.64,1.43.26,1.42-.13,1.42L9.76,61l-.34,1.42.47,1.43v1.43l.44,1.43-.4,1.42v1.43L9.42,71l.67,1.43L10,73.86l.34,1.43-.87,1.43.13,1.43v1.42L9.91,81l-.14,1.43.17,1.43v1.43l.25,1.43-.63,1.43-.14,1.43L9.89,91l.43,1.43-.91,1.42.14,1.43-.12,1.43.72,1.43-.24,1.43L9.72,101l0,1.43.39,1.43-.76,1.44.7,1.43,0,1.53,1.48.41,1.36.73,1.52-.09,1.33.67,1.38.45,1.61-.12,1.42.48L21.25,112l1.5.32,1.26.78,1,1.2,1,1.05,1.63.36.83,1.27.91,1.16,1,1.07.44,1.47,1,1.1,1.09,1.09.46,1.41.38,1.43.13,1.48,1,1.06,1.25.81,1.43-.13,1.44,0,1.44,0,1.43,0h1.43l1.44-.34,1.43-.34,1.43.65,1.44-.67,1.43.1,1.43.76,1.44-.67,1.44-.17,1.43-.11,1.44.48,1.44.07,1.44.35,1.43,0,1.44-.22,1.43-.19,1.44,0,1.43-.57,1.44.37,1.43-.24,1.43.18,1.44.36,1.43-.27,1.43.54,1.44-.1,1.43-.4,1.43-.45,1.43.95,1.44-.45h1.43l1.44.42,1.43-.37,1.44.33,1.43-.15,1.44-.77,1.44.88,1.43-.32,1.44-.12,1.44.07,1.44.34,1.44-.74,1.43.48,1.44.1,1.43.22,1.44-.12,1.44-.21,1.43.07,1.44-.3,1.43.38h1.44l1.43.24,1.44-.07,1.44-.39,1.43.07,1.44.08,1.44-.33,1.44.58,1.44-.2,1.44-.4,1.43.65,1.44-.93,1.44.53,1.43-.19,1.44-.19,1.44.65,1.44-.53,1.43,0,1.44.6,1.44-.69,1.44-.05,1.44.2,1.44.35,1.44-.25,1.44.53,1.43-.68,1.44,0,1.44.73,1.44-.81,1.44.1,1.44-.08,1.44.1,1.44-.25,1.44,1,1.44-.18,1.44-.76,1.44.59,1.44-.47,1.44.61,1.44-.6,1.44-.15,1.43.79,1.44-.55,1.43-.22,1.44.09,1.44.32,1.44-.37,1.44.64,1.44-.2,1.44.38,1.43-.69,1.44.45,1.44-.37,1.44.37,1.44-.5,1.44.4,1.44-.41,1.44.36,1.44.36,1.45,0,1.44-.69,1.44.29,1.44-.35,1.44.68,1.45-.49,1.44.39h1.44l1.44.12,1.44-.22,1.45-.35,1.44.53,1.45-.7,1.44.84,1.44-.36,1.45-.55,1.45.64,1.45.31,1.37-.79.11-1.37,1-1.28.68-1.3.3-1.45.35-1.49.78-1.28,1.11-1,1.29-.82.3-1.73,1.69-.37.67-1.46,1.21-.86,1.5-.4,1-1.11,1.45-.41,1.17-.93,1.42-.42,1.46-.26,1.17-1.19,1.45-.33,1.49-.18,1.45-.29,1.49-.19.2-1.51-.2-1.42.76-1.42-1-1.43.31-1.43-.16-1.42.26-1.43,0-1.43.26-1.42.28-1.43L249,92.5l.24-1.43L249,89.64l.28-1.42-.54-1.43.52-1.43.06-1.42-.62-1.43.61-1.43-.45-1.42-.12-1.42.74-1.42-.17-1.43L248.89,74l-.08-1.43-.1-1.43.54-1.42,0-1.43.05-1.42,0-1.43.07-1.42.12-1.43-.67-1.43.81-1.43,0-1.42-.25-1.43-.43-1.43,0-1.43-.14-1.43.9-1.43-1-1.43.93-1.43-.23-1.43-.47-1.43L248.78,44l.16-1.42-.05-1.43-.07-1.43.23-1.43V36.83l.47-1.43L248.67,34l.93-1.44L249,31.09,248.37,30l-.91-1-1.39-.58-1.56.3-1.46-.29L241.63,28l-1.35-.63-1.1-1.17-1.58-.08-1-1.22-1.69-.06-1.12-1L233,22.51l-1.42-.59L230.4,21l-.76-1.3-.7-1.31-.72-1.26-1.11-1-.78-1.25-.86-1.24.29-1.65-1.1-1.22-.45-1.17L223,8.92l-1.44.69-1.43-.75-1.44.48-1.43-.07-1.44-.22-1.43.08-1.43-.05L211.5,9l-1.44.41-1.43.15-1.44-.26L205.76,9l-1.44.46-1.43-.68h-1.44L200,9.27l-1.44-.35-1.43-.22-1.44.42-1.43-.19L192.83,9,191.4,8.9,190,9.45h-1.43l-1.43-.81-1.44.84-1.43.1-1.43-.05-1.44,0L179.93,9l-1.43.32-1.44-.7-1.43.43H174.2l-1.44.25-1.43-.6-1.44.09-1.43.83L167,9.3l-1.44,0-1.44-.62-1.43,0-1.44.65-1.44-.49-1.44-.14L157,9.08l-1.44-.3-1.44.44-1.43.13-1.44-.21-1.43.17-1.44-.66-1.43.3-1.44-.08L144,8.8l-1.44-.12-1.44.85-1.43-.63-1.44.2-1.44-.27-1.44-.17-1.44.1-1.44.33-1.44-.33L129.66,9l-1.44,0-1.44.48-1.43.08L123.91,9l-1.44.34-1.44,0-1.43-.46-1.44.63-1.44.1-1.44-.55-1.44.46-1.44-.35L111,9.4l-1.43.17-1.44-.42-1.44.26L105.21,9l-1.44.12-1.44.31-1.44-.72H99.45L98,8.64l-1.44.64-1.44-.55-1.44.54L92.25,8.7l-1.44.62L89.37,9l-1.44.54-1.44-.6-1.43.22H83.63l-1.44-.46-1.44.12-1.44.53-1.44-.45H75l-1.43-.05-1.44.22-1.44.59-1.44-.92-1.44.61-1.44.14-1.44-.18-1.44,0L62,8.74l-1.45.32-1.44.13-1.44.18-1.44-.53-1.44,0-1.45.21-1.44-.29L50.5,8.71l-1.44.51-1.44.24-1.45-.32-1.44-.08-1.45.09-1.44.31-1.45,0L39,9.2l-1.38.41Zm2.51,115.24-.37-1,.1-1.59-1-1.13-.9-1.15-.42-1.44-.83-1.19-1.05-1-.44-1.55-1.54-.55-.85-1.2-.9-1.2-1.42-.56-1.23-.76-.89-1.31-1.32-.66L24,108.15l-1.43-.39-1.21-.85L20,106.52l-1.21-1-1.61.29L15.88,105l-.76-.07.32-1.42,0-1.44-.47-1.44.38-1.44-.25-1.44.37-1.44L15,94.88l-.08-1.44L14.63,92l.54-1.44-.12-1.44-.11-1.44.25-1.44L15,84.8l.29-1.44-.55-1.44.72-1.43-.65-1.44V77.61l.65-1.44-.27-1.44.14-1.44-.15-1.44.33-1.44L15.07,69V67.54l-.43-1.44.4-1.45V63.21l.51-1.44-.67-1.44L15,58.89l-.34-1.44L15.53,56l-.13-1.45V53.12l-.35-1.44.14-1.45L15,48.79V47.34l-.26-1.44.63-1.44L15.54,43l-.47-1.44-.43-1.45.91-1.45-.14-1.44.12-1.45-.72-1.45.25-1.46.82,0,1.41-.39,1.28-.79,1.62.24,1.11-1.18,1.56-.08,1.15-1,1.52-.25,1-1.11,1.4-.54,1.21-.84.73-1.43,1-1,1.49-.54.69-1.35,1-1.09,1.23-.89,1-1.09.08-1.66,1-1.11.71-1.28.42-1.4.4-.17,1.26-.22,1.44-.47,1.43.14,1.44.11,1.44.26,1.43-.27,1.44.38,1.44-.14,1.44,0,1.44,0H56l1.44-.34,1.44-.34,1.44.65,1.44-.67,1.44.11,1.43.75L66,13.26l1.44-.17L68.91,13l1.44.48,1.44.08,1.43.34,1.44,0,1.44-.22,1.43-.19,1.44,0L80.41,13l1.43.37,1.44-.24,1.44.18,1.44.36,1.44-.27,1.44.54,1.44-.1,1.44-.4L93.36,13l1.44.95,1.44-.45h1.44l1.44.42,1.44-.37,1.44.33,1.44-.15,1.44-.77,1.44.88,1.43-.32,1.44-.12,1.44.07,1.44.34,1.44-.74,1.44.48,1.44.1,1.44.22,1.45-.12,1.44-.21,1.44.08,1.44-.31,1.44.38h1.44l1.44.24,1.44-.07,1.44-.39,1.44.07,1.44.09,1.44-.33,1.45.57,1.44-.2,1.44-.4,1.44.65,1.45-.92,1.44.52,1.44-.19,1.44-.19,1.44.65,1.44-.53,1.45-.05,1.44.6,1.44-.69,1.45,0,1.44.2,1.44.35,1.44-.25,1.44.53,1.45-.68,1.44,0,1.44.73,1.45-.81,1.44.1,1.44-.08,1.44.11,1.44-.25,1.44.95,1.44-.18,1.44-.76,1.44.59,1.45-.47,1.44.61,1.44-.6,1.44-.15,1.44.79L187,13.2l1.45-.22,1.44.09,1.45.32,1.44-.37,1.45.65,1.44-.21,1.44.38,1.45-.69,1.45.45,1.44-.37,1.45.37,1.44-.5,1.45.4,1.44-.41,1.45.36,1.45.36,1.44,0,1.45-.69,1.45.28,1.45-.35,1.45.69,1.45-.5,1.37.38.08.48.42,1.42.81,1.24,1,1.12.3,1.52,1.4.8.23,1.67,1.22.88,1.4.66.6,1.47.91,1.2,1.35.66,1.57.31.88,1.3,1.15.93,1.43.43,1.47.29,1.32.58,1.24.81,1.23.93,1.66-.49,1.19,1.25,1.08-.34,0,1.55-.51,1.44.39,1.44-.33,1.44.33,1.44-.17,1.44L243.58,43l.78,1.44-.05,1.44-.14,1.44.05,1.44-.59,1.44.36,1.44.21,1.44-.76,1.44,1,1.44-.31,1.43.15,1.44L244,60.24l0,1.44-.26,1.44-.28,1.44L244,66l-.24,1.43.27,1.44-.28,1.44.54,1.44-.52,1.45-.06,1.44.62,1.44-.61,1.44.45,1.44.12,1.44-.74,1.44.18,1.45.42,1.44.08,1.44.1,1.45-.54,1.44,0,1.44-.05,1.44,0,1.45-.07,1.44-.12,1.44.67,1.45-.81,1.44.05,1.45.25,1.45.43,1.45v1.56l-.89.46-1.64-.51-1.12,1.35-1.67-.4-1.29.75-1.14,1-1.25.74-1.35.54-1.22.78-1.17.84-1.3.67-1.14.9-1.41.6-.48,1.61-1.67.41-.51,1.5-.68,1.29-1.21.92L222,119.61l-.13,1.59-.52,1.34-.49,1.35-.45.69-1.5-.63-1.44.61L216,124l-1.44.83-1.44-.18-1.43-.62-1.44.49-1.44.17-1.44-.32-1.44-.28-1.44-.15-1.44.43-1.44.11-1.44.3-1.44-.83-1.44.76-1.44-.25-1.44-.24-1.43.69-1.44-.75-1.44.47-1.43-.06-1.44-.23-1.43.09-1.44-.05-1.44,0-1.43.4-1.44.16-1.44-.26-1.43-.35-1.44.45L174.3,124h-1.44l-1.44.51-1.44-.35-1.44-.23-1.44.43-1.44-.19-1.44.08-1.44-.11-1.44.55H159.9l-1.44-.81-1.44.84-1.44.1-1.44-.06-1.44,0-1.43-.47-1.44.32-1.44-.7-1.44.43-1.44,0-1.44.26-1.44-.6-1.44.09-1.45.83-1.44-.33-1.44,0-1.44-.62L134,124l-1.44.64-1.44-.48-1.44-.14-1.44.32-1.44-.3-1.44.44-1.44.13-1.45-.21-1.44.17-1.44-.66-1.45.3-1.44-.08-1.44-.07L113.8,124l-1.44.84-1.44-.62-1.44.2L108,124.1l-1.44-.17-1.44.1-1.45.33-1.44-.34-1.44.26-1.44,0-1.44.47-1.45.08-1.44-.5-1.44.34-1.45,0-1.44-.46-1.44.63-1.44.1-1.44-.55-1.44.46-1.44-.35-1.44.23-1.44.17-1.45-.42-1.44.26-1.44-.44-1.44.11-1.44.32L72,123.94H70.54l-1.44,0-1.45.64L66.21,124l-1.45.54L63.32,124l-1.45.61-1.44-.37-1.45.55-1.44-.6-1.45.22H54.65l-1.45-.47-1.45.13-1.44.53-1.45-.45H46l-1.45-.05-1.45.21-1.45.6L40.11,124ZM41.62,15.63l-.91.13-1.23.46-.16,1.48-.46,1.38-1.07,1L37,21.27l-.69,1.26-1.43.65-.4,1.54-1.21.8L32,26.23l-.81,1.24-1.07.94-1.51.3-1.12.85-1.07,1-1.13.9-1.41.36-1.23.71-1.51,0-1.09,1.17-1.5,0-1,.82-.72,1.22.05,1.44.46,1.44L17,40l.25,1.44-.37,1.44.46,1.45.08,1.44.26,1.44-.54,1.45.12,1.44.11,1.44L17.09,53l.17,1.44L17,55.89l.55,1.44-.72,1.44.65,1.45v1.44l-.65,1.44.27,1.44L16.92,66l.15,1.44-.33,1.44.46,1.45v1.44l.43,1.45-.4,1.44v1.44l-.51,1.45L17.4,79l-.13,1.44.34,1.45-.87,1.44.13,1.45v1.45l.35,1.44-.13,1.45.16,1.44V92l.26,1.45-.63,1.44-.15,1.45.47,1.45.44,1.45-.92,1.46.14,1.45.37,1.46,1.46.19,1.28.66,1.27.64,1.33.5,1.45.21.94,1.3,1.57,0,.95,1.19,1.39.44.87,1.21,1.37.52.89,1.14,1,.95,1.47.52,1.06,1,.42,1.49,1.19.88.8,1.18.35,1.43.48,1.33,1.32.94.43,1,1.08.44,1.44-.12,1.43.5,1.44-.25,1.44-.48,1.44.15,1.44.11,1.44.26,1.44-.28,1.44.38,1.44-.14,1.44,0,1.44,0,1.43,0h1.44l1.44-.35,1.43-.34,1.44.65,1.43-.66,1.44.1,1.44.76,1.43-.67,1.44-.18,1.43-.11,1.44.49,1.43.07,1.44.35,1.44,0,1.43-.22,1.44-.19,1.44,0,1.44-.56,1.44.37,1.44-.24,1.44.18,1.44.36,1.45-.27,1.43.54,1.44-.1,1.44-.4,1.44-.45,1.44.94,1.44-.44h1.43l1.44.42,1.44-.37,1.44.33,1.44-.15,1.44-.77,1.44.87,1.44-.31,1.44-.13,1.44.08,1.44.34,1.44-.74,1.44.48,1.44.1,1.44.22,1.44-.12,1.44-.21,1.44.07,1.44-.3,1.44.38h1.44l1.44.24,1.45-.07,1.44-.39,1.44.07,1.44.08,1.44-.33,1.44.57,1.44-.19,1.44-.4,1.45.65,1.44-.93,1.44.53,1.44-.19,1.45-.2,1.44.66,1.44-.53,1.44,0,1.44.6,1.44-.7,1.45,0,1.44.19,1.44.36,1.44-.25,1.45.53,1.43-.68,1.44,0,1.44.73,1.44-.81,1.44.1,1.45-.08,1.44.1,1.44-.25,1.44,1,1.44-.18,1.44-.76,1.44.59,1.45-.47,1.44.6,1.44-.59,1.45-.15,1.44.79,1.45-.55,1.44-.22,1.44.08,1.45.33,1.44-.37,1.45.64,1.45-.2,1.44.38,1.45-.7,1.44.46,1.45-.37,1.44.37,1.45-.5,1.45.4,1.44-.41,1.45.36,1.45.35,1.46,0,.93-1,.9-.63.29-1.44,1.27-.92.31-1.46,1.12-1,.85-1.12,1-1,.78-1.18.76-1.25,1.4-.55.64-1.45,1.64-.18.94-1.1.91-1.23,1.55-.16,1.38-.38,1.13-.9,1-1.17,1.55,0,1.4-.26,1.25-.71.75-1,.33-1,.31-1.44.48-1.45-.94-1.44.9-1.44-.67-1.44.06-1.45.52-1.44-.4-1.45.34-1.44-.34-1.44.17-1.44.26-1.44-.78-1.44.05-1.44.13-1.44,0-1.44.59-1.45-.36-1.44-.21-1.44.76-1.45-1-1.44.31-1.44L241.51,69l.26-1.45,0-1.44.26-1.45.27-1.44-.54-1.45.25-1.44-.28-1.45.29-1.44L241.43,56l.53-1.44,0-1.45-.62-1.45.62-1.45-.46-1.44-.11-1.44.73-1.45L242,44.4,241.58,43l-.08-1.45-.1-1.44.54-1.45,0-1.46L242,35.7l-.39-1.29-1.1-.85-1.3-.53-1.56.16-1-1.28-1.3-.52L233.92,31l-1.45-.29-1.24-.7L230,29.37l-.64-1.55-1.72-.08-.5-1.61-1.19-.77-1.34-.66-1.05-1-.79-1.2-.9-1.11L221,20.27l-.55-1.34-.68-1.24-.17-1.48-1.33-.32-.83-1.18L216,15.3l-1.44.25-1.43-.47-1.44-.34-1.44.62-1.44.09-1.44,0-1.44-.13-1.44-.65-1.44.61-1.44-.59-1.44.84-1.43-.18-1.44-.63-1.44.49-1.43.17L193,15.09l-1.43-.28-1.44-.14-1.44.42-1.43.11-1.44.3-1.43-.83-1.44.77-1.43-.26L180,14.94l-1.44.69-1.44-.75-1.43.48-1.44-.07-1.44-.22-1.44.09L170,15.1l-1.44,0-1.45.41-1.44.15-1.44-.26L162.76,15l-1.44.46-1.44-.68h-1.44L157,15.3l-1.44-.36-1.43-.22-1.44.42L151.25,15l-1.44.09-1.44-.12-1.44.56h-1.44l-1.44-.81-1.44.84-1.44.1-1.44,0-1.44,0L136.85,15l-1.44.32-1.44-.7-1.44.43h-1.44l-1.44.25-1.44-.6-1.44.09-1.44.84-1.45-.34-1.44,0L121,14.73l-1.44,0-1.44.65-1.44-.48-1.44-.15-1.44.32-1.45-.3-1.44.44-1.44.13L108,15.16l-1.45.17-1.44-.66-1.44.3-1.44-.08-1.44-.07-1.45-.12-1.44.85-1.44-.63-1.44.2-1.45-.27-1.44-.16-1.43.09-1.44.34-1.44-.34L86.41,15,85,15l-1.45.48-1.44.08L80.64,15l-1.44.34-1.44,0-1.44-.46-1.44.63-1.45.11L72,15.08l-1.44.46-1.45-.35-1.44.23-1.45.17-1.44-.42-1.44.26L61.88,15l-1.44.11L59,15.42l-1.45-.72H56.1l-1.45,0-1.44.63-1.45-.55-1.44.55-1.45-.58-1.45.62L46,15l-1.45.54L43,14.92Z"/></g></svg>