<svg id="mockup" xmlns="http://www.w3.org/2000/svg" xmlns:xlink="http://www.w3.org/1999/xlink" viewBox="0 0 222.59 222.59"><defs><style>.cls-1{mask:url(#mask);}.cls-2{opacity:0.28;}.cls-3,.cls-4{fill:none;stroke:#fff;stroke-miterlimit:10;}.cls-3{stroke-width:10px;}.cls-4{stroke-width:4px;}.cls-5{filter:url(#luminosity-noclip);}</style><filter id="luminosity-noclip" x="-22.49" y="-28.09" width="281.6" height="287.54" filterUnits="userSpaceOnUse" color-interpolation-filters="sRGB"><feFlood flood-color="#fff" result="bg"/><feBlend in="SourceGraphic" in2="bg"/></filter><mask id="mask" x="-22.49" y="-28.09" width="281.6" height="287.54" maskUnits="userSpaceOnUse"><g class="cls-5"><path d="M97.36,125.51a.54.54,0,0,1-.66-.07s-.53-.55-.49-.84a1.73,1.73,0,0,1,.46-.78.41.41,0,0,1,.6,0l.71.77a.35.35,0,0,1-.07.55Z"/><path d="M138.62,197.1a1,1,0,0,1-1.56.12l-3.54-3.32a.67.67,0,0,1,.24-1.21s1.59-.59,2.13-.14a14,14,0,0,1,2.78,4.06A.47.47,0,0,1,138.62,197.1Z"/><path d="M175.9,75.2a1.07,1.07,0,0,1-1.69.33,6.94,6.94,0,0,1-1.5-1.69c-.14-.34.54-1.37,1.06-1.61A30.44,30.44,0,0,1,177,71c.72-.22,1,.15.66.81Z"/><path d="M26.62,136.56a1.24,1.24,0,0,1,2,.41,8,8,0,0,1,.84,2.5c0,.42-1.19,1.22-1.86,1.24a34.92,34.92,0,0,1-4.06-.15c-.88-.08-1-.61-.36-1.16Z"/><path d="M58.68,182.06c-.13.42-1.13-3.61-1.13-3.61-.24-.38-.11-.51.28-.3a9.33,9.33,0,0,1,1.52,1.1A13,13,0,0,1,58.68,182.06Z"/><path d="M203,138.67a1,1,0,0,1,1.13.28s.79.87,1.36,1.56c0,0-.43.49-.51.45-1-.53-2.32-1.29-2.32-1.29C202.23,139.44,202.63,138.86,203,138.67Z"/><path d="M107.9,207.18a1.8,1.8,0,0,1,.37-1.91s1-.91,1.12-.79a6.74,6.74,0,0,1,1.36,1.25.92.92,0,0,1-.33,1.46,17.88,17.88,0,0,1-2,.82C108.3,208,107.9,207.18,107.9,207.18Z"/><path d="M107.35,199.76c.49-.31,1-.43,1.14-.28s.07.78-.39,1.11c0,0-2.4,1.75-4.07,2.86-.08.05-.29-.18-.29-.18a.87.87,0,0,1,.19-1.34Z"/><path d="M11.53,91.86a7,7,0,0,1-.82,3.43c-.52.87-2.18,2.4-2.42,1.26a10.29,10.29,0,0,1,0-3.84A6.39,6.39,0,0,1,9.81,90C10.63,89.15,11.46,90.85,11.53,91.86Z"/><path d="M38.5,166c.65-.73,1.26-.54,1.37.43a.9.9,0,0,1-.17.56c-1.39,2-3.24,4.53-3.24,4.53a1.28,1.28,0,0,1-2.15,0s-.22-.27-.05-.48C35.73,169.1,38.5,166,38.5,166Z"/><path d="M213.88,133.8c-.56-.39-.48-.89.16-1.1,0,0,2.18-.73,3.48-1.07l.18,0c.31.35.1,1-.46,1.35a22.35,22.35,0,0,1-2.27,1.33C214.72,134.38,213.88,133.8,213.88,133.8Z"/><path d="M175.28,145.7c0,.11-.17.09-.31,0l-.75-.73c-.14-.13-.18-.29-.1-.36h0c.38.36.76.72,1.12,1.09Z"/><path d="M174.39,87.11c-.25.14-.16,0,.19-.29,0,0,1.11-.95,1.87-1.54h0a.61.61,0,0,1-.26,1l-1.73.84Z"/><path d="M28.18,39.69a1.9,1.9,0,0,1,1.89.15c.54.39,1.08,1.56.25,1.94a6.39,6.39,0,0,1-2,.45,1,1,0,0,1-.84-.23C26.87,41.32,27.68,40,28.18,39.69Z"/><path d="M198.55,204.94a14.45,14.45,0,0,0-2.53.72l-5.13,1.74c-1.37.46-2.29-.32-2-1.74,0,0,.12-.7.51-.73,3.05-.22,6.13,0,9.2,0Z"/><path d="M129.44,79.55c.32-.27.74-.35.94-.18a.57.57,0,0,1-.06.89s-.58.31-1.22.59a1.64,1.64,0,0,1-.39-.6A8.59,8.59,0,0,1,129.44,79.55Z"/><path d="M177.2,104.6c.5-.92.77-.82.61.21a17.08,17.08,0,0,1-.49,2.27c-1,2.17-2.38,4.77-2.38,4.77-.48.93-1.14,1-1.48.09l.24-.55C174.59,109.36,177.2,104.6,177.2,104.6Z"/><path d="M131.56,29.53c-.52.43-1.26,0-1.66-.83a20.38,20.38,0,0,1-.85-2.27c0-.11,1.43-1,1.68-.78a8.11,8.11,0,0,1,1.34,1.19C132.67,27.59,132.08,29.1,131.56,29.53Z"/><path d="M39.13,80.07c.12-.22.29-.21.37,0,0,0,.13.41.06.51a4.52,4.52,0,0,1-.52.54c-.19.16-.39.15-.43,0l0-.12C38.81,80.64,39.13,80.07,39.13,80.07Z"/><path d="M19.64,19.81c.18-.32.42-.3.54.05,0,0,.19.58.08.72a5.68,5.68,0,0,1-.73.77c-.28.24-.56.21-.63-.05l.08-.18C19.19,20.62,19.64,19.81,19.64,19.81Z"/><path d="M101.79,222.31a.9.9,0,0,1,.15-1.57,1.94,1.94,0,0,1,1.27-.24,1.89,1.89,0,0,1,.93.57,1.54,1.54,0,0,1-.28,2s-.16.13-.62,0A4.18,4.18,0,0,1,101.79,222.31Z"/><path d="M149.75,40.83c-.38-.39-.16-1,.48-1.44a15.57,15.57,0,0,1,1.92-1l.22-.1a1.37,1.37,0,0,1,.11,1.81C152.06,40.63,150.12,41.22,149.75,40.83Z"/><path d="M75.49,47.52a17.89,17.89,0,0,0,1.71-1.36c.91-.78,3.51-2.34,3.76-1.73s-.09,2.34-1.3,2.51l-4.17.58Z"/><path d="M171.4,3.4A15,15,0,0,0,173.11,2c.91-.78,3.51-2.34,3.76-1.73s-.09,2.35-1.3,2.52l-4.17.57Z"/><path d="M126.08,99.52c-.83,1.15-2,1.12-2.69-.07s-.7-3.66.52-4.39a5.31,5.31,0,0,1,1.62-.37c.46-.07,1.8,1.71,1.64,2.4A7.68,7.68,0,0,1,126.08,99.52Z"/><path d="M87.48,179.05a1.38,1.38,0,0,1,2.19.09s.47.61.28.9a4.93,4.93,0,0,1-2.24,1.77c-.25.11-1.44-1.12-1.38-1.22A13.81,13.81,0,0,1,87.48,179.05Z"/><path d="M25,190.17c.87-.83,1.6-.53,1.63.67a23.68,23.68,0,0,1-.22,3.81c-.1.47-1.69,1.16-1.82,1-.73-.79-1.89-2-1.68-2.69A9.7,9.7,0,0,1,25,190.17Z"/><path d="M53.62,123.06a.22.22,0,0,1-.36,0c-.1-.13-.15-.47,0-.6a.42.42,0,0,1,.24-.08.31.31,0,0,1,.21,0C53.86,122.54,53.73,122.94,53.62,123.06Z"/><path d="M221.05,56.72c1.12-.44,1.87-.06,1.66.85l-.28.23c-1.18.94-1.87,1.41-1.87,1.41a1.43,1.43,0,0,1-2.34-.89l.34-.25A11.91,11.91,0,0,1,221.05,56.72Z"/><path d="M75,170.39c-.24-.24-.28-.53-.09-.65s.69-.27.77-.11.08.72-.18.89l-.21,0C75,170.46,75,170.39,75,170.39Z"/><path d="M38.85,197.07a1.39,1.39,0,0,1-.05-2.61,18.5,18.5,0,0,1,2.34-1.18c.2-.09,1.38,1.47,1.31,1.55a7.17,7.17,0,0,1-2.62,2.2A1.29,1.29,0,0,1,38.85,197.07Z"/><path d="M158.39,97.67a2.06,2.06,0,0,1,.23-2.92,1.77,1.77,0,0,1,1.19-.32c.59,0,.65.12.65.12a2.37,2.37,0,0,1-.59,3l-.91.18C158.54,97.85,158.39,97.67,158.39,97.67Z"/><path d="M90.71,4.84a1.72,1.72,0,0,1,.16-2.55s.61-.51,1-.31a3.75,3.75,0,0,1,1.67,2.27c.1.37-1.32,1.62-1.52,1.51A5.89,5.89,0,0,1,90.71,4.84Z"/><path d="M191.43,178.86a1.59,1.59,0,0,1,2.37.72,23.66,23.66,0,0,1,.87,2.39l.05.16a1.74,1.74,0,0,1-2.31-.93s-.44-.86-1-2.2C191.4,178.88,191.43,178.86,191.43,178.86Z"/><path d="M107.2,118.48a1.44,1.44,0,0,1,.27-1c.22-.38.91-.81,1.11-.24a1.86,1.86,0,0,1-.07.68c-.09.45-.15.5-.15.5A.88.88,0,0,1,107.2,118.48Z"/><path d="M140.37,74.21c1-1.07,2.14-.8,2.56.59a24.28,24.28,0,0,1,.83,4c0,.44-1.94,1.6-2.13,1.43a15.71,15.71,0,0,1-3.11-3.64C138.38,76.36,140.37,74.21,140.37,74.21Z"/><path d="M114.62,19.43c-.63-.39-.59-.94.11-1.22a.93.93,0,0,1,.68,0,5.11,5.11,0,0,1,.91.56c.55.5.56,1.11,0,1.36l-.4-.11A5.8,5.8,0,0,1,114.62,19.43Z"/><path d="M96.78,83.21a1.42,1.42,0,0,1,.6-2.06l0,.06c.61,1,.91,1.6.91,1.6a1.42,1.42,0,0,1-.45,2l-.1-.12A13.82,13.82,0,0,1,96.78,83.21Z"/><path d="M74.33,70.1a1.43,1.43,0,0,1,2,.65l-.06,0c-1,.58-1.62.88-1.62.88a1.42,1.42,0,0,1-2-.51l.12-.09A14.2,14.2,0,0,1,74.33,70.1Z"/><path d="M150.89,175.6a.85.85,0,0,1,.42-1.52.89.89,0,0,1,.66.12,4.32,4.32,0,0,1,.71.5,1.32,1.32,0,0,1-.26,2l-.32-.16A4.81,4.81,0,0,1,150.89,175.6Z"/><path d="M190.18,223.87a.86.86,0,0,1,.42-1.53.87.87,0,0,1,.66.13,4.32,4.32,0,0,1,.71.5,1.32,1.32,0,0,1-.26,1.95l-.32-.16A4.81,4.81,0,0,1,190.18,223.87Z"/><path d="M116.67,205.64a1.22,1.22,0,0,1,1-1.69l.93-.06a1.76,1.76,0,0,1,.31,1.21l-.38,1C118,207,117,206.4,116.67,205.64Z"/><path d="M107.35,187a1.53,1.53,0,0,1,.73-2.65,1.87,1.87,0,0,1,1.19.12l.71.28a2.15,2.15,0,0,1-.85,2.83l-.77-.13A1.82,1.82,0,0,1,107.35,187Z"/><path d="M37.56,108.6c.94-.8,1.93-.55,2.22.56l-.26.26a11.75,11.75,0,0,1-1.16,1.09c-1,.69-2.17.65-2.56-.08l.18-.22A16.07,16.07,0,0,1,37.56,108.6Z"/><path d="M48.25,57a.88.88,0,0,1,1,.27c.24.27.47,1.05,0,1.17l-.31-.11-.58-.22A.64.64,0,0,1,48.25,57Z"/><path d="M24.47,86.26a1,1,0,0,1,.12-1.71,4.17,4.17,0,0,1,.9-.35l.2-.07A1.64,1.64,0,0,1,25.5,86l-.57.3A.45.45,0,0,1,24.47,86.26Z"/><path d="M88.71,10.31A1.16,1.16,0,0,1,89,8.73c.51-.46,2.27-.86,3,0l-.17.48-.33.93A2.26,2.26,0,0,1,88.71,10.31Z"/><path d="M122.29,96.43c.75-.63,1.38-.34,1.38.64,0,0,0,.05-.22.27a15.21,15.21,0,0,1-1.2,1.06c-.78.59-1.65.55-1.92-.08l.18-.2A19.26,19.26,0,0,1,122.29,96.43Z"/><path d="M100.12,173.18a1,1,0,0,1,1.28.07,1.35,1.35,0,0,1-.64,1.67h-1.2C99,174.44,99.64,173.45,100.12,173.18Z"/><path d="M54.94,127c-.06-.06-.09-.13,0-.16a.11.11,0,0,1,.16,0l.07.17s0,0,0,0Z"/><path d="M153.81,134.68c-.66.43-1.36.49-1.56.14s.21-1.6,1.31-2.16a10.85,10.85,0,0,1,1.2-.39l.29-.09C155.57,132.77,154.46,134.26,153.81,134.68Z"/><path d="M220.62,198.46c-.65.42-1.35.49-1.56.14s.22-1.6,1.31-2.17c0,0,.1-.05,1.21-.38l.29-.09C222.39,196.55,221.27,198,220.62,198.46Z"/><path d="M170.83,141.9a1.51,1.51,0,0,1-2.72-.48,4.15,4.15,0,0,1-.22-1.54v-.61a2,2,0,0,1,2.86.69l.31,1.06A1,1,0,0,1,170.83,141.9Z"/><path d="M89.56,11.55c0-.05,0-.25.15-.46s.57-.56.72-.38l0,.07a4.68,4.68,0,0,1-.29.46C89.9,11.5,89.6,11.59,89.56,11.55Z"/><path d="M3.62,168.76a1.2,1.2,0,0,1-.18,1.77l-.06-.05a3.15,3.15,0,0,1-.91-1.21c-.06-.14.62-.78.73-.72Z"/><path d="M189.48,86.25c-.91-.41-.84-.85.15-1a12.88,12.88,0,0,1,2.22-.08l.43.05c.42.45.05,1-.82,1.25l-.8,0A3.55,3.55,0,0,1,189.48,86.25Z"/><path d="M11.23,9.27c-.91-.41-.85-.84.14-1a12.88,12.88,0,0,1,2.22-.08l.43,0c.42.46.05,1-.82,1.26l-.8,0A3.48,3.48,0,0,1,11.23,9.27Z"/><path d="M60.92,103.64c-.39-.21-.39-.54,0-.73,0,0,0,0,.16,0l.26.12c.24.24.28.56.1.71l-.14,0A1.87,1.87,0,0,1,60.92,103.64Z"/><path d="M156.61,110.1c-.47.34-1.28,0-1.8-.78l.08-.08a4.63,4.63,0,0,1,1.92-1.29l.35-.09C157.72,108.47,157.08,109.76,156.61,110.1Z"/><path d="M155.64,9.5a.61.61,0,0,1-.38,1l-.18-.11-.24-.15a.63.63,0,0,1,.32-.87l.26.07Z"/><path d="M53.1,34.84a.2.2,0,0,1,0-.34.69.69,0,0,1,.17-.06h0a.26.26,0,0,1-.08.35l-.13.06S53.1,34.84,53.1,34.84Z"/><path d="M112.8,158.13a2,2,0,0,1-.28-2.9l.11.08a13,13,0,0,1,2.2,2.18,5.46,5.46,0,0,1-1.19,1.21Z"/><path d="M87.26,109.26c.58-.19,1.2-.09,1.38.22s-.15,1.38-1.12,1.75l-.87,0-.44,0C85.74,110.47,86.69,109.46,87.26,109.26Z"/><path d="M97.34,211.77a.76.76,0,0,1,.52-1.07l.4,0h.09a.85.85,0,0,1-.53,1l-.41.13Z"/><path d="M6.39,174.13a1,1,0,0,1,.89.34,1,1,0,0,1-.51,1.15l-.31-.17L6,175.19A.65.65,0,0,1,6.39,174.13Z"/><path d="M130.89,105.06a.93.93,0,0,1,1.48.3l.06.38c0,.09-.62.48-.77.39a1.51,1.51,0,0,1-.72-.89Z"/><path d="M9.18,169.71c-.57.19-1.14.23-1.26.09a.56.56,0,0,1,.2-.75c.32-.16,1.34-.16,1.56.37l-.06,0Z"/><path d="M124.56,188.73c-.09.05-.23,0-.32-.17a.57.57,0,0,1,.17-.69l0,.06.18.17A.58.58,0,0,1,124.56,188.73Z"/><path d="M120.79,67.47s.15,0,.21.06h0a1,1,0,0,1-.24.21h0C120.68,67.68,120.74,67.51,120.79,67.47Z"/><path d="M161.14,135.93c-1.3-.62-1.29-1.61,0-2.21a1,1,0,0,1,.76.07l.87.39c.78.82.94,1.86.34,2.32l-.45-.09A7.11,7.11,0,0,1,161.14,135.93Z"/><path d="M54.09,147.2c-1.29-.62-1.28-1.61,0-2.21a1,1,0,0,1,.77.07l.87.39c.78.82.93,1.86.33,2.32l-.44-.09A7.35,7.35,0,0,1,54.09,147.2Z"/><path d="M97.1,132a.72.72,0,0,1,.2-1.07c.38-.24,1.39-.44,1.52,0l-.14.13a6,6,0,0,1-1.51.89Z"/><path d="M52.71,67.49c.28-.22.59-.08.7.3a1.07,1.07,0,0,1,0,.31c0,.06-.46.21-.56.13a.75.75,0,0,1-.17-.6Z"/><path d="M47.09,40.26c-.34-.87-.3-1.75.1-1.93a1.75,1.75,0,0,1,1.93.77v.69c0,.23-1.14.71-1.63.58Z"/><path d="M38.51,210.84a1.1,1.1,0,0,1-2-.27s0-.13.14-.38l.42-.57a1.55,1.55,0,0,1,2,.12l-.12.27A4,4,0,0,1,38.51,210.84Z"/><path d="M91.57,151.11c-.13-.2-.07-.4.14-.43l.11,0c.07,0,.17.21.15.23s-.22.24-.29.22Z"/><path d="M43.32,190.54c-.39-.32-.21-.8.41-1.08,0,0,0,0,.16.07l.24.19a.74.74,0,0,1-.29.92l-.25,0Z"/><path d="M77.22,27.31a1.27,1.27,0,0,1-2-.27l.1-.26.19-.47a1.24,1.24,0,0,1,1.67.19v.81Z"/><path d="M27,4.45a1.29,1.29,0,0,1-2-.27l.11-.27.19-.47a1.23,1.23,0,0,1,1.66.2v.81Z"/><path d="M179.78,159.17a1.17,1.17,0,0,1-1.95-.25l.1-.44.1-.48a1.3,1.3,0,0,1,1.79.23l0,.49Z"/><path d="M110.78,84.78a.6.6,0,0,1,0-1l.19,0h.17a.77.77,0,0,1,0,.88l-.19,0Z"/><path d="M116.9,77.69c-.26.29-.62.32-.81.06a1.33,1.33,0,0,1,.15-1.46l.4-.06.34,0C117.4,76.48,117.15,77.4,116.9,77.69Z"/><path d="M192.42,67.32c-.13-.19,0-.34.26-.34l.14.06.08,0c0,.15-.07.28-.25.3l-.15,0Z"/><path d="M18,75c-.48-.44-.37-.95.24-1.14l.26.1.3.11a.8.8,0,0,1-.19,1.08l-.25,0A1,1,0,0,1,18,75Z"/><path d="M32.53,191.52c.12-.18.27-.16.34,0,0,0,0,0,0,.1l0,.09a.24.24,0,0,1-.31-.05v-.07Z"/><path d="M82.44,214.06a.67.67,0,0,1-1.13-.27l.08-.22.1-.24a.84.84,0,0,1,1,.24l0,.24Z"/><path d="M110,73.49c-.23-.16-.2-.66.08-1.11l.12,0,.47.12c.47.28.76.66.63.85A1.64,1.64,0,0,1,110,73.49Z"/><path d="M199.23,11.22a7.62,7.62,0,0,1-.38,1.33c-.25.75-1.06,2.65-1.24,2.55s0-1.33.73-2.52l.89-1.36Z"/><path d="M133,1.8a.48.48,0,0,1,.69,0,1.26,1.26,0,0,1,.09,1.41l-.28,0-.36,0A1.3,1.3,0,0,1,133,1.8Z"/><path d="M59.88,21c.5-.38,1.1-.54,1.34-.35a1,1,0,0,1-.14,1.4l-.53.23c-.11.05-.77-.64-.73-.93Z"/><path d="M39.69,13.35C40.2,13,40.8,12.82,41,13a1,1,0,0,1-.14,1.4l-.53.23c-.11,0-.77-.65-.73-.93Z"/><path d="M120.1,103.24a.67.67,0,0,1,0-.83,1.46,1.46,0,0,1,1.51.23l.11.48.06.29A1.32,1.32,0,0,1,120.1,103.24Z"/><path d="M96.92,159.56c-.23-.25.06-.8.64-1.23l.07.06a2.94,2.94,0,0,1,.86,1.22l.05.17A1.57,1.57,0,0,1,96.92,159.56Z"/><path d="M76.3,8.76c-.35-.52-.23-1,.26-1.19l.17.11.33.22A.77.77,0,0,1,76.84,9l-.2-.1Z"/><path d="M54.74,9.19c-.35-.52-.23-1.06.25-1.19l.18.11.33.21a.77.77,0,0,1-.22,1.13l-.21-.1Z"/><path d="M79.19,204.72a1.2,1.2,0,0,1,.51-1.91l.43.14.45.14a1.32,1.32,0,0,1-.47,1.76l-.49-.07Z"/><path d="M36.11,106.93c-.62-.5-.75-1.24-.28-1.66s2-.91,2.49-.34l0,.06a12,12,0,0,1-2.05,1.85Z"/><path d="M70.6,214.26c-.84-.82-.84-1.74,0-2l.46.1c.35.07.89.71.83.95a1.51,1.51,0,0,1-1,.93Z"/><path d="M191.26,198.07c.68.6.3,1.48-.84,2,0,0,0,0-.2-.15l-.44-.42a1.19,1.19,0,0,1,.54-1.63l.45.11Z"/><path d="M120.9,23.68a1.08,1.08,0,0,1,1.59.28l0,.35,0,.28a1.31,1.31,0,0,1-1.52-.27v-.64Z"/><path d="M90.51,192.7c-.28-.51-.34-1.06-.14-1.22a1,1,0,0,1,1.25.34l.15.47c0,.08-.69.59-.94.51Z"/><path d="M69.75,185.18a.87.87,0,0,1,1,0,1.2,1.2,0,0,1-.32,1.66l-.69.2-.2.06A1.8,1.8,0,0,1,69.75,185.18Z"/><path d="M197.38,181.66c-.42.22-1-.21-1.28-1l.1-.07a5.6,5.6,0,0,1,1.88-.85l.14,0C198.52,180.41,197.8,181.44,197.38,181.66Z"/><path d="M59.47,56.91c.31-.12.63-.06.71.15s-.24.82-.82,1l-.54.11h-.07C58.58,57.73,59.16,57,59.47,56.91Z"/><path d="M76.11,103a1.18,1.18,0,0,1,.43-1.76l.44.06.29,0a1.52,1.52,0,0,1-.41,1.73l-.4,0Z"/><path d="M80.12,169.19a.32.32,0,0,1-.57,0V169l0-.15a.37.37,0,0,1,.54,0v.29Z"/><path d="M128.45,72.23a1.36,1.36,0,0,1-2-.68l.17-.24.35-.5a1.15,1.15,0,0,1,1.67.52l-.13.49Z"/><path d="M61.8,46.46c-.66-.69-.36-1.78.68-2.44l.22.14a2,2,0,0,1,.87,1.47c0,.35-.86,1-1.24.92Z"/><path d="M146.87,217c-.39.36-.83.44-1,.17l.05-.18.13-.41a.61.61,0,0,1,1-.14l-.06.17Z"/><path d="M129.44,171.88c.32.14.05.68-.49,1.09s-.64.36-.93.29.51-.95,1.42-1.38Z"/><path d="M211,121.59c.65-.47,1.36-.14,1.58.73l0,.59c0,.08-.93.41-1.09.26a1.81,1.81,0,0,1-.53-1.29Z"/><path d="M28.09,97.88c-.18-.25-.24-.54-.14-.63a.59.59,0,0,1,.7,0l0,.19c0,.13-.29.36-.47.39Z"/><path d="M63.46,128.16a1,1,0,0,1-1.29-.16l.06-.09.19-.32a.8.8,0,0,1,1.08.08l0,.26Z"/><path d="M214,79.26c-.67-.37-.68-1.08,0-1.57l.35,0,.34.05a1.39,1.39,0,0,1,0,1.53l-.24,0Z"/><path d="M29,76.53a.63.63,0,0,1,1,.19l0,.22,0,.18a.76.76,0,0,1-.92-.18l0-.22Z"/><path d="M10.09,35.29a.62.62,0,0,1,.95.2l0,.21,0,.19a.77.77,0,0,1-.91-.18v-.22Z"/><path d="M184,127.5c.32-.09.63-.06.69,0a.6.6,0,0,1-.32.64l-.26,0c-.05,0-.27-.45-.2-.57Z"/><path d="M94.2,207.64c.27-.34.61-.48.76-.31a.67.67,0,0,1-.07.9l-.3.06c-.15,0-.53-.33-.51-.38Z"/><path d="M94.54,178.45c0-.12,0-.23.1-.24s.18,0,.18.07a.27.27,0,0,1-.18.25l0,0Z"/><path d="M79.52,160.6c-.67-.58-.48-1.24.41-1.45l.49.12.43.11a.81.81,0,0,1-.38,1.32l-.52-.06Z"/><path d="M141.16,147.71c-.11.11-.34,0-.5-.22l0-.19c0-.06.25-.28.35-.26l.2.05C141.38,147.24,141.28,147.6,141.16,147.71Z"/><path d="M134.34,108.94a.26.26,0,0,1,0-.42h.07l.11,0a.32.32,0,0,1,0,.4h-.18Z"/><path d="M40.73,48.12c-.3.52-.7.74-.89.49s-.34-1,0-1.34l.35-.14c.1,0,.57.42.56.63Z"/><path d="M30.94,23.51c-.29.51-.69.73-.89.48s-.34-1,0-1.34l.36-.14c.1,0,.57.42.55.63Z"/><path d="M217.56,93.42a.29.29,0,0,1-.13-.37.64.64,0,0,1,.73,0l.17.23,0,.07C218.2,93.58,217.7,93.52,217.56,93.42Z"/><path d="M170.24,103.69a.18.18,0,0,1,.08-.21.5.5,0,0,1,.49.19l0,.08-.06.12A.49.49,0,0,1,170.24,103.69Z"/><path d="M56.26,40.24c-.21-.24.07-.62.62-.83l.35,0c.2,0,.55.56.48.69l-.16.34C57.19,40.76,56.46,40.48,56.26,40.24Z"/><path d="M54.27,39.67c0-.22.25-.67.66-1l.17.09.29.15c.19.43.15.9-.09,1.05S54.32,39.89,54.27,39.67Z"/><path d="M132.72,67c0-.22.26-.36.65-.33l.21.14a.62.62,0,0,1,0,.59l-.2.18C133.09,67.61,132.75,67.18,132.72,67Z"/><path d="M143.34,9a.48.48,0,0,1-.17-.64,1,1,0,0,1,1.21-.11l.24.38.09.14A1.31,1.31,0,0,1,143.34,9Z"/><path d="M167.84,27.29c.08-.26.25-.48.38-.47s.44.15.41.3-.3.51-.57.44l-.13-.16Z"/><path d="M198,50.6a.2.2,0,0,1,.23.12.43.43,0,0,1-.23.43l-.11-.06-.11-.06A.4.4,0,0,1,198,50.6Z"/><path d="M159.82,167.55a13.31,13.31,0,0,1-1.56.57c-.78.26-2.87.61-2.92.22h0c1.48-.29,3-.54,4.45-.79Z"/><path d="M167.47,34.38a1.93,1.93,0,0,1,1.9,1.1l-.2.38-.18.34a1.93,1.93,0,0,1-1.87-1.08l.19-.4Z"/><path d="M167.71,56.6a.53.53,0,0,1-.63-.18l0-.06.14-.18a.34.34,0,0,1,.54.12l-.05.16Z"/><path d="M47.75,68.58c-.39-.56-.44-1.1-.11-1.2A1.29,1.29,0,0,1,49,68l0,.47a1.13,1.13,0,0,1-.88.3Z"/><path d="M65.9,46.83c-.51-.63-.61-1.27-.22-1.41s1.41,0,1.65.6l0,.5c0,.22-.77.66-1,.56Z"/><path d="M14.52,187.89c.21-.16.42-.11.47.11l0,.11c0,.09-.21.22-.25.2s-.27-.24-.25-.29Z"/><path d="M158.68,146.91c-.16-.18-.09-.41.17-.49l.11.05.1.05a.46.46,0,0,1-.17.49l-.08,0Z"/><path d="M26.35,178a.75.75,0,0,1,.88.64l-.1.31,0,.11a.76.76,0,0,1-.77-.65l0-.35Z"/><path d="M205.46,171.71c-.52-.34-.74-.77-.5-1a1.22,1.22,0,0,1,1.37,0l.15.39c.05.11-.44.62-.64.6Z"/><path d="M166.73,36a.76.76,0,0,1,.53-.91l.26.11.18.07a.88.88,0,0,1-.54.94l-.23-.11Z"/><path d="M19.23,219.17c-.09-.38,0-.75.27-.81s1.1.09,1.25.53l-.14.24-.26.43A.72.72,0,0,1,19.23,219.17Z"/><path d="M192.76,31.48a.56.56,0,0,1,0-.66l.17-.05c.07,0,.33.24.31.32a.56.56,0,0,1-.35.37Z"/><path d="M191.2,36c.38-.19.72-.19.76,0s-.16.76-.54.81l-.33,0c-.08,0-.22-.48-.16-.53Z"/><path d="M148.46,85.4s.17,0,.29,0v.15c-.08.1-.2.14-.26.1S148.41,85.44,148.46,85.4Z"/><path d="M204.76,142.9c0-.15.15-.44.44-.65l.16.06.21.08c.15.3.14.63,0,.71A.9.9,0,0,1,204.76,142.9Z"/><path d="M154.46,152.74a.39.39,0,0,1,0,.55.83.83,0,0,1-1-.13l-.16-.35,0-.12A1.11,1.11,0,0,1,154.46,152.74Z"/><path d="M141.76,111a.32.32,0,0,1-.13-.46h0l.15,0a.36.36,0,0,1,.16.43h-.2Z"/><path d="M107,133.47a.47.47,0,0,1-.2-.67h0l.22.07a.51.51,0,0,1,.23.62h-.07Z"/><path d="M194.59,12.9a.66.66,0,0,1,0-.82l.08,0,.25.11a.42.42,0,0,1,0,.68h-.37Z"/><path d="M198.65,102.75a.4.4,0,0,1,.31-.4.89.89,0,0,1,.83.59l-.16.2-.15.2A.92.92,0,0,1,198.65,102.75Z"/><path d="M81.82,30a.15.15,0,0,1-.2-.1.48.48,0,0,1,.17-.45l0,0,.12.11A.35.35,0,0,1,81.82,30Z"/><path d="M202.06,66.67a.34.34,0,0,1,.11-.33.63.63,0,0,1,.67.2l0,0-.16.2A.43.43,0,0,1,202.06,66.67Z"/><path d="M152.14,122.78a1.12,1.12,0,0,1,1.13.62l-.12.2-.13.21a1.14,1.14,0,0,1-1.11-.61L152,123Z"/><path d="M131.51,54.26a1.11,1.11,0,0,1,.65-1.13l.29.11.17.06a1.14,1.14,0,0,1-.65,1.14l-.27-.11Z"/><path d="M41.46,61.79a.81.81,0,0,1,.26-1l.07.06.27.22a.54.54,0,0,1-.17.84l-.22-.08Z"/><path d="M167.9,82.45c-.23-.27-.36-.6-.28-.73s.41-.38.57-.25.38.67.14.92l-.25,0Z"/><path d="M39.63,212.3c-.06.1-.3.12-.52,0l0-.12-.06-.18c.06-.24.22-.38.36-.32S39.7,212.21,39.63,212.3Z"/><path d="M50.66,212.3c-.07-.07,0-.22.18-.33l.16-.06s.21.16.19.2l-.06.17A.35.35,0,0,1,50.66,212.3Z"/><path d="M103.7,181.05c-.08,0-.07-.16,0-.29l.11-.07a.28.28,0,0,1,.23.08v.13C104,181.05,103.78,181.09,103.7,181.05Z"/><path d="M115.07,144.63a.47.47,0,0,1,.21-.54,1,1,0,0,1,1,.48l-.09.33-.06.22A1,1,0,0,1,115.07,144.63Z"/><path d="M107.89,167.65a1.33,1.33,0,0,1,.27,1.48l-.27,0-.28,0a1.34,1.34,0,0,1-.28-1.46l.27-.05Z"/><path d="M120.35,151.11c0-.1.07-.23.25-.31l.16,0s.14.22.1.28l-.08.15A.3.3,0,0,1,120.35,151.11Z"/><path d="M127.18,15.6c.2-.28.46-.41.57-.28a.63.63,0,0,1-.09.79l-.27.11c-.06,0-.33-.26-.31-.33Z"/><path d="M118.19,111.4a.28.28,0,0,1,.2-.24.39.39,0,0,1,.37.35l-.1.14-.08.11A.4.4,0,0,1,118.19,111.4Z"/><path d="M192.34,45.9a.34.34,0,0,1-.23-.38l.06-.16v0c.14,0,.24.18.21.38l0,.17Z"/><path d="M212.4,43.09a.89.89,0,0,1-.62-1l.16-.43,0-.09c.38,0,.63.48.56,1l-.12.48Z"/><path d="M99.61,40.07a.86.86,0,0,1,.18,1l-.17,0-.18,0a.9.9,0,0,1-.18-1l.17,0Z"/><path d="M186.71,34.24a13,13,0,0,0,1.34-2l.68-1,0,0c.43.25-.06,1.23-1.1,2.18l-.94.86Z"/><path d="M113.71,37.6c-.11.16-.37.11-.59-.11l-.11-.23c-.05-.1.14-.44.2-.43l.29,0C113.81,37,113.81,37.45,113.71,37.6Z"/><path d="M134.41,34.65a.11.11,0,0,1,0,.18.23.23,0,0,1-.3-.11v-.17C134.16,34.49,134.36,34.6,134.41,34.65Z"/><path d="M101.73,61.44a.9.9,0,0,1-1.24-.23v-.29c0-.14.52-.44.73-.39a.91.91,0,0,1,.54.68Z"/><path d="M134.8,122.25c-.12-.14-.16-.31-.08-.39a.7.7,0,0,1,.72.24l.17.28,0,0C135.41,122.6,134.91,122.39,134.8,122.25Z"/><path d="M81.23,47.38A1.1,1.1,0,0,1,80,46.94l.08-.27.07-.22a1.22,1.22,0,0,1,1.28.46l-.09.22Z"/><path d="M126.42,162.38c-.17-.15-.23-.32-.14-.38a.43.43,0,0,1,.5.13l.06.18s-.21.19-.25.17Z"/><path d="M140.3,56.78l0-.05s.05-.06,0,0S140.31,56.78,140.3,56.78Z"/><path d="M94.77,60.72a.32.32,0,0,1-.07-.37h.06a.24.24,0,0,1,.22.15.25.25,0,0,1-.15.21Z"/><path d="M200.06,35.37c-.09-.35,0-.63.2-.6s.67.36.61.68l-.1.27a.81.81,0,0,1-.53-.11Z"/><path d="M141.86,67a.72.72,0,0,1,.13-.48c.07,0,.29-.07.32.07s0,.53-.26.58l-.09-.09Z"/><path d="M111.5,115.82c0,.11-.23.29-.48.41l-.16-.07-.15,0c-.07-.27,0-.51.19-.55S111.51,115.71,111.5,115.82Z"/><path d="M57,46.17c-.3.23-.62.29-.72.12a.65.65,0,0,1,.29-.84l.33,0c.08,0,.32.4.27.48Z"/><path d="M76,92.43c0,.11-.22.27-.46.37l-.16-.06-.14,0c-.08-.25,0-.47.17-.51S76,92.33,76,92.43Z"/><path d="M4.7,68.39a5.22,5.22,0,0,0-.29-2.1C4.13,65.22,3.64,62.4,4,62.4s1,.92.93,2A31.86,31.86,0,0,0,4.7,68.39Z"/><path d="M24.12,126.27c.11-.18.26-.25.33-.17s.13.38,0,.49l-.16,0s-.21-.15-.19-.2Z"/><path d="M105.92,117.59a.26.26,0,0,1,0,.34c-.08.09-.37.07-.54-.18l-.1-.24,0-.05C105.44,117.33,105.83,117.49,105.92,117.59Z"/><path d="M26.68,120.7a.26.26,0,0,1,.27.09.38.38,0,0,1-.17.47l-.14-.05-.13,0A.4.4,0,0,1,26.68,120.7Z"/><path d="M98.23,194.54a.47.47,0,0,1,.54-.37l.24.05a1.14,1.14,0,0,1,0,.37,2.91,2.91,0,0,1-.72-.05Z"/><path d="M39.47,17.32s0,0,0,0,0,0,0,0S39.49,17.31,39.47,17.32Z"/><path d="M48.68,89.42c0-.16.51-.27,1.09-.24l.52.12h.05c0,.47-.32.82-.62.79S48.66,89.58,48.68,89.42Z"/><path d="M95.27,69c.15.3,0,.52-.34.49s-.46-.27-.27-.54S95.12,68.66,95.27,69Z"/><path d="M3,124.87a.11.11,0,0,1,0-.05H3s0,0,0,0S3,124.88,3,124.87Z"/><path d="M4.54,159.3c0-.15.31-.36.66-.47l.24.1.19.08c.11.35,0,.67-.25.7S4.53,159.46,4.54,159.3Z"/><path d="M3,123.85c0,.08-.19.24-.39.33l-.14,0-.11,0c-.06-.22,0-.43.16-.46S3,123.76,3,123.85Z"/><path d="M43.34,80.58c0-.06.07-.1.17-.11l.09,0a.24.24,0,0,1,0,.15l-.07,0A.16.16,0,0,1,43.34,80.58Z"/><path d="M49.49,200.79c0-.11.38-.1.76,0l.3.19.06,0c-.09.29-.33.47-.53.4S49.45,200.91,49.49,200.79Z"/><path d="M115,135.93c0-.14.48-.13,1,0l.38.23.07.05c-.12.35-.42.58-.67.5S114.92,136.08,115,135.93Z"/><path d="M7.5,202c0-.12.38-.11.76,0l.3.19.06,0c-.09.29-.33.47-.53.4S7.46,202.09,7.5,202Z"/><path d="M200.88,102.27c-.12-.23,0-.52.33-.67l.28-.07h0a.54.54,0,0,1-.34.66l-.28.08Z"/><path d="M67.31,206a.55.55,0,0,1,.57.15.74.74,0,0,1-.27.94l-.28-.07-.28-.08A.74.74,0,0,1,67.31,206Z"/><path d="M68.39,204.67a.31.31,0,0,1,.33.09.45.45,0,0,1-.15.55l-.17,0-.16-.05A.43.43,0,0,1,68.39,204.67Z"/><path d="M119.47,9.76c.14-.22.3-.23.35,0s0,.78-.2.79S119.32,10,119.47,9.76Z"/><path d="M104.85,27.74c.33-.5.68-.51.79,0s0,1.75-.45,1.78S104.52,28.25,104.85,27.74Z"/><path d="M110.33,160.79c0-.13.13-.16.24-.08s.1.19,0,.23S110.31,160.91,110.33,160.79Z"/><path d="M105.68,120.22c-.1.1-.2.07-.21-.08s.07-.24.19-.19S105.79,120.11,105.68,120.22Z"/><path d="M43.12,102.89c.09-.12.2-.09.24,0s0,.25-.18.22S43,103,43.12,102.89Z"/><path d="M143.05,198.44a.42.42,0,0,1,.11.52h0l-.15,0a.46.46,0,0,1-.11-.53h.05Z"/><path d="M122,138.93c.51-.42,1-.19,1,.5s-.37,1-.93.76A.7.7,0,0,1,122,138.93Z"/><path d="M76.6,133.48a.27.27,0,0,1,.07-.24.26.26,0,0,1,.35.12l0,.11,0,.12A.27.27,0,0,1,76.6,133.48Z"/><path d="M130.75,28.11c.07.05.11.13.09.16s-.1.1-.13.08a.25.25,0,0,1-.06-.25h.1Z"/><path d="M117.78,117.83c.2.06.24.25.08.43s-.33.13-.37-.11S117.57,117.77,117.78,117.83Z"/><path d="M78.81,133.14c0-.08.13,0,.17.14l0,.12v0C78.78,133.44,78.76,133.22,78.81,133.14Z"/></g></mask></defs><g class="cls-1"><g class="cls-2"><polygon class="cls-3" points="207.66 108.14 208.24 106.7 209.45 105.71 209.53 104.15 210.58 103.04 211.2 101.73 211.62 100.34 211.68 98.84 211.99 97.44 213.1 96.24 213 94.73 213.17 93.3 214.03 91.99 213.29 90.45 213.86 89.09 213.96 87.67 214.21 86.25 213.99 84.82 214.31 83.39 213.7 81.99 214 80.54 213.49 79.17 213.32 77.76 213.74 76.23 213.03 74.91 212.78 73.5 212.22 72.18 212.3 70.65 211.31 69.48 210.98 68.08 210.33 66.81 209.49 65.62 208.83 64.37 208.58 62.89 207.75 61.72 207.07 60.46 206.45 59.15 204.99 58.44 204.88 56.74 203.81 55.75 202.93 54.62 201.72 53.79 200.46 53.03 199.98 51.48 198.59 50.87 197.63 49.81 196.76 48.6 195.31 48.15 194.12 47.36 193.16 46.22 191.5 46.2 190.61 44.89 189.03 44.84 188.1 43.51 186.68 43.18 185.48 42.35 183.89 42.51 182.57 42 181.39 40.99 179.85 41.24 178.46 40.95 177.33 40.06 177.02 38.78 176.59 37.39 175.78 36.14 175.64 34.65 175.14 33.28 173.99 32.22 173.48 30.86 172.61 29.7 171.9 28.46 171.52 26.99 170.58 25.89 170.06 24.5 168.86 23.61 167.81 22.63 166.99 21.46 166.05 20.39 165.44 18.99 163.76 18.68 162.91 17.5 161.84 16.57 160.69 15.73 159.79 14.55 158.42 14.03 157.56 12.73 156.06 12.43 154.66 12.02 153.57 11.05 152.24 10.54 150.92 10.01 149.65 9.36 148.36 8.73 146.95 8.45 145.63 7.91 144.24 7.6 142.76 7.67 141.42 7.19 140.02 6.97 138.69 6.21 137.23 6.39 135.82 6.12 134.41 5.74 132.97 6.52 131.55 6.44 130.12 6.18 128.66 5.98 127.34 6.95 125.91 6.92 124.46 6.89 123.13 7.47 121.78 7.9 120.42 8.29 118.84 8.01 117.55 8.67 116.26 9.29 115.12 10.23 113.77 10.68 112.58 11.48 111.11 11.72 109.64 12.04 108.64 13.15 107.45 13.96 106.27 13.07 104.75 12.87 103.83 11.47 102.27 11.4 100.84 11.11 99.62 10.26 98.15 10.13 96.75 9.78 95.36 9.47 94.11 8.5 92.66 8.36 91.2 8.44 89.77 8.49 88.39 7.97 86.98 7.85 85.57 7.43 84.14 8.11 82.72 8.03 81.26 7.39 79.89 8.19 78.45 8.1 76.97 7.88 75.58 8.25 74.32 9.18 72.82 9.02 71.5 9.6 70.01 9.61 68.72 10.27 67.57 11.24 66.29 11.86 64.93 12.28 63.4 12.4 62.13 13.08 60.82 13.69 60.04 15.14 58.49 15.38 57.47 16.41 56.19 17.09 55.32 18.28 54.29 19.26 53.25 20.22 51.72 20.7 51.07 22.06 50.47 23.44 49.55 24.51 48.06 25.14 47.1 26.21 46.4 27.48 45.88 28.85 45.37 30.2 44.42 31.29 43.31 32.32 43.1 33.81 42.82 35.25 42.36 36.59 41 37.59 40.65 38.99 40.51 40.45 40.44 41.91 39.88 43.23 39.78 44.84 38.05 44.65 36.67 45.11 35.26 45.47 34.23 46.81 32.56 46.57 31.56 47.87 30.18 48.3 28.7 48.62 27.45 49.35 26.16 50.03 25.2 51.21 23.85 51.78 22.71 52.66 21.64 53.61 20.63 54.63 19.63 55.66 18.56 56.61 18 58.03 16.66 58.74 15.77 59.85 15.14 61.16 14.29 62.3 13.51 63.48 12.52 64.53 11.48 65.57 11.33 67.12 10.3 68.19 10.03 69.63 9.2 70.81 8.45 72.05 8.45 73.57 7.86 74.86 7.12 76.12 6.49 77.44 6.39 78.89 5.87 80.25 5.54 81.65 5.67 83.11 5.35 84.52 5.88 85.99 5.64 87.4 5.4 88.82 5.38 90.24 5.77 91.65 5.61 93.09 5.8 94.5 5.52 95.99 6.11 97.34 6.77 98.66 7.27 99.99 6.88 101.57 7.42 102.91 7.72 104.32 8.17 105.69 9.59 106.64 10.1 107.96 10.03 109.58 10.73 110.84 11.97 111.77 12.26 113.27 12.88 114.35 12.64 115.65 11.52 116.7 10.91 118.02 10.26 119.32 10.16 120.84 9.5 122.14 8.87 123.45 8.64 124.9 8.08 126.25 7.63 127.64 8.07 129.2 8 130.62 7.56 131.99 7.15 133.38 7.17 134.81 7.1 136.23 7.44 137.65 6.84 139.08 7.5 140.47 7.17 141.92 6.99 143.38 7.53 144.75 7.46 146.22 7.73 147.63 8.29 148.97 8.96 150.27 9.6 151.55 9.26 153.18 10.23 154.34 10.8 155.65 11.82 156.75 11.99 158.24 12.56 159.56 13.29 160.78 14.46 161.74 14.69 163.29 16.04 164.08 16.36 165.62 17.34 166.67 18.52 167.54 19.7 168.38 20.41 169.66 21.45 170.63 22.7 171.38 23.43 172.7 24.73 173.36 25.91 174.15 26.94 175.16 28.07 176.05 29.17 176.99 30.61 177.34 31.79 178.16 33 178.94 34.4 179.33 35.6 180.18 37.03 180.43 38.53 180.45 39.73 181.39 41.05 182 42.64 181.48 43.63 182.56 43.87 183.75 44.64 185.04 44.87 186.49 45.61 187.76 46.07 189.14 46.51 190.54 47.52 191.65 48.66 192.67 49.2 194.01 49.58 195.47 50.42 196.65 51.16 197.88 52.14 198.93 53.47 199.69 54.27 200.86 54.8 202.31 56.19 202.94 57.27 203.86 57.9 205.3 59.22 205.94 60.42 206.72 61.18 208.09 62.32 208.97 63.77 209.38 64.79 210.45 66.05 211.16 67.63 211.22 68.94 211.75 69.93 213.04 71.45 213.11 72.87 213.37 74.12 214.08 75.51 214.41 76.86 214.84 78.27 215.08 79.61 215.62 81.05 215.64 82.39 216.4 83.83 216.46 85.28 216.31 86.69 216.74 88.13 216.81 89.55 216.34 90.95 215.87 92.37 215.81 93.87 216.43 95.16 215.38 96.56 215.18 98 215.13 99.4 214.88 100.92 215.01 102.17 214.21 103.42 213.47 104.84 213.21 106.16 212.65 107.42 212 108.88 211.72 109.95 210.69 111.47 210.46 112.46 209.34 113.65 208.8 114.93 209.21 115.98 210.31 117.39 210.74 118.83 211.04 120.15 211.64 121.32 212.64 122.84 212.69 124.36 212.62 125.66 213.29 127 213.92 128.4 214.3 129.92 213.89 131.32 214.09 132.72 214.21 134.11 214.68 135.53 214.88 136.96 215.07 138.37 214.31 139.82 214.88 141.19 214.2 142.7 214.79 144.09 214.41 145.41 213.69 146.92 213.95 148.34 213.72 149.57 212.81 150.87 212.2 152.3 212 153.83 211.98 155.04 211.17 156.47 210.83 157.48 209.65 158.79 209.09 159.92 208.2 161.5 208.04 162.17 206.46 163.35 205.69 165.01 205.53 165.99 204.46 166.67 203.06 167.88 202.28 168.98 201.38 169.72 200.12 170.64 199.05 172.15 198.47 172.57 196.97 173.25 195.71 174.79 195.06 175.56 193.85 176.09 192.49 177.04 191.38 177.73 190.12 177.86 188.59 178.51 187.33 179.11 186.04 179.52 184.67 180.07 183.35 180.09 181.88 181.3 180.73 180.88 179.16 181.47 177.78 182.85 177.18 184.22 176.77 185.69 176.61 187.1 176.24 188.3 175.38 189.83 175.24 190.79 173.93 192.34 173.76 193.24 172.44 194.49 171.75 195.77 171.09 197.1 170.5 198.4 169.84 199.29 168.66 200.15 167.48 201.13 166.46 202.52 165.86 203.76 165.06 204.51 163.8 205.15 162.48 206.38 161.63 207.17 160.44 207.65 159.03 209.04 158.23 209.32 156.73 209.98 155.47 210.4 154.09 211.21 152.91 211.92 151.67 212.32 150.3 212.79 148.96 213.71 147.76 213.53 146.22 214.68 145.05 214.8 143.61 214.44 142.08 215.47 140.81 215.45 139.36 215.85 137.96 215.27 136.49 215.18 135.07 215.99 133.66 215.19 132.24 215.63 130.8 215.84 129.35 215.08 128 215.42 126.51 215.3 125.07 214.86 123.69 214.18 122.39 213.45 121.12 213.75 119.54 213.11 118.24 212.34 117.01 212.15 115.55 210.97 114.52 211.04 112.9 210.48 111.57 209.57 110.44 208.46 109.44 207.66 108.14"/><polygon class="cls-4" points="82.34 201.99 80.86 201.87 79.36 201.73 78 201.11 76.81 200.09 75.25 200 74.07 199.07 72.65 198.61 71.43 197.78 70 197.27 68.71 196.52 67.74 195.35 66.93 194.05 65.24 193.68 64.67 192.17 63.89 190.91 63.01 189.75 61.76 188.84 61.21 187.55 60.29 186.48 60.08 185.03 59.37 183.85 58.69 182.64 58.09 181.39 57.41 180.15 57 178.82 57.23 177.27 56.69 175.93 56.18 174.58 55.46 173.28 55.28 171.83 55.14 170.29 53.52 170.62 52.19 169.94 50.88 169.15 49.43 169.06 47.93 169.24 46.56 168.7 45.14 168.56 43.78 168.09 42.27 168.14 41.18 166.94 39.59 167.04 38.49 166.01 37.43 165 36.06 164.55 34.91 163.71 33.6 163.1 32.25 162.5 31.49 161.19 30.7 159.97 29.39 159.28 28.15 158.46 27.39 157.23 26.45 156.14 25.82 154.83 24.77 153.79 24.42 152.35 23.77 151.08 23.41 149.68 22.54 148.5 22.34 147.06 21.95 145.7 21.4 144.37 21.22 142.95 20.63 141.59 21.22 140.1 20.99 138.7 20.48 137.29 20.7 135.87 21.3 134.49 21.34 133.08 21.48 131.67 21.17 130.19 21.73 128.89 22.22 127.58 22.77 126.3 22.93 124.87 23.34 123.51 24.55 122.56 24.87 121.15 25.66 119.94 26.76 118.92 27.35 117.6 28.29 116.48 28.42 114.89 29.54 113.82 28.76 112.56 27.87 111.42 26.96 110.3 26.62 108.79 25.31 107.93 24.44 106.78 23.44 105.72 23.5 104.03 22.11 103.15 21.6 101.8 21.01 100.49 20.88 99.01 20.72 97.58 19.99 96.31 19.32 94.98 19.45 93.5 19.78 92.04 19.31 90.66 19.37 89.24 19.39 87.82 18.91 86.37 19.31 84.97 19.36 83.52 19.41 82.07 19.97 80.72 20.67 79.44 20.94 78.02 21.7 76.79 22.37 75.54 22.76 74.15 23.18 72.76 24.19 71.7 25.28 70.73 26.17 69.64 27.04 68.54 27.62 67.17 28.61 66.15 29.52 65.03 30.57 64.06 32.05 63.64 32.78 62.21 34 61.52 35.22 60.84 36.46 60.19 37.74 59.64 39.22 59.58 40.21 58.27 41.58 57.95 43.08 58.12 44.36 57.35 45.89 57.52 47.19 56.79 48.53 56.23 50 56.15 51.7 56.02 51.64 54.3 51.71 52.85 51.91 51.43 52.59 50.1 53.13 48.73 53.39 47.31 52.88 45.74 53.23 44.34 53.68 42.97 54.48 41.73 55.41 40.58 55.54 39.07 56.81 38.14 57.51 36.92 58.24 35.72 58.34 34.04 59.59 33.2 60.46 32.06 61.78 31.35 62.53 30.1 63.5 29.05 64.88 28.49 65.79 27.34 67.15 26.82 68.37 26.11 69.48 25.19 70.87 24.82 71.98 23.81 73.19 22.99 74.76 23.14 76.15 22.88 77.39 21.99 78.85 21.99 80.22 21.59 81.65 21.52 83.06 21.14 84.49 21.54 85.9 21.77 87.29 22.03 88.71 22 90.17 21.87 91.49 22.31 92.89 22.44 94.17 23.01 95.66 22.98 96.83 23.81 98.23 24.11 99.3 25.09 100.75 25.37 101.88 26.27 103 27.21 104.44 27.6 105.3 28.98 106.69 29.45 107.96 30.02 109.1 29.25 110.31 28.48 111.41 27.54 112.57 26.68 113.74 25.84 115.19 25.41 116.18 24.24 117.69 23.93 119.11 23.54 120.35 22.79 121.64 22.14 123.05 21.78 124.33 21 125.83 21.04 127.17 20.35 128.61 20.11 130.07 20.02 131.51 19.8 132.97 20.03 134.44 19.73 135.89 19.91 137.35 20.02 138.76 20.46 140.21 20.72 141.58 21.29 143.16 21.17 144.47 21.91 145.81 22.53 147.15 23.14 148.39 23.96 149.53 24.9 150.88 25.51 152.02 26.43 153.4 27.06 154.66 27.87 155.52 29.13 156.63 30.11 157.78 31.07 158.54 32.38 158.96 33.89 160.19 34.73 160.35 36.25 161.23 37.33 161.81 38.58 162.12 39.95 163.09 41.05 163.37 42.41 164.15 43.64 163.83 45.21 165.04 46.38 165.31 47.79 165.53 49.22 165.61 50.69 166.18 51.94 167.53 52.05 168.89 52.61 170.29 52.91 171.63 53.58 173.16 53.24 174.55 53.69 175.96 53.9 177.31 54.38 178.79 54.45 179.91 55.55 181.39 55.69 182.68 56.3 184.1 56.68 184.91 58.13 186.41 58.42 187.5 59.36 188.32 60.61 189.93 60.92 190.73 62.16 191.91 63.01 192.7 64.22 193.34 65.53 194.37 66.53 195.56 67.45 196.29 68.7 196.59 70.17 197.41 71.35 197.7 72.78 198.85 73.86 198.4 75.53 199.73 76.61 199.89 78.06 199.47 79.59 199.81 80.96 200.48 82.32 200.24 83.76 200.32 85.18 200.81 86.63 200.1 88.01 200.54 89.5 199.79 90.83 199.22 92.12 199.28 93.56 198.95 94.91 198.8 96.34 197.76 97.43 197.25 98.72 196.94 100.12 196.02 101.2 195.35 102.48 194.82 103.84 194.2 105.14 193.24 106.24 192.3 107.36 192.03 108.64 192.69 109.68 193.14 111.11 194.15 112.17 194.48 113.68 196.05 114.36 196.29 115.94 197.48 116.87 197.63 118.42 198.98 119.33 199.35 120.74 199.4 122.25 200.53 123.35 200.26 124.92 201.09 126.17 200.93 127.65 201.66 128.97 201.55 130.41 201.92 131.81 201.77 133.23 202.32 134.67 201.41 136.05 202.16 137.55 201.81 138.96 200.76 140.21 201.34 141.81 200.26 142.99 199.94 144.37 199.93 145.9 199.06 147.09 198.42 148.36 198.08 149.81 196.55 150.55 196.34 152.12 194.95 152.85 194.63 154.42 193.42 155.25 192.7 156.54 191.63 157.5 190.09 157.89 189.21 159.06 187.84 159.57 187.16 161.06 185.62 161.18 184.69 162.39 183.13 162.35 181.98 163.15 180.59 163.36 179.26 163.72 178.01 164.33 176.57 164.51 175.32 165.42 173.8 165.28 172.48 165.91 171.23 166.85 169.42 166.48 169.49 168.17 169.45 169.63 169.2 171.04 168.17 172.31 168.49 173.84 168.18 175.25 168.2 176.73 167.01 177.88 166.99 179.36 166.56 180.72 165.71 181.9 165.64 183.45 164.43 184.42 163.9 185.75 162.78 186.71 162.6 188.32 161.27 189.09 160.47 190.26 159.42 191.22 158.81 192.63 157.3 193.08 156.18 193.94 155.41 195.28 153.83 195.47 152.65 196.24 151.71 197.46 150.46 198.17 148.88 198.1 147.8 199.22 146.36 199.41 144.97 199.68 143.67 200.32 142.29 200.74 140.92 201.25 139.45 201.02 138.03 201.12 136.6 201.55 135.18 200.93 133.73 201.27 132.31 201.04 130.92 200.65 129.64 199.99 128.29 199.7 127.03 199.14 125.71 198.75 124.46 198.18 123.18 197.69 121.59 197.76 120.47 196.9 119.44 195.81 118.24 195.01 116.69 194.81 115.61 193.81 114.42 192.98 113.12 191.85 112.15 193.44 110.99 194.29 109.57 194.76 108.31 195.47 106.9 195.96 105.93 197.11 104.81 198.05 103.55 198.8 102.2 199.37 101.06 200.41 99.51 200.5 98.01 200.58 96.76 201.45 95.29 201.56 93.84 201.7 92.53 202.75 91.07 202.97 89.58 202.57 88.12 202.93 86.66 202.61 85.23 202.26 83.8 202.07 82.34 201.99"/></g></g></svg>