<svg id="mockup" xmlns="http://www.w3.org/2000/svg" viewBox="0 0 92.77 100.56"><defs><style>.cls-1,.cls-2{fill:#f2f2f2;}.cls-2{font-size:16.1px;font-family:LucidaBright, Lucida Bright;}.cls-3{font-size:25.76px;font-family:KozMinPro-Regular-90ms-RKSJ-H, Kozuka Mincho Pro;}</style></defs><path class="cls-1" d="M46.38,92.66A2,2,0,0,1,45,92.08L.59,47.74a2,2,0,0,1,0-2.83L45,.57a2,2,0,0,1,2.83,0L92.18,44.91a2,2,0,0,1,0,2.83L47.8,92.08A2,2,0,0,1,46.38,92.66ZM46.39,2,2,46.32,47.09,91.37l-.7-.71L90.77,46.32Z"/><path class="cls-1" d="M86.1,51,47.31,89.75a1.3,1.3,0,0,1-1.86,0L6.67,51,2.38,55.29a1.32,1.32,0,0,0,0,1.86l43.07,43a1.32,1.32,0,0,0,1.86,0l43.08-43a1.32,1.32,0,0,0,0-1.86Z"/><text class="cls-2" transform="translate(23.2 40.79)">point <tspan class="cls-3"><tspan x="7.36" y="27.37">05</tspan></tspan></text></svg>