<svg id="mockup" xmlns="http://www.w3.org/2000/svg" xmlns:xlink="http://www.w3.org/1999/xlink" viewBox="0 0 1851.43153 65.09741"><defs><style>.cls-1{mask:url(#mask);}.cls-2{fill:#e66446;}.cls-3{filter:url(#luminosity-noclip);}</style><filter id="luminosity-noclip" x="0" y="-1.85483" width="1851.43153" height="69.51987" filterUnits="userSpaceOnUse" color-interpolation-filters="sRGB"><feFlood flood-color="#fff" result="bg"/><feBlend in="SourceGraphic" in2="bg"/></filter><mask id="mask" x="0" y="-1.85483" width="1851.43153" height="69.51987" maskUnits="userSpaceOnUse"><g class="cls-3"><path d="M762.82454,2.46355a2.4016,2.4016,0,0,0,.5223.0302l.6077.0094c.2886-.0279.5404-.1005.5596-.1613a2.60751,2.60751,0,0,0-.0449-.7398l-.1001-.5288c-.0503-.2855-.2062-.5354-.3466-.5553a.96655.96655,0,0,0-.7277.4484l-.3219.9319C762.89654,2.178,762.82724,2.448,762.82454,2.46355Z"/><path d="M817.32754,61.51955a.59129.59129,0,0,0,.6925.3352l.8421-.3165a.64826.64826,0,0,0,.3126-.7308l-.4494-1.3281a3.29456,3.29456,0,0,0-.2381-.5097,1.187,1.187,0,0,0-.5024.2423l-.7496.5453a.84633.84633,0,0,0-.2382.8275Z"/><path d="M776.365,54.36155c-.0168.2869.1141.5626.2909.6126a4.69616,4.69616,0,0,0,1.1843.073l.5996-.0787a3.48537,3.48537,0,0,0,.5233-.0954,4.48741,4.48741,0,0,0-.1683-.5351l-.4115-1.2404a.6223.6223,0,0,0-.677-.4063l-.6231.0943a.77187.77187,0,0,0-.5979.5994Z"/><path d="M842.78894,39.53515a.576.576,0,0,0-.6137-.0076c-.1352.1156-.2721.5363-.035.6115l1.6594.5194c.2365.0769.3292.0121.2061-.1439A10.44792,10.44792,0,0,0,842.78894,39.53515Z"/><path d="M816.24454,13.14115a.45255.45255,0,0,0-.172-.0199.74758.74758,0,0,0-.1293.5105l.0618,1.0712c.0077.2684.1288.3007.2691.0717l.4933-.86c.1186-.2409.1378-.4826.0427-.5369S816.29874,13.15855,816.24454,13.14115Z"/><path d="M883.75964,45.73125a2.27861,2.27861,0,0,0-.4447.2755c-.1181.0968-.335.4528-.2046.5737s.5931.2604.7162.0183l.2373-.512a1.9569,1.9569,0,0,0,.206-.4637A1.96763,1.96763,0,0,0,883.75964,45.73125Z"/><path d="M972.27124,21.65755c.1645-.1869.0968-.3638-.1505-.3931l-.4737-.0865a.86487.86487,0,0,0-.6572.1756c-.1142.1258-.3084.5956-.1804.7372s.7176.307.898.1352Z"/><path d="M747.66014,36.65615c.2089.0764.3949-.106.4132-.4055l.0178-.8464c.0203-.2993-.1189-.3546-.3094-.1228l-.482.6065C747.13194,36.13665,747.45114,36.57975,747.66014,36.65615Z"/><path d="M863.25594,31.13275c.0228-.1452-.1398-.389-.3613-.5418l-.9913-.6846c-.2258-.1464-.4431-.161-.4828-.0323a1.05577,1.05577,0,0,0,.3061.7976l.9706.6547A.40276.40276,0,0,0,863.25594,31.13275Z"/><path d="M837.38814,53.349a.269.269,0,0,0,.3076-.0996c.0811-.1013.1628-.458.0186-.519s-.5491-.1325-.5619-.0048A1.2251,1.2251,0,0,0,837.38814,53.349Z"/><path d="M817.00564,53.48585c.2369-.1139.3434-.2923.2366-.3964a1.35987,1.35987,0,0,0-.7502-.3257c-.2046.0362-.7506.3183-.7315.5062s.3593.6043.5968.4916Z"/><path d="M862.14024,44.58655c-.0019.1323.2117.3375.4747.4559l.57.2805c.2609.1228.5283.1527.5943.0666a.72231.72231,0,0,0-.1762-.6949l-.7171-.6204c-.2287-.1757-.4678-.269-.5315-.2072A2.3757,2.3757,0,0,0,862.14024,44.58655Z"/><path d="M916.849,2.94905a1.32186,1.32186,0,0,0-.0508.4771,4.93968,4.93968,0,0,0,.5267.4223l2.5844,1.7593c.2422.172.4408.3118.4414.3106s-.1409-.201-.3156-.4413l-2.316-3.1726c-.1817-.235-.3843-.3889-.4501-.3421A4.41784,4.41784,0,0,0,916.849,2.94905Z"/><path d="M863.67944,16.08715a.61087.61087,0,0,0,.5044-.4169c.0562-.211.13-.8291.0143-.8885a.70609.70609,0,0,0-.695.2595l-.3458.6414C863.04244,15.93155,863.45834,16.10545,863.67944,16.08715Z"/><path d="M957.03954,42.66505c.0815-.2514.055-.4946-.0588-.5404a.42823.42823,0,0,0-.4717.3531l-.0613,1.3193c-.0146.264-.0252.4794-.0234.4788a.20545.20545,0,0,0,.0277-.037c.0116-.0191.1137-.2752.2012-.5246Z"/><path d="M904.25474,60.42745c-.1219-.0102-.3202.1979-.4406.4624s-.1181,1.0834.1723,1.1368l2.465.5159a.57291.57291,0,0,0,.6464-.247c.065-.1881-.0186-.8207-.2863-.9453l-1.6086-.7008A5.58712,5.58712,0,0,0,904.25474,60.42745Z"/><path d="M878.03644,7.32445a.14305.14305,0,0,0-.0091.0595,3.34418,3.34418,0,0,0,.4095.3998l.629.5418c.2296.1801.483.2562.5629.1692a.5114.5114,0,0,0-.2488-.6057l-.8366-.4027A1.41731,1.41731,0,0,0,878.03644,7.32445Z"/><path d="M1004.53084,33.40575a.63664.63664,0,0,0,.2261.0109.77068.77068,0,0,0,.3074-.5595l.12-.9002c.0312-.2886-.0329-.5465-.1425-.5733a.53327.53327,0,0,0-.4779.4362l-.1598,1A.78022.78022,0,0,0,1004.53084,33.40575Z"/><path d="M932.14524,10.35205c-.064.1003.0359.3466.222.5474l.6936.7148c.1992.1878.4478.2905.5526.2281a.74555.74555,0,0,0,.2549-.5559,1.88012,1.88012,0,0,0-.5948-.7641A2.18522,2.18522,0,0,0,932.14524,10.35205Z"/><path d="M975.51414,48.80925a.58874.58874,0,0,0,.1571.3707.53036.53036,0,0,0,.4666-.0987l.7876-.9411a.34156.34156,0,0,0-.0471-.4506l-.4977-.3343a.39243.39243,0,0,0-.462.1152l-.3232.4611A2.33907,2.33907,0,0,0,975.51414,48.80925Z"/><path d="M1100.19964,46.32705a1.72265,1.72265,0,0,0,.5201-.3216l.7937-.6418a.83242.83242,0,0,0,.1886-.829l-.4789-1.1983a1.13431,1.13431,0,0,0-.3608-.511,1.89846,1.89846,0,0,0-.7426.0795c-.2422.0893-.8301.6688-.7839.9459l.4689,1.9852A.82246.82246,0,0,0,1100.19964,46.32705Z"/><path d="M1046.45364-1.07975a.63921.63921,0,0,0-.3117.7391l.2627.7216a.4723.4723,0,0,0,.6758.2192l2.4297-1.2988a1.41371,1.41371,0,0,0,.4445-.3084,2.21181,2.21181,0,0,0-.3645-.3848,2.18145,2.18145,0,0,0-1.1414-.4557,11.23918,11.23918,0,0,0-1.493.5156Z"/><path d="M801.41394,42.77255c.2421-.0787.2695-.2626.0611-.4087l-.8042-.4763a.26006.26006,0,0,0-.4318.2152l-.0147.5446a.359.359,0,0,0,.4859.3197Z"/><path d="M988.80694,60.11575a1.44046,1.44046,0,0,0,.2824.4156l.6703.8396a.49578.49578,0,0,0,.6451.098l1.0945-.7121c.2066-.1271.3535-.3486.3264-.4922s-.3294-.5209-.5718-.5096l-1.9965.1438A.67955.67955,0,0,0,988.80694,60.11575Z"/><path d="M1063.53194,9.58075a1.33584,1.33584,0,0,0-.1683-.9107l-.8248-1.0605c-.1634-.2244-.3224-.3892-.3534-.3663a1.4588,1.4588,0,0,0-.1272.5895l-.0386,2.9138c.0068.2775.0186.514.0262.5256a1.01732,1.01732,0,0,0,1.2309-.5939Z"/><path d="M1049.19094-1.25745c-.0733-.2561-.2656-.4314-.4273-.3895s-.5777.457-.5528.7222l.126,1.0106c.046.2624.2393.3994.4295.3044s.6689-.6353.6076-.8946Z"/><path d="M846.83674,1.47765a.40978.40978,0,0,0,.5283-.2917l.41-1.5803c.0575-.2366-.0386-.2916-.2135-.1223l-1.1083,1.2042C846.29564.87315,846.60744,1.40245,846.83674,1.47765Z"/><path d="M1073.076,20.97445a.6237.6237,0,0,0,.1674-.7511c-.1291-.2339-.7144-.8273-.9265-.8021a1.882,1.882,0,0,0-.9899.5859l-.9045,1.8103a.95474.95474,0,0,0-.1536.6325.515.515,0,0,0,.6249.0559Z"/><path d="M856.171,36.41425a1.34281,1.34281,0,0,0-.5217.0009l-.558.0317c-.2848.031-.4837.1101-.442.1758a.78634.78634,0,0,0,.6333.1137A5.50154,5.50154,0,0,0,856.171,36.41425Z"/><path d="M870.57684,46.652a.54772.54772,0,0,0,.1677.6873c.2098.1324.8638.1081.8565-.1641l-.0622-1.6834c-.009-.2722-.1341-.3057-.2781-.0745Z"/><path d="M907.55084,28.734c.0899.1834.203.2073.2512.0532s.0279-.6084-.0947-.6261S907.46094,28.55055,907.55084,28.734Z"/><path d="M1007.711,65.18945a1.13513,1.13513,0,0,0,.3838-.1554c.1877-.0999.4577-.436.2819-.4817s-.6619-.0646-.6789.0817A2.30421,2.30421,0,0,0,1007.711,65.18945Z"/><path d="M830.82214,7.51165c.0277-.2414-.0816-.2902-.2428-.1084l-.6231.7373c-.1449.195-.1176.403.0607.4623s.7181.0097.7466-.2316Z"/><path d="M1054.42434,31.22815c.0096.2422.148.2911.3076.1087l1.5714-1.9542a.28625.28625,0,0,0-.1735-.4718l-1.467-.3951a.3313.3313,0,0,0-.416.352Z"/><path d="M971.16644,18.64165a.76913.76913,0,0,0,.061.1627.87658.87658,0,0,0,.6333.2514l1.638-.0899a2.15779,2.15779,0,0,0,.5106-.0525,1.45329,1.45329,0,0,0-.5049-.1021l-1.8237-.1778A1.92028,1.92028,0,0,0,971.16644,18.64165Z"/><path d="M916.19564,27.50485a.34718.34718,0,0,0,.0521.553l1.2395.9677c.197.1496.4119.2256.4776.1688a.61691.61691,0,0,0-.0133-.5972l-.8194-1.1927C916.97984,27.20965,916.36654,27.34685,916.19564,27.50485Z"/><path d="M1079.51054,52.17225a.30724.30724,0,0,0,.3506.4213l1.0053-.0641a.74213.74213,0,0,0,.5993-.3573c.0606-.1698-.0062-.7036-.2646-.783l-.7951-.2282a.61777.61777,0,0,0-.6618.3671Z"/><path d="M984.26184,6.06245c.1849.0266.3558-.0047.3796-.0696a1.41028,1.41028,0,0,0-.0264-.5642c-.0559-.1757-.34-.58-.5372-.5091s-.6592.3438-.6102.4862A2.0437,2.0437,0,0,0,984.26184,6.06245Z"/><path d="M1075.72994,6.11515c-.1757.2129-.2917.4642-.2579.5584a.71043.71043,0,0,0,.5949.2833c.2522-.0353.8337-.431.7119-.6737S1075.90564,5.90225,1075.72994,6.11515Z"/><path d="M896.91424,24.75045c.0893.0908.307-.033.4836-.2751l.9598-1.2424c.179-.2404.2867-.4814.2393-.5355s-.3474-.0126-.5494.2088l-1.0636,1.0994A.71359.71359,0,0,0,896.91424,24.75045Z"/><path d="M821.87474,55.19145a1.77853,1.77853,0,0,0-.2744.8606s.0007.1989-.01.4557a.47709.47709,0,0,0,.4532.491l.934.0696a.52544.52544,0,0,0,.5478-.4307l.2036-1.1253a.73734.73734,0,0,0-.3151-.7053c-.2183-.1315-.9871-.2876-1.1577-.091Z"/><path d="M964.26,6.60655c.07.0661.3193.0007.5541-.1453l.446-.2664c.2379-.1409.4197-.2957.404-.3441s-.2715-.0815-.5222.035l-.6762.2782C964.21474,6.28005,964.19,6.54045,964.26,6.60655Z"/><path d="M916.02794,10.47175c-.0933.0597-.0186.2487.1661.42l.3202.3354c.1839.1721.3674.2514.4077.1763a.658.658,0,0,0-.0813-.5414C916.71174,10.71345,916.12124,10.41215,916.02794,10.47175Z"/><path d="M934.85344,26.07015c.2596.1059.3598-.0075.2227-.252l-.7652-1.2693a.32474.32474,0,0,0-.5736-.0023c-.156.2292-.3701.9773-.1108,1.0837Z"/><path d="M923.07094,40.55245c-.04.1787.1287.4022.3749.4969l.7957.2857c.2541.0708.4648.1239.4683.118a4.923,4.923,0,0,0-.1146-.484l-.1351-.601c-.0637-.256-.2747-.4547-.4689-.4416A1.88868,1.88868,0,0,0,923.07094,40.55245Z"/><path d="M893.24224,9.58585c.0894.0857.2892.0396.4441-.1023s.2806-.4208.0742-.3803S893.15284,9.50025,893.24224,9.58585Z"/><path d="M1109.31414,5.62025a.514.514,0,0,0,.465.4968c.2477.0134.8526-.2316.7391-.4653l-.3804-.8436c-.113-.234-.2882-.3795-.3895-.3233a1.181,1.181,0,0,0-.4145.6556C1109.31284,5.39235,1109.31414,5.62025,1109.31414,5.62025Z"/><path d="M1067.57424,8.03355c-.2592.0394-.396.233-.3041.4303s.6245.7183.884.6812l.8934-.1359c.2576-.0487.408-.2404.3343-.426s-.5625-.6817-.8236-.6583Z"/><path d="M847.35714,34.60325a1.22881,1.22881,0,0,0-.3564-.0217c-.1814.0042-.6925.1003-.7445.2371s-.0092.4479.2313.3802a3.75077,3.75077,0,0,0,.8322-.3269A.75953.75953,0,0,0,847.35714,34.60325Z"/><path d="M977.68434,26.70315c-.2103.1612-.3011.3986-.2017.5276a4.92916,4.92916,0,0,0,.4801.4709,1.19,1.19,0,0,0,.4738-.2425l2.0297-1.5114c.2088-.1632.2447-.3825.08-.4871s-.8189-.251-1.0317-.093Z"/><path d="M1079.03784,5.21605a1.93721,1.93721,0,0,0,.598.4531l.6108.3389a.77568.77568,0,0,0,.8599-.0956l.8191-.7406a.77406.77406,0,0,0,.151-.8513l-.678-1.2238a.42646.42646,0,0,0-.6791-.0772l-1.5318,1.4162A.86352.86352,0,0,0,1079.03784,5.21605Z"/><path d="M942.687,19.29035a.5471.5471,0,0,0,.128.6719l.6086.5604c.2113.1721.4266.1126.4783-.1322s.0879-1.0087-.0719-1.1443S942.81454,19.10825,942.687,19.29035Z"/><path d="M905.16154,12.93365c-.0316.0527.0895.2485.2692.4352l.4486.471c.1884.1777.3926.2719.4536.2093a1.59949,1.59949,0,0,0,.214-.3315.956.956,0,0,0-.3767-.3832l-.4884-.3243C905.46344,12.87085,905.19314,12.88105,905.16154,12.93365Z"/><path d="M877.08174,37.33165a.40764.40764,0,0,0,.3589.5648l1.0427.1337a.36509.36509,0,0,0,.4089-.4797l-.4252-1.6378c-.0644-.2899-.1761-.5328-.2481-.5399a.89857.89857,0,0,0-.4908.4648Z"/><path d="M811.60634,26.294a2.86512,2.86512,0,0,0,.2803.3706.53426.53426,0,0,0,.4746.0986,2.67992,2.67992,0,0,0,.5357-.4723.568.568,0,0,0-.0945-.4765l-.9393-.9219c-.1185-.1143-.2772-.1661-.3527-.1151a1.47226,1.47226,0,0,0-.3249.3383.91136.91136,0,0,0,.0386.5296Z"/><path d="M792.57054,14.59675a.67.67,0,0,0,.3433.3797c.1382.052.5656.0774.6193-.0463s-.0577-.5542-.278-.6199S792.52,14.44,792.57054,14.59675Z"/><path d="M921.71044,61.97965c.0441-.124-.155-.2948-.4425-.3796l-1.6346-.4978a2.10559,2.10559,0,0,0-.5301-.1231,1.71226,1.71226,0,0,0,.4579.3369l1.4518.8215A.60892.60892,0,0,0,921.71044,61.97965Z"/><path d="M927.09444,29.45985a1.08455,1.08455,0,0,0,.1135-.3945c.0254-.1775-.0273-.7056-.1919-.7857l-.5625-.2851a.47734.47734,0,0,0-.5242.1043l-.3626.4321a.27.27,0,0,0,.1013.4155l.9865.5123A.55475.55475,0,0,0,927.09444,29.45985Z"/><path d="M949.85514,53.77605c.189-.1145.1883-.1804-.0014-.1464s-.7107.2034-.6966.2709S949.66624,53.89065,949.85514,53.77605Z"/><path d="M828.18874,54.74075c.092.2641.2338.4299.315.3683a1.23422,1.23422,0,0,0,.3148-.6577c.0075-.2416-.1572-.918-.3355-.9241s-.6011.2784-.5062.5416Z"/><path d="M739.80464,50.673a.37286.37286,0,0,0,.0027-.4091,3.8,3.8,0,0,0-.3784-.4209c-.0294-.0124-.204.128-.3224.3407s-.3945.8373-.3184.9277.3622.2765.4408.2146A7.97205,7.97205,0,0,0,739.80464,50.673Z"/><path d="M989.40184,55.01615a1.2052,1.2052,0,0,0-.2053.4933,2.84845,2.84845,0,0,0,.5728.276l.9689.3739c.2636.0924.5528.0815.6427-.0242a2.25631,2.25631,0,0,0,.3465-.788c.016-.2112-.1272-.8575-.3778-.9808l-.6965-.3412a.63842.63842,0,0,0-.7507.2186Z"/><path d="M781.88974,35.11945c-.0358.0646.0504.2844.1915.4885s.6437.709.7577.6331.2367-.4651.0283-.6325l-.4758-.4102C782.18494,35.02865,781.92554,35.05485,781.88974,35.11945Z"/><path d="M805.46274,43.62755a.88472.88472,0,0,0,.6656.4481,3.80726,3.80726,0,0,0,1.1437-.2264c.1673-.1067.5293-.587.4114-.8391l-.2964-.6195a.85532.85532,0,0,0-.7562-.3885l-1.1116.1639c-.2726.0556-.4971.1559-.4989.2228a3.12333,3.12333,0,0,0,.205.7082Z"/><path d="M834.38994,50.20795c-.2041.2073-.1849.3216.0427.2541s.8325-.3861.7935-.5045S834.594,50.00065,834.38994,50.20795Z"/><path d="M884.376,21.887a.73.73,0,0,0,.5295-.6053l.041-.5397a.60253.60253,0,0,0-.4747-.5876c-.2683-.0497-1.0848.1524-1.1523.4175l-.1948.9986a.36314.36314,0,0,0,.4336.4229Z"/><path d="M888.01024,32.68085c.1136-.1394.0255-.3794-.1956-.5333l-.6837-.4455c-.2185-.1576-.3011-.0883-.1835.1542l.4063.8201C887.48734,32.91035,887.89674,32.82025,888.01024,32.68085Z"/><path d="M757.24934,63.53625c.1699-.2371.184-.5164.0314-.6206s-.734-.2305-.874-.0887a3.67126,3.67126,0,0,0-.6212,1.0698l-.1089.5399c-.0667.284-.0484.5349.0406.5575a.98062.98062,0,0,0,.6549-.3379Z"/><path d="M766.45584,64.34605c-.1686.188-.2288.4438-.1338.5686a1.26725,1.26725,0,0,0,.8053.3896l.9145-.209a.52867.52867,0,0,0,.3782-.544,4.84,4.84,0,0,0-.3406-1.0162c-.0774-.1081-.3368-.3935-.4006-.3845a1.53612,1.53612,0,0,0-.5251.393Z"/><path d="M952.743,19.10865c-.244-.0551-.4621-.0275-.4848.0612a1.48841,1.48841,0,0,0,.0761.6598,4.93652,4.93652,0,0,0,.6499.9378l.466.3937a.34514.34514,0,0,0,.5492-.1332l.4857-1.0908a.3937.3937,0,0,0-.3059-.5194Z"/><path d="M756.37084,57.326c.0109.0659.2328.1378.4931.1597l1.2713.1463c.2602.0238.5131-.0583.562-.1825a1.64257,1.64257,0,0,0,.0966-.5l-.0222-.0133a11.24609,11.24609,0,0,0-1.542-.7549.50453.50453,0,0,0-.6243.164A4.18711,4.18711,0,0,0,756.37084,57.326Z"/><path d="M863.29144,23.76215c.0961-.1248.1756-.2335.1768-.2415a2.98327,2.98327,0,0,0-.2446-.3409c-.137-.1717-.6113-.5515-.6788-.4746a1.78788,1.78788,0,0,0-.267.6345,1.52868,1.52868,0,0,0,.1103.7386c.0938.0716.4404.1784.5488.069Z"/><path d="M831.26394,60.50835c-.1644-.2106-.3753-.3515-.4685-.3131a.66537.66537,0,0,0-.2194.6203l.2591.9295a.51378.51378,0,0,0,.5839.3451c.2303-.0615.7199-.4638.5487-.6689Z"/><path d="M868.60994,54.535c.0874-.0322.1983-.2947.2465-.5834a5.54053,5.54053,0,0,0-.0257-1.5445c-.0953-.2452-.4339-.797-.5714-.7485a1.17579,1.17579,0,0,0-.5492.7348l-.1181,1.6835c-.0104.3006.087.5565.2163.5686A4.41309,4.41309,0,0,0,868.60994,54.535Z"/><path d="M821.20134,62.05635a.63435.63435,0,0,0-.5588.1561l-1.1492.9264a.50415.50415,0,0,0-.09.6444c.1336.1907.7262.4711.8688.2711l1.0532-1.4006A.4958.4958,0,0,0,821.20134,62.05635Z"/><path d="M989.83884,36.451a.668.668,0,0,0-.674.3493l-1.6858,2.9676a.41818.41818,0,0,0,.2526.6202c.2741.0806,1.2313-.0161,1.3815-.2682l.8411-1.4598a4.675,4.675,0,0,0,.3684-.9449C990.38514,37.45345,990.06144,36.51215,989.83884,36.451Z"/><path d="M754.75484,54.79625a.62714.62714,0,0,0,.1041-.4004l.0487-2.9505c-.0001-.1843-.0675-.3068-.1499-.2722l-.0775.0403a5.172,5.172,0,0,0-.507.3.73087.73087,0,0,0-.2842.5232l-.0446,2.4672a1.76088,1.76088,0,0,0,.0408.4327.295.295,0,0,0,.2729.1366A5.36257,5.36257,0,0,0,754.75484,54.79625Z"/><path d="M979.80044,44.33765c-.0933-.2578-.2943-.4335-.4467-.3904s-.5782.208-.5872.2815a1.09892,1.09892,0,0,0,.1634.5104c.1005.13.4581.4589.5999.4573S979.89364,44.59545,979.80044,44.33765Z"/><path d="M756.28184,37.14415a.076.076,0,0,0-.0165.0321c.0009.004.0141-.0048.0232-.0225S756.29174,37.13045,756.28184,37.14415Z"/><path d="M890.04044-.20965a1.524,1.524,0,0,0,.1777.5311c.1036.2048.5982.6847.8723.5846l1.1551-.3869a.40914.40914,0,0,0,.213-.6298l-.3661-.6139a.651.651,0,0,0-.7664-.2629l-.7565.2734A1.02582,1.02582,0,0,0,890.04044-.20965Z"/><path d="M749.14344,36.76595c.0036-.0105-.0389-.2612-.0944-.5569l-.2266-1.382c-.0472-.2972-.1382-.5388-.2022-.5367a1.06605,1.06605,0,0,0-.4448.5228l-.4161,1.274a.51825.51825,0,0,0,.3389.6479A5.20573,5.20573,0,0,0,749.14344,36.76595Z"/><path d="M975.97424,49.19205a.8223.8223,0,0,0,.0565.3528,3.79972,3.79972,0,0,0,.5682.1462l1.2225.22a.67457.67457,0,0,0,.665-.3814l.2634-.7058a.30105.30105,0,0,0-.3393-.4156l-1.9784.1185C976.16864,48.54685,975.96944,49.01415,975.97424,49.19205Z"/><path d="M961.24264,21.444a1.28017,1.28017,0,0,0-.4351.2942,1.5334,1.5334,0,0,0,.3528.4779l1.327,1.1456c.1973.1817.3449.1114.328-.1563l-.1877-1.8172a.37724.37724,0,0,0-.5352-.2969Z"/><path d="M973.79484,14.849a1.8573,1.8573,0,0,0,.1402-.7708,1.25185,1.25185,0,0,0-.5443-.7361c-.2536-.082-1.0846-.0168-1.204.2462l-.5316,1.3008c-.0919.2738-.0956.5422-.0082.5964a1.52942,1.52942,0,0,0,2.1479-.6365Z"/><path d="M880.16344,39.11055a1.12927,1.12927,0,0,0-.2164-.4045,1.49417,1.49417,0,0,0-.148.5037l-.2499,2.4418a.35443.35443,0,0,0,.4331.3816l.862-.1893a.42123.42123,0,0,0,.2582-.5714Z"/></g></mask></defs><g class="cls-1"><path class="cls-2" d="M921.35988,37.96391a.834.834,0,0,1-.87785-.91716c0-.92319-.26543-.92319-.26543-1.84639,0-.92625.03609-.92625.03609-1.85249,0-.92472.07616-.92472.07616-1.84944,0-.926-.115-.926-.115-1.85192,0-.927.20423-.927.20423-1.854,0-.92569-.13-.92569-.13-1.85137,0-.92785.17277-.92785.17277-1.8557,0-.92935-.234-.92935-.234-1.8587s.06242-.92934.06242-1.85869a1.01784,1.01784,0,0,1,1.07054-.94595c.83813,0,.83813.06267,1.67627.06267s.83813-.22006,1.67627-.22006a.99235.99235,0,0,1,.87068,1.10334c0,.92319-.01008.92319-.01008,1.84639,0,.92625.08606.92625.08606,1.85249,0,.92472.0045.92472.0045,1.84944,0,.926.154.926.154,1.85192,0,.927-.05079.927-.05079,1.854,0,.92569-.15634.92569-.15634,1.85137,0,.92785.09755.92785.09755,1.8557,0,.92935-.111.92935-.111,1.8587s.095.92934.095,1.85869a1.07944,1.07944,0,0,1-.97953,1.10709c-.83814,0-.843.05432-1.68068.02672C922.19253,38.15291,922.198,37.96391,921.35988,37.96391Z"/><path class="cls-2" d="M929.13234,38.05645a1.0178,1.0178,0,0,1-1.01173-1.0097c0-.92319-.0222-.92319-.0222-1.84639,0-.92625.111-.92625.111-1.85249,0-.92472-.20365-.92472-.20365-1.84944,0-.926.13725-.926.13725-1.85192,0-.927.0923-.927.0923-1.854,0-.92569-.21557-.92569-.21557-1.85137,0-.92785.11449-.92785.11449-1.8557,0-.92935.12405-.92935.12405-1.8587s-.00149-.92934-.00149-1.85869a.94317.94317,0,0,1,.87559-1.04749c.83814,0,.83814.0338,1.67627.0338s.83814-.0579,1.67627-.0579a.97117.97117,0,0,1,.88335,1.07159c0,.92319.06884.92319.06884,1.84639,0,.92625.111.92625.111,1.85249,0,.92472-.0532.92472-.0532,1.84944,0,.926.08254.926.08254,1.85192,0,.927-.00019.927-.00019,1.854,0,.92569-.02853.92569-.02853,1.85137,0,.92785-.05387.92785-.05387,1.8557,0,.92935-.09986.92935-.09986,1.8587s.12361.92934.12361,1.85869a1.1434,1.1434,0,0,1-1.03372,1.12592c-.83813,0-.83862-.253-1.67675-.24982S929.97048,38.05645,929.13234,38.05645Z"/><path class="cls-2" d="M905.6841,36.96115c-.6118-.00005-1.22151.0708-1.81879.04592-.61106-.02545-1.20342-.25351-1.79866-.30467-.60962-.05239-1.23341.07592-1.82575-.00313-.607-.081-1.17919-.34955-1.76736-.45823-.60219-.11129-1.23489-.057-1.81651-.197-.59508-.14318-1.14865-.42911-1.72135-.60193-.5854-.17664-1.16153-.36221-1.72266-.56943-.57284-.21154-1.18687-.319-1.73346-.562-.55753-.24783-1.08562-.56207-1.61483-.84215-.53893-.28523-.94757-.78371-1.45605-1.10192-.51586-.32282-1.00458-.66007-1.488-1.01633-.48864-.36013-1.02816-.642-1.48248-1.03574-.45774-.39676-.85568-.84884-1.2774-1.27923-.42293-.43163-.8219-.87582-1.20739-1.34076-.38476-.464-.87012-.85274-1.21639-1.34942-.34541-.49552-.6564-.9975-.95434-1.48377-.31549-.51491-.52077-1.07262-.78531-1.57651-.28044-.53416-.55235-1.05-.77826-1.57095-.24029-.55413-.48225-1.088-.66412-1.6263-.19328-.57207-.33775-1.14013-.469-1.69317-.13914-.58638-.36338-1.14565-.43744-1.70929a15.34738,15.34738,0,0,1,.027-1.76582,14.58528,14.58528,0,0,1,.09211-1.74489,14.64629,14.64629,0,0,1,.15139-1.75325,13.579,13.579,0,0,1,.64157-1.63714,14.20945,14.20945,0,0,1,.561-1.66813,13.89824,13.89824,0,0,1,.89844-1.518,14.00632,14.00632,0,0,1,1.05851-1.41557,13.204,13.204,0,0,1,1.44995-1.02084,18.142,18.142,0,0,1,1.50852-1.19,17.75819,17.75819,0,0,1,1.65467-.97795,16.39143,16.39143,0,0,1,1.74237-.80293A15.11358,15.11358,0,0,1,889.2045.387a13.87762,13.87762,0,0,1,3.85558-.35616,15.98193,15.98193,0,0,1,1.798-.00113,17.06608,17.06608,0,0,1,1.73963.45865,17.69838,17.69838,0,0,1,1.79011.26143c.55892.18537,1.0814.507,1.64048.75077.53861.23486,1.03213.579,1.57077.868.51727.27752,1.07017.50955,1.58736.83689.49474.31313.98244.65585,1.477,1.0145.4743.344,1.06159.5667,1.53566.95245.455.3702.817.87359,1.2717,1.28224.43688.39266.77171.90691,1.20826,1.335.42.41185.84838.82417,1.268,1.26877.40385.42791.80976.86306,1.21321,1.32126.38862.44136.79163.8798,1.17983,1.34924.37524.45376.9018.79875,1.27661,1.27871.36313.465.61413,1.02817.97681,1.51773.35189.475.85375.8542,1.20519,1.35226.34054.48263.5865,1.04326.92659,1.54755.33132.49128.53842,1.07351.86928,1.58532.322.49812.849.87577,1.17054,1.39332a1.17876,1.17876,0,0,1,.07714.58925c0,.7861-.02718.7861-.02718,1.5722,0,.78737-.08908.78737-.08908,1.57474s-.05144.78737-.05144,1.57474c0,.42187-.0902.89127-.48766,1.03385a1.26836,1.26836,0,0,1-.371.09224c-.293,0-.53-.294-.72434-.52833-.3761-.45575-.77288-.911-1.17348-1.37356-.38873-.44884-.82009-.8728-1.22958-1.32427-.40051-.44157-.71947-.97014-1.13769-1.4107-.41175-.43375-.98782-.71527-1.41469-1.14469-.42291-.42543-.78744-.9132-1.2232-1.33114-.43424-.41648-.93752-.75962-1.38258-1.16546q-.66886-.60993-1.34914-1.19923c-.45808-.39556-.85912-.85451-1.32421-1.2327-.47089-.38289-1.02092-.6566-1.49693-1.01829-.48446-.36812-.89057-.83158-1.37816-1.17418-.499-.35059-.99208-.6994-1.492-1.01946-.51566-.33015-1.05509-.60484-1.56922-.89834-.53333-.30447-1.02306-.67226-1.55192-.93266-.55343-.2725-1.10715-.528-1.65245-.74695a18.0889,18.0889,0,0,0-1.76336-.42818,14.31229,14.31229,0,0,0-1.74878-.38887,11.82614,11.82614,0,0,0-1.7789-.34952,9.10392,9.10392,0,0,0-2.195.30668,8.33315,8.33315,0,0,0-2.09467.74539,4.85436,4.85436,0,0,0-1.16494,1.2781,5.59984,5.59984,0,0,0-.89318,1.435,7.16251,7.16251,0,0,0-.34011,1.6589,8.12713,8.12713,0,0,0-.22924,1.64428,9.27963,9.27963,0,0,0,.25379,1.6487,10.74771,10.74771,0,0,0,.60561,1.54888,11.95165,11.95165,0,0,0,.7255,1.48982,13.853,13.853,0,0,0,.996,1.32495,14.84948,14.84948,0,0,0,.90588,1.41743c.43318.45325.85964.90434,1.30181,1.31184.461.42487.97172.78135,1.44027,1.159.48778.39314,1.01053.72248,1.504,1.06726.513.35844.96134.80354,1.4776,1.11289.53731.322,1.08113.62809,1.6188.90046.558.28266,1.12722.53635,1.682.7696.57725.24269,1.16789.4408,1.73766.63451.59316.20165,1.2257.23846,1.80621.3921.60746.16077,1.20942.26869,1.79785.38269.619.11991,1.21007.3061,1.802.381.62851.07953,1.24638.05824,1.83721.09506.63749.03972,1.24758.07631,1.83227.07631.60882,0,1.202.092,1.76821.05994.61306-.03476,1.18948-.21353,1.74619-.27661.62085-.07034,1.22828.00047,1.77025-.09236.636-.10894,1.20158-.31213,1.7151-.43194.68732-.16036,1.24013-.38454,1.67654-.51889.09668-.02929.20847.02438.3071.02438a.94881.94881,0,0,1,.57509.1952.975.975,0,0,1,.429.77934c0,.69165.0433.69165.0433,1.3833s.1003.69165.1003,1.3833c0,.4668-.49691.75308-.952.8566-.58387.13351-1.14278.35168-1.72049.46737-.58778.11771-1.14238.39664-1.72318.49583-.59094.10091-1.21153-.01437-1.79461.06729-.59333.08309-1.16991.254-1.75442.31708-.59656.06436-1.19509.04409-1.78174.08751-.59756.04422-1.18294.22234-1.76946.24473-.59895.02287-1.19606.01638-1.78269.01638Z"/><path class="cls-2" d="M880.49562,64.95853a.81208.81208,0,0,1-.48319-.08849c-.22656-.13965-.54469-.26807-.60524-.52686-.22254-.94967-.097-.97908-.31963-1.92874-.22294-.95119-.10291-.97932-.32585-1.93052s-.3735-.9159-.59652-1.86708a.95044.95044,0,0,1,.242-.70937.87367.87367,0,0,1,.5485-.46421c.01172-.002.07047-.13476.08219-.13671.29576-.05315.89923-.17256,1.76052-.36491.5018-.11206,1.10061-.1969,1.76276-.36438.53331-.1349,1.09426-.35946,1.718-.53383.54529-.15245,1.12064-.31916,1.72631-.504.55024-.168,1.13064-.321,1.72431-.51743.55174-.18251,1.15435-.27874,1.73853-.48711.55026-.19628,1.07938-.4961,1.65421-.71641.54845-.2102,1.12631-.38063,1.69348-.61364.54555-.22414,1.04925-.57116,1.6089-.81724.54173-.2382,1.09225-.47252,1.64428-.732.53707-.25248,1.1218-.42155,1.66594-.6949.53158-.267,1.03078-.60856,1.56662-.89616.52525-.28193,1.04164-.58658,1.56864-.88886.518-.29713,1.11546-.46909,1.633-.78647.50967-.31259.94668-.74727,1.45371-1.08.50012-.32823,1.0189-.63258,1.51442-.981.48975-.34435.98836-.68076,1.47167-1.04532.47841-.36087,1.02281-.64448,1.493-1.02564.46594-.37771.92579-.77214,1.3818-1.17026.45174-.39438.90162-.7997,1.34182-1.21457.43681-.41168.78414-.91983,1.20784-1.35213.42015-.42869.91232-.79438,1.31787-1.24379a.81273.81273,0,0,1,.6468-.22876,10.04281,10.04281,0,0,0,1.58076-.29448,12.74639,12.74639,0,0,0,1.48541-.57145c.0518-.01548.04334-.04457.09517-.06.09375-.02735.22762.21812.32234.21812a.82184.82184,0,0,1,.67645.22962.85377.85377,0,0,1,.17489.947,6.0899,6.0899,0,0,1-.59405,1.72375c-.23665.45036-.66139.90944-1.031,1.505-.28942.46624-.66022.942-1.04164,1.48186-.32618.46168-.58414,1.02251-.98383,1.52888-.3559.45088-.84487.82973-1.26336,1.30972-.38125.43728-.6047,1.05479-1.04113,1.51151-.40348.42225-.887.8024-1.34015,1.23757-.42328.40646-.95139.72838-1.42006,1.14311-.44106.3903-.95524.71586-1.43819,1.111-.45713.374-.83752.86732-1.33361,1.24353-.4717.35771-.95816.721-1.46633,1.07894-.48388.34081-1.01643.63361-1.53444.97305-.496.325-1.03552.601-1.5637.92332-.507.30943-.995.671-1.53252.97684-.51709.29419-.97616.72057-1.5222,1.01034-.52633.27931-1.16667.361-1.72056.63528-.53481.26479-1.00294.69294-1.564.95214-.54256.25064-1.13652.41344-1.70418.65808-.54853.23639-1.15683.34984-1.72928.57992-.55429.22279-1.11923.43482-1.69639.651-.55993.20977-1.06495.59464-1.64678.79766-.56544.1973-1.14334.38808-1.72984.57847-.57035.18515-1.15308.36207-1.74368.54019-.57378.17306-1.14715.38107-1.74035.54705-.57875.16193-1.221.11672-1.81857.2715-.5822.15081-1.13054.4661-1.73082.60973C880.66037,65.11443,880.57375,64.95853,880.49562,64.95853Z"/><path class="cls-2" d="M945.44875,35.97486c-.66226,0-1.30136-.13417-1.922-.15618-.66649-.02363-1.31675.11564-1.93024.072-.67413-.04792-1.2993-.27617-1.9029-.3411-.685-.07368-1.33722-.0302-1.922-.11556-.71093-.10378-1.35788-.14681-1.90429-.25006a1.18537,1.18537,0,0,1-.89382-1.08256c0-1.32324.06307-1.32324.06307-2.64649a1.00138,1.00138,0,0,1,.42214-.73651.896.896,0,0,1,.613-.19129c.06055,0,.11805-.04978.1786-.039.61264.11317,1.22307.22435,1.83215.3102.618.08711,1.23848.12261,1.85075.18136.62092.05959,1.243.00144,1.85595.03161.62356.0307,1.23689.01492,1.84994.01492.59989,0,1.19489.13627,1.78426.10777.599-.029,1.19846-.01639,1.78642-.07475.59606-.05917,1.19252-.11555,1.77706-.20485.59127-.09034,1.19128-.1477,1.77058-.2688.58455-.12221,1.14894-.34092,1.72112-.49439.5759-.15447,1.15823-.29531,1.7214-.48138.56533-.18679,1.0557-.57549,1.608-.79406.55271-.21871,1.08451-.46826,1.624-.71873.53831-.24993,1.11394-.41717,1.63888-.69864.52242-.28012,1.008-.62213,1.517-.93342.5047-.30868,1.03077-.584,1.52207-.92324.48669-.33607.99285-.651,1.46622-1.017.46739-.3614.96617-.69469,1.4204-1.08521a16.57666,16.57666,0,0,0,1.19425-1.16235,14.74963,14.74963,0,0,0,1.105-1.24821,11.991,11.991,0,0,0,.77429-1.47569,10.37688,10.37688,0,0,0,.74575-1.47462,8.36733,8.36733,0,0,0,.34658-1.60984,7.10549,7.10549,0,0,0,.086-1.6337,6.09956,6.09956,0,0,0-.28918-1.7046,5.26518,5.26518,0,0,0-.949-1.43636,5.14621,5.14621,0,0,0-1.29924-1.08685,14.094,14.094,0,0,0-1.55234-.86767,13.469,13.469,0,0,0-1.59413-.84636,12.14867,12.14867,0,0,0-1.7723-.32723,11.875,11.875,0,0,0-1.78973-.0981,12.58933,12.58933,0,0,0-1.75018.20962,14.11045,14.11045,0,0,0-1.72747.32951,16.57315,16.57315,0,0,0-1.65626.59539c-.54535.21105-1.08694.4195-1.62221.68413-.52455.25934-1.04143.52933-1.55446.8335-.50426.299-1.05052.53567-1.5419.87167-.485.33164-1.00307.627-1.47383.98868-.46744.35912-.80907.87535-1.26083,1.25819-.45128.38244-.90757.75278-1.34158,1.153-.43644.4025-.87646.79417-1.29378,1.20876-.42287.42009-.97882.70607-1.38034,1.13242-.41078.43618-.81966.87008-1.20627,1.30625-.40064.452-.659,1.0147-1.03171,1.45944-.39036.46585-.8464.85935-1.20377,1.309-.3821.48072-.76544.93589-1.107,1.388-.37666.49854-.60589,1.06667-.92961,1.51721-.37526.52226-.88805.88674-1.18656,1.32435a.80218.80218,0,0,1-.70584.43516.84468.84468,0,0,1-.27426-.02863.86827.86827,0,0,1-.64472-.888c0-.7596.02154-.7596.02154-1.5192,0-.76083-.05455-.76083-.05455-1.52165s.05743-.76083.05743-1.52165c0-.1543-.0826-.31324-.01424-.45191.27407-.55118.58532-1.07671.87191-1.60843.29212-.542.51136-1.11923.816-1.64055.31063-.53166.63274-1.05227.95578-1.562.32961-.52013.63976-1.04954.98167-1.54638.34908-.50724.68042-1.02516,1.04167-1.50762.369-.49282.90718-.84669,1.28821-1.31312.38971-.47706.67787-1.03209,1.07941-1.481.41086-.45928.79946-.936,1.22192-1.36522.43278-.43965,1.00844-.72237,1.45255-1.12974.45457-.417.79494-.95547,1.26046-1.33792.47636-.39135,1.06055-.63359,1.5474-.988.49793-.36251.94537-.78514,1.45324-1.10824.51941-.33042,1.04225-.64681,1.57094-.93514.54-.29453,1.136-.46016,1.68458-.70983.5595-.25466,1.05525-.653,1.62232-.86.576-.21026,1.1922-.29261,1.77468-.45267.59014-.16216,1.172-.354,1.7674-.46359.60032-.11046,1.218-.07538,1.82227-.13125.60608-.056,1.207-.04,1.81558-.04.571,0,1.15-.2245,1.71128-.17263.56736.05242,1.13224.1822,1.68729.2868.55864.10526,1.12881.20149,1.67252.35876.54484.15761,1.07793.38173,1.60529.59071.52605.20847,1.079.38854,1.58515.64729.50281.257,1.002.55345,1.48273.85925.4755.30246.87019.73872,1.32177,1.0881a15.24631,15.24631,0,0,1,1.30736,1.20711,14.03561,14.03561,0,0,1,1.25831,1.26074,12.53171,12.53171,0,0,1,.976,1.49177,11.7358,11.7358,0,0,1,.76187,1.6076,11.41918,11.41918,0,0,1,.43471,1.71871,11.67649,11.67649,0,0,1,.4004,1.73632,12.861,12.861,0,0,1-.03542,1.89533,14.65955,14.65955,0,0,1-.32317,1.86356,16.629,16.629,0,0,1-.59384,1.7904,17.96632,17.96632,0,0,1-.5858,1.79649c-.25882.56494-.51194,1.14877-.83211,1.70246-.31152.53873-.62426,1.09615-.99147,1.61864-.35849.51009-.832.947-1.24134,1.43645-.40053.47887-.87478.89582-1.32191,1.35-.42013.4269-.80245.87976-1.24028,1.27031-.44622.398-.79537.91054-1.25782,1.2724-.47032.368-1.02927.61643-1.5141.94867-.49224.33732-.99913.646-1.504.94817-.51165.30626-1.01919.61486-1.5413.88684-.52888.2755-1.04522.5761-1.58227.81831-.5435.24511-1.09255.47945-1.64175.69241-.55593.21556-1.13825.35474-1.69725.53936-.56632.187-1.17483.21234-1.74143.36973-.57514.15976-1.08506.55821-1.65749.68961-.58324.13388-1.17358.23235-1.75084.3391-.58943.109-1.19841.06908-1.77823.15225-.594.0852-1.17745.18733-1.75771.24806q-.89962.09417-1.77205.15306c-.60213.041-1.18908.1862-1.7668.20546C946.61815,36.04831,946.023,35.97486,945.44875,35.97486Z"/><path class="cls-2" d="M973.68354,64.91875c-.603-.04215-1.20855-.00174-1.79457-.06149-.6014-.06132-1.17976-.27122-1.76343-.35026-.599-.08111-1.17922-.22754-1.75976-.32642-.59577-.10146-1.21822-.02683-1.7948-.146-.59168-.12232-1.18022-.246-1.752-.386-.58671-.14362-1.14209-.38911-1.70807-.55016-.58078-.16526-1.16475-.30233-1.724-.48472-.57388-.18716-1.08179-.54091-1.63335-.74478-.566-.20922-1.17306-.29175-1.71591-.51714-.55751-.23148-1.0808-.52512-1.61427-.77211-.54832-.25387-1.04022-.6016-1.56355-.87018-.53786-.276-1.14741-.40222-1.65934-.692-.52637-.29793-1.05159-.58958-1.551-.9-.51394-.31946-.88771-.83815-1.37368-1.1687-.50079-.34064-1.02457-.62727-1.49624-.97734-.48659-.36114-1.04415-.61634-1.50041-.98493-.47166-.381-.89811-.80394-1.33806-1.19007-.45608-.40029-.83522-.86791-1.258-1.2705q-.66056-.629-1.26812-1.25443c-.42461-.43835-.90908-.802-1.296-1.235-.40813-.45675-.83744-.878-1.20486-1.324-.39273-.47677-.755-.95736-1.10272-1.41606-.37515-.49494-.58219-1.08151-.9067-1.54811-.36029-.51805-.8109-.93567-1.11122-1.40892-.34553-.5445-.65991-1.055-.92973-1.52546-.339-.59112-.51166-1.17676-.73817-1.62284-.49849-.98173-.75205-1.562-.76594-1.59829a.93867.93867,0,0,1,.20761-1.00464,1.09314,1.09314,0,0,1,.70088-.439,1.24183,1.24183,0,0,1,.33484.01384,10.39836,10.39836,0,0,0,1.52608.53067c.52592.08668,1.09453-.03608,1.62131-.00307a1.18049,1.18049,0,0,1,.79912.58349c.32258.5073.68916.98162,1.043,1.46875.35274.48557.74861.93293,1.13211,1.39827.38111.46246.70687.9717,1.118,1.414.40746.43835.7912.90546,1.22782,1.32388.43164.41364.92253.76815,1.38234,1.16214.45346.38855.96189.71121,1.44245,1.0805.473.36351.94152.73433,1.4405,1.079.49019.33863.899.81225,1.41393,1.13259.50555.31449,1.02624.62333,1.55538.92007.51908.29109,1.11652.45034,1.65806.72422.531.26853,1.108.44715,1.66036.699.54141.24688,1.08592.48991,1.64761.72068.55052.22618,1.05077.594,1.62057.80463.5585.20641,1.13522.38211,1.712.57345.56533.18752,1.15283.32389,1.73558.49684.571.16947,1.14215.35884,1.7297.51422.57562.15224,1.1713.2451,1.76263.38374.57985.136,1.16238.28086,1.75717.40366.58375.12052,1.14451.3958,1.74252.50359.58715.10583,1.22224-.03991,1.823.05357.58914.09168,1.17206.25132,1.77416.33106.59216.07843,1.17361.29394,1.77817.36076.59394.06564,1.20173.05829,1.80751.11267.32129.0293.48353.26446.64661.54278.16407.2793.35034.56293.21851.85786-.3328.74325-.3194.74925-.65229,1.49247-.33367.745-.33786.74307-.67153,1.488-.3342.74615-.50081.67153-.835,1.41768s-.2868.76737-.62109,1.51349a.95848.95848,0,0,1-.84293.64347C973.7339,64.89121,973.707,64.91972,973.68354,64.91875Z"/><path class="cls-2" d="M1.0923,32.89083a.8131.8131,0,0,1-.89549-.8724c0-.80811-.16592-.80811-.16592-1.61622,0-.81.07256-.81.07256-1.62,0-.81131-.03021-.81131-.03021-1.62261S0,26.34829,0,25.537a1.02209,1.02209,0,0,1,1.0923-.92513c.89937,0,.89937.05584,1.79873.05584s.89938-.108,1.79876-.108.89939-.0307,1.79878-.0307.8994-.13986,1.7988-.13986.89942.25335,1.79884.25335.89944-.2,1.79887-.2.89946.03867,1.79892.03867.89948.028,1.799.028.8995-.09443,1.799-.09443.89953.223,1.79906.223.89955.0029,1.79911.0029.89958-.07128,1.79917-.07128.89962.10076,1.79923.10076.89965-.10633,1.7993-.10633.89969-.09142,1.79938-.09142.89972.137,1.79944.137.89977-.17948,1.79953-.17948.8998.2501,1.79961.2501.89985-.25059,1.79969-.25059.8999.0575,1.79979.0575.89994-.07152,1.79988-.07152.9.02013,1.8.02013.9.14671,1.80008.14671.9001.01572,1.8002.01572.90015-.01068,1.8003-.01068.90021.02769,1.80042.02769.90027-.07105,1.80054-.07105.90034-.13644,1.80067-.13644.9004.10593,1.80079.10593.90047-.04277,1.80093-.04277.90053.09827,1.80106.09827.90059-.16267,1.80118-.16267.90052.16186,1.801.16186.90046.01449,1.80092.01449.9004-.02908,1.8008-.02908.90034.10552,1.80068.10552.90028-.04318,1.80057-.04318.90023.02078,1.80046.02078.90017-.22039,1.80035-.22039.90013.24392,1.80026.24392.90008-.17726,1.80016-.17726.9.17834,1.80007.17834.9.025,1.8.025.9-.12432,1.7999-.12432.89991.10757,1.79982.10757.89988-.05567,1.79975-.05567.89985-.136,1.79969-.136.89981-.08637,1.79962-.08637.89978.01476,1.79956.01476.89975.15089,1.7995.15089.89973.1222,1.79946.1222.8997-.05762,1.79941-.05762.89969-.11436,1.79937-.11436.89967.00883,1.79934.00883.89965.0178,1.7993.0178.89964-.12209,1.79928-.12209.89963.21228,1.79926.21228.89962-.16768,1.79924-.16768.89961.08542,1.79923.08542.89961-.058,1.79922-.058.89961-.03184,1.79922-.03184.89961.22236,1.79922.22236.89962-.21409,1.79923-.21409.89962.18868,1.79925.18868.89963-.15533,1.79926-.15533.89964.146,1.79928.146.89966-.1092,1.79931-.1092.89968-.07883,1.79935-.07883.89969.08017,1.79938.08017.89972-.05025,1.79943-.05025.89974-.07172,1.79947-.07172.89977.03546,1.79953.03546.89979-.03019,1.79959-.03019.89982.04324,1.79965.04324.89986.17852,1.79972.17852.89989-.07085,1.79979-.07085.89993-.15683,1.79987-.15683.9.09235,1.8.09235.9.00553,1.8.00553.90007.11262,1.80014.11262.90013-.00255,1.80025-.00255.90017-.04222,1.80035-.04222.90022-.08641,1.80045-.08641.90029.05979,1.80058.05979.90035.07357,1.8007.07357.90041.0176,1.80083.0176.90048.01493,1.801.01493.90055-.26344,1.8011-.26344.90062.26273,1.80124.26273.90068.01071,1.80136.01071.90062-.103,1.80123-.103.90055.04382,1.80109.04382.90048.031,1.801.031.90042.0389,1.80084.0389.90036-.22369,1.80073-.22369.9003.11291,1.80061.11291.90026-.0505,1.80051-.0505.90021.16507,1.80042.16507.90016-.17347,1.80032-.17347.90011-.109,1.80023-.109c.89709,0,.89709.217,1.79419.217s.89714-.15495,1.79428-.15495.89719-.03182,1.79438-.03182.89725.25367,1.7945.25367.8973-.03613,1.79461-.03613.89736-.06953,1.79473-.06953.89742.00774,1.79485.00774.8975.08239,1.795.08239.89757-.07687,1.79514-.07687.89763.0802,1.79527.0802.89772.01339,1.79543.01339.8978-.0556,1.79559-.0556.89788-.0424,1.79575-.0424.898.01792,1.79593.01792.89805-.08511,1.7961-.08511.89814.1124,1.79628.1124.89824.02964,1.79648.02964.89834-.12668,1.79667-.12668.89844.01531,1.79688.01531.89854-.13851,1.79709-.13851.89865.00153,1.7973.00153.89876.24437,1.79753.24437.89888-.09812,1.79776-.09812.899-.1189,1.798-.1189.89912-.04617,1.79824-.04617.89924.21807,1.79849.21807.89937-.1564,1.79874-.1564.89951.03924,1.799.03924.89964.00906,1.79928.00906.89978-.01252,1.79956-.01252.89992.06315,1.79985.06315.90006.03641,1.80013.03641.90022-.15149,1.80044-.15149c.90037,0,.90037.00228,1.80074.00228s.90052.17028,1.80105.17028c.90069,0,.90069-.01288,1.80138-.01288.90085,0,.90085-.09049,1.8017-.09049s.90083-.00969,1.80166-.00969.90069.1447,1.80138.1447.90055-.23388,1.8011-.23388.90041.25046,1.80082.25046.90028-.01212,1.80056-.01212.90016-.2445,1.80031-.2445.9.15694,1.8.15694.89991-.02836,1.79982-.02836.89979.116,1.79958.116.89968-.09506,1.79935-.09506.89957-.15968,1.79914-.15968.89946.07874,1.79892.07874.89936.04035,1.79872.04035.89927.08373,1.79853.08373.89917-.04,1.79834-.04.89908.077,1.79816.077.899-.04765,1.798-.04765.89891-.07426,1.79782-.07426.89884.10337,1.79767.10337.89877-.11668,1.79753-.11668.89869.10861,1.79738.10861.89863-.05061,1.79725-.05061.89857-.16565,1.79714-.16565.8985.04356,1.797.04356.89846.16673,1.79691.16673.89841-.1268,1.79682-.1268.89836.11626,1.79672.11626.89833-.15667,1.79665-.15667.89829.15457,1.79657.15457.89826.09306,1.79651.09306.89823-.13809,1.79646-.13809.89821.09881,1.79641.09881.89819-.18942,1.79638-.18942.89817.20876,1.79634.20876.89817-.05134,1.79633-.05134.89816.01567,1.79632.01567.89816-.06716,1.79631-.06716.89817-.11275,1.79633-.11275.89817.03568,1.79634.03568.89818.00354,1.79637.00354.8982.07414,1.7964.07414.89823-.15,1.79645-.15.89826.2212,1.79651.2212.89828-.1667,1.79657-.1667.89832.12054,1.79664.12054.89836-.12761,1.79672-.12761.89841.077,1.79682.077.89846.12505,1.79692.12505.89851-.20881,1.797-.20881.89858-.01824,1.79715-.01824.89865.19762,1.79729.19762.89871-.14623,1.79743-.14623.89879-.00324,1.79758-.00324.89887-.05721,1.79774-.05721.899.00247,1.79791.00247.89905.26072,1.7981.26072.89914-.20629,1.79828-.20629.89925-.08323,1.79849-.08323.89936.227,1.79871.227.89946.05761,1.79893.05761.89958-.22752,1.79916-.22752.8997.08256,1.79941.08256.89983-.05842,1.79966-.05842.9.11139,1.79993.11139.9001-.08347,1.80021-.08347.90025.00691,1.80049.00691c.9004,0,.9004.13573,1.8008.13573.90055,0,.90055-.20319,1.8011-.20319.90072,0,.90072.07011,1.80143.07011.90088,0,.90088.05148,1.80176.05148.901,0,.901.10358,1.80211.10358.90123,0,.90123-.09525,1.80246-.09525s.90135.05206,1.80271.05206c.90119,0,.90119-.096,1.80238-.096s.901-.12984,1.80207-.12984.90089-.00678,1.80178-.00678c.90074,0,.90074.05322,1.80148.05322s.90061.12108,1.80121.12108.90047-.00536,1.801-.00536.90034-.03107,1.80069-.03107.90023.155,1.80045.155.90012-.02937,1.80023-.02937.9-.01167,1.8-.01167.8999-.213,1.7998-.213.89981.20625,1.79962.20625.89972-.13956,1.79944-.13956.89964.18525,1.79928.18525.89956-.14424,1.79912-.14424.89949.09685,1.799.09685.89943-.15859,1.79886-.15859.89937.20236,1.79875.20236.89932-.065,1.79864-.065.89928-.13585,1.79856-.13585.89925.07224,1.79849.07224.89922.02724,1.79843.02724.89919.01431,1.79838.01431.89918-.029,1.79836-.029.89916-.16645,1.79833-.16645.89917.17062,1.79833.17062.89917.05941,1.79834.05941.89919-.00787,1.79837-.00787.8992-.22143,1.7984-.22143.89923.02106,1.79846.02106.89927.01428,1.79853.01428.8993.24691,1.79861.24691.89935-.19194,1.79871-.19194.89941.13987,1.79882.13987.89947-.05412,1.79894-.05412.89955-.18473,1.7991-.18473.89962.257,1.79924.257.89971-.16711,1.79943-.16711.8998-.08046,1.79961-.08046.89991.27518,1.79981.27518.9-.01947,1.8-.01947.90014-.06244,1.80027-.06244.90027.09221,1.80053.09221.9004-.1017,1.80079-.1017c.90054,0,.90054-.07354,1.80108-.07354.90069,0,.90069.06193,1.80138.06193.90085,0,.90085.01138,1.8017.01138.901,0,.901-.05794,1.802-.05794.90119,0,.90119.08217,1.80239.08217.90137,0,.90137-.08612,1.80275-.08612.90157,0,.90157.00668,1.80314.00668s.90166-.02483,1.80332-.02483c.90148,0,.90148.18312,1.803.18312.90131,0,.90131-.04256,1.80262-.04256s.90116-.23784,1.80231-.23784.901.27422,1.802.27422.90087-.12936,1.80173-.12936.90073-.066,1.80146-.066.90061-.04351,1.80122-.04351.9005.22889,1.801.22889.90039-.01359,1.80078-.01359.9003-.2139,1.8006-.2139.90021-.04144,1.80043-.04144.90014-.00667,1.80028-.00667.90007.09114,1.80014.09114.9.02043,1.8.02043.9.16621,1.8.16621.89994-.279,1.79988-.279.89991.195,1.79982.195.8999.04907,1.7998.04907.8999-.12484,1.79979-.12484.8999.02088,1.7998.02088.89992-.01283,1.79984-.01283.89995-.05522,1.79989-.05522.9.16626,1.8.16626.9-.22837,1.80006-.22837.9001.25247,1.80019.25247.90016-.05081,1.80033-.05081.90024-.00219,1.80049-.00219.90034.03277,1.80068.03277.90044-.2384,1.80089-.2384.90056.1704,1.80112.1704.90069.09127,1.80138.09127.90083-.01133,1.80167-.01133.901-.17633,1.802-.17633c.90115,0,.90115.20827,1.80229.20827.90133,0,.90133-.203,1.80265-.203.90151,0,.90151-.036,1.803-.036.90171,0,.90171.18761,1.80343.18761.90192,0,.90192-.05569,1.80385-.05569s.90178.02856,1.80357.02856c.9016,0,.9016-.15213,1.8032-.15213.90143,0,.90143-.01965,1.80286-.01965.90128,0,.90128.03414,1.80255.03414.90112,0,.90112.15157,1.80225.15157s.901-.13646,1.802-.13646.90088-.03053,1.80176-.03053.90077.03949,1.80154.03949.90069.1166,1.80137.1166.90061-.1776,1.80121-.1776.90055.03714,1.80109.03714.9005-.06206,1.801-.06206.90047.2217,1.80093.2217.90044-.10136,1.80089-.10136.90044.15367,1.80088.15367.90045-.053,1.8009-.053.90048-.10663,1.80095-.10663.90052-.03749,1.801-.03749.90058-.06244,1.80116-.06244.90065.20125,1.8013.20125.90073-.12724,1.80147-.12724.90084-.09012,1.80169-.09012.901-.01021,1.80193-.01021.9011.0183,1.8022.0183c.90126,0,.90126.19493,1.80251.19493.90143,0,.90143-.17478,1.80286-.17478.90161,0,.90161.08993,1.80323.08993.90182,0,.90182.09328,1.80364.09328.90205,0,.90205-.15146,1.80409-.15146s.902.01573,1.804.01573c.90181,0,.90181.14136,1.80362.14136.90163,0,.90163-.14283,1.80326-.14283.90147,0,.90147.10368,1.80293.10368s.90133.05406,1.80265.05406.9012-.14674,1.8024-.14674.90109-.06188,1.80218-.06188.901-.00524,1.802-.00524.90094.16719,1.80187.16719.90089.04688,1.80178.04688.90087-.13779,1.80173-.13779.90086.04694,1.80172.04694.90087-.09132,1.80174-.09132.90091.07333,1.80182.07333.901.03185,1.80193.03185.901.03246,1.80209.03246.90114-.14753,1.80229-.14753.90127.23078,1.80253.23078c.90142,0,.90142-.08117,1.80283-.08117.90158,0,.90158-.05465,1.80317-.05465.90177,0,.90177.04463,1.80355.04463.902,0,.902.0684,1.804.0684.90223,0,.90223.00976,1.80446.00976s.9021-.11855,1.80421-.11855c.90189,0,.90189.05183,1.80379.05183.90172,0,.90172-.03573,1.80343-.03573s.90157.04148,1.80313.04148.90143-.0887,1.80286-.0887.90134.04295,1.80267.04295.90125-.13466,1.80251-.13466.9012.16357,1.80241.16357.90118-.16624,1.80237-.16624.90119.2421,1.80238.2421.90123-.12366,1.80246-.12366.90129-.03411,1.80258-.03411.90138-.10266,1.80277-.10266.9015.28994,1.803.28994.90166-.11446,1.80332-.11446c.90185,0,.90185-.0915,1.80369-.0915.90206,0,.90206-.02289,1.80412-.02289.9023,0,.9023.0514,1.80461.0514s.90223-.08531,1.80446-.08531c.902,0,.902.09121,1.804.09121.90184,0,.90184.09464,1.80367.09464s.90168-.19323,1.80337-.19323.90157.18074,1.80314.18074.9015.00065,1.803.00065.90145.06827,1.8029.06827.90145-.13607,1.8029-.13607.90148.15665,1.803.15665.90155-.12785,1.8031-.12785.90165-.01853,1.80331-.01853.90181-.07075,1.80361-.07075c.902,0,.902.11907,1.804.11907.8988,0,.8988-.196,1.7976-.196s.89884.15657,1.79768.15657.89891.07453,1.79783.07453.899-.02989,1.79808-.02989c.89921,0,.89921-.03869,1.79841-.03869.89942,0,.89942-.07844,1.79884-.07844.89968,0,.89968.03746,1.79936.03746.9,0,.9.021,1.8.021.90034,0,.90034.10768,1.80068.10768.90074,0,.90074-.14273,1.80149-.14273.90119,0,.90119-.10659,1.80239-.10659.9017,0,.9017.02451,1.8034.02451.90226,0,.90226.00122,1.80452.00122.90282,0,.90282.2126,1.80564.2126.90229,0,.90229.03547,1.80458.03547.90182,0,.90182-.055,1.80363-.055.90141,0,.90141-.20678,1.80281-.20678.90105,0,.90105.17509,1.80209.17509.90075,0,.90075-.0991,1.8015-.0991.90052,0,.90052-.04829,1.801-.04829.90034,0,.90034.1666,1.80069.1666s.90024-.01538,1.80048-.01538.9002-.019,1.8004-.019.90022.12415,1.80045.12415.90032-.14838,1.80065-.14838c.90049,0,.90049.07751,1.801.07751.90073,0,.90073-.048,1.80147-.048.901,0,.901.057,1.80209.057.90145,0,.90145-.14346,1.80289-.14346.90191,0,.90191.1485,1.80383.1485.90246,0,.90246-.13492,1.80493-.13492.9031,0,.9031.05121,1.80621.05121.90284,0,.90284.05059,1.80569.05059.90233,0,.90233-.18164,1.80466-.18164.90191,0,.90191.23137,1.80381.23137.90158,0,.90158-.12012,1.80315-.12012.90135,0,.90135.13669,1.80269.13669s.90121-.10565,1.80241-.10565.90118-.15815,1.80235-.15815.90125.11523,1.8025.11523c.90142,0,.90142-.04828,1.80285-.04828.90172,0,.90172.21118,1.80344.21118.90213,0,.90213-.24253,1.80426-.24253.90266,0,.90266.2053,1.80532.2053.90331,0,.90331.03142,1.80662.03142s.9032-.06,1.80639-.06c.90266,0,.90266.00815,1.80532.00815.90226,0,.90226-.21289,1.80451-.21289.902,0,.902.07775,1.804.07775s.90188-.04737,1.80376-.04737.90192.13783,1.80384.13783c.90212,0,.90212-.17577,1.80424-.17577.90247,0,.90247.16606,1.80495.16606.903,0,.903-.07074,1.806-.07074.90372,0,.90372.0332,1.80745.0332.90324,0,.90324.15578,1.80647.15578.90276,0,.90276-.07038,1.80551-.07038.90247,0,.90247-.004,1.80495-.004s.9024-.12661,1.8048-.12661c.90255,0,.90255-.05508,1.8051-.05508.90293,0,.90293.259,1.80585.259.90355,0,.90355-.11928,1.8071-.11928s.90366-.16165,1.80732-.16165c.9031,0,.9031.014,1.8062.014.90283,0,.90283.05376,1.80565.05376s.90285-.02546,1.80569-.02546c.90318,0,.90318.21331,1.80635.21331.90383,0,.90383-.2464,1.80766-.2464.90363,0,.90363.064,1.80727.064.90319,0,.90319-.01417,1.80638-.01417s.90314.12674,1.80627.12674c.9035,0,.9035-.10585,1.807-.10585.90418,0,.90418.05926,1.80836.05926.90262,0,.90262-.12494,1.80524-.12494.9016,0,.9016.05959,1.80321.05959.90113,0,.90113-.07441,1.80226-.07441s.90124.16227,1.80247.16227c.902,0,.902-.04252,1.80392-.04252.90335,0,.90335.063,1.8067.063.90432,0,.90432-.04534,1.80863-.04534.90294,0,.90294.085,1.80587.085.90243,0,.90243-.23878,1.80485-.23878.90285,0,.90285.02187,1.80571.02187.90431,0,.90431-.01393,1.80862-.01393.90414,0,.90414.2047,1.80828.2047.90334,0,.90334.02848,1.80669.02848.904,0,.904-.09722,1.80793-.09722.905,0,.905.11539,1.81.11539.904,0,.904.01695,1.808.01695.905,0,.905-.053,1.8101-.053.90455,0,.90455.022,1.80909.022.9054,0,.9054.02119,1.8108.02119.90485,0,.90485.004,1.8097.004.90264,0,.90264-.00009,1.80528-.00009.90563,0,.90563-.12719,1.81126-.12719.90414,0,.90414.0439,1.80828.0439.90534,0,.90534.05522,1.81069.05522.90637,0,.90637-.17971,1.81274-.17971.90508,0,.90508.04874,1.81016.04874.9072,0,.9072.13889,1.81439.13889.90866,0,.90866-.12288,1.81732-.12288s.90866-.06037,1.81732-.06037a1.06616,1.06616,0,0,1,.90339.69864,10.52982,10.52982,0,0,0,1.09908,1.65282c.36825.51913.611,1.19793,1.05044,1.71058.44961.52458,1.05311.9037,1.49345,1.34139a15.399,15.399,0,0,0,1.40276,1.429c.36523.24609.69045.6318.56155,1.0527-.12793.4209-.61321.54253-1.05266.54253-.89941,0-.89941.16934-1.79882.16934s-.89941-.09237-1.79883-.09237-.89942.022-1.79884.022-.89943-.07547-1.79886-.07547-.89944.06017-1.79888.06017-.89945-.05019-1.79891-.05019-.89946.12147-1.79893.12147-.89948-.13515-1.799-.13515-.8995.03033-1.799.03033-.89952.13345-1.799.13345-.89954-.03023-1.79908-.03023-.89956.06654-1.79913.06654-.89959.05848-1.79918.05848-.89962-.22938-1.79924-.22938-.89965.226-1.7993.226-.89968-.15367-1.79936-.15367-.89971-.01534-1.79943-.01534-.89975-.02968-1.7995-.02968-.89978-.06519-1.79957-.06519-.89983.26585-1.79965.26585-.89987-.23838-1.79974-.23838-.89991.19642-1.79982.19642-.9.02926-1.79992.02926-.9-.04747-1.8-.04747-.9.01309-1.8001.01309-.90011-.2079-1.80022-.2079-.90016.07248-1.80032.07248-.90021-.00659-1.80043-.00659-.90027.01138-1.80055.01138-.90033-.06664-1.80067-.06664-.90039.05-1.80079.05-.90046.16361-1.80092.16361-.90052-.21255-1.80105-.21255-.9006-.02636-1.80119-.02636-.90065.12487-1.80131.12487-.90058-.04707-1.80117-.04707-.90052.18509-1.80105.18509-.90046-.15743-1.80092-.15743-.90041-.03045-1.80081-.03045-.90035.15243-1.8007.15243-.90029-.22772-1.80058-.22772-.90024.06109-1.80048.06109-.9002.185-1.80039.185-.90014-.13645-1.80028-.13645-.9001.12222-1.8002.12222-.9-.06461-1.80011-.06461-.9-.07891-1.8-.07891-.9-.00741-1.79995-.00741-.89994.07621-1.79988.07621-.8999-.10768-1.79981-.10768-.89987.11059-1.79974.11059-.89984-.00729-1.79969-.00729-.89981.101-1.79963.101-.89979-.18127-1.79958-.18127-.89977.12823-1.79954.12823-.89975-.18388-1.7995-.18388-.89973.05364-1.79946.05364-.89972-.03286-1.79943-.03286-.8997-.01145-1.79941-.01145-.89969.139-1.79938.139-.89968.065-1.79937.065-.89968-.10965-1.79935-.10965-.89968.09443-1.79935.09443-.89968-.07873-1.79935-.07873-.89967-.14365-1.79935-.14365-.89968.16758-1.79936.16758-.89968-.15129-1.79937-.15129-.89969.26475-1.79939.26475-.8997-.10046-1.79941-.10046-.89972-.01578-1.79944-.01578-.89973.04191-1.79947.04191-.89975-.16959-1.79951-.16959-.89978.03493-1.79955.03493-.8998.12834-1.7996.12834-.89983-.17207-1.79966-.17207-.89985.07925-1.79971.07925-.89989.15837-1.79978.15837-.89992-.03422-1.79984-.03422-.9-.19925-1.79992-.19925-.9.19776-1.8.19776-.9-.20957-1.80008-.20957-.90009.057-1.80018.057-.90013.18428-1.80026.18428-.90019-.02878-1.80037-.02878-.90024-.0598-1.80048-.0598-.90029-.12272-1.80058-.12272-.90036-.052-1.80071-.052-.90041.06722-1.80082.06722-.90048.17593-1.801.17593-.90054-.09577-1.80108-.09577-.90062-.039-1.80123-.039-.90068-.00827-1.80137-.00827-.90075.01533-1.80149.01533-.90068-.06688-1.80135-.06688-.90061.09664-1.80122.09664-.90055-.01973-1.80109-.01973-.90049-.052-1.801-.052-.90043.18447-1.80086.18447-.90037.0006-1.80074.0006-.90032-.113-1.80064-.113-.90027.10212-1.80054.10212-.90022-.23493-1.80045-.23493-.90018.03471-1.80036.03471c-.89715,0-.89715.13366-1.79431.13366s-.8972-.03158-1.79441-.03158-.89725-.05422-1.79451-.05422-.89731.109-1.79462.109-.89736-.11869-1.79473-.11869-.89743.19357-1.79486.19357-.89749-.08227-1.795-.08227-.89756-.18562-1.79512-.18562-.89763.18729-1.79526.18729-.8977-.04441-1.7954-.04441-.89778-.00951-1.79556-.00951-.89785-.03073-1.79571-.03073-.89794.10965-1.79588.10965-.898-.06608-1.79605-.06608-.89812-.10633-1.79623-.10633-.89821-.009-1.79641-.009-.8983.122-1.7966.122-.8984-.11375-1.7968-.11375-.89851-.05467-1.797-.05467-.8986.20628-1.79721.20628-.89872-.09938-1.79743-.09938-.89883-.05479-1.79766-.05479-.89894-.05111-1.79788-.05111-.89906.21213-1.79812.21213-.89918.04732-1.79837.04733-.8993-.25315-1.79861-.25315-.89944.28184-1.79887.28184-.89957.00017-1.79914.00017-.8997-.09072-1.79941-.09072-.89984.00381-1.79968.00381c-.9,0-.9.038-1.8.038-.90014,0-.90014-.24336-1.80027-.24336-.90028,0-.90028.15954-1.80056.15954-.90043,0-.90043.03532-1.80087.03532s-.90059-.0134-1.80118-.0134c-.90075,0-.90075-.04925-1.8015-.04925-.90091,0-.90091-.10009-1.80183-.10009s-.90089.067-1.80179.067c-.90075,0-.90075.10973-1.8015.10973s-.90061.02377-1.80123.02377-.90047-.05084-1.80095-.05084-.90034.01242-1.80069.01242-.90021.08168-1.80043.08168-.90009-.00855-1.80018-.00855-.9-.02121-1.79994-.02121-.89986-.05053-1.79971-.05053-.89974-.048-1.79948-.048-.89963-.02782-1.79926-.02782-.89953-.04106-1.79905-.04106-.89943.00349-1.79885.00349-.89933.0948-1.79865.0948-.89924-.14659-1.79847-.14659-.89914.17708-1.79829.17708-.899.05008-1.79811.05008-.899-.21266-1.798-.21266-.8989.109-1.7978.109-.89883.09167-1.79765.09167-.89876-.05008-1.79751-.05008-.89869.07968-1.79738.07968-.89863-.02044-1.79726-.02044-.89857-.11638-1.79714-.11638-.89852.12816-1.797.12816-.89847-.18166-1.79694-.18166-.89843.02891-1.79685.02891-.89839.16791-1.79677.16791-.89835-.08927-1.7967-.08927-.89832.08643-1.79664.08643-.89829-.11139-1.79658-.11139-.89827-.17229-1.79654-.17229-.89825.03027-1.7965.03027-.89824.22271-1.79648.22271-.89822.00325-1.79645.00325-.89822.03389-1.79644.03389-.89823-.18591-1.79645-.18591-.89822.08182-1.79645.08182-.89823-.01079-1.79647-.01079-.89825.01194-1.79649.01194-.89827-.03335-1.79653-.03335-.89829.09877-1.79658.09877-.89832.019-1.79663.019-.89835-.18071-1.7967-.18071-.89838-.041-1.79676-.041-.89843.01953-1.79685.01953-.89848-.05608-1.797-.05608-.89852.195-1.797.195-.89858.03784-1.79716.03784-.89864-.1393-1.79728-.1393-.89871.16779-1.79742.16779-.89877-.255-1.79755-.255-.89885.16666-1.7977.16666-.89894.06055-1.79787.06055-.899-.11662-1.798-.11662-.89911-.07544-1.79822-.07544-.89921.21123-1.79842.21123-.89931-.11614-1.79862-.11614-.89941-.01478-1.79883-.01478-.89952.08113-1.799.08113-.89965-.01775-1.79929-.01775-.89977.04343-1.79954.04343-.89989-.02974-1.79979-.02974-.9-.08009-1.8-.08009-.90017.1476-1.80034.1476-.90031-.09988-1.80062-.09988c-.90046,0-.90046.03962-1.80092.03962-.90062,0-.90062.05446-1.80123.05446-.90078,0-.90078-.07363-1.80156-.07363-.90094,0-.90094.00467-1.80188.00467-.90112,0-.90112-.18663-1.80224-.18663-.90129,0-.90129.005-1.80258.005s-.90142.07771-1.80284.07771c-.90126,0-.90126.04315-1.80251.04315-.9011,0-.9011.07131-1.8022.07131-.90095,0-.90095-.0934-1.8019-.0934s-.90081-.10343-1.80161-.10343-.90067.24894-1.80134.24894-.90054-.16821-1.80107-.16821-.90041.1909-1.80082.1909-.90029-.27112-1.80058-.27112-.90018.24368-1.80035.24368-.90007-.01843-1.80014-.01843-.9-.19833-1.79993-.19833-.89988.119-1.79975.119-.89978.06944-1.79956.06944-.8997-.23123-1.7994-.23123-.89963.10919-1.79925.10919-.89956.1015-1.79912.1015-.89949.075-1.799.075-.89944-.22829-1.79887-.22829-.89939.08408-1.79878.08408-.89934.15-1.79868.15-.89931-.08178-1.79862-.08178-.89927.056-1.79855.056-.89926-.20583-1.79851-.20583-.89924-.00438-1.79848-.00438-.89923-.05205-1.79846-.05205-.89923.2322-1.79846.2322-.89923-.11364-1.79847-.11364-.89924.12745-1.79849.12745-.89927-.17351-1.79853-.17351-.8993.02738-1.79859.02738-.89932.01607-1.79865.01607-.89937-.11253-1.79874-.11253-.89942.05667-1.79883.05667-.89948.18164-1.79895.18164-.89954-.213-1.79907-.213-.89961.0726-1.79922.0726-.89969.0749-1.79938.0749-.89977-.11648-1.79954-.11648-.89987.06361-1.79974.06361-.9-.04384-1.79995-.04384-.90008.07346-1.80016.07346-.9002-.14409-1.8004-.14409-.90033.11833-1.80065.11833-.90046-.05851-1.80092-.05851c-.90061,0-.90061.2139-1.80121.2139s-.90075-.19466-1.80151-.19466-.90091.177-1.80182.177c-.90108,0-.90108-.24-1.80217-.24-.90125,0-.90125.19443-1.80251.19443-.90144,0-.90144-.05287-1.80288-.05287-.90164,0-.90164.02411-1.80327.02411s-.90172-.17347-1.80345-.17347c-.90154,0-.90154.034-1.80309.034-.90137,0-.90137.11848-1.80275.11848-.90122,0-.90122-.06931-1.80244-.06931-.90107,0-.90107.16348-1.80214.16348-.90092,0-.90092-.06537-1.80185-.06537s-.9008-.10718-1.80159-.10718-.90067-.03243-1.80135-.03243-.90056.00806-1.80112.00806-.90045.08607-1.80091.08607-.90036.1071-1.80072.1071-.90028-.23391-1.80056-.23391-.9002.01321-1.8004.01321-.90014.07343-1.80028.07343-.90008-.08508-1.80016-.08508-.9.18914-1.80008.18914-.9-.04407-1.8-.04407-.9-.04817-1.8-.04817-.9-.02188-1.79992-.02188-.9-.02542-1.79992-.02542-.9.16506-1.79993.16506-.9-.05022-1.8-.05022-.9-.09114-1.8-.09114-.9-.08577-1.80009-.08577-.9001.18107-1.80019.18107-.90016-.0361-1.80031-.0361-.90023-.02473-1.80046-.02473-.90031.1301-1.80062.1301-.9004-.13959-1.80081-.13959-.9005.00763-1.801.00763-.90063-.01737-1.80125-.01737-.90076.01108-1.80151.01108-.90089.037-1.80179.037-.901.07629-1.80209.07629c-.90121,0-.90121-.057-1.80242-.057-.90139,0-.90139-.12789-1.80277-.12789-.90158,0-.90158.15288-1.80315.15288-.90178,0-.90178-.00887-1.80355-.00887-.902,0-.902-.05422-1.804-.05422s-.90185.09858-1.8037.09858c-.90167,0-.90167-.12857-1.80333-.12857-.9015,0-.9015.08466-1.803.08466-.90133,0-.90133-.05912-1.80267-.05912-.90119,0-.90119.13838-1.80238.13838s-.90106-.0153-1.80212-.0153-.90094-.01-1.80188-.01-.90084-.15143-1.80167-.15143-.90075.00407-1.8015.00407-.90067.02789-1.80134.02789-.9006-.00339-1.80121-.00339-.90056.10711-1.80112.10711-.90053.04775-1.801.04775-.90051-.08652-1.801-.08652-.9005-.16518-1.801-.16518-.90052.071-1.801.071-.90055.17112-1.80109.17112-.90058-.00283-1.80116-.00283-.90064-.048-1.80128-.048-.90071-.22686-1.80143-.22686-.9008.233-1.8016.233-.90091-.01138-1.80181-.01138-.901-.15763-1.80206-.15763S292.49782,33,291.59665,33c-.90132,0-.90132.11737-1.80264.11737-.90149,0-.90149-.18107-1.803-.18107-.90168,0-.90168-.00664-1.80336-.00664-.90189,0-.90189.02744-1.80377.02744-.90211,0-.90211.02363-1.80422.02363s-.90207.178-1.80415.178c-.90187,0-.90187-.0891-1.80375-.0891-.90169,0-.90169-.0721-1.80339-.0721-.90153,0-.90153.0424-1.80306.0424-.90138,0-.90138-.16673-1.80277-.16673s-.90126.28605-1.80252.28605-.90116-.17039-1.80231-.17039-.90107.17868-1.80214.17868-.901-.25577-1.802-.25577-.901-.03451-1.80191-.03451-.90093.07256-1.80185.07256-.90092.18543-1.80185.18543-.90093-.01765-1.80187-.01765-.901-.01137-1.80194-.01137-.901-.22555-1.80206-.22555-.90111.06954-1.80221.06954-.90121.07185-1.80242.07185-.90133-.04668-1.80266-.04668-.90148.08545-1.803.08545c-.90164,0-.90164.03321-1.80329.03321-.90184,0-.90184-.13818-1.80368-.13818-.902,0-.902.17323-1.8041.17323-.90229,0-.90229.00609-1.80459.00609s-.90216-.18723-1.80433-.18723c-.902,0-.902.14319-1.80392.14319-.90178,0-.90178-.011-1.80356-.011-.90162,0-.90162-.11881-1.80325-.11881s-.9015.07782-1.803.07782-.9014.12249-1.80279.12249-.90132-.00419-1.80264-.00419-.90127-.21812-1.80254-.21812-.90125.15293-1.8025.15293-.90125-.03466-1.80251-.03466-.90129.0499-1.80258.0499-.90135-.21149-1.80271-.21149-.90144.12448-1.80289.12448-.90157.12185-1.80314.12185c-.90173,0-.90173-.08354-1.80345-.08354-.90191,0-.90191-.11331-1.80382-.11331-.90212,0-.90212.09531-1.80424.09531-.90237,0-.90237-.0534-1.80474-.0534s-.90229.12146-1.80459.12146c-.90208,0-.90208-.1107-1.80416-.1107-.90189,0-.90189.14932-1.80379.14932-.90175,0-.90175-.07435-1.8035-.07435s-.90163-.03022-1.80327-.03022-.90155.09671-1.80311.09671-.90152-.21114-1.803-.21114-.90151.12308-1.803.12308-.90155-.10756-1.80309-.10756-.90161.1077-1.80323.1077-.90172.10727-1.80344.10727-.90187-.24053-1.80374-.24053c-.90206,0-.90206-.01493-1.80411-.01493-.89887,0-.89887.09376-1.79773.09376s-.8989-.041-1.7978-.041-.899.13517-1.798.13517-.8991-.19968-1.79821-.19968c-.89927,0-.89927.14914-1.79854.14914-.89948,0-.89948-.11019-1.799-.11019-.89975,0-.89975.21025-1.79949.21025-.9,0-.9-.04322-1.8001-.04322-.9004,0-.9004-.07083-1.8008-.07083-.90081,0-.90081-.00985-1.80161-.00985-.90126,0-.90126-.04576-1.80253-.04576-.90176,0-.90176.12659-1.80353.12659-.90232,0-.90232-.11059-1.80464-.11059-.90288,0-.90288.03283-1.80577.03283-.90235,0-.90235-.12217-1.8047-.12217-.90188,0-.90188.26475-1.80376.26475-.90147,0-.90147-.26205-1.80294-.26205-.90111,0-.90111.05907-1.80222.05907-.90081,0-.90081.15908-1.80162.15908-.90058,0-.90058-.058-1.80117-.058-.9004,0-.9004-.08625-1.80081-.08625s-.90031.17437-1.80061.17437-.90026-.22336-1.80052-.22336-.90029-.05553-1.80058-.05553-.90039.20284-1.80078.20284c-.90055,0-.90055-.18284-1.80111-.18284-.90079,0-.90079.26257-1.80159.26257-.90111,0-.90111-.19807-1.80223-.19807-.9015,0-.9015.10583-1.803.10583-.902,0-.902.06253-1.804.06253-.90253,0-.90253-.21291-1.80506-.21291-.90317,0-.90317.20758-1.80634.20758-.90291,0-.90291-.13175-1.80582-.13175-.90239,0-.90239-.07639-1.80478-.07639-.902,0-.902.1881-1.80394.1881-.90164,0-.90164-.20829-1.80328-.20829-.90141,0-.90141.187-1.80281.187s-.90127-.1868-1.80255-.1868-.90123.05729-1.80247.05729-.90131.01192-1.80262.01192c-.90149,0-.90149.10453-1.803.10453-.90179,0-.90179-.172-1.80357-.172-.9022,0-.9022.0963-1.80439.0963-.90272,0-.90272.12193-1.80544.12193-.90338,0-.90338-.19508-1.80675-.19508s-.90326.01793-1.80652.01793c-.90273,0-.90273.15448-1.80545.15448-.90232,0-.90232-.11792-1.80463-.11792-.90206,0-.90206.02185-1.80412.02185s-.90194-.09676-1.80389-.09676-.902.06147-1.804.06147c-.90218,0-.90218.07369-1.80436.07369-.90254,0-.90254-.02668-1.80508-.02668-.90308,0-.90308-.09831-1.80616-.09831-.90378,0-.90378.16666-1.80757.16666-.9033,0-.9033-.12041-1.8066-.12041-.90282,0-.90282-.06564-1.80564-.06564-.90254,0-.90254.12837-1.80507.12837s-.90246-.10179-1.80493-.10179-.90261.094-1.80523.094c-.903,0-.903.16044-1.806.16044-.90361,0-.90361-.16928-1.80723-.16928s-.90372.15418-1.80744.15418c-.90316,0-.90316-.17678-1.80633-.17678-.90289,0-.90289.17424-1.80578.17424s-.90291-.17872-1.80582-.17872c-.90323,0-.90323.038-1.80647.038-.90389,0-.90389.141-1.80778.141-.9037,0-.9037-.27172-1.8074-.27172-.90326,0-.90326.07036-1.80651.07036s-.9032.05124-1.8064.05124c-.90356,0-.90356-.04063-1.80711-.04063-.90425,0-.90425.05572-1.80849.05572-.90269,0-.90269-.07836-1.80537-.07836-.90167,0-.90167.15567-1.80333.15567-.9012,0-.9012-.02064-1.8024-.02064s-.9013-.17814-1.8026-.17814c-.902,0-.902-.00722-1.804-.00722-.90341,0-.90341.01748-1.80683.01748-.90437,0-.90437-.01769-1.80875-.01769-.903,0-.903-.01079-1.806-.01079-.90249,0-.90249.02366-1.805.02366-.90291,0-.90291.046-1.80583.046-.90437,0-.90437-.07441-1.80875-.07441-.9042,0-.9042.008-1.80841.008-.9034,0-.9034.1349-1.80681.1349-.904,0-.904.03955-1.80807.03955-.90506,0-.90506.00455-1.81012.00455-.90406,0-.90406-.15473-1.80811-.15473-.90512,0-.90512.05889-1.81023.05889-.90461,0-.90461.05046-1.80921.05046-.90547,0-.90547-.05672-1.81093-.05672-.90491,0-.90491.16455-1.80982.16456-.90271,0-.90271-.0939-1.80542-.0939-.90569,0-.90569-.01734-1.81139-.01734-.9042,0-.9042-.12293-1.80839-.12293-.90542,0-.90542.16882-1.81083.16882-.90643,0-.90643.029-1.81287.029-.90514,0-.90514-.16658-1.81028-.16658-.90726,0-.90726.08844-1.81452.08844-.90873,0-.91462.16177-1.82235.11929C1.99378,33.08036,2.001,32.89083,1.0923,32.89083Z"/><path class="cls-2" d="M973.76613,33.0717a1.059,1.059,0,0,1-.96625-.75847.9332.9332,0,0,1,.46069-1.04735,17.08536,17.08536,0,0,0,1.5136-1.33359c.45808-.42027.898-.953,1.38369-1.45688.46816-.48571.93742-.98313,1.35656-1.481a17.83859,17.83859,0,0,0,1.32064-1.52589.84228.84228,0,0,1,.75727-.446c.89837-.00035.8984.06133,1.79677.06091s.8983-.16578,1.79667-.1662.89841.02859,1.7968.02817.89839-.04156,1.79679-.042.89841-.03592,1.79684-.03634.89842-.06025,1.79686-.06067.89858.24484,1.79705.24441.89851.03733,1.797.0369.89851-.01231,1.797-.01274.89854-.00412,1.79708-.00454.89846-.25375,1.797-.25418.89869.183,1.7973.18261.8986-.06325,1.79724-.06367.89873.111,1.7974.11061.89867-.10426,1.79738-.10468.89878.06547,1.79753.065.89874-.12091,1.79753-.12133.89882-.04043,1.79765-.04085.899.18488,1.79785.18446.8989-.07726,1.79782-.07769.899-.02346,1.798-.02388.89906.06512,1.79809.0647.89911.044,1.79819.04361.899-.21207,1.79818-.21249.89926.12121,1.79846.12079.8992-.12006,1.79846-.12049.89933.02681,1.79865.02638.89943.10554,1.79882.10512.89938-.13523,1.79883-.13566.89962.19813,1.79913.1977.89951-.14414,1.79909-.14456.89959.1755,1.7991.17507.89932-.27186,1.79877-.27228.8994.0395,1.79879.03908.89938.11841,1.79871.118.89921-.13816,1.79848-.13859.8993.17921,1.79852.17878.89918.04259,1.79835.04217.89911-.002,1.79823-.00237.899-.19619,1.798-.19661.899-.03409,1.798-.03452.899.10328,1.798.10286.8989-.069,1.79784-.06939.899.16678,1.79788.16636.89886-.00753,1.79772-.00795.89883-.00273,1.79766-.00315.89883.07414,1.79763.07371.89866-.22948,1.79743-.2299.89875.02586,1.79749.02544.89873.02362,1.79745.0232.89877.17187,1.79747.17145.89859-.16767,1.79726-.16809.89872.12049,1.79737.12007.8986-.09324,1.79724-.09366.89868.11026,1.79731.10984.8985-.23753,1.79712-.238.89863.04814,1.79724.04771.89869.19481,1.79729.19439.89853-.155,1.79713-.15546.89862.04952,1.79722.04909.89856-.079,1.79716-.07945.89869.19121,1.7973.19078.89851-.20892,1.79712-.20935.89861-.02706,1.79723-.02749.89867.09509,1.7973.09466.89863-.04229,1.79727-.04271.89869.06213,1.79735.06171.89872.08062,1.7974.08019.89867-.05819,1.79737-.05862.89879.12588,1.79751.12546.89873-.05422,1.79748-.05464.89872-.13128,1.7975-.1317.8989.17472,1.79771.1743.89878-.14545,1.79762-.14588.89884-.09615,1.79773-.09658.89892.00136,1.79785.00093.89907.21946,1.798.219.899-.12891,1.798-.12934.899-.01606,1.79811-.01648.89916.10748,1.79827.10706.89907-.1859,1.79823-.18633.89929.13358,1.7985.13315.89925-.06971,1.79852-.07013.89933-.007,1.79867-.00744.89937-.0725,1.79877-.07293.89958.2517,1.799.25128.89953-.01853,1.79907-.019.89951-.19526,1.79912-.19569.89976.18293,1.79943.1825.8996.00368,1.7992.00325.89946-.15785,1.799-.15828.89951.0847,1.799.08427.89935-.125,1.79876-.12545.89934-.01317,1.79869-.0136.8994.21665,1.7987.21622.89922-.04875,1.79846-.04918.89922.06672,1.79842.0663.899-.26085,1.79817-.26127c.89605-.00042.89614.19168,1.79218.19126s.89612.04554,1.79221.04512.896-.24512,1.79216-.24554.89632.26962,1.79251.2692.89623-.04411,1.79247-.04453.8962-.22,1.7925-.22041.89641.09054,1.79277.09012.8964-.06562,1.79283-.066.89651.04354,1.793.04311.89657.02685,1.79314.02642.89665.04262,1.79329.0422.89667-.10318,1.79338-.1036.89679-.01013,1.79358-.01056.897.18368,1.79383.18326.89691-.10784,1.79387-.10826.89705.00847,1.7941.00805.89709-.11419,1.79423-.11461.89731.15425,1.79454.15382.89727-.1557,1.7946-.15612.89751.14862,1.79494.14819.8975-.08068,1.795-.0811.89768.08142,1.79533.081.89774-.05423,1.7955-.05465.89795.16,1.79582.15957.898-.10909,1.79594-.10951.8981-.03006,1.79622-.03049.89824-.0046,1.79648-.005.89833-.08188,1.7967-.08231.89854.091,1.797.0906.8987.13652,1.79734.13609.89875-.06484,1.79752-.06527c.89892-.00042.89886-.12836,1.79778-.12878s.89912.12648,1.79818.12605c.89922-.00042.89913-.17513,1.79835-.17555s.89937.009,1.79873.00858c.89952-.00043.89952-.00873,1.799-.00916.89968-.00042.89972.08375,1.79941.08333s.89985.02315,1.7997.02273.89981-.02268,1.79964-.0231c.89968-.00043.89976.16493,1.79944.16451s.89941-.28363,1.799-.28405.89942.02093,1.79882.02051.89927-.02566,1.79854-.02608.89928.27635,1.79843.27593.8989-.25582,1.79793-.25624.89892.04389,1.79782.04347.89888.19588,1.79767.19545.89867.00487,1.79735.00445.89844-.24838,1.797-.2488.8985.1031,1.797.10267.89832-.09478,1.79667-.0952.89835.18375,1.79661.18333.8982.07291,1.79637.07249.898-.10328,1.7961-.1037.89792-.15561,1.79591-.156.89793.05469,1.79584.05426.89786.05131,1.79569.05088.89781.10164,1.79557.10122.89761-.16158,1.7953-.162.89765.0557,1.79527.05527.89759.06023,1.79516.0598.8975-.00771,1.795-.00813.89739-.12,1.79484-.12045.8974-.01955,1.7948-.02.89735-.02653,1.79471-.02695.89738.12438,1.7947.124.89733.08216,1.79461.08173.89727.04585,1.79453.04543.89721-.02778,1.79444-.02821.89716-.079,1.79436-.07938.89718-.01341,1.79437-.01383.89722.10586,1.79439.10544.89715-.0238,1.79431-.02422.89706-.20127,1.79422-.20169.89721.11456,1.79437.11413.89718.049,1.79434.04859.89716-.01335,1.79433-.01378.89722.0705,1.7944.07007.89717-.05142,1.79437-.05184.89719-.08321,1.79441-.08363.89726.02842,1.79451.028.89727-.03595,1.79455-.03637.89733.032,1.79465.03158.8974.08088,1.79476.08046.89735-.12115,1.79475-.12158.8975.09234,1.795.09192.8975-.026,1.795-.0264.89758.01615,1.79515.01572.89763-.02911,1.79527-.02954.89771.01371,1.79543.01328.8978.04767,1.79559.04725.89783-.09235,1.79569-.09277.898.05774,1.79594.05732.898-.08034,1.79605-.08076.89812-.03174,1.79626-.03216.89826.02839,1.7965.028.89836.02711,1.79671.02668.89841-.11269,1.79687-.11312.89864.1399,1.79722.13948.89871.02579,1.79741.02536.89885.05169,1.79768.05127.899.03416,1.79794.03374.899-.14273,1.79813-.14315.89922-.04567,1.79846-.04609c.8994-.00043.89938-.03569,1.79877-.03612.89955-.00042.8996.1129,1.79915.11247.89971-.00042.89964-.14936,1.79935-.14978.89987-.00043.89992.09165,1.79979.09123.9-.00043.90012.14448,1.80016.14406.90023-.00043.90012-.21672,1.80035-.21714s.90038.06112,1.80073.06069c.90018-.00042.90027.17581,1.80045.17539.9-.00043.9-.09565,1.8-.09607.89988-.00043.89983-.10086,1.79972-.10129.89973-.00042.89975.034,1.79949.03352s.89955-.09883,1.79915-.09926.89954.16131,1.799.16088.89936.04745,1.79871.047.89923.01737,1.79845.017.899-.1897,1.79812-.19012.899.08471,1.798.08429.89884-.12251,1.79774-.12293.89892.25433,1.79772.2539.89868-.08042,1.7974-.08084.89859-.09542,1.79722-.09585.89858.05721,1.79714.05679.89842-.14538,1.79691-.1458.89843.01574,1.79686.01531.89845.16929,1.79682.16887.89827-.10559,1.79659-.106.89824-.06477,1.79652-.06519.89832.16112,1.79656.1607.89823.04,1.79644.03959.89807-.23955,1.79626-.24.89823.11584,1.7964.11542.89814-.055,1.7963-.05539.89826.20951,1.79642.20909.89815-.04646,1.79632-.04689.89816-.04248,1.79634-.0429.89811-.18137,1.79631-.18179.89829.13246,1.79651.132.89824-.06039,1.7965-.06082.89836.13182,1.79666.1314.89837.05094,1.79672.05051.89839-.04485,1.7968-.04528.89838-.19214,1.79685-.19256.89864.20782,1.79718.20739.89864.04339,1.79726.043.89863-.16815,1.79733-.16858.89884.07879,1.79764.07837.89883-.15536,1.79774-.15578.89908.14059,1.79809.14017.89919.11534,1.79832.11492.89921-.09809,1.79847-.09851.89938-.023,1.79877-.02341.89953-.0254,1.79906-.02583c.89969-.00042.89965-.09077,1.79933-.09119.89985-.00043.89984-.019,1.79968-.01942.9-.00043.9-.01887,1.8-.01929.90018-.00043.90017-.01972,1.80036-.02014.90037-.00043.90045.16947,1.80083.169.90056-.00043.90059.064,1.80116.06357s.90065.0087,1.80131.00827c.90047-.00042.90039-.18071,1.80086-.18114.90031-.00042.90038.14258,1.80069.14215.90015-.00042.90016.03538,1.80031.035s.9-.02375,1.8-.02418.89988.05013,1.79974.04971.89969-.0719,1.79942-.07233.89953-.15168,1.79914-.15211.89958.19759,1.79907.19716.89934-.11817,1.79872-.1186.89932.05279,1.79862.05237.89913-.16574,1.79834-.16617.89925.24655,1.79838.24613.899-.25128,1.798-.25171.899.044,1.798.04354.89908.22723,1.79805.2268.89886-.16211,1.79779-.16253.89893.04375,1.79784.04333.89894.08963,1.79783.08921.89887-.05948,1.79776-.0599.89881-.18644,1.7977-.18686.899.24791,1.79795.24748.89893-.02715,1.79787-.02757.899.03334,1.798.03291.899-.17809,1.798-.17852.89909-.00668,1.79818-.00711.89914-.03231,1.7983-.03274.89934.20463,1.79858.2042.89923-.22261,1.79857-.223.89944-.00267,1.79888-.0031.89955-.01542,1.7991-.01584.89971.05178,1.7994.05135.89991.18834,1.79974.18791.89993-.09471,1.79991-.09514c.90014-.00042.90007-.14777,1.80021-.14819.90032-.00043.90033.03186,1.80065.03143.9005-.00042.90052.04,1.801.03956.9007-.00043.90069-.02073,1.8014-.02115.90092-.00043.90093.0239,1.80185.02347s.90081.06237,1.80159.06194c.90059-.00042.90056-.07928,1.80115-.07971.90043-.00042.90046.07059,1.80088.07016s.90022-.10476,1.80049-.10518c.90012-.00043.90012-.0004,1.80024-.00083s.9.07861,1.8.07819.89992.11323,1.79979.1128.89973-.07852,1.7995-.07894.89965-.06825,1.79933-.06868.89969.19595,1.79929.19553.89943-.224,1.799-.22444.8996.22128,1.79909.22085.89933-.27563,1.79879-.276.89952.16935,1.799.16892.89944.01067,1.79887.01025.89947.05478,1.79892.05436.89945-.04435,1.79892-.04477.89951-.01736,1.799-.01778.89954-.06618,1.79911-.0666.89972.16345,1.79936.163.89963-.22089,1.79936-.22132.89987.0605,1.79971.06008.8999-.12034,1.79986-.12076.90012.059,1.80022.05862c.90025-.00042.90032.151,1.80057.15063.90042-.00043.90037-.11037,1.80079-.11079.90061-.00043.90069.1616,1.8013.16117.90082-.00042.9007-.25063,1.80151-.25106.901-.00042.90112.16037,1.80215.15995s.901-.104,1.802-.10445c.9008-.00042.90084.07964,1.80164.07922.90063-.00043.90067.08823,1.80129.0878s.90046-.00169,1.80093-.00211c.90031-.00043.90025-.13566,1.80057-.13608s.90015-.08825,1.80034-.08868.90015.13706,1.80023.13664.9.10542,1.80005.105.89984-.21114,1.79977-.21157.9.226,1.79988.22557.89977-.17412,1.79963-.17454.89992.13345,1.79977.133.89989.04127,1.79975.04085.89979-.24865,1.79969-.24908.9.00089,1.79992.00046.90012.15953,1.80015.15911.90007-.15532,1.80021-.15575.90038.24482,1.80064.24439c.90041-.00042.90029-.2538,1.8007-.25423.90057-.00042.90057-.00974,1.80114-.01017.90077-.00042.90088.24041,1.80165.24.901-.00043.90089-.20828,1.80187-.2087.90122-.00043.9013.16751,1.80252.16709s.901-.10692,1.80214-.10734c.90089-.00043.90091.035,1.8018.03458.90071-.00042.90075.0776,1.80146.07717.90055-.00042.90047-.17518,1.801-.17561s.90047.09255,1.8009.09213.90028-.08434,1.80061-.08476.90028.06818,1.80053.06776.9002.00185,1.8004.00143.90017-.03115,1.80034-.03158.90015-.07926,1.80034-.07969.90028.1359,1.80051.13548.90023-.10013,1.80052-.10056.90038-.00371,1.80075-.00413.90053.05337,1.801.05294c.90065-.00042.90073.1697,1.80139.16927.90084-.00042.90081-.057,1.80165-.05744.901-.00042.901-.14093,1.802-.14136.9013-.00042.90131.02565,1.80261.02523s.90127.106,1.80249.1056c.901-.00042.901-.11713,1.802-.11755.90082-.00043.90081-.01818,1.80164-.01861.90068-.00042.90074.12063,1.80142.12021s.90052-.08144,1.80109-.08187.90048-.00992,1.801-.01034.90041-.08731,1.80085-.08774.90047.05984,1.80091.05941.90048.00373,1.80095.00331.9006.11966,1.80114.11923.90061-.104,1.80126-.1044c.9008-.00042.90078-.0362,1.80158-.03663.901-.00042.90108.20016,1.80207.19974.8978-.00042.89772-.16164,1.79552-.16206s.89782-.02739,1.79565-.02781.89791-.007,1.79583-.00739.89812.1789,1.79616.17848c.8982-.00043.8981-.1987,1.79631-.19912.89841-.00043.89839-.05544,1.7968-.05587.89868-.00042.89871.05693,1.79738.0565.899-.00042.899.04256,1.798.04213.89934-.00042.89937.06507,1.7987.06464.89974-.00042.89971-.05725,1.79945-.05768.90019-.00042.90023.0782,1.80042.07777.9007-.00042.90068-.02978,1.80138-.0302.90125-.00043.90126.02515,1.80252.02473.90181-.00043.90173-.16606,1.80354-.16649.90128-.00042.90133.10019,1.80261.09976.90081-.00042.90088.14626,1.80169.14583.9004-.00042.90034-.13472,1.80073-.13515.9-.00042.9-.09466,1.8-.09509.89975-.00042.89981.12483,1.79955.1244.89951-.00042.89956.10992,1.79908.10949.89934-.00042.89925-.19439,1.79859-.19481s.89931.16389,1.79854.16347.89914-.1317,1.79833-.13212.8992-.03617,1.79843-.03659.89933.038,1.79865.03757c.89949-.00042.89953.08807,1.799.08764.89973-.00042.89964-.17753,1.79937-.17795.9-.00043.90013.17837,1.80017.17795.90044-.00043.90045.0352,1.80089.03478.90091-.00043.9008-.23064,1.80171-.23107.90146-.00042.90156.209,1.803.20858.90209-.00042.9021.02969,1.8042.02926.90184-.00042.90175-.178,1.80359-.1784.90133-.00043.90136.08123,1.80269.08081.9009-.00043.90095.11416,1.80185.11374.90057-.00043.90048-.19113,1.80105-.19155.90034-.00043.90038.09547,1.80072.095s.90025.11283,1.80046.1124.90016-.00854,1.80033-.009.90021-.06033,1.80045-.06075c.90042-.00043.90037-.11816,1.80079-.11858.90072-.00043.90072.005,1.80143.00459.90113-.00043.90109-.08019,1.80221-.08062.90165-.00042.90167.04228,1.80332.04185.9023-.00042.90231.01788,1.80461.01745s.90216-.07358,1.80435-.074c.90165-.00043.9017.10469,1.80335.10427.90125-.00043.90129.08079,1.80254.08037.901-.00043.901.04366,1.802.04323s.90089.02659,1.80176.02617.90087-.09032,1.80179-.09074c.90111-.00043.90112.03168,1.80223.03125.90148-.00042.90138-.20521,1.80285-.20564.902-.00042.9021.20418,1.80411.20376.90271-.00043.90262-.19394,1.80534-.19437.90223-.00042.90233.21092,1.80456.21049.90174-.00043.90169-.11875,1.80344-.11918.90146-.00042.90147.02735,1.80294.02693s.90145.12782,1.80285.1274.90149-.10288,1.803-.1033c.90192-.00043.90194.04043,1.80386.04.90254-.00043.90256.04413,1.8051.0437s.90257-.18034,1.80522-.18076c.90209-.00043.90209-.01156,1.80418-.012.90182-.00043.90184.052,1.80366.05154s.90185.02006,1.80369.01964c.90216-.00043.9021-.13452,1.80427-.13495.90282-.00042.90288.13031,1.8057.12988.90262-.00043.90267.10173,1.8053.10131.90218-.00043.90211-.1594,1.80429-.15982s.90222.18479,1.80434.18436c.90249-.00042.90247-.048,1.80495-.04841.90317-.00043.90312-.11742,1.80629-.11785.90161-.00042.90167.11612,1.80328.11569.90059-.00042.90063.08459,1.80123.08416.90013-.00042.90011-.05078,1.80023-.0512s.9002-.08065,1.80043-.08107c.90095-.00043.901.12634,1.802.12591.90234-.00042.90223-.2457,1.80457-.24613.9033-.00042.90342.25016,1.80672.24974.90193-.00043.90189-.0946,1.80382-.095.90142-.00042.90144.04263,1.80285.04221.90185-.00043.90184-.0089,1.80369-.00932.9033-.00043.9033.00286,1.8066.00243.90313-.00042.90311-.06139,1.80624-.06182.90233-.00042.90232-.03533,1.80465-.03576.903-.00043.903.04321,1.80594.04278.904-.00042.90391-.179,1.80789-.17941.903-.00043.903.044,1.806.04353.904-.00042.90405.00973,1.80809.0093.90353-.00042.90356.05863,1.80709.0582.90439-.00042.90445.12593,1.80884.1255.90384-.00042.90382-.02964,1.80766-.03006.90164-.00043.90164-.00827,1.80327-.00869.90462-.00043.90459-.07306,1.80921-.07349.90312-.00043.90309-.078,1.80621-.0784.90434-.00043.90436.04918,1.8087.04875.90536-.00043.90533-.07236,1.81069-.07279.90406-.00043.90411.1016,1.80818.10118.90619-.00043.90616-.05651,1.81234-.05694.90765-.00042.90765.002,1.8153.00158s.90761-.09137,1.81525-.09174a1.23041,1.23041,0,0,1,.74921.40077,1.10725,1.10725,0,0,1,.30042.74915c0,.8081-.08561.8081-.08561,1.61621,0,.81.02562.81.02562,1.62,0,.8113.10063.8113.10063,1.62261s-.22616.8113-.22616,1.62261a.81445.81445,0,0,1-.864.90523c-.89879,0-.89879-.02427-1.79758-.02427s-.89879.17566-1.79759.17566-.8988-.06915-1.7976-.06915-.89881.03434-1.79762.03434-.89883-.11121-1.79765-.11121-.89884.03216-1.79768.03216-.89885.10706-1.79771.10706-.89887.08685-1.79774.08685-.8989-.24532-1.79779-.24532-.89891.02308-1.79783.02308-.89893.20668-1.79787.20668-.899-.03817-1.79793-.03817-.899-.05235-1.798-.05235-.899-.08548-1.798-.08548-.89906-.06861-1.79811-.06861-.89908.152-1.79817.152-.89912-.12149-1.79824-.12149-.89916-.04991-1.79832-.04991-.8992.286-1.7984.286-.89924-.12261-1.79848-.12261-.89928.01951-1.79856.01951-.89933-.065-1.79866-.065-.89938.11333-1.79875.11333-.89943-.1662-1.79886-.1662-.89947.06427-1.79895.06427-.89953.05216-1.79907.05216-.89958-.08025-1.79917-.08025-.89965-.09539-1.79929-.09539-.89971.08555-1.79941.08555-.89977-.07731-1.79954-.07731-.89983.0556-1.79966.0556-.8999.04828-1.7998.04828-.9.153-1.79993.153-.9-.07635-1.80005-.07635-.9-.18877-1.79991-.18877-.8999.27419-1.79979.27419-.89984-.1263-1.79967-.1263-.89978.0751-1.79955.0751-.89972-.2076-1.79944-.2076-.89967.11924-1.79933.11924-.89961-.08228-1.79923-.08228-.89956.20938-1.79912.20938-.89952-.2632-1.799-.2632-.89947.13784-1.79894.13784-.89943.09147-1.79885.09147-.89939.03472-1.79878.03472-.89934-.16527-1.79869-.16527-.89931.11746-1.79862.11746-.89928-.0789-1.79855-.0789-.89925.10613-1.79849.10613-.89922-.184-1.79843-.184-.89919.13262-1.79838.13262-.89916-.09134-1.79833-.09134-.89914-.08445-1.79828-.08445-.89912.26576-1.79824.26576-.8991-.25035-1.79821-.25035-.89908.12333-1.79817.12333-.89908.11429-1.79815.11429-.89907-.16817-1.79813-.16817-.899-.00522-1.79811-.00522-.899-.0097-1.7981-.0097-.899-.02028-1.79809-.02028-.899-.014-1.79809-.014-.899.0977-1.7981.0977-.899-.16009-1.7981-.16009-.89906.13933-1.79811.13933-.89907-.09877-1.79814-.09877-.89907.22392-1.79815.22392-.89909-.02066-1.79818-.02066-.89911-.136-1.79822-.136-.89913.00869-1.79825.00869-.89915.10745-1.7983.10745-.89917-.0505-1.79835-.0505-.89919-.15654-1.79839-.15654-.89923.09522-1.79846.09522-.89926-.003-1.79852-.003-.89929.02958-1.79859.02958-.89933.05634-1.79866.05634-.89937.00531-1.79874.00531-.89942-.172-1.79883-.172-.89946.1517-1.79892.1517-.8995.04711-1.799.04711-.89956-.09071-1.79911-.09071-.89961.03257-1.79922.03257-.89966.08834-1.79933.08834-.89972-.07745-1.79945-.07745-.89978.10053-1.79956.10053-.89985-.09931-1.7997-.09931-.89992-.02518-1.79983-.02518-.9.08051-1.8.08051-.90006-.01623-1.80011-.01623-.90012-.09553-1.80024-.09553-.9-.07056-1.80009-.07056-.9.08276-1.8.08276-.89992.11776-1.79984.11776-.89985-.00188-1.79971-.00188-.8998-.06616-1.7996-.06616-.89974.08531-1.79948.08531-.89969-.226-1.79938-.226-.89964.00631-1.79929.00631-.89959.23591-1.79919.23591c-.89649,0-.89649-.162-1.793-.162s-.89654-.12561-1.79307-.12561-.89659.1133-1.79318.1133-.89663.138-1.79327.138-.89669-.13394-1.79338-.13394-.89675.17068-1.7935.17068-.89681-.23473-1.79362-.23473-.89688.23278-1.79375.23278-.89694-.15334-1.79388-.15334-.897-.07284-1.794-.07284-.89708.19861-1.79417.19861-.89715-.0511-1.79431-.0511-.89724-.00815-1.79448-.00815-.89732-.02963-1.79464-.02963-.89741-.09376-1.79481-.09376-.8975-.03-1.795-.03-.89759.15142-1.79518.15142-.89768.06738-1.79536.06738-.89778-.04506-1.79556-.04506-.89789-.112-1.79577-.112-.898.0478-1.796.0478-.8981-.00444-1.7962-.00444-.8982.06587-1.79641.06587-.89832.055-1.79665.055-.89844-.14467-1.79688-.14467-.89856.06631-1.79712.06631-.89869-.02924-1.79738-.02924-.89882.09462-1.79763.09462-.899.03668-1.7979.03668-.89908-.13493-1.79817-.13493-.89922-.14336-1.79844-.14336c-.89937,0-.89937.03606-1.79873.03606-.89951,0-.89951-.05131-1.799-.05131s-.89966.27046-1.79932.27046c-.89982,0-.89982.0111-1.79963.0111-.9,0-.9-.16624-1.79994-.16624-.90013,0-.90013.13042-1.80026.13042-.90029,0-.90029.01444-1.80059.01444s-.90027-.219-1.80054-.219-.90014.23438-1.80027.23438-.9-.0145-1.8-.0145-.89986-.05313-1.79971-.05313-.89972-.14332-1.79945-.14332-.89959.15387-1.79919.15387-.89947-.02827-1.79894-.02827-.89935-.03392-1.7987-.03392-.89923-.10486-1.79847-.10486-.89912.12745-1.79824.12745-.899.01-1.798.01-.89891-.0215-1.79781-.0215-.89881-.007-1.79761-.007-.89871.09457-1.79741.09457-.89862-.07438-1.79723-.07438-.89852.04975-1.797.04975-.89844-.17644-1.79687-.17644-.89836.18161-1.79672.18161-.89827-.06652-1.79655-.06652-.89821.00945-1.79641.00945-.89814.0493-1.79628.0493-.89807-.05537-1.79614-.05537-.898.081-1.796.081-.898-.02727-1.7959-.02727-.8979-.17736-1.7958-.17736-.89785.235-1.7957.235-.89781-.03968-1.79562-.03968-.89776-.05967-1.79553-.05967-.89773.08769-1.79546.08769-.8977-.15028-1.7954-.15028-.89767.00222-1.79535.00222-.89765-.05971-1.79529-.05971-.89764.195-1.79527.195-.89761-.16984-1.79523-.16984-.89761-.0349-1.79522-.0349-.8976.07355-1.7952.07355-.89761-.05779-1.79521-.05779-.89761.07016-1.79521.07016-.89762.13058-1.79523.13058-.89763-.17417-1.79526-.17417-.89765-.0467-1.79529-.0467-.89767.19721-1.79534.19721-.8977-.08114-1.79539-.08114-.89773-.09138-1.79546-.09138-.89776.20794-1.79553.20794-.89781-.11123-1.79561-.11123-.89785.036-1.79571.036-.8979-.00867-1.7958-.00867-.898-.1653-1.79592-.1653-.898.08621-1.79605.08621-.89808.16574-1.79617.16574-.89816-.21248-1.79631-.21248-.89824.07992-1.79647.07992-.89832-.03124-1.79663-.03124-.8984.11846-1.7968.11846-.89849-.14244-1.797-.14244-.89859.06458-1.79718.06458-.89869-.14968-1.79738-.14968-.89879.04952-1.79759.04952-.8989-.01-1.79781-.01-.899.14236-1.798.14236-.89915.06139-1.79829.06139-.89928-.14029-1.79855-.14029-.89941-.0755-1.79882-.0755-.89955.07066-1.79909.07066-.89969-.02152-1.79938-.02152c-.89984,0-.89984-.00974-1.79969-.00974s-.9-.02126-1.8-.02126c-.90015,0-.90015.20762-1.80031.20762-.90032,0-.90032-.13608-1.80064-.13608-.9005,0-.9005.12476-1.801.12476-.90068,0-.90068.04152-1.80135.04152s-.90079-.15281-1.80159-.15281c-.90064,0-.90064.0782-1.80127.0782-.90048,0-.90048-.18926-1.801-.18926-.90033,0-.90033.19494-1.80066.19494s-.90018.00529-1.80037.00529-.9.02738-1.80009.02738-.89992-.08668-1.79983-.08668-.89979-.07216-1.79958-.07216-.89967-.03107-1.79934-.03107-.89956.1084-1.79911.1084-.89945-.08687-1.7989-.08687-.89934.10337-1.79869.10337-.89925.02132-1.7985.02132-.89917.01432-1.79833.01432-.89908-.13842-1.79816-.13842-.899.14272-1.798.14272-.89894-.04481-1.79787-.04481-.89887-.0377-1.79775-.0377-.89881-.09454-1.79763-.09454-.89877-.01213-1.79753-.01213-.89873.08693-1.79745.08693-.89869.00673-1.79737.00673-.89866-.10636-1.79732-.10636-.89864.20582-1.79727.20582-.89862-.21607-1.79724-.21607-.89861.10008-1.79722.10008-.89861.07828-1.79722.07828-.89861-.10345-1.79723-.10345-.89863-.08219-1.79725-.08219-.89865.26378-1.79729.26378-.89868-.27691-1.79735-.27691-.89871.16754-1.79741.16754-.89875.05585-1.7975.05585-.8988-.06819-1.7976-.06819-.89885.03115-1.7977.03115-.89892-.06287-1.79784-.06287-.899.10317-1.798.10317-.89907.02959-1.79814.02959-.89915-.19539-1.79831-.19539-.89925.2293-1.79849.2293-.89936-.09164-1.79871-.09164-.89946-.04976-1.79892-.04976-.89958-.15081-1.79916-.15081-.8997.12231-1.79941.12231-.89984-.05531-1.79968-.05531-.9.19122-1.8.19122-.90013.03548-1.80026.03548c-.90029,0-.90029-.08618-1.80059-.08618-.90046,0-.90046-.12026-1.80092-.12026-.90063,0-.90063.11356-1.80127.11356-.90082,0-.90082-.07021-1.80164-.07021-.901,0-.901.065-1.802.065s-.90111-.05429-1.80221-.05429c-.90092,0-.90092.08627-1.80184.08627-.90076,0-.90076-.19282-1.80152-.19282-.90059,0-.90059.08554-1.80119.08554s-.90045.12316-1.8009.12316-.9003-.12172-1.80061-.12172-.90017.05893-1.80035.05893-.9.02356-1.8001.02356-.89994-.04972-1.79988-.04972-.89984-.13921-1.79967-.13921-.89974.007-1.79948.007-.89966.02079-1.79932.02079-.89958-.02927-1.79916-.02927-.89952.182-1.799.182-.89946-.16206-1.79892-.16206-.89942-.00256-1.79883-.00256-.89939.13211-1.79877.13211-.89936-.02284-1.79871-.02284-.89934.06935-1.79869.06935-.89933.02822-1.79867.02822-.89935.0476-1.79869.0476-.89936-.12373-1.79872-.12373-.89939-.14-1.79878-.14-.89943.17216-1.79885.17216-.89948.03372-1.799.03372-.89954-.02821-1.79908-.02821-.8996-.02224-1.79921-.02224-.89969.01906-1.79938.01906-.89978.036-1.79956.036-.89989-.19072-1.79978-.19072-.9.03667-1.8.03667-.90013.01468-1.80026.01468c-.90028,0-.90028.15556-1.80055.15556-.90043,0-.90043-.237-1.80085-.237-.90059,0-.90059.01608-1.80118.01608-.90076,0-.90076.02743-1.80153.02743-.901,0-.901.18921-1.8019.18921-.90116,0-.90116-.14111-1.80231-.14111-.90137,0-.90137.1745-1.80274.1745s-.90123-.08116-1.80245-.08116c-.901,0-.901.09493-1.80209.09493-.90087,0-.90087-.09136-1.80175-.09136-.90071,0-.90071.07018-1.80143.07018-.90056,0-.90056-.01935-1.80113-.01935s-.90044-.00411-1.80088-.00411-.90032.0152-1.80064.0152-.90022-.19845-1.80043-.19845-.90013.00058-1.80025.00058-.9.13517-1.8001.13517-.9-.08566-1.8-.08566-.89994-.02052-1.79988-.02052-.89991-.08038-1.79981-.08038-.89989-.00619-1.79978-.00619-.89988.11353-1.79976.11353-.8999-.056-1.79979-.056-.89992-.05674-1.79984-.05674-.9.28462-1.79993.28462-.9-.00909-1.8-.00909-.9001-.26148-1.80019-.26148-.90018.069-1.80036.069-.90029.13417-1.80057.13417-.90041.01716-1.80081.01716-.90055-.04724-1.80109-.04724c-.9007,0-.9007-.107-1.8014-.107-.90087,0-.90087.06574-1.80174.06574-.90106,0-.90106-.03771-1.80212-.03771-.90126,0-.90126.14858-1.80252.14858-.90149,0-.90149-.14227-1.803-.14227s-.90146.09548-1.80291.09548c-.90126,0-.90126-.0498-1.80251-.0498-.90107,0-.90107-.12023-1.80214-.12023-.90091,0-.90091.004-1.80182.004s-.90077-.04578-1.80153-.04578-.90064.12339-1.80128.12339-.90054.01913-1.80107.01913-.90045.089-1.80089.089-.90038.04779-1.80076.04779-.90034-.21971-1.80067-.21971-.90031.00491-1.80061.00491-.9003.13373-1.80061.13373-.90031-.03207-1.80063-.03207-.90035-.15214-1.8007-.15214-.9004.11948-1.80081.11948-.90049-.139-1.801-.139-.90058.06661-1.80117.06661-.90071-.04843-1.80142-.04843-.90086.21238-1.80171.21238c-.901,0-.901-.01154-1.80205-.01154-.90122,0-.90122-.094-1.80243-.094-.90143,0-.90143-.054-1.80287-.054-.90167,0-.90167.08035-1.80334.08035s-.90154-.06309-1.80308-.06309c-.90134,0-.90134-.003-1.80268-.003-.90116,0-.90116.16737-1.80232.16737-.901,0-.901-.18279-1.802-.18279s-.90087.01841-1.80175.01841-.90077.0381-1.80155.0381-.90069.07229-1.80139.07229-.90065-.05465-1.8013-.05465-.90062-.03476-1.80125-.03476-.90064.06784-1.80127.06784-.90067.023-1.80134.023-.90073-.058-1.80147-.058-.90082.06307-1.80165.06307-.90095-.15691-1.8019-.15691c-.9011,0-.9011.18368-1.8022.18368-.90129,0-.90129-.22738-1.80257-.22738-.9015,0-.9015.05032-1.803.05032-.90175,0-.90175.15546-1.8035.15547s-.90167-.21126-1.80334-.21126c-.90146,0-.90146.0434-1.80292.0434-.90127,0-.90127.24661-1.80255.24661-.90113,0-.90113-.10153-1.80225-.10153s-.901.04694-1.802.04694-.90094-.01366-1.80187-.01366-.9009.07247-1.80179.07247-.90089-.20188-1.80178-.20188-.90092.14248-1.80184.14248-.901-.0115-1.802-.0115-.90111-.07691-1.80221-.07691-.90124.01921-1.80249.01921c-.90144,0-.90144.09676-1.80287.09676-.89825,0-.89825-.22166-1.79649-.22166s-.89828.05834-1.79656.05834-.89836.15989-1.79672.15989-.89849-.04746-1.797-.04746c-.89865,0-.89865-.1183-1.7973-.1183-.89886,0-.89886.07183-1.79773.07183-.89912,0-.89912-.053-1.79824-.053-.89943,0-.89943.0434-1.79886.0434-.89978,0-.89978-.14035-1.79956-.14035-.90019,0-.90019.10124-1.80037.10124-.90064,0-.90064.14466-1.80128.14466-.90115,0-.90115-.08936-1.80229-.08936-.9017,0-.9017.04106-1.8034.04106-.90226,0-.90226-.15732-1.80452-.15732-.90173,0-.90173.189-1.80347.189-.90125,0-.90125.0306-1.80251.0306-.90085,0-.90085-.038-1.80169-.038-.90049,0-.90049-.16859-1.801-.16859-.90019,0-.90019.1604-1.80039.1604-.9,0-.9.01448-1.79992.01448-.89979,0-.89979-.07508-1.79957-.07508s-.89969-.14858-1.79937-.14858-.89964.00733-1.79928.00733-.89967.14335-1.79934.14335-.89977.08952-1.79953.08952c-.89994,0-.89994-.16355-1.79987-.16355-.90018,0-.90018.033-1.80035.033-.9005,0-.9005-.09924-1.801-.09924-.90088,0-.90088.20851-1.80177.20851-.90135,0-.90135-.075-1.80271-.075-.90191,0-.90191.05781-1.80382.05781-.90254,0-.90254.06571-1.80508.06571-.90229,0-.90229-.17989-1.80458-.17989-.90177,0-.90177-.06855-1.80354-.06855-.90135,0-.90135.07042-1.8027.07042-.901,0-.901-.0721-1.802-.0721-.90078,0-.90078.21039-1.80156.21039s-.90065-.00329-1.8013-.00329-.90062-.22089-1.80124-.22089-.90068.08863-1.80137.08863c-.90087,0-.90087.15721-1.80174.15721-.90117,0-.90117-.02054-1.80233-.02054-.90157,0-.90157-.12316-1.80314-.12316-.9021,0-.9021.00885-1.8042.00885-.90275,0-.90275-.03085-1.8055-.03085s-.90264-.0481-1.80528-.0481c-.9021,0-.9021.03184-1.8042.03184-.9017,0-.9017.16778-1.80339.16778-.90144,0-.90144-.16882-1.80288-.16882s-.90132-.03829-1.80264-.03829-.90136.0166-1.80272.0166c-.90156,0-.90156.0939-1.80312.0939-.90192,0-.90192.06992-1.80385.06992-.90245,0-.90245-.07712-1.8049-.07712-.90317,0-.90317-.11241-1.80633-.11241-.90268,0-.90268.0313-1.80536.0313-.9022,0-.9022.151-1.80439.151-.90192,0-.90192-.102-1.80383-.102s-.90184-.0717-1.80368-.0717-.902.20351-1.804.20351c-.90237,0-.90237-.17911-1.80474-.17911-.903,0-.903.13441-1.806.13441s-.9031-.132-1.8062-.132c-.90254,0-.90254.03764-1.80509.03764-.90226,0-.90226.10577-1.80453.10577s-.90229-.08311-1.80458-.08311c-.90261,0-.90261-.11109-1.80523-.11109-.90326,0-.90326.01112-1.80653.01112-.90308,0-.90308.07992-1.80615.07992-.90264,0-.90264-.001-1.80527-.001s-.90258-.06612-1.80515-.06612c-.90294,0-.90294.08348-1.80587.08348-.90362,0-.90362.01623-1.80725.01623-.902,0-.902-.12381-1.80411-.12381-.90105,0-.90105.12774-1.8021.12774-.90057,0-.90057.076-1.80115.076s-.90068-.0689-1.80135-.0689c-.90141,0-.90141.06231-1.80281.06231-.90279,0-.90279.02409-1.80558.02409-.90375,0-.90375-.13867-1.8075-.13867-.90238,0-.90238-.06356-1.80476-.06356-.90187,0-.90187.0331-1.80373.0331-.9023,0-.9023.09058-1.80459.09058-.90375,0-.90375-.07406-1.8075-.07406-.90358,0-.90358.11128-1.80716.11128-.90279,0-.90279-.10182-1.80558-.10182-.9034,0-.9034.14483-1.80681.14483-.90444,0-.90444-.13248-1.80888-.13248-.90343,0-.90343.00525-1.80686.00525-.90449,0-.90449.06462-1.809.06462-.904,0-.904-.04626-1.808-.04626-.90484,0-.90484-.10977-1.80968-.10977-.90429,0-.90429-.0133-1.80858-.0133-.90208,0-.90208.05429-1.80417.05429-.90507,0-.90507.00855-1.81014.00855-.90357,0-.90357.16-1.80715.16-.90479,0-.90479.04786-1.80957.04786-.90581,0-.90581-.26219-1.81162-.26219-.90452,0-.90452.18812-1.809.18812-.90664,0-.90664.08236-1.81327.08236-.9081,0-.90974-.23828-1.81766-.22053C974.67235,32.96137,974.67423,33.0717,973.76613,33.0717Z"/></g></svg>