<svg id="mockup" xmlns="http://www.w3.org/2000/svg" xmlns:xlink="http://www.w3.org/1999/xlink" viewBox="0 0 403.62814 746.82353"><defs><style>.cls-1{fill:none;}.cls-2{clip-path:url(#clip-path);}.cls-3{fill:#698d76;}</style><clipPath id="clip-path"><rect class="cls-1" y="-118.48666" width="415.89802" height="919.64345"/></clipPath></defs><g class="cls-2"><path class="cls-3" d="M-258.86378,798.16005c62.079,7.34007,124.69752-6.91387,184.3214-25.6935,37.23925-11.72918,74.28565-25.44712,106.92492-46.87172,36.40925-23.89924,66.42017-56.79235,103.75494-79.21825,66.30506-39.8275,151.91873-44.48248,210.13269-95.41112,42.497-37.17863,63.80415-97.10162,54.319-152.76382-13.672-80.23207-83.47241-138.95415-155.49993-176.85062-41.77192-21.97782-86.431-39.91366-122.42135-70.45231C58.539,96.48393,27.62329,6.84874-45.03074-35.51721-84.71256-58.65643-131.8186-64.44209-177.4463-69.75086-224.5072-75.22638-272.363-80.6842-319.02469-72.4744c-34.46189,6.06333-67.2192,19.429-98.7638,34.57242-29.99932,14.40161-60.25881,31.4267-79.38662,58.65705-11.43449,16.27815-18.25637,35.41789-22.437,54.86648-28.57642,132.93826,61.84237,268.11586,41.07923,402.49624-4.777,30.91722-15.37065,60.73323-19.7484,91.70951s-1.67256,64.88432,17.39653,89.685c16.26258,21.15057,38.65044,26.25779,59.86848,39.69419,16.67981,10.56255,25.57112,31.53449,40.6667,45.54522C-347.39366,775.33929-303.17206,792.92114-258.86378,798.16005Z"/></g></svg>