<svg id="mockup" xmlns="http://www.w3.org/2000/svg" xmlns:xlink="http://www.w3.org/1999/xlink" viewBox="0 0 258.11765 135.52941"><defs><style>.cls-1{mask:url(#mask);}.cls-2{fill:#fff;}.cls-3{filter:url(#luminosity-noclip);}</style><filter id="luminosity-noclip" x="-56.89499" y="-92.7619" width="364.83047" height="345.40574" filterUnits="userSpaceOnUse" color-interpolation-filters="sRGB"><feFlood flood-color="#fff" result="bg"/><feBlend in="SourceGraphic" in2="bg"/></filter><mask id="mask" x="-56.89499" y="-92.7619" width="364.83047" height="345.40574" maskUnits="userSpaceOnUse"><g class="cls-3"><path d="M142.785,41.97905a2.77664,2.77664,0,0,0-.35569.55922l-.37952.66357c-.137.33119-.192.64422-.12236.69557a4.34847,4.34847,0,0,0,1.01525.31828l.76666.15278c.41169.08662.83969.03931.951-.10512a.99162.99162,0,0,0-.15967-1.02305l-1.05025-.81721C143.12289,42.20012,142.80419,41.98972,142.785,41.97905Z"/><path d="M234.62052,94.71384c-.27617-.04035-.33887.041-.13929.18073s.8327.42477.88588.32593S234.89669,94.75409,234.62052,94.71384Z"/><path d="M97.6725,2.67325a.70644.70644,0,0,0-.48662-.62288c-.25068-.05919-.87575.08284-.77606.37152L97.11566,4.438c.09707.2892.2512.33953.34253.11183A10.45353,10.45353,0,0,0,97.6725,2.67325Z"/><path d="M65.52176,13.8434c.06928-.29617.07722-.56241.01776-.59166a1.07023,1.07023,0,0,0-.65192.33531L63.7689,14.7283c-.21964.24834-.17627.476.09645.50589a3.98878,3.98878,0,0,0,1.15892-.0197A8.61153,8.61153,0,0,0,65.52176,13.8434Z"/><path d="M134.17847,31.61234a.46793.46793,0,0,0,.05914-.20318,1.21965,1.21965,0,0,0-.72016-.22873l-1.56957-.08112c-.392-.02968-.46029.11079-.15172.312l1.16466.71544c.32989.17695.67816.23492.774.12886S134.14367,31.67471,134.17847,31.61234Z"/><path d="M251.80821,32.5929a1.6039,1.6039,0,0,0-.14849.71209.92431.92431,0,0,0,.763.37341l1.91148-.24034c.34367-.07923.49665-.36009.34012-.624l-1.3911-2.50228c-.149-.26692-.38161-.26288-.51693.00886Z"/><path d="M236.72405,79.00141c-.15058-.29764-.34629-.32121-.43479-.05238s-.04974,1.05788.16572,1.1.713-.18787.56572-.4867Z"/><path d="M233.88918,83.28072a.228.228,0,0,0,.20188.21067c.11536.019.41326-.1311.37575-.30985s-.16792-.63183-.23239-.60835-.2535.12826-.26917.17953S233.89357,83.184,233.88918,83.28072Z"/><path d="M197.62605,92.04494a.45768.45768,0,0,0,.76038-.112c.15643-.30469.37356-1.1926.09447-1.296s-1.09477-.27139-1.21922-.10941A2.32935,2.32935,0,0,0,197.62605,92.04494Z"/><path d="M10.10471,38.21793a4.6018,4.6018,0,0,0-.49268.41445c-.02215.03622.242.2185.63594.32448l2.04313.53411c.39206.1107.51786-.02719.27973-.30633l-.994-1.074C11.30073,37.8563,10.35361,38.02636,10.10471,38.21793Z"/><path d="M197.05792,71.14a.73406.73406,0,0,0-.68254.70649c.03009.32843.33166,1.19992.48369,1.14642a8.91624,8.91624,0,0,0,1.16676-.59691l.83354-.54417c.32706-.20611.574-.44792.54858-.5372a1.10924,1.10924,0,0,0-.84409-.28577Z"/><path d="M230.22109,14.568a.54069.54069,0,0,0-.63521.05092l-.40731.43011a.37713.37713,0,0,0,.10125.541l.7722.5126a.538.538,0,0,0,.63134-.07647l.33229-.37764a.41584.41584,0,0,0-.09175-.563Z"/><path d="M8.80744,42.60073c-.29958-.08637-.55966-.05962-.57815.05944a.8579.8579,0,0,0,.28662.64524c.19717.10839.8492.273.94847.1416S9.107,42.68709,8.80744,42.60073Z"/><path d="M19.82832,4.38628a5.53574,5.53574,0,0,0-.87637.05979c-.04274.02365-.12529.12782-.104.17987a1.85067,1.85067,0,0,0,.9025.18907l1.23708.0111c.43939-.0062.761-.0751.71472-.1532A1.86519,1.86519,0,0,0,20.694,4.38878Z"/><path d="M61.00572,39.248c-.01463.16052.01306.26951.06154.24224a.51951.51951,0,0,0,.124-.39467C61.1566,38.95815,61.02024,39.08744,61.00572,39.248Z"/><path d="M49.94983,44.85371c-.35412-.03879-.47157.16474-.26113.45231,0,0,.1791.2338.42079.49058s.538.2781.6583.04722S50.304,44.8926,49.94983,44.85371Z"/><path d="M153.80406,6.978a1.807,1.807,0,0,0-.38077.56542c-.04733.147.182.49815.60658.4308l1.52151-.24551c.42539-.0634.51588-.31492.20115-.55888a5.80608,5.80608,0,0,0-.63772-.40387A1.59123,1.59123,0,0,0,153.80406,6.978Z"/><path d="M47.25456,43.36133a.853.853,0,0,0-.33594-.57884,2.90322,2.90322,0,0,0-1.17042-.46l-1.06247.1188c-.26008.02193-.49373.11759-.51912.21256a.7149.7149,0,0,0,.326.56542l2.02725.98314c.23176.0997.466.12.52058.045A3.862,3.862,0,0,0,47.25456,43.36133Z"/><path d="M167.60579,35.606a.46331.46331,0,0,0,.08976.60061l.96488.79535c.18715.13979.39414.22262.46008.18409a1.86162,1.86162,0,0,0,.38056-.39768c.08286-.13428.16238-.64447-.00261-.802l-.90783-.82176a.46381.46381,0,0,0-.61337.02692Z"/><path d="M197.48718,112.01035a.421.421,0,0,0,.0791.626c.21212.16946,1.14523.34924,1.41179.12378l.80459-.71767c.24357-.24259.13134-.46383-.24942-.4917l-.73155-.09161A2.56353,2.56353,0,0,0,197.48718,112.01035Z"/><path d="M116.3398,72.276c.0024.30047.249.40542.54816.233l.6025-.30245a1.04751,1.04751,0,0,0,.54754-.68611c.0022-.205-.24378-.784-.52194-.80868s-1.08452.29995-1.1142.59948Z"/><path d="M54.617,130.28217c-.17325.261-.23.47691-.126.47966a2.10172,2.10172,0,0,0,.8514-.36559l.82549-.6874c.24263-.22039.32267-.50391.178-.63s-.7955-.16895-.9654.0935Z"/><path d="M121.88979,7.52779a.33119.33119,0,0,0,.26468.31991l.37888.08421a.39187.39187,0,0,0,.40648-.17875l.40146-.92559c.04535-.13144.08286-.24327.08317-.24834a1.69883,1.69883,0,0,0-.27648-.11553l-.77095-.22486a.251.251,0,0,0-.3235.18443Z"/><path d="M254.1155,115.63375c-.04891-.0172-.2512.18409-.44963.44739l-.42309.534c-.181.27174-.21432.56095-.074.64283s.63186.02409.71754-.27767l.23584-.73411A.8042.8042,0,0,0,254.1155,115.63375Z"/><path d="M218.85413,43.76c-.36938-.04095-.63134.13041-.582.38081s.48317.87553.8375.78031l1.33363-.3674c.357-.08835.645-.20155.64012-.25161a1.27243,1.27243,0,0,0-.68515-.29506Z"/><path d="M16.33087,68.48408c-.34482.07527-.64879.20576-.67544.29s.16991.39845.48056.5021,1.24147.10925,1.26864-.13686S16.6758,68.40872,16.33087,68.48408Z"/><path d="M103.12793,79.30283c-.08851.25832.19884.46537.63855.46013l1.23906-.05592c.43971-.00284.50512-.1754.14514-.38348l-.94-.52456C103.82865,78.61982,103.21643,79.04442,103.12793,79.30283Z"/><path d="M25.34132,132.711c-.18547.31217-.25538.60568-.15548.65222a1.41955,1.41955,0,0,0,.92966-.28688l1.5584-1.33677c.275-.26349.31149-.62392.081-.801s-1.15516-.2929-1.33635.02091Z"/><path d="M224.429,102.221a4.40334,4.40334,0,0,0-.15966-.60146c-.09029-.289-.52873-1.08628-.81327-1.10925s-1.07762.28086-1.07616.62331l-.00846,1.58624c.02058.34193.32674.47415.68024.29376l.71211-.3304A2.00084,2.00084,0,0,0,224.429,102.221Z"/><path d="M118.13528,120.77637a4.92287,4.92287,0,0,0,.80344-.33428,1.0346,1.0346,0,0,0-.31431-.68086l-.88035-1.05677a1.29353,1.29353,0,0,0-1.14638-.35639c-.36906.09144-1.24408.6874-1.10521,1.02778l.58,1.29385a1.00458,1.00458,0,0,0,1.08953.39071Z"/><path d="M11.78275,95.68a3.86206,3.86206,0,0,0,.50449-.033c.021-.0111.10261-.05334.13469-.06925a.61432.61432,0,0,0-.08966-.4511c-.11327-.21634-.62141-.81015-.88223-.80223s-.92684.23767-.85537.46615A2.50751,2.50751,0,0,0,11.78275,95.68Z"/><path d="M99.48032,55.70644a1.22993,1.22993,0,0,0,.92078.20723l1.75484-.16172c.39059-.04551.64493-.2043.56509-.353a1.65813,1.65813,0,0,0-1.10584-.4837l-1.70322.17256C99.52211,55.137,99.3659,55.55616,99.48032,55.70644Z"/><path d="M71.88073,67.84554c-.05006.11286.04263.27088.20605.35122s.6977.11923.75747-.06322.08244-.67811-.10544-.67243A1.932,1.932,0,0,0,71.88073,67.84554Z"/><path d="M184.95691,109.08037c-.00429.012.01191.02133.03615.02073s.06238-.0129.04587-.02288S184.96119,109.06833,184.95691,109.08037Z"/><path d="M76.46406,111.95177c-.1256.29987-.04953.54254.169.53935a2.25052,2.25052,0,0,0,1.11284-.36714c.17325-.20628.442-.91406.22654-1.0572s-1.00009-.20456-1.12736.0948Z"/><path d="M81.19609,120.95641c-.1372.11278-.12278.46994.03229.79372l.31149.72241c.14838.32585.39853.57686.55589.55794a.86976.86976,0,0,0,.5257-.74891l-.11839-1.14013c-.06039-.34434-.21608-.62632-.34607-.62658A3.75125,3.75125,0,0,0,81.19609,120.95641Z"/><path d="M226.587,124.29405a.8485.8485,0,0,0-.795.64774l-.36561,2.51845c-.05434.32585.084.6369.30752.691s.976-.073,1.13332-.3754l1.63237-3.08231c.145-.3065-.06133-.529-.45872-.49463Z"/><path d="M50.04847,80.54334c-.30543-.04765-.55161.11192-.54681.3545s.04964.95329.0535.97712a.74643.74643,0,0,0,.3559.1575,3.5685,3.5685,0,0,0,.953.03673c.132-.0486.43113-.33393.3862-.53875A2.85907,2.85907,0,0,0,50.04847,80.54334Z"/><path d="M86.22174,94.61775c.32382-.17523.5164-.42417.4281-.5532a.72718.72718,0,0,0-.8631-.0234L84.50723,95.2371c-.25862.23751-.46823.43243-.46561.43321a.34926.34926,0,0,0,.06562-.014c.03082-.00921.38233-.17316.71107-.34211Z"/><path d="M82.64529,65.91367c.084-.1305-.08245-.449-.3698-.708s-1.39256-.6443-1.63164-.34727L78.53008,67.3498c-.23751.2978-.25507.67337-.03887.8345a1.78384,1.78384,0,0,0,1.439.12989l1.8704-1.45334A6.96887,6.96887,0,0,0,82.64529,65.91367Z"/><path d="M37.71141,110.58067c.19195.09325.48139-.05487.64325-.32928l.633-.98495c.15967-.27527.17753-.56637.0396-.6468a.92346.92346,0,0,0-.8933.19519l-.71786.91432C37.23231,109.994,37.51956,110.48742,37.71141,110.58067Z"/><path d="M34.656,123.48372a5.0221,5.0221,0,0,0,.71483.05575,4.96828,4.96828,0,0,0-.03072-.63088l-.04942-.64121a1.00169,1.00169,0,0,0-.77094-.72309l-1.80479-.37265a.54865.54865,0,0,0-.71128.45781l-.0232.9107a.84314.84314,0,0,0,.74326.67605Z"/><path d="M182.69361,104.74231c.02832.34253.23061.62589.44963.62959s.65778-.41815.47356-.72611l-.60762-.99131c-.18287-.30856-.337-.28017-.34243.06314Z"/><path d="M19.19312,87.88605c-.065.18865.15548.2283.48975.088l.46562-.19733c.33458-.13987.43186-.30976.21619-.37764A1.87523,1.87523,0,0,0,19.19312,87.88605Z"/><path d="M213.1498,109.39942a.42594.42594,0,0,0-.50093.14951c-.11181.158-.2024.60525.0418.589a2.88264,2.88264,0,0,0,.8818-.15759A1.16689,1.16689,0,0,0,213.1498,109.39942Z"/><path d="M232.60737,97.28967c-.09414.24748-.17136.452-.17157.45453s.29352-.00662.65276-.02581a6.38554,6.38554,0,0,0,1.29685-.16395c.04754-.0671-.05517-.37979-.32737-.534S232.70152,97.04218,232.60737,97.28967Z"/><path d="M77.98578,106.69233c-.03051.30606.20261.42236.518.25832l1.09925-.67312c.30491-.177.28391-.43845-.0466-.58081l-.728-.2702a.52491.52491,0,0,0-.7072.39183Z"/><path d="M163.10877,120.28992c-.26708-.1126-.51839.06658-.5583.39811l-.25779,1.79423c-.04618.331.068.56465.25371.51906a1.74,1.74,0,0,0,.86478-.74305l.37659-.93833C163.90521,121.001,163.376,120.40252,163.10877,120.28992Z"/><path d="M195.33213,129.52587c-.15214.27037-.17889.55175-.05956.62538a1.63,1.63,0,0,0,.5907.09978,1.44154,1.44154,0,0,0,.21285-.59165l.18495-1.23149c.0489-.29513-.05079-.32172-.22153-.05909Z"/><path d="M157.25314,113.37594a2.28,2.28,0,0,0,.96592.14022,4.73573,4.73573,0,0,0,1.47585-.23811,2.36768,2.36768,0,0,0,.08986-.63518.682.682,0,0,0-.732-.2296l-1.68514.44689A.277.277,0,0,0,157.25314,113.37594Z"/><path d="M250.88136,28.263a.91483.91483,0,0,0-.39289.95707s.48819,1.58159.9909,2.75648c.19509.45625.35924.81754.35924.81754a.50387.50387,0,0,0,.733.26142c.26227-.16619.873-1.02348.77794-1.34511l-1.04482-3.30323a.67132.67132,0,0,0-.81336-.40172A3.01617,3.01617,0,0,0,250.88136,28.263Z"/><path d="M34.48124,135.27916c-.17314.09592-.30114.20981-.28453.25316a.96473.96473,0,0,0,.328.283,2.3344,2.3344,0,0,0,.87941.19312l.82339-.18572a.4347.4347,0,0,0,.33386-.41049l-.17889-.73333a.30948.30948,0,0,0-.44347-.12792Z"/><path d="M11.9863,117.52381c.11306-.24267-.0907-.57454-.45256-.73737a8.77347,8.77347,0,0,0-1.258-.47682c-.04461.02813.03166.36275.26489.67209l.60282.81771C11.39832,118.097,11.87334,117.76648,11.9863,117.52381Z"/><path d="M185.99859,110.09336a.34983.34983,0,0,0,.46436-.39527c-.028-.28834-.24744-1.0049-.46875-.94021s-.81337.32172-.84461.46236S185.71521,110.02239,185.99859,110.09336Z"/><path d="M160.47985,132.092c.354-.03114.38882-.17264.07722-.31457l-1.25422-.53928c-.32538-.11914-.6142-.03209-.64179.19347s.2162.84817.57043.81806Z"/><path d="M138.83547,103.08932a1.35265,1.35265,0,0,0-.25308.02314,1.11121,1.11121,0,0,0-.58536.66606l-.46227,1.94263a2.16888,2.16888,0,0,0-.10941.61282,1.66574,1.66574,0,0,0,.327-.56027l.9096-2.08034A1.97138,1.97138,0,0,0,138.83547,103.08932Z"/><path d="M168.52083,87.59444c-.16708.20018.02079.42839.41745.50718l.80229.11536c.39644.07939.53688-.064.31211-.31863S168.68781,87.39435,168.52083,87.59444Z"/><path d="M120.34665,110.68037c-.17753-.04766-.37722.20586-.44367.56336l-.41087,1.864c-.07063.3569-.04817.67484.05.70649s.4606-.17935.574-.52877l.64242-1.76843A.80628.80628,0,0,0,120.34665,110.68037Z"/><path d="M137.90988,126.33017c-.13051-.04412-.43719.13764-.68139.40388l-.4698.49333c-.2512.26176-.41838.51492-.37147.56258a.938.938,0,0,0,.69592-.26581l.77847-.60636C138.14374,126.67822,138.0405,126.3743,137.90988,126.33017Z"/><path d="M110.52419,134.17645a.67892.67892,0,0,0-.605.56207l-.17962,1.00937a4.88175,4.88175,0,0,0-.03365.58211c.00961.00267.317-.10753.66217-.2511l.82423-.30348c.34932-.13643.57356-.43346.49832-.66A2.59745,2.59745,0,0,0,110.52419,134.17645Z"/><path d="M8.97985,83.92657a.75967.75967,0,0,0-.591.4215,3.80287,3.80287,0,0,0-.38307.87063,1.20438,1.20438,0,0,0,.62465-.32164l.57262-.5058C9.43293,84.16382,9.17275,83.93861,8.97985,83.92657Z"/><path d="M122.33691,83.88812a.92822.92822,0,0,0-.98641.14709l-.82945.72818c-.255.25316-.17064.51354.18745.57866a3.6089,3.6089,0,0,0,1.67815-.07432C122.58748,85.0765,122.60221,84.0439,122.33691,83.88812Z"/><path d="M131.71455,123.82093c-.09-.00232-.254.24051-.36447.53961l-.28213.74968c-.09279.30314-.0674.57368.05643.60112a2.84129,2.84129,0,0,0,.57711.03045,1.023,1.023,0,0,0,.22121-.62237l.06593-.70529C132.01078,124.10205,131.80452,123.82325,131.71455,123.82093Z"/><path d="M30.21253,92.56855c-.19153.24911-.03072.5015.35737.56094l1.51346.18916c.38756.06151.49487-.09032.23855-.33737l-.85955-.78684C31.17438,91.97216,30.40407,92.31943,30.21253,92.56855Z"/><path d="M257.87366,92.27926c-.35141.16369-.57387.48412-.49446.712s.62507.85866,1.02841.87389l2.56528.01445a3.11933,3.11933,0,0,0,1.05046-.20852c.1745-.09617.56018-.6043.4723-.92877l-.4886-1.81514a.54165.54165,0,0,0-.80835-.26426Z"/><path d="M101.6619,8.25948a.67033.67033,0,0,0-.97115.11295L99.881,9.45174c-.2118.313-.035.6228.39279.68835l2.44375.349a1.53883,1.53883,0,0,0,.871-.0037.96177.96177,0,0,0-.3233-.771Z"/><path d="M242.74122,3.7646a.55466.55466,0,0,0-.787.32542l-.64942,2.30125c-.08213.31716.17189.55484.56447.52809l.93541-.04422a1.62122,1.62122,0,0,0,1.09591-.52533l.68735-.96319a.602.602,0,0,0-.25945-.8492Z"/><path d="M104.43658,75.58016a3.22017,3.22017,0,0,0-.29216.50658.56889.56889,0,0,0,.1929.56293,4.48082,4.48082,0,0,0,.97668.31019c.12132-.00662.49174-.17505.55559-.36662l.563-1.51906c.06844-.19045.02832-.38916-.08913-.44163a2.521,2.521,0,0,0-.65976-.15922,1.413,1.413,0,0,0-.66248.33634Z"/><path d="M66.02081,37.51591c.31494.18254.59686.11664.62633-.14632a2.46479,2.46479,0,0,0-.3187-1.38994l-1.18881-1.12094c-.25977-.23415-.49268-.1668-.51755.14959L64.503,36.0778a1.07921,1.07921,0,0,0,.5513.89394Z"/><path d="M40.17282,60.04614c-.14838-.04559-.30606-.01238-.35047.07389a.47677.47677,0,0,0,.22027.48766l.19269.06409.14712.04782c.16928.05188.30543.00757.30251-.0984A1.35307,1.35307,0,0,0,40.17282,60.04614Z"/><path d="M128.78146,91.75143a1.1399,1.1399,0,0,0-.72455.16017c-.16019.12-.47868.56507-.35287.69076a1.057,1.057,0,0,0,.99445.04206C128.93119,92.44381,129.0198,91.78334,128.78146,91.75143Z"/><path d="M56.65007,74.76838c.17346.0695.45475-.14633.62517-.47966l.99205-1.89316a2.24725,2.24725,0,0,0,.26583-.61918,2.31678,2.31678,0,0,0-.56551.50383L56.534,73.91066A.63954.63954,0,0,0,56.65007,74.76838Z"/><path d="M120.3943,42.01492a1.91173,1.91173,0,0,0,.596-.06761c.25308-.05884.92935-.37523.939-.596l.04785-.75983a.59438.59438,0,0,0-.45109-.5274l-.79435-.18864a.38569.38569,0,0,0-.49675.315l-.10042,1.33867A.63.63,0,0,0,120.3943,42.01492Z"/><path d="M80.45085,36.37415c-.28861.23982-.41556.48137-.28223.53677a2.18306,2.18306,0,0,0,1.069-.00757c.32278-.11991,1.1073-.65711,1.00041-.85368s-.7536-.50382-1.03907-.2615Z"/><path d="M160.37484,84.883a3.87949,3.87949,0,0,0-.13135.66383l-.1722.94787c-.04828.32439.06426.62589.24994.66994a1.31889,1.31889,0,0,0,1.022-.41557l.53855-1.01643a.52957.52957,0,0,0-.27283-.7379A4.3534,4.3534,0,0,0,160.37484,84.883Z"/><path d="M30.19247,49.24262a.50371.50371,0,0,0,.73186-.30237l.16656-.61643a.71036.71036,0,0,0-.32528-.74417,9.49475,9.49475,0,0,0-.98923-.362,1.07621,1.07621,0,0,0-.473.42529c-.142.23518-.19969,1.06658.11881,1.22951Z"/><path d="M47.48016,122.659c-.0187.04937.17241.232.42465.40585a3.90937,3.90937,0,0,0,1.141.507,4.82131,4.82131,0,0,0,.4303-.442c.10941-.13385.02445-.53282-.41462-.553l-.71744-.0437A1.66262,1.66262,0,0,0,47.48016,122.659Z"/><path d="M247.0184,44.65888c-.08955.0092-.09436.2701-.01077.57978l.15026.54434c.08245.30985.15068.31416.15172.00947A2.69729,2.69729,0,0,0,247.0184,44.65888Z"/><path d="M251.09191,42.2815a2.90446,2.90446,0,0,0-.77878-.04086,2.6016,2.6016,0,0,0,.66969.44861l2.97594,1.47173a.83542.83542,0,0,0,1.02559-.23165c.18129-.29437.20491-1.21927-.22487-1.26331Z"/><path d="M80.23748,11.68675c-.39321-.13574-.53835-.063-.32257.16164s.97878.75965,1.11859.66288S80.63079,11.82249,80.23748,11.68675Z"/><path d="M126.814,101.6476a.77238.77238,0,0,0,.24169.94976l.59581.43131a1.03416,1.03416,0,0,0,1.10657-.031c.29477-.22245.77805-1.15613.52727-1.41368l-.99738-.91269a.5944.5944,0,0,0-.87752.1108Z"/><path d="M224.07779,108.40355c-.34461-.19561-.67773-.28275-.74032-.19354a3.13061,3.13061,0,0,0-.25047.52008,1.22049,1.22049,0,0,0,.49613.74933l1.57083,1.08293c.33092.211.71817.28619.86059.16705a2.65757,2.65757,0,0,0,.4536-.62288,1.48253,1.48253,0,0,0-.58254-.59346Z"/><path d="M9.10692,3.80744a5.339,5.339,0,0,0,.67585.07811l1.00605.08929c.36823.0123.68223-.1052.6978-.26116a3.47849,3.47849,0,0,0-.0256-.59992c-.01118-.00249-.32717.07037-.67659.1668L9.72405,3.586A2.89365,2.89365,0,0,0,9.10692,3.80744Z"/><path d="M188.81852,74.20554c-.23323.02873-.30606.32172-.162.65109l.65245,1.64078c.151.32731.41933.59.59623.58383a5.0843,5.0843,0,0,0,.70459-.09282,2.06561,2.06561,0,0,0,.1557-.70641l.01473-1.05393a.99336.99336,0,0,0-.40971-.79183A6.96447,6.96447,0,0,0,188.81852,74.20554Z"/><path d="M121.59522,48.27522c.21076.0775.39289.1403.4047.13935a3.924,3.924,0,0,0,.40219-.383c.1977-.20912.5768-.8726.444-.93015a3.12881,3.12881,0,0,0-.9956-.13445,2.52192,2.52192,0,0,0-1.01493.33746c-.07.13032-.10355.567.08955.66348Z"/><path d="M58.9445,13.36581c.29812-.20912.49112-.47063.42894-.58108a1.10518,1.10518,0,0,0-.92214-.23217l-1.34491.36069a.60475.60475,0,0,0-.46844.7218c.10459.2745.72455.84379,1.0142.62684Z"/><path d="M62.69316,17.38757c-.01683.11148.25088.37557.59477.58667A8.93662,8.93662,0,0,0,65.31779,18.8c.38359.0332,1.32987-.02521,1.35892-.19957a1.334,1.334,0,0,0-.58913-.995L63.97319,16.5486c-.38485-.1772-.78359-.21411-.8862-.082A4.73369,4.73369,0,0,0,62.69316,17.38757Z"/><path d="M217.76292,41.64658c.07983-.11794.14712-.22039.14942-.22779a4.80636,4.80636,0,0,0-.62026-.12688c-.34577-.05505-.90438-.02572-.69414.13643S217.68309,41.76442,217.76292,41.64658Z"/><path d="M243.88165,102.027a.60271.60271,0,0,0,.54472-.62443,2.4143,2.4143,0,0,0-.629-1.05566,1.49478,1.49478,0,0,0-.91482.3299l-1.09759,1.23707c-.223.22994-.11463.39217.24075.36043Z"/><path d="M160.41245,2.06611c-.36614-.04164-.7188.09307-.78369.29935s.16458.84972.53051.908l.99571.158c.36958.03966.64973-.108.62266-.32808A2.87329,2.87329,0,0,0,160.41245,2.06611Z"/><path d="M246.51453,67.48683a9.44053,9.44053,0,0,1-.929.17l-4.12462.57626a2.73486,2.73486,0,0,0-.69487.1372.57972.57972,0,0,0,.23385.21084,2.77109,2.77109,0,0,0,1.15119.094l4.63213-.943c.37921-.07054.613-.1674.51954-.21531A2.37434,2.37434,0,0,0,246.51453,67.48683Z"/><path d="M250.272,57.32829a.99969.99969,0,0,0,1.08035-.10339c.21379-.23329.28359-.97833-.15256-.996l-2.3773-.09505c-.43563-.02461-.5001.12473-.14315.33187Z"/><path d="M29.12143,5.89484c.00888-.1077-.15371-.21187-.36144-.2314a2.457,2.457,0,0,0-1.26216.401L23.94541,9.51764a.50009.50009,0,0,0-.00627.77969c.2465.17343,1.313.25549,1.54993-.00825l3.16632-3.49721A2.70343,2.70343,0,0,0,29.12143,5.89484Z"/><path d="M255.65957,85.27771c.18715-.20344.14943-.43114-.0839-.506a5.60718,5.60718,0,0,0-1.38484-.214c-.26645.03863-.63249.36215-.37136.57608l.58536.452C254.6971,85.77044,255.47243,85.48115,255.65957,85.27771Z"/><path d="M82.74842,15.71471a.62382.62382,0,0,0-.8746.08722l-.65527.69084c-.22862.2671-.20867.56043.04441.65187a2.38688,2.38688,0,0,0,1.34774.05712C82.84884,17.033,82.99816,15.93226,82.74842,15.71471Z"/><path d="M67.90282,49.75789c.02633-.15364-.20376-.40542-.51128-.55949L65.51329,48.314a.84252.84252,0,0,0-.92768.1821c-.18892.2339-.25538,1.02306.09373,1.09549l2.47417.56808A.73692.73692,0,0,0,67.90282,49.75789Z"/><path d="M112.84934,23.86989a.13714.13714,0,0,0-.052-.00766c-.00523.0025.01274.01463.04138.01884S112.87275,23.8766,112.84934,23.86989Z"/><path d="M182.86613,70.88735c-.28036.17548-.22477.44619.12351.60146l1.54282.64688c.35036.15208.50491.033.34326-.26469l-.5862-.96249C184.0844,70.62954,183.14658,70.71178,182.86613,70.88735Z"/><path d="M150.362,120.16347a2.66333,2.66333,0,0,0-.80866-.11639c-.33626-.00766-1.29988.24163-1.36206.59011l-.307,1.448c-.06186.34847.23667.613.66331.5877l1.04691-.036a.90223.90223,0,0,0,.87345-.66237l.17523-.95983A1.09178,1.09178,0,0,0,150.362,120.16347Z"/><path d="M205.07758,66.78825a1.18328,1.18328,0,0,0,.664-.08964,2.569,2.569,0,0,0,.62894-.62984,1.30867,1.30867,0,0,0-.1233-1.05755l-.67-.59914c-.27293-.20809-.61817-.29574-.76718-.19493a3.18411,3.18411,0,0,0-.73562.92792l-.30951.72267c-.12591.28808-.12424.56653.00377.61866S204.85042,66.7541,205.07758,66.78825Z"/><path d="M202.41962,9.982c.09258.00026.33051-.00327.52873-.00783s.83113-.02348.94064-.03019a1.42636,1.42636,0,0,0,.70751-.58065c.17241-.30864.3977-1.21325.093-1.26606a2.50821,2.50821,0,0,0-1.57992.38469l-.65652.93806C202.25964,9.724,202.327,9.98163,202.41962,9.982Z"/><path d="M65.63471,8.68211c-.42152-.06882-.79633-.0542-.833.0326a1.0488,1.0488,0,0,0,.49509.7206l2.0006,1.19673a.61407.61407,0,0,0,.89309-.23234c.13062-.32034.06082-1.32525-.36248-1.38667Z"/><path d="M193.5357,80.61328c-.03354.20017.28861.34039.716.31166l1.16373-.08327c.42758-.02555.46071-.17058.07367-.32233l-.92528-.32851A1.00609,1.00609,0,0,0,193.5357,80.61328Z"/><path d="M152.38464,62.4329a1.21314,1.21314,0,0,0,.46019,1.036,5.0085,5.0085,0,0,0,1.922.69858l3.34845-.24318a1.61886,1.61886,0,0,0,1.13949-.59811c.199-.30494.48683-1.4006.25161-1.69566l-1.02015-1.18116a1.83188,1.83188,0,0,0-1.25035-.48138l-3.424.10934a1.35267,1.35267,0,0,0-.93876.29617,4.844,4.844,0,0,0-.37732,1.204Z"/><path d="M245.77943,1.17622c.43448.03509.79331-.12052.79738-.34572s-.33249-.83312-.76906-.82934L243.0804-.03178c-.43656-.00792-.77522.12688-.75255.29961a1.12321,1.12321,0,0,0,.85882.681Z"/><path d="M253.72637,61.83548c-.36771.05419-.68526.28309-.70564.50864s.14974.87948.317.92138a3.30569,3.30569,0,0,0,1.236-.08861l1.762-.609c.347-.1138.58087-.33385.51964-.48912a1.13772,1.13772,0,0,0-.90261-.49711Z"/><path d="M185.63914,57.22292a.63656.63656,0,0,0,.38338.84714l2.70571,1.16843a1.50184,1.50184,0,0,0,.72131.21049,1.016,1.016,0,0,0-.3233-.65823l-2.22735-2.24052a.55832.55832,0,0,0-.85892.06718C185.84175,56.90438,185.63914,57.22292,185.63914,57.22292Z"/><path d="M214.94707,124.52734c-.382.106-.37994.27406.0047.37359l2.03373.444c.39456.068.69278-.11715.66279-.41161s-.55025-1.06314-.93228-.95715Z"/><path d="M55.33274,47.19462c-.25141-.01437-.49321.05084-.5373.14477a.55239.55239,0,0,0,.16907.54022c.17387.09952.77136.17652.86989.01686S55.58425,47.209,55.33274,47.19462Z"/><path d="M210.635,65.77543c.04264-.316-.0118-.594-.121-.6178a.96628.96628,0,0,0-.68.47638l-.75611,1.561c-.12716.30021-.0302.54193.21557.53711a3.09185,3.09185,0,0,0,1.02632-.19922,4.28177,4.28177,0,0,0,.20867-.88964Z"/><path d="M248.90793,11.23385c.35381.03819.48212-.131.28505-.376l-.96676-1.01634a.8265.8265,0,0,0-.94858-.05067l-.9305.714a2.75458,2.75458,0,0,0-.40951.42443,4.01216,4.01216,0,0,0,.68641.11053Z"/><path d="M118.85743,67.29543a1.32948,1.32948,0,0,0-.1698-.61815,2.642,2.642,0,0,0-.84054.18684l-2.27155.989c-.35329.142-.33594.33875.03866.43725l2.58127.58632c.38526.06451.69613-.14761.69059-.47131Z"/><path d="M187.82647,87.07814a.96477.96477,0,0,0,1.01744.27742l1.86-.47656c.41044-.13084.43615-.38865.05705-.57273l-1.27355-.67768a1.22494,1.22494,0,0,0-1.10312-.056A2.34663,2.34663,0,0,0,187.82647,87.07814Z"/><path d="M249.17062,43.12313c.36374-.05393.39926-.22227.07889-.374l-.90135-.39191c-.33876-.12172-.65955-.03845-.713.1852s.13354.82779.49738.77471Z"/><path d="M230.413,40.54318c-.35162.00989-.39383.12748-.09362.26133s1.18347.34435,1.21127.21282S230.76466,40.53329,230.413,40.54318Z"/><path d="M184.34343,63.07006a.56972.56972,0,0,0,.41055-.71467l-.31932-.93437a.59225.59225,0,0,0-.78244-.29453l-1.18358.40215a.44959.44959,0,0,0-.29624.68008l.51546.849a.74422.74422,0,0,0,.87732.27079Z"/><path d="M155.59077,17.52271c.03219.199.38736.32284.78913.2751s.93342-.30065.582-.45016-1.35934-.48464-1.36373-.47948A3.51134,3.51134,0,0,0,155.59077,17.52271Z"/></g></mask></defs><g class="cls-1"><path class="cls-2" d="M25.15668,134.93832l.14259-2.09385.76115-1.76076-.46694-.72708L25.266,128.9329l.14748-1.49178-.40962-1.40974-.73486-1.27455-.08643-1.62775L22.752,122.302l-.69371-1.31028-.7981-1.28707-1.39352-.65227L18.642,118.259l-.9164-1.30966-1.37048-.60612-1.468-.34161-1.46141-.254-1.31836-.695-1.46533-.16883L9.26479,114.133l-1.53536.60259L6.28027,114.203l-.8617.1141-1.48325-.26246-1.47415.09913L.83558,114.519l.38154-1.43488-.24809-1.428.37358-1.42777-.46477-1.42858-.07556-1.4288-.25941-1.42956.54323-1.42991L.96836,103.0801l-.11225-1.43117.24559-1.43008L.93021,98.78914l.28871-1.429L.67371,95.93079l.7144-1.42863L.74442,93.07238l.01077-1.42995.64635-1.4304-.26581-1.43209.137-1.43108-.151-1.43048.33647-1.42974L.99623,83.05853l.00632-1.43007L.56687,80.19753l.40193-1.4314L.95665,77.3343l.5129-1.43063-.666-1.43092L.93215,73.0423.59086,71.611l.87533-1.42477-.129-1.42581.00116-1.42674L.98854,65.90513l.13535-1.43055L.95675,63.04121l.00033-1.43087L.70567,60.18092l.63094-1.42812.14423-1.42859L1.01409,55.8941.58052,54.4618l.91464-1.433L1.354,51.59735l.12125-1.43048-.717-1.43169.24232-1.4334.18559-1.43317-.0292-1.432L.76874,43.00333l.75747-1.43417-.6971-1.43348.552-1.43438L1,37.26714l.49529-1.435-.41163-1.43148.31019-1.43107.01908-1.436-.66729-1.434L.632,28.664l.635-1.43678L.83931,25.79181l.0083-1.43847.44045-1.44053.21229-1.42774,1.02209-.30847,1.44351.3889,1.45027.16581.864-.09726,1.50035.45017L9.244,21.69384l1.37862-.69629,1.455-.17965,1.43793-.30924,1.47808-.26722,1.238-.85415,1.4869-.36886,1.18648-.91786,1.2191-.859,1.14327-.96273L22.314,15.2086l.93857-1.16911.5273-1.42967.37495-1.44161,1.14826-1.11853-.244-1.59.34135-1.39628.83386-1.4372L25.5406,4.9297l-.23509-1.18687L25.13045,2.5491l.41267-1.20778,1.421.0785,1.43583.34269,1.43593.04151,1.436-.21592,1.43621-.19529L34.14452,1.43,35.58116.8628l1.43691.37568L38.45528.99662l1.43756.17808,1.43794.363,1.43773-.2692,1.43741.54,1.43713-.104,1.43687-.39632L48.51659.85843l1.43651.94168,1.43639-.44758,1.43167.013,1.43211.41609,1.43259-.3651,1.43311.33183,1.43369-.15592L59.987.82453l1.435.8756,1.43569-.31422,1.43645-.125,1.43726.07758,1.43813.33988,1.4379-.74672,1.43719.4831,1.43652.1,1.4359.2187,1.43535-.11728,1.43485-.20985,1.4344.07276,1.434-.30528,1.4337.38029,1.43343.00269,1.43324.24094L84.38905,1.725l1.433-.38976,1.433.07264,1.43307.08173,1.4332-.33031,1.43339.57168,1.43366-.19673,1.434-.39622,1.43441.64538,1.4349-.92371,1.43546.52553,1.43611-.18955,1.43684-.1944,1.43763.6538,1.43853-.53066,1.43942-.04755,1.43857.59588,1.43782-.69247,1.43716-.04391,1.4366.194,1.43612.35481,1.43574-.25178,1.43548.53515,1.4353-.68118,1.43525-.02917,1.43528.72765,1.43544-.80822,1.43571.09952,1.43609-.07831,1.4366.10022,1.43722-.24991,1.438.9562,1.43886-.178L131.77679.8627l1.43946.59576L134.65489.9878l1.438.60335,1.43744-.59343,1.43706-.15528,1.43685.79183,1.4368-.548,1.43691-.21744,1.4372.08215,1.43767.32432L147.5911.90537l1.43916.644,1.4402-.20386,1.44.38066,1.43916-.69592,1.43852.45274,1.43811-.36765,1.43792.36665,1.438-.49379,1.4383.397,1.43888-.40644,1.43973.35819,1.44086.35365L166.3,1.72928l1.43931-.69006,1.43887.28334L170.617.97315l1.439.68621,1.43959-.49586,1.44058.3935,1.44076-.00177,1.43987.12061,1.43943-.22306,1.43946-.35112,1.44.53725,1.4342-.70372,1.43463.83843,1.43564-.3574,1.43727-.55159,1.43957.64479,1.44221.309,1.43979-.311L193.63711.8433l1.43743.60435,1.43759.216,1.43874-.29862,1.441-.38163,1.4425.00122,1.44031.311,1.43948.4832,1.44017-.94714,1.4425.90777,1.44222-.66872,1.441.05881,1.44195.51665,1.44359-.39824,1.442.33311,1.44368-.33195,1.44286.17148,1.44423.25254,1.44016-.78106,1.44019.05,1.445.13645,1.44257-.04153,1.44451.58607,1.44614-.35944,1.44407-.20735,1.44746.76132L231.1381.83722l1.5917.38025.09253,1.921-.35745,1.78239.02082.70527-.1792,1.48409-.024,1.5259.92129,1.28434.32029,1.45564.928,1.17124.57306,1.38142,1.33428.79832.6293,1.41358,1.07338,1.0217,1.5399.37769.90248,1.30037,1.506.29409,1.36555.48872,1.12235,1.1958,1.4743.25475,1.52513-.09379,1.44472.14935,1.45039.03433,1.444.5829.86305-.045,1.47354-.00538,1.47734-.01081,1.24043-.20462-.11887,1.41779.66961,1.42831-.81686,1.42749.052,1.42833.25032,1.42891.42838,1.42966.01569,1.43025.1424,1.43136-.90265,1.43054.97729,1.43084-.9277,1.429.23191,1.42933.47273,1.4293.11555,1.42914-.16383,1.42928.04654,1.43.0698,1.43085-.22456,1.43179.00687,1.43116-.47289,1.4301.83819,1.43046-.93307,1.42925.59334,1.43044.245,1.43082-.4741,1.43135-.34215,1.43161.62468,1.43133.09092,1.43056.02682,1.43056-.13459,1.431-.6476,1.42491.61251,1.42611-.5927,1.42637.83313,1.42888-.17918,1.43052-.62514,1.43289.48793,1.43117.16935,1.42936-.3217,1.42832-.27961,1.4285-.14557,1.42974.4213,1.43229.10715,1.43362.30085,1.43156-.826,1.43.75994,1.43171-.25539,1.43339-.24112,1.43313.69066,1.43245-.7489,1.43254.4716,1.43494-.06739,1.433-.22446,1.43459.08752,1.434-.05661,1.43524-.04148,1.4312.407,1.43152.15659,1.43609-.26252,1.43346-.35192,1.43534.45512,1.43745-.681,1.4347-.00593,1.43847.51249,1.44112-.35371,1.43424-1.21987-.48984-1.471.371-1.44754-.24049-.86792.064-1.48543-.06906-1.41088.688-1.43322.22443-1.6181-.46874-1.17823,1.22126-1.31916.59424-1.33784.53879-1.28807.65419-1.489.38382-.97935,1.13989-1.57461.4557-.72187,1.37628-.93623,1.14129-.59132,1.36432-1.22486,1.03054-.47559,1.435.40573,1.63108-.56442,1.35789-.05357,1.44852-.59688.7321.12554,1.7948.69587,1.92217-1.63332-.38214-1.43584-.14288-1.43592.31611-1.436-.29808-1.43621.44118-1.43641.12924-1.43664-.20722-1.43691.16944-1.43721-.65944-1.43756.29774-1.43794-.0792-1.43774-.06995-1.43741-.12286-1.43712.84633-1.43687-.62617-1.43668.20069-1.4365-.26851-1.43639-.16766L205.295,134.28l-1.43211.33305-1.43259-.33894-1.43311.25712-1.43369-.04343-1.4343.477-1.435.07959-1.43568-.50871-1.43645.34007-1.43726-.01352-1.43813-.46477-1.43791.6299-1.43718.10566-1.43652-.55742-1.4359.462-1.43535-.34807-1.43485.2328-1.43441.16855-1.434-.42057-1.43369.25986-1.43344-.43733-1.43323.11191-1.43309.31654-1.433-.72668-1.433-.00125-1.43307-.03055-1.4332.63277-1.43339-.54667-1.43366.54356-1.434-.57161-1.43441.61388-1.4349-.36967-1.43547.546-1.43611-.59926-1.43683.21528-1.43763.01239-1.43853-.46486-1.43942.12406-1.43857.52925-1.43783-.45195-1.43716.01447-1.43659.00482-1.43612-.04974-1.43575.21891-1.43547.59227-1.43531-.92117-1.43524.61431-1.43528.13644-1.43544-.1771-1.43571-.03592-1.43609-.51414-1.4366.31925-1.43722.13425-1.438.18019-1.43886-.53093-1.43987.02432-1.43946.21567-1.43864-.28937-1.438-.08311-1.43744.50847-1.43706.24232-1.43685-.318-1.4368-.08619-1.43691.094-1.4372.30988-1.43767.03525-1.43832-.293-1.43916.41468-1.4402-.544-1.44.06439-1.43917-.33915-1.43852.71566-1.4381-.35817-1.43792-.30289-1.438.11017-1.4383.08359-1.43887.07028-1.43973.39287-1.44086-.51354-1.44009.48146-1.43931-.78567-1.43887.533-1.43875.093-1.439-.53737-1.43959-.06763-1.44058.17786-1.44076-.0972-1.43987.44026L78.86,134.7969l-1.43946.06668-1.44-.244-1.4342.38561-1.43463-.26139-1.43564-.26613-1.43728.3297-1.43956-.16819-1.44221.20465-1.43979-.38166-1.43818.25639-1.43743.05679-1.43759-.16867-1.43874.03909-1.441-.23347-1.44249.32112-1.44031.38139-1.43948-.08609-1.44017-.77118-1.4425.03553-1.44222.49574-1.441.09458-1.44194-.03571-1.4436-.26713-1.442-.08991-1.44368.1945-1.44286-.29164-1.44424.72042-1.44015-.24323-1.44019-.21631-1.445.09717-1.44257.28583-1.4445-.67174-1.44614-.17435-1.44407.5515-1.44746.3339-1.44174-.32433Zm10.44-126.26681-1.04576.22782-1.23638.794.09791,1.5394-.255,1.48936L32.20805,13.929l-.66938,1.3098-.59507,1.369-1.40186.79953-.34536,1.60346-1.20422.90126-1.26806.7898-.8261,1.28387-1.11158.98075-1.55536.32427-1.1792.85678-1.147.95434-1.215.88155-1.4746.30336-1.32928.65438-1.55629-.063L14.099,27.97208l-1.54666-.16475-1.43152.33921-1.48452.47609-.52664,1.53771.468,1.42475L9.19684,33.0099l.249,1.42513-.37269,1.4257.46565,1.42653.07645,1.42767.26029,1.42689L9.33317,41.568l.11862,1.42569.11313,1.42557L9.32023,45.845l.17237,1.42641-.28782,1.42739.54609,1.42755L9.03735,51.553l.64458,1.42625L9.672,54.40556l-.64546,1.4268.2667,1.42106L9.15717,58.6749l.15192,1.42249L8.97351,61.5215l.46281,1.42637-.00543,1.429.43656,1.42661-.401,1.425.013,1.42425-.512,1.42442.66689,1.42557L9.5066,72.93049l.34218,1.42929-.87445,1.42711.12986,1.4263-.00028,1.427.35072,1.42928-.13446,1.429.168,1.42775L9.48875,84.355l.2523,1.43037L9.111,87.2141l-.14334,1.43045.46763,1.42964.43446,1.431-.91375,1.427.142,1.427-.12036,1.43171.71785,1.42936L9.45405,98.6515l-.1847,1.43289.03009,1.43085.38918,1.4342-.75659,1.4365.698,1.43651.01783,1.52771,1.48476.4054,1.35911.7314,1.51427-.09461,1.33443.67289,1.38163.454,1.6094-.12039,1.41493.47382,1.054,1.211,1.4963.32681,1.2595.78023.96271,1.19467,1.02166,1.05333,1.62955.358.82965,1.27153.90751,1.15792L29.9197,118.294l.4352,1.474.97008,1.10112,1.09847,1.08513.45739,1.41661.38084,1.42652.12234,1.47638.96578,1.061,1.24687.81646,1.43672-.13776,1.43651.04361,1.43634.03461,1.43623.01554,1.43151.00143,1.432-.34632,1.43243-.3398,1.43295.65,1.43352-.66744,1.43415.10684,1.43481.75466,1.43552-.67241,1.43629-.17069,1.4371-.11039,1.438.48586,1.43775.07294,1.437.34269,1.43636.04151,1.43574-.21592,1.43519-.19529,1.43469.03714,1.43424-.56716,1.43386.37569,1.43354-.24186,1.43327.17807,1.43307.363,1.43293-.2692,1.43286.54,1.43285-.104,1.43291-.39632,1.433-.44981,1.43324.94168,1.43349-.44758,1.43384.013,1.43425.41609,1.43474-.3651,1.43531.33183,1.43594-.15592,1.43667-.76788,1.43748.87561,1.43836-.31422,1.43926-.125,1.43841.07758,1.43766.33988,1.437-.74673,1.43643.48311,1.436.1,1.43559.2187,1.43531-.11728,1.43515-.20985,1.43508.07276,1.43512-.30528,1.43528.38029,1.43555.00269,1.43593.24094,1.43643-.07276,1.43706-.38975,1.43782.07264,1.43869.08172,1.43971-.3303,1.4393.57168,1.43848-.19673,1.4378-.39622,1.43728.64538,1.4369-.92371,1.43669.52553,1.43663-.18955,1.43675-.1944,1.437.6538,1.43751-.53066,1.43816-.04755,1.439.59588,1.44-.69247,1.43987-.04391,1.439.194,1.43835.35481,1.438-.25178,1.43776.53514,1.43782-.68117,1.43814-.02917,1.43871.72765,1.43957-.80822,1.4407.09952,1.43992-.07831,1.43916.10022,1.4387-.24992,1.43859.95621,1.43883-.178,1.43943-.76471,1.44042.59576,1.44059-.47066,1.43971.60335,1.43927-.59343,1.4393-.15528,1.43982.79183,1.434-.548,1.43446-.21744,1.43548.08215,1.43712.32432,1.4394-.36991,1.442.644,1.43963-.20386,1.438.38065,1.43726-.69591,1.43743.45274,1.43858-.36765,1.4408.36665,1.44234-.49379,1.44014.397L193.65,127.431l1.44.35819,1.44233.35365,1.44207.03861,1.44079-.69006,1.44179.28334,1.44342-.34941,1.44183.68621,1.44351-.49587,1.44271.39351,1.44406-.00177,1.44.12061,1.44-.22306,1.44479-.35112,1.44241.53725,1.44434-.70373,1.446.83844,1.44392-.3574,1.44729-.55159,1.44963.64479,1.44962.309,1.36392-.78951.11785-1.37147.96422-1.27933.68127-1.30109.30456-1.45479.34544-1.48928.78049-1.27294,1.10989-1.03015,1.29127-.82835.29579-1.72353,1.68855-.37167.67274-1.46278,1.21023-.85726,1.50129-.4049,1.04045-1.10418,1.44673-.40845,1.17639-.93468,1.42022-.41421,1.4574-.26644,1.17067-1.18717,1.45232-.33251,1.48134-.18066,1.4561-.28861,1.49137-.19091.20036-1.50322-.20734-1.42475.76132-1.42481-.98038-1.42513.30949-1.42569-.15342-1.42654.26164-1.42766-.04319-1.4269.26106-1.42613.27564-1.42568-.53853-1.42557.24555-1.42581-.27582-1.42641.282-1.42738-.54216-1.42756.52424-1.42668.05628-1.42624-.62136-1.42628.61342-1.42679-.45387-1.42106-.11349-1.42149.73424-1.42249-.17179-1.42411-.42534-1.42637-.07727-1.429-.10056-1.42661.53844-1.425-.02637-1.42426.04773-1.42442.04236-1.42557.06638-1.42776L249.048,61.623l-.67049-1.42711.816-1.4263-.05291-1.427-.2512-1.42928-.42928-1.429-.01657-1.42776-.14328-1.42874.90176-1.43036-.97818-1.42878.92682-1.43045-.2328-1.42965-.47362-1.431-.11642-1.427.16294-1.427-.04743-1.43172-.07068-1.42936.22367-1.43127-.00775-1.43289.472-1.43085-.83908-1.43419.93219-1.43651-.59423-1.43651-.63826-1.05359-.91772-1.00862-1.3823-.58-1.565.30158-1.45645-.29034-1.42483-.41947-1.3455-.63665-1.0964-1.16532-1.5837-.08186-1.00218-1.21919-1.68872-.05669-1.12466-.989-.78059-1.3883-1.42568-.58436-1.18146-.90711-.76021-1.304-.69915-1.30764-.71506-1.26107-1.11693-1.01717-.77349-1.25225-.86566-1.24117.298-1.653L224.204,9.8279l-.44634-1.16778-1.23719-.6743-1.43671.69155-1.43651-.748-1.43635.47249-1.43622-.0665-1.43152-.22358-1.43194.08841-1.43243-.05572-1.433-.04059-1.43353.40788-1.43414.15747-1.43481-.26163-1.43553-.351-1.43628.456-1.43711-.68011-1.438-.005-1.43775.51338-1.437-.35291-1.43636-.22517-1.43574.4239-1.43519-.18814-1.43468.08273-1.43425-.11478-1.43386.55434-1.43353-.00122-1.43327-.81173-1.43307.83959-1.43294.10138L182.346,8.59235,180.91314,8.559l-1.4329-.47563-1.433.32523L176.614,7.70789l-1.4335.43107-1.43384-.017-1.43425.25682-1.43474-.605-1.4353.09311-1.43595.83447-1.43667-.33354-1.43748.02625-1.43836-.62-1.43926.02939-1.43841.64913-1.43766-.48124-1.437-.14289-1.43643.31611-1.436-.29808-1.43558.44118-1.43532.12925-1.43514-.20722L149.328,8.3792l-1.43513-.65944-1.43527.29774-1.43555-.0792-1.43593-.06995-1.43644-.12286-1.43706.84634-1.43781-.62618-1.4387.20069-1.43971-.2685-1.4393-.16767-1.43848.09766-1.4378.333-1.43727-.33893-1.43691.25711L127.77,8.03563l-1.43664.477-1.43675.07959-1.437-.50871-1.4375.34007L120.58391,8.41l-1.439-.46477-1.44.6299-1.43986.10566-1.439-.55742-1.43836.462-1.43794-.34807-1.43776.2328-1.43783.16855L107.636,8.2181l-1.43872.25986-1.43957-.43733-1.44069.11191-1.43993.31654-1.43915-.72668-1.43871-.00125L97.56063,7.7106l-1.43882.63278L94.68238,7.7967,93.242,8.34026l-1.4406-.57161-1.4397.61388-1.43927-.36967-1.4393.546L86.04326,7.9596l-1.434.21528-1.43447.01239-1.43548-.46486-1.43711.12406-1.4394.52925-1.442-.45194-1.43963.01446-1.438.00482L73.1058,7.89332l-1.43742.21891-1.43859.59227L68.789,7.78333l-1.44233.61431-1.44015.13645L64.46719,8.357l-1.44-.03592-1.44233-.51415-1.44206.31925L58.702,8.26043l-1.44179.18018-1.44343-.53093L54.375,7.934l-1.44351.21567-1.4427-.28937-1.44407-.0831-1.44.50846-1.44.24232-1.44479-.318-1.44241-.08619-1.44435.094-1.446.30989-1.44391.03525-1.4473-.293-1.37382.40864Zm2.50749,115.23928-.36232-.95051.09665-1.59722-1.05389-1.12427-.89624-1.15331-.41674-1.43688-.83467-1.19171-1.0493-1.0203-.43425-1.55292-1.542-.54746-.85591-1.20069-.8993-1.19507-1.41424-.56354-1.23417-.76343-.88639-1.31149-1.32306-.65136-1.42418-.43636-1.42083-.39213-1.21215-.84948-1.41176-.38122-1.21023-.97329-1.60954.29273-1.28483-.83522-.75281-.06614.31909-1.42418-.046-1.4401L14.477,99.704l.38081-1.44047-.249-1.4397.3727-1.43924-.46566-1.43913-.07644-1.43937-.2603-1.44.54235-1.441L14.60288,88.184l-.11313-1.44025.2447-1.43981-.17237-1.43984.28782-1.44036-.5461-1.43458.71352-1.435-.64458-1.436.00989-1.43765.64547-1.43994L14.7614,73.798l.13611-1.44017-.15192-1.43856.33558-1.43781-.46281-1.438.00543-1.43912L14.18722,65.163l.401-1.44288-.013-1.44069.512-1.43986L14.42035,59.399l.12772-1.44288-.34217-1.4426.87444-1.44133-.12985-1.44233.00027-1.444L14.6,50.74354l.13447-1.44406-.168-1.44324-.00055-1.44462-.25229-1.44053.63005-1.44057.14335-1.44534-.46764-1.443-.43446-1.44488.91376-1.44652-.142-1.44446.12037-1.44783-.71786-1.45018.24505-1.46657.82387-.02055,1.40774-.39409,1.28023-.79014,1.62689.24126,1.10962-1.17961,1.55711-.07713L23.55842,28.74l1.52356-.25746,1.05078-1.10258,1.39533-.54156,1.20658-.84335.73108-1.42679,1.01266-1.02862,1.48745-.54215.69226-1.34972.94692-1.09119L34.8427,19.672,35.853,18.578l.08084-1.65721.97588-1.11691.71-1.2775.41632-1.40114.40038-.16641,1.2649-.222,1.43515-.47362,1.43564.143,1.43616.10916L45.445,12.776l1.43736-.27233,1.438.379,1.43874-.13776,1.43951.0436,1.44032.0346,1.44119.01553,1.441.00142,1.44024-.34633,1.43958-.3398,1.439.65,1.4384-.66745,1.4379.10684,1.43746.75465,1.43707-.67242,1.43675-.1707,1.43648-.11039,1.43629.48584,1.43614.07294,1.43607.34268,1.43606.0415,1.43612-.21593,1.43625-.19529,1.43644.03713,1.43671-.56716,1.437.37567L82.82854,12.18l1.438.17807,1.43852.363,1.43916-.26921,1.43989.54,1.4407-.104,1.44158-.39632,1.44248-.44982,1.44164.94167,1.44088-.44759,1.44022.013,1.43965.41609,1.43918-.3651,1.4388.33182,1.43853-.15593,1.43836-.76789,1.4383.8756,1.43834-.31422,1.43849-.125,1.43876.07757,1.43915.33987,1.43965-.74673,1.44029.4831,1.441.1,1.44192.21869,1.44294-.11729,1.44252-.20986,1.4417.07275,1.441-.30528,1.44049.38028,1.44012.00268,1.43991.24094,1.43986-.07277,1.44-.38976,1.44026.07263,1.44073.08172,1.44138-.33031,1.44223.57166,1.44326-.19673,1.44309-.39623,1.44222.64537,1.44158-.92371,1.44117.52552,1.441-.18956,1.441-.19441,1.44137.65379,1.44193-.53066,1.44279-.04756,1.44393.59587,1.44315-.69247,1.44238-.04393,1.44193.194,1.44181.3548,1.442-.25178,1.44266.53513,1.44364-.68118,1.44382-.02918,1.44294.72764,1.44249-.80823,1.44253.09952,1.443-.07832,1.43726.10021,1.43768-.24992,1.4387.9562,1.44033-.178,1.44262-.76471,1.44528.59574,1.44286-.47066,1.44124.60334,1.44048-.59344,1.44065-.15529,1.44181.79183,1.444-.548,1.44556-.21745,1.44337.08215,1.44255.32431,1.44324-.36993,1.44556.644,1.4453-.20387,1.444.38065,1.445-.69592,1.44667.45273,1.44505-.36766,1.44675.36664,1.44593-.4938,1.44731.397,1.44322-.40645,1.44325.35818,1.448.35364,1.44564.0386,1.44757-.69006,1.44922.28333,1.44714-.34942,1.45054.6862,1.45287-.49587,1.37156.37882.08018.48117.418,1.41833.81508,1.24334.99269,1.11709.3001,1.52449,1.404.798.22663,1.6653,1.22823.88157,1.396.6677.60355,1.46581.9096,1.19652,1.34748.66626,1.56427.30527.88187,1.29733,1.15058.93348,1.43046.42975,1.47056.28923,1.32163.577,1.23818.81457,1.228.93245,1.66691-.48864,1.18281,1.24238,1.08048-.3324-.035,1.54652-.51663,1.44011.39826,1.44124L243.22,37.71927l.332,1.43969-.17147,1.43924-.25252,1.43914.78108,1.43936-.05,1.44-.13643,1.441.04156,1.44114-.58606,1.44025.35947,1.43981.20736,1.43984-.7613,1.44037.9804,1.43457-.30947,1.435.15344,1.436-.26162,1.43766.04321,1.43994-.261,1.4426L243.053,63.625l.53854,1.43856-.24553,1.4378.27585,1.438-.28194,1.43913.54218,1.44133-.52423,1.44289-.05626,1.44068.62138,1.43986-.6134,1.44056.45389,1.44287.11352,1.4426-.73423,1.44134.17181,1.44233.42536,1.444.07729,1.44237.10058,1.44405-.53842,1.44326.02639,1.44461L243.358,91.0117l-.04234,1.44058-.06635,1.44533-.11776,1.443.67052,1.44487-.816,1.44653.05294,1.44446.25122,1.44783.42929,1.45017-.00744,1.559-.89786.46095-1.637-.50893-1.11439,1.35522-1.67765-.40378-1.28538.74894-1.14493,1.01509-1.24747.73437-1.34846.53959-1.21943.77826-1.16991.84813-1.30559.6616-1.1348.90437-1.41375.60039-.4725,1.60937-1.67762.41193-.50273,1.49721-.686,1.29137-1.21031.9234-1.05569,1.07727-.13507,1.584-.51617,1.3469-.49062,1.34887-.45279.69045-1.50012-.63481-1.43516.6134-1.43563-.59182-1.43617.834-1.43673-.17829-1.43736-.62425-1.438.48881-1.43874.17023-1.4395-.32081-1.44032-.27872-1.44119-.14469-1.441.42219-1.44024.108-1.43957.30173-1.439-.82516-1.4384.76083-1.4379-.25449-1.43746-.24025-1.43707.69155-1.43675-.748-1.43648.47248-1.43628-.0665-1.43614-.22358-1.43607.08842-1.43606-.05573-1.43612-.04059-1.43625.40788-1.43644.15748-1.43671-.26164-1.437-.351-1.43747.456-1.438-.6801-1.43852-.005-1.43917.51339-1.43989-.35292-1.44069-.22517-1.44159.42391-1.44248-.18815-1.44164.08274-1.44088-.11478-1.44022.55433-1.43965-.00122-1.43917-.81173-1.43881.8396-1.43853.10138-1.43836-.05646-1.43829-.03333-1.43834-.47563-1.43849.32524-1.43877-.70074-1.43915.43108-1.43965-.017-1.44028.25681-1.441-.605-1.44192.09311-1.44293.83447-1.44253-.33353-1.4417.02624-1.441-.62-1.4405.02939-1.44012.64913-1.43991-.48125-1.43985-.14289-1.44.31611-1.44026-.29807-1.44073.44117-1.44138.12925-1.44222-.20722-1.44326.16944-1.44309-.65945-1.44223.29774-1.44158-.07919-1.44116-.07-1.441-.12287-1.441.84634-1.44136-.62618-1.44194.20069-1.44279-.2685-1.44393-.16767-1.44315.09766-1.44238.33305-1.44192-.33894-1.44182.25712-1.442-.04343-1.44265.477-1.44365.0796-1.44382-.50872-1.44294.34007-1.44249-.01352-1.44252-.46476-1.443.6299-1.43725.10565-1.43768-.55742-1.4387.462-1.44033-.34806-1.44263.23279-1.44528.16856-1.44285-.42058-1.44125.25987-1.44048-.43733-1.44065.11191-1.44181.31654-1.444-.72668-1.44557-.00125-1.44337-.03055-1.44255.63277-1.44323-.54668-1.44557.54357-1.44529-.57161-1.444.61388-1.445-.36968-1.44666.546-1.44506-.59926-1.44674.21528-1.44594.01239L52.747,122.991l-1.44321.12406-1.44326.52925-1.448-.45195-1.44564.01447-1.44758.00482L44.07,123.16187l-1.44715.21891-1.45054.59228-1.51237-.917ZM41.17089,14.693l-.915.1332-1.2266.46036-.15869,1.484L38.41214,18.147l-1.075,1.0148L36.55083,20.339l-.69066,1.25878-1.42674.64488-.40848,1.53947-1.20461.80365-1.25386.713L30.7579,26.533l-1.07186.93988-1.50886.30329-1.12024.85044-1.0717.96036-1.12834.9032-1.40668.35373-1.23585.71287-1.50584.02921L19.6232,32.76l-1.5014-.03693-1.024.82576-.71969,1.217.046,1.44286.468,1.44241-.38081,1.4423.249,1.44253-.37269,1.44314.46565,1.44413.07645,1.44431L17.19,46.3109l-.54234,1.443.11863,1.443.11313,1.44353-.2447,1.43773.17237,1.43817-.28782,1.43917.5461,1.44082-.71353,1.44311.64459,1.44576-.00989,1.44334L16.341,62.17025l.2667,1.441-.13611,1.44114.15192,1.44228L16.288,67.93915l.46281,1.446-.00543,1.44385.43657,1.443-.401,1.44372.013,1.446-.512,1.44578.66689,1.4445-.12772,1.4455.34217,1.44715-.87445,1.44554.12986,1.44723L16.41836,85.284l.35072,1.44779-.13446,1.4437.168,1.44374.00055,1.44852.2523,1.44612-.63,1.44807-.14335,1.4497.46763,1.44763.43447,1.451-.91376,1.45336.142,1.45336.36327,1.45714,1.46337.191,1.28246.65874,1.27036.64739,1.3227.49169,1.45551.21414.94049,1.296,1.57238.04624.94291,1.1877,1.39386.436.872,1.20995,1.3681.52244.88472,1.13676,1.02381.95376,1.47346.522,1.05247.97746.4225,1.49631,1.19416.871.7945,1.18266.35831,1.43638.47554,1.32964,1.31964.93808.42521,1.00012,1.0867.43675,1.43619-.11587,1.43681.49635,1.43748-.253,1.43819-.47362,1.439.143,1.43977.10917,1.44064.26063,1.44042-.27232,1.4397.379,1.439-.13776,1.43842.04361,1.43785.03461,1.43735.01553,1.43691.00144,1.43653-.34633,1.4362-.33979,1.43594.65,1.43573-.66744,1.4356.10685,1.43552.75466,1.43552-.67241,1.43557-.17069,1.4357-.11039,1.4359.48586,1.43616.07293,1.4365.3427,1.43692.0415,1.43741-.21592,1.438-.19528,1.43862.03714,1.43934-.56716,1.44015.37568,1.441-.24186,1.44194.17808,1.44108.363,1.44034-.26921,1.43967.54,1.4391-.104,1.43863-.39631,1.43825-.44981,1.438.94168,1.43781-.44759,1.43775.013,1.43779.41609,1.438-.36509,1.43821.33183,1.4386-.15592,1.43911-.76788,1.43973.87561,1.44049-.31422,1.44137-.125,1.44239.07758,1.442.33989,1.44115-.74673,1.44048.48311,1.44.1,1.43957.21869,1.43936-.11728,1.4393-.20984,1.43943.07275,1.43971-.30527,1.44018.38029,1.44083.00268,1.44167.24095,1.44272-.07276,1.44254-.38975,1.44167.07263,1.441.08173,1.44061-.3303,1.44043.57167,1.4405-.19672,1.44081-.39622,1.44139.64537,1.44225-.9237,1.44337.52553,1.44261-.18955,1.44182-.19441,1.44138.6538,1.44127-.53065,1.4415-.04755,1.44211.59587,1.4431-.69246,1.44327-.04392,1.44238.194,1.442.35481,1.442-.25178,1.4425.53514,1.4367-.68117,1.43714-.02918,1.43815.72765,1.43978-.80822,1.44208.09952,1.44473-.07831,1.44231.10023,1.44069-.24992,1.43993.95621,1.4401-.178,1.44126-.7647,1.44348.59575,1.445-.47066,1.44282.60336,1.442-.59344,1.44268-.15528,1.445.79184,1.44474-.548,1.44347-.21745,1.44447.08216,1.44611.32432,1.44451-.36992,1.44619.644,1.44539-.20387,1.44675.38066,1.44267-.69591,1.44271.45274,1.44748-.36766,1.44509.36665,1.447-.49379,1.44866.397,1.4466-.40645,1.45.3582,1.45232.35365,1.45232.0386.93754-.96881.89183-.63212.29172-1.43715,1.27484-.92112.30847-1.46275,1.11958-.94785.84406-1.12113.98973-.99832.78457-1.18452.75768-1.24725,1.4069-.55144.63993-1.446,1.63259-.18856.94743-1.09555.90286-1.22993,1.55159-.15855,1.38251-.38581,1.12663-.89111,1.03436-1.17939,1.54419.0381,1.39918-.268,1.25413-.70976.74862-.964.33069-.992.311-1.44286.4832-1.44241-.94714-1.44229.90778-1.44254-.66873-1.44314.05881-1.44413.51665-1.4443-.39824-1.44342.33311-1.443-.332-1.443.17149-1.44353.25254-1.43773-.78106-1.43816.05-1.43918.13645-1.44081-.04154-1.44311.58608-1.44577-.35945-1.44334-.20734-1.44172.76131-1.441-.98037-1.44113.30948-1.44229-.15341-1.44451.26163-1.44606-.04318-1.44385.26106-1.443.27564-1.44372-.53853-1.446.24555-1.44577-.27583-1.44451.282-1.4455-.54216-1.44715.52425-1.44554.05628-1.44723-.62136-1.44642.61342-1.44779-.45387-1.4437-.1135-1.44374.73425-1.44852L241.5504,43.469l-.42534-1.44806-.07727-1.4497-.10056-1.44764.53844-1.451-.02637-1.45336.04773-1.45336-.38694-1.29264-1.09811-.843-1.30485-.53614-1.55811.15779-1.01263-1.27874-1.30194-.51387-1.37265-.3857-1.4516-.2863-1.2394-.70358-1.28162-.6475-.6443-1.54768-1.71829-.07827-.497-1.61734-1.19317-.76863-1.338-.66166L223.056,22.788l-.79-1.20171-.89693-1.10981-.86139-1.14233-.54884-1.33454-.67968-1.24651-.17368-1.47421-1.3285-.32349-.83067-1.17915-1.43619.59422-1.43681.24592-1.43747-.47322-1.4382-.34126-1.439.62557-1.43977.0918-1.44064.02771-1.44041-.1337-1.4397-.64672-1.439.6134-1.43841-.59182-1.43786.834-1.43735-.17829-1.43691-.62425-1.43653.48881-1.4362.17023-1.43593-.32081-1.43574-.27872-1.4356-.14469-1.43552.42219-1.43551.108-1.43557.30173-1.4357-.82516-1.4359.76083-1.43616-.25449-1.43651-.24025-1.43691.69155-1.43741-.748-1.438.47248-1.43862-.0665-1.43934-.22358-1.44015.08842-1.441-.05573-1.44193-.04059-1.44109.40788-1.44033.15748-1.43967-.26164-1.4391-.351-1.43863.456-1.43826-.6801-1.438-.005-1.43781.51339-1.43775-.35292-1.43779-.22517-1.438.42391L150.79975,14.02l-1.4386.08274-1.4391-.11478-1.43974.55433-1.44048-.00122-1.44138-.81173-1.44238.8396-1.442.10138-1.44115-.05646-1.44047-.03333-1.44-.47563-1.43958.32524-1.43935-.70074-1.43931.43108-1.43942-.017-1.43971.25681-1.44018-.605-1.44083.09311-1.44168.83447-1.44271-.33353-1.44254.02624-1.44168-.62-1.441.02939-1.44062.64913-1.44043-.48125L114.785,13.85l-1.44081.31611-1.44139-.29807-1.44224.44117-1.44338.12925-1.4426-.20722-1.44183.16944-1.44138-.65945-1.44126.29774-1.4415-.07919-1.44211-.07-1.4431-.12287-1.44327.84634-1.44239-.62618-1.44194.20069-1.442-.2685-1.4425-.16767-1.4367.09766-1.43713.33305-1.43815-.33894-1.43979.25712-1.44207-.04343-1.44473.477-1.44231.0796L80.1897,14.105l-1.43994.34007-1.4401-.01352-1.44126-.46476-1.44348.6299-1.445.10565-1.44282-.55742-1.442.462-1.44268-.34806-1.445.23279-1.44475.16856-1.44347-.42058-1.44446.25987-1.44612-.43733-1.4445.11191-1.4462.31654-1.44539-.72668-1.44675-.00125-1.44267-.03055-1.44271.63277-1.44747-.54668-1.44509.54357-1.447-.57162-1.44866.61388-1.4466-.36967-1.45.546-1.49133-.59616Z"/></g><path class="cls-2" d="M38.4259,61.46967c4.86523.24609,8.68066,1.82031,8.68066,4.06055a1.42671,1.42671,0,0,1-1.54,1.43554c-.70019,0-1.36523-.91015-2.20508-1.75a15.72875,15.72875,0,0,0-5.25-3.08008Zm28.35351-2.69531c-4.44629,9.45117-12.917,15.998-19.63769,19.25293a5.716,5.716,0,0,0-1.5752,1.01464c-.34961.31543-.55957.875-1.18945.91016-1.36524.03516-4.09571-2.55469-4.09571-3.99023a1.92021,1.92021,0,0,1,.83985-1.85547c.52539,1.43554,1.36523,2.10058,2.48535,2.10058a4.14386,4.14386,0,0,0,1.5752-.35058c6.47558-2.69531,15.61132-8.78516,20.93164-17.43164ZM42.62609,53.94428c4.7959.17578,8.43652,1.99609,8.43652,4.20117a1.36086,1.36086,0,0,1-1.4707,1.40039c-.80469,0-1.43457-.94531-2.24023-1.82031a17.80276,17.80276,0,0,0-5.04-3.25586Z"/><path class="cls-2" d="M71.3966,60.665a2.385,2.385,0,0,0,.77051,1.29492,3.49906,3.49906,0,0,0,1.9248.28125c2.10059,0,7.63086-.17578,9.48633-.3164a1.70962,1.70962,0,0,0,1.085-.66407c.28027-.31542.52539-.666.94531-.666.77051,0,2.97559,1.61133,2.97559,2.206,0,.38477-.49024.59473-.83984.90918-.31543.28125-.35059.84082-.38575,1.64649-.10449,2.16992-.34961,11.02539-.38476,12.88086-.07031,2.06445-.665,2.87011-1.61035,2.87011-.59473,0-1.04981-.83984-1.085-2.17089-1.33008-.1045-8.26075.21093-9.94141,1.05078-.45508.21-.665.49023-1.12012.49023a3.016,3.016,0,0,1-2.835-2.416c0-.94434.31543-1.57422.77051-1.57422.45508,1.43554.875,1.43554,3.29,1.43554,1.61035-.03515,6.126-.35058,7.70019-.45507.666-.07032,1.22559-.2461,1.71582-.2461a3.47309,3.47309,0,0,1,.55957.07031c.14063-1.01562.17578-4.06054.21-6.51074a6.17035,6.17035,0,0,1-.83984.03516c-1.82031.03516-5.28516.31543-6.93066.52441a4.4235,4.4235,0,0,0-1.29493.38575c-.31542.13964-.52539.35058-.80566.35058a2.90182,2.90182,0,0,1-2.48437-2.3457,1.51694,1.51694,0,0,1,.34961-1.22461h.10546c.31446.97949,1.18946,1.29492,2.58985,1.29492,1.25976,0,5.32031-.21094,6.61523-.38477.80567-.10546,1.26074-.28125,1.64551-.28125a2.72874,2.72874,0,0,1,1.085.2461c.03516-2.27539.07031-4.55078.07031-6.05664l-.13965-.13965c-2.45117.03516-6.7207.45508-8.78613.73535a6.74474,6.74474,0,0,0-1.50488.41992c-.4209.14063-.7002.41992-1.08594.41992a3.17346,3.17346,0,0,1-2.48535-2.58984A2.13507,2.13507,0,0,1,71.257,60.665Z"/><path class="cls-2" d="M96.10656,62.03022c2.55566,1.05078,4.62109,3.53515,4.62109,5.46093,0,1.04981-.52539,1.78516-1.26074,1.78516a1.117,1.117,0,0,1-1.25976-1.22461,10.1084,10.1084,0,0,0-2.55469-5.56641Zm4.20117,18.832C111.89367,75.122,114.51867,63.956,114.51867,62.8349c0-.91015-1.01465-1.25976-1.88965-1.29492a1.50087,1.50087,0,0,1,1.46973-.94531c1.54,0,3.78027,1.68066,3.78027,2.59082,0,.38574-.31445.55957-.62988.80566a.90975.90975,0,0,0-.38477.55957,26.17458,26.17458,0,0,1-16.13672,16.97657Zm3.71-20.54688c2.69532,1.71485,3.99024,3.95508,3.99024,5.63477,0,1.4707-.55957,2.27539-1.39942,2.27539-.80566,0-1.26074-.49024-1.26074-1.46973A10.54373,10.54373,0,0,0,103.4923,60.665Z"/><path class="cls-2" d="M143.53429,57.5849c0-.27929-.10546-.34961-.45507-.34961-.31543,0-13.19629.83985-15.19239,1.88965a2.92547,2.92547,0,0,1-1.50488.55957c-1.40039,0-3.18555-2.48437-3.18555-4.02539a1.54381,1.54381,0,0,1,.94532-1.33008l.03515.03516c.41992,2.10059,2.625,2.10059,3.81543,2.10059,2.06543,0,11.83106-.48926,14.31641-.7002.83984-.10547,1.12012-.94531,1.68066-.94531.875,0,3.74512,2.73047,3.74512,3.39648,0,.38477-.52539.59375-.80566.80469a1.36955,1.36955,0,0,0-.48926.875c-2.27539,8.15625-7.4209,16.87109-19.98731,21.14258l-.49023-.77051c11.58594-5.18066,16.06641-14.70215,17.57226-22.542Zm6.68555-8.40039a3.81559,3.81559,0,1,1-3.85058,3.81446A3.82436,3.82436,0,0,1,150.21984,49.18451Zm2.69531,3.81446a2.69531,2.69531,0,1,0-2.69531,2.69531A2.71982,2.71982,0,0,0,152.91515,52.999Z"/><path class="cls-2" d="M158.30187,57.27045a14.87916,14.87916,0,0,1,.80469,4.54981c0,.59472,0,4.376-2.625,4.376a1.09675,1.09675,0,0,1-1.15527-1.15527,2.09873,2.09873,0,0,1,.80566-1.50488,10.47788,10.47788,0,0,0,1.5752-6.26563ZM160.507,50.164l4.27051.42089c-.07031.48926-.38477.73438-1.46973.83985v30.418c0,.10546-.35058.94531-2.80078.94531Zm3.53516,5.53027c3.0459,1.36523,4.02539,3.0459,4.02539,4.27148a1.55094,1.55094,0,0,1-1.36524,1.67969,1.39448,1.39448,0,0,1-1.085-.56055,11.254,11.254,0,0,0-1.9248-5.17968ZM185.045,60.77045l3.18457,2.27539c-.2793.49024-.7002.69922-1.64453.69922H166.28234l-.1748-.80469h8.99609V59.51068h-6.30078l-.21-.80566h6.51074V55.34467h-7.876l-.21-.76953h8.08594v-4.376l4.165.35059c-.03516.49023-.38477.69922-1.39941.875v3.15039h4.79492l1.68066-2.20508,3.18457,2.27441c-.2793.52539-.69922.7002-1.64453.7002h-8.01562V58.705h3.6748l1.61035-2.06543,3.04492,2.16992c-.31445.49024-.70019.70117-1.64453.70117h-6.68554v3.42969h5.49511Zm-3.78125,6.125,1.26074-1.60937,3.36035,2.415a2.741,2.741,0,0,1-1.4707.73536V79.00678c0,2.06543-.49024,3.501-3.71,3.8164,0-2.20507-.77051-2.66015-3.01075-2.90625V79.4267H181.089c.41992,0,.52539-.10449.52539-.52441V76.10248h-9.97656v5.63477c0,.03515-.31445,1.01562-2.76465,1.01562V65.60053l2.97461,1.29492Zm.35058.77051h-9.97656v3.39551h9.97656Zm-9.97656,7.63086h9.97656V71.831h-9.97656Z"/><path class="cls-2" d="M202.3673,60.52533l1.68067-2.30957,3.11523,2.37891c-.28027.52539-.70019.70117-1.64551.70117H190.43176l-.21-.77051H196.837V55.76459h-5.04l-.21-.80469h5.25V50.12983l4.13086.3496c-.03516.49024-.38574.69922-1.40039.875V54.9599h1.61035L202.753,52.79l3.00977,2.27539c-.24512.48926-.7002.69922-1.64453.69922H199.5675v4.76074Zm-.24414,7.24512,1.60938-2.16992,3.08105,2.27539c-.28027.49023-.665.70019-1.64551.70019H199.5675v5.11036h2.03027l1.61035-2.24024,3.08008,2.3457c-.28027.49024-.70019.69922-1.64551.69922H199.5675v7.52637a2.86331,2.86331,0,0,1-2.27539.77051H196.837V74.49115h-5.77539l-.21-.80468H196.837V68.57611h-6.33594l-.21-.80566H194.632a1.80632,1.80632,0,0,1-.62988-.55957,11.2182,11.2182,0,0,0-1.085-5.0752l.38476-.21093c2.58985,1.36523,3.46485,2.90625,3.46485,4.0957a1.878,1.878,0,0,1-1.01465,1.75h3.88574c.52441-1.82031,1.12012-4.33984,1.43457-6.16016l3.95606,1.08594c-.10547.38477-.49024.5586-1.2959.52442a36.65131,36.65131,0,0,1-3.21973,4.5498Zm17.99121-4.02539,2.83594,2.45117c-.24512.31445-.5957.41992-1.36523.49024a27.41412,27.41412,0,0,1-3.81543,9.416,18.881,18.881,0,0,0,5.74023,4.165l-.10547.35059a3.26579,3.26579,0,0,0-2.625,2.24023,18.395,18.395,0,0,1-4.62012-4.69141,19.97229,19.97229,0,0,1-4.93554,4.166l-.28028-.56055a19.38357,19.38357,0,0,0,4.27051-5.1455,30.20359,30.20359,0,0,1-3.18554-10.501h-1.71485V81.63178c0,.03515-.1748,1.12109-2.69531,1.12109V51.249l2.90527,1.33007h7.59571L219.34484,51.04l3.3252,2.37891a2.61948,2.61948,0,0,1-1.50586.666v5.74024c0,1.75-.2793,2.97558-3.67481,3.39551,0-1.88965-.875-2.31055-2.97558-2.55567V60.2099h3.3955c.41993,0,.56055-.07031.56055-.45507V53.34955h-8.15625V65.32123h8.22559Zm-7.35058,2.38086a21.18431,21.18431,0,0,0,3.60547,8.26074,33.3977,33.3977,0,0,0,2.37988-8.26074Z"/></svg>