<svg id="mockup" xmlns="http://www.w3.org/2000/svg" xmlns:xlink="http://www.w3.org/1999/xlink" viewBox="0 0 1849.96676 1325.46333"><defs><style>.cls-1{fill:#79aeaa;}.cls-2{mask:url(#mask);}.cls-3{fill:#698d76;}.cls-4{mask:url(#mask-2);}.cls-5{opacity:0.3;}.cls-6{fill:#fff;}.cls-7{mask:url(#mask-3);}.cls-8{filter:url(#luminosity-noclip-3);}.cls-9{filter:url(#luminosity-noclip-2);}.cls-10{filter:url(#luminosity-noclip);}</style><filter id="luminosity-noclip" x="1497.04048" y="1143.00306" width="271.43634" height="179.4087" filterUnits="userSpaceOnUse" color-interpolation-filters="sRGB"><feFlood flood-color="#fff" result="bg"/><feBlend in="SourceGraphic" in2="bg"/></filter><mask id="mask" x="1497.04048" y="1143.00306" width="271.43634" height="179.4087" maskUnits="userSpaceOnUse"><g class="cls-10"><path d="M1529.56153,1157.42785a5.62974,5.62974,0,0,0,.5064.7988c.026-.001.5055-.0645,1.00732-.1403l1.764-.3022a2.64862,2.64862,0,0,0,.90468-.2847,6.55669,6.55669,0,0,0-.3846-1.0268l-.4887-1.0518a1.613,1.613,0,0,0-1.3776-.7398l-2.0549.2185a.68541.68541,0,0,0-.5498.9918Z"/><path d="M1563.77025,1280.21905a4.56182,4.56182,0,0,0,.963-.2477l1.10578-.3346c.5063-.2176.92022-.4948.9198-.6161a4.9651,4.9651,0,0,0-.50958-1.3134l-.48722-.8993c-.2563-.4879-.6834-.8501-.949-.8048a1.8369,1.8369,0,0,0-1.0579,1.2331l-.0435,1.8735C1563.73533,1279.66035,1563.766,1280.18915,1563.77025,1280.21905Z"/><path d="M1660.848,1189.01415c-.0882.3324.0261.4192.254.1928s.7163-.9644.575-1.0418S1660.93625,1188.68175,1660.848,1189.01415Z"/><path d="M1563.30293,1282.94875a.81491.81491,0,0,0-.2913-.1122,1.34736,1.34736,0,0,0-.4556.8325l-.3752,1.8967c-.1077.4719.0891.5829.4372.2466l1.2484-1.2781c.3155-.367.458-.78.3166-.9177S1563.38953,1283.00345,1563.30293,1282.94875Z"/><path d="M1584.17673,1150.22385a2.8638,2.8638,0,0,0,1.0706.1818,1.10283,1.10283,0,0,0,.5594-.9451l-.3657-2.3645a.64647.64647,0,0,0-.9387-.419l-3.7575,1.7283c-.4009.185-.3943.4729.0145.6396Z"/><path d="M1615.36993,1204.52835c-.3669.3615-.3056.6143.1362.5616s1.5918-.5715,1.5482-.8595-.629-.7572-.9993-.3992Z"/><path d="M1648.37093,1177.77935a.34971.34971,0,0,0,.3582-.2504c.0399-.1527-.1812-.5657-.47488-.5322s-1.04062.1654-1.00732.2539.189.3514.2712.3773S1648.21383,1177.76445,1648.37093,1177.77935Z"/><path d="M1665.261,1242.27135a.51581.51581,0,0,0-.07578-.9422c-.43242-.2343-1.72032-.6262-1.90622-.3012s-.531,1.2945-.306,1.4693A4.06635,4.06635,0,0,0,1665.261,1242.27135Z"/><path d="M1643.07383,1211.877a1.02336,1.02336,0,0,0,1.261-.4465c.2269-.4323.5993-1.7225.4-1.7535a10.29316,10.29316,0,0,0-1.6759-.0043l-1.28968.1449c-.50042.0476-.94572.1918-.98962.3204a1.23115,1.23115,0,0,0,.6489.905Z"/><path d="M1541.77643,1194.53115a.61927.61927,0,0,0-.0524.8442l.5979.6426a.69022.69022,0,0,0,.8811.0056l.9769-.8795a.6192.6192,0,0,0,.0111-.8456l-.5304-.531a.769.769,0,0,0-.9141-.0237Z"/><path d="M1591.03013,1153.95505a.83048.83048,0,0,0,.6237.9398c.3988.0691,1.7158-.2242,1.9185-.6273l.839-1.9536a.48122.48122,0,0,0-.5297-.702l-1.7111.1244a1.26349,1.26349,0,0,0-.94228.9598Z"/><path d="M1539.86933,1255.97715a3.00435,3.00435,0,0,0,1.019.1871.67275.67275,0,0,0,.3991-.9787l-1.01318-1.7768c-.27532-.4995-.69532-.4842-.93342.0341a7.69249,7.69249,0,0,0-.3452,1.0038C1538.85133,1254.99305,1539.552,1255.85825,1539.86933,1255.97715Z"/><path d="M1564.57133,1240.34785a.83722.83722,0,0,0,.9456-.0083l1.3756-1.0922c.2443-.2144.4032-.4643.353-.5554a2.73618,2.73618,0,0,0-.562-.557,1.701,1.701,0,0,0-1.2454-.1387l-1.4083,1.0146a.521.521,0,0,0-.0477.7887Z"/><path d="M1690.23833,1231.80805a.77872.77872,0,0,0,.9117-.4558c.15722-.3615-.0086-1.6285-.4757-1.8325l-1.4659-.5944c-.4821-.1655-.7647.1008-.6281.5918l.20492.9651A3.14172,3.14172,0,0,0,1690.23833,1231.80805Z"/><path d="M1524.737,1312.21965a.478.478,0,0,0,.3467-.4557l-.028-.4771a.45042.45042,0,0,0-.4076-.3858l-1.4536-.0299c-.2021.0092-.3734.0183-.3806.0203a1.89434,1.89434,0,0,0-.0555.3735l-.0181.996a.30709.30709,0,0,0,.3837.2872Z"/><path d="M1693.65393,1159.38905c-.0265.0591.2675.3105.6534.5586l.7821.5285c.3987.2271.8262.2746.9502.1055a.66766.66766,0,0,0-.3968-.881l-1.0822-.3051A1.42554,1.42554,0,0,0,1693.65393,1159.38905Z"/><path d="M1601.57383,1181.63225c.0911.4586.4446.6849.7856.5028s1.0659-1.0054.7847-1.379l-1.0715-1.4015c-.2723-.3801-.5525-.6661-.6227-.6355a1.49446,1.49446,0,0,0-.147.9586Z"/><path d="M1690.46153,1170.90975a8.14289,8.14289,0,0,0-.9644.0585c-.466.0455-1.7894.4127-1.8817.7703s.2213,1.4434.7525,1.5243l2.458.3938c.5344.0563.8002-.3025.5907-.7973l-.3706-.9889A2.67815,2.67815,0,0,0,1690.46153,1170.90975Z"/><path d="M1712.36773,1305.34865a5.65962,5.65962,0,0,0-.6017-.9554,1.76462,1.76462,0,0,0-.9956.4901l-1.499,1.2505a1.44806,1.44806,0,0,0-.4054,1.4824c.1823.4478,1.1893,1.455,1.68922,1.2328l1.89388-.9096a1.15787,1.15787,0,0,0,.4642-1.4164Z"/><path d="M1673.57543,1201.62755c.0137.0137.0364.0025.0504-.025s.0208-.0793-.003-.0683S1673.56173,1201.61375,1673.57543,1201.62755Z"/><path d="M1708.45613,1207.13955a.63388.63388,0,0,0,.5312-.8989l-.5663-1.576c-.1434-.472-.4057-.4815-.583-.0212l-.573,1.5989C1707.13273,1206.71755,1708.01925,1207.16235,1708.45613,1207.13955Z"/><path d="M1709.47393,1189.36705a1.15879,1.15879,0,0,0,.6915,1.2394l3.6155,1.4872c.4655.201.97432.1603,1.1308-.0905a1.57676,1.57676,0,0,0-.1722-1.5405l-4.022-3.2687a.5165.5165,0,0,0-.8905.3564Z"/><path d="M1637.41663,1229.32675c.4422.2606.9323.2944,1.0891.0751a.88612.88612,0,0,0-.5663-1.094l-1.6451-.2203c-.5078-.075-.5798.1055-.1602.4009Z"/><path d="M1692.01533,1181.70845a.49058.49058,0,0,0-.1078.6707c.14472.2435.694.6807.8233.3964s.41042-1.021.3326-1.1013A1.84229,1.84229,0,0,0,1692.01533,1181.70845Z"/><path d="M1634.68563,1180.86025c.368.1481.6722.2697.676.2702s.0189-.3691.0254-.8224a6.71387,6.71387,0,0,0-.1209-1.6475.93849.93849,0,0,0-.8468.3465C1634.157,1179.33015,1634.31773,1180.71215,1634.68563,1180.86025Z"/><path d="M1696.55183,1272.65015c-.1278.3653.19442.648.716.6282l2.82942-.054c.52178-.0117.86418-.2075.76078-.435a2.42075,2.42075,0,0,0-1.3051-.9459l-1.5223-.2807C1697.51525,1271.48095,1696.67963,1272.28485,1696.55183,1272.65015Z"/><path d="M1731.56262,1234.08435c.4475.1407.8914.1181.9865-.0503a1.77911,1.77911,0,0,0,.0572-.7797,2.58087,2.58087,0,0,0-.9595-.1536l-1.95389.0121c-.4691-.003-.494.1306-.0553.2968Z"/><path d="M1668.74573,1263.78955a2.33331,2.33331,0,0,0,.5454-1.061c.1157-.446.3448-1.7209.1952-1.8191a4.21054,4.21054,0,0,0-.8643-.382.761.761,0,0,0-.5875.7501l.0244,2.1535A.43635.43635,0,0,0,1668.74573,1263.78955Z"/><path d="M1584.22243,1171.92175a1.50787,1.50787,0,0,0,1.416.507s2.3649-.5561,4.1247-1.1408c.6835-.227,1.2248-.4185,1.2248-.4185.4646-.1643.6469-.5654.40532-.8912a3.4068,3.4068,0,0,0-1.98522-.9892l-4.93978,1.1923a.797.797,0,0,0-.61582.9861A3.40984,3.40984,0,0,0,1584.22243,1171.92175Z"/><path d="M1757.20762,1309.86955a.75822.75822,0,0,0,1.1039-.1677l1.7243-2.4804c.25143-.3737.1199-.5308-.2923-.3491l-2.69527,1.3801C1756.65572,1308.47355,1756.85772,1309.59205,1757.20762,1309.86955Z"/><path d="M1745.15452,1204.10725a1.04075,1.04075,0,0,0-.3556,1.2896l1.0249,1.715c.2899.3957.6241.3301.7428-.1459l.7855-3.1262c.1206-.4754-.156-.7223-.6147-.5486Z"/><path d="M1693.67993,1239.30015c.06532-.3882-.255-.6268-.7118-.5301s-1.5665.5342-1.4253.8125.6537,1.0052.8843,1.0173A2.79926,2.79926,0,0,0,1693.67993,1239.30015Z"/><path d="M1755.34092,1303.12035a2.60562,2.60562,0,0,0-.9775.2572l-1.0303.3328c-.5185.1977-.8526.4434-.7424.5461a1.52335,1.52335,0,0,0,1.2429-.0972A10.66814,10.66814,0,0,0,1755.34092,1303.12035Z"/><path d="M1710.24393,1277.66455c-.117-.4561-.3486-.4688-.5146-.0282l-.6179,1.7661c-.1273.4533.0661.811.4299.795s1.30692-.4796,1.1915-.936Z"/><path d="M1710.44753,1147.65805c-.0532.2607.29.5561.7626.6563l3.0263.6834a2.29443,2.29443,0,0,0,.87082.1086,2.09,2.09,0,0,0-.76422-.5602l-2.7571-1.3649A.98557.98557,0,0,0,1710.44753,1147.65805Z"/><path d="M1647.52663,1273.63635c.3657.1109.6344-.2298.5971-.7571l-.14148-1.0457c-.03622-.5274-.30642-.6326-.60032-.2337S1647.161,1273.52535,1647.52663,1273.63635Z"/><path d="M1716.00313,1291.67305c.0563.2273.5165.2353,1.0226.0178l2.6818-1.0657c.5083-.2127.9043-.4929.8801-.6228s-.5376-.3454-1.0645-.1844l-2.712.7423A1.31234,1.31234,0,0,0,1716.00313,1291.67305Z"/><path d="M1710.82453,1303.37335c-.1029.1397.0688.5714.3815.9592l.5744.7394c.3042.3946.621.6859.704.6472s.0863-.5034-.1771-.9264l-.6459-1.1486C1711.39873,1303.22075,1710.92753,1303.23365,1710.82453,1303.37335Z"/><path d="M1729.28933,1176.56945a.70341.70341,0,0,0,.5321,1.0613l1.383.272a1.56805,1.56805,0,0,0,1.4341-.778,18.95612,18.95612,0,0,0,.8533-2.0041,2.13242,2.13242,0,0,0-.79457-.7417c-.42073-.2345-1.93023-.3161-2.22113.1431Z"/><path d="M1743.14325,1159.79825c-.01.3499.35177.624.804.6089l2.54367-.0124c.45233-.0118.8246-.1537.8275-.3153a1.28284,1.28284,0,0,0-.8215-.7991l-2.31867-.5211C1743.73212,1158.68435,1743.15312,1159.44825,1743.14325,1159.79825Z"/><path d="M1623.13143,1313.22265a1.006,1.006,0,0,0,.4094,1.189l1.2546.86c.42982.2575.8059.0927.8357-.3663s-.1051-1.8586-.4313-2.0634S1623.31563,1312.85775,1623.13143,1313.22265Z"/><path d="M1648.12063,1161.11505a1.111,1.111,0,0,0,1.2192-.3576c.1718-.3246.348-1.511-.0062-1.8848l-2.3416-2.2845a3.38206,3.38206,0,0,0-1.1891-.6963,1.88994,1.88994,0,0,0-1.4316.6189l-1.5009,2.458a.64984.64984,0,0,0,.45882,1.0099Z"/><path d="M1535.28625,1159.97305a.67113.67113,0,0,0,.954.5672l3.409-1.2086a.63448.63448,0,0,0,.29768-1.0349l-.6922-.9568a1.93057,1.93057,0,0,0-1.4216-.7303l-1.709.0648a1.02521,1.02521,0,0,0-.9191.9759Z"/><path d="M1718.58863,1169.23045a1.10559,1.10559,0,0,0,.9389.7447c.3505-.0204,1.3708-.3037,1.4506-.6154s-.1691-1.321-.5896-1.4611a15.01291,15.01291,0,0,0-1.8969-.43c-.1559.0049-.4271.3606-.2517.7866Z"/><path d="M1567.26653,1308.77605a2.12,2.12,0,0,0,.223-.7709c.0501-.3471-.0514-1.3796-.3729-1.5366l-1.0988-.5589a.93385.93385,0,0,0-1.0253.2024l-.7099.8437a.5279.5279,0,0,0,.1969.8127l1.9271,1.0041A1.08409,1.08409,0,0,0,1567.26653,1308.77605Z"/><path d="M1585.66553,1187.50565c-.0287.1124.3484.2675.8381.3446l.86262.1317c.48938.0787.52778-.0006.08528-.1762A4.93253,4.93253,0,0,0,1585.66553,1187.50565Z"/><path d="M1733.58792,1253.46075a.38184.38184,0,0,0-.0763.346,3.43845,3.43845,0,0,0,.9313.7601l.74233.3601c.43037.2417.50457.1464.16487-.2117l-.8171-.9253C1734.18892,1253.43605,1733.66925,1253.36025,1733.58792,1253.46075Z"/><path d="M1580.44033,1169.37865a2.97562,2.97562,0,0,0,.40292.8827,3.31011,3.31011,0,0,0,.20388-1.0539l.2119-4.3111a.92749.92749,0,0,0-.9106-.9588c-.4983.0113-1.7434.6451-1.5497,1.1476Z"/><path d="M1547.58625,1255.21765a.81491.81491,0,0,0,.35858,1.0913,18.14013,18.14013,0,0,0,1.777.6328c.1323.018.5212-.0096.5725-.1059a3.94219,3.94219,0,0,0,.129-1.2029l-.0268-.8665a1.23463,1.23463,0,0,0-.5508-1.0625c-.2921-.1206-1.3184-.0931-1.5676.2984Z"/><path d="M1678.36793,1312.82425a1.34375,1.34375,0,0,0,1.2344-.8169l.3351-.9381a1.10876,1.10876,0,0,0-.5568-1.2738c-.452-.2188-1.9996-.2571-2.2483.1806l-.8315,1.6779a.66834.66834,0,0,0,.5638.9616Z"/><path d="M1662.26273,1205.32405c-.084.5302-.022.9741.1379.9864a5.3769,5.3769,0,0,0,.8695-.0601,1.992,1.992,0,0,0,.7782-1.0777l.6518-2.5453c.1133-.5247.0045-1.0233-.2418-1.1079a4.22264,4.22264,0,0,0-1.1263-.1058,2.19868,2.19868,0,0,0-.5114,1.0731Z"/><path d="M1521.99633,1313.27725c.3255-.0534.4963-.4902.3798-.9705l-.3974-1.4433c-.10848-.4822-.3062-.4873-.43948-.0113l-.43912,1.6205C1520.99893,1312.95645,1521.67093,1313.33055,1521.99633,1313.27725Z"/><path d="M1644.227,1216.01645c-.1217.2623.1934.577.7001.6996l2.48012.6775c.50868.1138,1.01638.0546,1.12808-.1316a5.1959,5.1959,0,0,0,.3602-.7971,3.62537,3.62537,0,0,0-.7731-.7385l-1.30018-.8791a1.583,1.583,0,0,0-1.26092-.2298A7.14381,7.14381,0,0,0,1644.227,1216.01645Z"/><path d="M1616.02613,1150.80275a.64113.64113,0,0,0,.2257,1.106l4.55,2.0872a7.21924,7.21924,0,0,0,.9463.3452,7.64648,7.64648,0,0,0,.0456-1.0504l.0124-2.1937a6.01032,6.01032,0,0,0-.0143-1.0382c-.026-.0253-.4924-.2924-.9793-.5396l-1.08628-.5676a1.81873,1.81873,0,0,0-1.69642.1302Z"/><path d="M1577.08613,1293.10085c.0279-.3036.0455-.5637.03912-.578a5.76281,5.76281,0,0,0-.75292-.3044c-.4017-.1389-1.5704-.2692-1.6012-.0735a3.45711,3.45711,0,0,0,.22,1.3139c.1618.3065.71712,1.0737.9448,1.0938s.905-.1641.969-.4552Z"/><path d="M1540.56573,1205.88355c-.2076.0268-.3864.0524-.3974.0568a5.2178,5.2178,0,0,0,.31292.7535c.19388.4057.65458.9517.69718.5865S1540.77325,1205.85675,1540.56573,1205.88355Z"/><path d="M1659.25925,1158.32865a.905.905,0,0,0-1.01122-.6413,3.97367,3.97367,0,0,0-1.595.9,1.71487,1.71487,0,0,0,.5805,1.1413l2.0045,1.294c.374.2647.61822.1115.5427-.3404Z"/><path d="M1633.26513,1179.07965a9.825,9.825,0,0,1,.6098,1.0022l2.45432,4.5359a2.8732,2.8732,0,0,0,.47028.7449.797.797,0,0,0,.2061-.3747,2.844,2.844,0,0,0-.3237-1.3889l-3.1758-4.9513c-.2505-.4084-.4806-.6346-.5114-.5025A2.42115,2.42115,0,0,0,1633.26513,1179.07965Z"/><path d="M1608.06563,1173.97275a1.12181,1.12181,0,0,0,.15662-1.4091c-.29742-.3545-1.42672-.708-1.58152-.1603l-.8424,2.9862c-.1654.5446.0462.6795.4702.2998Z"/><path d="M1668.46293,1170.28485c-.3905-.1133-.7114.0628-.7132.3913a6.1614,6.1614,0,0,0,.3317,1.8177c.1825.3043.8355.568,1.0312.1263l.3977-.9745C1669.64763,1171.18245,1668.85343,1170.39805,1668.46293,1170.28485Z"/><path d="M1717.25573,1147.42615a.95593.95593,0,0,0-.7037,1.1163l.3847,1.2058c.2206.4551.4062.8337.4124.8414s.4275-.0587.92212-.1643l2.58938-.6094a3.7665,3.7665,0,0,0,1.3201-.6514c.2383-.2245.6736-1.05.4643-1.3757s-1.2743-1.1431-1.7737-1.0628Z"/><path d="M1532.49325,1312.70775a.13843.13843,0,0,0,.02468.0593c.0065.0034.0098-.0247-.0039-.0573S1532.486,1312.67855,1532.49325,1312.70775Z"/><path d="M1593.57063,1237.70025c.2431.3782.667.3406.9419-.0836l1.1549-1.8836c.2703-.4271.10182-.6381-.3745-.4689l-1.5463.628C1593.29493,1236.119,1593.32763,1237.32215,1593.57063,1237.70025Z"/><path d="M1678.37625,1282.01525a2.79328,2.79328,0,0,0-.46562.9154c-.13438.3989-.1255,1.6625.358,1.892l1.9912,1.0121a.75029.75029,0,0,0,1.0972-.5317l.3316-1.2681a1.19384,1.19384,0,0,0-.6422-1.3398l-1.3303-.6371A1.88117,1.88117,0,0,0,1678.37625,1282.01525Z"/><path d="M1634.24193,1203.09885a1.28557,1.28557,0,0,0-.3843-.7784,3.75261,3.75261,0,0,0-1.1806-.488,2.44258,2.44258,0,0,0-1.5385.6355l-.6459,1.1005c-.2091.4319-.2106.898-.0035,1.0357a4.94734,4.94734,0,0,0,1.6676.4835l1.19952.0515c.47928.0237.89588-.1057.92588-.2875A16.56,16.56,0,0,0,1634.24193,1203.09885Z"/><path d="M1585.30513,1150.15105a1.39134,1.39134,0,0,0-.8258-.4495,4.06853,4.06853,0,0,0-1.3504.3045,2.64661,2.64661,0,0,0-.966,1.5228l.1156,1.3776c.0841.513.3733.9268.6426.9194a5.36339,5.36339,0,0,0,1.7788-.6123l1.0942-.7031c.4392-.2781.7273-.6527.64012-.8325A17.99934,17.99934,0,0,0,1585.30513,1150.15105Z"/><path d="M1543.02473,1203.92455c.0603-.1007.2094-.3629.33152-.5827s.50608-.9248.56808-1.0495a1.91369,1.91369,0,0,0-.3119-1.2275c-.2974-.4304-1.35-1.3864-1.6169-1.0956s-.7677,1.5627-.5117,2.025l.8182,1.4526C1542.57953,1203.89645,1542.96453,1204.02525,1543.02473,1203.92455Z"/><path d="M1543.51425,1154.53825a2.66611,2.66611,0,0,0,.719-.6954l2.77978-3.4644a3.28657,3.28657,0,0,0,.5714-.9796c.0323-.1813-.2484-.2005-.5264.16l-3.4065,4.378C1543.375,1154.29855,1543.40253,1154.56465,1543.51425,1154.53825Z"/><path d="M1662.86643,1214.92315c.2947.1069.5936-.25.6643-.7931l.185-1.4806c.0756-.5424-.1356-.631-.4693-.1967l-.7461,1.0489A1.20762,1.20762,0,0,0,1662.86643,1214.92315Z"/><path d="M1590.11063,1298.00435a2.01042,2.01042,0,0,0,1.00762-1.3156,5.548,5.548,0,0,0-.39042-2.5688l-2.5309-3.2978a1.92844,1.92844,0,0,0-1.5145-.7067c-.5186.0383-2.0984.6214-2.31618,1.1048l-.81992,2.0169a2.06271,2.06271,0,0,0,.2198,1.6928l2.4115,3.4845c.2989.4379.7482.7712.9985.7407a8.434,8.434,0,0,0,1.7765-.5771Z"/><path d="M1548.37925,1150.23715c.15738-.5216.013-1.0067-.32092-1.0779s-1.3193.1619-1.4195.6975l-.7097,3.3289c-.1177.532.0008.9863.2632,1.0094a1.50739,1.50739,0,0,0,1.2206-.8509Z"/><path d="M1625.14043,1147.054a1.06888,1.06888,0,0,0,.7871.9222c.3538.0309,1.383-.176,1.45172-.3914a3.54219,3.54219,0,0,0-.11892-1.5992l-.9272-2.2896c-.17288-.4508-.5146-.7574-.7594-.6813s-.85948.678-.7952,1.1565Z"/><path d="M1614.06993,1211.85845a1.04808,1.04808,0,0,0,.9712-.9856l.1805-3.8458c.0342-.5144-.0072-.9464-.092-.9599a1.7259,1.7259,0,0,0-.7411.7949l-1.9224,3.9927a.63133.63133,0,0,0,.5504.9375C1613.52025,1211.83315,1614.06993,1211.85845,1614.06993,1211.85845Z"/><path d="M1696.98283,1190.55645c.3965.31.6081.1676.47-.3165l-.8338-2.4913a.61355.61355,0,0,0-.9766-.348c-.3525.2769-.969,1.4605-.5724,1.7706Z"/><path d="M1609.12633,1212.53825c-.4049.2677-.68708.592-.6272.7207a1.23025,1.23025,0,0,0,1.1059.1911l2.4394-.7958c.4544-.1705.6599-.5004.4566-.7331s-.9274-.8378-1.0596-.7963a7.73305,7.73305,0,0,0-1.2113.668Z"/><path d="M1535.325,1165.73285c.0171-.4381-.2487-.5721-.5907-.2978l-1.4025,1.3208a.87373.87373,0,0,0,.0308,1.1675l1.1651,1.0415a3.90761,3.90761,0,0,0,.6767.4434,4.14849,4.14849,0,0,0,.0874-.8548Z"/><path d="M1663.76325,1240.8a1.08538,1.08538,0,0,0,.15928-1.3356l-1.1782-2.1418c-.2984-.4648-.6898-.4179-.8698.1043l-.6928,1.7723a1.29914,1.29914,0,0,0,.193,1.3735A4.06367,4.06367,0,0,0,1663.76325,1240.8Z"/><path d="M1584.76533,1191.59115c-.0529-.45-.3003-.5088-.5499-.1307l-.6501,1.067c-.2065.4033-.1068.8034.2216.8891s1.2402-.0877,1.1887-.5378Z"/><path d="M1562.11033,1173.12735c-.0516.4568.1251.5385.3925.1817s.7663-1.45.5652-1.5163S1562.16183,1172.67065,1562.11033,1173.12735Z"/><path d="M1710.29553,1269.25105a3.55819,3.55819,0,0,0,.8605-1.2303,2.39816,2.39816,0,0,0-.3592-1.7173c-.376-.3455-1.8755-.8967-2.2937-.5342l-1.9662,1.8403c-.379.4033-.6002.8678-.4914,1.0322a2.93122,2.93122,0,0,0,4.25.6093Z"/><path d="M1740.33612,1160.96835a6.66962,6.66962,0,0,0-.5563-.8486l-2.9677-4.1063c-.2984-.427-.53087-.5534-.5166-.2809a5.26979,5.26979,0,0,0,.6383,1.7704l2.3107,3.2365c.2951.4292.6204.7223.72273.6513A1.71567,1.71567,0,0,0,1740.33612,1160.96835Z"/><path d="M1585.45643,1230.28445a.95193.95193,0,0,0-.3896-1.2068l-1.3333-.8041a.73539.73539,0,0,0-1.0766.3629l-.698,1.5402a.76762.76762,0,0,0,.4616,1.063l1.4283.5268a.894.894,0,0,0,1.142-.4763Z"/><path d="M1564.62625,1287.52045c.30038-.0364.49218-.4748.42618-.9743s-.4395-1.1636-.6701-.7302-.7504,1.6781-.7427,1.6837A6.43166,6.43166,0,0,0,1564.62625,1287.52045Z"/></g></mask><filter id="luminosity-noclip-2" x="1444.81226" y="1180.34383" width="357.14264" height="143.67146" filterUnits="userSpaceOnUse" color-interpolation-filters="sRGB"><feFlood flood-color="#fff" result="bg"/><feBlend in="SourceGraphic" in2="bg"/></filter><mask id="mask-2" x="1444.81226" y="1180.34383" width="357.14264" height="143.67146" maskUnits="userSpaceOnUse"><g class="cls-9"><path d="M1507.18426,1247.25282a6.02974,6.02974,0,0,0,.99459.2084c.01873-.02075.32921-.43756.64677-.881l1.08915-1.585a2.84639,2.84639,0,0,0,.45863-.91,7.03794,7.03794,0,0,0-1.07905-.47323l-1.1763-.41177a1.73307,1.73307,0,0,0-1.60195.50666l-1.37171,1.74645a.7365.7365,0,0,0,.352,1.16654Z"/><path d="M1572.35217,1264.09977a4.6419,4.6419,0,0,0,.898.47009l1.06548.50184c.53189.181,1.0344.25383,1.11685.16174a5.05917,5.05917,0,0,0,.51114-1.34208l.24531-1.01343c.13909-.54435.06315-1.11-.16881-1.25717a1.873,1.873,0,0,0-1.6428.211l-1.31213,1.3884C1572.70729,1263.65312,1572.36933,1264.07431,1572.35217,1264.09977Z"/><path d="M1776.46305,1223.97251a.75369.75369,0,0,0,.956.71821l1.01455-.13516c.52461-.09714.83868-.46191.69791-.81052s-.76622-1.31382-1.12661-1.34657S1776.462,1223.48088,1776.46305,1223.97251Z"/><path d="M1652.74532,1191.60487a.55717.55717,0,0,0-.17967-1.00513c-.48941-.20683-1.91505-.49387-2.08106-.125s-.43588,1.44718-.17574,1.61162A4.39177,4.39177,0,0,0,1652.74532,1191.60487Z"/><path d="M1798.19062,1247.06236a7.80669,7.80669,0,0,0-.10656.97922,2.68567,2.68567,0,0,0,.97271.04711l1.461-.13393a1.63935,1.63935,0,0,0,1.16542-.92381,6.2726,6.2726,0,0,0,.24486-2.03023c-.10073-.27436-.64844-1.07983-1.01915-1.17114a8.315,8.315,0,0,0-1.60466-.12461,2,2,0,0,0-.62422,1.01388Z"/><path d="M1561.67116,1262.52292a6.58868,6.58868,0,0,0,.66538.65124c.05832.02939.35086-.3199.521-.84058l.85775-2.70087c.17769-.51821-.04364-.68456-.492-.3697l-1.72448,1.31392C1561.09036,1260.94193,1561.36337,1262.19394,1561.67116,1262.52292Z"/><path d="M1556.13178,1285.48276a1.303,1.303,0,0,0,.85382-1.083c.05339-.49208-.37935-1.97706-.91887-2.09528l-1.85132-.32058a.56469.56469,0,0,0-.63117.83587l.73717,2.11C1554.52151,1285.44451,1555.71553,1285.58641,1556.13178,1285.48276Z"/><path d="M1568.70876,1264.23785c-.13864.396-.09568.73985.09545.76419a1.53006,1.53006,0,0,0,1.03609-.3789c.174-.26068.43824-1.12246.22736-1.25369S1568.84742,1263.84178,1568.70876,1264.23785Z"/><path d="M1459.40216,1253.31108c.48716.30061.95768.23891,1.04575-.137s.20457-1.47679.06122-1.531-.99077-.34648-1.53714-.51686l-1.17719-.3936c-.54166-.18508-.98909-.32775-.99425-.3171a3.67506,3.67506,0,0,0-.04274.38507,2.18534,2.18534,0,0,0,.81277,1.27232Z"/><path d="M1467.87594,1244.937c-.29545.385-.4582.73952-.36174.78809a1.47879,1.47879,0,0,0,.96-.54491l.75477-.89027c.30173-.38.45058-.72.33078-.75534a1.69016,1.69016,0,0,0-1.025.5973Z"/><path d="M1569.69953,1254.60336a.87965.87965,0,0,0,.52617,1.07254c.4093.1272,1.8327-.00034,2.1009-.39595l1.14892-1.93668a.50964.50964,0,0,0-.4601-.80985l-1.81409-.104a1.33822,1.33822,0,0,0-1.1212.87883Z"/><path d="M1507.346,1249.66923a6.04866,6.04866,0,0,0,.096,1.15847c.03791.05642.20527.16567.28872.1374a2.10429,2.10429,0,0,0,.30364-1.193l.01783-1.63528c-.01-.58081-.12056-1.006-.246-.94479a2.17191,2.17191,0,0,0-.4563,1.33277Z"/><path d="M1496.06187,1237.10393a3.16754,3.16754,0,0,0,.95657-.63487l.87815-.78539a.94448.94448,0,0,0,.13415-1.31539c-.3273-.30139-1.46243-.58989-1.59939-.02389l-.39292,1.6529A1.59069,1.59069,0,0,0,1496.06187,1237.10393Z"/><path d="M1516.14922,1249.5334a3.01254,3.01254,0,0,0,.908.50352.67411.67411,0,0,0,.69173-.802l-.39426-2.01116c-.10174-.5624-.50554-.68208-.89734-.26594a7.70129,7.70129,0,0,0-.64855.84293A1.80238,1.80238,0,0,0,1516.14922,1249.5334Z"/><path d="M1562.1186,1231.289a.86044.86044,0,0,0,.96441-.11867l1.27714-1.27545c.22444-.24744.35747-.52113.29567-.60817a2.809,2.809,0,0,0-.63868-.50318,1.74811,1.74811,0,0,0-1.28768.00347l-1.31965,1.20008a.53536.53536,0,0,0,.0433.81074Z"/><path d="M1684.805,1191.78838a.7719.7719,0,0,0,1.005-.10454c.27223-.28042.56083-1.51381.19876-1.86624l-1.15239-1.06357c-.38946-.32192-.7447-.17363-.78956.32966l-.147.967A3.11571,3.11571,0,0,0,1684.805,1191.78838Z"/><path d="M1621.00144,1299.05791c.48254-.00325.65093-.32932.3743-.72471l-.48579-.79639a1.67594,1.67594,0,0,0-1.10171-.72393c-.3291-.0028-1.25885.32226-1.29845.68994s.48154,1.43373.96251,1.473Z"/><path d="M1709.50316,1203.6818c.41919.22916.76579.304.77027.16657a2.54052,2.54052,0,0,0-.58711-1.12549l-1.10372-1.09116c-.35389-.3208-.80917-.42657-1.01175-.23521s-.27133,1.05145.15019,1.27612Z"/><path d="M1517.03209,1291.72117a.51889.51889,0,0,0,.51373-.34985l.13516-.50083a.4887.4887,0,0,0-.2869-.53728l-1.48622-.53066c-.21123-.06-.3907-.10959-.39889-.11a2.07353,2.07353,0,0,0-.1855.36555l-.36109,1.019a.33312.33312,0,0,0,.29612.42758Z"/><path d="M1524.12386,1306.74753a1.48407,1.48407,0,0,0,.91619,1.1182l.85294.30162a1.247,1.247,0,0,0,1.32086-.39708l1.06615-1.60769a1.15968,1.15968,0,0,0-.21929-1.33109l-2.79857-2.35809c-.37767-.27952-.84047-.34357-1.02835-.14234a3.02639,3.02639,0,0,0-.5107,1.63574Z"/><path d="M1610.27085,1254.29243c.12092.456.33045.85774.46561.893a1.07831,1.07831,0,0,0,.80637-.6352c.16646-.41064.17543-1.64123-.21974-1.67712S1610.14994,1253.83658,1610.27085,1254.29243Z"/><path d="M1713.40332,1242.38162c.50116.24508.97238.33751,1.04722.20538a1.6457,1.6457,0,0,0-.4607-1.2288l-2.14654-2.06017a.96294.96294,0,0,0-1.28608-.107c-.28426.30476-.47023,1.527.03365,1.76652Z"/><path d="M1653.94082,1260.30482a4.22,4.22,0,0,0-.05308-.66706c-.01772-.02771-.08558-.13561-.11116-.1779a1.17125,1.17125,0,0,0-.72448.11845c-.34736.14974-1.30078.82151-1.28813,1.1662s.3817,1.2252.7486,1.13076S1653.95213,1260.6439,1653.94082,1260.30482Z"/><path d="M1469.55015,1243.89868a.63941.63941,0,0,0-.84294-.65214l-3.99315.92583a1.22154,1.22154,0,0,0-.91517.895c-.03756.37251.30823,1.34488.78606,1.28959l3.99271-.38238a1.13275,1.13275,0,0,0,.92369-.99818Z"/><path d="M1735.83822,1226.07486a2.51035,2.51035,0,0,0,.55769,1.14523c.29355.35568,1.32661,1.24191,1.72659,1.18235s1.49968-.43229,1.50136-.61759a3.78029,3.78029,0,0,0-.63139-1.4409l-.57676-.74939c-.32214-.4232-.63-.82633-.68411-.89565a.91223.91223,0,0,0-.74187-.03376A3.27552,3.27552,0,0,0,1735.83822,1226.07486Z"/><path d="M1680.1,1208.35233c.01929.00561.03433-.01581.03343-.04778s-.02075-.08244-.03679-.06068S1680.08069,1208.34672,1680.1,1208.35233Z"/><path d="M1563.90084,1307.14135a.81045.81045,0,0,0,.49654,1.03777l3.7179,1.91638c.45629.23219.83856.293.84944.13516a2.26758,2.26758,0,0,0-.67053-1.17719l-2.87328-2.41036C1565.01756,1306.3278,1564.08657,1306.79778,1563.90084,1307.14135Z"/><path d="M1541.47389,1289.76957a6.52944,6.52944,0,0,0-.02255.96587l-.02208.98831a1.793,1.793,0,0,0,.7948,1.38874l1.193.70082a4.55349,4.55349,0,0,0,.84417.40481,4.83048,4.83048,0,0,0,.00617-.99358l-.05608-1.77168a1.40027,1.40027,0,0,0-.90923-1.18594C1542.82718,1290.12076,1541.495,1289.74489,1541.47389,1289.76957Z"/><path d="M1781.5025,1222.36852a.63718.63718,0,0,0,.4997.99683l1.35666.20471a.66476.66476,0,0,0,.69746-.90474l-.5328-1.76249a4.23924,4.23924,0,0,0-.31586-.94736,3.55573,3.55573,0,0,0-.703.77429Z"/><path d="M1529.43992,1241.68742a.81119.81119,0,0,0,.76554-1.03923l-.22221-1.09094a2.02662,2.02662,0,0,0-.90519-1.30787c-.38426-.17633-1.59165-.05732-1.76248.47054l-.52427,1.98839a.818.818,0,0,0,.85225.97664Z"/><path d="M1677.86752,1226.02932c.14974-.25361-.08816-.63621-.52887-.85022l-1.58156-.83677c-.44205-.2111-.90934-.23466-1.03855-.05238a1.06142,1.06142,0,0,0,.3135,1.18089l1.468.949A1.31777,1.31777,0,0,0,1677.86752,1226.02932Z"/><path d="M1625.41185,1315.88523c-.24127.03893-.50912.45653-.59538.92785l-.1383.98292a.72467.72467,0,0,0,.81613.78629l1.61128-.11945a1.11351,1.11351,0,0,0,.96116-.6969,2.93787,2.93787,0,0,0-.17038-1.44662,3.49711,3.49711,0,0,0-.94378-.51933A14.04384,14.04384,0,0,0,1625.41185,1315.88523Z"/><path d="M1491.01334,1257.56973a.27819.27819,0,0,0,.00449.11654,6.46372,6.46372,0,0,0,.925.61154l1.39457.80132c.50285.25888,1.01265.31138,1.133.11665s-.14505-.92773-.69444-1.062l-1.73893-.461A2.74319,2.74319,0,0,0,1491.01334,1257.56973Z"/><path d="M1761.10276,1200.23389c.402.35759.8002.21548.88489-.31575l.63486-3.22043c.09366-.52976-.00953-1.03519-.22927-1.12324a1.74283,1.74283,0,0,0-1.44011.42029l-1.13121,1.464a1.406,1.406,0,0,0,.10286,1.56854Z"/><path d="M1794.82549,1250.54358c.16545.09859.61928-.16837,1.00838-.59337l1.32806-1.54757a.59953.59953,0,0,0-.4103-1.02633l-1.32055-.30285a.88705.88705,0,0,0-1.0731.85875l-.03343,1.18942A2.15019,2.15019,0,0,0,1794.82549,1250.54358Z"/><path d="M1787.45712,1183.15218c.34805-.22277.6057-.51575.57261-.651a3.89906,3.89906,0,0,0-.78663-1.1081l-1.09733-.873c-.37083-.32192-.60077-.19024-.511.29253l.40876,2.15754C1786.16506,1183.44594,1787.10909,1183.37494,1787.45712,1183.15218Z"/><path d="M1698.58648,1230.06835a5.45856,5.45856,0,0,0,.08951-.94478,9.68212,9.68212,0,0,0-1.01309.04049l-1.02947.06539a1.47579,1.47579,0,0,0-1.16116,1.01915l-.59841,2.3858a.747.747,0,0,0,.73526.94019l1.46232.03073a1.2327,1.2327,0,0,0,1.08544-.98258Z"/><path d="M1673.13429,1211.34417c.55-.03735,1.0049-.30487,1.01085-.59438a.95172.95172,0,0,0-1.16587-.62589l-1.59187.80312c-.49545.24172-.4498.44541.10139.45259Z"/><path d="M1641.42563,1250.50892c.303.08581.36656-.20549.14133-.64743l-.31687-.61546c-.22456-.44228-.49746-.57093-.60638-.28581A2.27874,2.27874,0,0,0,1641.42563,1250.50892Z"/><path d="M1759.79893,1247.52067a1.23818,1.23818,0,0,0-.78472,1.34152l.32315,1.45257a.91507.91507,0,0,0,1.24315.591l4.9948-1.88418a2.739,2.739,0,0,0,.93144-.48052,4.27447,4.27447,0,0,0-.60357-.83094,4.22614,4.22614,0,0,0-2.07812-1.16272,21.79429,21.79429,0,0,0-2.99812.615Z"/><path d="M1762.94769,1195.65568c-.19405.54479-.20191,1.08286-.01728,1.1957a4.8308,4.8308,0,0,0,1.64134.35467c.51676-.01245,2.08822-.468,2.29237-1.00905l.97327-2.59118a.93625.93625,0,0,0-.69174-1.23114l-1.60657-.35277a1.43188,1.43188,0,0,0-1.44583.81949Z"/><path d="M1698.09979,1237.23348c-.18081.3531.10678.68523.63924.73806l2.88113.34076c.53156.061.90653-.08984.8334-.33538a2.48216,2.48216,0,0,0-1.19312-1.1432l-1.50675-.4978C1699.24165,1236.18079,1698.2806,1236.88038,1698.09979,1237.23348Z"/><path d="M1779.03336,1195.55562a2.406,2.406,0,0,0,.40705.51754,8.058,8.058,0,0,0,1.74737,1.25359l2.2754.98067c.47895.20516.839.08446.79986-.26841s-.189-1.45964-.25125-1.63361a1.80158,1.80158,0,0,0-1.16194-.70788l-2.84019-.16287A2.91877,2.91877,0,0,0,1779.03336,1195.55562Z"/><path d="M1712.93042,1194.6372c.43409.20112.8859.23656,1.00415.07874a1.81034,1.81034,0,0,0,.16026-.78091,2.63248,2.63248,0,0,0-.95-.28131l-1.97738-.24453c-.474-.06461-.51677.06719-.095.29287Z"/><path d="M1686.9977,1244.97414a2.53582,2.53582,0,0,0,.225-1.2768c-.02333-.50015-.19539-1.89731-.38213-1.951a4.57,4.57,0,0,0-1.02007-.11867.8266.8266,0,0,0-.36869.96744l.71764,2.22776A.47427.47427,0,0,0,1686.9977,1244.97414Z"/><path d="M1717.527,1230.29942c.154.22882.337.39808.40649.3762a1.39778,1.39778,0,0,0,.4545-.43375,2.63492,2.63492,0,0,0,.31-1.16238l-.29825-1.08848a.68426.68426,0,0,0-.6591-.44137l-1.17753.23645a.37816.37816,0,0,0-.20537.58629Z"/><path d="M1681.72663,1206.97526c.114-.37464-.17161-.65091-.63462-.61378s-1.61366.32708-1.50977.61961c.10373.29253.51651,1.07512.74241,1.11651A2.78471,2.78471,0,0,0,1681.72663,1206.97526Z"/><path d="M1742.68659,1238.13486c-.046-.14335-.47144-.36006-.94546-.48187l-1.59333-.44576c-.47447-.12-.89162-.10184-.92684.04027s.32811.64126.8067.74378l1.9433.46493C1742.45025,1238.55526,1742.73258,1238.27809,1742.68659,1238.13486Z"/><path d="M1450.81329,1283.45164a1.94188,1.94188,0,0,0-.22949-1.10687c-.18026-.31889-1.01162-1.19312-1.489-1.22441l-2.12894-.10735a1.09633,1.09633,0,0,0-1.03609.85034l-.15064,1.16777a1.0018,1.0018,0,0,0,.83329.99571l3.05129.3844C1450.14107,1284.44275,1450.75922,1283.74148,1450.81329,1283.45164Z"/><path d="M1470.9252,1287.88437c.50051-.15995.94086-.55612.97855-.8804s-.3411-1.26423-.86223-1.33108l-1.4501-.13124a1.164,1.164,0,0,0-1.10224.94983l-.13059,1.11192a4.30093,4.30093,0,0,0,.02031.97787,5.40356,5.40356,0,0,0,1.01948-.26079Z"/><path d="M1781.08234,1225.64762a1.96283,1.96283,0,0,0,.88711-.03747,5.11894,5.11894,0,0,0,.828-.88758c.24-.3439.42735-1.60365-.02737-1.91547l-2.06276-1.33087c-.48456-.26325-.87737-.02748-.873.52382l-.06428,2.49774C1779.75729,1225.049,1780.70588,1225.59894,1781.08234,1225.64762Z"/><path d="M1720.68533,1190.51775a1.067,1.067,0,0,0-1.24237-.35423c-.36532.19663-1.33187.967-1.293,1.30047s.66661,1.15465,1.16093,1.05471l1.63473-.33168a.541.541,0,0,0,.29253-.94221Z"/><path d="M1717.05089,1240.70876c-.05-.468-.27728-.514-.50507-.10208l-.86593,1.65795c-.19138.43005-.0516.81186.31057.84843s1.36193-.28591,1.3137-.7541Z"/><path d="M1677.57894,1232.25886c-.01483.27156.37607.51889.86882.54962l3.16087.23892a2.34,2.34,0,0,0,.89633-.0203,2.13733,2.13733,0,0,0-.85595-.45215l-2.9906-.96789A1.00707,1.00707,0,0,0,1677.57894,1232.25886Z"/><path d="M1768.23536,1227.07663a.365.365,0,0,0,.36847.30947,1.4973,1.4973,0,0,0,.76161-.54009c.09568-.22579.02123-.73144-.23869-.68612S1768.18892,1226.881,1768.23536,1227.07663Z"/><path d="M1763.1589,1218.19983a2.28883,2.28883,0,0,0-.22681.89935,2.00534,2.00534,0,0,0,.82286.986c.41547.21133,1.72727.56241,1.84874.38429a3.71476,3.71476,0,0,0,.32506-1.57483c-.05025-.49051-.42814-1.72726-.80435-1.73646A4.14374,4.14374,0,0,0,1763.1589,1218.19983Z"/><path d="M1645.59915,1230.07934c.32124.22075.68769-.02759.81422-.552l.1853-1.06043c.12756-.52416-.10275-.70979-.51171-.41255S1645.27779,1229.8586,1645.59915,1230.07934Z"/><path d="M1756.94966,1204.61077a.48783.48783,0,0,0-.022.62376,6.2553,6.2553,0,0,0,.65663.47784c.03959.01245.15894-.228.17588-.56454a5.97876,5.97876,0,0,0-.01369-1.13143A2.73252,2.73252,0,0,0,1756.94966,1204.61077Z"/><path d="M1635.06766,1264.00992c-.01952.255.28512.60649.67681.78113a6.855,6.855,0,0,0,1.39805.50644,1.49712,1.49712,0,0,0-.51653-.82566l-.8122-.75691A.45117.45117,0,0,0,1635.06766,1264.00992Z"/><path d="M1639.64755,1291.13016a1.06006,1.06006,0,0,0,.23623,1.304l1.16934,1.09644c.4065.33706.82466.22545.92919-.24789s.18777-1.953-.11934-2.21833S1639.8978,1290.77941,1639.64755,1291.13016Z"/><path d="M1764.91723,1192.4431c.06912.54008.381.98023.69319.9781a8.94284,8.94284,0,0,0,1.52907-.23163.81963.81963,0,0,0,.17587-1.09453l-.942-1.51773c-.28389-.4646-.66515-.81669-.84731-.78248a1.42174,1.42174,0,0,0-.67289,1.13322Z"/><path d="M1648.94453,1235.94221c.4.25327.80536.04072.90082-.47233l.30363-2.00062c.09882-.51238-.145-.65427-.54176-.31541l-1.26334,1.13625C1647.987,1234.67068,1648.54454,1235.68905,1648.94453,1235.94221Z"/><path d="M1654.15818,1257.8156a1.15159,1.15159,0,0,0,1.14343.6536c.36589-.105,1.37865-.82622,1.40321-1.35947l.02311-3.391a3.50878,3.50878,0,0,0-.33471-1.38863,1.95926,1.95926,0,0,0-1.49137-.62432l-2.91467.64586a.67356.67356,0,0,0-.42444,1.0685Z"/><path d="M1657.066,1298.02048c.4729-.07415.84574-.29859.82871-.49881-.01718-.20022-.25284-.76251-.39518-.771a7.40324,7.40324,0,0,0-1.29935.16915c-.42051.10375-1.39231.47738-1.2427.65786a2.0386,2.0386,0,0,0,1.32144.544C1656.71738,1298.051,1657.066,1298.02048,1657.066,1298.02048Z"/><path d="M1751.89114,1197.09411c.393.40526.71765.734.72124.73066s.05092-.26932.09579-.58473a3.97434,3.97434,0,0,0-.54435-2.01912l-2.79675-3.12049c-.39-.40807-.86181-.57823-1.04846-.378a1.89958,1.89958,0,0,0,.18149,1.71863Z"/><path d="M1652.2741,1282.61106a1.299,1.299,0,0,0,.2572.95791c.19271.21166.90744.63262,1.10923.46639a1.18456,1.18456,0,0,0,.06741-1.3146C1653.38591,1282.41308,1652.32525,1282.296,1652.2741,1282.61106Z"/><path d="M1459.64937,1236.571a1.31748,1.31748,0,0,0-1.114.64844l-2.27632,3.45968c-.26808.44946-.48546.81882-.483.82084s.42916.08581.94356.18216l3.91586.81366a1.70954,1.70954,0,0,0,1.50114-.617l1.58414-2.30907a.96422.96422,0,0,0-.2914-1.31954l-1.79032-1.02027A16.53,16.53,0,0,0,1459.64937,1236.571Z"/><path d="M1572.40985,1293.69823a2.101,2.101,0,0,0-.10872-.788c-.09444-.33448-.60242-1.22857-.95687-1.24124l-1.22018-.06326a.92546.92546,0,0,0-.84686.59628l-.30285,1.05011a.52328.52328,0,0,0,.50576.65662l2.14957.13281A1.07471,1.07471,0,0,0,1572.40985,1293.69823Z"/><path d="M1641.24515,1240.84751a7.42074,7.42074,0,0,0,1.066.17374l1.52211.22759c.52079.06371,1.0049-.08491,1.07568-.33044a1.59538,1.59538,0,0,0-.66739-1.35106l-1.632-.71181a.9261.9261,0,0,0-1.18482.36051A4.77278,4.77278,0,0,0,1641.24515,1240.84751Z"/><path d="M1605.08155,1283.131a3.62073,3.62073,0,0,0-.453,1.44629,1.96937,1.96937,0,0,0,1.011,1.37887l1.19884.36073a1.46113,1.46113,0,0,0,1.51863-.61838l.68265-1.21286a1.32057,1.32057,0,0,0-.36476-1.54567l-1.15353-.7901a9.3654,9.3654,0,0,0-1.05134-.54715A6.45053,6.45053,0,0,0,1605.08155,1283.131Z"/><path d="M1579.374,1235.96879a.64132.64132,0,0,0-.48546-.96744l-.99-.22029a1.24427,1.24427,0,0,0-1.1948.43,11.22119,11.22119,0,0,0-.58137,1.30764,1.54209,1.54209,0,0,0,.68288.62533c.37778.18766,1.71268.26393,1.97437-.157Z"/><path d="M1697.26224,1213.116c.0793.02479.37262-.22781.6518-.56128a4.75485,4.75485,0,0,0,.81411-1.5082,7.27652,7.27652,0,0,0-.70979-.56892.63526.63526,0,0,0-.888.54817l-.07019.94848A1.86234,1.86234,0,0,0,1697.26224,1213.116Z"/><path d="M1487.93132,1320.7165a.83218.83218,0,0,0-.42186,1.18359l.86077,1.56428a1.30767,1.30767,0,0,0,1.40492.50184l1.25558-.42758a4.12666,4.12666,0,0,0,1.02375-.52562,1.46721,1.46721,0,0,0-.20067-1.14466l-.816-1.28825a1.35583,1.35583,0,0,0-1.43538-.4628Z"/><path d="M1703.13554,1225.20086a1.29361,1.29361,0,0,0,.96934,1.1939l1.24652.20471a1.16316,1.16316,0,0,0,1.18886-.88635l.30655-1.81565a.80912.80912,0,0,0-.894-.90642l-1.75172.10768a1.209,1.209,0,0,0-1.02173,1.08477C1703.154,1224.7099,1703.13554,1225.20086,1703.13554,1225.20086Z"/><path d="M1729.14453,1243.05978a.39839.39839,0,0,0,.06416.36353,3.58037,3.58037,0,0,0,1.19918.36152l.858.05126c.51058.06158.54412-.05967.07459-.26943l-1.15488-.56588C1729.71344,1242.797,1729.18289,1242.93079,1729.14453,1243.05978Z"/><path d="M1506.41648,1263.842a5.87039,5.87039,0,0,0,.12542-.89353l.14333-1.32985c.01985-.48681-.16881-.90182-.41939-.92246a6.7762,6.7762,0,0,0-.96318.03387c-.004.01481.11295.43252.26774.89442l.49051,1.40164A3.43536,3.43536,0,0,0,1506.41648,1263.842Z"/><path d="M1496.03451,1307.31813c.33852-.08188.48413-.55534.32349-1.05213l-.53224-1.4888c-.15232-.49936-.361-.48916-.46392.02266l-.33471,1.74151C1494.95871,1307.05891,1495.696,1307.4,1496.03451,1307.31813Z"/><path d="M1543.20923,1259.00076a.53045.53045,0,0,0,.27761.89162l3.91845,1.34028a5.96706,5.96706,0,0,0,.8076.20561,6.317,6.317,0,0,0-.04969-.8684l-.17184-1.80668a4.98352,4.98352,0,0,0-.098-.85348c-.02343-.01862-.42947-.19977-.85079-.36275l-.94131-.37711a1.5049,1.5049,0,0,0-1.3856.24812Z"/><path d="M1582.46227,1292.11072c.12451-.27873.22521-.51944.22375-.53515a5.762,5.762,0,0,0-.61512-.53167c-.33572-.26135-1.40106-.76229-1.49351-.58686a3.45867,3.45867,0,0,0-.21592,1.31606c.05429.34278.33258,1.24909.54188,1.34174s.91059.13685,1.06525-.11833Z"/><path d="M1663.18315,1248.39434a3.42416,3.42416,0,0,0-.20358,1.89226c.12574.51249.7871,1.74712,1.1828,1.7645a3.28831,3.28831,0,0,0,2.03539-.87894l1.429-2.55719a3.71208,3.71208,0,0,0,.29993-1.97627l-.19921-1.09094a1.643,1.643,0,0,0-.84193-1.25246c-.37015-.1171-1.65592.09232-1.93039.60245Z"/><path d="M1508.262,1240.79782a.91123.91123,0,0,0,.48075,1.036c.33123.08581,1.36452-.2176,1.45795-.70127l.25372-1.31628c.0636-.48849-.17341-.85886-.52685-.82308A3.99744,3.99744,0,0,0,1508.262,1240.79782Z"/><path d="M1509.76837,1237.38457c-.173-.01178-.3402.20325-.37161.47772a2.86187,2.86187,0,0,0,.64384,1.6686l5.545,4.69588a.91669.91669,0,0,0,1.25215.0083c.27826-.32585.41006-1.73556-.01337-2.04885l-5.61565-4.18563A4.751,4.751,0,0,0,1509.76837,1237.38457Z"/><path d="M1733.92812,1245.10874a.96947.96947,0,0,0,.04038,1.33771l1.00693.79638c.4434.25787.81411.47122.82364.47413s.32641-.29152.68254-.66066l1.833-1.97975a3.823,3.823,0,0,0,.74142-1.29587c.07325-.32394-.02838-1.265-.38888-1.42037a3.00043,3.00043,0,0,0-2.09428.11093Z"/><path d="M1543.2735,1303.67191a.14848.14848,0,0,0-.01234.06876c.00392.00684.02344-.01683.03017-.05474S1543.28415,1303.641,1543.2735,1303.67191Z"/><path d="M1577.8874,1239.41132a1.43881,1.43881,0,0,0-.2885-.92886,4.20868,4.20868,0,0,0-1.22139-.748,2.73867,2.73867,0,0,0-1.81475.43319l-.90766,1.10529c-.30754.44127-.39135.95668-.18631,1.14546a5.54649,5.54649,0,0,0,1.76114.82846l1.31875.26752c.5264.11037,1.01029.04027,1.07535-.156A18.64845,18.64845,0,0,0,1577.8874,1239.41132Z"/><path d="M1464.68142,1292.01919a.83963.83963,0,0,0-.91641-.89341l-5.86275.225a5.65158,5.65158,0,0,0-1.01005.14156,6.88543,6.88543,0,0,0,.52425.94814l1.206,2.00454a1.43373,1.43373,0,0,0,1.51549.55557l3.13945-.87894C1463.81033,1293.96989,1464.6315,1292.52092,1464.68142,1292.01919Z"/><path d="M1678.34715,1207.22382a2.19876,2.19876,0,0,0,1.27074-.941c.21112-.4001.51944-1.54948.22512-1.74622a2.9355,2.9355,0,0,0-1.9516-.27683l-2.5545,1.47814c-.42376.26875-.7855.5107-.804.53762a1.50913,1.50913,0,0,0,.353.57889,3.23115,3.23115,0,0,0,1.8972.74288Z"/><path d="M1561.51458,1304.13393a3.65012,3.65012,0,0,0-.41455,1.4262l-.16794,1.33625a1.5387,1.5387,0,0,0,.36,1.3441,7.86345,7.86345,0,0,0,1.30158.59594,2.1934,2.1934,0,0,0,1.15019-.77148l1.71782-2.48338c.29758-.49074.54277-.90149.545-.91282a8.97809,8.97809,0,0,0-.979-.38631l-1.88183-.64821A2.19972,2.19972,0,0,0,1561.51458,1304.13393Z"/><path d="M1551.68492,1247.85639a2.76407,2.76407,0,0,0,.51316-.90138l1.75811-4.25753a3.41108,3.41108,0,0,0,.28356-1.1413c-.02075-.18979-.30566-.1272-.47739.31261l-2.11592,5.34914C1551.47651,1247.65841,1551.58138,1247.91516,1551.68492,1247.85639Z"/><path d="M1605.19585,1251.40984a2.14856,2.14856,0,0,0,1.66366-.60839,5.92941,5.92941,0,0,0,1.12179-2.5407l-.39046-4.42623a2.06122,2.06122,0,0,0-.96049-1.50641c-.48958-.263-2.24895-.6435-2.72274-.33257l-1.89675,1.34858a2.20485,2.20485,0,0,0-.77292,1.65279l.17552,4.52628a1.60227,1.60227,0,0,0,.4757,1.24091,9.01654,9.01654,0,0,0,1.9332.49881Z"/><path d="M1450.28,1233.11919a1.22661,1.22661,0,0,0-.61974-.00169l-2.82975.3687a.4198.4198,0,0,0-.32978.615l.37644.904a1.0822,1.0822,0,0,0,.79078.58865l1.67835.13909a.772.772,0,0,0,.73111-.52539l.26225-1.3496A2.14947,2.14947,0,0,0,1450.28,1233.11919Z"/><path d="M1613.004,1295.7298a2.47826,2.47826,0,0,0-.99268.22433,2.97039,2.97039,0,0,0,.29994,1.11124l1.58808,3.00272c.228.46706.544.44407.70217-.051l.94151-3.41224a.73079.73079,0,0,0-.75679-.91292Z"/><path d="M1644.77,1204.55906a1.14347,1.14347,0,0,0,.4455-1.34511l-.76531-2.45859c-.21009-.54267-.624-.57654-.91977-.07549l-1.08814,1.68352a1.36867,1.36867,0,0,0-.08984,1.45828A4.28044,4.28044,0,0,0,1644.77,1204.55906Z"/><path d="M1645.0198,1243.95465a1.39715,1.39715,0,0,0-.95162-.35265c-.36769-.0018-1.38516.23353-1.4.4628a1.1029,1.1029,0,0,0,1.0095.763C1644.15724,1244.77437,1645.17549,1244.14679,1645.0198,1243.95465Z"/><path d="M1533.08142,1247.17161c.31957-.04263.51833-.51193.44172-1.04316s-.48266-1.23384-.72281-.76935-.77821,1.79692-.77,1.80275A6.86141,6.86141,0,0,0,1533.08142,1247.17161Z"/></g></mask><filter id="luminosity-noclip-3" x="1042.11671" y="184.67625" width="497.68509" height="75.66512" filterUnits="userSpaceOnUse" color-interpolation-filters="sRGB"><feFlood flood-color="#fff" result="bg"/><feBlend in="SourceGraphic" in2="bg"/></filter><mask id="mask-3" x="1042.11671" y="184.67625" width="497.68509" height="75.66512" maskUnits="userSpaceOnUse"><g class="cls-8"><path d="M1109.81985,192.15725a4.97778,4.97778,0,0,0,.8195.1718c.0154-.0171.2712-.3606.5329-.7259l.8974-1.306a2.34726,2.34726,0,0,0,.3779-.7498,5.79916,5.79916,0,0,0-.8891-.3899l-.9692-.3393a1.42813,1.42813,0,0,0-1.32.4175l-1.1301,1.4389a.60688.60688,0,0,0,.29.9612Z"/><path d="M1234.13775,226.18685c-.0533.3008.0543.3691.2392.1517s.5619-.9069.4311-.9649S1234.191,225.88605,1234.13775,226.18685Z"/><path d="M1467.29965,203.344a.94392.94392,0,0,0-.1452,1.2196l.9163,1.106a1.03478,1.03478,0,0,0,1.2657.0911l1.7702-1.3699a5.26185,5.26185,0,0,0,.6451-.6249,1.8952,1.8952,0,0,0-.6274-.6319l-1.2132-.8472a1.351,1.351,0,0,0-1.3729.0715Z"/><path d="M1090.152,231.03215a.64453.64453,0,0,0-.6091.6857c.0445.3338.494,1.2481.9219,1.2485l1.5054.0458a.59359.59359,0,0,0,.6639-.6618c-.0627-.3676-.341-1.39-.5077-1.4148S1090.53145,230.98875,1090.152,231.03215Z"/><path d="M1435.27675,198.74825c.1191.4431.4563.7947.7494.7813a7.49833,7.49833,0,0,0,1.8308-.4864l.8685-.4215a5.55269,5.55269,0,0,0,.7447-.4082,7.17549,7.17549,0,0,0-.5247-.7258l-1.2486-1.6715a.99365.99365,0,0,0-1.2304-.2742l-.8963.457a1.2321,1.2321,0,0,0-.6035,1.2093Z"/><path d="M1053.19825,215.84475c.0834.436.2782.8133.433.8383a1.08385,1.08385,0,0,0,.8098-.691l.4256-1.5402a.90089.90089,0,0,0-.6033-1.0153c-.4146-.1223-1.5309-.0076-1.4367.4263Z"/><path d="M1476.96175,191.67855a.91957.91957,0,0,0-.8241.5301c-.0783.273.1097.9538.4916.8453l2.6673-.7689c.3827-.1057.4492-.2736.1479-.373A16.68325,16.68325,0,0,0,1476.96175,191.67855Z"/><path d="M1491.74025,226.69605a1.40553,1.40553,0,0,0-.7828-.0193,1.09556,1.09556,0,0,0,.4436.71l1.5099,1.2185c.3286.2392.6298.1919.6693-.1051a3.58713,3.58713,0,0,0-.026-1.2622A13.05052,13.05052,0,0,0,1491.74025,226.69605Z"/><path d="M1420.68145,222.004a1.3289,1.3289,0,0,0,.2334-.5271,1.07864,1.07864,0,0,0-.647-.7577l-.7462-.2962c-.3906-.1424-.7476-.1965-.7933-.1202a3.51087,3.51087,0,0,0-.206.4451,1.39651,1.39651,0,0,0,.4744.7982C1419.30785,221.81065,1420.56905,222.15415,1420.68145,222.004Z"/><path d="M1151.94985,207.46655a2.521,2.521,0,0,0,.9422.1617.97086.97086,0,0,0,.494-.831l-.3181-2.0819a.56891.56891,0,0,0-.8255-.3704l-3.3105,1.5151c-.3532.1622-.348.4156.0117.5631Z"/><path d="M1213.34985,223.89575c-.3938.164-.4251.3771-.0694.4735s1.3996.0542,1.4554-.1805-.2486-.7765-.6439-.6162Z"/><path d="M1219.01145,226.98335a.28413.28413,0,0,0,.2787-.2198c.0252-.1257-.1734-.4502-.41-.4093s-.8359.1829-.8048.2531.1697.2761.2375.2932S1218.88345,226.97855,1219.01145,226.98335Z"/><path d="M1128.10225,230.97845a.509.509,0,0,0,.0674.6919l.569.4436a.56721.56721,0,0,0,.7158-.1103l.6782-.8409a.509.509,0,0,0-.1012-.6877l-.4996-.3619a.63208.63208,0,0,0-.7449.0999Z"/><path d="M1077.43235,190.24925c-.2434.3171-.3775.6093-.298.6493a1.21852,1.21852,0,0,0,.791-.449l.6219-.7335c.2486-.3132.3712-.5932.2726-.6224a1.39337,1.39337,0,0,0-.8446.4922Z"/><path d="M1161.32835,198.21355a.7247.7247,0,0,0,.4335.8837c.3373.1049,1.51-.0002,1.731-.3261l.9467-1.5958a.4199.4199,0,0,0-.3791-.6672l-1.4947-.0857a1.10291,1.10291,0,0,0-.9239.7242Z"/><path d="M1525.35125,231.61485c.2123.0159.3565-.0143.3204-.067a.78517.78517,0,0,0-.5221-.1352C1524.96785,231.45045,1525.13885,231.59905,1525.35125,231.61485Z"/><path d="M1532.768,243.65645c-.0514.3857.2179.5137.5983.2844,0,0,.3093-.195.6491-.4583s.3679-.5859.0624-.7169S1532.81925,243.27075,1532.768,243.65645Z"/><path d="M1261.81555,204.95365c-.0228.0532.2435.2735.5919.4896l.7065.4609c.3595.1971.7422.2334.8505.0805a.5967.5967,0,0,0-.3673-.7815l-.9714-.2569A1.27336,1.27336,0,0,0,1261.81555,204.95365Z"/><path d="M1166.72425,243.35905c-.0541.4023.1727.6876.5039.6339s1.1584-.5263,1.0324-.9122l-.4861-1.4526c-.1169-.3888-.2667-.7025-.333-.6971a1.29761,1.29761,0,0,0-.3902.7462Z"/><path d="M1244.07,237.28705a6.882,6.882,0,0,0-.7957.1739c-.3823.0984-1.4371.5759-1.4675.8858s.3715,1.1737.8246,1.1721l2.0986.0092a.44529.44529,0,0,0,.3887-.7409l-.4371-.7756A2.2567,2.2567,0,0,0,1244.07,237.28705Z"/><path d="M1273.27335,234.93665a.99457.99457,0,0,0,.857.8659l3.332.3983c.4311.0591.8426-.0916.9142-.335s-.0966-1.063-.4967-1.2344l-4.0779-1.7779a.44341.44341,0,0,0-.6545.4996Z"/><path d="M1128.15705,187.57175a.66843.66843,0,0,0,.6308-.8563l-.1831-.8988a1.67,1.67,0,0,0-.7458-1.0777c-.3166-.1452-1.3114-.0471-1.4522.3878l-.4319,1.6383a.674.674,0,0,0,.7021.8047Z"/><path d="M1346.81735,194.86865c.1363.0812.5102-.1387.8308-.4889l1.0943-1.2751a.49406.49406,0,0,0-.3381-.8457l-1.0881-.2494a.73076.73076,0,0,0-.8841.7075l-.0276.98A1.77177,1.77177,0,0,0,1346.81735,194.86865Z"/><path d="M1237.54575,228.37945c.3274.1026.598.1867.6013.1869s-.0088-.3197-.0342-.711a5.80461,5.80461,0,0,0-.2168-1.4125.81186.81186,0,0,0-.7066.3567C1236.98535,227.09605,1237.21835,228.27685,1237.54575,228.37945Z"/><path d="M1341.91915,214.04615c.2795.0264.3204-.0441.091-.1568s-.8933-.3104-.9342-.2377S1341.63975,214.01975,1341.91915,214.04615Z"/><path d="M1146.22125,208.476a1.33984,1.33984,0,0,0,1.2662.4279s2.0925-.5316,3.6469-1.0792c.6037-.2125,1.0816-.3913,1.0816-.3913.4102-.1534.5659-.5126.346-.7983a3.02725,3.02725,0,0,0-1.7797-.8474l-4.3702,1.138a.70825.70825,0,0,0-.5316.8859A3.0334,3.0334,0,0,0,1146.22125,208.476Z"/><path d="M1366.08955,226.707a2.89522,2.89522,0,0,0,.9504-1.3471,7.06044,7.06044,0,0,0,.0696-1.12c-.0279-.4309-.3366-.5133-.6858-.183l-5.9587,5.679c-.3415.3383-.5618.657-.4896.7082a1.87738,1.87738,0,0,0,1.0429-.3117Z"/><path d="M1304.80745,244.66535a.88892.88892,0,0,0,.3076,1.1005l1.5053.8038c.3864.162.6021-.0332.4794-.4339l-.8017-2.6338c-.1211-.4011-.4323-.46-.6915-.1308Z"/><path d="M1309.87535,238.46135a.60034.60034,0,0,0,.5899.8239l1.2023.0453a1.33836,1.33836,0,0,0,1.1055-.8468,16.19592,16.19592,0,0,0,.4528-1.8032,1.8199,1.8199,0,0,0-.7688-.5196c-.3859-.1418-1.6694-.0097-1.8535.4162Z"/><path d="M1336.12775,222.40985c-.0281.3096.2774.5723.6788.5838l2.2545.1288c.4014.0144.7391-.0908.7505-.2339a1.13866,1.13866,0,0,0-.6839-.7531l-2.0257-.5892C1336.71075,221.45535,1336.15575,222.10035,1336.12775,222.40985Z"/><path d="M1230.91675,200.86035a.94885.94885,0,0,0,.9421.5385c.3014-.0866,1.1359-.6808,1.1562-1.1201l.019-2.794a2.88947,2.88947,0,0,0-.2758-1.1441,1.614,1.614,0,0,0-1.2288-.5145l-2.4015.5322a.555.555,0,0,0-.3497.8804Z"/><path d="M1484.35255,187.33355a.65067.65067,0,0,0,.1494,1.0577l1.428.8819a.58274.58274,0,0,0,.9107-.4279l.4617-2.6616c.0974-.464.0952-.8908-.0049-.9486a1.43434,1.43434,0,0,0-1.02.3522Z"/><path d="M1113.80915,217.34205a.58007.58007,0,0,0,.4305.8572l3.0446.7074a.54835.54835,0,0,0,.6986-.6149l-.0584-1.0188a1.668,1.668,0,0,0-.695-1.1936l-1.2744-.7487a.88616.88616,0,0,0-1.1235.2826Z"/><path d="M1523.05965,226.15245c.2415-.343.1544-.6499-.1936-.6821a3.842,3.842,0,0,0-1.8389.3472l-1.483,1.2947c-.3098.2829-.2207.5366.1979.5637l1.415.1297a1.49268,1.49268,0,0,0,1.1827-.6004Z"/><path d="M1384.53185,206.13385a.94281.94281,0,0,0,.2946.4931,8.15927,8.15927,0,0,0,1.3651.9267l2.0144.9956c.4104.2063.827.238.9259.0704a1.41068,1.41068,0,0,0-.2968-1.2293l-2.7503-2.4634c-.354-.2927-.7951-.3538-.9802-.1357A5.43393,5.43393,0,0,0,1384.53185,206.13385Z"/><path d="M1299.40685,238.30305a.97726.97726,0,0,0,.7881.7083c.3104.0012,1.2263-.1933,1.3137-.464s-.0774-1.1751-.4408-1.3216a13.26679,13.26679,0,0,0-1.6507-.4828c-.1379-.0042-.3966.2949-.2649.6805Z"/><path d="M1521.54905,210.43585c.3174.3143.637.4526.7102.3073a1.97178,1.97178,0,0,0-.0099-1.1642c-.1588-.3516-.8695-1.2061-1.1295-1.0896s-.6666.8208-.346,1.1317Z"/><path d="M1383.67975,199.38525a.59517.59517,0,0,0,.5526-.3479,6.05392,6.05392,0,0,0,.241-.8709,1.16665,1.16665,0,0,0-.7355-.1409c-.3879.0234-1.4655.189-1.5218.3691s-.0606.725.0903.7775A12.69352,12.69352,0,0,0,1383.67975,199.38525Z"/><path d="M1104.725,202.32625c0,.4123.1317.7661.2928.7864a1.478,1.478,0,0,0,.9856-.5707l1.0098-1.7772a.58943.58943,0,0,0-.3945-.8627l-.9828-.2593c-.4063-.0704-.7718-.0627-.8124.0171a3.91456,3.91456,0,0,0-.1259,1.0471Z"/><path d="M1386.49815,190.283c.4744-.0786.875-.3773.8902-.6639s-.4095-1.1522-.8818-1.2422l-1.5994-.2351a.822.822,0,0,0-.91.7501c-.021.4476.4624,1.6639.9374,1.5893Z"/><path d="M1428.73915,189.61725c-.0414.1103.146.4374.4165.7268s1.1821.9694,1.3445.823.2652-.7898-.103-1.0056l-.8472-.5366C1429.18415,189.405,1428.78065,189.507,1428.73915,189.61725Z"/><path d="M1398.88785,195.54925a1.4132,1.4132,0,0,0,.1309,1.2743,6.07887,6.07887,0,0,0,1.4467,1.1711c.3018.096,1.2609.0489,1.4495-.3532l.4568-.9967a1.36576,1.36576,0,0,0-.2966-1.3246l-1.3372-1.1956c-.3469-.2775-.6993-.4502-.7832-.3839a4.98024,4.98024,0,0,0-.6589.9752Z"/><path d="M1167.91355,212.68355c.0122.0975.3574.1027.767.0116l.7202-.1636c.41-.0898.4156-.1642.0126-.1653A4.17564,4.17564,0,0,0,1167.91355,212.68355Z"/><path d="M1068.57865,227.46625c.2478.2894.5543.4458.681.3475s.0628-.6543-.3161-.8503S1068.33085,227.17685,1068.57865,227.46625Z"/><path d="M1311.57105,205.34485c-.3938-.0998-.6226-.0668-.5084.0732a4.07757,4.07757,0,0,0,1.109.757,5.75328,5.75328,0,0,0,1.3779.3958,2.60259,2.60259,0,0,0,.1328-.3365.59128.59128,0,0,0-.2119-.2413A18.69276,18.69276,0,0,0,1311.57105,205.34485Z"/><path d="M1164.76815,208.24675a2.60938,2.60938,0,0,0-.054.8482,2.89915,2.89915,0,0,0,.5934-.7294l1.9472-3.2412a.81237.81237,0,0,0-.3065-1.1171c-.3894-.1975-1.6131-.2232-1.6714.245Z"/><path d="M1488.887,210.66825c-.1796.4283-.0834.5864.2139.3513s1.005-1.066.877-1.2183S1489.06655,210.23985,1488.887,210.66825Z"/><path d="M1252.24965,237.66965c-.2588.3753-.374.7381-.256.8062a4.57087,4.57087,0,0,0,.6881.2728,1.69132,1.69132,0,0,0,.9914-.5403l1.4327-1.7109c.2792-.3604.3786-.7822.221-.9373a3.58578,3.58578,0,0,0-.824-.4941,1.86771,1.86771,0,0,0-.7853.6345Z"/><path d="M1401.76125,219.52085c-.0511-.4629-.3321-.8098-.6246-.7708s-1.1178.5089-1.1329.8267a5.86441,5.86441,0,0,0,.4029,1.9334l.4464.7575c.2237.4085.513.687.6428.6191a1.56516,1.56516,0,0,0,.4177-1.0999Z"/><path d="M1428.351,228.454c-.0102.1062.3025.3084.695.4492l1.901.7485c.3914.1437.8153.1211.9419-.0504a2.62663,2.62663,0,0,0,.3546-.7315l-.0287-.0297a17.95389,17.95389,0,0,0-2.0683-1.7987.80542.80542,0,0,0-1.0304-.0038A6.68376,6.68376,0,0,0,1428.351,228.454Z"/><path d="M1161.04975,195.12445a.54848.54848,0,0,0,.2871.922l4.052,1.386a6.17793,6.17793,0,0,0,.8351.2126,6.5341,6.5341,0,0,0-.0513-.898l-.1778-1.8683a5.15785,5.15785,0,0,0-.1013-.8825c-.0243-.0192-.4442-.2066-.8799-.3752l-.9733-.3899a1.55629,1.55629,0,0,0-1.4328.2565Z"/><path d="M1491.10835,233.85975c-.2766-.3246-.6226-.5348-.7688-.4671a1.06185,1.06185,0,0,0-.3072,1.0043l.4772,1.4649a.82032.82032,0,0,0,.955.5102c.3632-.114,1.1164-.7892.8293-1.1047Z"/><path d="M1496.42925,229.77685c.1476.0183.4969-.2732.7763-.6477a8.8532,8.8532,0,0,0,1.0924-2.2109c.0439-.4177-.0333-1.4485-.264-1.4801a1.87748,1.87748,0,0,0-1.3166.6416l-1.3981,2.303c-.2344.4191-.2832.8535-.1085.9652A7.03351,7.03351,0,0,0,1496.42925,229.77685Z"/><path d="M1163.92805,244.54755c-.1559-.087-.2915-.1603-.3013-.1628a4.46,4.46,0,0,0-.1678.6756c-.0729.3766-.0341.985.1805.7561S1164.08405,244.63445,1163.92805,244.54755Z"/><path d="M1243.81345,216.1a.76868.76868,0,0,0-.8262-.5933,3.37454,3.37454,0,0,0-1.3967.6851,1.45654,1.45654,0,0,0,.4365.9964l1.6366,1.1954c.3043.2429.5189.1249.477-.2621Z"/><path d="M1238.35275,193.09785a2.82171,2.82171,0,0,0-.1678,1.5591c.1036.4222.6485,1.4395.9746,1.4538a2.70906,2.70906,0,0,0,1.677-.7242l1.1774-2.107a3.05816,3.05816,0,0,0,.2471-1.6283l-.1641-.8988a1.35391,1.35391,0,0,0-.6937-1.032c-.305-.0964-1.3644.0761-1.5905.4964Z"/><path d="M1198.11565,213.23235a8.67854,8.67854,0,0,1,.2249,1.0118l.7624,4.4924a2.53522,2.53522,0,0,0,.1815.7569.70577.70577,0,0,0,.279-.2548,2.51278,2.51278,0,0,0,.1243-1.2539l-1.2477-5.0451c-.0933-.413-.2214-.6676-.2848-.5659A2.13738,2.13738,0,0,0,1198.11565,213.23235Z"/><path d="M1184.67555,209.13985a.93733.93733,0,0,0-.1368-1.1767c-.3086-.2329-1.2944-.3089-1.3177.1661l-.1258,2.5893c-.0325.4745.1651.5447.4391.156Z"/><path d="M1221.65355,203.27185c-.2692-.2039-.5705-.1628-.6695.0914a5.12042,5.12042,0,0,0-.2831,1.5083c.0511.2902.4791.6888.7622.4044l.5981-.6375C1222.30545,204.32005,1221.92265,203.47565,1221.65355,203.27185Z"/><path d="M1494.216,207.93345a.60061.60061,0,0,0,.1155.9525l.914.7137c.3534.2491.7415.2273.8625-.0483s.2988-1.2086.0755-1.468A2.527,2.527,0,0,0,1494.216,207.93345Z"/><path d="M1296.64185,190.39065a.79884.79884,0,0,0,.0334,1.1023l.8295.6561c.3654.2125.6708.3883.6787.3907s.2689-.2402.5624-.5444l1.5103-1.6312a3.15124,3.15124,0,0,0,.6109-1.0677c.0603-.2669-.0234-1.0423-.3205-1.1703a2.4721,2.4721,0,0,0-1.7255.0914Z"/><path d="M1539.25615,224.10265c-.2032-.0286-.5363.2219-.7401.5569l-1.1701,2.0457a.80487.80487,0,0,0,.2409,1.0104c.3095.2058,1.3536.2782,1.4494-.102l.7516-2.6948A.79169.79169,0,0,0,1539.25615,224.10265Z"/><path d="M1439.23265,221.61785a1.00171,1.00171,0,0,0,.2952-.5908l1.054-4.5916c.061-.2878-.0037-.5015-.1438-.4748l-.1345.0373a8.2571,8.2571,0,0,0-.891.3004,1.16657,1.16657,0,0,0-.6173.723l-.8875,3.838a2.81149,2.81149,0,0,0-.0796.6894.47062.47062,0,0,0,.3809.3037A8.57255,8.57255,0,0,0,1439.23265,221.61785Z"/><path d="M1461.73575,185.80535c.0276-.4368-.1548-.822-.4053-.856s-.9789-.0636-1.0389.0383a1.755,1.755,0,0,0-.0858.8512c.0644.2544.3785.9635.5871,1.0515S1461.70815,186.24215,1461.73575,185.80535Z"/><path d="M1088.95005,230.69045a1.03655,1.03655,0,0,0-1.2644.2374l-.613.8872a.61437.61437,0,0,0,.4146.9371l1.8539.5183c.4511.1033.8719-.059.935-.3605a2.30783,2.30783,0,0,0-.4402-1.6328Z"/><path d="M1044.91405,256.43135a4.11232,4.11232,0,0,0-.7364-.0942c-.3674-.0269-1.4638.2735-1.5511.7227l-.484,2.8965c-.0893.4487.0604.515.3327.1473l2.1098-2.8858A1.593,1.593,0,0,0,1044.91405,256.43135Z"/><path d="M1380.31415,221.25545a.8652.8652,0,0,0-.7558-.8679l-1.0833-.1343a.67708.67708,0,0,0-.7681.6975l-.0606,3.3882a.73758.73758,0,0,0,.7691.7558l.9991-.011a.79931.79931,0,0,0,.7895-.788Z"/><path d="M1484.91165,226.57305c-.0911.4591-.0717.8674.0431.9073a1.444,1.444,0,0,0,.9534-.5393l1.5834-2.1789a.61552.61552,0,0,0-.3074-.9728c-.4239-.1422-1.7534-.0662-1.8347.3948Z"/><path d="M1146.48545,192.65455a2.27792,2.27792,0,0,0,.4229-.7427l1.4485-3.5078a2.80753,2.80753,0,0,0,.2336-.9404c-.017-.1564-.2518-.1049-.3933.2575l-1.7434,4.4073C1146.31375,192.49145,1146.40015,192.70305,1146.48545,192.65455Z"/><path d="M1397.29385,194.62465c.0093-.015.0349-.4201.0567-.9l.1528-2.2305c.0352-.4792-.018-.8878-.1183-.908a1.70124,1.70124,0,0,0-.8822.6501l-1.1121,1.8279a.82725.82725,0,0,0,.29,1.1307A8.32282,8.32282,0,0,0,1397.29385,194.62465Z"/><path d="M1110.38455,214.033c.0464-.4733-.1594-.8641-.4574-.8685s-1.1022.3621-1.0972.8377l-.0436,2.9705c-.0105.4754.1679.8443.3964.8196a1.31581,1.31581,0,0,0,.901-.9354Z"/><path d="M1190.63865,205.37745a.9006.9006,0,0,0,.673.7685c.2985.0223,1.1635-.1631,1.219-.3453a2.98548,2.98548,0,0,0-.1172-1.3462l-.8058-1.9192c-.1505-.378-.4417-.6327-.6472-.5659s-.7169.5805-.6576.983Z"/><path d="M1273.582,247.61455c.1403.416.3627.4137.4943-.0052l.5874-2.215c.0901-.4298-.155-.7547-.5446-.722s-1.4065.5994-1.2663,1.0154Z"/><path d="M1535.865,237.79355c-.019.2739.0672.5372.1915.5852a.83566.83566,0,0,0,.7147-.1841c.1317-.1894.2335-.8401.0224-.9475S1535.88385,237.51975,1535.865,237.79355Z"/><path d="M1123.69115,210.62545c.0505-.3854-.1734-.5251-.4974-.3105l-1.3448,1.053a.77442.77442,0,0,0-.067,1.0331l.9446,1.0135a3.45714,3.45714,0,0,0,.5616.446,3.67348,3.67348,0,0,0,.1462-.7475Z"/><path d="M1165.88165,210.33935c-.0714-.3962-.294-.4348-.4948-.0859l-.5185.9817c-.1611.3689-.0509.7183.245.7765s1.0952-.1454,1.025-.5418Z"/><path d="M1162.46835,230.76945c.013.383.1687.4289.3458.102s.4554-1.2891.2815-1.3193S1162.45525,230.38645,1162.46835,230.76945Z"/><path d="M1317.60025,198.72615a5.86337,5.86337,0,0,0,.1321-.8806l.4587-4.4228c.0543-.4539-.0239-.6726-.1739-.4859a4.62558,4.62558,0,0,0-.6174,1.5319l-.3801,3.4693c-.0578.4535-.0164.8355.0922.8489A1.50486,1.50486,0,0,0,1317.60025,198.72615Z"/><path d="M1456.35925,208.463c-.1755-.3656-.3479-.6465-.3831-.6242a2.388,2.388,0,0,0-.1881.8167l-.1674,3.915a.56581.56581,0,0,0,.7263.5672l1.3559-.3831a.67255.67255,0,0,0,.3574-.9351Z"/><path d="M1223.38735,189.43985a1.15111,1.15111,0,0,0-.7841-.2906c-.303-.0015-1.1413.1924-1.1535.3813a.90855.90855,0,0,0,.8317.6286C1222.67665,190.11525,1223.51555,189.59815,1223.38735,189.43985Z"/></g></mask></defs><rect class="cls-1" width="1849.96676" height="1325.46333"/><g class="cls-2"><path class="cls-3" d="M1678.543,1156.60475l-2.401-.07935-2.41035.15782-2.40468-.0372-2.40264-.24106-2.40942-.01886-2.40815.05859-2.40957-.018-2.40444-.2266-2.41068-.00791-2.41191.13976-2.40623-.23815-2.4076-.2203-2.40908.14532-2.41193.1245-2.41213-.01383-2.40475-.43866-2.41607.15089-2.4188.0869-2.41408-.06757-2.409-.15995-2.4021.29719-2.40832-.16133-2.40763-.03255-2.40723.1411-2.40927-.11877-2.40451.29773-2.40877-.01055-2.40666.23094-2.41528-.32393-2.40865.10674-2.41015.08123-2.40417.12611-2.40913.03076-2.41066.09618-2.40964.171-2.41449-.06278-2.416.0684-2.38244.05173-.22366,2.29606.07156,2.40144-.13158,2.39656-.12084,2.3966-.02583,2.40471-.11517,2.40131-.2547,2.38955-.4287,2.36831-.43742,2.363-.02754,2.422-.53774,2.34672-.53157,2.3436-.42051,2.36243-.22744,2.40456-.82321,2.27765-.25752,2.40537-.55062,2.33938-.79095,2.27571-.70516,2.29533-.67735,2.30225-.63373,2.31754-.67594,2.306-.86616,2.24292-.92462,2.21946-.70022,2.29915-.68717,2.30787-.82143,2.25918-.95256,2.20686-.906,2.22563-1.18255,2.10469-1.04073,2.16308-.867,2.243-1.043,2.16227-.95453,2.206-1.26046,2.05312-.8477,2.26426-1.37752,1.987-1.10838,2.12837-.93642,2.22654-1.25239,2.05048-1.34672,1.99316-1.19392,2.082-1.11131,2.13427-1.26225,2.04321-1.40861,1.94952-1.19921,2.085-1.62936,1.79943-1.29568,2.02043-1.14605,2.12681-1.36757,1.9753-1.489,1.88791-1.52156,1.86181-1.5039,1.87261-1.47969,1.88956-1.40883,1.94432-1.52739,1.852-1.27877,2.05177-1.608,1.78741-1.621,1.77394-1.35438,2.00068-1.52279,1.85961-1.68506,1.7172-1.57213,1.81357-1.54595,1.83715-1.85153,1.55892-1.63991,1.7519-1.44328,1.94025-1.61267,1.7835-1.81108,1.59026-1.72255,1.67419-1.601,1.79556-1.66809,1.72877-1.76191,1.62784-1.89252,1.48951-1.65683,1.74138-1.8585,1.51695-1.72084,1.67816-1.88855,1.4837-1.77154,1.60736-1.821,1.55268-1.92952,1.66833,2.455-.10939,2.3994-.132,2.3991.08071,2.3989.165,2.39878-.14118,2.39877-.17024,2.39885.25268,2.399.00787,2.39933-.197,2.39973-.11572,2.40023.30907,2.40083-.31178,2.4015.16382,2.40085.07729,2.40029-.1087,2.39987.15723,2.39957.06041,2.39938-.315,2.39932.02667,2.39939.11764,2.39959-.04247,2.39993-.08955,2.4004.1238,2.401.03418,2.40169-.10595,2.401.27019,2.40046-.35374,2.40008.05956,2.39985.11425,2.39978.122,2.39988-.28552,2.40014.126,2.40056.15252,2.40118-.017,2.40181-.11456,2.39451.05255,2.395.02093,2.39561.08837,2.39644-.23924,2.39749-.08216,2.39875.35021,2.40021-.359,2.40191.27289,2.40122-.25137,2.39985.33351,2.39873-.19885,2.39784-.10077,2.39722-.02606,2.39687.3236,2.39678-.13251,2.397-.1453,2.39745.09462,2.39823-.067,2.39932.09816,2.40072-.088,2.40245.21887,2.40217-.31251,2.40072.22272,2.39965.10063,2.399-.28683,2.39865.28215,2.39876-.10527,2.39929-.06691,2.40025.01884,2.40166-.10871,2.40356.135,2.40227.0103,2.401-.11572,2.40022-.01895,2.4.015,2.40044.05427,2.40144.06289,2.40309.07516,2.40338.032,2.40191-.18057,2.40117.12643,2.40122-.07608,2.4021.02327,2.40383.13174,2.40332-.35583,2.40214.32635,2.402-.12771,2.40294.10618,2.40478-.02229,2.403-.14481,2.4026.05489,2.40359-.20783,2.40437.14117,2.40314-.06454,2.40369.27616,2.404-.1027,2.4003-.22271,2.39894.32569,2.40007-.35207,2.404.239,2.40349-.101,2.40139-.14737,2.403.2571,2.40578-.22557,2.40311.04657,2.40591.04893,2.40457-.02579,2.40685.25862,2.40538-.28941,2.40658.14385,2.40762-.047,2.40246-.01962,2.40568-.12964,2.40839.25739,2.40873-.12944,2.40934.02674,2.41323.098,2.4472.04233-1.857-1.67878-1.89167-1.47585-1.90365-1.46541-1.76813-1.62251-1.7433-1.64855-1.82728-1.54582-1.76007-1.62119-1.58419-1.80777-1.96942-1.4053-1.51017-1.882-1.82359-1.56289-1.69356-1.696-1.65036-1.73893-1.73665-1.65687-1.63182-1.75823-1.60413-1.784-1.5212-1.85905-1.49489-1.88027-1.60772-1.77853-1.73833-1.66668-1.42423-1.93878-1.58484-1.80111-1.54763-1.83322-1.69295-1.71665-1.38423-1.96718-1.61321-1.78563-1.24817-2.0695-1.527-1.85378-1.50033-1.876-1.19938-2.09663-1.63264-1.78228-1.45344-1.91077-1.17535-2.10419-1.25919-2.04347-1.53094-1.86283-1.20321-2.08046-1.39018-1.96011-1.205-2.07793-1.40751-1.95425-1.05352-2.1684-1.36879-1.982-1.02256-2.18217-1.09707-2.13711-1.25383-2.05148-1.1665-2.10061-.912-2.232-1.35488-2.00755-.96-2.20608-.85542-2.25264-1.23626-2.07484-.83755-2.25722-.95852-2.20185-1.02414-2.17514-.94889-2.20814-.65821-2.32165-1.01091-2.18514-.8036-2.26243-.67672-2.30615-1.04582-2.18253-.45556-2.37655-.8966-2.23728-.66846-2.30856-.71369-2.29692-.60512-2.32749-.33462-2.3933-.65146-2.31484-.68372-2.31137-.38448-2.3757-.56207-2.34093-.2782-2.39237-.46871-2.3599-.37786-2.37512-.21132-2.39767-.1173-2.40582-.41613-2.37371.03-2.41386-.40527-2.38011.02977-2.40957-.02833-2.40282-.29837-2.39825Zm-28.19091,33.27944-.12445,2.30008.09268,2.32631-.10845,2.3168-.31794,2.30718-.10154,2.31525-.03025,2.32282-.11279,2.321-.32733,2.30744-.11546,2.31877.02474,2.32974-.35979,2.30233-.35,2.30073.005,2.335-.02579,2.33381-.2764,2.47739-1.439-2.08484-1.47464-1.81947-1.33157-1.93341-1.13556-2.053-.92912-2.16175-1.298-1.96769-.86075-2.1905-.95168-2.14386-1.08878-2.08051-.83574-2.1993-1.19866-2.03353-.90149-2.16315-1.111-2.07638-.58677-2.29813-.96727-2.12906-1.05182-2.16261-.7221,2.2655-.7998,2.21053-.73912,2.235-.66813,2.25887-.88924,2.18261-.7652,2.2252-.7756,2.22274-1.05015,2.12513-.66767,2.257-.82552,2.20422-.78175,2.2226-.65763,2.26708-.70777,2.24988-.80691,2.21866-.91747,2.15842-.347-2.32681-.80473-2.24684-.33521-2.34957-.37449-2.33986-.51888-2.31142-.74531-2.26178-.18289-2.38264-.783-2.255-.52082-2.30675-.31047-2.35475-.42885-2.33229-.48834-2.32-.5647-2.30433-.55345-2.31064-.39441-2.36245-1.64178,1.84707-1.39873,1.97071-1.40894,1.96783-1.53788,1.86655-1.65719,1.75837-1.63669,1.78077-1.86833,1.55586-1.77011,1.64271-1.656,1.76451-1.80568,1.603-1.76343,1.65818-2.00373,1.371-1.73794,1.706-2.12372,1.19831-1.86857,1.40623.9391-2.16949,1.04637-2.21219,1.025-2.23562.76065-2.332.58683-2.38655.68672-2.35437.79484-2.32709.5006-2.40812.95225-2.2953.51894-2.406.297-2.45625.51805-2.40507.62609-2.38378.63027-2.38548.5742-2.3971.50932-2.40486.38768-2.4314.5004-2.40524.15108-2.46365.52114-2.38568,2.39284.09135,2.3921-.27912,2.39523-.07916,2.39808.11713,2.39507-.05078,2.395-.10542,2.3995.28848,2.3926-.0172,2.38814-.30879,2.39152-.09747,2.39813.15995,2.39616.0184,2.392-.17312,2.39446-.09846,2.39845.019,2.39759.18859,2.39649-.17763,2.39812.10209,2.3979-.13291,2.3989.09923,2.398-.09777,2.39949-.05527,2.397.18994,2.39663-.14274,2.39917-.15759,2.40177.05517,2.40328.13946,2.40389-.16675,2.44281-.18951.09187,2.56076.2829,2.43345.50653,2.40558.44367,2.40651.04155,2.466.674,2.37391.22242,2.44358.32664,2.42587.52977,2.39214.28894,2.43718.40643,2.41832.797,2.337.48724,2.40167.42564,2.41821.61072,2.37642.68767,2.35624.5165,2.40322.64111,2.36783.8188,2.31628.50881,2.414,1.12741,2.34526-2.28533-.97583-1.95485-1.27765-1.84282-1.4197-2.01558-1.20124-1.69914-1.60428-1.621-1.67978-1.68788-1.60323-1.71873-1.57791-1.56438-1.73094-1.55585-1.74062-1.475-1.81131-1.69588-1.62161-1.54926-1.74381-1.18929-2.03723-1.71779-1.61267-1.19012-2.01577Z"/><path class="cls-3" d="M1678.543,1156.60475l-2.401-.07935-2.41035.15782-2.40468-.0372-2.40264-.24106-2.40942-.01886-2.40815.05859-2.40957-.018-2.40444-.2266-2.41068-.00791-2.41191.13976-2.40623-.23815-2.4076-.2203-2.40908.14532-2.41193.1245-2.41213-.01383-2.40475-.43866-2.41607.15089-2.4188.0869-2.41408-.06757-2.409-.15995-2.4021.29719-2.40832-.16133-2.40763-.03255-2.40723.1411-2.40927-.11877-2.40451.29773-2.40877-.01055-2.40666.23094-2.41528-.32393-2.40865.10674-2.41015.08123-2.40417.12611-2.40913.03076-2.41066.09618-2.40964.171-2.41449-.06278-2.416.0684-2.38244.05173-.22366,2.29606.07156,2.40144-.13158,2.39656-.12084,2.3966-.02583,2.40471-.11517,2.40131-.2547,2.38955-.4287,2.36831-.43742,2.363-.02754,2.422-.53774,2.34672-.53157,2.3436-.42051,2.36243-.22744,2.40456-.82321,2.27765-.25752,2.40537-.55062,2.33938-.79095,2.27571-.70516,2.29533-.67735,2.30225-.63373,2.31754-.67594,2.306-.86616,2.24292-.92462,2.21946-.70022,2.29915-.68717,2.30787-.82143,2.25918-.95256,2.20686-.906,2.22563-1.18255,2.10469-1.04073,2.16308-.867,2.243-1.043,2.16227-.95453,2.206-1.26046,2.05312-.8477,2.26426-1.37752,1.987-1.10838,2.12837-.93642,2.22654-1.25239,2.05048-1.34672,1.99316-1.19392,2.082-1.11131,2.13427-1.26225,2.04321-1.40861,1.94952-1.19921,2.085-1.62936,1.79943-1.29568,2.02043-1.14605,2.12681-1.36757,1.9753-1.489,1.88791-1.52156,1.86181-1.5039,1.87261-1.47969,1.88956-1.40883,1.94432-1.52739,1.852-1.27877,2.05177-1.608,1.78741-1.621,1.77394-1.35438,2.00068-1.52279,1.85961-1.68506,1.7172-1.57213,1.81357-1.54595,1.83715-1.85153,1.55892-1.63991,1.7519-1.44328,1.94025-1.61267,1.7835-1.81108,1.59026-1.72255,1.67419-1.601,1.79556-1.66809,1.72877-1.76191,1.62784-1.89252,1.48951-1.65683,1.74138-1.8585,1.51695-1.72084,1.67816-1.88855,1.4837-1.77154,1.60736-1.821,1.55268-1.92952,1.66833,2.455-.10939,2.3994-.132,2.3991.08071,2.3989.165,2.39878-.14118,2.39877-.17024,2.39885.25268,2.399.00787,2.39933-.197,2.39973-.11572,2.40023.30907,2.40083-.31178,2.4015.16382,2.40085.07729,2.40029-.1087,2.39987.15723,2.39957.06041,2.39938-.315,2.39932.02667,2.39939.11764,2.39959-.04247,2.39993-.08955,2.4004.1238,2.401.03418,2.40169-.10595,2.401.27019,2.40046-.35374,2.40008.05956,2.39985.11425,2.39978.122,2.39988-.28552,2.40014.126,2.40056.15252,2.40118-.017,2.40181-.11456,2.39451.05255,2.395.02093,2.39561.08837,2.39644-.23924,2.39749-.08216,2.39875.35021,2.40021-.359,2.40191.27289,2.40122-.25137,2.39985.33351,2.39873-.19885,2.39784-.10077,2.39722-.02606,2.39687.3236,2.39678-.13251,2.397-.1453,2.39745.09462,2.39823-.067,2.39932.09816,2.40072-.088,2.40245.21887,2.40217-.31251,2.40072.22272,2.39965.10063,2.399-.28683,2.39865.28215,2.39876-.10527,2.39929-.06691,2.40025.01884,2.40166-.10871,2.40356.135,2.40227.0103,2.401-.11572,2.40022-.01895,2.4.015,2.40044.05427,2.40144.06289,2.40309.07516,2.40338.032,2.40191-.18057,2.40117.12643,2.40122-.07608,2.4021.02327,2.40383.13174,2.40332-.35583,2.40214.32635,2.402-.12771,2.40294.10618,2.40478-.02229,2.403-.14481,2.4026.05489,2.40359-.20783,2.40437.14117,2.40314-.06454,2.40369.27616,2.404-.1027,2.4003-.22271,2.39894.32569,2.40007-.35207,2.404.239,2.40349-.101,2.40139-.14737,2.403.2571,2.40578-.22557,2.40311.04657,2.40591.04893,2.40457-.02579,2.40685.25862,2.40538-.28941,2.40658.14385,2.40762-.047,2.40246-.01962,2.40568-.12964,2.40839.25739,2.40873-.12944,2.40934.02674,2.41323.098,2.4472.04233-1.857-1.67878-1.89167-1.47585-1.90365-1.46541-1.76813-1.62251-1.7433-1.64855-1.82728-1.54582-1.76007-1.62119-1.58419-1.80777-1.96942-1.4053-1.51017-1.882-1.82359-1.56289-1.69356-1.696-1.65036-1.73893-1.73665-1.65687-1.63182-1.75823-1.60413-1.784-1.5212-1.85905-1.49489-1.88027-1.60772-1.77853-1.73833-1.66668-1.42423-1.93878-1.58484-1.80111-1.54763-1.83322-1.69295-1.71665-1.38423-1.96718-1.61321-1.78563-1.24817-2.0695-1.527-1.85378-1.50033-1.876-1.19938-2.09663-1.63264-1.78228-1.45344-1.91077-1.17535-2.10419-1.25919-2.04347-1.53094-1.86283-1.20321-2.08046-1.39018-1.96011-1.205-2.07793-1.40751-1.95425-1.05352-2.1684-1.36879-1.982-1.02256-2.18217-1.09707-2.13711-1.25383-2.05148-1.1665-2.10061-.912-2.232-1.35488-2.00755-.96-2.20608-.85542-2.25264-1.23626-2.07484-.83755-2.25722-.95852-2.20185-1.02414-2.17514-.94889-2.20814-.65821-2.32165-1.01091-2.18514-.8036-2.26243-.67672-2.30615-1.04582-2.18253-.45556-2.37655-.8966-2.23728-.66846-2.30856-.71369-2.29692-.60512-2.32749-.33462-2.3933-.65146-2.31484-.68372-2.31137-.38448-2.3757-.56207-2.34093-.2782-2.39237-.46871-2.3599-.37786-2.37512-.21132-2.39767-.1173-2.40582-.41613-2.37371.03-2.41386-.40527-2.38011.02977-2.40957-.02833-2.40282-.29837-2.39825Zm-28.19091,33.27944-.12445,2.30008.09268,2.32631-.10845,2.3168-.31794,2.30718-.10154,2.31525-.03025,2.32282-.11279,2.321-.32733,2.30744-.11546,2.31877.02474,2.32974-.35979,2.30233-.35,2.30073.005,2.335-.02579,2.33381-.2764,2.47739-1.439-2.08484-1.47464-1.81947-1.33157-1.93341-1.13556-2.053-.92912-2.16175-1.298-1.96769-.86075-2.1905-.95168-2.14386-1.08878-2.08051-.83574-2.1993-1.19866-2.03353-.90149-2.16315-1.111-2.07638-.58677-2.29813-.96727-2.12906-1.05182-2.16261-.7221,2.2655-.7998,2.21053-.73912,2.235-.66813,2.25887-.88924,2.18261-.7652,2.2252-.7756,2.22274-1.05015,2.12513-.66767,2.257-.82552,2.20422-.78175,2.2226-.65763,2.26708-.70777,2.24988-.80691,2.21866-.91747,2.15842-.347-2.32681-.80473-2.24684-.33521-2.34957-.37449-2.33986-.51888-2.31142-.74531-2.26178-.18289-2.38264-.783-2.255-.52082-2.30675-.31047-2.35475-.42885-2.33229-.48834-2.32-.5647-2.30433-.55345-2.31064-.39441-2.36245-1.64178,1.84707-1.39873,1.97071-1.40894,1.96783-1.53788,1.86655-1.65719,1.75837-1.63669,1.78077-1.86833,1.55586-1.77011,1.64271-1.656,1.76451-1.80568,1.603-1.76343,1.65818-2.00373,1.371-1.73794,1.706-2.12372,1.19831-1.86857,1.40623.9391-2.16949,1.04637-2.21219,1.025-2.23562.76065-2.332.58683-2.38655.68672-2.35437.79484-2.32709.5006-2.40812.95225-2.2953.51894-2.406.297-2.45625.51805-2.40507.62609-2.38378.63027-2.38548.5742-2.3971.50932-2.40486.38768-2.4314.5004-2.40524.15108-2.46365.52114-2.38568,2.39284.09135,2.3921-.27912,2.39523-.07916,2.39808.11713,2.39507-.05078,2.395-.10542,2.3995.28848,2.3926-.0172,2.38814-.30879,2.39152-.09747,2.39813.15995,2.39616.0184,2.392-.17312,2.39446-.09846,2.39845.019,2.39759.18859,2.39649-.17763,2.39812.10209,2.3979-.13291,2.3989.09923,2.398-.09777,2.39949-.05527,2.397.18994,2.39663-.14274,2.39917-.15759,2.40177.05517,2.40328.13946,2.40389-.16675,2.44281-.18951.09187,2.56076.2829,2.43345.50653,2.40558.44367,2.40651.04155,2.466.674,2.37391.22242,2.44358.32664,2.42587.52977,2.39214.28894,2.43718.40643,2.41832.797,2.337.48724,2.40167.42564,2.41821.61072,2.37642.68767,2.35624.5165,2.40322.64111,2.36783.8188,2.31628.50881,2.414,1.12741,2.34526-2.28533-.97583-1.95485-1.27765-1.84282-1.4197-2.01558-1.20124-1.69914-1.60428-1.621-1.67978-1.68788-1.60323-1.71873-1.57791-1.56438-1.73094-1.55585-1.74062-1.475-1.81131-1.69588-1.62161-1.54926-1.74381-1.18929-2.03723-1.71779-1.61267-1.19012-2.01577Z"/></g><g class="cls-4"><g class="cls-5"><polygon class="cls-6" points="1661.624 1223.206 1663.959 1223.119 1666.296 1223.004 1668.63 1223.057 1670.967 1222.878 1673.303 1223.215 1675.641 1223.24 1677.977 1223.214 1680.315 1222.858 1682.653 1223.158 1684.987 1223.154 1687.324 1223.051 1689.663 1223.075 1692.003 1222.919 1694.344 1223.201 1696.688 1223.088 1699.034 1223.184 1701.154 1222.354 1702.646 1220.698 1703.118 1218.535 1702.18 1215.89 1699.94 1214.191 1697.487 1214.145 1695.029 1214.065 1692.571 1214.062 1690.112 1214.142 1687.649 1214.279 1685.186 1214.332 1682.851 1213.844 1681.028 1212.35 1679.83 1210.379 1679.18 1208.123 1679.853 1205.876 1681.089 1203.953 1682.924 1202.569 1685.186 1202.282 1687.641 1202.057 1690.098 1201.954 1692.558 1202.287 1695.014 1202.16 1697.474 1202.143 1699.932 1201.985 1702.393 1202.193 1704.852 1201.99 1707.313 1202.131 1709.774 1202.173 1712.23 1201.911 1714.69 1202.117 1717.152 1201.961 1719.614 1202.151 1722.078 1202.27 1724.545 1202.074 1727.027 1202.282 1729.359 1200.459 1730.319 1197.728 1729.58 1195.391 1727.86 1193.616 1725.575 1193.829 1723.301 1193.575 1721.027 1193.642 1718.748 1193.642 1716.47 1193.644 1714.249 1193.129 1712.257 1191.948 1711.215 1189.884 1710.491 1187.668 1710.971 1185.355 1712.248 1183.379 1714.222 1182.146 1716.47 1181.757 1718.901 1181.522 1721.333 1181.667 1723.768 1181.639 1726.201 1181.517 1728.636 1181.48 1731.07 1181.451 1733.506 1181.538 1735.941 1181.789 1738.377 1181.679 1740.814 1181.714 1743.246 1181.704 1745.681 1181.631 1748.118 1181.627 1750.557 1181.689 1752.995 1181.601 1755.438 1181.771 1757.881 1181.539 1760.212 1181.957 1762.048 1183.432 1763.257 1185.404 1763.85 1187.668 1763.359 1189.973 1762.035 1191.893 1760.12 1193.171 1757.881 1193.883 1755.309 1193.814 1752.736 1193.54 1750.163 1193.755 1747.586 1193.619 1745.018 1193.781 1743.345 1195.431 1742.776 1197.728 1743.503 1200.456 1745.844 1202.113 1748.16 1202.01 1750.473 1202.228 1752.787 1202.152 1755.101 1201.998 1757.411 1202.227 1759.724 1202.164 1762.04 1202.098 1764.356 1202.003 1766.673 1202.285 1768.993 1202.164 1771.314 1202.012 1773.59 1202.536 1775.588 1203.785 1776.648 1205.875 1776.999 1208.123 1776.544 1210.329 1775.493 1212.371 1773.538 1213.59 1771.314 1214.053 1768.955 1214.1 1766.597 1214.162 1764.238 1214.313 1761.875 1214.015 1759.513 1214.314 1757.153 1214.09 1754.791 1214.173 1752.427 1214.209 1750.065 1214.181 1747.7 1214.27 1745.337 1214.068 1742.971 1214.084 1740.607 1214.152 1738.242 1214.257 1735.876 1214.336 1733.514 1214.13 1731.15 1214.033 1728.783 1214.049 1726.416 1214.232 1724.048 1214.116 1721.676 1214.118 1719.307 1214.198 1716.871 1215.745 1716.207 1218.535 1716.42 1220.793 1718.012 1222.477 1720.213 1223.138 1722.613 1222.948 1725.01 1223.055 1727.409 1223.099 1729.807 1223.028 1732.202 1223.021 1734.595 1223.156 1736.99 1223.065 1739.388 1223.175 1741.786 1223.019 1744.182 1222.934 1746.579 1223.146 1748.979 1222.937 1751.377 1222.862 1753.777 1223.059 1756.176 1222.956 1758.578 1222.948 1760.977 1222.934 1763.378 1222.971 1765.78 1222.922 1768.177 1223.02 1770.577 1222.993 1772.98 1223.243 1775.383 1223.063 1777.787 1222.918 1780.195 1223.048 1782.603 1223.195 1784.826 1223.614 1786.713 1224.898 1787.917 1226.841 1788.343 1229.081 1788.006 1231.356 1786.672 1233.225 1784.807 1234.505 1782.603 1235.282 1780.186 1235.029 1777.769 1235.255 1775.35 1235.161 1772.931 1235.21 1770.515 1235.021 1768.099 1234.99 1765.683 1234.976 1763.266 1235.008 1760.849 1235.195 1758.43 1235.242 1756.011 1234.97 1753.593 1234.963 1751.176 1235.159 1748.759 1235.036 1746.341 1235.091 1743.921 1235.001 1741.502 1235.099 1739.084 1235.191 1736.666 1234.949 1734.248 1235.07 1731.827 1235.016 1729.408 1234.947 1726.99 1235.023 1724.57 1235.191 1722.15 1235.113 1719.731 1235.123 1717.311 1235.052 1714.891 1234.958 1712.475 1235.263 1710.06 1234.925 1707.644 1235.288 1705.224 1234.921 1702.805 1234.953 1700.388 1235.302 1697.969 1235.256 1695.547 1235.255 1693.129 1235.237 1690.707 1235.182 1688.286 1235.302 1685.864 1234.934 1683.442 1235.284 1681.02 1235.083 1678.597 1235.177 1676.178 1235.207 1673.757 1235.071 1671.332 1235.22 1668.908 1234.927 1666.483 1235.015 1664.054 1235.181 1661.624 1235.02 1659.348 1234.668 1657.598 1233.183 1656.066 1231.418 1655.746 1229.081 1656.267 1226.824 1657.35 1224.742 1659.393 1223.597 1661.624 1223.206"/><polygon class="cls-6" points="1510.423 1258.094 1512.792 1257.934 1515.163 1257.875 1517.532 1257.957 1519.903 1258.099 1522.275 1258.223 1524.642 1258.216 1527.012 1257.873 1529.384 1258.155 1531.757 1257.941 1534.131 1258.009 1536.508 1258.089 1538.885 1258.138 1540.981 1258.633 1542.538 1260.149 1543.251 1262.236 1542.101 1264.777 1539.805 1266.287 1537.396 1266.125 1534.986 1266.393 1532.574 1266.198 1530.163 1266.366 1527.753 1266.244 1525.343 1266.436 1522.932 1266.175 1520.519 1266.317 1518.108 1266.268 1515.698 1266.392 1513.286 1266.252 1510.874 1266.091 1508.463 1266.181 1506.051 1266.372 1503.638 1266.389 1501.23 1266.262 1498.823 1266.435 1496.415 1266.218 1494.003 1266.412 1491.592 1266.173 1489.183 1266.172 1486.772 1266.265 1484.358 1266.443 1481.947 1266.463 1479.533 1266.184 1477.121 1266.178 1474.706 1266.444 1472.293 1266.406 1469.878 1266.223 1467.463 1266.425 1465.052 1266.196 1462.639 1266.356 1460.222 1266.477 1457.806 1266.351 1455.388 1266.421 1452.967 1266.134 1450.546 1266.419 1448.314 1266.612 1446.495 1267.927 1445.268 1269.74 1444.812 1271.858 1445.12 1274.043 1446.347 1275.951 1448.294 1277.156 1450.546 1277.398 1452.982 1277.531 1455.413 1277.334 1457.842 1277.61 1460.273 1277.507 1462.708 1277.62 1465.143 1277.49 1467.575 1277.301 1470.009 1277.329 1472.445 1277.446 1474.879 1277.424 1477.316 1277.625 1479.752 1277.587 1482.189 1277.407 1484.626 1277.307 1487.063 1277.609 1489.502 1277.426 1491.935 1277.354 1494.372 1277.409 1496.811 1277.302 1499.251 1277.585 1501.691 1277.484 1504.135 1277.369 1506.574 1277.505 1509.005 1278.806 1509.67 1281.464 1509.261 1283.734 1507.408 1285.042 1505.132 1285.17 1502.837 1285.173 1500.543 1285.334 1498.253 1285.347 1495.959 1285.237 1493.663 1285.129 1491.366 1285.288 1489.069 1285.099 1486.768 1285.032 1484.468 1285.359 1482.261 1285.579 1480.438 1286.851 1479.061 1288.584 1478.418 1290.76 1479.124 1292.908 1480.479 1294.624 1482.276 1295.901 1484.468 1296.193 1486.913 1296.209 1489.359 1296.501 1491.809 1296.34 1494.259 1296.354 1496.707 1296.471 1499.156 1296.376 1501.608 1296.286 1504.058 1296.17 1506.51 1296.509 1508.961 1296.444 1511.414 1296.21 1513.866 1296.27 1516.319 1296.436 1518.773 1296.312 1521.222 1296.438 1523.674 1296.296 1526.129 1296.241 1528.584 1296.283 1531.04 1296.2 1533.499 1296.205 1535.959 1296.35 1538.174 1295.961 1540.02 1294.702 1541.55 1293.02 1541.901 1290.76 1541.525 1288.511 1540.083 1286.748 1538.102 1285.746 1535.959 1285.123 1533.722 1285.093 1531.484 1285.196 1529.246 1285.166 1527.004 1285.169 1524.747 1285.315 1522.946 1283.721 1522.322 1281.464 1523.329 1278.926 1525.608 1277.429 1528.001 1277.578 1530.394 1277.539 1532.789 1277.558 1535.183 1277.253 1537.576 1277.613 1539.97 1277.379 1542.364 1277.619 1544.758 1277.611 1547.152 1277.271 1549.547 1277.367 1551.937 1277.36 1554.327 1277.294 1556.717 1277.347 1559.112 1277.3 1561.506 1277.311 1563.897 1277.477 1566.291 1277.282 1568.687 1277.54 1571.081 1277.582 1573.477 1277.241 1575.872 1277.511 1578.269 1277.321 1580.665 1277.413 1583.062 1277.531 1585.46 1277.48 1587.853 1277.392 1590.249 1277.601 1592.648 1277.483 1595.047 1277.31 1597.447 1277.611 1599.851 1277.298 1602.254 1277.26 1604.409 1276.902 1606.444 1275.941 1607.522 1273.971 1608.054 1271.858 1607.506 1269.752 1606.454 1267.764 1604.464 1266.669 1602.254 1266.157 1599.874 1266.334 1597.497 1266.233 1595.117 1266.259 1592.735 1266.173 1590.356 1266.396 1587.974 1266.476 1585.593 1266.087 1583.21 1266.404 1580.828 1266.154 1578.446 1266.213 1576.062 1266.273 1573.683 1266.378 1571.301 1266.111 1568.916 1266.092 1566.531 1266.383 1564.146 1266.392 1561.757 1266.118 1559.368 1266.267 1556.924 1264.9 1555.872 1262.236 1556.745 1260.216 1558.282 1258.792 1560.287 1258.118 1562.591 1258.23 1564.897 1258.096 1567.203 1258.052 1569.512 1257.878 1571.822 1258.255 1574.096 1257.844 1575.862 1256.41 1577.409 1254.748 1577.852 1252.49 1577.382 1250.244 1575.973 1248.449 1574.023 1247.325 1571.822 1246.952 1569.461 1246.959 1567.102 1246.825 1564.742 1246.951 1562.381 1247.079 1560.024 1246.935 1557.669 1246.723 1555.313 1246.72 1552.952 1247.064 1550.592 1246.986 1548.234 1246.868 1545.875 1246.975 1543.513 1246.864 1541.153 1246.765 1538.791 1246.749 1536.43 1246.907 1534.067 1246.731 1531.705 1246.934 1529.342 1246.887 1526.978 1246.767 1524.619 1246.739 1522.257 1246.77 1519.892 1247.085 1517.527 1247.025 1515.162 1246.86 1512.792 1246.96 1510.423 1246.851 1508.246 1247.389 1506.416 1248.607 1505.051 1250.329 1504.347 1252.49 1504.884 1254.727 1506.433 1256.355 1508.261 1257.553 1510.423 1258.094"/></g></g><g class="cls-7"><g class="cls-5"><polygon class="cls-6" points="1164.136 206.209 1164.451 207.623 1163.452 208.653 1162.678 209.737 1161.677 210.66 1160.422 211.197 1159.173 211.753 1157.875 212.4 1156.456 211.72 1155.023 211.742 1153.59 212.451 1152.155 211.821 1150.721 212.428 1149.287 211.865 1147.854 212.568 1146.422 212.257 1144.99 212.171 1143.557 211.85 1142.125 211.924 1140.691 211.675 1139.257 212.566 1137.822 212.342 1136.388 212.233 1134.954 212.093 1133.521 212.056 1132.087 211.927 1130.654 211.921 1129.22 211.854 1127.785 212.571 1126.35 211.932 1124.916 211.671 1123.482 211.834 1122.048 211.954 1120.614 211.891 1119.185 212.556 1117.756 211.585 1116.326 211.939 1114.894 211.835 1113.461 211.799 1112.024 211.81 1110.59 211.952 1109.157 212.065 1107.725 211.694 1106.293 212.087 1104.86 212.535 1103.425 212.546 1101.988 211.719 1100.553 212.24 1099.12 211.649 1097.685 211.608 1096.248 212.358 1094.812 212.271 1093.376 211.662 1091.94 212.088 1090.502 211.694 1089.066 212.25 1087.628 212.286 1086.19 212.567 1084.752 212.264 1083.317 212.076 1081.883 212.252 1080.443 211.883 1079.006 212.246 1077.568 212.518 1076.127 212.002 1074.689 212.546 1073.247 212.481 1071.803 212.426 1070.359 212.18 1068.971 212.147 1067.572 212.017 1066.17 211.714 1065.074 210.759 1064.103 209.771 1063.055 208.856 1062.826 207.472 1062.729 206.209 1062.223 204.75 1063.307 203.729 1063.739 202.257 1065.137 201.758 1066.296 200.997 1067.738 201.026 1068.94 200.019 1070.359 200.374 1071.791 199.872 1073.225 200.426 1074.659 200.437 1076.094 200.169 1077.527 200.642 1078.96 200.058 1080.393 200.086 1081.825 200.365 1083.257 200.742 1084.69 200.78 1086.123 200.742 1087.557 199.974 1088.993 200.645 1090.427 200.724 1091.861 200.151 1093.294 200.369 1094.727 200.364 1096.161 199.914 1097.595 200.801 1099.03 199.945 1100.465 200.778 1101.899 200.57 1103.333 200.049 1104.767 200.668 1106.201 200.819 1107.629 200.71 1109.059 200.086 1110.489 200.239 1111.92 199.876 1113.354 200.543 1114.791 199.855 1116.225 200.074 1117.657 200.247 1119.089 200.605 1120.521 200.504 1121.954 200.84 1123.39 199.984 1124.827 200.113 1126.261 200.463 1127.695 200.743 1129.13 199.989 1130.567 200.5 1132.003 200.756 1133.438 200.306 1134.875 200.679 1136.313 200.615 1137.749 200.623 1139.187 199.851 1140.624 200.094 1142.063 200.533 1143.497 200.061 1144.932 200.388 1146.371 200.768 1147.808 200.467 1149.247 200.365 1150.688 200.16 1152.126 200.212 1153.568 200.733 1155.012 200.269 1156.456 200.529 1157.82 200.453 1159.189 200.603 1160.285 201.546 1161.614 201.86 1163.093 202.242 1163.475 203.753 1164.248 204.863 1164.136 206.209"/><polygon class="cls-6" points="1503.93 229.093 1503.664 230.456 1503.394 231.92 1501.826 232.383 1500.969 233.422 1499.841 234.195 1498.552 234.673 1497.208 234.997 1495.826 235.27 1494.389 235.315 1492.952 235.124 1491.515 234.595 1490.079 235.096 1488.642 234.63 1487.206 234.695 1485.771 234.634 1484.335 235.069 1482.899 235.313 1481.464 235.16 1480.029 235.014 1478.594 235.283 1477.159 235.071 1475.724 235.304 1474.289 235.22 1472.855 235.338 1471.42 235.215 1469.986 235.181 1468.552 235.077 1467.117 234.742 1465.683 235.298 1464.249 234.558 1462.815 234.519 1461.381 235.283 1459.946 235.262 1458.512 234.924 1457.078 234.898 1455.644 234.675 1454.21 234.746 1452.775 234.594 1451.341 234.71 1449.906 235.258 1448.472 234.72 1447.037 234.938 1445.602 235.175 1444.168 235.013 1442.733 235.1 1441.297 235.27 1439.862 234.55 1438.427 234.707 1436.991 234.491 1435.555 235.426 1434.119 234.593 1432.682 235.416 1431.246 234.727 1429.809 234.566 1428.372 235.089 1426.934 235.229 1425.497 235.355 1424.059 235.22 1422.621 234.834 1421.183 235.405 1419.745 234.722 1418.308 235.127 1416.871 234.994 1415.434 234.769 1413.997 234.827 1412.561 234.88 1411.125 235.229 1409.688 234.618 1408.252 234.583 1406.817 234.921 1405.381 234.512 1403.945 234.936 1402.51 234.653 1401.074 234.914 1399.639 235.024 1398.204 235.182 1396.768 234.516 1395.333 235.022 1393.898 235.049 1392.462 235.443 1391.027 234.917 1389.591 235.127 1388.156 235.273 1386.72 235.226 1385.284 235.357 1383.849 234.522 1382.413 235.379 1380.976 234.675 1379.54 234.783 1378.103 235.096 1376.667 235.364 1375.23 234.5 1373.792 235.126 1372.355 234.566 1370.917 234.472 1369.478 235.379 1368.04 234.857 1366.602 234.762 1365.164 235.155 1363.726 235.139 1362.288 235.2 1360.851 234.513 1359.414 234.957 1357.977 234.48 1356.54 235.175 1355.104 235.158 1353.667 234.75 1352.231 234.533 1350.795 235.114 1349.358 235.219 1347.922 235.2 1346.486 235.025 1345.05 234.815 1343.614 235.255 1342.177 234.892 1340.741 235.338 1339.304 234.988 1337.868 235.448 1336.431 235.01 1334.994 235.245 1333.556 235.141 1332.119 234.932 1330.681 234.979 1329.243 234.598 1327.805 234.578 1326.366 235.408 1324.927 234.976 1323.489 234.751 1322.051 234.657 1320.613 235.078 1319.175 234.715 1317.738 235.006 1316.301 234.952 1314.864 235.412 1313.427 235.418 1311.99 234.849 1310.553 234.504 1309.116 234.811 1307.679 235.372 1306.242 235.278 1304.805 234.788 1303.368 234.66 1301.931 234.975 1300.493 234.979 1299.056 234.569 1297.618 234.83 1296.179 234.692 1294.741 234.658 1293.301 235.302 1291.863 235.151 1290.424 234.808 1288.986 235.285 1287.548 235.223 1286.11 234.882 1284.673 235.401 1283.235 234.549 1281.802 234.799 1280.369 234.719 1278.935 235.431 1277.501 235.303 1276.066 234.686 1274.631 235.364 1273.195 235.355 1271.758 235.265 1270.321 234.85 1268.882 235.191 1267.443 235.173 1266.004 234.78 1264.566 235.015 1263.128 235.043 1261.691 235.312 1260.255 234.907 1258.819 235.088 1257.383 234.676 1255.948 235.256 1254.513 234.615 1253.079 234.716 1251.644 234.906 1250.21 235.323 1248.776 235.375 1247.342 234.638 1245.908 234.969 1244.473 234.503 1243.039 234.925 1241.604 234.983 1240.169 235.132 1238.734 234.754 1237.298 234.488 1235.861 235.168 1234.424 235.093 1232.986 234.671 1231.547 235.234 1230.107 234.562 1228.667 235.189 1227.227 234.929 1225.788 235.244 1224.35 234.561 1222.912 234.954 1221.475 235.406 1220.038 234.794 1218.602 235.239 1217.165 235.054 1215.729 235.4 1214.293 235.196 1212.856 235.221 1211.419 235.128 1209.982 234.828 1208.544 235.023 1207.106 234.951 1205.667 234.568 1204.227 234.842 1202.786 234.957 1201.345 234.993 1199.906 234.772 1198.467 234.734 1197.028 235.074 1195.59 234.529 1194.152 234.9 1192.714 234.572 1191.276 234.828 1189.838 234.718 1188.399 234.658 1186.959 235.436 1185.519 234.524 1184.078 235.057 1182.637 235.152 1181.197 234.695 1179.757 234.554 1178.318 235.409 1176.879 235.335 1175.44 235.209 1174 235.19 1172.56 234.861 1171.119 235.078 1169.677 234.87 1168.236 235.199 1166.796 235.049 1165.356 235.409 1163.916 235.384 1162.476 235.074 1161.035 235.125 1159.593 234.929 1158.152 234.709 1156.711 235.155 1155.27 235.017 1153.829 234.96 1152.388 235.046 1150.953 235.426 1149.517 235.126 1148.081 235.433 1146.642 234.793 1145.202 235.266 1143.758 235.141 1142.317 235.073 1140.878 235.371 1139.44 234.936 1138.001 235.099 1136.561 234.886 1135.119 235.319 1133.675 235.085 1132.234 235.374 1130.793 234.5 1129.352 234.58 1127.908 235.052 1126.465 234.726 1125.023 235.378 1123.58 235.366 1122.135 235.253 1120.692 235.09 1119.247 235.443 1117.803 234.523 1116.358 235.421 1114.917 235.245 1113.476 235.138 1112.029 234.795 1110.586 235 1109.14 235.018 1107.693 234.465 1106.248 234.888 1104.799 235.452 1103.348 235.195 1101.897 235.012 1100.555 234.678 1099.235 234.435 1097.963 234.004 1096.914 233.167 1095.553 232.749 1094.667 231.691 1094.288 230.381 1093.806 229.093 1094.196 227.774 1094.671 226.496 1095.511 225.391 1096.583 224.495 1097.713 223.596 1099.115 223.301 1100.547 223.44 1101.897 222.937 1103.334 223.252 1104.771 223.213 1106.208 223.666 1107.645 223.502 1109.081 223.436 1110.517 223.69 1111.953 223.712 1113.388 222.814 1114.824 222.814 1116.259 223.383 1117.694 223.226 1119.129 223.437 1120.564 223.569 1121.999 222.78 1123.434 222.872 1124.868 223.241 1126.303 222.955 1127.737 223.567 1129.172 223.539 1130.606 223.445 1132.04 223.321 1133.474 223.107 1134.908 222.861 1136.343 222.842 1137.777 223.355 1139.211 223.407 1140.645 223.335 1142.079 223.68 1143.514 223.645 1144.948 222.778 1146.382 222.853 1147.817 223.167 1149.251 223.156 1150.686 222.926 1152.121 223.015 1153.556 223.065 1154.991 223.709 1156.426 223.669 1157.861 223.054 1159.297 223.345 1160.732 223.063 1162.168 223.024 1163.604 223.722 1165.041 223.377 1166.477 223.689 1167.914 222.861 1169.351 222.97 1170.789 223.609 1172.226 222.828 1173.664 222.853 1175.103 222.792 1176.54 223.218 1177.978 222.938 1179.415 222.946 1180.852 223.039 1182.289 223.699 1183.726 223.103 1185.162 223.055 1186.599 223.581 1188.035 222.851 1189.471 223.527 1190.907 223.213 1192.342 223.641 1193.778 223.142 1195.213 223.671 1196.649 222.892 1198.084 223.656 1199.52 222.915 1200.955 223.165 1202.39 223.708 1203.826 223.491 1205.261 223.402 1206.696 223.052 1208.132 223.237 1209.567 223.378 1211.003 223.017 1212.439 223.49 1213.875 223.161 1215.311 223.395 1216.747 222.906 1218.183 223.482 1219.62 223.447 1221.057 222.848 1222.494 223.196 1223.931 222.739 1225.369 222.802 1226.807 223.39 1228.245 222.949 1229.683 223.271 1231.122 223.106 1232.56 223.228 1233.997 223.259 1235.435 222.79 1236.872 223.041 1238.309 223.253 1239.746 223.472 1241.183 223.532 1242.62 223.651 1244.056 223.446 1245.492 223.004 1246.929 223.579 1248.365 223.027 1249.801 223.392 1251.237 223.711 1252.673 223.286 1254.11 222.865 1255.546 223.264 1256.982 223.301 1258.419 222.896 1259.856 223.082 1261.292 223.101 1262.729 222.727 1264.167 222.944 1265.604 223.247 1267.042 222.734 1268.48 223.063 1269.918 223.547 1271.357 223.008 1272.796 223.205 1274.234 222.805 1275.672 223.16 1277.11 223.263 1278.548 223.017 1279.985 223.083 1281.422 222.906 1282.859 223.274 1284.296 223.065 1285.733 222.738 1287.17 223.065 1288.607 223.46 1290.044 223.584 1291.481 222.75 1292.918 222.823 1294.355 223.07 1295.792 222.967 1297.23 222.971 1298.668 222.867 1300.106 223.469 1301.544 222.789 1302.983 223.639 1304.422 222.925 1305.861 223.246 1307.299 222.885 1308.737 223.636 1310.175 222.84 1311.613 222.871 1313.051 222.823 1314.488 222.973 1315.921 223.28 1317.354 223.115 1318.788 223.617 1320.222 223.448 1321.657 223.669 1323.092 222.947 1324.528 223.03 1325.965 222.968 1327.403 223.439 1328.841 223.141 1330.28 223.295 1331.719 223.487 1333.158 223.19 1334.595 223.295 1336.032 223.614 1337.469 223.043 1338.905 222.859 1340.34 223.495 1341.775 223.273 1343.21 222.847 1344.645 223.489 1346.079 223.33 1347.513 223.709 1348.947 222.912 1350.381 223.69 1351.816 223.491 1353.25 223.389 1354.684 223.167 1356.119 223.386 1357.554 223.654 1358.99 222.829 1360.426 223.55 1361.862 222.946 1363.299 222.89 1364.737 223.603 1366.176 223.028 1367.616 223.288 1369.056 223.299 1370.496 223.693 1371.935 223.029 1373.373 223.05 1374.811 223.091 1376.248 223.006 1377.685 223.237 1379.122 223.423 1380.558 222.852 1381.994 223.424 1383.431 223.239 1384.867 222.745 1386.304 223.181 1387.741 223.208 1389.179 222.974 1390.617 223.439 1392.056 223.45 1393.496 223.121 1394.937 223.47 1396.378 223.396 1397.818 222.876 1399.257 223.098 1400.695 222.821 1402.133 223.394 1403.571 223.65 1405.009 222.812 1406.447 222.884 1407.886 223.652 1409.324 223.324 1410.764 222.985 1412.204 223.665 1413.645 223.103 1415.086 223.178 1416.527 222.777 1417.966 222.851 1419.406 223.489 1420.845 222.793 1422.284 223.107 1423.723 223.475 1425.163 222.87 1426.604 223.544 1428.046 223.244 1429.487 223.164 1430.927 223.632 1432.367 223.226 1433.807 223.515 1435.247 222.955 1436.688 223.6 1438.13 223.545 1439.572 223.468 1441.013 223.131 1442.453 223.343 1443.894 223.678 1445.335 223.34 1446.77 223.069 1448.206 223.269 1449.643 223.633 1451.081 223.176 1452.522 223.537 1453.965 223.594 1455.406 223.622 1456.845 223.427 1458.284 223.445 1459.722 222.79 1461.162 223.161 1462.604 223.396 1464.048 223.486 1465.489 223.605 1466.93 223.132 1468.371 223.347 1469.815 223.655 1471.258 223.235 1472.7 223.503 1474.143 223.65 1475.588 223.114 1477.031 222.765 1478.476 222.946 1479.92 222.781 1481.365 223.361 1482.806 223.445 1484.248 223.054 1485.694 223.535 1487.137 223.182 1488.583 222.925 1490.03 223.394 1491.475 223.289 1492.924 223.349 1494.375 223.01 1495.826 223.095 1497.137 223.75 1498.455 223.875 1499.893 223.871 1501.05 224.639 1501.979 225.642 1502.847 226.636 1503.234 227.871 1503.93 229.093"/><polygon class="cls-6" points="1130.109 217.92 1129.99 216.336 1130.99 215.086 1131.706 213.726 1133.166 213.181 1134.47 212.579 1135.9 211.799 1134.467 211.917 1133.036 211.795 1131.604 211.945 1130.17 211.754 1128.737 211.906 1127.303 212.103 1125.87 211.668 1124.435 212.221 1123.005 211.932 1121.574 212.043 1120.139 211.947 1118.706 212.509 1117.271 211.694 1115.835 211.955 1114.4 212.116 1112.962 212.366 1111.522 211.747 1110.082 211.926 1111.719 211.814 1112.808 213.197 1114.276 213.727 1115.23 214.949 1115.879 216.367 1115.915 217.92 1115.676 219.419 1115.082 220.807 1114.448 222.287 1113.148 223.231 1111.63 223.699 1110.082 224.17 1111.515 224.216 1112.946 223.353 1114.378 223.671 1115.812 223.967 1117.245 224.226 1118.679 224.188 1120.112 223.608 1121.547 224.183 1122.977 223.436 1124.408 223.378 1125.843 223.644 1127.276 224.267 1128.711 223.73 1130.147 223.756 1131.582 223.988 1133.02 223.531 1134.46 223.868 1135.9 223.863 1134.323 223.803 1132.838 223.222 1131.411 222.408 1130.913 220.798 1130.258 219.431 1130.109 217.92"/><polygon class="cls-6" points="1130.109 217.92 1129.99 216.336 1130.99 215.086 1131.706 213.726 1133.166 213.181 1134.47 212.579 1135.9 211.799 1134.467 211.917 1133.036 211.795 1131.604 211.945 1130.17 211.754 1128.737 211.906 1127.303 212.103 1125.87 211.668 1124.435 212.221 1123.005 211.932 1121.574 212.043 1120.139 211.947 1118.706 212.509 1117.271 211.694 1115.835 211.955 1114.4 212.116 1112.962 212.366 1111.522 211.747 1110.082 211.926 1111.719 211.814 1112.808 213.197 1114.276 213.727 1115.23 214.949 1115.879 216.367 1115.915 217.92 1115.676 219.419 1115.082 220.807 1114.448 222.287 1113.148 223.231 1111.63 223.699 1110.082 224.17 1111.515 224.216 1112.946 223.353 1114.378 223.671 1115.812 223.967 1117.245 224.226 1118.679 224.188 1120.112 223.608 1121.547 224.183 1122.977 223.436 1124.408 223.378 1125.843 223.644 1127.276 224.267 1128.711 223.73 1130.147 223.756 1131.582 223.988 1133.02 223.531 1134.46 223.868 1135.9 223.863 1134.323 223.803 1132.838 223.222 1131.411 222.408 1130.913 220.798 1130.258 219.431 1130.109 217.92"/></g></g></svg>