<svg id="圖層_1" data-name="圖層 1" xmlns="http://www.w3.org/2000/svg" viewBox="0 0 18.6194 18.62829"><defs><style>.cls-1{fill:#494d56;}.cls-2{fill:#fff;fill-rule:evenodd;}</style></defs><path class="cls-1" d="M18.6194,9.31637A9.3097,9.3097,0,1,1,9.30748,0,9.31034,9.31034,0,0,1,18.6194,9.31637Z"/><path class="cls-2" d="M13.01323,4.29139H5.61062A1.19392,1.19392,0,0,0,4.27406,5.63683v7.38529a1.18226,1.18226,0,0,0,1.293,1.31878h7.44616a1.19938,1.19938,0,0,0,1.33212-1.33211V5.60617A1.19064,1.19064,0,0,0,13.01323,4.29139Zm-.8158,1.1326c.998,0,.998,0,.998.998,0,.9762,0,.9762-.98065.9762-.98909,0-.98909,0-.98909-.98909C11.22567,5.424,11.22567,5.424,12.19743,5.424ZM9.31637,7.36352a1.94849,1.94849,0,1,1-1.9613,1.92663A1.98935,1.98935,0,0,1,9.31637,7.36352Zm3.879,5.23337c-.00844.46833-.13019.603-.59852.603H6.01851c-.45988,0-.59007-.13463-.59007-.603,0-1.20637.00444-2.43895-.01733-3.66221,0-.34747.09553-.42567.41634-.41234.45989.03022.46877.01289.41679.45989a3.08284,3.08284,0,1,0,6.09227-.23861c-.03466-.17374.00844-.20839.16485-.20839.69405-.052.69405-.06488.69405.65539Z"/></svg>