<svg id="圖層_1" data-name="圖層 1" xmlns="http://www.w3.org/2000/svg" viewBox="0 0 56.746 43.56785"><defs><style>.cls-1{fill:#323232;}.cls-2{fill:#e66446;}</style></defs><title>d01</title><polygon class="cls-1" points="17.477 35.353 15.804 32.927 13.728 34.514 11.458 35.835 9.49 37.585 7.249 38.95 5.211 40.594 3.029 42.114 4.702 40.233 6.307 38.342 8.362 36.948 10.053 35.112 12.091 33.699 14.093 32.268 15.259 31.421 11.471 30.818 8.618 29.174 8.325 29.249 6.108 31.491 3.84 33.649 2.906 35.367 1.771 36.971 0.677 40.295 0 43.821 2.983 43.724 6.124 43.535 8.433 42.627 10.824 41.959 13.105 40.98 15.377 39.976 17.65 38.912 20.018 36.448 17.477 35.353"/><polygon class="cls-1" points="51.309 31.948 49.682 30.765 48.071 29.418 45.258 30.637 42.555 31.912 44.562 33.32 46.418 35.028 48.523 36.894 50.59 38.823 52.15 41.221 49.991 39.747 48.038 38.079 46.042 36.458 43.928 34.989 41.989 33.3 41.473 33.084 39.116 35.008 36.487 36.425 38.757 38.273 40.733 39.71 42.896 40.842 45.12 41.852 47.497 42.41 49.785 42.838 52.103 43.126 54.424 43.402 56.746 43.568 56.189 41.067 55.402 38.572 54.528 36.08 53.109 33.851 51.309 31.948"/><path class="cls-2" d="M51.17705,14.77644l-2.12462-2.372-2.72575-1.80192L46.78079,8.137l-.52552-2.30132L45.22706,3.76885,43.86963,1.85251,41.7043.90671,39.23887.20079,36.66475,0,34.0949.397,31.64954,1.29,29.3791,2.41376,27.33038,1.31393l-2.23554-.868L22.70373.31249,20.31685.28218,17.95306.72754,15.56883,1.86943l-2.1126,1.6282-1.23118,2.371-.88468,2.51722-.09695,2.64567-1.96611,1.13-1.58649,1.646-1.609,1.6651-.60836,2.24765.06131,2.38827.32933,2.38139,1.22956,2.06742L8.61991,26.3721l2.08494,1.38114,2.239,1.11333,2.85562.57891,1.32822,2.19692L19.048,33.48629l2.13589,1.57763,2.5174.841,2.585.61413,2.68779.228,2.32176-.6801,2.34534-.36533L35.8865,34.909l1.91-1.40842,1.7406-1.58173L40.70623,29.901l2.66936-1.07777L46.08724,27.778l2.54458-1.43467,2.03954-2.07772,1.29686-2.141.36141-2.50057-.42648-2.47245Zm-25.8716,3.47917-1.31085-2.5592-1.2892-2.45389-1.38094-1.73176,1.4481-1.6376,1.73867,1.63808-.77711,1.20045,1.591,2.40121,1.36042,2.59465Zm2.19582-.97576-.67989-2.24021-.73131-2.28892-.39349-2.4449L24.345,9.14272l1.35252-1.45339,1.1583,1.45334-.4,1.2392.733,2.04054.59655,2.26969.65085,2.26921Zm2.50839-.55429-.90729.12687-.31394-2.50806.14244-2.49536-.27332-2.34764L27.34288,8.06309l1.558-1.26242,1.52823,1.26294-.96232,1.31665.16469,2.4313.21741,2.4684Zm1.71042.13972-.86315-.00409.20582-2.339.64935-2.2257.207-2.172-.83578-1.16075,1.35371-1.048,1.31485,1.05964-1.00164,1.17876-.35516,2.21611-.31235,2.26485ZM35.4577,12.2615l-.85032,2.76458-.83031,2.82428-.84348-.44144.763-2.67683.84316-2.64338-.2162-.99606L35.48188,9.669l1.41042,1.42382Z"/></svg>