<svg id="圖層_1" data-name="圖層 1" xmlns="http://www.w3.org/2000/svg" viewBox="0 0 56.746 43.56785"><defs><style>.cls-1{fill:#e66446;}.cls-2{fill:#323232;}</style></defs><title>d01</title><path class="cls-1" d="M56.52168,14.49177l-.68338-2.149-1.69265-1.59015L52.12878,9.50445,50.16023,8.20593,48.469,6.66062,46.77036,4.89584,45.07685,3.18337,43.14518,1.68253,40.78193.9142,38.37437.32265,35.89782.00339l-2.526.25021L31.089,1.369,29.21475,3.03346,27.35814,4.72359l-1.66524,1.796-2.179.718-2.33114.11117-2.21608.67058-2.09426.96709-1.333,1.76219-.3458,2.02779.12564,2.00944.7753,1.8872,1.311,1.64252L18.696,20.01533l.52971,2.03082.19938,2.48162-.13639,2.50889-.14115,2.522,1.32,2.21152,2.03479,1.30369,2.3339.68588,2.43184.05713,2.43125-.03052,2.38755-.47187,2.39286.09524,2.23251.74585,2.16852.99231,2.36275.4372,2.39831.27831,2.24766-.828,2.14957-.9573,1.59108-1.66374,1.04173-1.98764.36487-2.23969.08912-2.301,1.08471-2.02943,1.367-1.65953,1.16777-1.80131,1.26974-1.73815L56.55865,16.6ZM45.32349,9.55189l-.77522,1.78144-1.3208,1.48088-1.64968.99282.891-1.57893,1.26678-1.51285Zm-18.1842-.46563,1.75053.75054,1.41654,1.22041.98565,2.17747-1.34466-1.36232L28.50353,10.537Zm-7.58875,4.8868,1.4467-.6994,2.51736.5654,2.39325,1.09977,2.18609,1.40795,1.73217,1.46575-2.123-.43533-2.04547-.85171L23.7037,15.47631,21.59883,14.754Zm9.348,12.20636L27.00967,28.0665,24.9719,29.07989l.75848-1.71508,1.35986-1.37072L28.486,24.67958l1.91321-1.50333,2.47447-.47282L30.80752,24.394Zm6.88089,2.439-.59374-2.02421.04968-2.10926.70482-1.88358.39548,1.93233-.0027,2.10184Zm2.47214-10.759-.43373,1.77487-1.05167,1.49161-2.12573-1.60543-1.66786-1.57453-1.00464-1.9192.4951-2.24834,1.8583-1.60393,2.32626.73247,1.83147,1.55259-.01976,1.721Zm.15815-9.652L37.862,9.827l-.92308,1.44874-.09-1.69982L37.21753,7.912l.50234-2.05854L38.6757,3.918l.04278,2.17336Zm5.88775,22.56205L42.65879,28.6828l-1.29636-2.26375-.8734-2.32412,1.667,1.21068,1.29182,1.64473,1.1701,1.78757Zm3.44438-8.06291-3.1308-.85787-1.75648-.6646-1.43613-.84465,2.34366.34718,2.32051.53259ZM43.60047,17.5269l1.97887-1.49021,2.37014-1.03057,2.64418-.87631,2.48954-.44512-1.64578.9518-1.77628,1.11172-1.94218.7992-2.04988.52984Z"/><path class="cls-1" d="M56.52168,14.49177l-.68338-2.149-1.69265-1.59015L52.12878,9.50445,50.16023,8.20593,48.469,6.66062,46.77036,4.89584,45.07685,3.18337,43.14518,1.68253,40.78193.9142,38.37437.32265,35.89782.00339l-2.526.25021L31.089,1.369,29.21475,3.03346,27.35814,4.72359l-1.66524,1.796-2.179.718-2.33114.11117-2.21608.67058-2.09426.96709-1.333,1.76219-.3458,2.02779.12564,2.00944.7753,1.8872,1.311,1.64252L18.696,20.01533l.52971,2.03082.19938,2.48162-.13639,2.50889-.14115,2.522,1.32,2.21152,2.03479,1.30369,2.3339.68588,2.43184.05713,2.43125-.03052,2.38755-.47187,2.39286.09524,2.23251.74585,2.16852.99231,2.36275.4372,2.39831.27831,2.24766-.828,2.14957-.9573,1.59108-1.66374,1.04173-1.98764.36487-2.23969.08912-2.301,1.08471-2.02943,1.367-1.65953,1.16777-1.80131,1.26974-1.73815L56.55865,16.6ZM45.32349,9.55189l-.77522,1.78144-1.3208,1.48088-1.64968.99282.891-1.57893,1.26678-1.51285Zm-18.1842-.46563,1.75053.75054,1.41654,1.22041.98565,2.17747-1.34466-1.36232L28.50353,10.537Zm-7.58875,4.8868,1.4467-.6994,2.51736.5654,2.39325,1.09977,2.18609,1.40795,1.73217,1.46575-2.123-.43533-2.04547-.85171L23.7037,15.47631,21.59883,14.754Zm9.348,12.20636L27.00967,28.0665,24.9719,29.07989l.75848-1.71508,1.35986-1.37072L28.486,24.67958l1.91321-1.50333,2.47447-.47282L30.80752,24.394Zm6.88089,2.439-.59374-2.02421.04968-2.10926.70482-1.88358.39548,1.93233-.0027,2.10184Zm2.47214-10.759-.43373,1.77487-1.05167,1.49161-2.12573-1.60543-1.66786-1.57453-1.00464-1.9192.4951-2.24834,1.8583-1.60393,2.32626.73247,1.83147,1.55259-.01976,1.721Zm.15815-9.652L37.862,9.827l-.92308,1.44874-.09-1.69982L37.21753,7.912l.50234-2.05854L38.6757,3.918l.04278,2.17336Zm5.88775,22.56205L42.65879,28.6828l-1.29636-2.26375-.8734-2.32412,1.667,1.21068,1.29182,1.64473,1.1701,1.78757Zm3.44438-8.06291-3.1308-.85787-1.75648-.6646-1.43613-.84465,2.34366.34718,2.32051.53259ZM43.60047,17.5269l1.97887-1.49021,2.37014-1.03057,2.64418-.87631,2.48954-.44512-1.64578.9518-1.77628,1.11172-1.94218.7992-2.04988.52984Z"/><polygon class="cls-2" points="33.588 15.805 33.195 16.247 32.749 15.712 33.326 15.186 33.588 15.805"/><polygon class="cls-2" points="34.572 14.198 33.914 14.648 33.751 14.108 34.058 13.476 34.572 14.198"/><polygon class="cls-2" points="35.483 15.213 34.953 15.675 34.493 15.103 35.093 14.527 35.483 15.213"/><polygon class="cls-2" points="34.912 16.703 34.609 17.086 34.533 16.662 34.687 16.451 34.912 16.703"/><polygon class="cls-2" points="36.926 16.568 36.477 17.003 36.039 16.47 36.577 16.188 36.926 16.568"/><polygon class="cls-2" points="37.392 14.805 36.878 15.026 36.478 14.704 36.963 14.331 37.392 14.805"/><polygon class="cls-2" points="35.847 13.601 35.49 14.164 35.286 13.539 35.637 12.959 35.847 13.601"/><polygon class="cls-2" points="18.047 31.361 16.377 32.801 14.618 34.194 13.251 35.943 12.213 37.535 11.168 39.123 10.177 40.545 10.676 38.996 11.596 37.349 12.454 35.667 13.765 34.084 14.927 32.386 16.605 30.956 13.969 31.507 12.136 32.663 10.521 34.03 9.109 35.588 8.087 37.432 7.614 39.477 7.541 41.563 7.858 43.568 10.226 43.119 12.669 42.657 14.764 41.373 16.616 39.86 18.134 38.041 19.06 35.842 18.903 33.464 18.047 31.361"/><polygon class="cls-2" points="5.198 24.171 6.848 23.459 9.526 22.936 12.277 23.127 14.422 23.591 16.473 24.144 15.214 22.393 13.405 21.029 11.257 20.204 8.945 20.159 6.463 20.675 4.004 21.473 2.029 23.088 0 24.657 1.859 26.231 3.98 27.36 6.185 28.404 8.612 28.851 11.082 28.94 13.537 28.668 15.252 27.591 16.29 26.042 14.246 25.33 12.043 24.759 9.778 24.448 7.495 24.346 5.198 24.171"/></svg>