<svg id="圖層_1" data-name="圖層 1" xmlns="http://www.w3.org/2000/svg" viewBox="0 0 56.746 43.56785"><defs><style>.cls-1{fill:#323232;}.cls-2{fill:#b49664;}</style></defs><title>d01</title><path class="cls-1" d="M56.11485,19.94663l-.80993-1.617L53.78674,17.3107l-2.67511-.8781L47.76,17.55811,48.80692,15.233l.31674-2.34631-.10993-2.14613-1.381-1.64822L46.08882,7.60863l-2.65253-.777-2.71757-.259L38.16809,7.551l-1.618,1.41221L36.66922,6.302l-.6726-2.5384L34.54617,1.797,32.26451.63137l-2.51-.506L27.424,0,25.3251,1.00138l-1.86759,1.382-1.14413,2.123L22.352,6.45065,22.81945,8.304l-1.51506-1.9375L19.1308,5.34179l-2.30067-.28886L14.626,5.76429,12.6316,6.90305l-1.62329,1.883L9.683,10.901l-.07975,2.561.92377,2.14492-1.94915-.54126-1.81008-.22735-2.33741.79306L2.18748,16.87079.92511,19.53447.0644,22.366.671,24.81966l1.37529,2.08811L3.55437,28.94l2.34476.49477,2.32545-.32635,2.33667-.14214,2.26731-.52909,2.46478-.63713,2.54411-.25494,2.47544-.6079,2.45351-.713,2.49248-.51454,2.14067-.3496,2.163-.09135,2.86367.0772,2.89053.01266,2.13368,1.0413,2.26574.50738,2.26321.51873,2.13937.90089,1.95818.73521,2.03248.50269,2.083.11346,1.97942.12358,1.83012-.668,1.53233-1.883,1.14732-2.23945-.19-2.539ZM23.49576,22.75841l-.69589-.48719-1.23473-1.35143-1.0306-1.51335-1.43578-1.7023-1.173-1.89326-.17164-1.74308,1.94691.00879L21.01432,15.754l.77037,2.09891.96848,1.68949.71145,1.81036Zm7.32249-8.40835-.327,2.24387-.01576,2.275-.33594,2.236-.96358.96451-.739-1.409-.35422-2.1978L28.07292,16.214l-.50253-2.18838.16568-1.95025,1.362-1.79856,1.795,1.65712Zm9.22864,1.955-1.1417,1.80625L37.636,19.92542l-1.47339,1.65223-1.33084.83062-.18782-1.2489.97076-2.16949,1.33267-1.98211,1.20351-2.13256,1.66088-.16038Z"/><polygon class="cls-2" points="22.241 30.326 24.34 32.191 26.739 33.106 28.461 33.553 30.241 33.441 32.209 31.799 34.378 30.693 35.24 29.166 34.125 32.648 31.754 34.936 31.206 35.608 33.959 36.776 37.234 36.59 39.311 35.149 41.308 33.495 41.611 33.438 41.74 34.189 40.218 36.581 38.97 38.41 40.741 38.771 42.571 39.52 45.117 39.877 47.393 39.045 49.474 37.553 50.401 37.049 49.768 38.87 48.245 41.279 46.284 42.762 43.087 43.568 40.718 42.332 39.143 40.755 37.582 39.422 35.56 40.297 32.97 40.046 30.206 37.44 29.613 36.28 27.625 36.28 25.082 38.987 22.58 40.297 19.714 40.199 19.19 38.928 17.507 41.251 15.598 43.023 12.021 43.074 9.459 41.803 7.822 38.539 7.221 36.911 8.295 37.829 11.022 39.314 13.904 39.892 17.002 39.358 18.093 37.848 16.941 35.843 15.873 33.774 15.927 33.487 18.26 35.645 20.127 37.102 22.254 37.516 24.173 36.777 26.071 35.69 23.895 34.308 22.241 30.326"/></svg>