<svg id="圖層_1" data-name="圖層 1" xmlns="http://www.w3.org/2000/svg" viewBox="0 0 56.746 43.56785"><defs><style>.cls-1{fill:#e66446;}.cls-2{fill:#b49664;}</style></defs><title>d01</title><polygon class="cls-1" points="15.841 29.979 18.525 28.874 21.304 28.178 24.057 28.138 26.679 28.694 27.787 27.261 29.515 26.543 31.314 27.3 32.569 28.81 35.206 28.184 37.921 27.976 39.851 28.496 41.772 28.552 42.923 26.801 43.392 24.694 43.331 22.569 43.018 20.426 41.702 18.215 39.834 16.445 37.586 15.202 35.106 14.585 32.63 14.055 30.111 13.738 27.562 13.589 25.002 13.769 22.491 14.288 20.045 15.042 17.819 16.295 15.643 17.698 14.094 19.789 13.279 22.253 13.195 25.042 13.974 27.743 15.841 29.979"/><path class="cls-2" d="M32.0266,31.01441l-.926-1.63929-1.26841-1.14887-1.66736.60655L27.16,30.35414l-2.50582-.32937-2.54375-.14346-2.57857.00733-2.35993.62944,2.36458.4175,2.3178.63237,2.24867.8689,1.94358,1.41.82786,2.0563-.69613,2.01014-2.04667.41118-2.66829-1.07371-2.97063-.26206-2.021,1.75929.04561,2.5624,3.43126-.25922,2.30067.15479,2.29241.24323,2.2841-.41224,2.00713-.60362,1.56515-1.3578,1.19012-1.753.65409-2.052,1.3909-1.88393,2.05722-1.25426,2.23688-.91813,2.347-1.07048-2.85482-.013-2.7031.23062ZM18.04142,39.84592l-.538-.60336.538-.61.326.61Z"/><path class="cls-2" d="M32.0266,31.01441l-.926-1.63929-1.26841-1.14887-1.66736.60655L27.16,30.35414l-2.50582-.32937-2.54375-.14346-2.57857.00733-2.35993.62944,2.36458.4175,2.3178.63237,2.24867.8689,1.94358,1.41.82786,2.0563-.69613,2.01014-2.04667.41118-2.66829-1.07371-2.97063-.26206-2.021,1.75929.04561,2.5624,3.43126-.25922,2.30067.15479,2.29241.24323,2.2841-.41224,2.00713-.60362,1.56515-1.3578,1.19012-1.753.65409-2.052,1.3909-1.88393,2.05722-1.25426,2.23688-.91813,2.347-1.07048-2.85482-.013-2.7031.23062ZM18.04142,39.84592l-.538-.60336.538-.61.326.61Z"/><polygon class="cls-1" points="19.431 14.036 17.833 11.799 15.562 10.427 13.075 9.57 10.444 9.523 7.917 9.512 5.489 10.284 3.456 11.808 1.728 13.662 0.79 16.011 0.387 18.467 0.296 20.855 1.103 23.099 1.983 25.327 3.876 26.797 5.998 27.81 8.276 28.383 10.611 28.751 12.959 28.776 12.173 26.664 11.89 24.398 12.216 22.16 12.611 19.921 13.737 17.918 15.396 16.331 17.196 14.915 19.431 14.036"/><polygon class="cls-1" points="37.684 13.997 39.21 11.904 41.324 10.304 43.881 9.614 46.499 9.39 49.088 9.403 51.54 10.265 53.677 11.722 55.368 13.653 56.777 15.832 57.249 18.4 56.947 20.942 56.138 23.343 55.095 25.662 53.112 27.239 50.951 28.554 48.468 29.198 45.903 29.185 43.439 28.75 44.191 26.691 44.363 24.442 44.686 22.196 43.925 20.064 42.978 18.037 41.573 16.248 39.559 15.186 37.684 13.997"/><polygon class="cls-1" points="35.422 1.086 32.737 1.061 30.192 1.937 28.341 3.744 26.475 1.886 23.841 1.153 21.103 0.935 19.062 1.801 16.995 2.591 15.314 4.048 13.957 5.801 12.944 7.729 15.244 8.541 17.294 9.901 19.185 11.466 20.714 13.31 22.322 12.965 24.162 12.522 22.062 10.055 21.73 10.501 20.962 9.643 21.605 8.914 22.476 9.519 22.408 9.722 24.597 12.421 25.638 12.383 24.757 10.39 23.635 8.565 23.403 8.638 22.781 7.995 23.29 7.193 24.107 7.886 24.087 8.274 25.35 10.144 26.083 12.291 26.802 12.291 26.292 9.922 25.548 7.555 24.921 6.957 25.491 5.98 26.166 6.853 25.977 7.509 26.782 9.851 27.302 12.276 28.033 12.278 28.137 9.765 28.116 7.244 27.497 6.626 28.144 5.697 29.064 6.497 28.311 7.24 28.649 9.768 28.447 12.28 29.09 12.3 29.333 9.767 30.56 7.488 29.981 6.975 30.796 6.064 31.656 6.838 30.91 7.512 30.721 7.552 29.833 9.868 29.399 12.356 30.206 12.305 31.287 10.281 32.591 8.394 32.46 7.999 33.014 7.141 33.716 7.895 33.127 8.584 32.782 8.581 31.558 10.387 30.78 12.427 31.801 12.558 32.751 11.008 34.165 9.926 34.011 9.648 34.712 8.861 35.602 9.517 34.824 10.29 34.401 10.299 32.307 12.615 34.177 13.003 36.066 13.711 37.678 11.849 39.363 10.123 41.337 8.746 43.396 7.684 42.552 5.698 41.25 3.885 39.669 2.345 37.633 1.444 35.422 1.086"/><polygon class="cls-1" points="35.422 1.086 32.737 1.061 30.192 1.937 28.341 3.744 26.475 1.886 23.841 1.153 21.103 0.935 19.062 1.801 16.995 2.591 15.314 4.048 13.957 5.801 12.944 7.729 15.244 8.541 17.294 9.901 19.185 11.466 20.714 13.31 22.322 12.965 24.162 12.522 22.062 10.055 21.73 10.501 20.962 9.643 21.605 8.914 22.476 9.519 22.408 9.722 24.597 12.421 25.638 12.383 24.757 10.39 23.635 8.565 23.403 8.638 22.781 7.995 23.29 7.193 24.107 7.886 24.087 8.274 25.35 10.144 26.083 12.291 26.802 12.291 26.292 9.922 25.548 7.555 24.921 6.957 25.491 5.98 26.166 6.853 25.977 7.509 26.782 9.851 27.302 12.276 28.033 12.278 28.137 9.765 28.116 7.244 27.497 6.626 28.144 5.697 29.064 6.497 28.311 7.24 28.649 9.768 28.447 12.28 29.09 12.3 29.333 9.767 30.56 7.488 29.981 6.975 30.796 6.064 31.656 6.838 30.91 7.512 30.721 7.552 29.833 9.868 29.399 12.356 30.206 12.305 31.287 10.281 32.591 8.394 32.46 7.999 33.014 7.141 33.716 7.895 33.127 8.584 32.782 8.581 31.558 10.387 30.78 12.427 31.801 12.558 32.751 11.008 34.165 9.926 34.011 9.648 34.712 8.861 35.602 9.517 34.824 10.29 34.401 10.299 32.307 12.615 34.177 13.003 36.066 13.711 37.678 11.849 39.363 10.123 41.337 8.746 43.396 7.684 42.552 5.698 41.25 3.885 39.669 2.345 37.633 1.444 35.422 1.086"/><polygon class="cls-2" points="15.553 39.815 15.604 40.576 15.666 41.004 13.867 41.471 12.357 41.567 13.774 40.414 15.553 39.815"/></svg>