<?xml version="1.0" encoding="utf-8"?>
<!-- Generator: Adobe Illustrator 22.0.0, SVG Export Plug-In . SVG Version: 6.00 Build 0)  -->
<svg version="1.1" id="Layer_1" xmlns="http://www.w3.org/2000/svg" xmlns:xlink="http://www.w3.org/1999/xlink" x="0px" y="0px"
	 viewBox="0 0 361 40.1" style="enable-background:new 0 0 361 40.1;" xml:space="preserve">
<style type="text/css">
	.st0{fill:#FFFFFF;}
</style>
<g>
	<path class="st0" d="M54.3,7.5c-2,0-3.6-0.3-4.5-2.3c-0.1-0.1-0.1-0.2-0.1-0.3c0-0.4,0.3-0.6,0.6-0.6c0.2,0,0.5,0.1,0.6,0.4
		c0.6,0.9,1.8,1.2,3.4,1.2c0.9,0,2.2-0.2,3.4-0.4c-0.8-1.5-1.6-2.5-2-2.9c-0.7-0.6-1-0.8-1.8-0.9c-0.4-0.1-0.7-0.3-0.7-0.6
		c0-0.3,0.2-0.6,0.7-0.6c0.3,0,0.4,0,0.5,0c1,0,1.8,0.2,2.3,0.6c0.6,0.4,1,1.4,1.8,2.8c0.2,0.4,0.5,0.9,0.7,1.3
		c0.6-0.1,1.5-0.4,2.1-0.6c0.3-0.1,0.5-0.2,0.7-0.2c0.5,0,0.9,0.4,0.9,0.9c0,0.4-0.2,0.7-0.6,0.8c-0.7,0.2-1.5,0.5-2.3,0.7
		c0.5,1,1.1,2.1,1.6,3.2c0.7-0.3,1.3-0.5,1.8-0.7C63.6,9.1,63.8,9,63.9,9c0.5,0,0.8,0.4,0.8,0.9c0,0.3-0.1,0.5-0.4,0.7
		c-0.5,0.3-1.1,0.6-1.9,0.9c0.4,0.9,0.9,1.9,1.3,2.8c0.5,1.1,0.7,1.9,0.7,2.6c0,0.7-0.5,1.3-1.4,1.3c-0.7,0-2-0.5-3.2-0.8
		c-1.5-0.5-3.2-0.7-4.9-0.7c-1.2,0-2.7,0.3-2.7,1.8c0,2,3.3,2.6,6.4,2.8c1.4,0.1,1.9,0.4,2,1.2c0,0.7-0.5,1.1-1.3,1.1
		c-0.5,0-1,0-1.4-0.1c-3.9-0.4-7.3-2.1-7.3-4.8c0-2.1,2.1-3.3,4.4-3.3c2.4,0,4.7,0.3,7.3,0.7c-0.4-1.4-0.9-2.7-1.5-4
		c-1.5,0.3-3.2,0.6-4.9,0.6c-2.6,0-3.4-1-3.4-2.1c0-1,0.8-2.1,2.2-3C54.6,7.5,54.4,7.5,54.3,7.5z M54.2,10c0,0.7,0.4,0.9,2.5,0.9
		c1.2,0,2.4-0.2,3.6-0.6c-0.5-1.1-1-2.2-1.6-3.3c-0.5,0.1-0.9,0.1-1.4,0.2C54.7,8.5,54.2,9.5,54.2,10z"/>
	<path class="st0" d="M79.2,7.2c0.7,0.1,1.1,0.5,1.1,1c0,0.5-0.4,0.9-1,0.9c-0.1,0-0.4,0-0.7-0.1c-0.2,0.9-0.4,1.7-0.7,2.9
		c-0.2,0.8-0.4,1.7-0.5,2.4c0.7,0.1,1.4,0.1,2.3,0.1c0.6,0,0.9,0.4,0.9,0.9c0,0.6-0.4,1-1,1c-0.8,0-1.8-0.1-2.5-0.2
		C77,17,77,17.7,77,18.3c0,1.7,1.2,3,3.5,3c2.3,0,3.7-1.5,3.7-3.9c0-2-0.9-3.6-3-5.7c-0.2-0.2-0.3-0.4-0.3-0.6
		c0-0.3,0.3-0.5,0.6-0.5c0.1,0,0.3,0.1,0.5,0.2c2.7,1.8,4.3,4.3,4.3,7.2c0,3.1-2.3,5.2-5.6,5.2c-3.3,0-5.3-1.9-5.3-5.1
		c0-0.7,0.1-1.5,0.2-2.3C73.3,15.2,72,14,72,12.3c0-1.3,1-2.8,3.3-4c-2.3-0.7-4.1-1.7-5.2-3.1c-0.2-0.2-0.3-0.4-0.3-0.6
		c0-0.4,0.3-0.6,0.6-0.6c0.2,0,0.4,0.1,0.5,0.2c1.6,1.5,4.1,2.4,6.5,2.8c0.3-1.5,0.4-2.5,0.4-3c0-1.1-0.6-1.8-1.8-2.7
		c-0.2-0.1-0.3-0.3-0.3-0.5c0-0.3,0.3-0.6,0.7-0.6c0.1,0,0.2,0,0.3,0c2.1,0.7,3.3,1.7,3.3,3.5c0,0.5-0.3,1.6-0.8,3.6L79.2,7.2z
		 M76.9,8.7c-2.5,1.1-3.5,2.4-3.5,3.4c0,0.9,0.9,1.6,2.5,2c0.3-1.8,0.7-3.7,1.1-5.4L76.9,8.7z"/>
	<path class="st0" d="M106.3,7c0,1.2-0.6,2.5-1.1,3.6c-1.2,2.6-3.5,6.3-5.9,8.8c-0.5,0.5-1.1,0.9-1.8,0.9c-0.5,0-1-0.5-1-1.1
		c0-0.2,0-0.3,0.1-0.5c-0.5-0.9-1.1-2-1.7-2.9c-0.7-1.3-1.5-3.3-1.5-4.8c0-4.4,3.4-7.3,9-7.3c5.7,0,10.9,4.4,10.9,11.4
		c0,1.7-0.5,3.5-1.3,4.7c-0.9,1.1-1.7,1.3-2.3,1.3c-0.7,0-1.6-0.3-2.3-0.7c-0.3-0.2-0.5-0.4-0.5-0.8c0-0.4,0.3-0.7,0.8-0.7
		c0.1,0,0.2,0,0.4,0c0.2,0,0.5,0.1,0.8,0.1c0.6,0,1-0.2,1.4-0.5c0.8-0.7,1.3-2.4,1.3-4c0-3.6-2.1-6.8-5.3-8.3
		C106.3,6.4,106.3,6.7,106.3,7z M102.2,5.2C98,5.2,95,7.6,95,10.5c0,1.9,1.3,4.5,3.4,6.6c2.1-2.1,4-5,5.3-7.6
		c0.5-0.9,1.1-2.1,1.1-3.1c0-0.3,0-0.7-0.1-1C103.9,5.3,103.1,5.2,102.2,5.2z"/>
	<path class="st0" d="M120.7,7.1c-0.4-0.2-0.5-0.4-0.5-0.7c0-0.3,0.3-0.7,0.8-0.7c0.2,0,0.4,0,0.6,0.1c2.5,0.6,3.1,1.3,3.1,2.7
		c0,0.9-0.1,2.5-0.1,3.8c-0.1,1.4-0.1,3.1-0.1,4.3c4.2-1.8,8.5-4.8,12.3-8.8c0.2-0.2,0.4-0.3,0.6-0.3c0.4,0,0.7,0.3,0.7,0.7
		c0,0.2-0.1,0.4-0.2,0.5c-3.5,4.2-7.6,7.3-12.1,9.6c-1.1,0.6-1.9,0.9-2.5,0.9c-0.7,0-1.2-0.5-1.2-1.2c0-0.4,0.2-0.8,0.7-1.1
		c0-2,0-5.1,0-7.7C122.5,8.2,122.3,7.7,120.7,7.1z"/>
	<path class="st0" d="M144.5,7.1c0-0.4,0.3-0.7,0.8-0.7c0.2,0,0.4,0,0.7,0.1c1.6,0.3,3.4,1.1,4.8,2.1c0.5,0.3,0.6,0.8,0.6,1.2
		c0,0.6-0.5,1.1-1.1,1.1c-0.4,0-0.6-0.1-1.3-0.7c-1.2-1.1-2.7-2-4-2.5C144.6,7.6,144.5,7.4,144.5,7.1z M147.1,17.1
		c0.5,0,1.8-0.4,3.4-1.1c3.6-1.6,8.4-4.8,13.2-9.5c0.1-0.1,0.3-0.2,0.4-0.2c0.3,0,0.7,0.3,0.7,0.7c0,0.1-0.1,0.3-0.2,0.5
		c-4,4.8-10,8.8-13.9,10.8c-1.4,0.7-2.6,1.2-3.4,1.2c-0.8,0-1.7-0.4-1.7-1.5c0-0.4,0.2-0.9,0.5-1.1C146.4,17,146.7,17.1,147.1,17.1z
		"/>
	<path class="st0" d="M182.3,6c-1.5,0.3-2.9,0.7-3.6,0.8c-0.7,0.2-1,0.3-1.5,0.3c-0.3,0-0.6-0.1-1-0.4c-1.5,2.7-3.2,4.8-5.5,6.7
		c-0.2,0.1-0.3,0.2-0.5,0.2c-0.3,0-0.6-0.3-0.6-0.6c0-0.1,0.1-0.3,0.2-0.5c2.3-2.5,3.5-4.3,4.3-5.7c0.5-1,0.7-1.7,0.7-2.1
		c0-0.3-0.3-0.7-1.2-1.4c-0.3-0.2-0.3-0.4-0.3-0.5c0-0.3,0.3-0.6,0.7-0.6c0.1,0,0.2,0,0.3,0.1c1.5,0.5,2.9,1.3,2.9,2.3
		c0,0.2-0.1,0.5-0.2,0.9c0.2,0,0.3,0.1,0.5,0.1c0.3,0,0.9-0.1,1.8-0.2c1-0.2,2.2-0.4,3.4-0.6c0.3-0.5,0.7-0.7,1.2-0.7
		c0.7,0,1.2,0.6,1.2,1.3c0,0.8-0.6,2-1.2,3.1c-0.8,1.5-1.7,2.9-2.7,4.2c0.6,0.5,1.1,1.1,1.5,1.6c0.3,0.4,0.4,0.7,0.4,1
		c0,0.6-0.4,1.1-0.9,1.1c-0.4,0-0.7-0.1-1.3-0.8c-0.3-0.5-0.7-0.9-1-1.2c-2.8,3.4-6.2,6-10.8,8.3c-0.1,0.1-0.3,0.1-0.4,0.1
		c-0.4,0-0.7-0.3-0.7-0.6c0-0.2,0.1-0.5,0.4-0.6c3.7-2.2,7.4-5.1,10.2-8.6c-0.9-0.8-1.7-1.5-2.7-2.2c-0.3-0.2-0.4-0.4-0.4-0.6
		c0-0.3,0.3-0.6,0.6-0.6c0.1,0,0.2,0,0.3,0.1c1,0.4,2.2,1.1,3.3,1.9C180.6,9.7,181.6,7.9,182.3,6z"/>
	<path class="st0" d="M195.6,9c-0.3-0.1-0.4-0.4-0.4-0.6c0-0.3,0.2-0.6,0.7-0.6c0.2,0,0.4,0,0.6,0.1c1.5,0.4,2.4,1,2.4,1.6
		c0,0.5-0.2,1.5-0.5,2.4c-1.4,3.8-4.2,7-8,9.3c-0.1,0.1-0.3,0.1-0.4,0.1c-0.3,0-0.6-0.2-0.6-0.6c0-0.2,0.1-0.4,0.3-0.6
		c3.3-2.4,5.8-5.6,6.7-8.6c0.2-0.7,0.3-1.1,0.3-1.5C196.7,9.7,196.4,9.4,195.6,9z M201.4,10.7c0-1.3,0-2.1-0.1-2.6
		c-0.1-0.5-0.3-0.9-1.3-1.4c-0.3-0.1-0.4-0.4-0.4-0.6c0-0.3,0.3-0.7,0.7-0.7c0.1,0,0.3,0,0.4,0.1c2.3,0.7,2.7,1.3,2.7,2.5
		c0,0.2,0,0.4,0,0.9c-0.1,1.6-0.2,3.2-0.3,4.8c3.1-1.4,5.7-3.3,9-6.6c0.2-0.1,0.3-0.2,0.5-0.2c0.4,0,0.7,0.3,0.7,0.7
		c0,0.1-0.1,0.3-0.2,0.5c-2.4,3-5.6,5.6-9.1,7.5c-1,0.5-1.7,0.8-2.1,0.8c-0.7,0-1.2-0.5-1.2-1.1c0-0.5,0.2-0.9,0.6-1.2
		C201.4,12.8,201.4,11.6,201.4,10.7z"/>
	<path class="st0" d="M53.5,38.1c0,0.5-0.2,0.7-0.5,0.7c-0.4,0-0.6-0.2-0.6-0.7v-8.4c0-0.5,0.2-0.7,0.6-0.7c0.4,0,0.5,0.2,0.5,0.7
		v3.6l4.3-4.2c0.2-0.2,0.3-0.2,0.4-0.2c0.3,0,0.5,0.2,0.5,0.5c0,0.1,0,0.3-0.2,0.4l-4,3.7c0.9,1.2,1.8,2.3,2.8,3.4
		c0.7,0.8,0.9,1,1.3,1c0.2,0,0.4,0,0.5,0c0.2,0,0.3,0.1,0.3,0.5c0,0.2-0.1,0.3-0.2,0.3c-0.3,0.1-0.6,0.1-0.9,0.1
		c-0.6,0-1.2-0.4-1.9-1.3c-1-1.2-2-2.5-3-3.7V38.1z"/>
	<path class="st0" d="M66.6,38.1c0,0.5-0.2,0.7-0.6,0.7c-0.4,0-0.6-0.2-0.6-0.7v-8.4c0-0.5,0.2-0.7,0.6-0.7c0.4,0,0.6,0.2,0.6,0.7
		V38.1z"/>
	<path class="st0" d="M74,29.8c0-0.5,0.3-0.8,0.8-0.8c0.4,0,0.7,0.2,1,0.7l3.3,5.6l3.5-5.6c0.3-0.5,0.5-0.7,1-0.7
		c0.5,0,0.7,0.3,0.7,0.8v8.4c0,0.5-0.2,0.7-0.5,0.7c-0.4,0-0.5-0.2-0.5-0.7v-5.4c0-0.8,0-1.8,0-2.7c-0.5,0.9-0.9,1.7-1.4,2.4
		l-2.3,3.6c-0.2,0.3-0.3,0.4-0.5,0.4c-0.2,0-0.3-0.1-0.5-0.4l-2.1-3.7c-0.4-0.7-0.8-1.5-1.3-2.4c0,1.1,0.1,1.8,0.1,2.7v5.4
		c0,0.5-0.1,0.7-0.5,0.7c-0.4,0-0.5-0.2-0.5-0.7V29.8z"/>
	<path class="st0" d="M99.7,33.8c0,2.8-1.8,5.1-4.6,5.1c-2.8,0-4.6-2.3-4.6-5c0-2.8,2.1-4.9,4.7-4.9C97.7,29,99.7,31.1,99.7,33.8z
		 M91.7,33.9c0,2.1,1.1,4.1,3.4,4.1c2.3,0,3.4-1.9,3.4-4.1c0-2.4-1.3-4.1-3.4-4.1C92.8,29.9,91.7,31.9,91.7,33.9z"/>
	<path class="st0" d="M106,29.6c0-0.3,0.2-0.5,0.5-0.5c0.3,0,0.6,0.1,0.8,0.4l3.8,5.9c0.4,0.6,0.8,1.3,1.2,1.9
		c0-0.6-0.1-1.6-0.1-2.2v-5.2c0-0.5,0.2-0.7,0.5-0.7c0.4,0,0.5,0.2,0.5,0.7v8.6c0,0.4-0.2,0.6-0.5,0.6c-0.3,0-0.5-0.1-0.7-0.4
		l-3.8-5.9c-0.4-0.6-0.8-1.3-1.2-2c0,0.7,0,1.6,0,2.3v5.3c0,0.5-0.2,0.7-0.5,0.7c-0.4,0-0.5-0.2-0.5-0.7V29.6z"/>
	<path class="st0" d="M128.7,33.8c0,2.8-1.8,5.1-4.6,5.1c-2.8,0-4.6-2.3-4.6-5c0-2.8,2.1-4.9,4.7-4.9
		C126.7,29,128.7,31.1,128.7,33.8z M120.7,33.9c0,2.1,1.1,4.1,3.4,4.1c2.3,0,3.4-1.9,3.4-4.1c0-2.4-1.3-4.1-3.4-4.1
		C121.8,29.9,120.7,31.9,120.7,33.9z"/>
	<path class="st0" d="M142.4,38.1c0,0.5-0.2,0.7-0.5,0.7c-0.4,0-0.6-0.2-0.6-0.7v-8.2c0-0.5,0.2-0.8,0.8-0.8h1.5
		c1.2,0,1.9,0.1,2.5,0.6c0.6,0.5,0.8,1.2,0.8,1.9c0,1.3-0.8,2.3-2.1,2.6c0.5,1,1,1.9,1.6,2.8c0.4,0.8,0.7,1,1.1,1
		c0.2,0,0.3-0.1,0.5-0.1c0.2,0,0.3,0.2,0.3,0.5c0,0.2-0.1,0.3-0.2,0.3c-0.3,0.1-0.6,0.1-0.9,0.1c-0.7,0-1.1-0.3-1.6-1.2
		c-0.6-1.1-1.2-2.1-1.7-3.2h-1.3V38.1z M143.4,33.6c1.6,0,2.4-0.7,2.4-1.9c0-0.5-0.2-1-0.6-1.4c-0.4-0.3-0.8-0.4-1.7-0.4h-1.1v3.6
		H143.4z"/>
	<path class="st0" d="M155.3,30v3.3h3.3c0.4,0,0.6,0.1,0.6,0.4c0,0.3-0.2,0.4-0.6,0.4h-3.3v3.8h4c0.3,0,0.6,0.1,0.6,0.4
		c0,0.3-0.2,0.4-0.6,0.4H155c-0.5,0-0.8-0.2-0.8-0.8v-8.1c0-0.5,0.2-0.8,0.8-0.8h3.8c0.4,0,0.6,0.1,0.6,0.4c0,0.3-0.2,0.4-0.6,0.4
		H155.3z"/>
	<path class="st0" d="M166.3,29.6c0-0.3,0.2-0.5,0.5-0.5c0.3,0,0.6,0.1,0.8,0.4l3.8,5.9c0.4,0.6,0.8,1.3,1.2,1.9c0-0.6,0-1.6,0-2.2
		v-5.2c0-0.5,0.2-0.7,0.5-0.7c0.4,0,0.5,0.2,0.5,0.7v8.6c0,0.4-0.2,0.6-0.5,0.6c-0.3,0-0.5-0.1-0.7-0.4l-3.8-5.9
		c-0.4-0.6-0.8-1.3-1.2-2c0,0.7,0.1,1.6,0.1,2.3v5.3c0,0.5-0.2,0.7-0.5,0.7c-0.3,0-0.5-0.2-0.5-0.7V29.6z"/>
	<path class="st0" d="M180.4,30c-0.4,0-0.6-0.1-0.6-0.4c0-0.3,0.2-0.4,0.6-0.4h5.9c0.4,0,0.6,0.1,0.6,0.4c0,0.3-0.2,0.4-0.6,0.4
		h-2.4v8.1c0,0.5-0.2,0.7-0.6,0.7c-0.4,0-0.6-0.2-0.6-0.7V30H180.4z"/>
	<path class="st0" d="M194.1,35.7l-0.9,2.6c-0.1,0.4-0.3,0.5-0.5,0.5c-0.3,0-0.5-0.2-0.5-0.4c0-0.1,0-0.2,0.1-0.4l3.2-8.5
		c0.2-0.4,0.4-0.5,0.7-0.5s0.5,0.2,0.7,0.5l3,8.4c0.1,0.1,0.1,0.3,0.1,0.4c0,0.3-0.2,0.5-0.6,0.5c-0.3,0-0.4-0.2-0.6-0.6l-0.9-2.5
		H194.1z M196.1,30.2l-1.7,4.7h3.2L196.1,30.2z"/>
	<path class="st0" d="M207.2,38.8c-0.5,0-0.8-0.2-0.8-0.8v-8.2c0-0.5,0.2-0.7,0.6-0.7c0.4,0,0.6,0.2,0.6,0.7v8.1h3.9
		c0.3,0,0.6,0.1,0.6,0.4c0,0.3-0.2,0.4-0.6,0.4H207.2z"/>
	<g>
		<path class="st0" d="M231.4,25c-0.5,1.2-1.2,1.7-2.2,1.7c-1.1,0-1.7-0.5-2.1-1.7l-6.9-20.2c-0.2-0.5-0.4-1-0.4-1.5
			c0-1,1-1.6,2-1.6c1,0,1.5,0.5,1.9,1.8l5.8,18.5l6.7-16.4c0.5-1.2,1.2-1.7,2.2-1.7c0.9,0,1.7,0.5,2.2,1.7l6.4,16.3l6.2-18.8
			c0.4-1,0.8-1.5,1.6-1.5c1,0,1.8,0.6,1.8,1.3c0,0.4-0.2,0.8-0.4,1.3L249.1,25c-0.4,1.2-1.1,1.7-2.1,1.7c-1.1,0-1.8-0.5-2.2-1.7
			l-6.5-16.4L231.4,25z"/>
		<path class="st0" d="M282.6,25.3c0,1-0.4,1.5-2,1.5c-0.9,0-1.5-0.5-1.8-1.4c-0.2-0.7-0.4-1.4-0.5-2.8c-2.3,3.6-4.6,4.6-8.2,4.6
			c-3.7,0-6.8-2.8-6.8-7.3c0-3.9,2.3-6.5,9.8-9c1.4-0.5,3.1-0.9,5-1.4c-0.1-3.4-1.9-5.2-5.8-5.2c-1.4,0-3,0.6-4.7,1.7
			c-0.4,0.3-0.7,0.4-1,0.4c-0.8,0-1.4-0.8-1.4-1.5c0-0.6,0.1-0.8,0.8-1.3c1.9-1.3,4.4-2.2,7.2-2.2c5.5,0,8.7,2.9,8.7,7.3v9.9
			c0,3.6,0.3,4.8,0.7,6.4V25.3z M273.9,13.4c-4.9,1.7-6.7,3.6-6.7,6.3c0,3.1,1.7,4.6,4.2,4.6c3,0,5.2-2.1,6.1-4.7
			c0.7-1.8,0.8-3.5,0.8-7.4C276.6,12.5,275,12.9,273.9,13.4z"/>
		<path class="st0" d="M291.6,4.1c0-1.4,0.6-2.4,1.9-2.4c1.4,0,1.9,1,1.9,2.4v2.1c1.6-3.3,3.9-4.8,6-4.8c1,0,2,0.3,2.7,0.8
			c0.7,0.5,0.8,1,0.8,1.6c0,1.3-0.8,2.4-2,2.4c-0.9,0-1.7-0.9-2.7-0.9c-1.8,0-3.2,1.4-3.9,3.3c-0.5,1.4-0.9,3.4-0.9,6.6v9.2
			c0,1.5-0.6,2.4-1.9,2.4c-1.4,0-1.9-1-1.9-2.4V4.1z"/>
		<path class="st0" d="M324,23.2c5.3,0,8,2.6,8,6.6c0,5.3-4.5,9.2-13.1,9.2c-6,0-9.6-3.2-9.6-6.7c0-2.8,1.6-4.8,4.1-6.3
			c-1.7-0.7-2.7-1.9-2.7-3.7c0-1.9,1.2-3.7,3.4-5.4c-2.3-1.6-3.7-3.9-3.7-6.5c0-5.6,4.1-9,9.6-9c1.9,0,3.7,0.6,5.2,1.5
			c1.2-1.7,3-2.8,5.8-2.8c1.3,0,2,0.8,2,1.9c0,1.1-0.9,1.8-2,1.8c-2.3,0-3.2,0.3-3.8,1c1.1,1.2,1.8,3,1.8,4.9c0,5.4-3.9,8.8-9.6,8.8
			c-1,0-2-0.3-3-0.5c-1.9,1.5-2.4,2.6-2.4,3.5c0,1.1,0.8,1.7,2.6,1.7H324z M316.6,26.6c-2.9,1.5-3.9,2.9-3.9,5
			c0,2.8,2.3,4.6,6.7,4.6c5.9,0,9.1-2.6,9.1-5.7c0-2.3-1.2-3.9-4.8-3.9H316.6z M320,4.2c-3.2,0-5.9,2.2-5.9,5.7
			c0,3.8,2.7,5.9,5.7,5.9c3.4,0,5.7-2.6,5.7-5.8C325.5,6.6,323.1,4.2,320,4.2z"/>
		<path class="st0" d="M360,14.1c0,7.6-4.9,13.1-11.3,13.1c-6.4,0-11.4-5.4-11.4-13c0-7.6,5.1-12.8,11.5-12.8
			C355.2,1.4,360,6.5,360,14.1z M341.4,14.2c0,6,3,10.2,7.2,10.2c4.2,0,7.2-4.3,7.2-10.3c0-6-2.8-9.9-7.1-9.9
			C344.5,4.1,341.4,8.2,341.4,14.2z"/>
	</g>
	<g>
		<g>
			<path class="st0" d="M2.5,19.8c0,0.2,0,0.3,0.1,0.5L12.3,37c0.2,0.3,0.4,0.4,0.8,0.4h19.3c0.1,0,0.2,0,0.3-0.1c0,0,0,0,0.1,0
				c0.2-0.1,0.3-0.2,0.4-0.3l9.7-16.7c0.1-0.1,0.1-0.3,0.1-0.5c0-0.2,0-0.3-0.1-0.5L33.1,2.6c-0.1-0.2-0.2-0.3-0.4-0.3
				c0,0,0,0-0.1,0c-0.1,0-0.2-0.1-0.3-0.1H13c-0.1,0-0.2,0-0.3,0.1c0,0,0,0-0.1,0c-0.2,0.1-0.3,0.2-0.4,0.3L2.6,19.3
				C2.5,19.4,2.5,19.6,2.5,19.8z M14.9,22.3h16.6v3.4l-3.6,4.8L24,25.2c-0.2-0.2-0.4-0.4-0.7-0.4c-0.3,0-0.5,0.1-0.7,0.4l-3.9,5.3
				l-3.8-5.1V22.3z M21.2,20.5h-5l16-16L34,7.7L21.2,20.5z M30.1,3.9l-7.5,7.5l-7.5-7.5H30.1z M18.9,15.2l-7.5-7.6l1.8-3.2l8.2,8.2
				L18.9,15.2z M10.5,9.3l7.1,7.2l-4.2,4.2c0,0,0,0,0,0c-0.2,0.2-0.3,0.4-0.3,0.6v0.1v13.4L4.4,19.8L10.5,9.3z M14.9,35.6l0-7.2
				l3.1,4.2c0.2,0.2,0.4,0.4,0.7,0.4c0.3,0,0.5-0.1,0.7-0.4l3.9-5.3l3.9,5.3c0.2,0.2,0.4,0.4,0.7,0.4c0.3,0,0.5-0.1,0.7-0.4l2.9-3.9
				v6.9H14.9z M33,20.7c-0.2-0.2-0.4-0.3-0.6-0.3h-8.6L34.9,9.3L41,19.8l-7.7,13.4V21.4v-0.1C33.2,21.1,33.1,20.9,33,20.7z"/>
		</g>
		<g>
			<path class="st0" d="M45.3,19.5L34.2,0.3C34.1,0.1,33.9,0,33.8,0H11.6c-0.2,0-0.4,0.1-0.5,0.3L0.1,19.5C0,19.6,0,19.7,0,19.8
				c0,0.1,0,0.2,0.1,0.3l11.1,19.2c0.1,0.2,0.3,0.3,0.5,0.3h22.2c0.2,0,0.4-0.1,0.4-0.3l11.1-19.2c0.1-0.1,0.1-0.2,0.1-0.3
				C45.4,19.7,45.4,19.6,45.3,19.5z M44.2,19.8L33.5,38.4H11.9L1.1,19.8L11.9,1.1h21.6L44.2,19.8z"/>
		</g>
	</g>
</g>
</svg>
