<svg id="編排稿" xmlns="http://www.w3.org/2000/svg" viewBox="0 0 24.86 24.86"><defs><style>.cls-1{fill:#7a7a7a;}.cls-2{fill:#fff;fill-rule:evenodd;}</style></defs><title>kyotokimono REMAKE-RWD</title><path class="cls-1" d="M24.84,12.42A12.42,12.42,0,1,1,12.41,0,12.43,12.43,0,0,1,24.84,12.42Z"/><path class="cls-2" d="M19.91,10.55A7.6,7.6,0,0,0,12.5,4.68,10.18,10.18,0,0,0,11,4.83,7.59,7.59,0,0,0,5.84,15.9a.57.57,0,0,1,.07.38c-.36,1.16-.68,2.36-1,3.53,0,.21,0,.21.14.15,1.24-.33,2.46-.64,3.69-.95A.32.32,0,0,1,9,19a7.61,7.61,0,0,0,10.9-8.48Zm-6.34,8a3,3,0,0,1-.88.07,6.49,6.49,0,0,1-3.43-.88.43.43,0,0,0-.39-.06l-2,.53c-.14,0-.15,0-.12-.13.18-.62.35-1.26.55-1.91a.5.5,0,0,0-.08-.46A6.27,6.27,0,0,1,7.4,8.59a6,6,0,0,1,6.43-2.47,6,6,0,0,1,4.83,4.79A6.27,6.27,0,0,1,13.57,18.51Z"/><path class="cls-2" d="M14.49,15.9a1.91,1.91,0,0,1-.79-.1,7.72,7.72,0,0,1-4.12-3A4.35,4.35,0,0,1,8.7,11a2.09,2.09,0,0,1,.69-2,1.2,1.2,0,0,1,1-.15,1.12,1.12,0,0,1,.17.21c.21.54.44,1,.66,1.55a.4.4,0,0,1,0,.32,2.87,2.87,0,0,1-.47.63.29.29,0,0,0,0,.42,5.14,5.14,0,0,0,2.59,2.23.29.29,0,0,0,.39-.09c.2-.23.39-.47.57-.71a.32.32,0,0,1,.42-.11l1.1.51.25.12c.38.19.38.21.34.61A1.6,1.6,0,0,1,15,15.89,1.21,1.21,0,0,1,14.49,15.9Z"/></svg>