<svg id="圖層_1" data-name="圖層 1" xmlns="http://www.w3.org/2000/svg" viewBox="0 0 542.9682 491.86689"><defs><style>.cls-1{opacity:0.5;}.cls-2{fill:#1e1e1e;}</style></defs><g class="cls-1"><path class="cls-2" d="M542.74647,491.64777l-1.21338.48953-1.43523-.474-1.43535.12354-1.43547.45186-1.43561-.754-1.43574.29417-1.43589.56907-1.436-.90057-1.43618.64092-1.43635-.604-1.4365.79431-1.43667-.51424-1.43685-.15662-1.437.23881-1.4372.04306-1.4374-.23362-1.4376.00424-1.43779.15784-1.438-.02881-1.43821-.04678-1.43843.51417-1.43864-.2912-1.43888-.22313-1.43911.37511-1.43935-.55745-1.4396.7651-1.43984.04181-1.4401-.36964-1.44036-.37486-1.44033.29435-1.44011-.34132-1.43988-.09333-1.43966.77465-1.43945-.30961-1.43924.21925-1.43905-.457-1.43885-.01-1.43867.5342-1.43849-.76165-1.43831.70891-1.43814.0394-1.438-.34015-1.43782-.41078L479.7,491.545l-1.43753.79107-1.43739-.59978-1.43726.52431-1.43714-.64449-1.437.168-1.43691-.1127-1.43681.65706-1.43671-.41859-1.43662.0011-1.43653.2819-1.43645-.7199-1.43639.00592-1.43632.15543-1.43626-.19132-1.43621.39409-1.43617.49067-1.43613-.69469-1.43611.47041-1.43608-.1781-1.43606.2641-1.43606-.26737-1.43606.31666-1.43606-.215-1.43608-.07908-1.4361-.47667-1.43613.14317-1.43616.31464-1.43621-.4615-1.43625.53813-1.43632-.50532-1.43638-.12543-1.43646.78616-1.43654-.46929-1.43663-.15164-1.43673.56947-1.43683-.09906-1.43694-.20988-1.43707-.14847-1.4372.3144-1.43733-.594-1.43748.68117-1.43763-.511-1.4378.34028-1.438.44624-1.43815-.5417L413.611,491.84l-1.43853.41-1.43873-.38459-1.43895-.27174-1.43916-.19245-1.4394.12082-1.43964.15159-1.43988-.06436-1.44015.16944-1.44041-.3325-1.44068.37363-1.441.24739-1.44117-.6299-1.4409.44145-1.44066.23578-1.44042.21033-1.44019-.6161-1.44-.1594-1.43976-.12613-1.43955.55754-1.43937.051-1.43918-.33417-1.439.01886-1.43885.53767-1.43869-.7473-1.43856.47749-1.43842.15265-1.4383.14326-1.43819.01678-1.43809-.71169-1.438.28107-1.43792-.38807-1.43785.42674-1.43779-.03247-1.43774.199-1.43771-.4235-1.43769.21122-1.43767-.26973-1.43767.12275-1.43767.23819-1.4377-.11166-1.43772.08841-1.43777-.43574-1.43783-.06153-1.43789.33909-1.438-.3628-1.43806.32325-1.43816.50429-1.43827-.31413-1.4384.05283-1.43854-.52925-1.43869.7416-1.43886-.64928-1.439.6758-1.43922-.79956-1.43942.45262-1.43964.168-1.43986.05542-1.44011-.57821-1.44036.35121-1.44063.42671-1.44091-.16968-1.4412-.02957-1.44152.252-1.44165-.28208-1.44137-.68045-1.4411.3109-1.44085-.09235-1.44061.46162-1.44038.2-1.44018-.39363-1.44-.13028-1.4398-.012-1.43963.64446-1.43948-.96917-1.43934.748-1.43923.049-1.43912-.70437-1.439.19825-1.439.24317-1.4389-.36595-1.43887.45168-1.43884-.4164-1.43883.328-1.43884-.03446-1.43887-.16346-1.43892-.188-1.439-.04813-1.43906.54955-1.43915-.66762-1.43926.68917-1.4394-.35609-1.43954.15521-1.43972.04734-1.4399-.15076-1.4401.38929-1.44033-.39988-1.44057.09408-1.44084-.1048-1.44112.1544-1.44141.214-1.44174-.54515-1.44208-.09384-1.44186.43476-1.44156-.14182-1.44129.30723-1.441.18656-1.4408-.79769-1.4406.37407-1.4404.18527-1.44024.13328-1.44009-.37471-1.44.3368-1.43987-.64748-1.4398.09428-1.43974-.06309-1.43971-.01187-1.43971.76049-1.43972.0947-1.43977-.17249-1.43983-.7756-1.43992.96768-1.44-.69478-1.44019-.26481-1.44035.514-1.44054.3954-1.44076-.87261-1.441.40958-1.44129-.38077-1.44158.29392-1.44192-.22855-1.44227.12424-1.44222-.00132-1.44189-.20532-1.44161.20081-1.44135-.08722-1.44112.76342-1.44091-.57659-1.44075.31944-1.44061.20285-1.4405.06315-1.44043-.55047-1.44038.27586-1.44037.22388-1.4404-.22251-1.44045-.55415-1.44055.75964-1.44067-.4366-1.44083.38624-1.441-.56517-1.44126.16474-1.44154.24656-1.44183-.10514-1.44219-.0047-1.44256-.50438-1.44237.714-1.442-.31062-1.44175-.29441-1.4415-.11-1.44129.07352-1.44113.19611-1.441.29713-1.43628-.36619-1.43671-.00009-1.4372.221-1.43773-.10581-1.4383.544-1.43892-.34172-1.43958-.15665-1.44031-.28519-1.44107.59254-1.44189.02588-1.44275-.25971-1.44253-.39287-1.44181.64843-1.44114-.01285-1.44053-.18546-1.44-.20288-1.43946.21143-1.439-.42238-1.43864.00266-1.43831.222-1.438.0133-1.43784-.24909-1.43771.138-1.43763-.17542-1.43762.361-1.43768.0441-1.43781-.25694-1.438.18394-1.43827.09689-1.43861-.4831-1.439.62672-1.43951-.14349-1.44009.05179-1.44073.339-1.44145-.839-1.44227.80325-1.44315-.13547-1.44405-.59927-1.4432.11271-1.44245.278-1.44179.044-1.44121.32279-1.44074-.0954-1.44037-.44847-1.44009.14838-1.43993.23838-1.43986.18138-1.4399-.15333-1.44006-.04343-1.44033-.2753-1.44071-.44484-1.44122.85916-1.44185-.49334-1.4426.25761-1.44349-.594-1.4445.2396-1.44409-.1232-1.44327.56444-1.44259-.38854-1.44207.41158-1.44168-.41695-1.44147.25047-1.44142.08191-1.44154.10007L88.15552,491.61l-1.4423.07407-1.443-.02588-1.44379-.05335-1.44483-.034-1.44466.24473-1.44379.46107-1.44315-.41532-1.44273-.41316-1.44255.12-1.44261-.07-1.44293.55138-1.44351-.45177-1.44436.67577-1.44549-.51366-1.44472.41-1.444-.62313-1.4435.1247-1.44338.63659-1.44361-.54134-1.44423.386-1.44522.05869-1.44539.02591-1.4445-.60046-1.44406-.10626-1.44409.48884-1.44462.10618-1.43882-.6556-1.43924.0585-1.44026.16-1.4419.60756-1.44419-.46925-1.44685.20661-1.44443-.48723-1.44281.6907-1.442.12418-1.44222-.47279-1.44337-.3304-1.4456.65313-1.44714-.51848-1.44494.00925-1.44411-.18122-1.44481.06561-1.44713.2501-1.44687.4955-1.44559-.62749-1.44659.21293-1.44823-.32249-1.44663.72921-1.44832-.72723-1.44751.71459-1.44888-.49214-1.44478.26756-1.44483-.179-1.4496.2-1.44722-.16129-1.44915.13737-1.45079-.59386L4.361,491.4036l-1.45211.31364-1.45446.10813-1.781.37208.73731-1.76734-.02643-1.43658-.45722-1.43639-.33775-1.43621.78417-1.436L-.13713,483.249-.239,481.81331l.47008-1.43555-.3285-1.43541-.19025-1.43526.02579-1.43512-.19566-1.435.56465-1.43487.33372-1.43476-.51255-1.43464.223-1.43453.28059-1.43444-.21463-1.43435-.14536-1.43426-.03907-1.43419-.132-1.43411.13092-1.43406.35756-1.434-.58672-1.43394-.00534-1.4339.53386-1.43387-.20823-1.43383-.28034-1.43382.40458-1.43379-.02527-1.43379-.192-1.43379.07526-1.4338-.42894-1.43381.15992-1.43383-.29063-1.43386.39342-1.43389-.33-1.43394.34413-1.434-.11863-1.43405-.05521-1.43411-.00189-1.43419.69259-1.43427L.45,430.18l-.40184-1.43446-.03833-1.43456-.19358-1.43468.00315-1.43479.2876-1.43493-.23932-1.43506.03821-1.43521.36787-1.43536-.66869-1.43553.89346-1.43569L-.281,414.39381l.123-1.43607.2273-1.43625L-.32485,410.085l.43394-1.43667-.582-1.4369L.077,405.77434.48889,404.337l-.56035-1.43761.35511-1.43787-.42649-1.43813L-.33428,398.585l.4004-1.43869.34873-1.43889-.752-1.43864.31177-1.43838L.49,391.39221l-.88128-1.43792.15009-1.43769L-.304,387.07911l.1951-1.43728.44072-1.43709L.368,382.76783l-.74856-1.43673L.019,379.89452-.2019,378.4581l.62307-1.43628-.88095-1.43615.76559-1.436-.07147-1.43592L.4527,371.2779l-.73117-1.43572L-.13,368.40653-.3424,366.971l.829-1.43553L.29312,364.1l.2023-1.43544-.60909-1.43541.37047-1.4354-.20313-1.4354-.37489-1.4354.32307-1.43543L-.39529,354.052l.042-1.4355L.33874,351.181l-.3585-1.43562.41862-1.43569-.821-1.43579L.28106,345.438l-.56841-1.436.10645-1.43613L.043,341.12957l-.0292-1.43642.11942-1.43658.2172-1.43676-.315-1.43694L.0049,333.94572l-.3322-1.43737.65615-1.43759-.62773-1.43783.277-1.43808L-.242,326.75649l.62685-1.43863.02659-1.43893-.07255-1.43924-.76476-1.43937.05139-1.4391L-.48,318.1224l.80486-1.43858-.51527-1.43833.09268-1.43811.373-1.4379-.3-1.4377-.373-1.43752.40263-1.43735-.14964-1.43721-.343-1.43707.89342-1.437L.128,302.30883l-.13352-1.43676.23292-1.43669-.23383-1.43663.45939-1.43659-.28132-1.43657L.46951,293.689l-.14679-1.43657-.13535-1.4366-.36174-1.43664-.00219-1.4367.64693-1.43678-.56145-1.43688-.33806-1.437L.078,282.19475l.29-1.43727L-.44534,279.32l.3238-1.43763.19535-1.43783-.52541-1.438.35252-1.4383.29249-1.43856-.16767-1.43884-.401-1.43914.2526-1.43946.07865-1.43981.45829-1.43958-.69316-1.43928-.16306-1.439.938-1.43876-.45784-1.43853-.46489-1.43832.602-1.43813.094-1.438L.32382,253.425l-.80627-1.4377.47944-1.4376.40694-1.43752.07974-1.43746L.0876,246.23731.415,244.79988l-.3878-1.43745-.4092-1.4375.81888-1.43755L.084,239.04973.33865,237.612l.01553-1.43791L.3063,234.736.459,233.29771l-.5573-1.43849.21473-1.43873-.36048-1.439-.18464-1.43931.54851-1.43963-.4994-1.44.758-1.43994L.3898,221.783l-.02262-1.43933L-.314,218.90458l.52776-1.43884L-.391,216.0271l.1337-1.43847.2198-1.43834.12225-1.43822.12452-1.43815-.29383-1.43811-.25645-1.4381-.08933-1.43812.06208-1.43818.399-1.43827-.15537-1.4384L.334,200.20619l-.42122-1.43876.23286-1.439-.52-1.43926.41124-1.43956-.41639-1.4399.542-1.44029-.0133-1.44008-.61559-1.43976.40483-1.43947L-.271,185.81091l-.12671-1.439L-.409,182.933l.14792-1.43874.33537-1.434-.34953-1.43444.11124-1.43493.15519-1.43546.25766-1.436-.67427-1.43665.57976-1.43732.19156-1.438-.60823-1.43879.18689-1.43961.33549-1.44048-.01751-1.44025-.32722-1.43953.5-1.43887-.76183-1.43825L.38131,158.494.3114,157.05678.05733,155.62l-.37092-1.43636.21766-1.436.25116-1.43577L.177,149.87629l-.22345-1.43544.17471-1.43536.04062-1.43535.23024-1.43541-.67-1.43554.448-1.43573-.10031-1.436-.31626-1.43634-.09388-1.43676.68325-1.43724-.54915-1.43781-.25217-1.43845.93313-1.43918-.905-1.44.233-1.44087.14789-1.44177-.12219-1.44092L-.1993,123.998-.408,122.55845l.56557-1.43894L.138,119.681-.36871,118.243l.0886-1.43782.14893-1.43765.62263-1.43758-.37784-1.43763.36072-1.43778-.438-1.43806L.48856,108.178l-.5324-1.43894.54305-1.43957-.80234-1.44032L.08928,102.418l-.0278-1.44222.39207-1.44181-.8193-1.441.65713-1.44032-.58807-1.43978.42717-1.43941-.21619-1.43919-.09958-1.43915L.194,89.45582.01192,88.01628l-.11661-1.44-.377-1.44067.86722-1.44151-.65829-1.44255.07914-1.44238-.038-1.44151.08072-1.44087.53637-1.44045L.48831,75.046.47623,73.60572.07546,72.16507l.17328-1.44123.14075-1.44208L.02467,67.83855l-.48436-1.44244.17619-1.44167.69606-1.44121-.61-1.4411.17725-1.44134L.0894,59.18884l-.3859-1.44293L-.43527,56.3028l.15284-1.44222.363-1.44178L-.02171,51.977l.35883-1.44234.05173-1.43654-.84475-1.437.93615-1.438-.3946-1.43962-.18094-1.44192.48442-1.44456-.227-1.44215-.29454-1.44053.13273-1.43977.1475-1.43994L.1863,34.69358l-.50261-1.44332.52709-1.44485-.044-1.44266.17069-1.44184L-.249,27.47839l-.13223-1.44485L-.10967,24.589l.55056-1.4433L.41314,21.70135.21691,20.2554.20373,18.81106l.17645-1.446.02939-1.44522L.22976,14.47322l.07669-1.44251-.49757-1.44254-.08933-1.44732L.238,8.69593.0829,7.24906.14873,5.80057-.29794,4.35413.44925,2.90431.44046,1.45216l-.46257-1.474L1.43511-.25121,2.87034-.0406,4.30568-.41754,5.74116.34,7.17676.16973l1.43575.1778,1.43588-.66137,1.436.57,1.43619-.726L14.357.44873l1.43651-.49559,1.43667-.23365L18.667.15728l1.437-.50872L21.54121-.4982l1.4374.07856L24.4162.03545l1.43779-.493,1.438.528L28.7302-.273l1.43843.08218,1.43865.49517,1.43888-.3047,1.43911-.28077,1.43935.39323,1.43959-.50438,1.43985.85458,1.4401-.0054,1.44036-.51619,1.44033.50313L44.565.41107l1.43988-.42653,1.43966.3076,1.43945-.61306L50.32319.211,51.76224.01369,53.20109-.216l1.43867-.08652,1.43848.72882,1.43831-.1576,1.43814.20692L60.39267-.03,61.8305-.26931l1.43767.51186L64.7057-.391l1.4374.28715,1.43726.513,1.43714.05,1.437.03L71.89143-.24l1.43681.66011,1.4367-.58543L76.20156.22,77.63809.14568l1.43646.34153L80.51093.233l1.43632-.71358,1.43627.13633L84.81973.1892,86.2559-.19225,87.692.32626l1.4361-.05057,1.43608-.75942,1.43607.70885,1.43606.19742,1.436-.194,1.43607-.36644,1.43608.4995,1.43609-.57344,1.43613-.124,1.43617.25629,1.4362-.35017,1.43626.33607,1.43632.11906,1.43638.42884,1.43646-.34577,1.43654-.3697,1.43663.69771L113.54444.407l1.43683-.585,1.437-.23185,1.43707.366,1.43719.36842,1.43733-.646,1.43748-.09915,1.43764.46037,1.43779-.48378,1.438.68877,1.43814-.30717,1.43833.11716,1.43853.14817,1.43874-.50267,1.43894.1504,1.43917.3411,1.4394.09348,1.43963.19727,1.43989-.41691,1.44014-.44911L142.312.09246l1.44069.0636,1.441-.177,1.44117.22635,1.44091-.01529,1.44066-.58891,1.44042.82659,1.44019-.7184,1.44.33805L155.27673.113l1.43956-.21512,1.43936-.20963,1.43919.07056,1.439-.25129,1.43885.866,1.4387-.31233,1.43855-.23667,1.43842.003,1.4383-.28449,1.43819.073,1.43809.84545,1.438-.7206,1.43792-.16007,1.43785.74L176.8545.4111l1.43775-.18452L179.73.22439l1.43768-.44212,1.43767-.0669L184.043-.35818l1.43768.72344,1.43769-.67043,1.43773.73226,1.43777-.66417,1.43782.10889,1.43789-.24919,1.438.10242,1.43806.17027,1.43816-.03156L198.422-.0399l1.4384.44239,1.43854-.7571,1.43869.51088,1.43885.25755,1.439-.21714,1.43922.2515,1.43943-.35527,1.43963-.24344,1.43987.0802,1.4401.515,1.44036.04129,1.44063-.638,1.44091.08008,1.44121-.12573,1.44151.08035,1.44166-.06857,1.44137-.12336,1.4411.38258,1.44085-.1962,1.44061.10477,1.44038.29175,1.44017-.59093,1.44.0022L232.98432.16l1.43963.1999L235.86343.142l1.43935-.44124L238.742-.43884l1.43912.923,1.439-.40385,1.439.17676L244.498-.4404l1.43886.821,1.43884-.69164,1.43884.614,1.43884-.58345,1.43887.20215,1.43891-.25156,1.439.55074,1.43905-.2819,1.43915-.32069,1.43927.66823,1.43939-.7849,1.43955.55128L263.20628.149l1.4399-.54525,1.44011.89157,1.44033-.75665,1.44057.14857,1.44083-.3668,1.44112.43659,1.44142.11158,1.44174-.17341,1.44208-.2171,1.44186-.07185,1.44156-.05468,1.44129.8019,1.441-.50685,1.44081.572L284.82152.01l1.44041-.11511,1.44023-.01718,1.4401-.00852,1.44.26445L292.0221-.1885l1.4398.009,1.43974.02478,1.43971.20984,1.4397-.45189L299.22078.293l1.43976.15516,1.43984-.65715,1.43992.04614,1.44-.134,1.44018.69891,1.44035-.51079L309.30141-.214l1.44077.62734,1.441-.12391L313.62447.142l1.44159-.32725L316.508.44165,317.95024.331l1.44222-.66683,1.4419.31989L322.276-.20537l1.44135.13513,1.44111.32344,1.44092-.414,1.44075.18485,1.4406-.327,1.44051.60481,1.44042-.4485L333.802.10262l1.44037.0777,1.4404-.02866,1.44045.34224,1.44054-.28312,1.44068-.201,1.44083.20481,1.441.16553,1.44126-.84936,1.44153.1544,1.44184.0263,1.44218-.20908,1.44257.13675,1.44236.07954,1.442.64958,1.44174-.39839,1.4415-.37663,1.4413.76156,1.44112-.43928,1.441.3408,1.43628.04822,1.43672-.71978,1.4372.14951,1.43772.67888L368.373.29287l1.43892-.61809,1.43959.81738,1.44031-.27473,1.44107.198,1.44188-.48878,1.44276.18677,1.44253-.38859L379.90186-.336l1.44114.2255,1.44053.03741,1.44.26817L385.663-.37591l1.439.11734,1.43863.59374,1.43831-.47594,1.438-.16867,1.43784.3697,1.4377-.21107,1.43764.6491L397.16777-.368l1.43768.06891,1.43781.131,1.438.46791,1.43827-.70058,1.43862.4004,1.439-.20539,1.43952.16935,1.44008.20676L410.1175.02272,411.559-.41186l1.44226-.06427,1.44316.00314,1.44405.55235,1.4432.26008,1.44245-.48259,1.44178.49843,1.44122-.139,1.44074.24845,1.44037-.12192,1.44009-.77837,1.43992.34983,1.43986-.298L430.298-.349,431.738.41867,433.17835-.296l1.44072.19409,1.44122.21855,1.44184.05694L438.94474-.079l1.44348.27629,1.44451-.51909,1.44409.13529,1.44327.504,1.44259-.343,1.44206-.1305,1.44169.13694,1.44147-.2298,1.44142.606L453.37086-.343l1.44182.03711,1.44229-.026,1.44295.21082,1.44379.24769,1.44484-.1815,1.44466-.34492,1.44379.10969,1.44315.38532,1.44273-.3231L467.80343.394,469.246-.28,470.689.00987l1.4435-.10931,1.44436.49076,1.4455-.17063,1.44472-.654,1.444-.02035,1.44349.73385,1.44338-.55181L482.24149-.303l1.44423.77773,1.44521-.64135,1.44539-.24115,1.44451.27183,1.44406.0447L490.909.25542l1.44462-.42368,1.43881.30747,1.43925.24226L496.67192.355l1.44189-.32838,1.4442-.0008,1.44685.09882,1.44443.13822,1.4428-.6595,1.44206-.103,1.44221.58852,1.44337-.176,1.4456.44908,1.44714-.12318,1.44494-.05069,1.44412-.18189,1.4448-.41951,1.44714.91049,1.44686-.63484,1.44559-.18665,1.44659-.09128,1.44824.03115,1.44663-.0628,1.44831.01834,1.44751.42354,1.44888-.381,1.44479.56884,1.44482-.60009,1.44961.13215,1.44721.13211,1.44916.39033,1.45078-.31617,1.44873-.13742,1.45211.40769,1.45445-.65309,1.61189.30257L542.899,1.43677l.34126,1.43658-.57646,1.4364.0368,1.43621.16551,1.436-.291,1.43587.79922,1.43571-.31791,1.43555.01361,1.43541.33525,1.43526-.15644,1.43512-.59926,1.435.20188,1.43487.07184,1.43475.311,1.43464-.60768,1.43454-.05433,1.43444L542.528,25.8375l.8627,1.43426-.81961,1.43419.18763,1.43411-.13947,1.43405.36949,1.434-.19242,1.43394.08335,1.4339-.29719,1.43387.67458,1.43383-.72747,1.43381.88565,1.4338-.92124,1.43379.1927,1.43379.08414,1.4338.60237,1.4338-.79519,1.43384.72042,1.43385-.19214,1.4339L542.9087,53.082l.03836,1.434-.16812,1.434.47941,1.43411-.05448,1.43419-.54707,1.43427.23588,1.43436-.2396,1.43446.61,1.43456-.65654,1.43467.4687,1.4348-.28867,1.43493-.00544,1.43506.5356,1.43521-.70211,1.43536.05677,1.43552.06784,1.4357.37526,1.43587.2121,1.43606-.18244,1.43626-.25791,1.43646-.12735,1.43667.37162,1.4369.18555,1.43712-.55534,1.43736.276,1.43762.39512,1.43786-.48494,1.43814.46342,1.43841-.05008,1.43869-.64281,1.43889.30686,1.43863.44036,1.43839-.56643,1.43814.37184,1.43792.05927,1.43769-.61153,1.43748.55357,1.43729.13682,1.43709-.13865,1.4369-.39225,1.43674.466,1.43658-.18586,1.43642-.39647,1.43628-.12635,1.43615.50432,1.436-.37864,1.43592.68007,1.43581-.72527,1.43573.7055,1.43565-.49129,1.43558.05878,1.43552.07358,1.43548-.108,1.43544.29749,1.43541-.40666,1.4354-.03415,1.4354.183,1.4354-.34611,1.43543.45234,1.43545.11323,1.4355-.19007,1.43555.27436,1.43562-.45946,1.4357.32436,1.43579.11264,1.43589-.34364,1.436-.21226,1.43613-.24039,1.43627.58913,1.43641-.16944,1.43659.17924,1.43675-.466,1.43695-.124,1.43715.42839,1.43736.404,1.43759-.40632,1.43784.53276,1.43808-.539,1.43835-.00534,1.43864.24095,1.43893-.49358,1.43923.18427,1.43938-.16513,1.4391.68233,1.43882-.84942,1.43857.4239,1.43834-.091,1.43811-.02438,1.43789-.32624,1.4377.73757,1.43753.1684,1.43735-.25,1.43721-.10672,1.43707-.21272,1.43695.39082,1.43685.07465,1.43676.16813,1.43668-.70217,1.43663-.09391,1.43659-.14914,1.43657.38682,1.43656-.02368,1.43658.06461,1.43659.1026,1.43664-.11518,1.43671-.23258,1.43678.32258,1.43688-.45958,1.437.16688,1.43712-.18018,1.43727.81985,1.43744-.226,1.43762.30848,1.43784-.46156,1.438.32459,1.4383-.45222,1.43856-.087,1.43884.09751,1.43914.42048,1.43946-.62474,1.4398.49739,1.43958-.21028,1.43929-.1893,1.439-.053,1.43876.18335,1.43853-.41358,1.43832.61452,1.43813-.31376,1.438.568,1.43782-.71655,1.4377.5306,1.43759-.17082,1.43752-.35117,1.43747.6082,1.43744-.25693,1.43743.40241,1.43745-.32081,1.43749-.33772,1.43756.44429,1.43765-.52534,1.43777-.17252,1.4379.07568,1.43808.85,1.43827.05668,1.43848-.4832,1.43874.24613,1.439-.41838,1.4393.02448,1.43964.31888,1.44.04,1.43994-.709,1.43963.44123,1.43933.27781,1.43907-.6711,1.43884.40178,1.43864-.34764,1.43847.53853,1.43833-.26276,1.43823-.15659,1.43815.52934,1.43811.15485,1.4381-.02438,1.43812-.34764,1.43818.23664,1.43827-.04776,1.43839.13547,1.43856-.68483,1.43875-.1027,1.439.32051,1.43925.31916,1.43956-.271,1.43991.53213,1.44029-.18946,1.44008-.01847,1.43976-.34565,1.43947-.35353,1.43922.41173,1.439.35707,1.43885-.46532,1.43873-.15809,1.434.38292,1.43445.34806,1.43493-.44139,1.43545-.1752,1.436.51414,1.43665-.75136,1.43731.839,1.438-.81057,1.4388.69225,1.43961-.31989,1.44047-.4156,1.44026.349,1.43953-.35344,1.43886.11158,1.43825.13766,1.4377-.00985,1.43719-.25071,1.43674.34223,1.43637-.24344,1.436.42622,1.43577-.25471,1.43557.31895,1.43544.01187,1.43536.22343,1.43535-.71307,1.43541.66534,1.43553-.32262,1.43574.47609,1.436-.85162,1.43634.29616,1.43675-.01249,1.43725.10456,1.43781-.00531,1.43845-.50667,1.43918.13642,1.44.55245,1.44088-.41969,1.44177-.18247,1.44092-.10514,1.44017.25651,1.43951.25284,1.43894.23048,1.43846.21934,1.4381-.73468,1.43781.636,1.43765-.19636,1.43759-.27232,1.43763.38179,1.43778-.633,1.438.3877,1.43844-.08221,1.43895.20291,1.43957-.2349,1.44032-.38218,1.44121.00266,1.44222.43446,1.44181.30262,1.441-.3701,1.44031.23841,1.43979-.147,1.43941-.24271,1.43919-.13694,1.43914.61883,1.43926-.70812,1.43955.91894,1.44-.67745,1.44067-.18757,1.44151.02545,1.44255.72543,1.44237-.3209,1.44152.21689,1.44087-.07333,1.44045-.29625,1.44027.57882,1.44033.005,1.44065-.22645,1.44123-.40937,1.44208.53914,1.44321.03867,1.44244.07846,1.44166.00769,1.44122-.19394,1.4411-.47561,1.44134-.18369,1.44194.0665,1.44294.54677,1.4431-.71361,1.44223.42592,1.44178-.2216,1.44181.75329,1.44233-.46831,1.43655.46,1.437-.85647,1.438.2327,1.43962-.01773,1.44191.25843,1.44457-.20475,1.44215.05738,1.44053.24985,1.43977.02017,1.43994.07346,1.44109-.14807,1.44332.32743,1.44485-.35173,1.44266-.59663,1.44183.29047,1.44252.07325,1.44486-.25633,1.44457.85354,1.44331-.81966,1.4443.56178,1.44595.12223,1.44435-.25169,1.446-.49348,1.44522.17706,1.44659.23027,1.44251.211,1.44254-.18821,1.44731.32316,1.44493-.1665,1.44686-.4898,1.4485.28837,1.44644-.37342,1.44981.35471,1.44854Zm-538.151-4.3789,1.65881-.48959,1.4373.474,1.43746-.12354,1.43762-.45185,1.43779.754,1.438-.29417,1.43814-.56908,1.43833.90057,1.43852-.64092,1.43871.604,1.43891-.7943,1.43911.51424,1.43933.15662,1.43955-.23881,1.43976-.04306,1.44.23362,1.44023-.00424,1.44047-.15785,1.44071.02881,1.441.04679,1.44122-.51418,1.44149.29121,1.44145.22312,1.44122-.3751,1.441.55745,1.44078-.7651,1.44057-.04181,1.44036.36964,1.44017.37486,1.44-.29435,1.43978.34132,1.4396.09332,1.43943-.77465,1.43926.30961,1.4391-.21924,1.43894.457,1.43879.01,1.43865-.5342,1.43851.76165,1.43838-.70891,1.43826-.0394,1.43814.34016,1.438.41078,1.43793-.07575,1.43782-.79107,1.43773.59978,1.43765-.52431,1.43758.64449,1.4375-.168,1.43743.1127,1.43738-.65706,1.43733.41859,1.43728-.0011,1.43725-.2819,1.43722.71991,1.4372-.00592,1.43718-.15544,1.43718.19133,1.43717-.39409,1.43718-.49068,1.43719.6947,1.43722-.47042,1.43724.17811,1.43728-.26411,1.43732.26738,1.43738-.31666,1.43743.215,1.4375.07907,1.43757.47667,1.43766-.14316,1.43775-.31465,1.43784.4615,1.438-.53813,1.43806.50533,1.43818.12543,1.43832-.78616,1.43845.46928,1.43859.15165,1.43875-.56948,1.43891.09907,1.43909.20987,1.43926.14848,1.43945-.31441,1.43965.594,1.43985-.68117,1.44006.511,1.44029-.34028,1.44051-.44624,1.44076.5417,1.441-.0556,1.44126-.41,1.44153.3846,1.4418.27173,1.44209.19245,1.44229-.12082,1.442-.15159,1.44177.06437,1.44154-.16944,1.44131.3325,1.44109-.37364,1.44088-.24738,1.44067.6299,1.44048-.44145,1.4403-.23579,1.44013-.21033,1.44.61611,1.43981.1594,1.43967.12613,1.43954-.55754,1.43942-.051,1.43931.33418,1.4392-.01886,1.43912-.53768,1.439.74731,1.439-.47749,1.43891-.15266,1.43886-.14325,1.43883-.01679,1.4388.7117,1.43879-.28108,1.43878.38807,1.43879-.42674,1.43882.03247,1.43884-.199,1.43889.42351,1.43894-.21122,1.439.26972,1.43908-.12274,1.43918-.2382,1.43928.11167,1.43939-.08842,1.43952.43575,1.43966.06152,1.43981-.33909,1.44.36281,1.44015-.32326,1.44034-.50428,1.44054.31412,1.44075-.05282,1.441.52925,1.44122-.7416,1.44148.64928,1.44175-.6758,1.442.79955,1.44233-.45262,1.44263-.168,1.44278-.05542,1.44249.5782,1.44222-.35121,1.442-.42671,1.44173.16969,1.4415.02957,1.44129-.252,1.4411.28208,1.44091.68044,1.44075-.31089,1.4406.09235,1.44046-.46163,1.44034-.2,1.44024.39362,1.44015.13029,1.44008.012,1.44-.64446,1.44.96918,1.44-.748,1.44-.04905,1.44.70437,1.44-.19825,1.44-.24317,1.44009.36595,1.44018-.45167,1.44026.41639,1.44039-.328,1.44051.03445,1.44066.16346,1.44084.188,1.441.04813,1.44122-.54955,1.44145.66763,1.44169-.68917,1.442.35609,1.44223-.15522,1.44254-.04733,1.44286.15076,1.4432-.3893,1.443.39989,1.44269-.09409,1.4424.1048,1.44216-.15439,1.44192-.214,1.44172.54515,1.44152.09385,1.44136-.43477,1.44121.14182,1.44109-.30723,1.441-.18656,1.44092.79769,1.44086-.37406,1.44083-.18528,1.44082-.13327,1.44084.3747,1.44089-.3368,1.44095.64748,1.441-.09427,1.44116.06308,1.4413.01187,1.44147-.76049,1.44167-.0947,1.44188.17249,1.44213.7756,1.4424-.96768,1.44271.69478,1.443.26481,1.4434-.514,1.44334-.3954,1.443.87262,1.44272-.40959,1.44247.38078,1.44224-.29392,1.442.22855,1.44186-.12424,1.44173.00131,1.44162.20533,1.44155-.20081,1.4415.08722,1.44149-.76342,1.44152.57658,1.44157-.31943,1.44167-.20286,1.44179-.06314,1.44195.55046,1.44215-.27586,1.44238-.22388,1.44265.22251,1.443.55416,1.44331-.75964,1.44368.4366,1.44349-.38625,1.44315.56518,1.44287-.16474,1.44262-.24656,1.44241.10514,1.44225.0047,1.44213.50437,1.442-.714,1.4378.31062,1.43828.29441,1.4388.11,1.43938-.07352,1.44-.19611,1.44067-.29713,1.44139.36619,1.44215.0001,1.443-.221,1.44384.10581,1.44362-.544,1.44289.34171,1.44222.15665,1.44161.2852,1.441-.59255,1.44055-.02588,1.4401.25972,1.43971.39286,1.4394-.64843,1.43912.01285,1.43893.18546,1.43878.20289,1.43871-.21143,1.4387.42237,1.43876-.00265,1.43889-.222,1.43909-.01331,1.43935.24909,1.43969-.138,1.44011.17542,1.4406-.361,1.44117-.0441,1.44181.25693,1.44254-.18393,1.44335-.0969,1.44423.48311,1.44514-.62673,1.44429.1435,1.44353-.05179,1.44287-.339,1.44229.839,1.44183-.80324,1.44145.13547,1.44117.59926,1.441-.1127,1.44094-.278,1.441-.044,1.44114-.32279,1.44141.0954,1.44179.44847,1.44231-.14838,1.44293-.23838,1.44368-.18137,1.44457.15332,1.44559.04343,1.44518.27531,1.44436.44484,1.44367-.85916,1.44315.49333,1.44277-.25761,1.44255.594,1.4425-.2396,1.44262.1232,1.44291-.56444,1.44338.38853,1.444-.41157,1.44488.41694,1.44592-.25046,1.44574-.08192,1.44488-.10007,1.44423.53042,1.44381-.07407,1.44364.02588,1.44369.05334,1.444.034,1.4446-.24473,1.44544-.46107,1.44658.41533,1.44581.41316,1.445-.12,1.44458.07,1.44447-.55138,1.4447.45176,1.44531-.67577,1.4463.51366,1.44648-.41,1.44559.62313,1.44515-.1247,1.44517-.63658,1.44571.54133,1.43989-.386,1.44033-.05869,1.44134-.02591,1.443.60045,1.44528.10627,1.44794-.48885,1.44551-.10617,1.44389.65559,1.44314-.0585,1.4433-.16,1.44445-.60756,1.44669.46925,1.44823-.20661,1.446.48723,1.4452-.69069,1.44589-.12418,1.44823.47279,1.44795.33039,1.44668-.65312,1.44767.51847,1.44932-.00924,1.44772.18122,1.44941-.06562,1.44859-.2501,1.45-.4955,1.44587.62749,1.44591-.21292,1.4507.32249,1.4483-.72921,1.45024.72722,1.45188-.71459,1.44981.49214,1.4532-.26755,1.45555.179,1.28636-.13055.08964-1.2654-.13736-1.43666.59386-1.43651.08633-1.43637-.31364-1.43624-.10812-1.43612-.50618-1.436.87542-1.43589-.02643-1.43578-.45723-1.43569-.33775-1.43559.78418-1.43551-.51067-1.43544-.10187-1.43536.47008-1.4353-.3285-1.43524-.19026-1.43519.02579-1.43515-.19565-1.43511.56465-1.43509.33372-1.43506-.51256-1.435.223-1.435.28059-1.435-.21464-1.435-.14536-1.435-.03906-1.43508-.132-1.43511.13092-1.43514.35755-1.43519-.58671-1.43523-.00534-1.4353.53386-1.43536-.20823-1.43544-.28034-1.43552.40458-1.4356-.02527-1.43571-.192-1.43581.07526-1.43592-.42894-1.436.15992-1.43617-.29063-1.43631L538.09,425.319l-.33-1.43661.34412-1.43677-.11862-1.437-.05521-1.43712-.00189-1.43731.69258-1.43751-.01989-1.43771-.40184-1.43792-.03833-1.43814-.19358-1.43838.00314-1.43861.28761-1.43886-.23933-1.43912.03821-1.43939.36787-1.43966-.66869-1.43994.89346-1.44015-.77956-1.43988.123-1.43964.2273-1.43939-.39415-1.43917.43394-1.43894-.582-1.43874.54985-1.43853.41191-1.43834-.56035-1.43816.35511-1.438-.4265-1.43783-.19144-1.43767.4004-1.43753.34874-1.4374-.752-1.43728.31178-1.43717.51537-1.43706-.88129-1.437.15009-1.4369-.06286-1.43683.1951-1.43677.44072-1.43672.03622-1.43669-.74855-1.43666.39957-1.43665-.22092-1.43665.62307-1.43665-.88095-1.43667.76559-1.43671-.07148-1.43675.21836-1.4368-.73116-1.43687.14841-1.43694-.21235-1.437.829-1.43714-.19349-1.43725.20231-1.43738-.60909-1.43751.37046-1.43767-.20313-1.43783-.37489-1.438.32307-1.4382-.39714-1.4384.042-1.43861.69207-1.43884-.3585-1.43909.41862-1.43933-.821-1.43961.70324-1.43988-.56841-1.44018.10645-1.44049.22385-1.44063-.02921-1.44035.11942-1.44008.2172-1.43982-.315-1.43959-.03046-1.43935-.33219-1.43915.65615-1.439-.62774-1.43877.27705-1.4386-.22016-1.43846.62685-1.43832.02658-1.4382L538.49,307.389l-.76476-1.438.05139-1.43794-.10557-1.43788.80487-1.43784-.51527-1.43782.09268-1.43781.373-1.43782-.3-1.43784-.37306-1.4379.40263-1.438-.14963-1.438-.34306-1.43813.89343-1.43824-.27753-1.43837-.13352-1.43852.23291-1.43869-.23383-1.43888.4594-1.43908-.28132-1.43931.29789-1.43954-.1468-1.43982-.13535-1.44009-.36173-1.44039-.0022-1.44072.64693-1.441-.56145-1.44083L537.722,268.54l.50716-1.44027.29-1.44-.81338-1.43978.32381-1.43957.19534-1.43938-.5254-1.43921.35252-1.43907.29249-1.439-.16767-1.43885-.401-1.43877.25261-1.43872.07864-1.43869.4583-1.43868-.69317-1.4387-.16306-1.43874.938-1.43881-.45784-1.4389-.46489-1.439.602-1.43915.094-1.43933.05463-1.43952-.80627-1.43974.47945-1.44.40693-1.44026.07975-1.44056-.39607-1.44089.32737-1.44125-.3878-1.44119-.40919-1.44088.81887-1.44058-.35285-1.44032.25464-1.4401.01554-1.43989-.04789-1.43972.15269-1.43959-.5573-1.43947.21473-1.4394-.36049-1.43936-.18463-1.43935.54851-1.43938-.49941-1.43943.758-1.43952.01138-1.43964-.02261-1.43981-.68114-1.44.52775-1.44024-.60481-1.4405.1337-1.44082.21979-1.44115.12226-1.44154.12452-1.44134-.29384-1.441-.25644-1.44072-.08933-1.44048.06207-1.44027.399-1.4401-.15537-1.44.45863-1.43525-.42121-1.4357.23285-1.43618-.52-1.4367.41124-1.43728-.4164-1.43789.542-1.43857-.01331-1.43928-.61558-1.44005.40482-1.44086-.20938-1.44173-.12672-1.4415-.01123-1.44079.14793-1.44011.33536-1.43951-.34953-1.43894.11124-1.43844.15519-1.438L538.4,159.135l-.67428-1.43729.57976-1.437.19157-1.43682-.60824-1.43668.1869-1.43661.33549-1.4366-.01752-1.43666-.32722-1.43679.5-1.437-.76184-1.43725.72784-1.43759-.06992-1.438-.25407-1.4385-.37092-1.43906.21766-1.4397.25117-1.44044.02179-1.44123-.22346-1.44213.17472-1.443.04062-1.44218.23023-1.44142-.67-1.44076.448-1.44019-.10031-1.43972-.31627-1.43935-.09387-1.43907.68325-1.4389-.54915-1.43883-.25218-1.43888.93314-1.439-.905-1.4393.23295-1.43969.14789-1.44019-.1222-1.44083-.0347-1.44157-.20871-1.44247.56557-1.44347-.01953-1.44307-.50673-1.44224.08859-1.44157.14893-1.441.62264-1.44067-.37785-1.44044.36073-1.4404-.438-1.44051.45225-1.4408-.53239-1.44127.543-1.44192-.80233-1.44277.39241-1.4438-.0278-1.44363.39207-1.44277-.8193-1.44212.65712-1.44171-.58806-1.44152.42717-1.44159-.2162-1.4419-.09958-1.44248.37929-1.44333-.18208-1.44447-.11661-1.4437-.377-1.44292.86721-1.44246-.65828-1.44236.07913-1.44259-.038-1.4432.08072-1.44419.53636-1.44436.10279-1.44348-.01209-1.443-.40077-1.44307.17329-1.44359.14075-1.43779-.36482-1.43822-.48436-1.43924.17618-1.44087.69607-1.44317-.61-1.44582.17725-1.4434.10956-1.44179-.38591-1.441-.13876-1.44119.15283-1.44235.363-1.44457-.10227-1.44611.35884-1.44391.05173-1.4431-.84475-1.44377.93615-1.44611-.3946-1.44583-.181-1.44457.48442-1.44556-.227-1.4472-.29453-1.4456.13273-1.44729.14749-1.44648.03852-1.44785-.50261-1.44376.52708-1.4438-.044-1.44857.17069-1.44619-.58653-1.44812-.13224-1.44976.27162-1.44769L538.592,7.724l-.02774-1.45342-.2589-1.60593L536.714,4.61347l-1.4373-.17645-1.43746-.02939-1.43762.17981-1.43779-.07669-1.438.49757-1.43814.08933-1.43832-.51845-1.43852.1551-1.43871-.06583-1.43891.44667L520.89409,4.368l-1.43933.00879-1.43954.47154-1.43977.22013-1.44-.21061-1.44023.37694-1.44047-.75756-1.44071.17029-1.441-.1778-1.44122.66137-1.44148-.57-1.44145.726-1.44122-.91858-1.441.49559-1.44078.23365-1.44057-.43779-1.44036.50872-1.44017.14676-1.44-.07856-1.43979-.45509-1.4396.493-1.43943-.528-1.43926.34348L487.76769,5.008l-1.439-.49517-1.43879.3047-1.43864.28077-1.43852-.39323-1.43838.50438-1.43825-.85458-1.43814.0054-1.438.51619-1.43792-.50313-1.43783.03278-1.43773.42653-1.43765-.3076-1.43757.61306-1.4375-.53188-1.43744.19727-1.43737.22972-1.43733.08652-1.43729-.72882-1.43725.1576-1.43722-.20692-1.43719.50557-1.43719.23933-1.43717-.51186-1.43717.63354L451.824,4.921l-1.4372-.513-1.43721-.05-1.43724-.03-1.43728.72911-1.43733-.66011-1.43737.58543-1.43744-.38538-1.4375.07434L438.88785,4.33l-1.43765.25419-1.43775.71358-1.43784-.13633-1.438-.53343-1.43806.38145-1.43819-.51851-1.43831.05057-1.43845.75942-1.4386-.70885-1.43875-.19742-1.43891.194-1.43908.36644-1.43927-.4995-1.43945.57344L417.31,5.153l-1.43985-.25629L414.43,5.24692l-1.44028-.33607-1.44052-.11906L410.10847,4.363l-1.441.34577-1.44126.3697-1.44153-.69771-1.4418.02951-1.44209.585-1.44229.23185-1.442-.366-1.44178-.36842-1.44154.64605-1.44131.09915-1.44108-.46037-1.44088.48378-1.44067-.68877-1.44049.30717-1.4403-.11716-1.44013-.14817-1.44.50267-1.43981-.1504-1.43968-.3411-1.43954-.09348-1.43941-.19727-1.43931.41691-1.43921.44911-1.43912-.47609-1.439-.0636-1.439.177-1.43891-.22635-1.43886.01529-1.43883.58891-1.4388-.82659-1.43879.7184-1.43879-.338-1.43879-.06555-1.43881.21512-1.43885.20963-1.43888-.07056-1.43894.25129-1.439-.866L353.9489,4.756l-1.43917.23667-1.43928-.003-1.4394.28449-1.43951-.073-1.43966-.84545-1.43981.7206-1.44.16007-1.44015-.74-1.44034-.09037-1.44054.18452-1.44076.00219-1.441.44212-1.44123.0669-1.44148.07355-1.44175-.72344-1.442.67043-1.44232-.73226-1.44264.66417-1.44277-.10889-1.44249.24919-1.44222-.10242-1.442-.17027-1.44173.03156-1.4415-.09635-1.44129-.44239-1.4411.7571-1.44091-.51088-1.44075-.25755-1.4406.21714-1.44046-.2515-1.44035.35527-1.44024.24344-1.44015-.0802-1.44007-.515-1.44-.04129-1.44.638-1.44-.08008-1.44.12573-1.44-.08035-1.44.06857-1.44.12336-1.4401-.38258-1.44017.1962-1.44027-.10477-1.44038-.29175-1.44051.59093-1.44067-.0022-1.44083-.47505-1.441-.1999-1.44123.2179-1.44144.44124-1.4417.13956-1.442-.923-1.44224.40385-1.44254-.17676-1.44286.6975-1.4432-.821-1.443.69164-1.44268-.614-1.44241.58345-1.44215-.20215-1.44193.25156-1.44171-.55074-1.44152.2819-1.44136.32069-1.44121-.66823-1.44109.7849-1.441-.55128-1.44091-.09617-1.44086.54525-1.44083-.89157-1.44083.75665L248.754,4.93l-1.44088.3668-1.441-.43659-1.441-.11158-1.44116.17341-1.4413.2171-1.44147.07185-1.44166.05468-1.44188-.8019-1.44213.50685-1.44241-.572-1.4427.40865-1.443.11511-1.44339.01718L228.5666,4.948l-1.443-.26445-1.44273.32213-1.44247-.009-1.44223-.02478-1.442-.20984-1.44187.45189-1.44172-.68978L217.0289,4.369l-1.44155.65715L214.14585,4.98l-1.4415.134-1.44151-.69891-1.44158.51079-1.44166.10532-1.44179-.62734-1.442.12391-1.44215.14743-1.44239.32725-1.44265-.62688-1.443.11063-1.4433.66683-1.44369-.31989-1.44348.18945-1.44316-.13513L192.50922,4.564l-1.44262.414-1.44242-.18485-1.44225.327-1.44213-.60481-1.442.4485L183.86,4.71458l-1.43828-.0777-1.43881.02866-1.43938-.34224-1.44.28312-1.44067.201-1.44138-.20481-1.44216-.16553-1.443.84936-1.44384-.1544-1.44361-.0263-1.4429.20908-1.44222-.13675-1.44161-.07954-1.441-.64958-1.44054.39839-1.4401.37663-1.43972-.76156-1.43939.43928-1.43913-.3408-1.43892-.04822-1.43878.71978-1.43871-.14951-1.43871-.67888-1.43876.12027-1.43889.61809L146.41035,4.325l-1.43935.27473-1.4397-.198-1.44011.48878-1.4406-.18677-1.44116.38859-1.44181.06088-1.44254-.2255-1.44335-.03741-1.44424-.26817-1.44513.57094-1.44429-.11734L129.10454,4.482l-1.44287.47594-1.4423.16867-1.44182-.3697L123.3361,4.968l-1.44118-.6491-1.441.86627-1.441-.06891-1.441-.131-1.44114-.46791-1.44141.70058-1.4418-.4004-1.4423.20539-1.44293-.16935-1.44369-.20676-1.44457.14762-1.44559.43458-1.44518.06427L103.139,5.29019l-1.44367-.55235-1.44315-.26008-1.44277.48259-1.44256-.49843-1.4425.139-1.44262-.24845-1.4429.12192-1.44338.77837-1.444-.34983-1.44488.298-1.44592-.0347-1.44574-.76766L84.37,5.11318,82.9258,4.91909,81.482,4.70054,80.03835,4.6436l-1.4437.25263-1.444-.27629L75.70605,5.139,74.2606,5.00374l-1.44658-.504-1.44581.343-1.445.1305L68.4786,4.83632l-1.44446.2298-1.44471-.606-1.44531.70009-1.4463-.03711-1.44648.026-1.44558-.21082-1.44515-.24769-1.44518.1815-1.4457.34492-1.4399-.10969L52.58951,4.722l-1.44134.3231-1.443-.62188-1.44527.674L46.812,4.80733l-1.44552.10931-1.44389-.49076-1.44313.17063-1.4433.654-1.44446.02035L38.145,4.537l-1.44823.55181-1.446.03137-1.4452-.77773-1.44589.64135L30.91142,5.225l-1.44795-.27183-1.44668-.0447-1.44767-.34666-1.44933.42368L23.67208,4.678l-1.44941-.24226-1.4486.02646-1.45.32838-1.44588.0008-1.44591-.09882-1.45069-.13822-1.4483.6595-1.45024.103-1.45188-.58852-1.44981.176L7.72819,4.45517l-1.45554.12318-1.58774.10494L4.81083,6.254l.41951,1.43665L4.31985,9.12716l.63484,1.43637.18665,1.43625.09128,1.43611-.03115,1.436.0628,1.43589-.01834,1.43579-.42354,1.43568.381,1.4356-.56884,1.43551.60009,1.43544-.13215,1.43536-.13211,1.4353L4.58005,27.7917l.31617,1.43519L5.03364,30.662l-.40769,1.43511L5.279,33.53223l-.23792,1.43506-.29325,1.43505.34126,1.435-.57647,1.435.03681,1.435.1655,1.43506-.291,1.43508.79921,1.4351-.31791,1.43515L4.91892,47.883l.33525,1.43524-.15644,1.4353-.59926,1.43536.20188,1.43544.07184,1.43551.311,1.43561-.60768,1.43571L4.42114,59.367l-.04425,1.43592.86269,1.436L4.42,63.67514l.18763,1.43631-.13947,1.43646.36948,1.43661L4.6452,69.42129l.08335,1.43695-.29719,1.43712.67458,1.43731-.72747,1.4375.88565,1.43771-.92123,1.43793.19269,1.43814.08414,1.43838.60238,1.43861L4.42691,83.7998l.72042,1.43912-.19215,1.43939L4.7576,88.118,4.796,89.55791l-.16813,1.44014.47941,1.43989-.05447,1.43963L4.5057,95.317l.23588,1.43917L4.502,98.19508l.61,1.43873-.65655,1.43854.4687,1.43834-.28867,1.43815-.00543,1.438.5356,1.43783-.70211,1.43767.05676,1.43753.06785,1.4374.37525,1.43728.2121,1.43716-.18244,1.43707-.25791,1.437-.12735,1.4369.37162,1.43682.18556,1.43678L4.60965,122.633l.276,1.43669.39512,1.43666L4.79584,126.943l.46343,1.43664-.05008,1.43666-.64281,1.43667.30686,1.43671.44035,1.43674-.56642,1.4368.37183,1.43687.05927,1.43695-.61153,1.437.55358,1.43713.13681,1.43726-.13864,1.43737-.39226,1.43752.46605,1.43767-.18586,1.43783-.39646,1.438-.12635,1.4382.50432,1.4384-.37865,1.43861.68008,1.43884L4.56409,157.13l.70549,1.43934-.49128,1.4396.05877,1.43989.07358,1.44018-.108,1.44049.29749,1.44063-.40665,1.44035-.03416,1.44007.183,1.43983-.34611,1.43958.45235,1.43936.11322,1.43915-.19007,1.43895.27436,1.43877-.45945,1.43861.32435,1.43846.11264,1.43832L4.78,183.03975l-.21225,1.4381-.2404,1.438.58913,1.43793L4.747,188.79167l.17924,1.43784-.466,1.43782-.124,1.43781.42839,1.43782.404,1.43785L4.7623,197.4187l.53277,1.438-.539,1.438-.00534,1.43812.24094,1.43825-.49357,1.43837.18427,1.43852-.16514,1.43869.68233,1.43888-.84942,1.43908.4239,1.4393-.091,1.43955-.02439,1.43981-.32624,1.4401L5.07,217.56375l.1684,1.44071-.25,1.44106-.10672,1.44083-.21271,1.44054.39082,1.44026.07465,1.44.16812,1.43977-.70217,1.43957-.0939,1.43938-.14915,1.43922.38682,1.43907-.02368,1.439L4.785,236.282l.1026,1.43878-.11517,1.43871-.23259,1.43869.32259,1.43869-.45958,1.4387.16687,1.43874-.18018,1.43881.81985,1.4389-.226,1.439.30848,1.43916-.46156,1.43933L5.155,253.549l-.45223,1.43974-.087,1.44.09751,1.44026.42048,1.44056L4.509,260.75044l.49739,1.44125-.21027,1.44119-.18931,1.44087-.053,1.44059.18336,1.44032-.41359,1.44009.61452,1.4399-.31376,1.43972.568,1.43958-.71654,1.43948.53059,1.4394-.17081,1.43936-.35118,1.43935.6082,1.43937-.25693,1.43943.40242,1.43952-.32081,1.43965-.33772,1.43981.44429,1.44-.52535,1.44024-.17252,1.44051.07569,1.44081.85,1.44116.05667,1.44154-.4832,1.44134.24613,1.441-.41838,1.44072.02448,1.44047.31889,1.44027.04,1.44011-.709,1.44.44124,1.43526.27781,1.4357-.6711,1.43617.40177,1.43671-.34763,1.43727.53853,1.4379L4.705,315.45506l-.15659,1.43928.52934,1.44.15485,1.44086L5.20824,321.217l-.34764,1.44151.23664,1.44079-.04776,1.44011.13547,1.4395-.68483,1.43895-.1027,1.43844.32051,1.438.31916,1.43762-.271,1.43728.53212,1.437L5.10878,337.043l-.01846,1.43668-.34566,1.43661-.35352,1.4366.41172,1.43666.35707,1.43678-.46532,1.437-.15808,1.43725.38291,1.43759.34807,1.438-.44139,1.4385-.17521,1.43906.51415,1.4397-.75137,1.44043.839,1.44124-.81058,1.44213.69226,1.443-.3199,1.44218-.4156,1.44142.349,1.44076-.35344,1.44019.11158,1.43972.13767,1.43934-.00986,1.43907-.25071,1.4389.34224,1.43884-.24345,1.43888.42622,1.439-.25471,1.43931.319,1.43969.01188,1.44019.22342,1.44083-.71306,1.44157L5.16,384.54263l-.32261,1.44348.47609,1.44307-.85162,1.44224L4.758,390.313l-.01248,1.441L4.85,393.19468l-.00531,1.44045-.50666,1.4404.13641,1.44051.55245,1.4408-.41969,1.44127L4.42477,401.84l-.10514,1.44276.25651,1.44381.25285,1.44363.23047,1.44277.21934,1.44212-.73467,1.4417.63594,1.44153-.19635,1.44158-.27232,1.44191.38179,1.44248-.633,1.44333.38771,1.44447-.08222,1.44369.20292,1.44292-.2349,1.44247-.38219,1.44236.00266,1.44259.43446,1.4432.30262,1.44419-.3701,1.44436.23842,1.44348-.147,1.443-.24272,1.44307-.13693,1.44359.61882,1.43779-.70812,1.43822.91894,1.43924-.67745,1.44087-.18756,1.44317.02545,1.44582.72542,1.4434-.3209,1.44178.2169,1.441-.07334,1.44119-.29624,1.44235.57881,1.44457.005,1.44611-.22645,1.44391-.40938,1.44309.53914,1.44378.03867,1.44611.07846,1.44583.00769,1.44456-.19394,1.44556-.4756,1.44721-.18369,1.4456L4.5,469.66955,5.0468,471.116l-.71362,1.44785.42592,1.44376-.2216,1.4438L5.29079,476.9l-.4683,1.44618.46,1.44813L4.426,481.24408l.2327,1.44769L4.641,484.14285l.25823,1.45924Z"/><path class="cls-2" d="M532.95463,481.85746l-1.12294.6037-1.43519-.36253-1.43538.39924-1.43558-.62416-1.43577.54863-1.436-.04944-1.4362.1778-1.4364-.69573-1.43663.08243-1.43686-.12592-1.43709.33894-1.43733-.0897-1.43757.27754-1.43783.18949-1.43807.00769-1.43834-.67174-1.43831.45722-1.43808-.1669-1.43786.21973-1.43764-.36073-1.43743-.21912-1.43723.69668-1.437-.597-1.43684.652-1.43664-.40306-1.43647.357-1.43629-.8041-1.43613.30027-1.436.06937-1.4358-.38884-1.43566.97592-1.43551-.46617-1.43538.45253-1.43524-.30973-1.43512-.52587-1.435.5754-1.43489-.61055-1.43479.02881-1.43469.85158-1.4346-.58024-1.43452-.391-1.43444.4634-1.43436-.38994-1.43431.45119-1.43424.39545-1.4342-.264-1.43415-.28458-1.43412.05169-1.43409.20768-1.43406.17756-1.43405-.69454-1.434.07758-1.434-.17893-1.434.4449-1.43406.35978-1.43409.07739-1.43411-.6321-1.43414.189-1.4342-.29515-1.43424.1276-1.4343.65163-1.43436-.47316-1.43445-.26936-1.43452.15992-1.43461.10889-1.43471.19331-1.43481.19257-1.43493-.34352-1.435-.20432-1.43518.2476-1.43531-.52517-1.43547.58669-1.43561-.22846-1.43578.20966-1.43594-.31043-1.43613.46125-1.43631-.74285-1.43651.50109-1.43672-.01328-1.43692.379-1.43715-.05939-1.43738.06549-1.43761-.54973-1.43787-.06009-1.43812-.19306-1.43838.04416-1.43867-.045-1.43894.90149-1.43915-.1338-1.43888-.61937-1.43864.35951-1.4384-.549-1.43816.15491-1.438.23081-1.43774.40981-1.43753-.0286-1.43735-.61412-1.43716.05185-1.437.72933-1.43682-.82714-1.43668.62178-1.43653-.75347-1.43641.26938-1.43628.468-1.43617-.65353-1.43607.237-1.436.5959-1.4359-.537-1.43583.31095-1.43578-.1571-1.43572.387-1.4357-.55806-1.43566.52611-1.43565-.16028-1.43565-.4836-1.43566.71758-1.43568-.21949-1.43571-.42845-1.43575.09794-1.4358-.27534-1.43587.05566-1.43595.49349-1.436-.13407-1.43615-.26948-1.43625.21494-1.43638-.48109-1.43652.2663-1.43668.03763-1.43683.34114-1.437.0462-1.4372-.36585-1.4374.55336-1.43762-.90295-1.43784.54045-1.43809-.16825-1.43833.602-1.43861-.51482-1.43889-.45555-1.43918.72265-1.43949-.146-1.43963.38-1.43935-.005-1.43908-.14331-1.43882-.75253-1.43859.2093-1.43836.718-1.43815-.2588-1.438-.2233-1.43777.15875-1.43761-.02075-1.43746.07279-1.43732.02258-1.4372-.72484-1.4371.964-1.437-.69487-1.43694.30106-1.43688-.15747-1.43684.062L304.879,482.087l-1.43682.303-1.43682-.59279-1.43685.83166-1.4369-.168-1.43695.10144-1.437-.17374-1.43713-.48124-1.43724.13379-1.43737.4015-1.43753-.286-1.43769.006-1.43788-.16162-1.43808-.09348-1.43831.66259-1.43855.06567-1.43881-.28876-1.4391-.32258-1.43939.61024-1.43972-.20688-1.44-.263-1.43984.35853-1.43954-.2663-1.43926.09439-1.439-.46138-1.43879.14582-1.43857.23862-1.43838.10383-1.43822.13327-1.43807-.62752-1.438.42341-1.43785-.59385-1.43777.398-1.43772-.41331-1.43769.39182-1.43769-.06161-1.4377.62251-1.43774-.004-1.43781-.21131-1.43791-.55375-1.438.52208-1.43816.15479-1.43832-.06571-1.43852-.62932-1.43875.08661-1.439-.23182-1.43926.7319-1.43957.03845-1.43989-.359-1.44024.4886-1.4402-.27592-1.43987.03287-1.43959-.50905-1.43932.57924-1.43909-.32767-1.4389-.38087-1.43872.52977-1.43859.31989-1.43848.03485-1.4384-.90063-1.43836.18131-1.43835.02991-1.43838.71832-1.43843-.0279-1.43852-.94595-1.43865.58321-1.43881-.52251-1.439.77178-1.43924-.3194-1.4395.29069-1.43982-.661-1.44016.46257-1.44054-.28174-1.44033.02487-1.44.42244-1.43973-.73748-1.43947-.014-1.43927.46135-1.43911-.46376-1.439.7716-1.43426-.2884-1.4347.31278-1.43518-.079-1.43571-.72005-1.43628.36558-1.4369.43009-1.43756-.48344-1.43829.13065-1.439.45527-1.43987-.3545-1.44073.12769-1.4405.01227-1.43979-.34468-1.43912.2332-1.4385-.13709-1.43794.05585-1.43745-.35081-1.437-.13822-1.43661.22193-1.4363.612-1.436.056-1.43583-.08576-1.43568-.79354-1.43562.58235-1.4356-.18091-1.43566.04987-1.43579-.17024-1.436.18055-1.43625.43-1.43659-.11652-1.437-.60119-1.4375-.0014-1.43806.36329-1.43871-.34315-1.43943-.054-1.44024.25221-1.44113.098-1.442-.22275-1.44118.18351-1.44042.08109-1.43976.0993-1.43919.09821-1.43872-.64394-1.43835.779-1.43807-.86362-1.4379.81738-1.43784-.632-1.43788-.17176-1.438.31126-1.4383-.13315-1.43869.55763-1.4392-.38554-1.43982.17359-1.44058-.32966-1.44146.49584-1.44248-.30488-1.44206.29627-1.44125.14286-1.44056-.81735-1.44.49876-1.43966-.31287-1.43945-.19291-1.4394.01795-1.43951.32783-1.4398.41151-1.44027-.09733-1.44092-.08063-1.44177-.45762-1.4428.80065-1.44263-.638-1.44177-.03494-1.44112-.20249-1.4407.6212-1.44053-.47151-1.44058-.0661-1.44091.21091-1.44148.58062-1.44233-.50774-1.44347.11942-1.44269.33515-1.44192-.45674L73.2259,482.046l-1.44135-.20767-1.44159.80932-1.4422-.16691-1.44319-.76229-1.44336.68642-1.44248-.43428-1.442-.0036-1.44207.09189-1.44259-.11743-1.43679.46617-1.43722-.599-1.43824-.12036-1.43988.46678-1.44216.24265-1.44482.04675-1.4424-.69295-1.44078.33607-1.44-.38176-1.44019-.03924-1.44135.80047-1.44357-.47173-1.44511.48216-1.44291-.445-1.44209-.338-1.44277.44994-1.44511-.00522-1.44483.31892-1.44356-.157-1.44456-.62227-1.4462.49754-1.4446.22312-1.44629.20853-1.44547-.39143-1.44685.10187-1.44276.20942-1.44279-.82995-1.44757.63277-1.44518-.16629-1.44712.14118-1.44875-.4399-1.44669.70574-1.45008-.79317-1.45241.59032-1.33062-.32639-.14216-1.31364L9.57959,479.292l.1656-1.43655L9.74336,476.419l-.06629-1.43638.1774-1.4363L9.41382,472.11l.41612-1.43617.0849-1.43611-.21213-1.43606.19-1.436-.09943-1.436.13191-1.436-.69207-1.43593.94262-1.43592-.32951-1.4359.2212-1.43591-.11124-1.43591-.60375-1.43593.19114-1.43594-.064-1.436-.27243-1.436.14777-1.43606.10385-1.4361.43568-1.43617-.01373-1.43623-.32731-1.43631-.08558-1.43638.19642-1.43648L9.94447,439.08,9.296,437.64333l.5637-1.43679-.02154-1.43691-.13785-1.437.28507-1.43718.00616-1.43733-.35511-1.43748L9.2633,427.583l.52235-1.43782-.07849-1.438.45744-1.43818L9.225,421.83059l.32981-1.43859-.31623-1.43879.47276-1.439.26081-1.43925.12278-1.43949-.28666-1.43973-.33336-1.44.15281-1.44026-.313-1.44053.337-1.44082.40876-1.441.02375-1.44076-.68646-1.44051.28041-1.44026-.08567-1.44.50456-1.43982-.52647-1.4396-.08136-1.43941.29749-1.43921.121-1.439-.34389-1.43885.40965-1.4387-.14905-1.43854-.46-1.43841-.00376-1.43827.83511-1.43814-.82265-1.438.63722-1.43794-.684-1.43785.47453-1.43776-.20267-1.4377.50832-1.43764-.795-1.4376.337-1.43756L9.5072,371.464l.55227-1.43752-.23436-1.43751.07557-1.43753-.42711-1.43754-.25132-1.43758.64608-1.43761L9.27807,361.401l.00211-1.43773.25641-1.43782-.01184-1.43791.18082-1.438-.17624-1.43812.45656-1.43825-.08536-1.43839.16443-1.43854-.30381-1.4387-.43361-1.43888.17963-1.43906L9.274,344.1403l.85077-1.43949-.05127-1.43971-.39131-1.44-.27189-1.44021.536-1.44047.24083-1.44076L10.14,334.05865l-.041-1.44136-.06238-1.44151-.57061-1.44121-.21836-1.441.63464-1.44069.201-1.44046-.00433-1.44023.04022-1.44-.32792-1.43982.17923-1.43965-.74449-1.43947.89559-1.43933-.28492-1.43919L9.37,313.89567l.02027-1.439.49681-1.43888L9.63849,309.579,9.448,308.14027l.7025-1.43872-.72561-1.43868.48876-1.43869.11609-1.43869-.00751-1.43872L9.42584,299.508l.61281-1.43882.02964-1.43891-.77026-1.439.057-1.43912.05341-1.43924.35059-1.43939L9.35391,289.434l.07077-1.43975.38356-1.44.33637-1.44017-.75344-1.44042.65041-1.44069-.524-1.441.03568-1.44127.52971-1.44158-.25972-1.44193-.45692-1.44171.34986-1.44141.37746-1.44113-.31743-1.44089-.31641-1.44065L9.905,267.821l.035-1.44025-.21034-1.44009.06348-1.43994.14194-1.43982.22782-1.43972-.5439-1.43964L9.47244,257.742l-.09418-1.43956-.09976-1.43956.43458-1.43957.05008-1.43961.0643-1.43968-.3502-1.43977-.09921-1.43989.30409-1.44-.12385-1.4402-.01846-1.44039L9.4722,241.9031l-.11786-1.44086.07648-1.44113.50767-1.44143.0271-1.44177-.11423-1.44212-.47612-1.44206L9.5929,231.812l.285-1.44145-.14649-1.4412-.426-1.441-.05649-1.44077.87924-1.44059-.129-1.44046-.1955-1.44035.14545-1.44027L9.391,218.8457l.3133-1.44022-.2833-1.44025.14289-1.4403-.01194-1.44039.3455-1.44052.039-1.44068-.08442-1.44088.00391-1.44111.30619-1.44138-.74346-1.44169.60045-1.442-.6755-1.44241.0984-1.44221-.00751-1.44188-.1919-1.4416L9.668,195.7868l-.28651-1.44114-.134-1.441.88553-1.44086-.24739-1.43613.01313-1.43656-.54824-1.437.24812-1.43757-.282-1.43815-.10654-1.43877.96606-1.43943L10.08406,179.96l-.01751-1.44092-.042-1.44173-.696-1.4426.32124-1.44238-.34621-1.44166.82217-1.441.05429-1.44037-.317-1.43982.02359-1.43931.17676-1.43887.11439-1.43848-.21046-1.43816-.532-1.43789.73373-1.43769-.46688-1.43756-.40174-1.43748.13782-1.43747.17942-1.43752.20453-1.43766-.3932-1.43785.06244-1.43812.26143-1.43847.038-1.43887.178-1.43937-.7073-1.43993.13254-1.44057.23051-1.44131L9.559,139.65485l-.29148-1.443.078-1.4439.26511-1.443.34956-1.4423.11444-1.44163-.24985-1.44106.261-1.44059L9.743,128.1191l.25047-1.43994.03631-1.43977-.69988-1.43971.20856-1.43975.341-1.4399-.31581-1.44018.35548-1.44056-.602-1.44107.80838-1.44169-.18983-1.44245-.55421-1.44334.28486-1.44435-.22471-1.44394.41536-1.44312-.35789-1.44243L9.534,105.055l-.01874-1.44154.0347-1.44132.55037-1.44127-.69207-1.44138.73834-1.44167L9.79,96.40567l-.10386-1.4428-.28464-1.44364.5504-1.44468L9.89891,90.63,9.73448,89.1864l-.52733-1.443.02224-1.44258.17817-1.4424L10.0255,83.416,9.39837,81.9732l.68215-1.44336-.47288-1.4442.22483-1.44535.20484-1.44457L9.381,74.75193l.32972-1.44334-.38908-1.44323.74212-1.44347-.36857-1.44407.13812-1.44506.1713-1.44524L9.4314,64.64317l.29642-1.44391-.2006-1.44394.06013-1.44447-.12553-1.43866L9.4064,57.4331l.66711-1.44011-.0138-1.44174L9.3829,53.1072l.80514-1.44669-.92975-1.44428.10984-1.44265.15412-1.4419.16254-1.44207.16572-1.44322L9.51709,43.001l.60643-1.447.07792-1.44479-.70229-1.444-.058-1.44465-.18683-1.447.024-1.44671-.00916-1.44544L9.493,31.435l.2823-1.44808.05982-1.44648-.29979-1.44817.35444-1.44735-.05237-1.44873.16868-1.44463-.55495-1.44467.51143-1.44946-.0842-1.44705-.61415-1.449.44969-1.45063-.16151-1.44857.03287-1.452.34007-1.4543-.1233-1.35507,1.33444-.40446L12.5717,9.793l1.43538-.166,1.43557.06241,1.43578.15778,1.436-.06076,1.43619.089,1.43641-.476,1.43663.37248,1.43686.20481,1.43709-.72155,1.43732.28953,1.43758.42585,1.43782-.55226,1.43808-.02371,1.43834.24875L34.125,9.961l1.43808.17618L37.001,9.28l1.43764.50762,1.43743-.31547,1.43722.26572,1.437.2765,1.43683-.41646,1.43665-.10712,1.43647-.2316,1.43629.35313,1.43612-.39067,1.436-.01791,1.43581.54231,1.43565.1804,1.43552-.33052,1.43537.08521,1.43525-.1739L59.98134,9.298l1.435.3943,1.4349-.049L64.286,9.52754l1.43469.49855,1.4346-.0629,1.43451.19248,1.43444-.15305,1.43437-.754,1.4343.45918,1.43425-.11334,1.4342-.12867L77.19554,9.33l1.43411.24714,1.43409.15177,1.43407-.25306,1.434-.12891,1.434.58879,1.434-.675,1.434.07224,1.43406.43638,1.43408-.46888,1.43411.36747,1.43415.12617,1.43419.13281,1.43424-.3534,1.4343.12076,1.43437-.44005,1.43444.10331,1.43452-.068,1.43462.0394,1.43471.03446,1.43481.26627,1.43493-.03473,1.435.02576,1.43518-.07245,1.43531.18528,1.43546.4449,1.43562-.00919,1.43577-.763,1.436.22776L118.8,9.87124l1.43631-.2331,1.43651-.19636,1.43671.63778,1.43693.05731,1.43714-.00327,1.43738-.02014,1.43762-.8522,1.43786.90573,1.43812-.37571L133.173,9.6595l1.43866-.24531,1.439.39036,1.43914-.38807,1.43889.25575,1.43864.28446,1.43839.05463,1.43817-.49065,1.438.36812,1.43773-.62856,1.43754.83892,1.43734-.501,1.43716.56956,1.437-.52372,1.43683-.20014L154.742,9.987l1.43653.1327,1.4364-.43193,1.43628.21241,1.43617.25684,1.43607-.796,1.436.09555,1.43591.17966,1.43583.134,1.43577.08942,1.43573-.12763,1.43569-.12445,1.43567-.25193,1.43565-.01468,1.43565.50135,1.43566-.45472,1.43567.55617,1.43571-.72039,1.43575.963L182.024,9.575l1.43587-.072,1.43595.54872,1.436-.00729,1.43614-.54854,1.43626.02789,1.43638.374,1.43652-.12745,1.43667-.35117,1.43684.17218,1.437.10422,1.4372.2617,1.4374.04736,1.43761-.71086,1.43785.68813,1.43808-.30906,1.43834-.47026,1.43861.10471,1.43888.70207,1.43918-.6534,1.4395-.03314,1.43963.68017,1.43934-.30162,1.43908-.23185,1.43883.0231,1.43858-.0737,1.43837-.00137,1.43815.08505,1.438-.28064,1.43778.71926,1.4376.05743,1.43746-.58238,1.43733-.12122,1.4372.24253,1.4371.52168,1.437.06708,1.43694-.4196,1.43689.18116,1.43684.10974,1.43682.1193,1.43681-.25437,1.43683-.6082,1.43685.43629,1.43689.08826,1.437-.0177,1.437-.3249,1.43713-.09272,1.43724.22276,1.43738-.188,1.43752.27372,1.4377-.18967,1.43788.10294,1.43808.40461,1.43831-.2771,1.43855-.27473,1.43881.15027,1.43909-.05365,1.4394.67687,1.43971-.61983,1.44006-.32283,1.43983.765,1.43954-.66295,1.43927.07764,1.439.1001,1.43878.33814,1.43857.10715,1.43838-.18375,1.43822-.05789,1.43807.30961,1.438.099,1.43785-.76736,1.43778.2494,1.43772-.36189,1.43769.11594,1.43768.48866,1.43771.04682,1.43774.004,1.43781-.263,1.4379.22874,1.438-.54253,1.43816.59908,1.43833.12814,1.43852-.26713,1.43874.11161,1.439-.57649,1.43926.20459,1.43956.38982,1.43989-.531,1.44025.21653,1.44019-.22974,1.43988.61534,1.43958-.31888,1.43933.14392,1.43909.2584,1.43889-.65886,1.43873.61687,1.43858-.63076,1.43848.69869,1.43841-.801,1.43836.67745,1.43835-.36784,1.43837.5364,1.43843-.475,1.43853.02554,1.43865-.04,1.43881-.07245,1.439.30918,1.43924-.14682,1.43951-.36305,1.43981.13611,1.44016.21586,1.44054.31413,1.44034-.444,1.44-.34275,1.43972.79879,1.43948-.25529,1.43927.07929,1.43911-.30738,1.439.03668,1.43426-.20053,1.4347.52989,1.43519-.3979,1.4357.3144,1.43628.12516,1.4369-.55684,1.43757-.04322,1.43828-.026,1.43905.19932,1.43986-.30034,1.44073.81891,1.44051-.4384,1.43979-.04242,1.43911-.33369,1.43851.87316,1.43794-.10611,1.43744-.16465,1.437-.52983,1.43662.0347,1.43629.07065,1.436-.1518,1.43582.53054,1.43569.15845,1.43561-.4428L387.671,9.881l1.43566-.52693,1.43579.47523,1.436-.53782,1.43626-.00071,1.43659.5526,1.437-.62065,1.43749.13568,1.43807.84189,1.4387-.29222,1.43943.19279,1.44024-.78726,1.44113.66262,1.442-.62535,1.44118.53086,1.44042.22725,1.43976-.29613,1.4392.182,1.43872-.10551,1.43834-.0794,1.43807.09213,1.43791-.34483,1.43783.1142,1.43789.37163,1.438-.30836,1.43831.05237,1.43869.27036,1.4392.071,1.43982-.00235,1.44058-.54088,1.44146-.28483,1.44247.06622,1.44207.69372,1.44124-.73495,1.44057.82144,1.44-.69787,1.43967.49751,1.43945.149,1.43939.08218,1.43951-.71852,1.43981-.07859,1.44026.69649,1.44093-.81212,1.44176.17078,1.44281.57182,1.44263-.22477,1.44176-.29572,1.44112.4767,1.44071-.38789,1.44052-.20631,1.44059-.0227,1.4409.41761,1.44148.01569,1.44234-.03311,1.44346-.1106,1.4427.11542,1.44192.23206,1.44146-.28465,1.44136.09254,1.44159-.267,1.4422-.10758,1.44319.32219,1.44336.34248,1.44247-.31862,1.442.17954,1.44206-.02786,1.44259-.44,1.4368.02283,1.43722.48631,1.43824-.70073,1.43987.24351,1.44217.19385,1.44482-.01166,1.4424-.43278,1.44078.85793,1.44-.82625,1.44019.75606,1.44135-.39311,1.44357-.17432,1.4451.22343,1.44291.03036,1.44209-.36265,1.44278.74407,1.4451-.68083,1.44484.28779,1.44356.09466,1.44456-.54637,1.4462.40755,1.4446-.28077,1.44628.593,1.44548-.41578,1.44684.6046,1.44276-.25178,1.4428.14414,1.44757-.79861,1.44518.46617,1.44712.21308,1.44875-.24076,1.44669.18034,1.45007-.54674,1.45241.83782,1.41248-.45731.05249,1.39639.28254,1.43665-.61778,1.43656.48359,1.43647-.0983,1.43638-.33213,1.4363.25633,1.43623.04355,1.43617.13129,1.43611-.09339,1.43606.30989,1.436.05951,1.436-.49648,1.43595-.017,1.43593-.093,1.43591.34337,1.43591.31318,1.43591-.65514,1.43591-.041,1.43592.056,1.436.54653,1.436-.35853,1.436-.406,1.43605-.07435,1.43611.92188,1.43617-.60909,1.43623.16184,1.4363.0835,1.43639.2034,1.43648-.54759,1.43657-.04914,1.43668.391,1.4368.164,1.43691.17786,1.437-.00991,1.43719-.86526,1.43732.57039,1.43749.11884,1.43764-.688,1.43781-.03592,1.438.56807,1.43818.16245,1.43837.05215,1.43858-.05563,1.4388-.16135,1.439-.02762,1.43925-.24092,1.43948.604,1.43974-.09379,1.44-.39048,1.44025.29014,1.44054-.15223,1.44081-.03326,1.441.20728,1.44076-.33153,1.4405-.38724,1.44027.61616,1.44-.42353,1.43981.27619,1.43961.14106,1.4394-.148,1.43921-.385,1.439.75778,1.43886-.25489,1.4387-.27705,1.43854.3975,1.4384.01,1.43827-.06,1.43815.0026,1.438-.18125,1.43794-.36738,1.43784.81789,1.43777-.73913,1.4377.66808,1.43764-.7849,1.4376.53966,1.43755L533.135,120.403l.00733,1.43751-.16608,1.43752-.18092,1.43752.19556,1.43755.72924,1.43757-.86373,1.43762L533.13,130.466l-.28166,1.43774.17,1.43782.38444,1.4379-.48228,1.438.84542,1.43813-.348,1.43825-.16394,1.43838-.12657,1.43854.401,1.43871-.16935,1.43887-.16431,1.43907-.4272,1.43927.80395,1.43949-.27833,1.43971-.00824,1.44.328,1.44021-.57213,1.44048.28233,1.44076-.18509,1.441.14291,1.44136.36128,1.4415-.57747,1.44122.19221,1.441.24286,1.4407-.06052,1.44046.32127,1.44023-.92807,1.44-.00451,1.43982.42634,1.43964-.07831,1.43948-.26514,1.43933.69969,1.43919-.78154,1.43907.48176,1.439.026,1.43888.11619,1.43881-.05152,1.43875.05393,1.43871-.07749,1.43869-.38444,1.43868-.13862,1.4387.77008,1.43871-.18739,1.43877-.18164,1.43882-.1605,1.4389-.19428,1.439.86019,1.43911-.39756,1.43925-.54927,1.43939.8991,1.43956-.16947,1.43975-.6476,1.44.39549,1.44018.29988,1.44042-.248,1.44068.32643,1.441-.27333,1.44126.02262,1.44159-.21146,1.44193.015,1.4417.21864,1.44142.27979,1.44113-.30186,1.44089-.63283,1.44065.259,1.44044-.03031,1.44025.25239,1.44009-.24134,1.43994.63924,1.43982.09388,1.43972-.00843,1.43964-.42259,1.43959-.38123,1.43956-.02085,1.43955.69152,1.43957-.69893,1.43962.63735,1.43968.17981,1.43977-.08487,1.43989-.058,1.44.05067,1.4402-.06623,1.44039.02618,1.44061-.26566,1.44086.26493,1.44113.04908,1.44143.03811,1.44176-.06219,1.44212-.3556,1.44207.09469,1.44175-.32581,1.44145.63451,1.4412-.43239,1.441-.22876,1.44077.01342,1.44059.39238,1.44046.0069,1.44035.336,1.44027-.90231,1.44023.67085,1.44022.00647,1.44025-.04168,1.4403-.12565,1.44039-.156,1.44052.43391,1.44068-.12113,1.44088-.14975,1.44111-.28471,1.44138.38,1.44168.24927,1.442-.16864,1.44242-.59945,1.44221.58215,1.44188-.47405,1.4416.12354,1.44134.45186,1.44114-.754,1.441.29416,1.44086.56908,1.43613-.90057,1.43656.64092,1.437-.604,1.43757.7943,1.43815-.51423,1.43877-.15662,1.43943.2388,1.44015.04307,1.44092-.23362,1.44174.00424,1.4426.15784,1.44238-.02881,1.44166-.04678,1.441.51417,1.44037-.29121,1.43981-.22312,1.43932.37511,1.43886-.55745,1.43849.76509,1.43816.04181,1.43789-.36964,1.43769-.37485,1.43755.29435,1.43748-.34132,1.43747-.09333,1.43753.77465,1.43766-.30961,1.43785.21925,1.43812-.457,1.43846-.01,1.43888.5342,1.43936-.76165,1.43993.70891,1.44058L533.62,350.77l-.34016,1.44211-.41078,1.443.07575,1.4439.79107,1.443-.59978,1.44229.52431,1.44163-.64449,1.44107.168,1.44059-.1127,1.44021.65706,1.43994-.41859,1.43978.0011,1.4397.2819,1.43975-.7199,1.43991.00592,1.44018.15543,1.44056-.19132,1.44107.39408,1.44169.49068,1.44245-.69469,1.44334.47041,1.44435-.17811,1.44394.26411,1.44311-.26737,1.44244.31666,1.44191-.215,1.44154-.07908,1.44132-.47667,1.44126.14317,1.44139.31464,1.44167-.4615,1.44214.53813,1.4428-.50532,1.44364-.12543,1.44468.78615,1.4445-.46928,1.44364-.15165,1.443.56948,1.44258-.09906,1.44239-.20988,1.44246-.14847,1.44278.3144,1.44335-.594,1.44421.68117,1.44534-.511,1.44457.34028,1.4438.44624,1.44334-.5417,1.44323.0556,1.44346.41,1.44408-.38459,1.44506-.27174,1.44524-.19245,1.44435.12082,1.44391.15159,1.44394-.06436,1.44446.16943,1.43867-.3325,1.43909.37364,1.44011.24739,1.44174-.62991,1.444.44145,1.4467.23579,1.44428.21033,1.44265-.6161,1.4419-.1594,1.44206-.12614,1.44323.55755,1.44544.051,1.447-.33417,1.44478.01886,1.444.53767,1.44465-.74731,1.447.4775,1.44671.15265,1.44544.14325,1.44644.01679,1.44808-.71169,1.44648.28107,1.44816-.38807,1.44736.42674,1.44872-.03247,1.44464.199,1.44467-.4235,1.44945.21121,1.44706-.26972,1.449.12275,1.45064.23819,1.44857-.11166,1.452.088,1.4615ZM11.799,480.06485l1.74987-.60423,1.43854.36253,1.43876-.39925,1.439.62417,1.4392-.54863,1.43941.04944,1.43966-.1778,1.43989.69573,1.44013-.08243,1.44039.12592,1.44064-.33894,1.44091.08969,1.44087-.27753,1.44065-.18949,1.44042-.00769,1.4402.67174,1.44-.45723,1.43979.16691,1.43959-.21974,1.43939.36073,1.43921.21912,1.439-.69667,1.43885.597,1.43868-.652,1.43852.40306,1.43837-.357,1.43821.8041,1.43808-.30027,1.43793-.06937,1.43781.38883,1.43768-.97592,1.43756.46617,1.43745-.45253,1.43735.30974,1.43725.52586,1.43715-.5754,1.43708.61056,1.437-.02881,1.43693-.85159,1.43686.58025,1.4368.391,1.43675-.46339,1.43671.38993,1.43668-.45118,1.43664-.39546,1.43662.26395,1.43661.28459,1.4366-.0517,1.43659-.20768,1.43661-.17755,1.43662.69454,1.43664-.07758,1.43666.17893,1.43671-.4449,1.43675-.35978,1.43679-.0774,1.43686.6321,1.43693-.189,1.437.29514,1.43708-.12759,1.43717-.65164,1.43727.47316,1.43737.26936,1.43749-.15992,1.43761-.10889,1.43773-.1933,1.43788-.19257,1.438.34351,1.43817.20432,1.43834-.24759,1.43851.52516,1.43868-.58669,1.43888.22846,1.43907-.20966,1.43927.31044,1.43949-.46126,1.43971.74285,1.43994-.50108,1.44018.01327,1.44042-.379,1.44069.05939,1.441-.06549,1.44123.54973,1.44151.06009,1.44171.19306,1.44145-.04416,1.4412.045,1.441-.90149,1.44073.13379,1.44051.61938,1.4403-.35951,1.4401.549,1.43991-.15491,1.43972-.23081,1.43955-.4098,1.43939.02859,1.43924.61413,1.43909-.05185,1.439-.72933,1.43884.82714,1.43873-.62178,1.43863.75347,1.43854-.26939,1.43846-.468,1.43839.65352,1.43834-.237,1.43828-.5959,1.43825.537,1.43823-.31095,1.43821.15711,1.43821-.387,1.43822.55807,1.43823-.52611,1.43827.16028,1.43831.4836,1.43837-.71759,1.43843.21949,1.43851.42845,1.4386-.09793,1.4387.27534,1.43882-.05567,1.43894-.49348,1.43908.13406,1.43923.26948,1.4394-.21494,1.43957.48109,1.43976-.2663,1.44-.03763,1.44018-.34113,1.4404-.04621,1.44065.36586,1.44091-.55337,1.44117.903,1.44145-.54046,1.44175.16825,1.442-.602,1.4422.51482,1.44191.45555,1.44165-.72265,1.44139.146,1.44115-.38,1.44092.005,1.44072.14332,1.44052.75252,1.44033-.20929,1.44018-.718,1.44.25879,1.43988.22331,1.43977-.15876,1.43966.02075,1.43957-.07278,1.43951-.02259,1.43944.72485,1.43941-.964,1.43938.69488,1.43938-.30107,1.43938.15748,1.43941-.062,1.43946.07193,1.43952-.303,1.43959.59279,1.43969-.83166,1.43981.168,1.43994-.10144,1.44008.17374,1.44026.48125,1.44044-.13379,1.44065-.40151,1.44087.286,1.44112-.006,1.44137.16163,1.44166.09347,1.442-.66258,1.44229-.06568,1.44262.28877,1.4424.32258,1.4421-.61025,1.44184.20688,1.44157.263,1.44135-.35853,1.44114.26631,1.44094-.0944,1.44078.46138,1.44064-.14582,1.44051-.23862,1.44041-.10382,1.44034-.13328,1.44029.62752,1.44025-.42341,1.44025.59386,1.44026-.398,1.44031.41331,1.44037-.39183,1.44047.06162,1.44058-.62252,1.44073.004,1.44089.21131,1.44108.55376,1.44131-.52208,1.44155-.15479,1.44183.0657,1.44213.62933,1.44245-.08661,1.44282.23181,1.44276-.73189,1.44244-.03845,1.44215.35895,1.44189-.4886,1.44166.27592,1.44146-.03287,1.44129.50905,1.44115-.57924,1.441.32768,1.441.38087,1.44093-.52977,1.44091-.3199,1.44094-.03485,1.441.90063,1.44109-.18131,1.44121-.02991,1.44137-.71831,1.44158.02789,1.4418.946,1.44208-.5832,1.44238.5225,1.44272-.77178,1.44311.31941,1.44291-.29069,1.44257.661,1.44229-.46257,1.442.28175,1.44183-.02487,1.44167-.42244,1.44155.73748,1.44148.014,1.43722-.46135,1.4377.46376,1.43823-.7716,1.4388.2884,1.43943-.31279,1.44009.079,1.44081.72,1.44158-.36558,1.44239-.4301,1.44326.48344,1.443-.13065,1.44231-.45527,1.44165.3545,1.441-.12769,1.44047-.01227,1.44.34468,1.43952-.23319,1.43914.13709,1.43882-.05585,1.43855.35081,1.43835.13822,1.4382-.22193,1.43814-.612,1.43812-.056,1.43819.08575,1.43831.79355,1.43851-.58236,1.43878.18092,1.43911-.04987,1.43954.17023,1.44-.18055,1.44059-.43,1.44123.11652,1.442.60118,1.44277.00141,1.44366-.3633,1.44456.34315,1.44371.054,1.44295-.2522,1.44229-.098,1.44172.22275,1.44125-.1835,1.44087-.08109,1.4406-.09931,1.44043-.09821,1.44036.64394,1.44041-.779,1.44056.86361,1.44084-.81738,1.44122.632,1.44172.17176,1.44235-.31126,1.44311.13315,1.444-.55763,1.445.38554,1.44459-.17359,1.44378.32966,1.4431-.49583,1.44256.30488,1.4422-.29628,1.442-.14285,1.44193.81734,1.442-.49876,1.44233.31288,1.4428.1929,1.44345-.01794,1.4443-.32783,1.44534-.41151,1.44517.09732,1.4443.08063,1.44365.45763,1.44324-.80066,1.443.638,1.44312.03495,1.44343.20249,1.444-.62121,1.44486.47151,1.446.06611,1.44523-.21092,1.44446-.58061,1.444.50773,1.44388-.11941,1.44413-.33516,1.44473.45674,1.44572.08237,1.4459.20768,1.445-.80932,1.44457.1669,1.4446.7623,1.44512-.68643,1.43932.43428,1.43975.0036,1.44076-.09189,1.44241.11744,1.4447-.46617,1.44736.599,1.44493.12037,1.44331-.46678,1.44256-.24265,1.44272-.04676,1.44388.69295,1.44611-.33607,1.44764.38176,1.44545.03925,1.44462-.80047,1.44531.47172,1.44765-.48216,1.44737.445,1.4461.338,1.44709-.44993,1.44874.00522,1.44714-.31892,1.44883.157,1.448.62227,1.44939-.49755,1.44529-.22312,1.44534-.20853,1.45011.39143,1.44772-.10187,1.44966-.20942,1.4513.83,1.44923-.63277,1.45262.1663,1.455-.14118,1.66535.3536-.61651-1.64823.79318-1.43482-.59032-1.43475.37644-1.43467-.19355-1.43461-.10153-1.43455.16559-1.4345-.00183-1.43446-.06628-1.43443.1774-1.43439-.44066-1.43437.41612-1.43436.08491-1.43434-.21214-1.43435.19-1.43436-.09943-1.43436.1319-1.43439-.69207-1.43442.94263-1.43445-.32951-1.4345.2212-1.43455-.11124-1.4346-.60375-1.43468.19114-1.43474-.064-1.43483-.27244-1.43492.14777-1.435.10386-1.43512.43568-1.43523-.01373-1.43536-.32732-1.43548-.08557-1.43562.19642-1.43577.28022-1.43592-.64843-1.43609.56371-1.43625-.02155-1.43643-.13785-1.43662.28507-1.43682.00617-1.437-.35511-1.43723-.37318-1.43745.52235-1.43769-.07849-1.43792.45744-1.43817-.93964-1.43843.32982-1.43869-.31623-1.439.47276-1.43926.26081-1.43945.12277-1.43919-.28666-1.43895-.33335-1.4387.15281-1.43848-.313-1.43825.337-1.438.40877-1.43784.02374-1.43765-.68645-1.43747.2804-1.4373-.08566-1.43713.50456-1.437-.52647-1.43685-.08137-1.4367.2975-1.43659.121-1.43648-.34388-1.43638.40965-1.43628-.149-1.43621-.46-1.43614-.00375-1.43608.83511-1.436-.82266-1.436.63723-1.436-.684-1.436.47453-1.436-.20267-1.436.50831-1.436-.795-1.436.337-1.43606-.14127-1.43611.55226-1.43618-.23435-1.43626.07557-1.43634-.42711-1.43645-.25132-1.43656.64608-1.43669-.59026-1.43683.0021-1.437.25642-1.43714-.01184-1.43732.18082-1.4375-.17624-1.43771.45655-1.43792-.08536-1.43815.16444-1.4384-.30382-1.43864-.4336-1.43891.17963-1.4392-.23316-1.43949.85076-1.43979-.05127-1.43994-.39131-1.43966-.27189-1.43938.536-1.43914.24082-1.43889-.04715-1.43867-.041-1.43846-.06238-1.43826-.5706-1.43808-.21836-1.43791.63463-1.43777.201-1.43763-.00434-1.43751.04023-1.43741-.32792-1.43732.17923-1.43724-.7445-1.43719.8956-1.43715-.28492-1.43713-.4666-1.43712.02026-1.43713.49681-1.43716-.2486-1.4372-.19053-1.43726.70251-1.43734-.72561-1.43744.48875-1.43755.1161-1.43768-.00751-1.43783-.59636-1.438.61281-1.43819.02963-1.43839-.77025-1.43861.057-1.43886.0534-1.43912.3506-1.4394-.40516-1.4397.07077-1.44.38355-1.44036.33638-1.44014-.75344-1.43985.65041-1.43957-.524-1.43932.03567-1.43909.52971-1.43888-.25971-1.43869-.45692-1.43852.34986-1.43838.37745-1.43825-.31742-1.43816-.31641-1.43808.44514-1.438.035-1.438-.21033-1.438.06348-1.438.14194-1.43805.22782-1.43812-.5439-1.43821-.14655-1.43832-.09418-1.43847-.09977-1.43863.43459-1.43883.05008-1.439.0643-1.4393-.3502-1.43956-.09921-1.43987.30408-1.4402-.12384-1.44055-.01847-1.44051L530.6284,233.98l-.11787-1.43989.07648-1.43963.50768-1.4394.0271-1.4392-.11423-1.439-.47612-1.4389.21766-1.43878.28495-1.43871-.14649-1.43867-.426-1.43866-.05649-1.43868.87924-1.43874-.129-1.43883-.1955-1.439.14545-1.43911-.55809-1.43932.3133-1.43954-.2833-1.43982.14288-1.44012-.01193-1.44047.3455-1.44084.039-1.44065-.08441-1.44032.00391-1.44.30619-1.43978-.74346-1.43958.60045-1.43941-.6755-1.43929.09839-1.43457-.0075-1.435-.1919-1.43549.42536-1.436-.28651-1.43659-.134-1.4372.88552-1.43788-.24738-1.43859.01312-1.43935-.54823-1.44017.24811-1.441-.282-1.44081-.10654-1.4401.96607-1.43942-.09217-1.43881-.01752-1.43825-.042-1.43776-.696-1.4373.32124-1.43692-.3462-1.4366.82217-1.43633.05429-1.43614-.317-1.436.0236-1.43592.17676-1.43591.11438-1.436-.21045-1.43609-.532-1.4363.73372-1.43656-.46687-1.4369-.40174-1.43731.13782-1.4378.17942-1.43837.20453-1.439-.3932-1.43974.06244-1.44054.26142-1.44144.038-1.44233.178-1.44148-.7073-1.44073.13255-1.44007.2305-1.4395-.06546-1.439-.29148-1.43865.078-1.43838.26512-1.43821.34956-1.43814.11444-1.43819-.24985-1.43835.261-1.43861-.34284-1.439.25046-1.4395.03632-1.44013-.69988-1.44089.20856-1.44176.341-1.44279-.3158-1.44237.35548-1.44155-.602-1.44087.80838-1.44035-.18983-1.44-.55422-1.43976.28486-1.4397-.2247-1.43982.41535-1.44011-.35789-1.44057.03485-1.44123-.01873-1.44208.0347-1.44311.55037-1.44294-.69207-1.44207.73833-1.44143-.35658-1.441-.10385-1.44083-.28465-1.4409.55041-1.44121-.053-1.44179-.16444-1.44264-.52733-1.44377.02225-1.443.17817-1.44223.61794-1.44178-.62713-1.44166.68215-1.4419-.47288-1.4425.22483-1.4435.20484-1.44367-.65637-1.44278.32973-1.44235-.38908-1.44237.74211-1.4429-.36857-1.4371.13813-1.43753.1713-1.43854-.57317-1.44018.29643-1.44248-.2006-1.44513.06012-1.4427-.12552-1.44109-.05542-1.44034.6671-1.4405-.01379-1.44165-.67681-1.44388.80514-1.44542-.92975-1.44321.10984-1.4424.15412-1.44309.16254-1.44541.16571-1.44514-.33341-1.44387.60643-1.44487.07792-1.44651-.7023-1.4449-.058-1.4466-.18684-1.44578.02405-1.44716-.00915-1.44306.22379-1.44311.2823-1.44788.05981-1.44549-.29978-1.44742.35444-1.44907-.05237-1.447.16868-1.45039-.555-1.45272.43587-1.63643-1.62388.00681-1.43854.61415-1.43875-.44969-1.439.16151-1.43919-.03287-1.43942-.34007-1.43965.08258-1.43989.44652-1.44014-.39665-1.44038.166-1.44065-.06241-1.4409-.15778-1.44088.06076-1.44064-.089-1.44042.476-1.4402-.37248-1.44-.20481L504.941,12.557l-1.43959-.28953-1.4394-.42585-1.43921.55226-1.439.02371-1.43885-.24875-1.43869-.31764-1.43852-.17618-1.43836.85714-1.43822-.50762-1.43807.31547-1.43794-.26572-1.4378-.2765-1.43768.41646-1.43756.10712-1.43745.2316-1.43735-.35313-1.43725.39067-1.43716.01791-1.43707-.54231-1.437-.1804-1.43692.33052-1.43686-.08521-1.43681.1739-1.43675.20923-1.43671-.3943-1.43667.049-1.43664.11578-1.43663-.49855-1.4366.0629-1.4366-.19248-1.4366.15305-1.4366.754-1.43662-.45918-1.43664.11334-1.43667.12867-1.4367.13587L451.755,12.2351l-1.4368-.15177-1.43686.25306-1.43692.12891-1.437-.58879-1.43708.675-1.43717-.07224-1.43727-.43638-1.43737.46888-1.43748-.36747-1.43761-.12617-1.43774-.13281-1.43787.3534-1.438-.12076-1.43818.44-1.43833-.10331-1.43851.068-1.43869-.0394-1.43887-.03446-1.43907-.26627-1.43927.03473-1.43949-.02576-1.43971.07245-1.43994-.18528-1.44018-.4449-1.44043.00919-1.44068.763-1.44095-.22776-1.44123-.23731-1.44151.2331-1.44171.19636-1.44145-.63778-1.44121-.05731-1.441.00327-1.44073.02014-1.44051.8522-1.4403-.90573-1.4401.37571-1.4399.13178-1.43972.24531-1.43956-.39036-1.43938.38807L391.31,12.14l-1.4391-.28446-1.439-.05463-1.43884.49065-1.43873-.36812-1.43863.62856-1.43854-.83892-1.43846.501-1.4384-.56956-1.43833.52372-1.43829.20014-1.43825-.54307-1.43822-.1327-1.43822.43193-1.4382-.21241-1.43822-.25684-1.43824.796-1.43827-.09555-1.43831-.17966-1.43836-.13395-1.43843-.08942-1.43851.12763-1.4386.12445-1.43871.25193-1.43881.01468L355.34743,11.97l-1.43909.45472-1.43923-.55617-1.43939.72039-1.43958-.963-1.43976.61132-1.44.072-1.44018-.54872-1.44041.00729-1.44065.54854-1.4409-.02789-1.44117-.374-1.44145.12745-1.44175.35117-1.44206-.17218-1.44219-.10422-1.44192-.2617-1.44164-.04736-1.44139.71086-1.44115-.68813-1.44093.30906-1.44071.47026-1.44052-.10471-1.44034-.70207-1.44017.6534-1.44.03314-1.43989-.68017-1.43976.30162-1.43967.23185-1.43957-.0231-1.4395.0737-1.43945.00137-1.4394-.085-1.43938.28064-1.43938-.71926-1.43938-.05743-1.43942.58238-1.43945.12122-1.43952-.24253-1.4396-.52168-1.43969-.06708-1.4398.4196-1.43994-.18116-1.44009-.10974-1.44025-.1193-1.44045.25437-1.44064.6082-1.44087-.43629-1.44112-.08826-1.44138.0177-1.44166.3249-1.442.09272-1.44228-.22276-1.44262.188-1.4424-.27372-1.44211.18967-1.44183-.10294-1.44158-.40461-1.44134.2771-1.44114.27473-1.44095-.15027-1.44078.05365-1.44063-.67687-1.44052.61983-1.44041.32283-1.44034-.765-1.44028.663-1.44025-.07764-1.44025-.1001-1.44027-.33814-1.4403-.10715L253.069,12.022l-1.44046.05789-1.44059-.30961-1.44072-.099-1.44089.76736-1.44109-.2494-1.4413.36189-1.44156-.11594-1.44182-.48866-1.44213-.04682-1.44246-.004-1.44281.263-1.44276-.22874-1.44245.54253-1.44215-.59908-1.44189-.12814-1.44166.26713-1.44146-.11161-1.44128.57649-1.44115-.20459-1.441-.38982-1.441.531-1.44092-.21653-1.44092.22974-1.44094-.61534-1.441.31888-1.44109-.14392-1.44121-.2584-1.44138.65886-1.44157-.61687-1.44181.63076-1.44207-.69869-1.44238.801-1.44273-.67745-1.4431.36784-1.44291-.5364-1.44258.475-1.44229-.02554-1.442.04-1.44184.07245-1.44167-.30918-1.44155.14682-1.44147.363-1.43722-.13611L189.644,12.068l-1.43823-.31413-1.43881.444-1.43942.34275-1.44009-.79879-1.44081.25529-1.44158-.07929-1.44239.30738-1.44326-.03668-1.443.20053-1.44232-.52989-1.44164.3979-1.441-.3144-1.44047-.12516-1.44.55684-1.43953.04322-1.43914.026-1.43881-.19932-1.43855.30034-1.43835-.81891-1.43821.4384-1.43813.04242-1.43813.33369-1.43818-.87316-1.43832.10611-1.4385.16465-1.43878.52983-1.43912-.0347-1.43953-.07065-1.44.1518-1.44059-.53054-1.44124-.15845-1.442.4428-1.44277-.33653-1.44366.52693-1.44455-.47523-1.44371.53782-1.443.00071-1.44229-.5526-1.44172.62065-1.44124-.13568-1.44088-.84189-1.44059.29222-1.44043-.19279-1.44037.78726-1.44041-.66262-1.44056.62535-1.44083-.53086-1.44122-.22725-1.44172.29613-1.44236-.182-1.44311.10551-1.444.0794-1.445-.09213-1.4446.34483-1.44377-.1142-1.4431-.37163-1.44257.30836-1.44219-.05237-1.442-.27036-1.44192-.071-1.442.00235-1.44233.54088-1.4428.28483-1.44346-.06622-1.4443-.69372-1.44534.735-1.44516-.82144-1.4443.69787-1.44365-.49751-1.44324-.149-1.44306-.08218-1.44311.71852-1.44344.07859-1.444-.69649-1.44487.81212-1.446-.17078L78.635,11.8047l-1.44445.22477-1.444.29572-1.44389-.4767-1.44412.38789-1.44473.20631-1.44573.0227-1.4459-.41761-1.445-.01569-1.44457.03311-1.4446.1106-1.44513-.11542-1.43931-.23206-1.43975.28465L58.423,12.02043l-1.4424.267-1.4447.10758-1.44736-.32219-1.44493-.34248L51.2003,12.049l-1.44255-.17954-1.44273.02786-1.44388.44-1.4461-.02283-1.44765-.48631-1.44544.70073-1.44463-.24351L39.642,12.09151l-1.44764.01166L36.747,12.536,35.3009,11.678l-1.4471.82625-1.44874-.75606-1.44713.39311-1.44883.17432-1.448-.22343-1.44938-.03036-1.4453.36265-1.44533-.74407-1.45011.68083-1.44772-.28779-1.44966-.09466-1.4513.54637-1.44923-.40755-1.45262.28077-1.455-.593-1.37731.38394-.57167,1.35617.25178,1.43482-.14414,1.43474.79861,1.43468-.46617,1.43461-.21308,1.43455.24076,1.4345-.18034,1.43446.54674,1.43442-.83782,1.4344.4409,1.43437.06934,1.43435.28254,1.43435-.61779,1.43435.4836,1.43435-.0983,1.43437L11.841,36.49722l.25632,1.43442.04355,1.43445.13129,1.4345-.09339,1.43455.30989,1.4346.05951,1.43468-.49647,1.43474-.017,1.43483-.093,1.43492.34336,1.435.31318,1.43513-.65514,1.43523-.041,1.43536.056,1.43548.54652,1.43562-.35853,1.43577-.406,1.43592-.07434,1.43608.92187,1.43626-.60909,1.43643.16184,1.43662.0835,1.43682.20341,1.437-.5476,1.43724-.04913,1.43745.39094,1.43769.164,1.43792.17786,1.43817-.00992,1.43843-.86526,1.43869.57039,1.439.11884,1.43925-.688,1.43946-.03592,1.43919.56807,1.43894.16245,1.43871.05216,1.43847-.05564,1.43826-.16135,1.438-.02762,1.43784L11.95057,95.402l.604,1.43747-.09378,1.43729-.39049,1.43714.29014,1.437-.15223,1.43684-.03326,1.43671.20728,1.43659-.33152,1.43648-.38725,1.43637.61617,1.43629-.42354,1.43621.27619,1.43614.14106,1.43608-.148,1.436-.385,1.436.75777,1.436-.25489,1.436-.27705,1.436.39751,1.436.01,1.436-.06,1.436.00259,1.43606-.18125,1.43611-.36738,1.43618.8179,1.43625-.73913,1.43635.66808,1.43645-.78491,1.43656.53966,1.43669L11.9788,138.494l.00732,1.437L11.82,141.36809l-.18091,1.43731.19556,1.43751.72924,1.43771-.86374,1.43792.27363,1.43815-.28165,1.43839.17,1.43865.38444,1.43891-.48229,1.4392.84543,1.43948-.348,1.4398-.16394,1.43994-.12656,1.43966.401,1.43938-.16934,1.43913-.16432,1.4389-.42719,1.43867.80394,1.43845-.27832,1.43827-.00824,1.43808.328,1.43791-.57213,1.43777.28232,1.43763-.18509,1.43751.14292,1.4374.36128,1.43732-.57748,1.43725.19221,1.43719.24287,1.43715-.06052,1.43713.32127,1.43712-.92807,1.43713-.00452,1.43716.42635,1.4372-.07831,1.43726-.26515,1.43734.6997,1.43744-.78155,1.43755.48176,1.43768.026,1.43783.11618,1.438-.05152,1.43819.05393,1.43839-.07749,1.43861-.38444,1.43886-.13861,1.43912.77007,1.4394-.18738,1.4397-.18165,1.44-.1605,1.44037-.19428,1.44014.8602,1.43984-.39757,1.43958-.54927,1.43932.89911,1.43909-.16947,1.43887-.6476,1.43869.39548,1.43853.29988,1.43838-.248,1.43825.32642,1.43816-.27332,1.43808.02261,1.438-.21146,1.438.015,1.438.21863,1.438.27979,1.43805-.30186,1.43812-.63283,1.4382.259,1.43833-.0303,1.43847.25239,1.43863-.24134,1.43883.63924,1.43905.09387,1.43929-.00842,1.43957-.42259,1.43987-.38124,1.4402-.02084,1.44055.69152,1.4405L11.763,257.887l.63735,1.4399.17981,1.43963-.08487,1.4394-.05795,1.4392.05066,1.439-.06623,1.43889.02619,1.43879-.26566,1.43871.26493,1.43867.04907,1.43866.03812,1.43868-.0622,1.43874-.3556,1.43883.0947,1.439-.32582,1.43912.63451,1.43932-.43238,1.43954-.22877,1.43982.01343,1.44012.39237,1.44046.0069,1.44085.336,1.44065-.90231,1.44031.67086,1.44.00647,1.43979-.04169,1.43958-.12565,1.43941-.156,1.43929.43392,1.43457-.12113,1.435-.14976,1.43548-.2847,1.436.38,1.43658.24928,1.43721-.16865,1.43788-.59944,1.43859.58214,1.43935-.47405,1.44017.12354,1.441.45186,1.44081-.754,1.4401.29417,1.43942.56908,1.43881-.90057,1.43825.64092,1.43775-.604,1.43731.79431,1.43692-.51424,1.4366-.15662,1.43633.23881,1.43613.04306,1.436-.23362,1.43592.00424,1.43591.15784,1.436-.02881,1.4361-.04678,1.43629.51418,1.43656-.29121,1.4369-.22312,1.43732.3751,1.4378-.55745,1.43837.7651,1.439.04181,1.43974-.36964,1.44055-.37486,1.44144.29435,1.44233-.34132,1.44148-.09332,1.44073.77465,1.44007-.30961,1.4395.21924,1.439-.457,1.43866-.01,1.43838.53419,1.4382-.76165,1.43815.70892,1.43819.0394,1.43834-.34016,1.43862-.41078,1.439.07575,1.43951.79107,1.44013-.59978,1.44088.5243,1.44177-.64449,1.44279.168,1.44237-.11271,1.44155.65707,1.44087-.4186,1.44035.0011,1.44.2819,1.43975-.7199,1.43971.00592,1.43982.15543,1.4401-.19132,1.44058.39409,1.44123.49067,1.44207-.69469,1.44312.47041,1.44293-.1781,1.44208.2641,1.44143-.26737,1.441.31666,1.44083-.215,1.4409-.07907,1.44121-.47667,1.44178.14316,1.44264.31465,1.44378-.46151,1.443.53814,1.44223-.50533,1.44177-.12543,1.44167.78616,1.4419-.46929,1.4425-.15164,1.4435.56947,1.44367-.09906,1.44278-.20988,1.44234-.14847,1.44238.3144,1.44289-.594,1.4371.68118,1.43753-.511,1.43855.34029,1.44018.44624,1.44248L12.028,437.843l.05561,1.44271.41,1.44109-.38459,1.44034-.27174,1.44049-.19245,1.44166.12083,1.44388.15158,1.44541-.06436,1.44322.16944,1.4424-.3325,1.44308.37364,1.44542.24738,1.44514-.6299,1.44387.44145,1.44486.23578,1.44651.21034,1.44491-.61611,1.44659-.1594,1.44579-.12613,1.44715.55754,1.44307.051,1.44311-.33418,1.44787.01886,1.44549.53767,1.44743-.7473,1.44906.47749,1.447.15265,1.45038.14133,1.49261Z"/><polygon class="cls-2" points="11.008 453.87 12.414 454.122 13.924 453.929 15.432 453.697 16.943 453.505 18.457 453.675 20.303 453.435 20.115 455.277 20.067 456.787 20.261 458.295 19.825 459.806 19.531 461.32 19.665 462.53 18.462 462.423 16.952 463.02 15.445 462.57 13.933 462.47 12.42 462.434 11.048 462.691 10.605 461.325 11.221 459.815 11.074 458.308 10.511 456.796 11.243 455.294 11.008 453.87"/><polygon class="cls-2" points="20.083 462.946 21.478 462.694 22.988 462.916 24.495 463.265 26.007 462.819 27.52 462.575 29.089 462.778 28.755 464.341 28.724 465.851 28.981 467.359 28.882 468.87 28.548 470.383 29.163 472.026 27.526 472.08 26.016 471.416 24.508 471.519 22.997 471.454 21.484 472.1 19.823 472.044 19.594 470.389 20.214 468.879 20.421 467.371 20.173 465.86 19.566 464.331 20.083 462.946"/><polygon class="cls-2" points="10.666 471.657 12.414 471.923 13.924 472.394 15.432 472.286 16.943 471.966 18.457 471.85 19.834 472.034 20.131 473.405 20.33 474.915 19.586 476.422 20.223 477.934 19.579 479.447 20.247 481.236 18.462 481.371 16.952 481.403 15.445 481.07 13.933 481.02 12.42 480.727 11.039 480.828 11.072 479.453 10.55 477.943 11.195 476.435 10.502 474.924 10.607 473.432 10.666 471.657"/><polygon class="cls-2" points="29.316 472.178 30.542 472.289 32.052 472.036 33.559 472.124 35.071 471.469 36.584 471.971 38.248 471.745 38.573 473.405 38.334 474.915 38.514 476.422 38.447 477.934 38.262 479.447 38.216 481.079 36.59 480.657 35.08 481.059 33.572 481.295 32.061 480.883 30.547 480.908 29.242 480.752 29.01 479.453 28.928 477.943 29.389 476.435 29.477 474.924 28.583 473.364 29.316 472.178"/><polygon class="cls-2" points="532.343 453.489 530.554 453.306 529.044 453.538 527.537 453.63 526.025 454.245 524.512 453.649 522.662 453.432 523.151 455.277 522.613 456.787 522.615 458.295 523.275 459.806 522.621 461.32 522.68 463.15 524.506 462.92 526.016 462.625 527.524 462.722 529.035 463.173 530.549 462.539 531.84 462.611 532.127 461.325 531.749 459.815 532.388 458.308 531.85 456.796 531.584 455.242 532.343 453.489"/><polygon class="cls-2" points="522.664 463.166 521.49 462.543 519.98 463.059 518.473 462.805 516.962 462.672 515.448 463.217 513.691 462.588 514.215 464.341 513.947 465.851 514.113 467.359 514.302 468.87 513.678 470.383 514.288 471.544 515.443 471.425 516.952 472.174 518.46 471.709 519.971 471.701 521.484 471.987 522.746 471.643 523.477 470.389 522.532 468.879 522.659 467.371 522.784 465.86 523.113 464.333 522.664 463.166"/><polygon class="cls-2" points="532.036 471.922 530.554 471.451 529.044 472.174 527.537 472.088 526.025 472.334 524.512 471.9 523.248 472.147 523.297 473.405 523.336 474.915 522.907 476.422 522.599 477.934 523.409 479.447 522.915 481.044 524.506 480.911 526.016 481.381 527.524 480.838 529.035 481.298 530.549 481.231 532.117 481.016 532.432 479.453 532.223 477.943 531.817 476.435 532.378 474.924 531.995 473.411 532.036 471.922"/><polygon class="cls-2" points="514.286 471.546 512.426 471.546 510.917 471.877 509.409 471.801 507.898 471.736 506.384 471.509 505.206 472.233 505.257 473.405 505.065 474.915 505.118 476.422 505.058 477.934 504.956 479.447 504.585 481.245 506.378 481.026 507.888 481.349 509.396 481.167 510.907 480.631 512.421 480.522 514.165 481.192 514.354 479.453 513.697 477.943 514.399 476.435 514.391 474.924 513.984 473.415 514.286 471.546"/><polygon class="cls-2" points="11.091 37.914 12.414 38.097 13.924 37.619 15.432 38.354 16.943 38.228 18.457 37.852 19.709 37.836 19.513 36.59 19.664 35.08 20.291 33.572 19.694 32.061 20.105 30.547 20.113 28.892 18.462 29.034 16.952 28.591 15.445 28.554 13.933 28.688 12.42 29.038 11.04 29.169 11.251 30.542 10.763 32.052 10.894 33.559 11.061 35.071 11.141 36.569 11.091 37.914"/><polygon class="cls-2" points="19.827 29.176 21.478 29.078 22.988 28.817 24.495 28.884 26.007 28.68 27.52 29.465 28.745 28.745 29.241 27.526 28.966 26.016 29.267 24.508 29.251 22.997 28.857 21.484 28.841 20.162 27.526 20.272 26.016 20.177 24.508 19.792 22.997 20.422 21.484 19.802 20.262 20.264 20.344 21.478 20.246 22.988 19.71 24.496 20.068 26.007 20.246 27.533 19.827 29.176"/><polygon class="cls-2" points="10.737 20.138 12.414 20.234 13.924 19.706 15.432 20.407 16.943 19.998 18.457 19.994 20.238 20.239 19.678 18.462 19.75 16.952 20.158 15.445 19.617 13.933 19.877 12.42 20.031 10.846 18.462 11.205 16.952 10.582 15.445 10.702 13.933 11.112 12.42 10.464 11.074 11.075 10.937 12.414 10.467 13.924 10.539 15.432 10.962 16.943 10.495 18.435 10.737 20.138"/><polygon class="cls-2" points="29.125 19.879 30.542 20.368 32.052 20.19 33.559 19.724 35.071 19.71 36.584 19.656 37.767 19.638 37.737 18.462 38.445 16.952 37.956 15.445 37.658 13.933 37.822 12.42 37.848 11.155 36.59 10.611 35.08 10.7 33.572 11.028 32.061 11.392 30.547 11.36 29.184 11.057 28.696 12.414 28.549 13.924 29.221 15.432 28.874 16.943 29.01 18.457 29.125 19.879"/><polygon class="cls-2" points="531.715 37.752 530.554 37.729 529.044 37.688 527.537 37.815 526.025 37.808 524.512 38.327 523.179 37.917 522.597 36.59 522.669 35.08 522.983 33.572 523.486 32.061 523.458 30.547 523.226 29.261 524.506 29.076 526.016 29.404 527.524 29.345 529.035 29.532 530.549 28.568 532.327 28.768 532.351 30.542 532.096 32.052 532.262 33.559 531.599 35.071 532.347 36.621 531.715 37.752"/><polygon class="cls-2" points="522.694 28.731 521.49 29.169 519.98 28.927 518.473 28.856 516.962 29.051 515.448 29.172 514.23 28.737 513.983 27.526 513.6 26.016 513.772 24.508 513.549 22.997 513.89 21.484 513.714 19.751 515.443 19.653 516.952 19.841 518.46 20.12 519.971 20.19 521.484 20.1 523.145 19.822 522.918 21.478 522.595 22.988 522.964 24.496 522.766 26.007 522.788 27.497 522.694 28.731"/><polygon class="cls-2" points="531.77 19.679 530.554 19.661 529.044 20.07 527.537 20.395 526.025 20.411 524.512 19.8 523.277 19.69 522.563 18.462 522.942 16.952 523.055 15.445 523.315 13.933 522.886 12.42 523.004 10.913 524.506 11.314 526.016 11.012 527.524 10.601 529.035 10.943 530.549 11.342 531.868 11.101 532.56 12.414 531.941 13.924 532.19 15.432 532.157 16.943 532.236 18.475 531.77 19.679"/><polygon class="cls-2" points="514.019 20.055 512.426 19.771 510.917 19.75 509.409 19.691 507.898 20.26 506.384 19.654 504.728 20.113 505.328 18.462 504.39 16.952 504.74 15.445 504.458 13.933 505.203 12.42 504.951 10.987 506.378 10.427 507.888 10.84 509.396 11.309 510.907 11.172 512.421 10.938 513.7 11.142 514.394 12.414 514.425 13.924 514.079 15.432 513.468 16.943 514.127 18.451 514.019 20.055"/></g></svg>