<?xml version="1.0" encoding="utf-8"?>
<!-- Generator: Adobe Illustrator 22.0.1, SVG Export Plug-In . SVG Version: 6.00 Build 0)  -->
<svg version="1.1" id="Layer_1" xmlns="http://www.w3.org/2000/svg" xmlns:xlink="http://www.w3.org/1999/xlink" x="0px" y="0px"
	 viewBox="0 0 19.7 17.2" style="enable-background:new 0 0 19.7 17.2;" xml:space="preserve">
<style type="text/css">
	.st0{fill:#7A7A7A;}
</style>
<path class="st0" d="M1.1,8.7c0,0.1,0,0.2,0,0.2l4.3,7.3c0.1,0.1,0.2,0.2,0.4,0.2h8.5c0,0,0.1,0,0.1,0h0c0.1,0,0.1-0.1,0.2-0.1
	l4.3-7.3c0-0.1,0.1-0.1,0-0.2c0-0.1,0-0.2,0-0.2l-4.3-7.3c0-0.1-0.1-0.1-0.2-0.1h0c0,0-0.1,0-0.1,0H5.7c0,0-0.1,0-0.1,0h0
	C5.5,1,5.4,1.1,5.4,1.1L1.1,8.5C1.1,8.5,1.1,8.6,1.1,8.7z M6.5,9.8h7.3v1.5l-1.6,2.1l-1.7-2.3c-0.1-0.1-0.2-0.2-0.3-0.2
	c-0.1,0-0.2,0.1-0.3,0.2l-1.7,2.3l-1.7-2.2L6.5,9.8z M9.3,9H7.1l7-7l0.8,1.4L9.3,9z M13.2,1.7L9.9,5L6.6,1.7H13.2z M8.3,6.7L5,3.3
	l0.8-1.4l3.6,3.6L8.3,6.7z M4.6,4.1l3.1,3.2L5.9,9.1l0,0C5.8,9.2,5.8,9.3,5.8,9.4v5.9L1.9,8.7L4.6,4.1z M6.5,15.6v-3.2l1.4,1.8
	c0.1,0.1,0.2,0.2,0.3,0.2c0.1,0,0.2-0.1,0.3-0.2l1.7-2.3l1.7,2.3c0.1,0.1,0.2,0.2,0.3,0.2c0.1,0,0.2-0.1,0.3-0.2l1.3-1.7v3H6.5z
	 M14.5,9.1C14.4,9,14.3,9,14.2,9h-3.8l4.9-4.9L18,8.7l-3.4,5.9V9.4L14.5,9.1z"/>
<path class="st0" d="M19.9,8.6L15,0.1C15,0.1,14.9,0,14.9,0H5.1C5,0,4.9,0,4.9,0.1L0,8.6C0,8.6,0,8.8,0,8.8l4.9,8.4
	c0,0.1,0.1,0.1,0.2,0.1h9.8c0.1,0,0.2,0,0.2-0.1L20,8.8c0,0,0-0.1,0-0.1C20,8.7,20,8.6,19.9,8.6z M19.4,8.7l-4.7,8.2H5.2L0.5,8.7
	l4.7-8.2h9.5L19.4,8.7z"/>
</svg>
